G04 #@! TF.FileFunction,Soldermask,Top*
%FSLAX46Y46*%
G04 Gerber Fmt 4.6, Leading zero omitted, Abs format (unit mm)*
G04 Created by KiCad (PCBNEW 4.0.4-stable) date 04/10/17 21:25:14*
%MOMM*%
%LPD*%
G01*
G04 APERTURE LIST*
%ADD10C,0.100000*%
G04 APERTURE END LIST*
D10*
G36*
X134831034Y-82786351D02*
X134831052Y-82786357D01*
X134831132Y-82786365D01*
X135026891Y-82846963D01*
X135207153Y-82944430D01*
X135365049Y-83075053D01*
X135494567Y-83233858D01*
X135590773Y-83414795D01*
X135650003Y-83610973D01*
X135670000Y-83814919D01*
X135670000Y-83825154D01*
X135669927Y-83835685D01*
X135669926Y-83835692D01*
X135669898Y-83839741D01*
X135647055Y-84043388D01*
X135585092Y-84238720D01*
X135486369Y-84418296D01*
X135354647Y-84575277D01*
X135194941Y-84703684D01*
X135013337Y-84798624D01*
X134816750Y-84856483D01*
X134816680Y-84856489D01*
X134816661Y-84856495D01*
X134612675Y-84875059D01*
X134408966Y-84853649D01*
X134408948Y-84853643D01*
X134408868Y-84853635D01*
X134213109Y-84793037D01*
X134032847Y-84695570D01*
X133874951Y-84564947D01*
X133745433Y-84406142D01*
X133649227Y-84225205D01*
X133589997Y-84029027D01*
X133570000Y-83825081D01*
X133570000Y-83814846D01*
X133570073Y-83804315D01*
X133570074Y-83804308D01*
X133570102Y-83800259D01*
X133592945Y-83596612D01*
X133654908Y-83401280D01*
X133753631Y-83221704D01*
X133885353Y-83064723D01*
X134045059Y-82936316D01*
X134226663Y-82841376D01*
X134423250Y-82783517D01*
X134423320Y-82783511D01*
X134423339Y-82783505D01*
X134627325Y-82764941D01*
X134831034Y-82786351D01*
X134831034Y-82786351D01*
G37*
G36*
X138210000Y-84870000D02*
X136110000Y-84870000D01*
X136110000Y-82770000D01*
X138210000Y-82770000D01*
X138210000Y-84870000D01*
X138210000Y-84870000D01*
G37*
G36*
X95030000Y-84870000D02*
X92930000Y-84870000D01*
X92930000Y-82770000D01*
X95030000Y-82770000D01*
X95030000Y-84870000D01*
X95030000Y-84870000D01*
G37*
G36*
X91455685Y-82770073D02*
X91455692Y-82770074D01*
X91459741Y-82770102D01*
X91663388Y-82792945D01*
X91858720Y-82854908D01*
X92038296Y-82953631D01*
X92195277Y-83085353D01*
X92323684Y-83245059D01*
X92418624Y-83426663D01*
X92476483Y-83623250D01*
X92476489Y-83623320D01*
X92476495Y-83623339D01*
X92495059Y-83827325D01*
X92473649Y-84031034D01*
X92473643Y-84031052D01*
X92473635Y-84031132D01*
X92413037Y-84226891D01*
X92315570Y-84407153D01*
X92184947Y-84565049D01*
X92026142Y-84694567D01*
X91845205Y-84790773D01*
X91649027Y-84850003D01*
X91445081Y-84870000D01*
X91434846Y-84870000D01*
X91424315Y-84869927D01*
X91424308Y-84869926D01*
X91420259Y-84869898D01*
X91216612Y-84847055D01*
X91021280Y-84785092D01*
X90841704Y-84686369D01*
X90684723Y-84554647D01*
X90556316Y-84394941D01*
X90461376Y-84213337D01*
X90403517Y-84016750D01*
X90403511Y-84016680D01*
X90403505Y-84016661D01*
X90384941Y-83812675D01*
X90406351Y-83608966D01*
X90406357Y-83608948D01*
X90406365Y-83608868D01*
X90466963Y-83413109D01*
X90564430Y-83232847D01*
X90695053Y-83074951D01*
X90853858Y-82945433D01*
X91034795Y-82849227D01*
X91230973Y-82789997D01*
X91434919Y-82770000D01*
X91445154Y-82770000D01*
X91455685Y-82770073D01*
X91455685Y-82770073D01*
G37*
G36*
X98024437Y-79049483D02*
X98453218Y-79137498D01*
X98856732Y-79307120D01*
X99219619Y-79551891D01*
X99528049Y-79862481D01*
X99770277Y-80227065D01*
X99937080Y-80631758D01*
X100021963Y-81060452D01*
X100021963Y-81060468D01*
X100022096Y-81061141D01*
X100015115Y-81561097D01*
X100014964Y-81561760D01*
X100014964Y-81561784D01*
X99918144Y-81987936D01*
X99740105Y-82387820D01*
X99487793Y-82745493D01*
X99170810Y-83047353D01*
X98801226Y-83281897D01*
X98393139Y-83440184D01*
X97962064Y-83516195D01*
X97524442Y-83507027D01*
X97096935Y-83413035D01*
X96695826Y-83237794D01*
X96336395Y-82987983D01*
X96032330Y-82673114D01*
X95795214Y-82305181D01*
X95634077Y-81898198D01*
X95555061Y-81467673D01*
X95561173Y-81030000D01*
X95652180Y-80601844D01*
X95824617Y-80199518D01*
X96071913Y-79838352D01*
X96384650Y-79532097D01*
X96750916Y-79292419D01*
X97156761Y-79128447D01*
X97586728Y-79046426D01*
X98024437Y-79049483D01*
X98024437Y-79049483D01*
G37*
G36*
X145014437Y-79049483D02*
X145443218Y-79137498D01*
X145846732Y-79307120D01*
X146209619Y-79551891D01*
X146518049Y-79862481D01*
X146760277Y-80227065D01*
X146927080Y-80631758D01*
X147011963Y-81060452D01*
X147011963Y-81060468D01*
X147012096Y-81061141D01*
X147005115Y-81561097D01*
X147004964Y-81561760D01*
X147004964Y-81561784D01*
X146908144Y-81987936D01*
X146730105Y-82387820D01*
X146477793Y-82745493D01*
X146160810Y-83047353D01*
X145791226Y-83281897D01*
X145383139Y-83440184D01*
X144952064Y-83516195D01*
X144514442Y-83507027D01*
X144086935Y-83413035D01*
X143685826Y-83237794D01*
X143326395Y-82987983D01*
X143022330Y-82673114D01*
X142785214Y-82305181D01*
X142624077Y-81898198D01*
X142545061Y-81467673D01*
X142551173Y-81030000D01*
X142642180Y-80601844D01*
X142814617Y-80199518D01*
X143061913Y-79838352D01*
X143374650Y-79532097D01*
X143740916Y-79292419D01*
X144146761Y-79128447D01*
X144576728Y-79046426D01*
X145014437Y-79049483D01*
X145014437Y-79049483D01*
G37*
G36*
X121495000Y-81625000D02*
X121498959Y-81652859D01*
X121510523Y-81678513D01*
X121528776Y-81699929D01*
X121552272Y-81715412D01*
X121579152Y-81723736D01*
X121580000Y-81723804D01*
X121580000Y-83375000D01*
X119680000Y-83375000D01*
X119680000Y-81725000D01*
X120345000Y-81725000D01*
X120372859Y-81721041D01*
X120398513Y-81709477D01*
X120419929Y-81691224D01*
X120435412Y-81667728D01*
X120443736Y-81640848D01*
X120445000Y-81625000D01*
X120445000Y-79250000D01*
X121495000Y-79250000D01*
X121495000Y-81625000D01*
X121495000Y-81625000D01*
G37*
G36*
X119080000Y-83375000D02*
X117180000Y-83375000D01*
X117180000Y-81725000D01*
X119080000Y-81725000D01*
X119080000Y-83375000D01*
X119080000Y-83375000D01*
G37*
G36*
X126700000Y-83375000D02*
X124800000Y-83375000D01*
X124800000Y-81725000D01*
X126700000Y-81725000D01*
X126700000Y-83375000D01*
X126700000Y-83375000D01*
G37*
G36*
X129200000Y-83375000D02*
X127300000Y-83375000D01*
X127300000Y-81725000D01*
X129200000Y-81725000D01*
X129200000Y-83375000D01*
X129200000Y-83375000D01*
G37*
G36*
X91455685Y-80230073D02*
X91455692Y-80230074D01*
X91459741Y-80230102D01*
X91663388Y-80252945D01*
X91858720Y-80314908D01*
X92038296Y-80413631D01*
X92195277Y-80545353D01*
X92323684Y-80705059D01*
X92418624Y-80886663D01*
X92476483Y-81083250D01*
X92476489Y-81083320D01*
X92476495Y-81083339D01*
X92495059Y-81287325D01*
X92473649Y-81491034D01*
X92473643Y-81491052D01*
X92473635Y-81491132D01*
X92413037Y-81686891D01*
X92315570Y-81867153D01*
X92184947Y-82025049D01*
X92026142Y-82154567D01*
X91845205Y-82250773D01*
X91649027Y-82310003D01*
X91445081Y-82330000D01*
X91434846Y-82330000D01*
X91424315Y-82329927D01*
X91424308Y-82329926D01*
X91420259Y-82329898D01*
X91216612Y-82307055D01*
X91021280Y-82245092D01*
X90841704Y-82146369D01*
X90684723Y-82014647D01*
X90556316Y-81854941D01*
X90461376Y-81673337D01*
X90403517Y-81476750D01*
X90403511Y-81476680D01*
X90403505Y-81476661D01*
X90384941Y-81272675D01*
X90406351Y-81068966D01*
X90406357Y-81068948D01*
X90406365Y-81068868D01*
X90466963Y-80873109D01*
X90564430Y-80692847D01*
X90695053Y-80534951D01*
X90853858Y-80405433D01*
X91034795Y-80309227D01*
X91230973Y-80249997D01*
X91434919Y-80230000D01*
X91445154Y-80230000D01*
X91455685Y-80230073D01*
X91455685Y-80230073D01*
G37*
G36*
X93995685Y-80230073D02*
X93995692Y-80230074D01*
X93999741Y-80230102D01*
X94203388Y-80252945D01*
X94398720Y-80314908D01*
X94578296Y-80413631D01*
X94735277Y-80545353D01*
X94863684Y-80705059D01*
X94958624Y-80886663D01*
X95016483Y-81083250D01*
X95016489Y-81083320D01*
X95016495Y-81083339D01*
X95035059Y-81287325D01*
X95013649Y-81491034D01*
X95013643Y-81491052D01*
X95013635Y-81491132D01*
X94953037Y-81686891D01*
X94855570Y-81867153D01*
X94724947Y-82025049D01*
X94566142Y-82154567D01*
X94385205Y-82250773D01*
X94189027Y-82310003D01*
X93985081Y-82330000D01*
X93974846Y-82330000D01*
X93964315Y-82329927D01*
X93964308Y-82329926D01*
X93960259Y-82329898D01*
X93756612Y-82307055D01*
X93561280Y-82245092D01*
X93381704Y-82146369D01*
X93224723Y-82014647D01*
X93096316Y-81854941D01*
X93001376Y-81673337D01*
X92943517Y-81476750D01*
X92943511Y-81476680D01*
X92943505Y-81476661D01*
X92924941Y-81272675D01*
X92946351Y-81068966D01*
X92946357Y-81068948D01*
X92946365Y-81068868D01*
X93006963Y-80873109D01*
X93104430Y-80692847D01*
X93235053Y-80534951D01*
X93393858Y-80405433D01*
X93574795Y-80309227D01*
X93770973Y-80249997D01*
X93974919Y-80230000D01*
X93985154Y-80230000D01*
X93995685Y-80230073D01*
X93995685Y-80230073D01*
G37*
G36*
X132925000Y-81650000D02*
X131875000Y-81650000D01*
X131875000Y-79250000D01*
X132925000Y-79250000D01*
X132925000Y-81650000D01*
X132925000Y-81650000D01*
G37*
G36*
X123395000Y-81650000D02*
X122345000Y-81650000D01*
X122345000Y-79250000D01*
X123395000Y-79250000D01*
X123395000Y-81650000D01*
X123395000Y-81650000D01*
G37*
G36*
X134825000Y-81650000D02*
X133775000Y-81650000D01*
X133775000Y-79250000D01*
X134825000Y-79250000D01*
X134825000Y-81650000D01*
X134825000Y-81650000D01*
G37*
G36*
X129120000Y-81040000D02*
X127420000Y-81040000D01*
X127420000Y-79140000D01*
X129120000Y-79140000D01*
X129120000Y-81040000D01*
X129120000Y-81040000D01*
G37*
G36*
X126580000Y-81040000D02*
X124880000Y-81040000D01*
X124880000Y-79140000D01*
X126580000Y-79140000D01*
X126580000Y-81040000D01*
X126580000Y-81040000D01*
G37*
G36*
X138010000Y-81040000D02*
X136310000Y-81040000D01*
X136310000Y-79140000D01*
X138010000Y-79140000D01*
X138010000Y-81040000D01*
X138010000Y-81040000D01*
G37*
G36*
X140550000Y-81040000D02*
X138850000Y-81040000D01*
X138850000Y-79140000D01*
X140550000Y-79140000D01*
X140550000Y-81040000D01*
X140550000Y-81040000D01*
G37*
G36*
X118935000Y-80940000D02*
X117285000Y-80940000D01*
X117285000Y-79040000D01*
X118935000Y-79040000D01*
X118935000Y-80940000D01*
X118935000Y-80940000D01*
G37*
G36*
X93995685Y-77690073D02*
X93995692Y-77690074D01*
X93999741Y-77690102D01*
X94203388Y-77712945D01*
X94398720Y-77774908D01*
X94578296Y-77873631D01*
X94735277Y-78005353D01*
X94863684Y-78165059D01*
X94958624Y-78346663D01*
X95016483Y-78543250D01*
X95016489Y-78543320D01*
X95016495Y-78543339D01*
X95035059Y-78747325D01*
X95013649Y-78951034D01*
X95013643Y-78951052D01*
X95013635Y-78951132D01*
X94953037Y-79146891D01*
X94855570Y-79327153D01*
X94724947Y-79485049D01*
X94566142Y-79614567D01*
X94385205Y-79710773D01*
X94189027Y-79770003D01*
X93985081Y-79790000D01*
X93974846Y-79790000D01*
X93964315Y-79789927D01*
X93964308Y-79789926D01*
X93960259Y-79789898D01*
X93756612Y-79767055D01*
X93561280Y-79705092D01*
X93381704Y-79606369D01*
X93224723Y-79474647D01*
X93096316Y-79314941D01*
X93001376Y-79133337D01*
X92943517Y-78936750D01*
X92943511Y-78936680D01*
X92943505Y-78936661D01*
X92924941Y-78732675D01*
X92946351Y-78528966D01*
X92946357Y-78528948D01*
X92946365Y-78528868D01*
X93006963Y-78333109D01*
X93104430Y-78152847D01*
X93235053Y-77994951D01*
X93393858Y-77865433D01*
X93574795Y-77769227D01*
X93770973Y-77709997D01*
X93974919Y-77690000D01*
X93985154Y-77690000D01*
X93995685Y-77690073D01*
X93995685Y-77690073D01*
G37*
G36*
X91455685Y-77690073D02*
X91455692Y-77690074D01*
X91459741Y-77690102D01*
X91663388Y-77712945D01*
X91858720Y-77774908D01*
X92038296Y-77873631D01*
X92195277Y-78005353D01*
X92323684Y-78165059D01*
X92418624Y-78346663D01*
X92476483Y-78543250D01*
X92476489Y-78543320D01*
X92476495Y-78543339D01*
X92495059Y-78747325D01*
X92473649Y-78951034D01*
X92473643Y-78951052D01*
X92473635Y-78951132D01*
X92413037Y-79146891D01*
X92315570Y-79327153D01*
X92184947Y-79485049D01*
X92026142Y-79614567D01*
X91845205Y-79710773D01*
X91649027Y-79770003D01*
X91445081Y-79790000D01*
X91434846Y-79790000D01*
X91424315Y-79789927D01*
X91424308Y-79789926D01*
X91420259Y-79789898D01*
X91216612Y-79767055D01*
X91021280Y-79705092D01*
X90841704Y-79606369D01*
X90684723Y-79474647D01*
X90556316Y-79314941D01*
X90461376Y-79133337D01*
X90403517Y-78936750D01*
X90403511Y-78936680D01*
X90403505Y-78936661D01*
X90384941Y-78732675D01*
X90406351Y-78528966D01*
X90406357Y-78528948D01*
X90406365Y-78528868D01*
X90466963Y-78333109D01*
X90564430Y-78152847D01*
X90695053Y-77994951D01*
X90853858Y-77865433D01*
X91034795Y-77769227D01*
X91230973Y-77709997D01*
X91434919Y-77690000D01*
X91445154Y-77690000D01*
X91455685Y-77690073D01*
X91455685Y-77690073D01*
G37*
G36*
X118935000Y-78440000D02*
X117285000Y-78440000D01*
X117285000Y-76540000D01*
X118935000Y-76540000D01*
X118935000Y-78440000D01*
X118935000Y-78440000D01*
G37*
G36*
X138010000Y-78340000D02*
X136310000Y-78340000D01*
X136310000Y-76440000D01*
X138010000Y-76440000D01*
X138010000Y-78340000D01*
X138010000Y-78340000D01*
G37*
G36*
X140550000Y-78340000D02*
X138850000Y-78340000D01*
X138850000Y-76440000D01*
X140550000Y-76440000D01*
X140550000Y-78340000D01*
X140550000Y-78340000D01*
G37*
G36*
X129120000Y-78340000D02*
X127420000Y-78340000D01*
X127420000Y-76440000D01*
X129120000Y-76440000D01*
X129120000Y-78340000D01*
X129120000Y-78340000D01*
G37*
G36*
X126580000Y-78340000D02*
X124880000Y-78340000D01*
X124880000Y-76440000D01*
X126580000Y-76440000D01*
X126580000Y-78340000D01*
X126580000Y-78340000D01*
G37*
G36*
X123395000Y-78230000D02*
X120445000Y-78230000D01*
X120445000Y-75830000D01*
X123395000Y-75830000D01*
X123395000Y-78230000D01*
X123395000Y-78230000D01*
G37*
G36*
X134825000Y-78230000D02*
X131875000Y-78230000D01*
X131875000Y-75830000D01*
X134825000Y-75830000D01*
X134825000Y-78230000D01*
X134825000Y-78230000D01*
G37*
G36*
X143210000Y-77787000D02*
X141310000Y-77787000D01*
X141310000Y-76137000D01*
X143210000Y-76137000D01*
X143210000Y-77787000D01*
X143210000Y-77787000D01*
G37*
G36*
X145710000Y-77787000D02*
X143810000Y-77787000D01*
X143810000Y-76137000D01*
X145710000Y-76137000D01*
X145710000Y-77787000D01*
X145710000Y-77787000D01*
G37*
G36*
X111971034Y-75166351D02*
X111971052Y-75166357D01*
X111971132Y-75166365D01*
X112166891Y-75226963D01*
X112347153Y-75324430D01*
X112505049Y-75455053D01*
X112634567Y-75613858D01*
X112730773Y-75794795D01*
X112790003Y-75990973D01*
X112810000Y-76194919D01*
X112810000Y-76205154D01*
X112809927Y-76215685D01*
X112809926Y-76215692D01*
X112809898Y-76219741D01*
X112787055Y-76423388D01*
X112725092Y-76618720D01*
X112626369Y-76798296D01*
X112494647Y-76955277D01*
X112334941Y-77083684D01*
X112153337Y-77178624D01*
X111956750Y-77236483D01*
X111956680Y-77236489D01*
X111956661Y-77236495D01*
X111752675Y-77255059D01*
X111548966Y-77233649D01*
X111548948Y-77233643D01*
X111548868Y-77233635D01*
X111353109Y-77173037D01*
X111172847Y-77075570D01*
X111014951Y-76944947D01*
X110885433Y-76786142D01*
X110789227Y-76605205D01*
X110729997Y-76409027D01*
X110710000Y-76205081D01*
X110710000Y-76194846D01*
X110710073Y-76184315D01*
X110710074Y-76184308D01*
X110710102Y-76180259D01*
X110732945Y-75976612D01*
X110794908Y-75781280D01*
X110893631Y-75601704D01*
X111025353Y-75444723D01*
X111185059Y-75316316D01*
X111366663Y-75221376D01*
X111563250Y-75163517D01*
X111563320Y-75163511D01*
X111563339Y-75163505D01*
X111767325Y-75144941D01*
X111971034Y-75166351D01*
X111971034Y-75166351D01*
G37*
G36*
X101811034Y-75166351D02*
X101811052Y-75166357D01*
X101811132Y-75166365D01*
X102006891Y-75226963D01*
X102187153Y-75324430D01*
X102345049Y-75455053D01*
X102474567Y-75613858D01*
X102570773Y-75794795D01*
X102630003Y-75990973D01*
X102650000Y-76194919D01*
X102650000Y-76205154D01*
X102649927Y-76215685D01*
X102649926Y-76215692D01*
X102649898Y-76219741D01*
X102627055Y-76423388D01*
X102565092Y-76618720D01*
X102466369Y-76798296D01*
X102334647Y-76955277D01*
X102174941Y-77083684D01*
X101993337Y-77178624D01*
X101796750Y-77236483D01*
X101796680Y-77236489D01*
X101796661Y-77236495D01*
X101592675Y-77255059D01*
X101388966Y-77233649D01*
X101388948Y-77233643D01*
X101388868Y-77233635D01*
X101193109Y-77173037D01*
X101012847Y-77075570D01*
X100854951Y-76944947D01*
X100725433Y-76786142D01*
X100629227Y-76605205D01*
X100569997Y-76409027D01*
X100550000Y-76205081D01*
X100550000Y-76194846D01*
X100550073Y-76184315D01*
X100550074Y-76184308D01*
X100550102Y-76180259D01*
X100572945Y-75976612D01*
X100634908Y-75781280D01*
X100733631Y-75601704D01*
X100865353Y-75444723D01*
X101025059Y-75316316D01*
X101206663Y-75221376D01*
X101403250Y-75163517D01*
X101403320Y-75163511D01*
X101403339Y-75163505D01*
X101607325Y-75144941D01*
X101811034Y-75166351D01*
X101811034Y-75166351D01*
G37*
G36*
X106891034Y-75166351D02*
X106891052Y-75166357D01*
X106891132Y-75166365D01*
X107086891Y-75226963D01*
X107267153Y-75324430D01*
X107425049Y-75455053D01*
X107554567Y-75613858D01*
X107650773Y-75794795D01*
X107710003Y-75990973D01*
X107730000Y-76194919D01*
X107730000Y-76205154D01*
X107729927Y-76215685D01*
X107729926Y-76215692D01*
X107729898Y-76219741D01*
X107707055Y-76423388D01*
X107645092Y-76618720D01*
X107546369Y-76798296D01*
X107414647Y-76955277D01*
X107254941Y-77083684D01*
X107073337Y-77178624D01*
X106876750Y-77236483D01*
X106876680Y-77236489D01*
X106876661Y-77236495D01*
X106672675Y-77255059D01*
X106468966Y-77233649D01*
X106468948Y-77233643D01*
X106468868Y-77233635D01*
X106273109Y-77173037D01*
X106092847Y-77075570D01*
X105934951Y-76944947D01*
X105805433Y-76786142D01*
X105709227Y-76605205D01*
X105649997Y-76409027D01*
X105630000Y-76205081D01*
X105630000Y-76194846D01*
X105630073Y-76184315D01*
X105630074Y-76184308D01*
X105630102Y-76180259D01*
X105652945Y-75976612D01*
X105714908Y-75781280D01*
X105813631Y-75601704D01*
X105945353Y-75444723D01*
X106105059Y-75316316D01*
X106286663Y-75221376D01*
X106483250Y-75163517D01*
X106483320Y-75163511D01*
X106483339Y-75163505D01*
X106687325Y-75144941D01*
X106891034Y-75166351D01*
X106891034Y-75166351D01*
G37*
G36*
X109431034Y-75166351D02*
X109431052Y-75166357D01*
X109431132Y-75166365D01*
X109626891Y-75226963D01*
X109807153Y-75324430D01*
X109965049Y-75455053D01*
X110094567Y-75613858D01*
X110190773Y-75794795D01*
X110250003Y-75990973D01*
X110270000Y-76194919D01*
X110270000Y-76205154D01*
X110269927Y-76215685D01*
X110269926Y-76215692D01*
X110269898Y-76219741D01*
X110247055Y-76423388D01*
X110185092Y-76618720D01*
X110086369Y-76798296D01*
X109954647Y-76955277D01*
X109794941Y-77083684D01*
X109613337Y-77178624D01*
X109416750Y-77236483D01*
X109416680Y-77236489D01*
X109416661Y-77236495D01*
X109212675Y-77255059D01*
X109008966Y-77233649D01*
X109008948Y-77233643D01*
X109008868Y-77233635D01*
X108813109Y-77173037D01*
X108632847Y-77075570D01*
X108474951Y-76944947D01*
X108345433Y-76786142D01*
X108249227Y-76605205D01*
X108189997Y-76409027D01*
X108170000Y-76205081D01*
X108170000Y-76194846D01*
X108170073Y-76184315D01*
X108170074Y-76184308D01*
X108170102Y-76180259D01*
X108192945Y-75976612D01*
X108254908Y-75781280D01*
X108353631Y-75601704D01*
X108485353Y-75444723D01*
X108645059Y-75316316D01*
X108826663Y-75221376D01*
X109023250Y-75163517D01*
X109023320Y-75163511D01*
X109023339Y-75163505D01*
X109227325Y-75144941D01*
X109431034Y-75166351D01*
X109431034Y-75166351D01*
G37*
G36*
X104351034Y-75166351D02*
X104351052Y-75166357D01*
X104351132Y-75166365D01*
X104546891Y-75226963D01*
X104727153Y-75324430D01*
X104885049Y-75455053D01*
X105014567Y-75613858D01*
X105110773Y-75794795D01*
X105170003Y-75990973D01*
X105190000Y-76194919D01*
X105190000Y-76205154D01*
X105189927Y-76215685D01*
X105189926Y-76215692D01*
X105189898Y-76219741D01*
X105167055Y-76423388D01*
X105105092Y-76618720D01*
X105006369Y-76798296D01*
X104874647Y-76955277D01*
X104714941Y-77083684D01*
X104533337Y-77178624D01*
X104336750Y-77236483D01*
X104336680Y-77236489D01*
X104336661Y-77236495D01*
X104132675Y-77255059D01*
X103928966Y-77233649D01*
X103928948Y-77233643D01*
X103928868Y-77233635D01*
X103733109Y-77173037D01*
X103552847Y-77075570D01*
X103394951Y-76944947D01*
X103265433Y-76786142D01*
X103169227Y-76605205D01*
X103109997Y-76409027D01*
X103090000Y-76205081D01*
X103090000Y-76194846D01*
X103090073Y-76184315D01*
X103090074Y-76184308D01*
X103090102Y-76180259D01*
X103112945Y-75976612D01*
X103174908Y-75781280D01*
X103273631Y-75601704D01*
X103405353Y-75444723D01*
X103565059Y-75316316D01*
X103746663Y-75221376D01*
X103943250Y-75163517D01*
X103943320Y-75163511D01*
X103943339Y-75163505D01*
X104147325Y-75144941D01*
X104351034Y-75166351D01*
X104351034Y-75166351D01*
G37*
G36*
X93995685Y-75150073D02*
X93995692Y-75150074D01*
X93999741Y-75150102D01*
X94203388Y-75172945D01*
X94398720Y-75234908D01*
X94578296Y-75333631D01*
X94735277Y-75465353D01*
X94863684Y-75625059D01*
X94958624Y-75806663D01*
X95016483Y-76003250D01*
X95016489Y-76003320D01*
X95016495Y-76003339D01*
X95035059Y-76207325D01*
X95013649Y-76411034D01*
X95013643Y-76411052D01*
X95013635Y-76411132D01*
X94953037Y-76606891D01*
X94855570Y-76787153D01*
X94724947Y-76945049D01*
X94566142Y-77074567D01*
X94385205Y-77170773D01*
X94189027Y-77230003D01*
X93985081Y-77250000D01*
X93974846Y-77250000D01*
X93964315Y-77249927D01*
X93964308Y-77249926D01*
X93960259Y-77249898D01*
X93756612Y-77227055D01*
X93561280Y-77165092D01*
X93381704Y-77066369D01*
X93224723Y-76934647D01*
X93096316Y-76774941D01*
X93001376Y-76593337D01*
X92943517Y-76396750D01*
X92943511Y-76396680D01*
X92943505Y-76396661D01*
X92924941Y-76192675D01*
X92946351Y-75988966D01*
X92946357Y-75988948D01*
X92946365Y-75988868D01*
X93006963Y-75793109D01*
X93104430Y-75612847D01*
X93235053Y-75454951D01*
X93393858Y-75325433D01*
X93574795Y-75229227D01*
X93770973Y-75169997D01*
X93974919Y-75150000D01*
X93985154Y-75150000D01*
X93995685Y-75150073D01*
X93995685Y-75150073D01*
G37*
G36*
X91455685Y-75150073D02*
X91455692Y-75150074D01*
X91459741Y-75150102D01*
X91663388Y-75172945D01*
X91858720Y-75234908D01*
X92038296Y-75333631D01*
X92195277Y-75465353D01*
X92323684Y-75625059D01*
X92418624Y-75806663D01*
X92476483Y-76003250D01*
X92476489Y-76003320D01*
X92476495Y-76003339D01*
X92495059Y-76207325D01*
X92473649Y-76411034D01*
X92473643Y-76411052D01*
X92473635Y-76411132D01*
X92413037Y-76606891D01*
X92315570Y-76787153D01*
X92184947Y-76945049D01*
X92026142Y-77074567D01*
X91845205Y-77170773D01*
X91649027Y-77230003D01*
X91445081Y-77250000D01*
X91434846Y-77250000D01*
X91424315Y-77249927D01*
X91424308Y-77249926D01*
X91420259Y-77249898D01*
X91216612Y-77227055D01*
X91021280Y-77165092D01*
X90841704Y-77066369D01*
X90684723Y-76934647D01*
X90556316Y-76774941D01*
X90461376Y-76593337D01*
X90403517Y-76396750D01*
X90403511Y-76396680D01*
X90403505Y-76396661D01*
X90384941Y-76192675D01*
X90406351Y-75988966D01*
X90406357Y-75988948D01*
X90406365Y-75988868D01*
X90466963Y-75793109D01*
X90564430Y-75612847D01*
X90695053Y-75454951D01*
X90853858Y-75325433D01*
X91034795Y-75229227D01*
X91230973Y-75169997D01*
X91434919Y-75150000D01*
X91445154Y-75150000D01*
X91455685Y-75150073D01*
X91455685Y-75150073D01*
G37*
G36*
X118935000Y-75860000D02*
X117285000Y-75860000D01*
X117285000Y-73960000D01*
X118935000Y-73960000D01*
X118935000Y-75860000D01*
X118935000Y-75860000D01*
G37*
G36*
X129200000Y-71106000D02*
X129203959Y-71133859D01*
X129215523Y-71159513D01*
X129233776Y-71180929D01*
X129257272Y-71196412D01*
X129284152Y-71204736D01*
X129300000Y-71206000D01*
X131000000Y-71206000D01*
X131000000Y-72735000D01*
X131003959Y-72762859D01*
X131015523Y-72788513D01*
X131033776Y-72809929D01*
X131057272Y-72825412D01*
X131084152Y-72833736D01*
X131100000Y-72835000D01*
X133050000Y-72835000D01*
X133050000Y-74485000D01*
X131100000Y-74485000D01*
X131072141Y-74488959D01*
X131046487Y-74500523D01*
X131025071Y-74518776D01*
X131009588Y-74542272D01*
X131001264Y-74569152D01*
X131000000Y-74585000D01*
X131000000Y-75606000D01*
X129350000Y-75606000D01*
X129350000Y-74585000D01*
X129346041Y-74557141D01*
X129334477Y-74531487D01*
X129316224Y-74510071D01*
X129292728Y-74494588D01*
X129265848Y-74486264D01*
X129250000Y-74485000D01*
X127300000Y-74485000D01*
X127300000Y-73206000D01*
X129200000Y-73206000D01*
X129200000Y-73606000D01*
X129203959Y-73633859D01*
X129215523Y-73659513D01*
X129233776Y-73680929D01*
X129257272Y-73696412D01*
X129284152Y-73704736D01*
X129300000Y-73706000D01*
X131050000Y-73706000D01*
X131077859Y-73702041D01*
X131103513Y-73690477D01*
X131124929Y-73672224D01*
X131140412Y-73648728D01*
X131148736Y-73621848D01*
X131150000Y-73606000D01*
X131150000Y-73206000D01*
X131146041Y-73178141D01*
X131134477Y-73152487D01*
X131116224Y-73131071D01*
X131092728Y-73115588D01*
X131065848Y-73107264D01*
X131050000Y-73106000D01*
X129300000Y-73106000D01*
X129272141Y-73109959D01*
X129246487Y-73121523D01*
X129225071Y-73139776D01*
X129209588Y-73163272D01*
X129201264Y-73190152D01*
X129200000Y-73206000D01*
X127300000Y-73206000D01*
X127300000Y-72835000D01*
X129250000Y-72835000D01*
X129277859Y-72831041D01*
X129303513Y-72819477D01*
X129324929Y-72801224D01*
X129340412Y-72777728D01*
X129348736Y-72750848D01*
X129350000Y-72735000D01*
X129350000Y-72045000D01*
X129346041Y-72017141D01*
X129334477Y-71991487D01*
X129316224Y-71970071D01*
X129292728Y-71954588D01*
X129265848Y-71946264D01*
X129250000Y-71945000D01*
X127300000Y-71945000D01*
X127300000Y-70295000D01*
X129200000Y-70295000D01*
X129200000Y-71106000D01*
X129200000Y-71106000D01*
G37*
G36*
X145710000Y-75501000D02*
X143810000Y-75501000D01*
X143810000Y-73851000D01*
X145710000Y-73851000D01*
X145710000Y-75501000D01*
X145710000Y-75501000D01*
G37*
G36*
X143210000Y-75501000D02*
X141310000Y-75501000D01*
X141310000Y-73851000D01*
X143210000Y-73851000D01*
X143210000Y-75501000D01*
X143210000Y-75501000D01*
G37*
G36*
X104351034Y-72626351D02*
X104351052Y-72626357D01*
X104351132Y-72626365D01*
X104546891Y-72686963D01*
X104727153Y-72784430D01*
X104885049Y-72915053D01*
X105014567Y-73073858D01*
X105110773Y-73254795D01*
X105170003Y-73450973D01*
X105190000Y-73654919D01*
X105190000Y-73665154D01*
X105189927Y-73675685D01*
X105189926Y-73675692D01*
X105189898Y-73679741D01*
X105167055Y-73883388D01*
X105105092Y-74078720D01*
X105006369Y-74258296D01*
X104874647Y-74415277D01*
X104714941Y-74543684D01*
X104533337Y-74638624D01*
X104336750Y-74696483D01*
X104336680Y-74696489D01*
X104336661Y-74696495D01*
X104132675Y-74715059D01*
X103928966Y-74693649D01*
X103928948Y-74693643D01*
X103928868Y-74693635D01*
X103733109Y-74633037D01*
X103552847Y-74535570D01*
X103394951Y-74404947D01*
X103265433Y-74246142D01*
X103169227Y-74065205D01*
X103109997Y-73869027D01*
X103090000Y-73665081D01*
X103090000Y-73654846D01*
X103090073Y-73644315D01*
X103090074Y-73644308D01*
X103090102Y-73640259D01*
X103112945Y-73436612D01*
X103174908Y-73241280D01*
X103273631Y-73061704D01*
X103405353Y-72904723D01*
X103565059Y-72776316D01*
X103746663Y-72681376D01*
X103943250Y-72623517D01*
X103943320Y-72623511D01*
X103943339Y-72623505D01*
X104147325Y-72604941D01*
X104351034Y-72626351D01*
X104351034Y-72626351D01*
G37*
G36*
X106891034Y-72626351D02*
X106891052Y-72626357D01*
X106891132Y-72626365D01*
X107086891Y-72686963D01*
X107267153Y-72784430D01*
X107425049Y-72915053D01*
X107554567Y-73073858D01*
X107650773Y-73254795D01*
X107710003Y-73450973D01*
X107730000Y-73654919D01*
X107730000Y-73665154D01*
X107729927Y-73675685D01*
X107729926Y-73675692D01*
X107729898Y-73679741D01*
X107707055Y-73883388D01*
X107645092Y-74078720D01*
X107546369Y-74258296D01*
X107414647Y-74415277D01*
X107254941Y-74543684D01*
X107073337Y-74638624D01*
X106876750Y-74696483D01*
X106876680Y-74696489D01*
X106876661Y-74696495D01*
X106672675Y-74715059D01*
X106468966Y-74693649D01*
X106468948Y-74693643D01*
X106468868Y-74693635D01*
X106273109Y-74633037D01*
X106092847Y-74535570D01*
X105934951Y-74404947D01*
X105805433Y-74246142D01*
X105709227Y-74065205D01*
X105649997Y-73869027D01*
X105630000Y-73665081D01*
X105630000Y-73654846D01*
X105630073Y-73644315D01*
X105630074Y-73644308D01*
X105630102Y-73640259D01*
X105652945Y-73436612D01*
X105714908Y-73241280D01*
X105813631Y-73061704D01*
X105945353Y-72904723D01*
X106105059Y-72776316D01*
X106286663Y-72681376D01*
X106483250Y-72623517D01*
X106483320Y-72623511D01*
X106483339Y-72623505D01*
X106687325Y-72604941D01*
X106891034Y-72626351D01*
X106891034Y-72626351D01*
G37*
G36*
X101811034Y-72626351D02*
X101811052Y-72626357D01*
X101811132Y-72626365D01*
X102006891Y-72686963D01*
X102187153Y-72784430D01*
X102345049Y-72915053D01*
X102474567Y-73073858D01*
X102570773Y-73254795D01*
X102630003Y-73450973D01*
X102650000Y-73654919D01*
X102650000Y-73665154D01*
X102649927Y-73675685D01*
X102649926Y-73675692D01*
X102649898Y-73679741D01*
X102627055Y-73883388D01*
X102565092Y-74078720D01*
X102466369Y-74258296D01*
X102334647Y-74415277D01*
X102174941Y-74543684D01*
X101993337Y-74638624D01*
X101796750Y-74696483D01*
X101796680Y-74696489D01*
X101796661Y-74696495D01*
X101592675Y-74715059D01*
X101388966Y-74693649D01*
X101388948Y-74693643D01*
X101388868Y-74693635D01*
X101193109Y-74633037D01*
X101012847Y-74535570D01*
X100854951Y-74404947D01*
X100725433Y-74246142D01*
X100629227Y-74065205D01*
X100569997Y-73869027D01*
X100550000Y-73665081D01*
X100550000Y-73654846D01*
X100550073Y-73644315D01*
X100550074Y-73644308D01*
X100550102Y-73640259D01*
X100572945Y-73436612D01*
X100634908Y-73241280D01*
X100733631Y-73061704D01*
X100865353Y-72904723D01*
X101025059Y-72776316D01*
X101206663Y-72681376D01*
X101403250Y-72623517D01*
X101403320Y-72623511D01*
X101403339Y-72623505D01*
X101607325Y-72604941D01*
X101811034Y-72626351D01*
X101811034Y-72626351D01*
G37*
G36*
X109431034Y-72626351D02*
X109431052Y-72626357D01*
X109431132Y-72626365D01*
X109626891Y-72686963D01*
X109807153Y-72784430D01*
X109965049Y-72915053D01*
X110094567Y-73073858D01*
X110190773Y-73254795D01*
X110250003Y-73450973D01*
X110270000Y-73654919D01*
X110270000Y-73665154D01*
X110269927Y-73675685D01*
X110269926Y-73675692D01*
X110269898Y-73679741D01*
X110247055Y-73883388D01*
X110185092Y-74078720D01*
X110086369Y-74258296D01*
X109954647Y-74415277D01*
X109794941Y-74543684D01*
X109613337Y-74638624D01*
X109416750Y-74696483D01*
X109416680Y-74696489D01*
X109416661Y-74696495D01*
X109212675Y-74715059D01*
X109008966Y-74693649D01*
X109008948Y-74693643D01*
X109008868Y-74693635D01*
X108813109Y-74633037D01*
X108632847Y-74535570D01*
X108474951Y-74404947D01*
X108345433Y-74246142D01*
X108249227Y-74065205D01*
X108189997Y-73869027D01*
X108170000Y-73665081D01*
X108170000Y-73654846D01*
X108170073Y-73644315D01*
X108170074Y-73644308D01*
X108170102Y-73640259D01*
X108192945Y-73436612D01*
X108254908Y-73241280D01*
X108353631Y-73061704D01*
X108485353Y-72904723D01*
X108645059Y-72776316D01*
X108826663Y-72681376D01*
X109023250Y-72623517D01*
X109023320Y-72623511D01*
X109023339Y-72623505D01*
X109227325Y-72604941D01*
X109431034Y-72626351D01*
X109431034Y-72626351D01*
G37*
G36*
X91455685Y-72610073D02*
X91455692Y-72610074D01*
X91459741Y-72610102D01*
X91663388Y-72632945D01*
X91858720Y-72694908D01*
X92038296Y-72793631D01*
X92195277Y-72925353D01*
X92323684Y-73085059D01*
X92418624Y-73266663D01*
X92476483Y-73463250D01*
X92476489Y-73463320D01*
X92476495Y-73463339D01*
X92495059Y-73667325D01*
X92473649Y-73871034D01*
X92473643Y-73871052D01*
X92473635Y-73871132D01*
X92413037Y-74066891D01*
X92315570Y-74247153D01*
X92184947Y-74405049D01*
X92026142Y-74534567D01*
X91845205Y-74630773D01*
X91649027Y-74690003D01*
X91445081Y-74710000D01*
X91434846Y-74710000D01*
X91424315Y-74709927D01*
X91424308Y-74709926D01*
X91420259Y-74709898D01*
X91216612Y-74687055D01*
X91021280Y-74625092D01*
X90841704Y-74526369D01*
X90684723Y-74394647D01*
X90556316Y-74234941D01*
X90461376Y-74053337D01*
X90403517Y-73856750D01*
X90403511Y-73856680D01*
X90403505Y-73856661D01*
X90384941Y-73652675D01*
X90406351Y-73448966D01*
X90406357Y-73448948D01*
X90406365Y-73448868D01*
X90466963Y-73253109D01*
X90564430Y-73072847D01*
X90695053Y-72914951D01*
X90853858Y-72785433D01*
X91034795Y-72689227D01*
X91230973Y-72629997D01*
X91434919Y-72610000D01*
X91445154Y-72610000D01*
X91455685Y-72610073D01*
X91455685Y-72610073D01*
G37*
G36*
X112810000Y-74710000D02*
X110710000Y-74710000D01*
X110710000Y-72610000D01*
X112810000Y-72610000D01*
X112810000Y-74710000D01*
X112810000Y-74710000D01*
G37*
G36*
X93995685Y-72610073D02*
X93995692Y-72610074D01*
X93999741Y-72610102D01*
X94203388Y-72632945D01*
X94398720Y-72694908D01*
X94578296Y-72793631D01*
X94735277Y-72925353D01*
X94863684Y-73085059D01*
X94958624Y-73266663D01*
X95016483Y-73463250D01*
X95016489Y-73463320D01*
X95016495Y-73463339D01*
X95035059Y-73667325D01*
X95013649Y-73871034D01*
X95013643Y-73871052D01*
X95013635Y-73871132D01*
X94953037Y-74066891D01*
X94855570Y-74247153D01*
X94724947Y-74405049D01*
X94566142Y-74534567D01*
X94385205Y-74630773D01*
X94189027Y-74690003D01*
X93985081Y-74710000D01*
X93974846Y-74710000D01*
X93964315Y-74709927D01*
X93964308Y-74709926D01*
X93960259Y-74709898D01*
X93756612Y-74687055D01*
X93561280Y-74625092D01*
X93381704Y-74526369D01*
X93224723Y-74394647D01*
X93096316Y-74234941D01*
X93001376Y-74053337D01*
X92943517Y-73856750D01*
X92943511Y-73856680D01*
X92943505Y-73856661D01*
X92924941Y-73652675D01*
X92946351Y-73448966D01*
X92946357Y-73448948D01*
X92946365Y-73448868D01*
X93006963Y-73253109D01*
X93104430Y-73072847D01*
X93235053Y-72914951D01*
X93393858Y-72785433D01*
X93574795Y-72689227D01*
X93770973Y-72629997D01*
X93974919Y-72610000D01*
X93985154Y-72610000D01*
X93995685Y-72610073D01*
X93995685Y-72610073D01*
G37*
G36*
X138130000Y-74485000D02*
X136230000Y-74485000D01*
X136230000Y-72835000D01*
X138130000Y-72835000D01*
X138130000Y-74485000D01*
X138130000Y-74485000D01*
G37*
G36*
X121620000Y-74485000D02*
X119720000Y-74485000D01*
X119720000Y-72835000D01*
X121620000Y-72835000D01*
X121620000Y-74485000D01*
X121620000Y-74485000D01*
G37*
G36*
X124120000Y-74485000D02*
X122220000Y-74485000D01*
X122220000Y-72835000D01*
X124120000Y-72835000D01*
X124120000Y-74485000D01*
X124120000Y-74485000D01*
G37*
G36*
X140630000Y-74485000D02*
X138730000Y-74485000D01*
X138730000Y-72835000D01*
X140630000Y-72835000D01*
X140630000Y-74485000D01*
X140630000Y-74485000D01*
G37*
G36*
X126700000Y-74485000D02*
X124800000Y-74485000D01*
X124800000Y-72835000D01*
X126700000Y-72835000D01*
X126700000Y-74485000D01*
X126700000Y-74485000D01*
G37*
G36*
X135550000Y-74485000D02*
X133650000Y-74485000D01*
X133650000Y-72835000D01*
X135550000Y-72835000D01*
X135550000Y-74485000D01*
X135550000Y-74485000D01*
G37*
G36*
X148586041Y-71420796D02*
X148816570Y-71468116D01*
X149033512Y-71559310D01*
X149228615Y-71690908D01*
X149394436Y-71857891D01*
X149524666Y-72053904D01*
X149614347Y-72271486D01*
X149659919Y-72501641D01*
X149659919Y-72501666D01*
X149660051Y-72502334D01*
X149656298Y-72771128D01*
X149656147Y-72771791D01*
X149656147Y-72771815D01*
X149604164Y-73000612D01*
X149508445Y-73215603D01*
X149372794Y-73407900D01*
X149202372Y-73570191D01*
X149003669Y-73696291D01*
X148784270Y-73781391D01*
X148552507Y-73822257D01*
X148317226Y-73817328D01*
X148087385Y-73766795D01*
X147871734Y-73672579D01*
X147678491Y-73538272D01*
X147515015Y-73368987D01*
X147387533Y-73171173D01*
X147300899Y-72952363D01*
X147258418Y-72720900D01*
X147261704Y-72485592D01*
X147310633Y-72255400D01*
X147403341Y-72039094D01*
X147536296Y-71844919D01*
X147704433Y-71680268D01*
X147901354Y-71551406D01*
X148119547Y-71463250D01*
X148350714Y-71419152D01*
X148586041Y-71420796D01*
X148586041Y-71420796D01*
G37*
G36*
X118935000Y-73360000D02*
X117285000Y-73360000D01*
X117285000Y-71460000D01*
X118935000Y-71460000D01*
X118935000Y-73360000D01*
X118935000Y-73360000D01*
G37*
G36*
X143636041Y-70820796D02*
X143866570Y-70868116D01*
X144083512Y-70959310D01*
X144278615Y-71090908D01*
X144444436Y-71257891D01*
X144574666Y-71453904D01*
X144664347Y-71671486D01*
X144709919Y-71901641D01*
X144709919Y-71901666D01*
X144710051Y-71902334D01*
X144706298Y-72171128D01*
X144706147Y-72171791D01*
X144706147Y-72171815D01*
X144654164Y-72400612D01*
X144558445Y-72615603D01*
X144422794Y-72807900D01*
X144252372Y-72970191D01*
X144053669Y-73096291D01*
X143834270Y-73181391D01*
X143602507Y-73222257D01*
X143367226Y-73217328D01*
X143137385Y-73166795D01*
X142921734Y-73072579D01*
X142728491Y-72938272D01*
X142565015Y-72768987D01*
X142437533Y-72571173D01*
X142350899Y-72352363D01*
X142308418Y-72120900D01*
X142311704Y-71885592D01*
X142360633Y-71655400D01*
X142453341Y-71439094D01*
X142586296Y-71244919D01*
X142754433Y-71080268D01*
X142951354Y-70951406D01*
X143169547Y-70863250D01*
X143400714Y-70819152D01*
X143636041Y-70820796D01*
X143636041Y-70820796D01*
G37*
G36*
X93995685Y-70070073D02*
X93995692Y-70070074D01*
X93999741Y-70070102D01*
X94203388Y-70092945D01*
X94398720Y-70154908D01*
X94578296Y-70253631D01*
X94735277Y-70385353D01*
X94863684Y-70545059D01*
X94958624Y-70726663D01*
X95016483Y-70923250D01*
X95016489Y-70923320D01*
X95016495Y-70923339D01*
X95035059Y-71127325D01*
X95013649Y-71331034D01*
X95013643Y-71331052D01*
X95013635Y-71331132D01*
X94953037Y-71526891D01*
X94855570Y-71707153D01*
X94724947Y-71865049D01*
X94566142Y-71994567D01*
X94385205Y-72090773D01*
X94189027Y-72150003D01*
X93985081Y-72170000D01*
X93974846Y-72170000D01*
X93964315Y-72169927D01*
X93964308Y-72169926D01*
X93960259Y-72169898D01*
X93756612Y-72147055D01*
X93561280Y-72085092D01*
X93381704Y-71986369D01*
X93224723Y-71854647D01*
X93096316Y-71694941D01*
X93001376Y-71513337D01*
X92943517Y-71316750D01*
X92943511Y-71316680D01*
X92943505Y-71316661D01*
X92924941Y-71112675D01*
X92946351Y-70908966D01*
X92946357Y-70908948D01*
X92946365Y-70908868D01*
X93006963Y-70713109D01*
X93104430Y-70532847D01*
X93235053Y-70374951D01*
X93393858Y-70245433D01*
X93574795Y-70149227D01*
X93770973Y-70089997D01*
X93974919Y-70070000D01*
X93985154Y-70070000D01*
X93995685Y-70070073D01*
X93995685Y-70070073D01*
G37*
G36*
X91455685Y-70070073D02*
X91455692Y-70070074D01*
X91459741Y-70070102D01*
X91663388Y-70092945D01*
X91858720Y-70154908D01*
X92038296Y-70253631D01*
X92195277Y-70385353D01*
X92323684Y-70545059D01*
X92418624Y-70726663D01*
X92476483Y-70923250D01*
X92476489Y-70923320D01*
X92476495Y-70923339D01*
X92495059Y-71127325D01*
X92473649Y-71331034D01*
X92473643Y-71331052D01*
X92473635Y-71331132D01*
X92413037Y-71526891D01*
X92315570Y-71707153D01*
X92184947Y-71865049D01*
X92026142Y-71994567D01*
X91845205Y-72090773D01*
X91649027Y-72150003D01*
X91445081Y-72170000D01*
X91434846Y-72170000D01*
X91424315Y-72169927D01*
X91424308Y-72169926D01*
X91420259Y-72169898D01*
X91216612Y-72147055D01*
X91021280Y-72085092D01*
X90841704Y-71986369D01*
X90684723Y-71854647D01*
X90556316Y-71694941D01*
X90461376Y-71513337D01*
X90403517Y-71316750D01*
X90403511Y-71316680D01*
X90403505Y-71316661D01*
X90384941Y-71112675D01*
X90406351Y-70908966D01*
X90406357Y-70908948D01*
X90406365Y-70908868D01*
X90466963Y-70713109D01*
X90564430Y-70532847D01*
X90695053Y-70374951D01*
X90853858Y-70245433D01*
X91034795Y-70149227D01*
X91230973Y-70089997D01*
X91434919Y-70070000D01*
X91445154Y-70070000D01*
X91455685Y-70070073D01*
X91455685Y-70070073D01*
G37*
G36*
X126700000Y-71945000D02*
X124800000Y-71945000D01*
X124800000Y-70295000D01*
X126700000Y-70295000D01*
X126700000Y-71945000D01*
X126700000Y-71945000D01*
G37*
G36*
X139460000Y-70700000D02*
X137560000Y-70700000D01*
X137560000Y-69000000D01*
X139460000Y-69000000D01*
X139460000Y-70700000D01*
X139460000Y-70700000D01*
G37*
G36*
X136760000Y-70700000D02*
X134860000Y-70700000D01*
X134860000Y-69000000D01*
X136760000Y-69000000D01*
X136760000Y-70700000D01*
X136760000Y-70700000D01*
G37*
G36*
X134380000Y-70700000D02*
X132480000Y-70700000D01*
X132480000Y-69000000D01*
X134380000Y-69000000D01*
X134380000Y-70700000D01*
X134380000Y-70700000D01*
G37*
G36*
X131680000Y-70700000D02*
X129780000Y-70700000D01*
X129780000Y-69000000D01*
X131680000Y-69000000D01*
X131680000Y-70700000D01*
X131680000Y-70700000D01*
G37*
G36*
X91455685Y-67530073D02*
X91455692Y-67530074D01*
X91459741Y-67530102D01*
X91663388Y-67552945D01*
X91858720Y-67614908D01*
X92038296Y-67713631D01*
X92195277Y-67845353D01*
X92323684Y-68005059D01*
X92418624Y-68186663D01*
X92476483Y-68383250D01*
X92476489Y-68383320D01*
X92476495Y-68383339D01*
X92495059Y-68587325D01*
X92473649Y-68791034D01*
X92473643Y-68791052D01*
X92473635Y-68791132D01*
X92413037Y-68986891D01*
X92315570Y-69167153D01*
X92184947Y-69325049D01*
X92026142Y-69454567D01*
X91845205Y-69550773D01*
X91649027Y-69610003D01*
X91445081Y-69630000D01*
X91434846Y-69630000D01*
X91424315Y-69629927D01*
X91424308Y-69629926D01*
X91420259Y-69629898D01*
X91216612Y-69607055D01*
X91021280Y-69545092D01*
X90841704Y-69446369D01*
X90684723Y-69314647D01*
X90556316Y-69154941D01*
X90461376Y-68973337D01*
X90403517Y-68776750D01*
X90403511Y-68776680D01*
X90403505Y-68776661D01*
X90384941Y-68572675D01*
X90406351Y-68368966D01*
X90406357Y-68368948D01*
X90406365Y-68368868D01*
X90466963Y-68173109D01*
X90564430Y-67992847D01*
X90695053Y-67834951D01*
X90853858Y-67705433D01*
X91034795Y-67609227D01*
X91230973Y-67549997D01*
X91434919Y-67530000D01*
X91445154Y-67530000D01*
X91455685Y-67530073D01*
X91455685Y-67530073D01*
G37*
G36*
X93995685Y-67530073D02*
X93995692Y-67530074D01*
X93999741Y-67530102D01*
X94203388Y-67552945D01*
X94398720Y-67614908D01*
X94578296Y-67713631D01*
X94735277Y-67845353D01*
X94863684Y-68005059D01*
X94958624Y-68186663D01*
X95016483Y-68383250D01*
X95016489Y-68383320D01*
X95016495Y-68383339D01*
X95035059Y-68587325D01*
X95013649Y-68791034D01*
X95013643Y-68791052D01*
X95013635Y-68791132D01*
X94953037Y-68986891D01*
X94855570Y-69167153D01*
X94724947Y-69325049D01*
X94566142Y-69454567D01*
X94385205Y-69550773D01*
X94189027Y-69610003D01*
X93985081Y-69630000D01*
X93974846Y-69630000D01*
X93964315Y-69629927D01*
X93964308Y-69629926D01*
X93960259Y-69629898D01*
X93756612Y-69607055D01*
X93561280Y-69545092D01*
X93381704Y-69446369D01*
X93224723Y-69314647D01*
X93096316Y-69154941D01*
X93001376Y-68973337D01*
X92943517Y-68776750D01*
X92943511Y-68776680D01*
X92943505Y-68776661D01*
X92924941Y-68572675D01*
X92946351Y-68368966D01*
X92946357Y-68368948D01*
X92946365Y-68368868D01*
X93006963Y-68173109D01*
X93104430Y-67992847D01*
X93235053Y-67834951D01*
X93393858Y-67705433D01*
X93574795Y-67609227D01*
X93770973Y-67549997D01*
X93974919Y-67530000D01*
X93985154Y-67530000D01*
X93995685Y-67530073D01*
X93995685Y-67530073D01*
G37*
G36*
X143760000Y-69370000D02*
X141460000Y-69370000D01*
X141460000Y-59670000D01*
X143760000Y-59670000D01*
X143760000Y-69370000D01*
X143760000Y-69370000D01*
G37*
G36*
X135520000Y-67995000D02*
X127370000Y-67995000D01*
X127370000Y-66595000D01*
X135520000Y-66595000D01*
X135520000Y-67995000D01*
X135520000Y-67995000D01*
G37*
G36*
X119305254Y-65982269D02*
X119305273Y-65982275D01*
X119305350Y-65982283D01*
X119365943Y-66001039D01*
X119421738Y-66031208D01*
X119470610Y-66071639D01*
X119510699Y-66120793D01*
X119540477Y-66176797D01*
X119558810Y-66237519D01*
X119565000Y-66300645D01*
X119565000Y-67459437D01*
X119564997Y-67459839D01*
X119564968Y-67463893D01*
X119557898Y-67526926D01*
X119538719Y-67587386D01*
X119508162Y-67642969D01*
X119467391Y-67691559D01*
X119417958Y-67731303D01*
X119361747Y-67760690D01*
X119300899Y-67778598D01*
X119300838Y-67778604D01*
X119300809Y-67778612D01*
X119237736Y-67784352D01*
X119174746Y-67777731D01*
X119174727Y-67777725D01*
X119174650Y-67777717D01*
X119114057Y-67758961D01*
X119058262Y-67728792D01*
X119052866Y-67724328D01*
X119029504Y-67710005D01*
X119002367Y-67702564D01*
X118974231Y-67702977D01*
X118947324Y-67711213D01*
X118927799Y-67723391D01*
X118917958Y-67731303D01*
X118861747Y-67760690D01*
X118800899Y-67778598D01*
X118800838Y-67778604D01*
X118800809Y-67778612D01*
X118737736Y-67784352D01*
X118674746Y-67777731D01*
X118674727Y-67777725D01*
X118674650Y-67777717D01*
X118614057Y-67758961D01*
X118558262Y-67728792D01*
X118552866Y-67724328D01*
X118529504Y-67710005D01*
X118502367Y-67702564D01*
X118474231Y-67702977D01*
X118447324Y-67711213D01*
X118427799Y-67723391D01*
X118417958Y-67731303D01*
X118361747Y-67760690D01*
X118300899Y-67778598D01*
X118300838Y-67778604D01*
X118300809Y-67778612D01*
X118237736Y-67784352D01*
X118174746Y-67777731D01*
X118174727Y-67777725D01*
X118174650Y-67777717D01*
X118114057Y-67758961D01*
X118058262Y-67728792D01*
X118052866Y-67724328D01*
X118029504Y-67710005D01*
X118002367Y-67702564D01*
X117974231Y-67702977D01*
X117947324Y-67711213D01*
X117927799Y-67723391D01*
X117917958Y-67731303D01*
X117861747Y-67760690D01*
X117800899Y-67778598D01*
X117800838Y-67778604D01*
X117800809Y-67778612D01*
X117737736Y-67784352D01*
X117674746Y-67777731D01*
X117674727Y-67777725D01*
X117674650Y-67777717D01*
X117614057Y-67758961D01*
X117558262Y-67728792D01*
X117552866Y-67724328D01*
X117529504Y-67710005D01*
X117502367Y-67702564D01*
X117474231Y-67702977D01*
X117447324Y-67711213D01*
X117427799Y-67723391D01*
X117417958Y-67731303D01*
X117361747Y-67760690D01*
X117300899Y-67778598D01*
X117300838Y-67778604D01*
X117300809Y-67778612D01*
X117237736Y-67784352D01*
X117174746Y-67777731D01*
X117174727Y-67777725D01*
X117174650Y-67777717D01*
X117114057Y-67758961D01*
X117058262Y-67728792D01*
X117052866Y-67724328D01*
X117029504Y-67710005D01*
X117002367Y-67702564D01*
X116974231Y-67702977D01*
X116947324Y-67711213D01*
X116927799Y-67723391D01*
X116917958Y-67731303D01*
X116861747Y-67760690D01*
X116800899Y-67778598D01*
X116800838Y-67778604D01*
X116800809Y-67778612D01*
X116737736Y-67784352D01*
X116674746Y-67777731D01*
X116674727Y-67777725D01*
X116674650Y-67777717D01*
X116614057Y-67758961D01*
X116558262Y-67728792D01*
X116552866Y-67724328D01*
X116529504Y-67710005D01*
X116502367Y-67702564D01*
X116474231Y-67702977D01*
X116447324Y-67711213D01*
X116427799Y-67723391D01*
X116417958Y-67731303D01*
X116361747Y-67760690D01*
X116300899Y-67778598D01*
X116300838Y-67778604D01*
X116300809Y-67778612D01*
X116237736Y-67784352D01*
X116174746Y-67777731D01*
X116174727Y-67777725D01*
X116174650Y-67777717D01*
X116114057Y-67758961D01*
X116058262Y-67728792D01*
X116052866Y-67724328D01*
X116029504Y-67710005D01*
X116002367Y-67702564D01*
X115974231Y-67702977D01*
X115947324Y-67711213D01*
X115927799Y-67723391D01*
X115917958Y-67731303D01*
X115861747Y-67760690D01*
X115800899Y-67778598D01*
X115800838Y-67778604D01*
X115800809Y-67778612D01*
X115737736Y-67784352D01*
X115674746Y-67777731D01*
X115674727Y-67777725D01*
X115674650Y-67777717D01*
X115614057Y-67758961D01*
X115558262Y-67728792D01*
X115552866Y-67724328D01*
X115529504Y-67710005D01*
X115502367Y-67702564D01*
X115474231Y-67702977D01*
X115447324Y-67711213D01*
X115427799Y-67723391D01*
X115417958Y-67731303D01*
X115361747Y-67760690D01*
X115300899Y-67778598D01*
X115300838Y-67778604D01*
X115300809Y-67778612D01*
X115237736Y-67784352D01*
X115174746Y-67777731D01*
X115174727Y-67777725D01*
X115174650Y-67777717D01*
X115114057Y-67758961D01*
X115058262Y-67728792D01*
X115052866Y-67724328D01*
X115029504Y-67710005D01*
X115002367Y-67702564D01*
X114974231Y-67702977D01*
X114947324Y-67711213D01*
X114927799Y-67723391D01*
X114917958Y-67731303D01*
X114861747Y-67760690D01*
X114800899Y-67778598D01*
X114800838Y-67778604D01*
X114800809Y-67778612D01*
X114737736Y-67784352D01*
X114674746Y-67777731D01*
X114674727Y-67777725D01*
X114674650Y-67777717D01*
X114614057Y-67758961D01*
X114558262Y-67728792D01*
X114552866Y-67724328D01*
X114529504Y-67710005D01*
X114502367Y-67702564D01*
X114474231Y-67702977D01*
X114447324Y-67711213D01*
X114427799Y-67723391D01*
X114417958Y-67731303D01*
X114361747Y-67760690D01*
X114300899Y-67778598D01*
X114300838Y-67778604D01*
X114300809Y-67778612D01*
X114237736Y-67784352D01*
X114174746Y-67777731D01*
X114174727Y-67777725D01*
X114174650Y-67777717D01*
X114114057Y-67758961D01*
X114058262Y-67728792D01*
X114052866Y-67724328D01*
X114029504Y-67710005D01*
X114002367Y-67702564D01*
X113974231Y-67702977D01*
X113947324Y-67711213D01*
X113927799Y-67723391D01*
X113917958Y-67731303D01*
X113861747Y-67760690D01*
X113800899Y-67778598D01*
X113800838Y-67778604D01*
X113800809Y-67778612D01*
X113737736Y-67784352D01*
X113674746Y-67777731D01*
X113674727Y-67777725D01*
X113674650Y-67777717D01*
X113614057Y-67758961D01*
X113558262Y-67728792D01*
X113552866Y-67724328D01*
X113529504Y-67710005D01*
X113502367Y-67702564D01*
X113474231Y-67702977D01*
X113447324Y-67711213D01*
X113427799Y-67723391D01*
X113417958Y-67731303D01*
X113361747Y-67760690D01*
X113300899Y-67778598D01*
X113300838Y-67778604D01*
X113300809Y-67778612D01*
X113237736Y-67784352D01*
X113174746Y-67777731D01*
X113174727Y-67777725D01*
X113174650Y-67777717D01*
X113114057Y-67758961D01*
X113058262Y-67728792D01*
X113052866Y-67724328D01*
X113029504Y-67710005D01*
X113002367Y-67702564D01*
X112974231Y-67702977D01*
X112947324Y-67711213D01*
X112927799Y-67723391D01*
X112917958Y-67731303D01*
X112861747Y-67760690D01*
X112800899Y-67778598D01*
X112800838Y-67778604D01*
X112800809Y-67778612D01*
X112737736Y-67784352D01*
X112674746Y-67777731D01*
X112674727Y-67777725D01*
X112674650Y-67777717D01*
X112614057Y-67758961D01*
X112558262Y-67728792D01*
X112552866Y-67724328D01*
X112529504Y-67710005D01*
X112502367Y-67702564D01*
X112474231Y-67702977D01*
X112447324Y-67711213D01*
X112427799Y-67723391D01*
X112417958Y-67731303D01*
X112361747Y-67760690D01*
X112300899Y-67778598D01*
X112300838Y-67778604D01*
X112300809Y-67778612D01*
X112237736Y-67784352D01*
X112174746Y-67777731D01*
X112174727Y-67777725D01*
X112174650Y-67777717D01*
X112114057Y-67758961D01*
X112058262Y-67728792D01*
X112052866Y-67724328D01*
X112029504Y-67710005D01*
X112002367Y-67702564D01*
X111974231Y-67702977D01*
X111947324Y-67711213D01*
X111927799Y-67723391D01*
X111917958Y-67731303D01*
X111861747Y-67760690D01*
X111800899Y-67778598D01*
X111800838Y-67778604D01*
X111800809Y-67778612D01*
X111737736Y-67784352D01*
X111674746Y-67777731D01*
X111674727Y-67777725D01*
X111674650Y-67777717D01*
X111614057Y-67758961D01*
X111558262Y-67728792D01*
X111552866Y-67724328D01*
X111529504Y-67710005D01*
X111502367Y-67702564D01*
X111474231Y-67702977D01*
X111447324Y-67711213D01*
X111427799Y-67723391D01*
X111417958Y-67731303D01*
X111361747Y-67760690D01*
X111300899Y-67778598D01*
X111300838Y-67778604D01*
X111300809Y-67778612D01*
X111237736Y-67784352D01*
X111174746Y-67777731D01*
X111174727Y-67777725D01*
X111174650Y-67777717D01*
X111114057Y-67758961D01*
X111058262Y-67728792D01*
X111052866Y-67724328D01*
X111029504Y-67710005D01*
X111002367Y-67702564D01*
X110974231Y-67702977D01*
X110947324Y-67711213D01*
X110927799Y-67723391D01*
X110917958Y-67731303D01*
X110861747Y-67760690D01*
X110800899Y-67778598D01*
X110800838Y-67778604D01*
X110800809Y-67778612D01*
X110737736Y-67784352D01*
X110674746Y-67777731D01*
X110674727Y-67777725D01*
X110674650Y-67777717D01*
X110614057Y-67758961D01*
X110558262Y-67728792D01*
X110552866Y-67724328D01*
X110529504Y-67710005D01*
X110502367Y-67702564D01*
X110474231Y-67702977D01*
X110447324Y-67711213D01*
X110427799Y-67723391D01*
X110417958Y-67731303D01*
X110361747Y-67760690D01*
X110300899Y-67778598D01*
X110300838Y-67778604D01*
X110300809Y-67778612D01*
X110237736Y-67784352D01*
X110174746Y-67777731D01*
X110174727Y-67777725D01*
X110174650Y-67777717D01*
X110114057Y-67758961D01*
X110058262Y-67728792D01*
X110052866Y-67724328D01*
X110029504Y-67710005D01*
X110002367Y-67702564D01*
X109974231Y-67702977D01*
X109947324Y-67711213D01*
X109927799Y-67723391D01*
X109917958Y-67731303D01*
X109861747Y-67760690D01*
X109800899Y-67778598D01*
X109800838Y-67778604D01*
X109800809Y-67778612D01*
X109737736Y-67784352D01*
X109674746Y-67777731D01*
X109674727Y-67777725D01*
X109674650Y-67777717D01*
X109614057Y-67758961D01*
X109558262Y-67728792D01*
X109552866Y-67724328D01*
X109529504Y-67710005D01*
X109502367Y-67702564D01*
X109474231Y-67702977D01*
X109447324Y-67711213D01*
X109427799Y-67723391D01*
X109417958Y-67731303D01*
X109361747Y-67760690D01*
X109300899Y-67778598D01*
X109300838Y-67778604D01*
X109300809Y-67778612D01*
X109237736Y-67784352D01*
X109174746Y-67777731D01*
X109174727Y-67777725D01*
X109174650Y-67777717D01*
X109114057Y-67758961D01*
X109058262Y-67728792D01*
X109052866Y-67724328D01*
X109029504Y-67710005D01*
X109002367Y-67702564D01*
X108974231Y-67702977D01*
X108947324Y-67711213D01*
X108927799Y-67723391D01*
X108917958Y-67731303D01*
X108861747Y-67760690D01*
X108800899Y-67778598D01*
X108800838Y-67778604D01*
X108800809Y-67778612D01*
X108737736Y-67784352D01*
X108674746Y-67777731D01*
X108674727Y-67777725D01*
X108674650Y-67777717D01*
X108614057Y-67758961D01*
X108558262Y-67728792D01*
X108552866Y-67724328D01*
X108529504Y-67710005D01*
X108502367Y-67702564D01*
X108474231Y-67702977D01*
X108447324Y-67711213D01*
X108427799Y-67723391D01*
X108417958Y-67731303D01*
X108361747Y-67760690D01*
X108300899Y-67778598D01*
X108300838Y-67778604D01*
X108300809Y-67778612D01*
X108237736Y-67784352D01*
X108174746Y-67777731D01*
X108174727Y-67777725D01*
X108174650Y-67777717D01*
X108114057Y-67758961D01*
X108058262Y-67728792D01*
X108052866Y-67724328D01*
X108029504Y-67710005D01*
X108002367Y-67702564D01*
X107974231Y-67702977D01*
X107947324Y-67711213D01*
X107927799Y-67723391D01*
X107917958Y-67731303D01*
X107861747Y-67760690D01*
X107800899Y-67778598D01*
X107800838Y-67778604D01*
X107800809Y-67778612D01*
X107737736Y-67784352D01*
X107674746Y-67777731D01*
X107674727Y-67777725D01*
X107674650Y-67777717D01*
X107614057Y-67758961D01*
X107558262Y-67728792D01*
X107552866Y-67724328D01*
X107529504Y-67710005D01*
X107502367Y-67702564D01*
X107474231Y-67702977D01*
X107447324Y-67711213D01*
X107427799Y-67723391D01*
X107417958Y-67731303D01*
X107361747Y-67760690D01*
X107300899Y-67778598D01*
X107300838Y-67778604D01*
X107300809Y-67778612D01*
X107237736Y-67784352D01*
X107174746Y-67777731D01*
X107174727Y-67777725D01*
X107174650Y-67777717D01*
X107114057Y-67758961D01*
X107058262Y-67728792D01*
X107052866Y-67724328D01*
X107029504Y-67710005D01*
X107002367Y-67702564D01*
X106974231Y-67702977D01*
X106947324Y-67711213D01*
X106927799Y-67723391D01*
X106917958Y-67731303D01*
X106861747Y-67760690D01*
X106800899Y-67778598D01*
X106800838Y-67778604D01*
X106800809Y-67778612D01*
X106737736Y-67784352D01*
X106674746Y-67777731D01*
X106674727Y-67777725D01*
X106674650Y-67777717D01*
X106614057Y-67758961D01*
X106558262Y-67728792D01*
X106552866Y-67724328D01*
X106529504Y-67710005D01*
X106502367Y-67702564D01*
X106474231Y-67702977D01*
X106447324Y-67711213D01*
X106427799Y-67723391D01*
X106417958Y-67731303D01*
X106361747Y-67760690D01*
X106300899Y-67778598D01*
X106300838Y-67778604D01*
X106300809Y-67778612D01*
X106237736Y-67784352D01*
X106174746Y-67777731D01*
X106174727Y-67777725D01*
X106174650Y-67777717D01*
X106114057Y-67758961D01*
X106058262Y-67728792D01*
X106052866Y-67724328D01*
X106029504Y-67710005D01*
X106002367Y-67702564D01*
X105974231Y-67702977D01*
X105947324Y-67711213D01*
X105927799Y-67723391D01*
X105917958Y-67731303D01*
X105861747Y-67760690D01*
X105800899Y-67778598D01*
X105800838Y-67778604D01*
X105800809Y-67778612D01*
X105737736Y-67784352D01*
X105674746Y-67777731D01*
X105674727Y-67777725D01*
X105674650Y-67777717D01*
X105614057Y-67758961D01*
X105558262Y-67728792D01*
X105552866Y-67724328D01*
X105529504Y-67710005D01*
X105502367Y-67702564D01*
X105474231Y-67702977D01*
X105447324Y-67711213D01*
X105427799Y-67723391D01*
X105417958Y-67731303D01*
X105361747Y-67760690D01*
X105300899Y-67778598D01*
X105300838Y-67778604D01*
X105300809Y-67778612D01*
X105237736Y-67784352D01*
X105174746Y-67777731D01*
X105174727Y-67777725D01*
X105174650Y-67777717D01*
X105114057Y-67758961D01*
X105058262Y-67728792D01*
X105052866Y-67724328D01*
X105029504Y-67710005D01*
X105002367Y-67702564D01*
X104974231Y-67702977D01*
X104947324Y-67711213D01*
X104927799Y-67723391D01*
X104917958Y-67731303D01*
X104861747Y-67760690D01*
X104800899Y-67778598D01*
X104800838Y-67778604D01*
X104800809Y-67778612D01*
X104737736Y-67784352D01*
X104674746Y-67777731D01*
X104674727Y-67777725D01*
X104674650Y-67777717D01*
X104614057Y-67758961D01*
X104558262Y-67728792D01*
X104552866Y-67724328D01*
X104529504Y-67710005D01*
X104502367Y-67702564D01*
X104474231Y-67702977D01*
X104447324Y-67711213D01*
X104427799Y-67723391D01*
X104417958Y-67731303D01*
X104361747Y-67760690D01*
X104300899Y-67778598D01*
X104300838Y-67778604D01*
X104300809Y-67778612D01*
X104237736Y-67784352D01*
X104174746Y-67777731D01*
X104174727Y-67777725D01*
X104174650Y-67777717D01*
X104114057Y-67758961D01*
X104058262Y-67728792D01*
X104052866Y-67724328D01*
X104029504Y-67710005D01*
X104002367Y-67702564D01*
X103974231Y-67702977D01*
X103947324Y-67711213D01*
X103927799Y-67723391D01*
X103917958Y-67731303D01*
X103861747Y-67760690D01*
X103800899Y-67778598D01*
X103800838Y-67778604D01*
X103800809Y-67778612D01*
X103737736Y-67784352D01*
X103674746Y-67777731D01*
X103674727Y-67777725D01*
X103674650Y-67777717D01*
X103614057Y-67758961D01*
X103558262Y-67728792D01*
X103552866Y-67724328D01*
X103529504Y-67710005D01*
X103502367Y-67702564D01*
X103474231Y-67702977D01*
X103447324Y-67711213D01*
X103427799Y-67723391D01*
X103417958Y-67731303D01*
X103361747Y-67760690D01*
X103300899Y-67778598D01*
X103300838Y-67778604D01*
X103300809Y-67778612D01*
X103237736Y-67784352D01*
X103174746Y-67777731D01*
X103174727Y-67777725D01*
X103174650Y-67777717D01*
X103114057Y-67758961D01*
X103058262Y-67728792D01*
X103052866Y-67724328D01*
X103029504Y-67710005D01*
X103002367Y-67702564D01*
X102974231Y-67702977D01*
X102947324Y-67711213D01*
X102927799Y-67723391D01*
X102917958Y-67731303D01*
X102861747Y-67760690D01*
X102800899Y-67778598D01*
X102800838Y-67778604D01*
X102800809Y-67778612D01*
X102737736Y-67784352D01*
X102674746Y-67777731D01*
X102674727Y-67777725D01*
X102674650Y-67777717D01*
X102614057Y-67758961D01*
X102558262Y-67728792D01*
X102552866Y-67724328D01*
X102529504Y-67710005D01*
X102502367Y-67702564D01*
X102474231Y-67702977D01*
X102447324Y-67711213D01*
X102427799Y-67723391D01*
X102417958Y-67731303D01*
X102361747Y-67760690D01*
X102300899Y-67778598D01*
X102300838Y-67778604D01*
X102300809Y-67778612D01*
X102237736Y-67784352D01*
X102174746Y-67777731D01*
X102174727Y-67777725D01*
X102174650Y-67777717D01*
X102114057Y-67758961D01*
X102058262Y-67728792D01*
X102052866Y-67724328D01*
X102029504Y-67710005D01*
X102002367Y-67702564D01*
X101974231Y-67702977D01*
X101947324Y-67711213D01*
X101927799Y-67723391D01*
X101917958Y-67731303D01*
X101861747Y-67760690D01*
X101800899Y-67778598D01*
X101800838Y-67778604D01*
X101800809Y-67778612D01*
X101737736Y-67784352D01*
X101674746Y-67777731D01*
X101674727Y-67777725D01*
X101674650Y-67777717D01*
X101614057Y-67758961D01*
X101558262Y-67728792D01*
X101509390Y-67688361D01*
X101469301Y-67639207D01*
X101439523Y-67583203D01*
X101421190Y-67522481D01*
X101415000Y-67459355D01*
X101415000Y-66300563D01*
X101415003Y-66300161D01*
X101415003Y-66300157D01*
X101415032Y-66296107D01*
X101422102Y-66233074D01*
X101441281Y-66172614D01*
X101471838Y-66117031D01*
X101512609Y-66068441D01*
X101562042Y-66028697D01*
X101618253Y-65999310D01*
X101679101Y-65981402D01*
X101679162Y-65981396D01*
X101679191Y-65981388D01*
X101742264Y-65975648D01*
X101805254Y-65982269D01*
X101805273Y-65982275D01*
X101805350Y-65982283D01*
X101865943Y-66001039D01*
X101921738Y-66031208D01*
X101927134Y-66035672D01*
X101950496Y-66049995D01*
X101977633Y-66057436D01*
X102005769Y-66057023D01*
X102032676Y-66048787D01*
X102052201Y-66036609D01*
X102062042Y-66028697D01*
X102118253Y-65999310D01*
X102179101Y-65981402D01*
X102179162Y-65981396D01*
X102179191Y-65981388D01*
X102242264Y-65975648D01*
X102305254Y-65982269D01*
X102305273Y-65982275D01*
X102305350Y-65982283D01*
X102365943Y-66001039D01*
X102421738Y-66031208D01*
X102427134Y-66035672D01*
X102450496Y-66049995D01*
X102477633Y-66057436D01*
X102505769Y-66057023D01*
X102532676Y-66048787D01*
X102552201Y-66036609D01*
X102562042Y-66028697D01*
X102618253Y-65999310D01*
X102679101Y-65981402D01*
X102679162Y-65981396D01*
X102679191Y-65981388D01*
X102742264Y-65975648D01*
X102805254Y-65982269D01*
X102805273Y-65982275D01*
X102805350Y-65982283D01*
X102865943Y-66001039D01*
X102921738Y-66031208D01*
X102927134Y-66035672D01*
X102950496Y-66049995D01*
X102977633Y-66057436D01*
X103005769Y-66057023D01*
X103032676Y-66048787D01*
X103052201Y-66036609D01*
X103062042Y-66028697D01*
X103118253Y-65999310D01*
X103179101Y-65981402D01*
X103179162Y-65981396D01*
X103179191Y-65981388D01*
X103242264Y-65975648D01*
X103305254Y-65982269D01*
X103305273Y-65982275D01*
X103305350Y-65982283D01*
X103365943Y-66001039D01*
X103421738Y-66031208D01*
X103427134Y-66035672D01*
X103450496Y-66049995D01*
X103477633Y-66057436D01*
X103505769Y-66057023D01*
X103532676Y-66048787D01*
X103552201Y-66036609D01*
X103562042Y-66028697D01*
X103618253Y-65999310D01*
X103679101Y-65981402D01*
X103679162Y-65981396D01*
X103679191Y-65981388D01*
X103742264Y-65975648D01*
X103805254Y-65982269D01*
X103805273Y-65982275D01*
X103805350Y-65982283D01*
X103865943Y-66001039D01*
X103921738Y-66031208D01*
X103927134Y-66035672D01*
X103950496Y-66049995D01*
X103977633Y-66057436D01*
X104005769Y-66057023D01*
X104032676Y-66048787D01*
X104052201Y-66036609D01*
X104062042Y-66028697D01*
X104118253Y-65999310D01*
X104179101Y-65981402D01*
X104179162Y-65981396D01*
X104179191Y-65981388D01*
X104242264Y-65975648D01*
X104305254Y-65982269D01*
X104305273Y-65982275D01*
X104305350Y-65982283D01*
X104365943Y-66001039D01*
X104421738Y-66031208D01*
X104427134Y-66035672D01*
X104450496Y-66049995D01*
X104477633Y-66057436D01*
X104505769Y-66057023D01*
X104532676Y-66048787D01*
X104552201Y-66036609D01*
X104562042Y-66028697D01*
X104618253Y-65999310D01*
X104679101Y-65981402D01*
X104679162Y-65981396D01*
X104679191Y-65981388D01*
X104742264Y-65975648D01*
X104805254Y-65982269D01*
X104805273Y-65982275D01*
X104805350Y-65982283D01*
X104865943Y-66001039D01*
X104921738Y-66031208D01*
X104927134Y-66035672D01*
X104950496Y-66049995D01*
X104977633Y-66057436D01*
X105005769Y-66057023D01*
X105032676Y-66048787D01*
X105052201Y-66036609D01*
X105062042Y-66028697D01*
X105118253Y-65999310D01*
X105179101Y-65981402D01*
X105179162Y-65981396D01*
X105179191Y-65981388D01*
X105242264Y-65975648D01*
X105305254Y-65982269D01*
X105305273Y-65982275D01*
X105305350Y-65982283D01*
X105365943Y-66001039D01*
X105421738Y-66031208D01*
X105427134Y-66035672D01*
X105450496Y-66049995D01*
X105477633Y-66057436D01*
X105505769Y-66057023D01*
X105532676Y-66048787D01*
X105552201Y-66036609D01*
X105562042Y-66028697D01*
X105618253Y-65999310D01*
X105679101Y-65981402D01*
X105679162Y-65981396D01*
X105679191Y-65981388D01*
X105742264Y-65975648D01*
X105805254Y-65982269D01*
X105805273Y-65982275D01*
X105805350Y-65982283D01*
X105865943Y-66001039D01*
X105921738Y-66031208D01*
X105927134Y-66035672D01*
X105950496Y-66049995D01*
X105977633Y-66057436D01*
X106005769Y-66057023D01*
X106032676Y-66048787D01*
X106052201Y-66036609D01*
X106062042Y-66028697D01*
X106118253Y-65999310D01*
X106179101Y-65981402D01*
X106179162Y-65981396D01*
X106179191Y-65981388D01*
X106242264Y-65975648D01*
X106305254Y-65982269D01*
X106305273Y-65982275D01*
X106305350Y-65982283D01*
X106365943Y-66001039D01*
X106421738Y-66031208D01*
X106427134Y-66035672D01*
X106450496Y-66049995D01*
X106477633Y-66057436D01*
X106505769Y-66057023D01*
X106532676Y-66048787D01*
X106552201Y-66036609D01*
X106562042Y-66028697D01*
X106618253Y-65999310D01*
X106679101Y-65981402D01*
X106679162Y-65981396D01*
X106679191Y-65981388D01*
X106742264Y-65975648D01*
X106805254Y-65982269D01*
X106805273Y-65982275D01*
X106805350Y-65982283D01*
X106865943Y-66001039D01*
X106921738Y-66031208D01*
X106927134Y-66035672D01*
X106950496Y-66049995D01*
X106977633Y-66057436D01*
X107005769Y-66057023D01*
X107032676Y-66048787D01*
X107052201Y-66036609D01*
X107062042Y-66028697D01*
X107118253Y-65999310D01*
X107179101Y-65981402D01*
X107179162Y-65981396D01*
X107179191Y-65981388D01*
X107242264Y-65975648D01*
X107305254Y-65982269D01*
X107305273Y-65982275D01*
X107305350Y-65982283D01*
X107365943Y-66001039D01*
X107421738Y-66031208D01*
X107427134Y-66035672D01*
X107450496Y-66049995D01*
X107477633Y-66057436D01*
X107505769Y-66057023D01*
X107532676Y-66048787D01*
X107552201Y-66036609D01*
X107562042Y-66028697D01*
X107618253Y-65999310D01*
X107679101Y-65981402D01*
X107679162Y-65981396D01*
X107679191Y-65981388D01*
X107742264Y-65975648D01*
X107805254Y-65982269D01*
X107805273Y-65982275D01*
X107805350Y-65982283D01*
X107865943Y-66001039D01*
X107921738Y-66031208D01*
X107927134Y-66035672D01*
X107950496Y-66049995D01*
X107977633Y-66057436D01*
X108005769Y-66057023D01*
X108032676Y-66048787D01*
X108052201Y-66036609D01*
X108062042Y-66028697D01*
X108118253Y-65999310D01*
X108179101Y-65981402D01*
X108179162Y-65981396D01*
X108179191Y-65981388D01*
X108242264Y-65975648D01*
X108305254Y-65982269D01*
X108305273Y-65982275D01*
X108305350Y-65982283D01*
X108365943Y-66001039D01*
X108421738Y-66031208D01*
X108427134Y-66035672D01*
X108450496Y-66049995D01*
X108477633Y-66057436D01*
X108505769Y-66057023D01*
X108532676Y-66048787D01*
X108552201Y-66036609D01*
X108562042Y-66028697D01*
X108618253Y-65999310D01*
X108679101Y-65981402D01*
X108679162Y-65981396D01*
X108679191Y-65981388D01*
X108742264Y-65975648D01*
X108805254Y-65982269D01*
X108805273Y-65982275D01*
X108805350Y-65982283D01*
X108865943Y-66001039D01*
X108921738Y-66031208D01*
X108927134Y-66035672D01*
X108950496Y-66049995D01*
X108977633Y-66057436D01*
X109005769Y-66057023D01*
X109032676Y-66048787D01*
X109052201Y-66036609D01*
X109062042Y-66028697D01*
X109118253Y-65999310D01*
X109179101Y-65981402D01*
X109179162Y-65981396D01*
X109179191Y-65981388D01*
X109242264Y-65975648D01*
X109305254Y-65982269D01*
X109305273Y-65982275D01*
X109305350Y-65982283D01*
X109365943Y-66001039D01*
X109421738Y-66031208D01*
X109427134Y-66035672D01*
X109450496Y-66049995D01*
X109477633Y-66057436D01*
X109505769Y-66057023D01*
X109532676Y-66048787D01*
X109552201Y-66036609D01*
X109562042Y-66028697D01*
X109618253Y-65999310D01*
X109679101Y-65981402D01*
X109679162Y-65981396D01*
X109679191Y-65981388D01*
X109742264Y-65975648D01*
X109805254Y-65982269D01*
X109805273Y-65982275D01*
X109805350Y-65982283D01*
X109865943Y-66001039D01*
X109921738Y-66031208D01*
X109927134Y-66035672D01*
X109950496Y-66049995D01*
X109977633Y-66057436D01*
X110005769Y-66057023D01*
X110032676Y-66048787D01*
X110052201Y-66036609D01*
X110062042Y-66028697D01*
X110118253Y-65999310D01*
X110179101Y-65981402D01*
X110179162Y-65981396D01*
X110179191Y-65981388D01*
X110242264Y-65975648D01*
X110305254Y-65982269D01*
X110305273Y-65982275D01*
X110305350Y-65982283D01*
X110365943Y-66001039D01*
X110421738Y-66031208D01*
X110427134Y-66035672D01*
X110450496Y-66049995D01*
X110477633Y-66057436D01*
X110505769Y-66057023D01*
X110532676Y-66048787D01*
X110552201Y-66036609D01*
X110562042Y-66028697D01*
X110618253Y-65999310D01*
X110679101Y-65981402D01*
X110679162Y-65981396D01*
X110679191Y-65981388D01*
X110742264Y-65975648D01*
X110805254Y-65982269D01*
X110805273Y-65982275D01*
X110805350Y-65982283D01*
X110865943Y-66001039D01*
X110921738Y-66031208D01*
X110927134Y-66035672D01*
X110950496Y-66049995D01*
X110977633Y-66057436D01*
X111005769Y-66057023D01*
X111032676Y-66048787D01*
X111052201Y-66036609D01*
X111062042Y-66028697D01*
X111118253Y-65999310D01*
X111179101Y-65981402D01*
X111179162Y-65981396D01*
X111179191Y-65981388D01*
X111242264Y-65975648D01*
X111305254Y-65982269D01*
X111305273Y-65982275D01*
X111305350Y-65982283D01*
X111365943Y-66001039D01*
X111421738Y-66031208D01*
X111427134Y-66035672D01*
X111450496Y-66049995D01*
X111477633Y-66057436D01*
X111505769Y-66057023D01*
X111532676Y-66048787D01*
X111552201Y-66036609D01*
X111562042Y-66028697D01*
X111618253Y-65999310D01*
X111679101Y-65981402D01*
X111679162Y-65981396D01*
X111679191Y-65981388D01*
X111742264Y-65975648D01*
X111805254Y-65982269D01*
X111805273Y-65982275D01*
X111805350Y-65982283D01*
X111865943Y-66001039D01*
X111921738Y-66031208D01*
X111927134Y-66035672D01*
X111950496Y-66049995D01*
X111977633Y-66057436D01*
X112005769Y-66057023D01*
X112032676Y-66048787D01*
X112052201Y-66036609D01*
X112062042Y-66028697D01*
X112118253Y-65999310D01*
X112179101Y-65981402D01*
X112179162Y-65981396D01*
X112179191Y-65981388D01*
X112242264Y-65975648D01*
X112305254Y-65982269D01*
X112305273Y-65982275D01*
X112305350Y-65982283D01*
X112365943Y-66001039D01*
X112421738Y-66031208D01*
X112427134Y-66035672D01*
X112450496Y-66049995D01*
X112477633Y-66057436D01*
X112505769Y-66057023D01*
X112532676Y-66048787D01*
X112552201Y-66036609D01*
X112562042Y-66028697D01*
X112618253Y-65999310D01*
X112679101Y-65981402D01*
X112679162Y-65981396D01*
X112679191Y-65981388D01*
X112742264Y-65975648D01*
X112805254Y-65982269D01*
X112805273Y-65982275D01*
X112805350Y-65982283D01*
X112865943Y-66001039D01*
X112921738Y-66031208D01*
X112927134Y-66035672D01*
X112950496Y-66049995D01*
X112977633Y-66057436D01*
X113005769Y-66057023D01*
X113032676Y-66048787D01*
X113052201Y-66036609D01*
X113062042Y-66028697D01*
X113118253Y-65999310D01*
X113179101Y-65981402D01*
X113179162Y-65981396D01*
X113179191Y-65981388D01*
X113242264Y-65975648D01*
X113305254Y-65982269D01*
X113305273Y-65982275D01*
X113305350Y-65982283D01*
X113365943Y-66001039D01*
X113421738Y-66031208D01*
X113427134Y-66035672D01*
X113450496Y-66049995D01*
X113477633Y-66057436D01*
X113505769Y-66057023D01*
X113532676Y-66048787D01*
X113552201Y-66036609D01*
X113562042Y-66028697D01*
X113618253Y-65999310D01*
X113679101Y-65981402D01*
X113679162Y-65981396D01*
X113679191Y-65981388D01*
X113742264Y-65975648D01*
X113805254Y-65982269D01*
X113805273Y-65982275D01*
X113805350Y-65982283D01*
X113865943Y-66001039D01*
X113921738Y-66031208D01*
X113927134Y-66035672D01*
X113950496Y-66049995D01*
X113977633Y-66057436D01*
X114005769Y-66057023D01*
X114032676Y-66048787D01*
X114052201Y-66036609D01*
X114062042Y-66028697D01*
X114118253Y-65999310D01*
X114179101Y-65981402D01*
X114179162Y-65981396D01*
X114179191Y-65981388D01*
X114242264Y-65975648D01*
X114305254Y-65982269D01*
X114305273Y-65982275D01*
X114305350Y-65982283D01*
X114365943Y-66001039D01*
X114421738Y-66031208D01*
X114427134Y-66035672D01*
X114450496Y-66049995D01*
X114477633Y-66057436D01*
X114505769Y-66057023D01*
X114532676Y-66048787D01*
X114552201Y-66036609D01*
X114562042Y-66028697D01*
X114618253Y-65999310D01*
X114679101Y-65981402D01*
X114679162Y-65981396D01*
X114679191Y-65981388D01*
X114742264Y-65975648D01*
X114805254Y-65982269D01*
X114805273Y-65982275D01*
X114805350Y-65982283D01*
X114865943Y-66001039D01*
X114921738Y-66031208D01*
X114927134Y-66035672D01*
X114950496Y-66049995D01*
X114977633Y-66057436D01*
X115005769Y-66057023D01*
X115032676Y-66048787D01*
X115052201Y-66036609D01*
X115062042Y-66028697D01*
X115118253Y-65999310D01*
X115179101Y-65981402D01*
X115179162Y-65981396D01*
X115179191Y-65981388D01*
X115242264Y-65975648D01*
X115305254Y-65982269D01*
X115305273Y-65982275D01*
X115305350Y-65982283D01*
X115365943Y-66001039D01*
X115421738Y-66031208D01*
X115427134Y-66035672D01*
X115450496Y-66049995D01*
X115477633Y-66057436D01*
X115505769Y-66057023D01*
X115532676Y-66048787D01*
X115552201Y-66036609D01*
X115562042Y-66028697D01*
X115618253Y-65999310D01*
X115679101Y-65981402D01*
X115679162Y-65981396D01*
X115679191Y-65981388D01*
X115742264Y-65975648D01*
X115805254Y-65982269D01*
X115805273Y-65982275D01*
X115805350Y-65982283D01*
X115865943Y-66001039D01*
X115921738Y-66031208D01*
X115927134Y-66035672D01*
X115950496Y-66049995D01*
X115977633Y-66057436D01*
X116005769Y-66057023D01*
X116032676Y-66048787D01*
X116052201Y-66036609D01*
X116062042Y-66028697D01*
X116118253Y-65999310D01*
X116179101Y-65981402D01*
X116179162Y-65981396D01*
X116179191Y-65981388D01*
X116242264Y-65975648D01*
X116305254Y-65982269D01*
X116305273Y-65982275D01*
X116305350Y-65982283D01*
X116365943Y-66001039D01*
X116421738Y-66031208D01*
X116427134Y-66035672D01*
X116450496Y-66049995D01*
X116477633Y-66057436D01*
X116505769Y-66057023D01*
X116532676Y-66048787D01*
X116552201Y-66036609D01*
X116562042Y-66028697D01*
X116618253Y-65999310D01*
X116679101Y-65981402D01*
X116679162Y-65981396D01*
X116679191Y-65981388D01*
X116742264Y-65975648D01*
X116805254Y-65982269D01*
X116805273Y-65982275D01*
X116805350Y-65982283D01*
X116865943Y-66001039D01*
X116921738Y-66031208D01*
X116927134Y-66035672D01*
X116950496Y-66049995D01*
X116977633Y-66057436D01*
X117005769Y-66057023D01*
X117032676Y-66048787D01*
X117052201Y-66036609D01*
X117062042Y-66028697D01*
X117118253Y-65999310D01*
X117179101Y-65981402D01*
X117179162Y-65981396D01*
X117179191Y-65981388D01*
X117242264Y-65975648D01*
X117305254Y-65982269D01*
X117305273Y-65982275D01*
X117305350Y-65982283D01*
X117365943Y-66001039D01*
X117421738Y-66031208D01*
X117427134Y-66035672D01*
X117450496Y-66049995D01*
X117477633Y-66057436D01*
X117505769Y-66057023D01*
X117532676Y-66048787D01*
X117552201Y-66036609D01*
X117562042Y-66028697D01*
X117618253Y-65999310D01*
X117679101Y-65981402D01*
X117679162Y-65981396D01*
X117679191Y-65981388D01*
X117742264Y-65975648D01*
X117805254Y-65982269D01*
X117805273Y-65982275D01*
X117805350Y-65982283D01*
X117865943Y-66001039D01*
X117921738Y-66031208D01*
X117927134Y-66035672D01*
X117950496Y-66049995D01*
X117977633Y-66057436D01*
X118005769Y-66057023D01*
X118032676Y-66048787D01*
X118052201Y-66036609D01*
X118062042Y-66028697D01*
X118118253Y-65999310D01*
X118179101Y-65981402D01*
X118179162Y-65981396D01*
X118179191Y-65981388D01*
X118242264Y-65975648D01*
X118305254Y-65982269D01*
X118305273Y-65982275D01*
X118305350Y-65982283D01*
X118365943Y-66001039D01*
X118421738Y-66031208D01*
X118427134Y-66035672D01*
X118450496Y-66049995D01*
X118477633Y-66057436D01*
X118505769Y-66057023D01*
X118532676Y-66048787D01*
X118552201Y-66036609D01*
X118562042Y-66028697D01*
X118618253Y-65999310D01*
X118679101Y-65981402D01*
X118679162Y-65981396D01*
X118679191Y-65981388D01*
X118742264Y-65975648D01*
X118805254Y-65982269D01*
X118805273Y-65982275D01*
X118805350Y-65982283D01*
X118865943Y-66001039D01*
X118921738Y-66031208D01*
X118927134Y-66035672D01*
X118950496Y-66049995D01*
X118977633Y-66057436D01*
X119005769Y-66057023D01*
X119032676Y-66048787D01*
X119052201Y-66036609D01*
X119062042Y-66028697D01*
X119118253Y-65999310D01*
X119179101Y-65981402D01*
X119179162Y-65981396D01*
X119179191Y-65981388D01*
X119242264Y-65975648D01*
X119305254Y-65982269D01*
X119305254Y-65982269D01*
G37*
G36*
X91455685Y-64990073D02*
X91455692Y-64990074D01*
X91459741Y-64990102D01*
X91663388Y-65012945D01*
X91858720Y-65074908D01*
X92038296Y-65173631D01*
X92195277Y-65305353D01*
X92323684Y-65465059D01*
X92418624Y-65646663D01*
X92476483Y-65843250D01*
X92476489Y-65843320D01*
X92476495Y-65843339D01*
X92495059Y-66047325D01*
X92473649Y-66251034D01*
X92473643Y-66251052D01*
X92473635Y-66251132D01*
X92413037Y-66446891D01*
X92315570Y-66627153D01*
X92184947Y-66785049D01*
X92026142Y-66914567D01*
X91845205Y-67010773D01*
X91649027Y-67070003D01*
X91445081Y-67090000D01*
X91434846Y-67090000D01*
X91424315Y-67089927D01*
X91424308Y-67089926D01*
X91420259Y-67089898D01*
X91216612Y-67067055D01*
X91021280Y-67005092D01*
X90841704Y-66906369D01*
X90684723Y-66774647D01*
X90556316Y-66614941D01*
X90461376Y-66433337D01*
X90403517Y-66236750D01*
X90403511Y-66236680D01*
X90403505Y-66236661D01*
X90384941Y-66032675D01*
X90406351Y-65828966D01*
X90406357Y-65828948D01*
X90406365Y-65828868D01*
X90466963Y-65633109D01*
X90564430Y-65452847D01*
X90695053Y-65294951D01*
X90853858Y-65165433D01*
X91034795Y-65069227D01*
X91230973Y-65009997D01*
X91434919Y-64990000D01*
X91445154Y-64990000D01*
X91455685Y-64990073D01*
X91455685Y-64990073D01*
G37*
G36*
X93995685Y-64990073D02*
X93995692Y-64990074D01*
X93999741Y-64990102D01*
X94203388Y-65012945D01*
X94398720Y-65074908D01*
X94578296Y-65173631D01*
X94735277Y-65305353D01*
X94863684Y-65465059D01*
X94958624Y-65646663D01*
X95016483Y-65843250D01*
X95016489Y-65843320D01*
X95016495Y-65843339D01*
X95035059Y-66047325D01*
X95013649Y-66251034D01*
X95013643Y-66251052D01*
X95013635Y-66251132D01*
X94953037Y-66446891D01*
X94855570Y-66627153D01*
X94724947Y-66785049D01*
X94566142Y-66914567D01*
X94385205Y-67010773D01*
X94189027Y-67070003D01*
X93985081Y-67090000D01*
X93974846Y-67090000D01*
X93964315Y-67089927D01*
X93964308Y-67089926D01*
X93960259Y-67089898D01*
X93756612Y-67067055D01*
X93561280Y-67005092D01*
X93381704Y-66906369D01*
X93224723Y-66774647D01*
X93096316Y-66614941D01*
X93001376Y-66433337D01*
X92943517Y-66236750D01*
X92943511Y-66236680D01*
X92943505Y-66236661D01*
X92924941Y-66032675D01*
X92946351Y-65828966D01*
X92946357Y-65828948D01*
X92946365Y-65828868D01*
X93006963Y-65633109D01*
X93104430Y-65452847D01*
X93235053Y-65294951D01*
X93393858Y-65165433D01*
X93574795Y-65069227D01*
X93770973Y-65009997D01*
X93974919Y-64990000D01*
X93985154Y-64990000D01*
X93995685Y-64990073D01*
X93995685Y-64990073D01*
G37*
G36*
X126445000Y-65670000D02*
X125045000Y-65670000D01*
X125045000Y-57520000D01*
X126445000Y-57520000D01*
X126445000Y-65670000D01*
X126445000Y-65670000D01*
G37*
G36*
X137845000Y-65670000D02*
X136445000Y-65670000D01*
X136445000Y-57520000D01*
X137845000Y-57520000D01*
X137845000Y-65670000D01*
X137845000Y-65670000D01*
G37*
G36*
X134895000Y-65045000D02*
X127995000Y-65045000D01*
X127995000Y-58145000D01*
X134895000Y-58145000D01*
X134895000Y-65045000D01*
X134895000Y-65045000D01*
G37*
G36*
X100069839Y-46805003D02*
X100069843Y-46805003D01*
X100073893Y-46805032D01*
X100136926Y-46812102D01*
X100197386Y-46831281D01*
X100252969Y-46861838D01*
X100301559Y-46902609D01*
X100341303Y-46952042D01*
X100370690Y-47008253D01*
X100388598Y-47069101D01*
X100388604Y-47069162D01*
X100388612Y-47069191D01*
X100394352Y-47132264D01*
X100387731Y-47195254D01*
X100387725Y-47195273D01*
X100387717Y-47195350D01*
X100368961Y-47255943D01*
X100338792Y-47311738D01*
X100334328Y-47317134D01*
X100320005Y-47340496D01*
X100312564Y-47367633D01*
X100312977Y-47395769D01*
X100321213Y-47422676D01*
X100333391Y-47442201D01*
X100341303Y-47452042D01*
X100370690Y-47508253D01*
X100388598Y-47569101D01*
X100388604Y-47569162D01*
X100388612Y-47569191D01*
X100394352Y-47632264D01*
X100387731Y-47695254D01*
X100387725Y-47695273D01*
X100387717Y-47695350D01*
X100368961Y-47755943D01*
X100338792Y-47811738D01*
X100334328Y-47817134D01*
X100320005Y-47840496D01*
X100312564Y-47867633D01*
X100312977Y-47895769D01*
X100321213Y-47922676D01*
X100333391Y-47942201D01*
X100341303Y-47952042D01*
X100370690Y-48008253D01*
X100388598Y-48069101D01*
X100388604Y-48069162D01*
X100388612Y-48069191D01*
X100394352Y-48132264D01*
X100387731Y-48195254D01*
X100387725Y-48195273D01*
X100387717Y-48195350D01*
X100368961Y-48255943D01*
X100338792Y-48311738D01*
X100334328Y-48317134D01*
X100320005Y-48340496D01*
X100312564Y-48367633D01*
X100312977Y-48395769D01*
X100321213Y-48422676D01*
X100333391Y-48442201D01*
X100341303Y-48452042D01*
X100370690Y-48508253D01*
X100388598Y-48569101D01*
X100388604Y-48569162D01*
X100388612Y-48569191D01*
X100394352Y-48632264D01*
X100387731Y-48695254D01*
X100387725Y-48695273D01*
X100387717Y-48695350D01*
X100368961Y-48755943D01*
X100338792Y-48811738D01*
X100334328Y-48817134D01*
X100320005Y-48840496D01*
X100312564Y-48867633D01*
X100312977Y-48895769D01*
X100321213Y-48922676D01*
X100333391Y-48942201D01*
X100341303Y-48952042D01*
X100370690Y-49008253D01*
X100388598Y-49069101D01*
X100388604Y-49069162D01*
X100388612Y-49069191D01*
X100394352Y-49132264D01*
X100387731Y-49195254D01*
X100387725Y-49195273D01*
X100387717Y-49195350D01*
X100368961Y-49255943D01*
X100338792Y-49311738D01*
X100334328Y-49317134D01*
X100320005Y-49340496D01*
X100312564Y-49367633D01*
X100312977Y-49395769D01*
X100321213Y-49422676D01*
X100333391Y-49442201D01*
X100341303Y-49452042D01*
X100370690Y-49508253D01*
X100388598Y-49569101D01*
X100388604Y-49569162D01*
X100388612Y-49569191D01*
X100394352Y-49632264D01*
X100387731Y-49695254D01*
X100387725Y-49695273D01*
X100387717Y-49695350D01*
X100368961Y-49755943D01*
X100338792Y-49811738D01*
X100334328Y-49817134D01*
X100320005Y-49840496D01*
X100312564Y-49867633D01*
X100312977Y-49895769D01*
X100321213Y-49922676D01*
X100333391Y-49942201D01*
X100341303Y-49952042D01*
X100370690Y-50008253D01*
X100388598Y-50069101D01*
X100388604Y-50069162D01*
X100388612Y-50069191D01*
X100394352Y-50132264D01*
X100387731Y-50195254D01*
X100387725Y-50195273D01*
X100387717Y-50195350D01*
X100368961Y-50255943D01*
X100338792Y-50311738D01*
X100334328Y-50317134D01*
X100320005Y-50340496D01*
X100312564Y-50367633D01*
X100312977Y-50395769D01*
X100321213Y-50422676D01*
X100333391Y-50442201D01*
X100341303Y-50452042D01*
X100370690Y-50508253D01*
X100388598Y-50569101D01*
X100388604Y-50569162D01*
X100388612Y-50569191D01*
X100394352Y-50632264D01*
X100387731Y-50695254D01*
X100387725Y-50695273D01*
X100387717Y-50695350D01*
X100368961Y-50755943D01*
X100338792Y-50811738D01*
X100334328Y-50817134D01*
X100320005Y-50840496D01*
X100312564Y-50867633D01*
X100312977Y-50895769D01*
X100321213Y-50922676D01*
X100333391Y-50942201D01*
X100341303Y-50952042D01*
X100370690Y-51008253D01*
X100388598Y-51069101D01*
X100388604Y-51069162D01*
X100388612Y-51069191D01*
X100394352Y-51132264D01*
X100387731Y-51195254D01*
X100387725Y-51195273D01*
X100387717Y-51195350D01*
X100368961Y-51255943D01*
X100338792Y-51311738D01*
X100334328Y-51317134D01*
X100320005Y-51340496D01*
X100312564Y-51367633D01*
X100312977Y-51395769D01*
X100321213Y-51422676D01*
X100333391Y-51442201D01*
X100341303Y-51452042D01*
X100370690Y-51508253D01*
X100388598Y-51569101D01*
X100388604Y-51569162D01*
X100388612Y-51569191D01*
X100394352Y-51632264D01*
X100387731Y-51695254D01*
X100387725Y-51695273D01*
X100387717Y-51695350D01*
X100368961Y-51755943D01*
X100338792Y-51811738D01*
X100334328Y-51817134D01*
X100320005Y-51840496D01*
X100312564Y-51867633D01*
X100312977Y-51895769D01*
X100321213Y-51922676D01*
X100333391Y-51942201D01*
X100341303Y-51952042D01*
X100370690Y-52008253D01*
X100388598Y-52069101D01*
X100388604Y-52069162D01*
X100388612Y-52069191D01*
X100394352Y-52132264D01*
X100387731Y-52195254D01*
X100387725Y-52195273D01*
X100387717Y-52195350D01*
X100368961Y-52255943D01*
X100338792Y-52311738D01*
X100334328Y-52317134D01*
X100320005Y-52340496D01*
X100312564Y-52367633D01*
X100312977Y-52395769D01*
X100321213Y-52422676D01*
X100333391Y-52442201D01*
X100341303Y-52452042D01*
X100370690Y-52508253D01*
X100388598Y-52569101D01*
X100388604Y-52569162D01*
X100388612Y-52569191D01*
X100394352Y-52632264D01*
X100387731Y-52695254D01*
X100387725Y-52695273D01*
X100387717Y-52695350D01*
X100368961Y-52755943D01*
X100338792Y-52811738D01*
X100334328Y-52817134D01*
X100320005Y-52840496D01*
X100312564Y-52867633D01*
X100312977Y-52895769D01*
X100321213Y-52922676D01*
X100333391Y-52942201D01*
X100341303Y-52952042D01*
X100370690Y-53008253D01*
X100388598Y-53069101D01*
X100388604Y-53069162D01*
X100388612Y-53069191D01*
X100394352Y-53132264D01*
X100387731Y-53195254D01*
X100387725Y-53195273D01*
X100387717Y-53195350D01*
X100368961Y-53255943D01*
X100338792Y-53311738D01*
X100334328Y-53317134D01*
X100320005Y-53340496D01*
X100312564Y-53367633D01*
X100312977Y-53395769D01*
X100321213Y-53422676D01*
X100333391Y-53442201D01*
X100341303Y-53452042D01*
X100370690Y-53508253D01*
X100388598Y-53569101D01*
X100388604Y-53569162D01*
X100388612Y-53569191D01*
X100394352Y-53632264D01*
X100387731Y-53695254D01*
X100387725Y-53695273D01*
X100387717Y-53695350D01*
X100368961Y-53755943D01*
X100338792Y-53811738D01*
X100334328Y-53817134D01*
X100320005Y-53840496D01*
X100312564Y-53867633D01*
X100312977Y-53895769D01*
X100321213Y-53922676D01*
X100333391Y-53942201D01*
X100341303Y-53952042D01*
X100370690Y-54008253D01*
X100388598Y-54069101D01*
X100388604Y-54069162D01*
X100388612Y-54069191D01*
X100394352Y-54132264D01*
X100387731Y-54195254D01*
X100387725Y-54195273D01*
X100387717Y-54195350D01*
X100368961Y-54255943D01*
X100338792Y-54311738D01*
X100334328Y-54317134D01*
X100320005Y-54340496D01*
X100312564Y-54367633D01*
X100312977Y-54395769D01*
X100321213Y-54422676D01*
X100333391Y-54442201D01*
X100341303Y-54452042D01*
X100370690Y-54508253D01*
X100388598Y-54569101D01*
X100388604Y-54569162D01*
X100388612Y-54569191D01*
X100394352Y-54632264D01*
X100387731Y-54695254D01*
X100387725Y-54695273D01*
X100387717Y-54695350D01*
X100368961Y-54755943D01*
X100338792Y-54811738D01*
X100334328Y-54817134D01*
X100320005Y-54840496D01*
X100312564Y-54867633D01*
X100312977Y-54895769D01*
X100321213Y-54922676D01*
X100333391Y-54942201D01*
X100341303Y-54952042D01*
X100370690Y-55008253D01*
X100388598Y-55069101D01*
X100388604Y-55069162D01*
X100388612Y-55069191D01*
X100394352Y-55132264D01*
X100387731Y-55195254D01*
X100387725Y-55195273D01*
X100387717Y-55195350D01*
X100368961Y-55255943D01*
X100338792Y-55311738D01*
X100334328Y-55317134D01*
X100320005Y-55340496D01*
X100312564Y-55367633D01*
X100312977Y-55395769D01*
X100321213Y-55422676D01*
X100333391Y-55442201D01*
X100341303Y-55452042D01*
X100370690Y-55508253D01*
X100388598Y-55569101D01*
X100388604Y-55569162D01*
X100388612Y-55569191D01*
X100394352Y-55632264D01*
X100387731Y-55695254D01*
X100387725Y-55695273D01*
X100387717Y-55695350D01*
X100368961Y-55755943D01*
X100338792Y-55811738D01*
X100334328Y-55817134D01*
X100320005Y-55840496D01*
X100312564Y-55867633D01*
X100312977Y-55895769D01*
X100321213Y-55922676D01*
X100333391Y-55942201D01*
X100341303Y-55952042D01*
X100370690Y-56008253D01*
X100388598Y-56069101D01*
X100388604Y-56069162D01*
X100388612Y-56069191D01*
X100394352Y-56132264D01*
X100387731Y-56195254D01*
X100387725Y-56195273D01*
X100387717Y-56195350D01*
X100368961Y-56255943D01*
X100338792Y-56311738D01*
X100334328Y-56317134D01*
X100320005Y-56340496D01*
X100312564Y-56367633D01*
X100312977Y-56395769D01*
X100321213Y-56422676D01*
X100333391Y-56442201D01*
X100341303Y-56452042D01*
X100370690Y-56508253D01*
X100388598Y-56569101D01*
X100388604Y-56569162D01*
X100388612Y-56569191D01*
X100394352Y-56632263D01*
X100387731Y-56695254D01*
X100387725Y-56695273D01*
X100387717Y-56695350D01*
X100368961Y-56755943D01*
X100338792Y-56811738D01*
X100334328Y-56817134D01*
X100320005Y-56840496D01*
X100312564Y-56867633D01*
X100312977Y-56895769D01*
X100321213Y-56922676D01*
X100333391Y-56942201D01*
X100341303Y-56952042D01*
X100370690Y-57008253D01*
X100388598Y-57069101D01*
X100388604Y-57069162D01*
X100388612Y-57069191D01*
X100394352Y-57132264D01*
X100387731Y-57195254D01*
X100387725Y-57195273D01*
X100387717Y-57195350D01*
X100368961Y-57255943D01*
X100338792Y-57311738D01*
X100334328Y-57317134D01*
X100320005Y-57340496D01*
X100312564Y-57367633D01*
X100312977Y-57395769D01*
X100321213Y-57422676D01*
X100333391Y-57442201D01*
X100341303Y-57452042D01*
X100370690Y-57508253D01*
X100388598Y-57569101D01*
X100388604Y-57569162D01*
X100388612Y-57569191D01*
X100394352Y-57632264D01*
X100387731Y-57695254D01*
X100387725Y-57695273D01*
X100387717Y-57695350D01*
X100368961Y-57755943D01*
X100338792Y-57811738D01*
X100334328Y-57817134D01*
X100320005Y-57840496D01*
X100312564Y-57867633D01*
X100312977Y-57895769D01*
X100321213Y-57922676D01*
X100333391Y-57942201D01*
X100341303Y-57952042D01*
X100370690Y-58008253D01*
X100388598Y-58069101D01*
X100388604Y-58069162D01*
X100388612Y-58069191D01*
X100394352Y-58132264D01*
X100387731Y-58195254D01*
X100387725Y-58195273D01*
X100387717Y-58195350D01*
X100368961Y-58255943D01*
X100338792Y-58311738D01*
X100334328Y-58317134D01*
X100320005Y-58340496D01*
X100312564Y-58367633D01*
X100312977Y-58395769D01*
X100321213Y-58422676D01*
X100333391Y-58442201D01*
X100341303Y-58452042D01*
X100370690Y-58508253D01*
X100388598Y-58569101D01*
X100388604Y-58569162D01*
X100388612Y-58569191D01*
X100394352Y-58632264D01*
X100387731Y-58695254D01*
X100387725Y-58695273D01*
X100387717Y-58695350D01*
X100368961Y-58755943D01*
X100338792Y-58811738D01*
X100334328Y-58817134D01*
X100320005Y-58840496D01*
X100312564Y-58867633D01*
X100312977Y-58895769D01*
X100321213Y-58922676D01*
X100333391Y-58942201D01*
X100341303Y-58952042D01*
X100370690Y-59008253D01*
X100388598Y-59069101D01*
X100388604Y-59069162D01*
X100388612Y-59069191D01*
X100394352Y-59132264D01*
X100387731Y-59195254D01*
X100387725Y-59195273D01*
X100387717Y-59195350D01*
X100368961Y-59255943D01*
X100338792Y-59311738D01*
X100334328Y-59317134D01*
X100320005Y-59340496D01*
X100312564Y-59367633D01*
X100312977Y-59395769D01*
X100321213Y-59422676D01*
X100333391Y-59442201D01*
X100341303Y-59452042D01*
X100370690Y-59508253D01*
X100388598Y-59569101D01*
X100388604Y-59569162D01*
X100388612Y-59569191D01*
X100394352Y-59632264D01*
X100387731Y-59695254D01*
X100387725Y-59695273D01*
X100387717Y-59695350D01*
X100368961Y-59755943D01*
X100338792Y-59811738D01*
X100334328Y-59817134D01*
X100320005Y-59840496D01*
X100312564Y-59867633D01*
X100312977Y-59895769D01*
X100321213Y-59922676D01*
X100333391Y-59942201D01*
X100341303Y-59952042D01*
X100370690Y-60008253D01*
X100388598Y-60069101D01*
X100388604Y-60069162D01*
X100388612Y-60069191D01*
X100394352Y-60132264D01*
X100387731Y-60195254D01*
X100387725Y-60195273D01*
X100387717Y-60195350D01*
X100368961Y-60255943D01*
X100338792Y-60311738D01*
X100334328Y-60317134D01*
X100320005Y-60340496D01*
X100312564Y-60367633D01*
X100312977Y-60395769D01*
X100321213Y-60422676D01*
X100333391Y-60442201D01*
X100341303Y-60452042D01*
X100370690Y-60508253D01*
X100388598Y-60569101D01*
X100388604Y-60569162D01*
X100388612Y-60569191D01*
X100394352Y-60632264D01*
X100387731Y-60695254D01*
X100387725Y-60695273D01*
X100387717Y-60695350D01*
X100368961Y-60755943D01*
X100338792Y-60811738D01*
X100334328Y-60817134D01*
X100320005Y-60840496D01*
X100312564Y-60867633D01*
X100312977Y-60895769D01*
X100321213Y-60922676D01*
X100333391Y-60942201D01*
X100341303Y-60952042D01*
X100370690Y-61008253D01*
X100388598Y-61069101D01*
X100388604Y-61069162D01*
X100388612Y-61069191D01*
X100394352Y-61132264D01*
X100387731Y-61195254D01*
X100387725Y-61195273D01*
X100387717Y-61195350D01*
X100368961Y-61255943D01*
X100338792Y-61311738D01*
X100334328Y-61317134D01*
X100320005Y-61340496D01*
X100312564Y-61367633D01*
X100312977Y-61395769D01*
X100321213Y-61422676D01*
X100333391Y-61442201D01*
X100341303Y-61452042D01*
X100370690Y-61508253D01*
X100388598Y-61569101D01*
X100388604Y-61569162D01*
X100388612Y-61569191D01*
X100394352Y-61632264D01*
X100387731Y-61695254D01*
X100387725Y-61695273D01*
X100387717Y-61695350D01*
X100368961Y-61755943D01*
X100338792Y-61811738D01*
X100334328Y-61817134D01*
X100320005Y-61840496D01*
X100312564Y-61867633D01*
X100312977Y-61895769D01*
X100321213Y-61922676D01*
X100333391Y-61942201D01*
X100341303Y-61952042D01*
X100370690Y-62008253D01*
X100388598Y-62069101D01*
X100388604Y-62069162D01*
X100388612Y-62069191D01*
X100394352Y-62132264D01*
X100387731Y-62195254D01*
X100387725Y-62195273D01*
X100387717Y-62195350D01*
X100368961Y-62255943D01*
X100338792Y-62311738D01*
X100334328Y-62317134D01*
X100320005Y-62340496D01*
X100312564Y-62367633D01*
X100312977Y-62395769D01*
X100321213Y-62422676D01*
X100333391Y-62442201D01*
X100341303Y-62452042D01*
X100370690Y-62508253D01*
X100388598Y-62569101D01*
X100388604Y-62569162D01*
X100388612Y-62569191D01*
X100394352Y-62632264D01*
X100387731Y-62695254D01*
X100387725Y-62695273D01*
X100387717Y-62695350D01*
X100368961Y-62755943D01*
X100338792Y-62811738D01*
X100334328Y-62817134D01*
X100320005Y-62840496D01*
X100312564Y-62867633D01*
X100312977Y-62895769D01*
X100321213Y-62922676D01*
X100333391Y-62942201D01*
X100341303Y-62952042D01*
X100370690Y-63008253D01*
X100388598Y-63069101D01*
X100388604Y-63069162D01*
X100388612Y-63069191D01*
X100394352Y-63132264D01*
X100387731Y-63195254D01*
X100387725Y-63195273D01*
X100387717Y-63195350D01*
X100368961Y-63255943D01*
X100338792Y-63311738D01*
X100334328Y-63317134D01*
X100320005Y-63340496D01*
X100312564Y-63367633D01*
X100312977Y-63395769D01*
X100321213Y-63422676D01*
X100333391Y-63442201D01*
X100341303Y-63452042D01*
X100370690Y-63508253D01*
X100388598Y-63569101D01*
X100388604Y-63569162D01*
X100388612Y-63569191D01*
X100394352Y-63632264D01*
X100387731Y-63695254D01*
X100387725Y-63695273D01*
X100387717Y-63695350D01*
X100368961Y-63755943D01*
X100338792Y-63811738D01*
X100334328Y-63817134D01*
X100320005Y-63840496D01*
X100312564Y-63867633D01*
X100312977Y-63895769D01*
X100321213Y-63922676D01*
X100333391Y-63942201D01*
X100341303Y-63952042D01*
X100370690Y-64008253D01*
X100388598Y-64069101D01*
X100388604Y-64069162D01*
X100388612Y-64069191D01*
X100394352Y-64132264D01*
X100387731Y-64195254D01*
X100387725Y-64195273D01*
X100387717Y-64195350D01*
X100368961Y-64255943D01*
X100338792Y-64311738D01*
X100334328Y-64317134D01*
X100320005Y-64340496D01*
X100312564Y-64367633D01*
X100312977Y-64395769D01*
X100321213Y-64422676D01*
X100333391Y-64442201D01*
X100341303Y-64452042D01*
X100370690Y-64508253D01*
X100388598Y-64569101D01*
X100388604Y-64569162D01*
X100388612Y-64569191D01*
X100394352Y-64632264D01*
X100387731Y-64695254D01*
X100387725Y-64695273D01*
X100387717Y-64695350D01*
X100368961Y-64755943D01*
X100338792Y-64811738D01*
X100298361Y-64860610D01*
X100249207Y-64900699D01*
X100193203Y-64930477D01*
X100132481Y-64948810D01*
X100069355Y-64955000D01*
X98910563Y-64955000D01*
X98910161Y-64954997D01*
X98910157Y-64954997D01*
X98906107Y-64954968D01*
X98843074Y-64947898D01*
X98782614Y-64928719D01*
X98727031Y-64898162D01*
X98678441Y-64857391D01*
X98638697Y-64807958D01*
X98609310Y-64751747D01*
X98591402Y-64690899D01*
X98591396Y-64690838D01*
X98591388Y-64690809D01*
X98585648Y-64627736D01*
X98592269Y-64564746D01*
X98592275Y-64564727D01*
X98592283Y-64564650D01*
X98611039Y-64504057D01*
X98641208Y-64448262D01*
X98645672Y-64442866D01*
X98659995Y-64419504D01*
X98667436Y-64392367D01*
X98667023Y-64364231D01*
X98658787Y-64337324D01*
X98646609Y-64317799D01*
X98638697Y-64307958D01*
X98609310Y-64251747D01*
X98591402Y-64190899D01*
X98591396Y-64190838D01*
X98591388Y-64190809D01*
X98585648Y-64127736D01*
X98592269Y-64064746D01*
X98592275Y-64064727D01*
X98592283Y-64064650D01*
X98611039Y-64004057D01*
X98641208Y-63948262D01*
X98645672Y-63942866D01*
X98659995Y-63919504D01*
X98667436Y-63892367D01*
X98667023Y-63864231D01*
X98658787Y-63837324D01*
X98646609Y-63817799D01*
X98638697Y-63807958D01*
X98609310Y-63751747D01*
X98591402Y-63690899D01*
X98591396Y-63690838D01*
X98591388Y-63690809D01*
X98585648Y-63627736D01*
X98592269Y-63564746D01*
X98592275Y-63564727D01*
X98592283Y-63564650D01*
X98611039Y-63504057D01*
X98641208Y-63448262D01*
X98645672Y-63442866D01*
X98659995Y-63419504D01*
X98667436Y-63392367D01*
X98667023Y-63364231D01*
X98658787Y-63337324D01*
X98646609Y-63317799D01*
X98638697Y-63307958D01*
X98609310Y-63251747D01*
X98591402Y-63190899D01*
X98591396Y-63190838D01*
X98591388Y-63190809D01*
X98585648Y-63127736D01*
X98592269Y-63064746D01*
X98592275Y-63064727D01*
X98592283Y-63064650D01*
X98611039Y-63004057D01*
X98641208Y-62948262D01*
X98645672Y-62942866D01*
X98659995Y-62919504D01*
X98667436Y-62892367D01*
X98667023Y-62864231D01*
X98658787Y-62837324D01*
X98646609Y-62817799D01*
X98638697Y-62807958D01*
X98609310Y-62751747D01*
X98591402Y-62690899D01*
X98591396Y-62690838D01*
X98591388Y-62690809D01*
X98585648Y-62627736D01*
X98592269Y-62564746D01*
X98592275Y-62564727D01*
X98592283Y-62564650D01*
X98611039Y-62504057D01*
X98641208Y-62448262D01*
X98645672Y-62442866D01*
X98659995Y-62419504D01*
X98667436Y-62392367D01*
X98667023Y-62364231D01*
X98658787Y-62337324D01*
X98646609Y-62317799D01*
X98638697Y-62307958D01*
X98609310Y-62251747D01*
X98591402Y-62190899D01*
X98591396Y-62190838D01*
X98591388Y-62190809D01*
X98585648Y-62127736D01*
X98592269Y-62064746D01*
X98592275Y-62064727D01*
X98592283Y-62064650D01*
X98611039Y-62004057D01*
X98641208Y-61948262D01*
X98645672Y-61942866D01*
X98659995Y-61919504D01*
X98667436Y-61892367D01*
X98667023Y-61864231D01*
X98658787Y-61837324D01*
X98646609Y-61817799D01*
X98638697Y-61807958D01*
X98609310Y-61751747D01*
X98591402Y-61690899D01*
X98591396Y-61690838D01*
X98591388Y-61690809D01*
X98585648Y-61627736D01*
X98592269Y-61564746D01*
X98592275Y-61564727D01*
X98592283Y-61564650D01*
X98611039Y-61504057D01*
X98641208Y-61448262D01*
X98645672Y-61442866D01*
X98659995Y-61419504D01*
X98667436Y-61392367D01*
X98667023Y-61364231D01*
X98658787Y-61337324D01*
X98646609Y-61317799D01*
X98638697Y-61307958D01*
X98609310Y-61251747D01*
X98591402Y-61190899D01*
X98591396Y-61190838D01*
X98591388Y-61190809D01*
X98585648Y-61127736D01*
X98592269Y-61064746D01*
X98592275Y-61064727D01*
X98592283Y-61064650D01*
X98611039Y-61004057D01*
X98641208Y-60948262D01*
X98645672Y-60942866D01*
X98659995Y-60919504D01*
X98667436Y-60892367D01*
X98667023Y-60864231D01*
X98658787Y-60837324D01*
X98646609Y-60817799D01*
X98638697Y-60807958D01*
X98609310Y-60751747D01*
X98591402Y-60690899D01*
X98591396Y-60690838D01*
X98591388Y-60690809D01*
X98585648Y-60627736D01*
X98592269Y-60564746D01*
X98592275Y-60564727D01*
X98592283Y-60564650D01*
X98611039Y-60504057D01*
X98641208Y-60448262D01*
X98645672Y-60442866D01*
X98659995Y-60419504D01*
X98667436Y-60392367D01*
X98667023Y-60364231D01*
X98658787Y-60337324D01*
X98646609Y-60317799D01*
X98638697Y-60307958D01*
X98609310Y-60251747D01*
X98591402Y-60190899D01*
X98591396Y-60190838D01*
X98591388Y-60190809D01*
X98585648Y-60127736D01*
X98592269Y-60064746D01*
X98592275Y-60064727D01*
X98592283Y-60064650D01*
X98611039Y-60004057D01*
X98641208Y-59948262D01*
X98645672Y-59942866D01*
X98659995Y-59919504D01*
X98667436Y-59892367D01*
X98667023Y-59864231D01*
X98658787Y-59837324D01*
X98646609Y-59817799D01*
X98638697Y-59807958D01*
X98609310Y-59751747D01*
X98591402Y-59690899D01*
X98591396Y-59690838D01*
X98591388Y-59690809D01*
X98585648Y-59627736D01*
X98592269Y-59564746D01*
X98592275Y-59564727D01*
X98592283Y-59564650D01*
X98611039Y-59504057D01*
X98641208Y-59448262D01*
X98645672Y-59442866D01*
X98659995Y-59419504D01*
X98667436Y-59392367D01*
X98667023Y-59364231D01*
X98658787Y-59337324D01*
X98646609Y-59317799D01*
X98638697Y-59307958D01*
X98609310Y-59251747D01*
X98591402Y-59190899D01*
X98591396Y-59190838D01*
X98591388Y-59190809D01*
X98585648Y-59127736D01*
X98592269Y-59064746D01*
X98592275Y-59064727D01*
X98592283Y-59064650D01*
X98611039Y-59004057D01*
X98641208Y-58948262D01*
X98645672Y-58942866D01*
X98659995Y-58919504D01*
X98667436Y-58892367D01*
X98667023Y-58864231D01*
X98658787Y-58837324D01*
X98646609Y-58817799D01*
X98638697Y-58807958D01*
X98609310Y-58751747D01*
X98591402Y-58690899D01*
X98591396Y-58690838D01*
X98591388Y-58690809D01*
X98585648Y-58627736D01*
X98592269Y-58564746D01*
X98592275Y-58564727D01*
X98592283Y-58564650D01*
X98611039Y-58504057D01*
X98641208Y-58448262D01*
X98645672Y-58442866D01*
X98659995Y-58419504D01*
X98667436Y-58392367D01*
X98667023Y-58364231D01*
X98658787Y-58337324D01*
X98646609Y-58317799D01*
X98638697Y-58307958D01*
X98609310Y-58251747D01*
X98591402Y-58190899D01*
X98591396Y-58190838D01*
X98591388Y-58190809D01*
X98585648Y-58127736D01*
X98592269Y-58064746D01*
X98592275Y-58064727D01*
X98592283Y-58064650D01*
X98611039Y-58004057D01*
X98641208Y-57948262D01*
X98645672Y-57942866D01*
X98659995Y-57919504D01*
X98667436Y-57892367D01*
X98667023Y-57864231D01*
X98658787Y-57837324D01*
X98646609Y-57817799D01*
X98638697Y-57807958D01*
X98609310Y-57751747D01*
X98591402Y-57690899D01*
X98591396Y-57690838D01*
X98591388Y-57690809D01*
X98585648Y-57627736D01*
X98592269Y-57564746D01*
X98592275Y-57564727D01*
X98592283Y-57564650D01*
X98611039Y-57504057D01*
X98641208Y-57448262D01*
X98645672Y-57442866D01*
X98659995Y-57419504D01*
X98667436Y-57392367D01*
X98667023Y-57364231D01*
X98658787Y-57337324D01*
X98646609Y-57317799D01*
X98638697Y-57307958D01*
X98609310Y-57251747D01*
X98591402Y-57190899D01*
X98591396Y-57190838D01*
X98591388Y-57190809D01*
X98585648Y-57127736D01*
X98592269Y-57064746D01*
X98592275Y-57064727D01*
X98592283Y-57064650D01*
X98611039Y-57004057D01*
X98641208Y-56948262D01*
X98645672Y-56942866D01*
X98659995Y-56919504D01*
X98667436Y-56892367D01*
X98667023Y-56864231D01*
X98658787Y-56837324D01*
X98646609Y-56817799D01*
X98638697Y-56807958D01*
X98609310Y-56751747D01*
X98591402Y-56690899D01*
X98591396Y-56690838D01*
X98591388Y-56690809D01*
X98585648Y-56627736D01*
X98592269Y-56564746D01*
X98592275Y-56564727D01*
X98592283Y-56564650D01*
X98611039Y-56504057D01*
X98641208Y-56448262D01*
X98645672Y-56442866D01*
X98659995Y-56419504D01*
X98667436Y-56392367D01*
X98667023Y-56364231D01*
X98658787Y-56337324D01*
X98646609Y-56317799D01*
X98638697Y-56307958D01*
X98609310Y-56251747D01*
X98591402Y-56190899D01*
X98591396Y-56190838D01*
X98591388Y-56190809D01*
X98585648Y-56127736D01*
X98592269Y-56064746D01*
X98592275Y-56064727D01*
X98592283Y-56064650D01*
X98611039Y-56004057D01*
X98641208Y-55948262D01*
X98645672Y-55942866D01*
X98659995Y-55919504D01*
X98667436Y-55892367D01*
X98667023Y-55864231D01*
X98658787Y-55837324D01*
X98646609Y-55817799D01*
X98638697Y-55807958D01*
X98609310Y-55751747D01*
X98591402Y-55690899D01*
X98591396Y-55690838D01*
X98591388Y-55690809D01*
X98585648Y-55627736D01*
X98592269Y-55564746D01*
X98592275Y-55564727D01*
X98592283Y-55564650D01*
X98611039Y-55504057D01*
X98641208Y-55448262D01*
X98645672Y-55442866D01*
X98659995Y-55419504D01*
X98667436Y-55392367D01*
X98667023Y-55364231D01*
X98658787Y-55337324D01*
X98646609Y-55317799D01*
X98638697Y-55307958D01*
X98609310Y-55251747D01*
X98591402Y-55190899D01*
X98591396Y-55190838D01*
X98591388Y-55190809D01*
X98585648Y-55127736D01*
X98592269Y-55064746D01*
X98592275Y-55064727D01*
X98592283Y-55064650D01*
X98611039Y-55004057D01*
X98641208Y-54948262D01*
X98645672Y-54942866D01*
X98659995Y-54919504D01*
X98667436Y-54892367D01*
X98667023Y-54864231D01*
X98658787Y-54837324D01*
X98646609Y-54817799D01*
X98638697Y-54807958D01*
X98609310Y-54751747D01*
X98591402Y-54690899D01*
X98591396Y-54690838D01*
X98591388Y-54690809D01*
X98585648Y-54627736D01*
X98592269Y-54564746D01*
X98592275Y-54564727D01*
X98592283Y-54564650D01*
X98611039Y-54504057D01*
X98641208Y-54448262D01*
X98645672Y-54442866D01*
X98659995Y-54419504D01*
X98667436Y-54392367D01*
X98667023Y-54364231D01*
X98658787Y-54337324D01*
X98646609Y-54317799D01*
X98638697Y-54307958D01*
X98609310Y-54251747D01*
X98591402Y-54190899D01*
X98591396Y-54190838D01*
X98591388Y-54190809D01*
X98585648Y-54127736D01*
X98592269Y-54064746D01*
X98592275Y-54064727D01*
X98592283Y-54064650D01*
X98611039Y-54004057D01*
X98641208Y-53948262D01*
X98645672Y-53942866D01*
X98659995Y-53919504D01*
X98667436Y-53892367D01*
X98667023Y-53864231D01*
X98658787Y-53837324D01*
X98646609Y-53817799D01*
X98638697Y-53807958D01*
X98609310Y-53751747D01*
X98591402Y-53690899D01*
X98591396Y-53690838D01*
X98591388Y-53690809D01*
X98585648Y-53627736D01*
X98592269Y-53564746D01*
X98592275Y-53564727D01*
X98592283Y-53564650D01*
X98611039Y-53504057D01*
X98641208Y-53448262D01*
X98645672Y-53442866D01*
X98659995Y-53419504D01*
X98667436Y-53392367D01*
X98667023Y-53364231D01*
X98658787Y-53337324D01*
X98646609Y-53317799D01*
X98638697Y-53307958D01*
X98609310Y-53251747D01*
X98591402Y-53190899D01*
X98591396Y-53190838D01*
X98591388Y-53190809D01*
X98585648Y-53127736D01*
X98592269Y-53064746D01*
X98592275Y-53064727D01*
X98592283Y-53064650D01*
X98611039Y-53004057D01*
X98641208Y-52948262D01*
X98645672Y-52942866D01*
X98659995Y-52919504D01*
X98667436Y-52892367D01*
X98667023Y-52864231D01*
X98658787Y-52837324D01*
X98646609Y-52817799D01*
X98638697Y-52807958D01*
X98609310Y-52751747D01*
X98591402Y-52690899D01*
X98591396Y-52690838D01*
X98591388Y-52690809D01*
X98585648Y-52627736D01*
X98592269Y-52564746D01*
X98592275Y-52564727D01*
X98592283Y-52564650D01*
X98611039Y-52504057D01*
X98641208Y-52448262D01*
X98645672Y-52442866D01*
X98659995Y-52419504D01*
X98667436Y-52392367D01*
X98667023Y-52364231D01*
X98658787Y-52337324D01*
X98646609Y-52317799D01*
X98638697Y-52307958D01*
X98609310Y-52251747D01*
X98591402Y-52190899D01*
X98591396Y-52190838D01*
X98591388Y-52190809D01*
X98585648Y-52127736D01*
X98592269Y-52064746D01*
X98592275Y-52064727D01*
X98592283Y-52064650D01*
X98611039Y-52004057D01*
X98641208Y-51948262D01*
X98645672Y-51942866D01*
X98659995Y-51919504D01*
X98667436Y-51892367D01*
X98667023Y-51864231D01*
X98658787Y-51837324D01*
X98646609Y-51817799D01*
X98638697Y-51807958D01*
X98609310Y-51751747D01*
X98591402Y-51690899D01*
X98591396Y-51690838D01*
X98591388Y-51690809D01*
X98585648Y-51627736D01*
X98592269Y-51564746D01*
X98592275Y-51564727D01*
X98592283Y-51564650D01*
X98611039Y-51504057D01*
X98641208Y-51448262D01*
X98645672Y-51442866D01*
X98659995Y-51419504D01*
X98667436Y-51392367D01*
X98667023Y-51364231D01*
X98658787Y-51337324D01*
X98646609Y-51317799D01*
X98638697Y-51307958D01*
X98609310Y-51251747D01*
X98591402Y-51190899D01*
X98591396Y-51190838D01*
X98591388Y-51190809D01*
X98585648Y-51127736D01*
X98592269Y-51064746D01*
X98592275Y-51064727D01*
X98592283Y-51064650D01*
X98611039Y-51004057D01*
X98641208Y-50948262D01*
X98645672Y-50942866D01*
X98659995Y-50919504D01*
X98667436Y-50892367D01*
X98667023Y-50864231D01*
X98658787Y-50837324D01*
X98646609Y-50817799D01*
X98638697Y-50807958D01*
X98609310Y-50751747D01*
X98591402Y-50690899D01*
X98591396Y-50690838D01*
X98591388Y-50690809D01*
X98585648Y-50627736D01*
X98592269Y-50564746D01*
X98592275Y-50564727D01*
X98592283Y-50564650D01*
X98611039Y-50504057D01*
X98641208Y-50448262D01*
X98645672Y-50442866D01*
X98659995Y-50419504D01*
X98667436Y-50392367D01*
X98667023Y-50364231D01*
X98658787Y-50337324D01*
X98646609Y-50317799D01*
X98638697Y-50307958D01*
X98609310Y-50251747D01*
X98591402Y-50190899D01*
X98591396Y-50190838D01*
X98591388Y-50190809D01*
X98585648Y-50127736D01*
X98592269Y-50064746D01*
X98592275Y-50064727D01*
X98592283Y-50064650D01*
X98611039Y-50004057D01*
X98641208Y-49948262D01*
X98645672Y-49942866D01*
X98659995Y-49919504D01*
X98667436Y-49892367D01*
X98667023Y-49864231D01*
X98658787Y-49837324D01*
X98646609Y-49817799D01*
X98638697Y-49807958D01*
X98609310Y-49751747D01*
X98591402Y-49690899D01*
X98591396Y-49690838D01*
X98591388Y-49690809D01*
X98585648Y-49627736D01*
X98592269Y-49564746D01*
X98592275Y-49564727D01*
X98592283Y-49564650D01*
X98611039Y-49504057D01*
X98641208Y-49448262D01*
X98645672Y-49442866D01*
X98659995Y-49419504D01*
X98667436Y-49392367D01*
X98667023Y-49364231D01*
X98658787Y-49337324D01*
X98646609Y-49317799D01*
X98638697Y-49307958D01*
X98609310Y-49251747D01*
X98591402Y-49190899D01*
X98591396Y-49190838D01*
X98591388Y-49190809D01*
X98585648Y-49127736D01*
X98592269Y-49064746D01*
X98592275Y-49064727D01*
X98592283Y-49064650D01*
X98611039Y-49004057D01*
X98641208Y-48948262D01*
X98645672Y-48942866D01*
X98659995Y-48919504D01*
X98667436Y-48892367D01*
X98667023Y-48864231D01*
X98658787Y-48837324D01*
X98646609Y-48817799D01*
X98638697Y-48807958D01*
X98609310Y-48751747D01*
X98591402Y-48690899D01*
X98591396Y-48690838D01*
X98591388Y-48690809D01*
X98585648Y-48627736D01*
X98592269Y-48564746D01*
X98592275Y-48564727D01*
X98592283Y-48564650D01*
X98611039Y-48504057D01*
X98641208Y-48448262D01*
X98645672Y-48442866D01*
X98659995Y-48419504D01*
X98667436Y-48392367D01*
X98667023Y-48364231D01*
X98658787Y-48337324D01*
X98646609Y-48317799D01*
X98638697Y-48307958D01*
X98609310Y-48251747D01*
X98591402Y-48190899D01*
X98591396Y-48190838D01*
X98591388Y-48190809D01*
X98585648Y-48127736D01*
X98592269Y-48064746D01*
X98592275Y-48064727D01*
X98592283Y-48064650D01*
X98611039Y-48004057D01*
X98641208Y-47948262D01*
X98645672Y-47942866D01*
X98659995Y-47919504D01*
X98667436Y-47892367D01*
X98667023Y-47864231D01*
X98658787Y-47837324D01*
X98646609Y-47817799D01*
X98638697Y-47807958D01*
X98609310Y-47751747D01*
X98591402Y-47690899D01*
X98591396Y-47690838D01*
X98591388Y-47690809D01*
X98585648Y-47627736D01*
X98592269Y-47564746D01*
X98592275Y-47564727D01*
X98592283Y-47564650D01*
X98611039Y-47504057D01*
X98641208Y-47448262D01*
X98645672Y-47442866D01*
X98659995Y-47419504D01*
X98667436Y-47392367D01*
X98667023Y-47364231D01*
X98658787Y-47337324D01*
X98646609Y-47317799D01*
X98638697Y-47307958D01*
X98609310Y-47251747D01*
X98591402Y-47190899D01*
X98591396Y-47190838D01*
X98591388Y-47190809D01*
X98585648Y-47127736D01*
X98592269Y-47064746D01*
X98592275Y-47064727D01*
X98592283Y-47064650D01*
X98611039Y-47004057D01*
X98641208Y-46948262D01*
X98681639Y-46899390D01*
X98730793Y-46859301D01*
X98786797Y-46829523D01*
X98847519Y-46811190D01*
X98910645Y-46805000D01*
X100069437Y-46805000D01*
X100069839Y-46805003D01*
X100069839Y-46805003D01*
G37*
G36*
X122069839Y-46805003D02*
X122069843Y-46805003D01*
X122073893Y-46805032D01*
X122136926Y-46812102D01*
X122197386Y-46831281D01*
X122252969Y-46861838D01*
X122301559Y-46902609D01*
X122341303Y-46952042D01*
X122370690Y-47008253D01*
X122388598Y-47069101D01*
X122388604Y-47069162D01*
X122388612Y-47069191D01*
X122394352Y-47132264D01*
X122387731Y-47195254D01*
X122387725Y-47195273D01*
X122387717Y-47195350D01*
X122368961Y-47255943D01*
X122338792Y-47311738D01*
X122334328Y-47317134D01*
X122320005Y-47340496D01*
X122312564Y-47367633D01*
X122312977Y-47395769D01*
X122321213Y-47422676D01*
X122333391Y-47442201D01*
X122341303Y-47452042D01*
X122370690Y-47508253D01*
X122388598Y-47569101D01*
X122388604Y-47569162D01*
X122388612Y-47569191D01*
X122394352Y-47632264D01*
X122387731Y-47695254D01*
X122387725Y-47695273D01*
X122387717Y-47695350D01*
X122368961Y-47755943D01*
X122338792Y-47811738D01*
X122334328Y-47817134D01*
X122320005Y-47840496D01*
X122312564Y-47867633D01*
X122312977Y-47895769D01*
X122321213Y-47922676D01*
X122333391Y-47942201D01*
X122341303Y-47952042D01*
X122370690Y-48008253D01*
X122388598Y-48069101D01*
X122388604Y-48069162D01*
X122388612Y-48069191D01*
X122394352Y-48132264D01*
X122387731Y-48195254D01*
X122387725Y-48195273D01*
X122387717Y-48195350D01*
X122368961Y-48255943D01*
X122338792Y-48311738D01*
X122334328Y-48317134D01*
X122320005Y-48340496D01*
X122312564Y-48367633D01*
X122312977Y-48395769D01*
X122321213Y-48422676D01*
X122333391Y-48442201D01*
X122341303Y-48452042D01*
X122370690Y-48508253D01*
X122388598Y-48569101D01*
X122388604Y-48569162D01*
X122388612Y-48569191D01*
X122394352Y-48632264D01*
X122387731Y-48695254D01*
X122387725Y-48695273D01*
X122387717Y-48695350D01*
X122368961Y-48755943D01*
X122338792Y-48811738D01*
X122334328Y-48817134D01*
X122320005Y-48840496D01*
X122312564Y-48867633D01*
X122312977Y-48895769D01*
X122321213Y-48922676D01*
X122333391Y-48942201D01*
X122341303Y-48952042D01*
X122370690Y-49008253D01*
X122388598Y-49069101D01*
X122388604Y-49069162D01*
X122388612Y-49069191D01*
X122394352Y-49132264D01*
X122387731Y-49195254D01*
X122387725Y-49195273D01*
X122387717Y-49195350D01*
X122368961Y-49255943D01*
X122338792Y-49311738D01*
X122334328Y-49317134D01*
X122320005Y-49340496D01*
X122312564Y-49367633D01*
X122312977Y-49395769D01*
X122321213Y-49422676D01*
X122333391Y-49442201D01*
X122341303Y-49452042D01*
X122370690Y-49508253D01*
X122388598Y-49569101D01*
X122388604Y-49569162D01*
X122388612Y-49569191D01*
X122394352Y-49632264D01*
X122387731Y-49695254D01*
X122387725Y-49695273D01*
X122387717Y-49695350D01*
X122368961Y-49755943D01*
X122338792Y-49811738D01*
X122334328Y-49817134D01*
X122320005Y-49840496D01*
X122312564Y-49867633D01*
X122312977Y-49895769D01*
X122321213Y-49922676D01*
X122333391Y-49942201D01*
X122341303Y-49952042D01*
X122370690Y-50008253D01*
X122388598Y-50069101D01*
X122388604Y-50069162D01*
X122388612Y-50069191D01*
X122394352Y-50132264D01*
X122387731Y-50195254D01*
X122387725Y-50195273D01*
X122387717Y-50195350D01*
X122368961Y-50255943D01*
X122338792Y-50311738D01*
X122334328Y-50317134D01*
X122320005Y-50340496D01*
X122312564Y-50367633D01*
X122312977Y-50395769D01*
X122321213Y-50422676D01*
X122333391Y-50442201D01*
X122341303Y-50452042D01*
X122370690Y-50508253D01*
X122388598Y-50569101D01*
X122388604Y-50569162D01*
X122388612Y-50569191D01*
X122394352Y-50632264D01*
X122387731Y-50695254D01*
X122387725Y-50695273D01*
X122387717Y-50695350D01*
X122368961Y-50755943D01*
X122338792Y-50811738D01*
X122334328Y-50817134D01*
X122320005Y-50840496D01*
X122312564Y-50867633D01*
X122312977Y-50895769D01*
X122321213Y-50922676D01*
X122333391Y-50942201D01*
X122341303Y-50952042D01*
X122370690Y-51008253D01*
X122388598Y-51069101D01*
X122388604Y-51069162D01*
X122388612Y-51069191D01*
X122394352Y-51132264D01*
X122387731Y-51195254D01*
X122387725Y-51195273D01*
X122387717Y-51195350D01*
X122368961Y-51255943D01*
X122338792Y-51311738D01*
X122334328Y-51317134D01*
X122320005Y-51340496D01*
X122312564Y-51367633D01*
X122312977Y-51395769D01*
X122321213Y-51422676D01*
X122333391Y-51442201D01*
X122341303Y-51452042D01*
X122370690Y-51508253D01*
X122388598Y-51569101D01*
X122388604Y-51569162D01*
X122388612Y-51569191D01*
X122394352Y-51632264D01*
X122387731Y-51695254D01*
X122387725Y-51695273D01*
X122387717Y-51695350D01*
X122368961Y-51755943D01*
X122338792Y-51811738D01*
X122334328Y-51817134D01*
X122320005Y-51840496D01*
X122312564Y-51867633D01*
X122312977Y-51895769D01*
X122321213Y-51922676D01*
X122333391Y-51942201D01*
X122341303Y-51952042D01*
X122370690Y-52008253D01*
X122388598Y-52069101D01*
X122388604Y-52069162D01*
X122388612Y-52069191D01*
X122394352Y-52132264D01*
X122387731Y-52195254D01*
X122387725Y-52195273D01*
X122387717Y-52195350D01*
X122368961Y-52255943D01*
X122338792Y-52311738D01*
X122334328Y-52317134D01*
X122320005Y-52340496D01*
X122312564Y-52367633D01*
X122312977Y-52395769D01*
X122321213Y-52422676D01*
X122333391Y-52442201D01*
X122341303Y-52452042D01*
X122370690Y-52508253D01*
X122388598Y-52569101D01*
X122388604Y-52569162D01*
X122388612Y-52569191D01*
X122394352Y-52632264D01*
X122387731Y-52695254D01*
X122387725Y-52695273D01*
X122387717Y-52695350D01*
X122368961Y-52755943D01*
X122338792Y-52811738D01*
X122334328Y-52817134D01*
X122320005Y-52840496D01*
X122312564Y-52867633D01*
X122312977Y-52895769D01*
X122321213Y-52922676D01*
X122333391Y-52942201D01*
X122341303Y-52952042D01*
X122370690Y-53008253D01*
X122388598Y-53069101D01*
X122388604Y-53069162D01*
X122388612Y-53069191D01*
X122394352Y-53132264D01*
X122387731Y-53195254D01*
X122387725Y-53195273D01*
X122387717Y-53195350D01*
X122368961Y-53255943D01*
X122338792Y-53311738D01*
X122334328Y-53317134D01*
X122320005Y-53340496D01*
X122312564Y-53367633D01*
X122312977Y-53395769D01*
X122321213Y-53422676D01*
X122333391Y-53442201D01*
X122341303Y-53452042D01*
X122370690Y-53508253D01*
X122388598Y-53569101D01*
X122388604Y-53569162D01*
X122388612Y-53569191D01*
X122394352Y-53632264D01*
X122387731Y-53695254D01*
X122387725Y-53695273D01*
X122387717Y-53695350D01*
X122368961Y-53755943D01*
X122338792Y-53811738D01*
X122334328Y-53817134D01*
X122320005Y-53840496D01*
X122312564Y-53867633D01*
X122312977Y-53895769D01*
X122321213Y-53922676D01*
X122333391Y-53942201D01*
X122341303Y-53952042D01*
X122370690Y-54008253D01*
X122388598Y-54069101D01*
X122388604Y-54069162D01*
X122388612Y-54069191D01*
X122394352Y-54132264D01*
X122387731Y-54195254D01*
X122387725Y-54195273D01*
X122387717Y-54195350D01*
X122368961Y-54255943D01*
X122338792Y-54311738D01*
X122334328Y-54317134D01*
X122320005Y-54340496D01*
X122312564Y-54367633D01*
X122312977Y-54395769D01*
X122321213Y-54422676D01*
X122333391Y-54442201D01*
X122341303Y-54452042D01*
X122370690Y-54508253D01*
X122388598Y-54569101D01*
X122388604Y-54569162D01*
X122388612Y-54569191D01*
X122394352Y-54632264D01*
X122387731Y-54695254D01*
X122387725Y-54695273D01*
X122387717Y-54695350D01*
X122368961Y-54755943D01*
X122338792Y-54811738D01*
X122334328Y-54817134D01*
X122320005Y-54840496D01*
X122312564Y-54867633D01*
X122312977Y-54895769D01*
X122321213Y-54922676D01*
X122333391Y-54942201D01*
X122341303Y-54952042D01*
X122370690Y-55008253D01*
X122388598Y-55069101D01*
X122388604Y-55069162D01*
X122388612Y-55069191D01*
X122394352Y-55132264D01*
X122387731Y-55195254D01*
X122387725Y-55195273D01*
X122387717Y-55195350D01*
X122368961Y-55255943D01*
X122338792Y-55311738D01*
X122334328Y-55317134D01*
X122320005Y-55340496D01*
X122312564Y-55367633D01*
X122312977Y-55395769D01*
X122321213Y-55422676D01*
X122333391Y-55442201D01*
X122341303Y-55452042D01*
X122370690Y-55508253D01*
X122388598Y-55569101D01*
X122388604Y-55569162D01*
X122388612Y-55569191D01*
X122394352Y-55632264D01*
X122387731Y-55695254D01*
X122387725Y-55695273D01*
X122387717Y-55695350D01*
X122368961Y-55755943D01*
X122338792Y-55811738D01*
X122334328Y-55817134D01*
X122320005Y-55840496D01*
X122312564Y-55867633D01*
X122312977Y-55895769D01*
X122321213Y-55922676D01*
X122333391Y-55942201D01*
X122341303Y-55952042D01*
X122370690Y-56008253D01*
X122388598Y-56069101D01*
X122388604Y-56069162D01*
X122388612Y-56069191D01*
X122394352Y-56132264D01*
X122387731Y-56195254D01*
X122387725Y-56195273D01*
X122387717Y-56195350D01*
X122368961Y-56255943D01*
X122338792Y-56311738D01*
X122334328Y-56317134D01*
X122320005Y-56340496D01*
X122312564Y-56367633D01*
X122312977Y-56395769D01*
X122321213Y-56422676D01*
X122333391Y-56442201D01*
X122341303Y-56452042D01*
X122370690Y-56508253D01*
X122388598Y-56569101D01*
X122388604Y-56569162D01*
X122388612Y-56569191D01*
X122394352Y-56632263D01*
X122387731Y-56695254D01*
X122387725Y-56695273D01*
X122387717Y-56695350D01*
X122368961Y-56755943D01*
X122338792Y-56811738D01*
X122334328Y-56817134D01*
X122320005Y-56840496D01*
X122312564Y-56867633D01*
X122312977Y-56895769D01*
X122321213Y-56922676D01*
X122333391Y-56942201D01*
X122341303Y-56952042D01*
X122370690Y-57008253D01*
X122388598Y-57069101D01*
X122388604Y-57069162D01*
X122388612Y-57069191D01*
X122394352Y-57132264D01*
X122387731Y-57195254D01*
X122387725Y-57195273D01*
X122387717Y-57195350D01*
X122368961Y-57255943D01*
X122338792Y-57311738D01*
X122334328Y-57317134D01*
X122320005Y-57340496D01*
X122312564Y-57367633D01*
X122312977Y-57395769D01*
X122321213Y-57422676D01*
X122333391Y-57442201D01*
X122341303Y-57452042D01*
X122370690Y-57508253D01*
X122388598Y-57569101D01*
X122388604Y-57569162D01*
X122388612Y-57569191D01*
X122394352Y-57632264D01*
X122387731Y-57695254D01*
X122387725Y-57695273D01*
X122387717Y-57695350D01*
X122368961Y-57755943D01*
X122338792Y-57811738D01*
X122334328Y-57817134D01*
X122320005Y-57840496D01*
X122312564Y-57867633D01*
X122312977Y-57895769D01*
X122321213Y-57922676D01*
X122333391Y-57942201D01*
X122341303Y-57952042D01*
X122370690Y-58008253D01*
X122388598Y-58069101D01*
X122388604Y-58069162D01*
X122388612Y-58069191D01*
X122394352Y-58132264D01*
X122387731Y-58195254D01*
X122387725Y-58195273D01*
X122387717Y-58195350D01*
X122368961Y-58255943D01*
X122338792Y-58311738D01*
X122334328Y-58317134D01*
X122320005Y-58340496D01*
X122312564Y-58367633D01*
X122312977Y-58395769D01*
X122321213Y-58422676D01*
X122333391Y-58442201D01*
X122341303Y-58452042D01*
X122370690Y-58508253D01*
X122388598Y-58569101D01*
X122388604Y-58569162D01*
X122388612Y-58569191D01*
X122394352Y-58632264D01*
X122387731Y-58695254D01*
X122387725Y-58695273D01*
X122387717Y-58695350D01*
X122368961Y-58755943D01*
X122338792Y-58811738D01*
X122334328Y-58817134D01*
X122320005Y-58840496D01*
X122312564Y-58867633D01*
X122312977Y-58895769D01*
X122321213Y-58922676D01*
X122333391Y-58942201D01*
X122341303Y-58952042D01*
X122370690Y-59008253D01*
X122388598Y-59069101D01*
X122388604Y-59069162D01*
X122388612Y-59069191D01*
X122394352Y-59132264D01*
X122387731Y-59195254D01*
X122387725Y-59195273D01*
X122387717Y-59195350D01*
X122368961Y-59255943D01*
X122338792Y-59311738D01*
X122334328Y-59317134D01*
X122320005Y-59340496D01*
X122312564Y-59367633D01*
X122312977Y-59395769D01*
X122321213Y-59422676D01*
X122333391Y-59442201D01*
X122341303Y-59452042D01*
X122370690Y-59508253D01*
X122388598Y-59569101D01*
X122388604Y-59569162D01*
X122388612Y-59569191D01*
X122394352Y-59632264D01*
X122387731Y-59695254D01*
X122387725Y-59695273D01*
X122387717Y-59695350D01*
X122368961Y-59755943D01*
X122338792Y-59811738D01*
X122334328Y-59817134D01*
X122320005Y-59840496D01*
X122312564Y-59867633D01*
X122312977Y-59895769D01*
X122321213Y-59922676D01*
X122333391Y-59942201D01*
X122341303Y-59952042D01*
X122370690Y-60008253D01*
X122388598Y-60069101D01*
X122388604Y-60069162D01*
X122388612Y-60069191D01*
X122394352Y-60132264D01*
X122387731Y-60195254D01*
X122387725Y-60195273D01*
X122387717Y-60195350D01*
X122368961Y-60255943D01*
X122338792Y-60311738D01*
X122334328Y-60317134D01*
X122320005Y-60340496D01*
X122312564Y-60367633D01*
X122312977Y-60395769D01*
X122321213Y-60422676D01*
X122333391Y-60442201D01*
X122341303Y-60452042D01*
X122370690Y-60508253D01*
X122388598Y-60569101D01*
X122388604Y-60569162D01*
X122388612Y-60569191D01*
X122394352Y-60632264D01*
X122387731Y-60695254D01*
X122387725Y-60695273D01*
X122387717Y-60695350D01*
X122368961Y-60755943D01*
X122338792Y-60811738D01*
X122334328Y-60817134D01*
X122320005Y-60840496D01*
X122312564Y-60867633D01*
X122312977Y-60895769D01*
X122321213Y-60922676D01*
X122333391Y-60942201D01*
X122341303Y-60952042D01*
X122370690Y-61008253D01*
X122388598Y-61069101D01*
X122388604Y-61069162D01*
X122388612Y-61069191D01*
X122394352Y-61132264D01*
X122387731Y-61195254D01*
X122387725Y-61195273D01*
X122387717Y-61195350D01*
X122368961Y-61255943D01*
X122338792Y-61311738D01*
X122334328Y-61317134D01*
X122320005Y-61340496D01*
X122312564Y-61367633D01*
X122312977Y-61395769D01*
X122321213Y-61422676D01*
X122333391Y-61442201D01*
X122341303Y-61452042D01*
X122370690Y-61508253D01*
X122388598Y-61569101D01*
X122388604Y-61569162D01*
X122388612Y-61569191D01*
X122394352Y-61632264D01*
X122387731Y-61695254D01*
X122387725Y-61695273D01*
X122387717Y-61695350D01*
X122368961Y-61755943D01*
X122338792Y-61811738D01*
X122334328Y-61817134D01*
X122320005Y-61840496D01*
X122312564Y-61867633D01*
X122312977Y-61895769D01*
X122321213Y-61922676D01*
X122333391Y-61942201D01*
X122341303Y-61952042D01*
X122370690Y-62008253D01*
X122388598Y-62069101D01*
X122388604Y-62069162D01*
X122388612Y-62069191D01*
X122394352Y-62132264D01*
X122387731Y-62195254D01*
X122387725Y-62195273D01*
X122387717Y-62195350D01*
X122368961Y-62255943D01*
X122338792Y-62311738D01*
X122334328Y-62317134D01*
X122320005Y-62340496D01*
X122312564Y-62367633D01*
X122312977Y-62395769D01*
X122321213Y-62422676D01*
X122333391Y-62442201D01*
X122341303Y-62452042D01*
X122370690Y-62508253D01*
X122388598Y-62569101D01*
X122388604Y-62569162D01*
X122388612Y-62569191D01*
X122394352Y-62632264D01*
X122387731Y-62695254D01*
X122387725Y-62695273D01*
X122387717Y-62695350D01*
X122368961Y-62755943D01*
X122338792Y-62811738D01*
X122334328Y-62817134D01*
X122320005Y-62840496D01*
X122312564Y-62867633D01*
X122312977Y-62895769D01*
X122321213Y-62922676D01*
X122333391Y-62942201D01*
X122341303Y-62952042D01*
X122370690Y-63008253D01*
X122388598Y-63069101D01*
X122388604Y-63069162D01*
X122388612Y-63069191D01*
X122394352Y-63132264D01*
X122387731Y-63195254D01*
X122387725Y-63195273D01*
X122387717Y-63195350D01*
X122368961Y-63255943D01*
X122338792Y-63311738D01*
X122334328Y-63317134D01*
X122320005Y-63340496D01*
X122312564Y-63367633D01*
X122312977Y-63395769D01*
X122321213Y-63422676D01*
X122333391Y-63442201D01*
X122341303Y-63452042D01*
X122370690Y-63508253D01*
X122388598Y-63569101D01*
X122388604Y-63569162D01*
X122388612Y-63569191D01*
X122394352Y-63632264D01*
X122387731Y-63695254D01*
X122387725Y-63695273D01*
X122387717Y-63695350D01*
X122368961Y-63755943D01*
X122338792Y-63811738D01*
X122334328Y-63817134D01*
X122320005Y-63840496D01*
X122312564Y-63867633D01*
X122312977Y-63895769D01*
X122321213Y-63922676D01*
X122333391Y-63942201D01*
X122341303Y-63952042D01*
X122370690Y-64008253D01*
X122388598Y-64069101D01*
X122388604Y-64069162D01*
X122388612Y-64069191D01*
X122394352Y-64132264D01*
X122387731Y-64195254D01*
X122387725Y-64195273D01*
X122387717Y-64195350D01*
X122368961Y-64255943D01*
X122338792Y-64311738D01*
X122334328Y-64317134D01*
X122320005Y-64340496D01*
X122312564Y-64367633D01*
X122312977Y-64395769D01*
X122321213Y-64422676D01*
X122333391Y-64442201D01*
X122341303Y-64452042D01*
X122370690Y-64508253D01*
X122388598Y-64569101D01*
X122388604Y-64569162D01*
X122388612Y-64569191D01*
X122394352Y-64632264D01*
X122387731Y-64695254D01*
X122387725Y-64695273D01*
X122387717Y-64695350D01*
X122368961Y-64755943D01*
X122338792Y-64811738D01*
X122298361Y-64860610D01*
X122249207Y-64900699D01*
X122193203Y-64930477D01*
X122132481Y-64948810D01*
X122069355Y-64955000D01*
X120910563Y-64955000D01*
X120910161Y-64954997D01*
X120910157Y-64954997D01*
X120906107Y-64954968D01*
X120843074Y-64947898D01*
X120782614Y-64928719D01*
X120727031Y-64898162D01*
X120678441Y-64857391D01*
X120638697Y-64807958D01*
X120609310Y-64751747D01*
X120591402Y-64690899D01*
X120591396Y-64690838D01*
X120591388Y-64690809D01*
X120585648Y-64627736D01*
X120592269Y-64564746D01*
X120592275Y-64564727D01*
X120592283Y-64564650D01*
X120611039Y-64504057D01*
X120641208Y-64448262D01*
X120645672Y-64442866D01*
X120659995Y-64419504D01*
X120667436Y-64392367D01*
X120667023Y-64364231D01*
X120658787Y-64337324D01*
X120646609Y-64317799D01*
X120638697Y-64307958D01*
X120609310Y-64251747D01*
X120591402Y-64190899D01*
X120591396Y-64190838D01*
X120591388Y-64190809D01*
X120585648Y-64127736D01*
X120592269Y-64064746D01*
X120592275Y-64064727D01*
X120592283Y-64064650D01*
X120611039Y-64004057D01*
X120641208Y-63948262D01*
X120645672Y-63942866D01*
X120659995Y-63919504D01*
X120667436Y-63892367D01*
X120667023Y-63864231D01*
X120658787Y-63837324D01*
X120646609Y-63817799D01*
X120638697Y-63807958D01*
X120609310Y-63751747D01*
X120591402Y-63690899D01*
X120591396Y-63690838D01*
X120591388Y-63690809D01*
X120585648Y-63627736D01*
X120592269Y-63564746D01*
X120592275Y-63564727D01*
X120592283Y-63564650D01*
X120611039Y-63504057D01*
X120641208Y-63448262D01*
X120645672Y-63442866D01*
X120659995Y-63419504D01*
X120667436Y-63392367D01*
X120667023Y-63364231D01*
X120658787Y-63337324D01*
X120646609Y-63317799D01*
X120638697Y-63307958D01*
X120609310Y-63251747D01*
X120591402Y-63190899D01*
X120591396Y-63190838D01*
X120591388Y-63190809D01*
X120585648Y-63127736D01*
X120592269Y-63064746D01*
X120592275Y-63064727D01*
X120592283Y-63064650D01*
X120611039Y-63004057D01*
X120641208Y-62948262D01*
X120645672Y-62942866D01*
X120659995Y-62919504D01*
X120667436Y-62892367D01*
X120667023Y-62864231D01*
X120658787Y-62837324D01*
X120646609Y-62817799D01*
X120638697Y-62807958D01*
X120609310Y-62751747D01*
X120591402Y-62690899D01*
X120591396Y-62690838D01*
X120591388Y-62690809D01*
X120585648Y-62627736D01*
X120592269Y-62564746D01*
X120592275Y-62564727D01*
X120592283Y-62564650D01*
X120611039Y-62504057D01*
X120641208Y-62448262D01*
X120645672Y-62442866D01*
X120659995Y-62419504D01*
X120667436Y-62392367D01*
X120667023Y-62364231D01*
X120658787Y-62337324D01*
X120646609Y-62317799D01*
X120638697Y-62307958D01*
X120609310Y-62251747D01*
X120591402Y-62190899D01*
X120591396Y-62190838D01*
X120591388Y-62190809D01*
X120585648Y-62127736D01*
X120592269Y-62064746D01*
X120592275Y-62064727D01*
X120592283Y-62064650D01*
X120611039Y-62004057D01*
X120641208Y-61948262D01*
X120645672Y-61942866D01*
X120659995Y-61919504D01*
X120667436Y-61892367D01*
X120667023Y-61864231D01*
X120658787Y-61837324D01*
X120646609Y-61817799D01*
X120638697Y-61807958D01*
X120609310Y-61751747D01*
X120591402Y-61690899D01*
X120591396Y-61690838D01*
X120591388Y-61690809D01*
X120585648Y-61627736D01*
X120592269Y-61564746D01*
X120592275Y-61564727D01*
X120592283Y-61564650D01*
X120611039Y-61504057D01*
X120641208Y-61448262D01*
X120645672Y-61442866D01*
X120659995Y-61419504D01*
X120667436Y-61392367D01*
X120667023Y-61364231D01*
X120658787Y-61337324D01*
X120646609Y-61317799D01*
X120638697Y-61307958D01*
X120609310Y-61251747D01*
X120591402Y-61190899D01*
X120591396Y-61190838D01*
X120591388Y-61190809D01*
X120585648Y-61127736D01*
X120592269Y-61064746D01*
X120592275Y-61064727D01*
X120592283Y-61064650D01*
X120611039Y-61004057D01*
X120641208Y-60948262D01*
X120645672Y-60942866D01*
X120659995Y-60919504D01*
X120667436Y-60892367D01*
X120667023Y-60864231D01*
X120658787Y-60837324D01*
X120646609Y-60817799D01*
X120638697Y-60807958D01*
X120609310Y-60751747D01*
X120591402Y-60690899D01*
X120591396Y-60690838D01*
X120591388Y-60690809D01*
X120585648Y-60627736D01*
X120592269Y-60564746D01*
X120592275Y-60564727D01*
X120592283Y-60564650D01*
X120611039Y-60504057D01*
X120641208Y-60448262D01*
X120645672Y-60442866D01*
X120659995Y-60419504D01*
X120667436Y-60392367D01*
X120667023Y-60364231D01*
X120658787Y-60337324D01*
X120646609Y-60317799D01*
X120638697Y-60307958D01*
X120609310Y-60251747D01*
X120591402Y-60190899D01*
X120591396Y-60190838D01*
X120591388Y-60190809D01*
X120585648Y-60127736D01*
X120592269Y-60064746D01*
X120592275Y-60064727D01*
X120592283Y-60064650D01*
X120611039Y-60004057D01*
X120641208Y-59948262D01*
X120645672Y-59942866D01*
X120659995Y-59919504D01*
X120667436Y-59892367D01*
X120667023Y-59864231D01*
X120658787Y-59837324D01*
X120646609Y-59817799D01*
X120638697Y-59807958D01*
X120609310Y-59751747D01*
X120591402Y-59690899D01*
X120591396Y-59690838D01*
X120591388Y-59690809D01*
X120585648Y-59627736D01*
X120592269Y-59564746D01*
X120592275Y-59564727D01*
X120592283Y-59564650D01*
X120611039Y-59504057D01*
X120641208Y-59448262D01*
X120645672Y-59442866D01*
X120659995Y-59419504D01*
X120667436Y-59392367D01*
X120667023Y-59364231D01*
X120658787Y-59337324D01*
X120646609Y-59317799D01*
X120638697Y-59307958D01*
X120609310Y-59251747D01*
X120591402Y-59190899D01*
X120591396Y-59190838D01*
X120591388Y-59190809D01*
X120585648Y-59127736D01*
X120592269Y-59064746D01*
X120592275Y-59064727D01*
X120592283Y-59064650D01*
X120611039Y-59004057D01*
X120641208Y-58948262D01*
X120645672Y-58942866D01*
X120659995Y-58919504D01*
X120667436Y-58892367D01*
X120667023Y-58864231D01*
X120658787Y-58837324D01*
X120646609Y-58817799D01*
X120638697Y-58807958D01*
X120609310Y-58751747D01*
X120591402Y-58690899D01*
X120591396Y-58690838D01*
X120591388Y-58690809D01*
X120585648Y-58627736D01*
X120592269Y-58564746D01*
X120592275Y-58564727D01*
X120592283Y-58564650D01*
X120611039Y-58504057D01*
X120641208Y-58448262D01*
X120645672Y-58442866D01*
X120659995Y-58419504D01*
X120667436Y-58392367D01*
X120667023Y-58364231D01*
X120658787Y-58337324D01*
X120646609Y-58317799D01*
X120638697Y-58307958D01*
X120609310Y-58251747D01*
X120591402Y-58190899D01*
X120591396Y-58190838D01*
X120591388Y-58190809D01*
X120585648Y-58127736D01*
X120592269Y-58064746D01*
X120592275Y-58064727D01*
X120592283Y-58064650D01*
X120611039Y-58004057D01*
X120641208Y-57948262D01*
X120645672Y-57942866D01*
X120659995Y-57919504D01*
X120667436Y-57892367D01*
X120667023Y-57864231D01*
X120658787Y-57837324D01*
X120646609Y-57817799D01*
X120638697Y-57807958D01*
X120609310Y-57751747D01*
X120591402Y-57690899D01*
X120591396Y-57690838D01*
X120591388Y-57690809D01*
X120585648Y-57627736D01*
X120592269Y-57564746D01*
X120592275Y-57564727D01*
X120592283Y-57564650D01*
X120611039Y-57504057D01*
X120641208Y-57448262D01*
X120645672Y-57442866D01*
X120659995Y-57419504D01*
X120667436Y-57392367D01*
X120667023Y-57364231D01*
X120658787Y-57337324D01*
X120646609Y-57317799D01*
X120638697Y-57307958D01*
X120609310Y-57251747D01*
X120591402Y-57190899D01*
X120591396Y-57190838D01*
X120591388Y-57190809D01*
X120585648Y-57127736D01*
X120592269Y-57064746D01*
X120592275Y-57064727D01*
X120592283Y-57064650D01*
X120611039Y-57004057D01*
X120641208Y-56948262D01*
X120645672Y-56942866D01*
X120659995Y-56919504D01*
X120667436Y-56892367D01*
X120667023Y-56864231D01*
X120658787Y-56837324D01*
X120646609Y-56817799D01*
X120638697Y-56807958D01*
X120609310Y-56751747D01*
X120591402Y-56690899D01*
X120591396Y-56690838D01*
X120591388Y-56690809D01*
X120585648Y-56627736D01*
X120592269Y-56564746D01*
X120592275Y-56564727D01*
X120592283Y-56564650D01*
X120611039Y-56504057D01*
X120641208Y-56448262D01*
X120645672Y-56442866D01*
X120659995Y-56419504D01*
X120667436Y-56392367D01*
X120667023Y-56364231D01*
X120658787Y-56337324D01*
X120646609Y-56317799D01*
X120638697Y-56307958D01*
X120609310Y-56251747D01*
X120591402Y-56190899D01*
X120591396Y-56190838D01*
X120591388Y-56190809D01*
X120585648Y-56127736D01*
X120592269Y-56064746D01*
X120592275Y-56064727D01*
X120592283Y-56064650D01*
X120611039Y-56004057D01*
X120641208Y-55948262D01*
X120645672Y-55942866D01*
X120659995Y-55919504D01*
X120667436Y-55892367D01*
X120667023Y-55864231D01*
X120658787Y-55837324D01*
X120646609Y-55817799D01*
X120638697Y-55807958D01*
X120609310Y-55751747D01*
X120591402Y-55690899D01*
X120591396Y-55690838D01*
X120591388Y-55690809D01*
X120585648Y-55627736D01*
X120592269Y-55564746D01*
X120592275Y-55564727D01*
X120592283Y-55564650D01*
X120611039Y-55504057D01*
X120641208Y-55448262D01*
X120645672Y-55442866D01*
X120659995Y-55419504D01*
X120667436Y-55392367D01*
X120667023Y-55364231D01*
X120658787Y-55337324D01*
X120646609Y-55317799D01*
X120638697Y-55307958D01*
X120609310Y-55251747D01*
X120591402Y-55190899D01*
X120591396Y-55190838D01*
X120591388Y-55190809D01*
X120585648Y-55127736D01*
X120592269Y-55064746D01*
X120592275Y-55064727D01*
X120592283Y-55064650D01*
X120611039Y-55004057D01*
X120641208Y-54948262D01*
X120645672Y-54942866D01*
X120659995Y-54919504D01*
X120667436Y-54892367D01*
X120667023Y-54864231D01*
X120658787Y-54837324D01*
X120646609Y-54817799D01*
X120638697Y-54807958D01*
X120609310Y-54751747D01*
X120591402Y-54690899D01*
X120591396Y-54690838D01*
X120591388Y-54690809D01*
X120585648Y-54627736D01*
X120592269Y-54564746D01*
X120592275Y-54564727D01*
X120592283Y-54564650D01*
X120611039Y-54504057D01*
X120641208Y-54448262D01*
X120645672Y-54442866D01*
X120659995Y-54419504D01*
X120667436Y-54392367D01*
X120667023Y-54364231D01*
X120658787Y-54337324D01*
X120646609Y-54317799D01*
X120638697Y-54307958D01*
X120609310Y-54251747D01*
X120591402Y-54190899D01*
X120591396Y-54190838D01*
X120591388Y-54190809D01*
X120585648Y-54127736D01*
X120592269Y-54064746D01*
X120592275Y-54064727D01*
X120592283Y-54064650D01*
X120611039Y-54004057D01*
X120641208Y-53948262D01*
X120645672Y-53942866D01*
X120659995Y-53919504D01*
X120667436Y-53892367D01*
X120667023Y-53864231D01*
X120658787Y-53837324D01*
X120646609Y-53817799D01*
X120638697Y-53807958D01*
X120609310Y-53751747D01*
X120591402Y-53690899D01*
X120591396Y-53690838D01*
X120591388Y-53690809D01*
X120585648Y-53627736D01*
X120592269Y-53564746D01*
X120592275Y-53564727D01*
X120592283Y-53564650D01*
X120611039Y-53504057D01*
X120641208Y-53448262D01*
X120645672Y-53442866D01*
X120659995Y-53419504D01*
X120667436Y-53392367D01*
X120667023Y-53364231D01*
X120658787Y-53337324D01*
X120646609Y-53317799D01*
X120638697Y-53307958D01*
X120609310Y-53251747D01*
X120591402Y-53190899D01*
X120591396Y-53190838D01*
X120591388Y-53190809D01*
X120585648Y-53127736D01*
X120592269Y-53064746D01*
X120592275Y-53064727D01*
X120592283Y-53064650D01*
X120611039Y-53004057D01*
X120641208Y-52948262D01*
X120645672Y-52942866D01*
X120659995Y-52919504D01*
X120667436Y-52892367D01*
X120667023Y-52864231D01*
X120658787Y-52837324D01*
X120646609Y-52817799D01*
X120638697Y-52807958D01*
X120609310Y-52751747D01*
X120591402Y-52690899D01*
X120591396Y-52690838D01*
X120591388Y-52690809D01*
X120585648Y-52627736D01*
X120592269Y-52564746D01*
X120592275Y-52564727D01*
X120592283Y-52564650D01*
X120611039Y-52504057D01*
X120641208Y-52448262D01*
X120645672Y-52442866D01*
X120659995Y-52419504D01*
X120667436Y-52392367D01*
X120667023Y-52364231D01*
X120658787Y-52337324D01*
X120646609Y-52317799D01*
X120638697Y-52307958D01*
X120609310Y-52251747D01*
X120591402Y-52190899D01*
X120591396Y-52190838D01*
X120591388Y-52190809D01*
X120585648Y-52127736D01*
X120592269Y-52064746D01*
X120592275Y-52064727D01*
X120592283Y-52064650D01*
X120611039Y-52004057D01*
X120641208Y-51948262D01*
X120645672Y-51942866D01*
X120659995Y-51919504D01*
X120667436Y-51892367D01*
X120667023Y-51864231D01*
X120658787Y-51837324D01*
X120646609Y-51817799D01*
X120638697Y-51807958D01*
X120609310Y-51751747D01*
X120591402Y-51690899D01*
X120591396Y-51690838D01*
X120591388Y-51690809D01*
X120585648Y-51627736D01*
X120592269Y-51564746D01*
X120592275Y-51564727D01*
X120592283Y-51564650D01*
X120611039Y-51504057D01*
X120641208Y-51448262D01*
X120645672Y-51442866D01*
X120659995Y-51419504D01*
X120667436Y-51392367D01*
X120667023Y-51364231D01*
X120658787Y-51337324D01*
X120646609Y-51317799D01*
X120638697Y-51307958D01*
X120609310Y-51251747D01*
X120591402Y-51190899D01*
X120591396Y-51190838D01*
X120591388Y-51190809D01*
X120585648Y-51127736D01*
X120592269Y-51064746D01*
X120592275Y-51064727D01*
X120592283Y-51064650D01*
X120611039Y-51004057D01*
X120641208Y-50948262D01*
X120645672Y-50942866D01*
X120659995Y-50919504D01*
X120667436Y-50892367D01*
X120667023Y-50864231D01*
X120658787Y-50837324D01*
X120646609Y-50817799D01*
X120638697Y-50807958D01*
X120609310Y-50751747D01*
X120591402Y-50690899D01*
X120591396Y-50690838D01*
X120591388Y-50690809D01*
X120585648Y-50627736D01*
X120592269Y-50564746D01*
X120592275Y-50564727D01*
X120592283Y-50564650D01*
X120611039Y-50504057D01*
X120641208Y-50448262D01*
X120645672Y-50442866D01*
X120659995Y-50419504D01*
X120667436Y-50392367D01*
X120667023Y-50364231D01*
X120658787Y-50337324D01*
X120646609Y-50317799D01*
X120638697Y-50307958D01*
X120609310Y-50251747D01*
X120591402Y-50190899D01*
X120591396Y-50190838D01*
X120591388Y-50190809D01*
X120585648Y-50127736D01*
X120592269Y-50064746D01*
X120592275Y-50064727D01*
X120592283Y-50064650D01*
X120611039Y-50004057D01*
X120641208Y-49948262D01*
X120645672Y-49942866D01*
X120659995Y-49919504D01*
X120667436Y-49892367D01*
X120667023Y-49864231D01*
X120658787Y-49837324D01*
X120646609Y-49817799D01*
X120638697Y-49807958D01*
X120609310Y-49751747D01*
X120591402Y-49690899D01*
X120591396Y-49690838D01*
X120591388Y-49690809D01*
X120585648Y-49627736D01*
X120592269Y-49564746D01*
X120592275Y-49564727D01*
X120592283Y-49564650D01*
X120611039Y-49504057D01*
X120641208Y-49448262D01*
X120645672Y-49442866D01*
X120659995Y-49419504D01*
X120667436Y-49392367D01*
X120667023Y-49364231D01*
X120658787Y-49337324D01*
X120646609Y-49317799D01*
X120638697Y-49307958D01*
X120609310Y-49251747D01*
X120591402Y-49190899D01*
X120591396Y-49190838D01*
X120591388Y-49190809D01*
X120585648Y-49127736D01*
X120592269Y-49064746D01*
X120592275Y-49064727D01*
X120592283Y-49064650D01*
X120611039Y-49004057D01*
X120641208Y-48948262D01*
X120645672Y-48942866D01*
X120659995Y-48919504D01*
X120667436Y-48892367D01*
X120667023Y-48864231D01*
X120658787Y-48837324D01*
X120646609Y-48817799D01*
X120638697Y-48807958D01*
X120609310Y-48751747D01*
X120591402Y-48690899D01*
X120591396Y-48690838D01*
X120591388Y-48690809D01*
X120585648Y-48627736D01*
X120592269Y-48564746D01*
X120592275Y-48564727D01*
X120592283Y-48564650D01*
X120611039Y-48504057D01*
X120641208Y-48448262D01*
X120645672Y-48442866D01*
X120659995Y-48419504D01*
X120667436Y-48392367D01*
X120667023Y-48364231D01*
X120658787Y-48337324D01*
X120646609Y-48317799D01*
X120638697Y-48307958D01*
X120609310Y-48251747D01*
X120591402Y-48190899D01*
X120591396Y-48190838D01*
X120591388Y-48190809D01*
X120585648Y-48127736D01*
X120592269Y-48064746D01*
X120592275Y-48064727D01*
X120592283Y-48064650D01*
X120611039Y-48004057D01*
X120641208Y-47948262D01*
X120645672Y-47942866D01*
X120659995Y-47919504D01*
X120667436Y-47892367D01*
X120667023Y-47864231D01*
X120658787Y-47837324D01*
X120646609Y-47817799D01*
X120638697Y-47807958D01*
X120609310Y-47751747D01*
X120591402Y-47690899D01*
X120591396Y-47690838D01*
X120591388Y-47690809D01*
X120585648Y-47627736D01*
X120592269Y-47564746D01*
X120592275Y-47564727D01*
X120592283Y-47564650D01*
X120611039Y-47504057D01*
X120641208Y-47448262D01*
X120645672Y-47442866D01*
X120659995Y-47419504D01*
X120667436Y-47392367D01*
X120667023Y-47364231D01*
X120658787Y-47337324D01*
X120646609Y-47317799D01*
X120638697Y-47307958D01*
X120609310Y-47251747D01*
X120591402Y-47190899D01*
X120591396Y-47190838D01*
X120591388Y-47190809D01*
X120585648Y-47127736D01*
X120592269Y-47064746D01*
X120592275Y-47064727D01*
X120592283Y-47064650D01*
X120611039Y-47004057D01*
X120641208Y-46948262D01*
X120681639Y-46899390D01*
X120730793Y-46859301D01*
X120786797Y-46829523D01*
X120847519Y-46811190D01*
X120910645Y-46805000D01*
X122069437Y-46805000D01*
X122069839Y-46805003D01*
X122069839Y-46805003D01*
G37*
G36*
X93995685Y-62450073D02*
X93995692Y-62450074D01*
X93999741Y-62450102D01*
X94203388Y-62472945D01*
X94398720Y-62534908D01*
X94578296Y-62633631D01*
X94735277Y-62765353D01*
X94863684Y-62925059D01*
X94958624Y-63106663D01*
X95016483Y-63303250D01*
X95016489Y-63303320D01*
X95016495Y-63303339D01*
X95035059Y-63507325D01*
X95013649Y-63711034D01*
X95013643Y-63711052D01*
X95013635Y-63711132D01*
X94953037Y-63906891D01*
X94855570Y-64087153D01*
X94724947Y-64245049D01*
X94566142Y-64374567D01*
X94385205Y-64470773D01*
X94189027Y-64530003D01*
X93985081Y-64550000D01*
X93974846Y-64550000D01*
X93964315Y-64549927D01*
X93964308Y-64549926D01*
X93960259Y-64549898D01*
X93756612Y-64527055D01*
X93561280Y-64465092D01*
X93381704Y-64366369D01*
X93224723Y-64234647D01*
X93096316Y-64074941D01*
X93001376Y-63893337D01*
X92943517Y-63696750D01*
X92943511Y-63696680D01*
X92943505Y-63696661D01*
X92924941Y-63492675D01*
X92946351Y-63288966D01*
X92946357Y-63288948D01*
X92946365Y-63288868D01*
X93006963Y-63093109D01*
X93104430Y-62912847D01*
X93235053Y-62754951D01*
X93393858Y-62625433D01*
X93574795Y-62529227D01*
X93770973Y-62469997D01*
X93974919Y-62450000D01*
X93985154Y-62450000D01*
X93995685Y-62450073D01*
X93995685Y-62450073D01*
G37*
G36*
X91455685Y-62450073D02*
X91455692Y-62450074D01*
X91459741Y-62450102D01*
X91663388Y-62472945D01*
X91858720Y-62534908D01*
X92038296Y-62633631D01*
X92195277Y-62765353D01*
X92323684Y-62925059D01*
X92418624Y-63106663D01*
X92476483Y-63303250D01*
X92476489Y-63303320D01*
X92476495Y-63303339D01*
X92495059Y-63507325D01*
X92473649Y-63711034D01*
X92473643Y-63711052D01*
X92473635Y-63711132D01*
X92413037Y-63906891D01*
X92315570Y-64087153D01*
X92184947Y-64245049D01*
X92026142Y-64374567D01*
X91845205Y-64470773D01*
X91649027Y-64530003D01*
X91445081Y-64550000D01*
X91434846Y-64550000D01*
X91424315Y-64549927D01*
X91424308Y-64549926D01*
X91420259Y-64549898D01*
X91216612Y-64527055D01*
X91021280Y-64465092D01*
X90841704Y-64366369D01*
X90684723Y-64234647D01*
X90556316Y-64074941D01*
X90461376Y-63893337D01*
X90403517Y-63696750D01*
X90403511Y-63696680D01*
X90403505Y-63696661D01*
X90384941Y-63492675D01*
X90406351Y-63288966D01*
X90406357Y-63288948D01*
X90406365Y-63288868D01*
X90466963Y-63093109D01*
X90564430Y-62912847D01*
X90695053Y-62754951D01*
X90853858Y-62625433D01*
X91034795Y-62529227D01*
X91230973Y-62469997D01*
X91434919Y-62450000D01*
X91445154Y-62450000D01*
X91455685Y-62450073D01*
X91455685Y-62450073D01*
G37*
G36*
X93995685Y-59910073D02*
X93995692Y-59910074D01*
X93999741Y-59910102D01*
X94203388Y-59932945D01*
X94398720Y-59994908D01*
X94578296Y-60093631D01*
X94735277Y-60225353D01*
X94863684Y-60385059D01*
X94958624Y-60566663D01*
X95016483Y-60763250D01*
X95016489Y-60763320D01*
X95016495Y-60763339D01*
X95035059Y-60967325D01*
X95013649Y-61171034D01*
X95013643Y-61171052D01*
X95013635Y-61171132D01*
X94953037Y-61366891D01*
X94855570Y-61547153D01*
X94724947Y-61705049D01*
X94566142Y-61834567D01*
X94385205Y-61930773D01*
X94189027Y-61990003D01*
X93985081Y-62010000D01*
X93974846Y-62010000D01*
X93964315Y-62009927D01*
X93964308Y-62009926D01*
X93960259Y-62009898D01*
X93756612Y-61987055D01*
X93561280Y-61925092D01*
X93381704Y-61826369D01*
X93224723Y-61694647D01*
X93096316Y-61534941D01*
X93001376Y-61353337D01*
X92943517Y-61156750D01*
X92943511Y-61156680D01*
X92943505Y-61156661D01*
X92924941Y-60952675D01*
X92946351Y-60748966D01*
X92946357Y-60748948D01*
X92946365Y-60748868D01*
X93006963Y-60553109D01*
X93104430Y-60372847D01*
X93235053Y-60214951D01*
X93393858Y-60085433D01*
X93574795Y-59989227D01*
X93770973Y-59929997D01*
X93974919Y-59910000D01*
X93985154Y-59910000D01*
X93995685Y-59910073D01*
X93995685Y-59910073D01*
G37*
G36*
X91455685Y-59910073D02*
X91455692Y-59910074D01*
X91459741Y-59910102D01*
X91663388Y-59932945D01*
X91858720Y-59994908D01*
X92038296Y-60093631D01*
X92195277Y-60225353D01*
X92323684Y-60385059D01*
X92418624Y-60566663D01*
X92476483Y-60763250D01*
X92476489Y-60763320D01*
X92476495Y-60763339D01*
X92495059Y-60967325D01*
X92473649Y-61171034D01*
X92473643Y-61171052D01*
X92473635Y-61171132D01*
X92413037Y-61366891D01*
X92315570Y-61547153D01*
X92184947Y-61705049D01*
X92026142Y-61834567D01*
X91845205Y-61930773D01*
X91649027Y-61990003D01*
X91445081Y-62010000D01*
X91434846Y-62010000D01*
X91424315Y-62009927D01*
X91424308Y-62009926D01*
X91420259Y-62009898D01*
X91216612Y-61987055D01*
X91021280Y-61925092D01*
X90841704Y-61826369D01*
X90684723Y-61694647D01*
X90556316Y-61534941D01*
X90461376Y-61353337D01*
X90403517Y-61156750D01*
X90403511Y-61156680D01*
X90403505Y-61156661D01*
X90384941Y-60952675D01*
X90406351Y-60748966D01*
X90406357Y-60748948D01*
X90406365Y-60748868D01*
X90466963Y-60553109D01*
X90564430Y-60372847D01*
X90695053Y-60214951D01*
X90853858Y-60085433D01*
X91034795Y-59989227D01*
X91230973Y-59929997D01*
X91434919Y-59910000D01*
X91445154Y-59910000D01*
X91455685Y-59910073D01*
X91455685Y-59910073D01*
G37*
G36*
X91455685Y-57370073D02*
X91455692Y-57370074D01*
X91459741Y-57370102D01*
X91663388Y-57392945D01*
X91858720Y-57454908D01*
X92038296Y-57553631D01*
X92195277Y-57685353D01*
X92323684Y-57845059D01*
X92418624Y-58026663D01*
X92476483Y-58223250D01*
X92476489Y-58223320D01*
X92476495Y-58223339D01*
X92495059Y-58427325D01*
X92473649Y-58631034D01*
X92473643Y-58631052D01*
X92473635Y-58631132D01*
X92413037Y-58826891D01*
X92315570Y-59007153D01*
X92184947Y-59165049D01*
X92026142Y-59294567D01*
X91845205Y-59390773D01*
X91649027Y-59450003D01*
X91445081Y-59470000D01*
X91434846Y-59470000D01*
X91424315Y-59469927D01*
X91424308Y-59469926D01*
X91420259Y-59469898D01*
X91216612Y-59447055D01*
X91021280Y-59385092D01*
X90841704Y-59286369D01*
X90684723Y-59154647D01*
X90556316Y-58994941D01*
X90461376Y-58813337D01*
X90403517Y-58616750D01*
X90403511Y-58616680D01*
X90403505Y-58616661D01*
X90384941Y-58412675D01*
X90406351Y-58208966D01*
X90406357Y-58208948D01*
X90406365Y-58208868D01*
X90466963Y-58013109D01*
X90564430Y-57832847D01*
X90695053Y-57674951D01*
X90853858Y-57545433D01*
X91034795Y-57449227D01*
X91230973Y-57389997D01*
X91434919Y-57370000D01*
X91445154Y-57370000D01*
X91455685Y-57370073D01*
X91455685Y-57370073D01*
G37*
G36*
X93995685Y-57370073D02*
X93995692Y-57370074D01*
X93999741Y-57370102D01*
X94203388Y-57392945D01*
X94398720Y-57454908D01*
X94578296Y-57553631D01*
X94735277Y-57685353D01*
X94863684Y-57845059D01*
X94958624Y-58026663D01*
X95016483Y-58223250D01*
X95016489Y-58223320D01*
X95016495Y-58223339D01*
X95035059Y-58427325D01*
X95013649Y-58631034D01*
X95013643Y-58631052D01*
X95013635Y-58631132D01*
X94953037Y-58826891D01*
X94855570Y-59007153D01*
X94724947Y-59165049D01*
X94566142Y-59294567D01*
X94385205Y-59390773D01*
X94189027Y-59450003D01*
X93985081Y-59470000D01*
X93974846Y-59470000D01*
X93964315Y-59469927D01*
X93964308Y-59469926D01*
X93960259Y-59469898D01*
X93756612Y-59447055D01*
X93561280Y-59385092D01*
X93381704Y-59286369D01*
X93224723Y-59154647D01*
X93096316Y-58994941D01*
X93001376Y-58813337D01*
X92943517Y-58616750D01*
X92943511Y-58616680D01*
X92943505Y-58616661D01*
X92924941Y-58412675D01*
X92946351Y-58208966D01*
X92946357Y-58208948D01*
X92946365Y-58208868D01*
X93006963Y-58013109D01*
X93104430Y-57832847D01*
X93235053Y-57674951D01*
X93393858Y-57545433D01*
X93574795Y-57449227D01*
X93770973Y-57389997D01*
X93974919Y-57370000D01*
X93985154Y-57370000D01*
X93995685Y-57370073D01*
X93995685Y-57370073D01*
G37*
G36*
X113690000Y-59080000D02*
X107290000Y-59080000D01*
X107290000Y-52680000D01*
X113690000Y-52680000D01*
X113690000Y-59080000D01*
X113690000Y-59080000D01*
G37*
G36*
X143636041Y-56320796D02*
X143866570Y-56368116D01*
X144083512Y-56459310D01*
X144278615Y-56590908D01*
X144444436Y-56757891D01*
X144574666Y-56953904D01*
X144664347Y-57171486D01*
X144709919Y-57401641D01*
X144709919Y-57401666D01*
X144710051Y-57402334D01*
X144706298Y-57671128D01*
X144706147Y-57671791D01*
X144706147Y-57671815D01*
X144654164Y-57900612D01*
X144558445Y-58115603D01*
X144422794Y-58307900D01*
X144252372Y-58470191D01*
X144053669Y-58596291D01*
X143834270Y-58681391D01*
X143602507Y-58722257D01*
X143367226Y-58717328D01*
X143137385Y-58666795D01*
X142921734Y-58572579D01*
X142728491Y-58438272D01*
X142565015Y-58268987D01*
X142437533Y-58071173D01*
X142350899Y-57852363D01*
X142308418Y-57620900D01*
X142311704Y-57385592D01*
X142360633Y-57155400D01*
X142453341Y-56939094D01*
X142586296Y-56744919D01*
X142754433Y-56580268D01*
X142951354Y-56451406D01*
X143169547Y-56363250D01*
X143400714Y-56319152D01*
X143636041Y-56320796D01*
X143636041Y-56320796D01*
G37*
G36*
X148586041Y-55720796D02*
X148816570Y-55768116D01*
X149033512Y-55859310D01*
X149228615Y-55990908D01*
X149394436Y-56157891D01*
X149524666Y-56353904D01*
X149614347Y-56571486D01*
X149659919Y-56801641D01*
X149659919Y-56801666D01*
X149660051Y-56802334D01*
X149656298Y-57071128D01*
X149656147Y-57071791D01*
X149656147Y-57071815D01*
X149604164Y-57300612D01*
X149508445Y-57515603D01*
X149372794Y-57707900D01*
X149202372Y-57870191D01*
X149003669Y-57996291D01*
X148784270Y-58081391D01*
X148552507Y-58122257D01*
X148317226Y-58117328D01*
X148087385Y-58066795D01*
X147871734Y-57972579D01*
X147678491Y-57838272D01*
X147515015Y-57668987D01*
X147387533Y-57471173D01*
X147300899Y-57252363D01*
X147258418Y-57020900D01*
X147261704Y-56785592D01*
X147310633Y-56555400D01*
X147403341Y-56339094D01*
X147536296Y-56144919D01*
X147704433Y-55980268D01*
X147901354Y-55851406D01*
X148119547Y-55763250D01*
X148350714Y-55719152D01*
X148586041Y-55720796D01*
X148586041Y-55720796D01*
G37*
G36*
X91455685Y-54830073D02*
X91455692Y-54830074D01*
X91459741Y-54830102D01*
X91663388Y-54852945D01*
X91858720Y-54914908D01*
X92038296Y-55013631D01*
X92195277Y-55145353D01*
X92323684Y-55305059D01*
X92418624Y-55486663D01*
X92476483Y-55683250D01*
X92476489Y-55683320D01*
X92476495Y-55683339D01*
X92495059Y-55887325D01*
X92473649Y-56091034D01*
X92473643Y-56091052D01*
X92473635Y-56091132D01*
X92413037Y-56286891D01*
X92315570Y-56467153D01*
X92184947Y-56625049D01*
X92026142Y-56754567D01*
X91845205Y-56850773D01*
X91649027Y-56910003D01*
X91445081Y-56930000D01*
X91434846Y-56930000D01*
X91424315Y-56929927D01*
X91424308Y-56929926D01*
X91420259Y-56929898D01*
X91216612Y-56907055D01*
X91021280Y-56845092D01*
X90841704Y-56746369D01*
X90684723Y-56614647D01*
X90556316Y-56454941D01*
X90461376Y-56273337D01*
X90403517Y-56076750D01*
X90403511Y-56076680D01*
X90403505Y-56076661D01*
X90384941Y-55872675D01*
X90406351Y-55668966D01*
X90406357Y-55668948D01*
X90406365Y-55668868D01*
X90466963Y-55473109D01*
X90564430Y-55292847D01*
X90695053Y-55134951D01*
X90853858Y-55005433D01*
X91034795Y-54909227D01*
X91230973Y-54849997D01*
X91434919Y-54830000D01*
X91445154Y-54830000D01*
X91455685Y-54830073D01*
X91455685Y-54830073D01*
G37*
G36*
X93995685Y-54830073D02*
X93995692Y-54830074D01*
X93999741Y-54830102D01*
X94203388Y-54852945D01*
X94398720Y-54914908D01*
X94578296Y-55013631D01*
X94735277Y-55145353D01*
X94863684Y-55305059D01*
X94958624Y-55486663D01*
X95016483Y-55683250D01*
X95016489Y-55683320D01*
X95016495Y-55683339D01*
X95035059Y-55887325D01*
X95013649Y-56091034D01*
X95013643Y-56091052D01*
X95013635Y-56091132D01*
X94953037Y-56286891D01*
X94855570Y-56467153D01*
X94724947Y-56625049D01*
X94566142Y-56754567D01*
X94385205Y-56850773D01*
X94189027Y-56910003D01*
X93985081Y-56930000D01*
X93974846Y-56930000D01*
X93964315Y-56929927D01*
X93964308Y-56929926D01*
X93960259Y-56929898D01*
X93756612Y-56907055D01*
X93561280Y-56845092D01*
X93381704Y-56746369D01*
X93224723Y-56614647D01*
X93096316Y-56454941D01*
X93001376Y-56273337D01*
X92943517Y-56076750D01*
X92943511Y-56076680D01*
X92943505Y-56076661D01*
X92924941Y-55872675D01*
X92946351Y-55668966D01*
X92946357Y-55668948D01*
X92946365Y-55668868D01*
X93006963Y-55473109D01*
X93104430Y-55292847D01*
X93235053Y-55134951D01*
X93393858Y-55005433D01*
X93574795Y-54909227D01*
X93770973Y-54849997D01*
X93974919Y-54830000D01*
X93985154Y-54830000D01*
X93995685Y-54830073D01*
X93995685Y-54830073D01*
G37*
G36*
X135520000Y-56595000D02*
X127370000Y-56595000D01*
X127370000Y-55195000D01*
X135520000Y-55195000D01*
X135520000Y-56595000D01*
X135520000Y-56595000D01*
G37*
G36*
X91455685Y-52290073D02*
X91455692Y-52290074D01*
X91459741Y-52290102D01*
X91663388Y-52312945D01*
X91858720Y-52374908D01*
X92038296Y-52473631D01*
X92195277Y-52605353D01*
X92323684Y-52765059D01*
X92418624Y-52946663D01*
X92476483Y-53143250D01*
X92476489Y-53143320D01*
X92476495Y-53143339D01*
X92495059Y-53347325D01*
X92473649Y-53551034D01*
X92473643Y-53551052D01*
X92473635Y-53551132D01*
X92413037Y-53746891D01*
X92315570Y-53927153D01*
X92184947Y-54085049D01*
X92026142Y-54214567D01*
X91845205Y-54310773D01*
X91649027Y-54370003D01*
X91445081Y-54390000D01*
X91434846Y-54390000D01*
X91424315Y-54389927D01*
X91424308Y-54389926D01*
X91420259Y-54389898D01*
X91216612Y-54367055D01*
X91021280Y-54305092D01*
X90841704Y-54206369D01*
X90684723Y-54074647D01*
X90556316Y-53914941D01*
X90461376Y-53733337D01*
X90403517Y-53536750D01*
X90403511Y-53536680D01*
X90403505Y-53536661D01*
X90384941Y-53332675D01*
X90406351Y-53128966D01*
X90406357Y-53128948D01*
X90406365Y-53128868D01*
X90466963Y-52933109D01*
X90564430Y-52752847D01*
X90695053Y-52594951D01*
X90853858Y-52465433D01*
X91034795Y-52369227D01*
X91230973Y-52309997D01*
X91434919Y-52290000D01*
X91445154Y-52290000D01*
X91455685Y-52290073D01*
X91455685Y-52290073D01*
G37*
G36*
X93995685Y-52290073D02*
X93995692Y-52290074D01*
X93999741Y-52290102D01*
X94203388Y-52312945D01*
X94398720Y-52374908D01*
X94578296Y-52473631D01*
X94735277Y-52605353D01*
X94863684Y-52765059D01*
X94958624Y-52946663D01*
X95016483Y-53143250D01*
X95016489Y-53143320D01*
X95016495Y-53143339D01*
X95035059Y-53347325D01*
X95013649Y-53551034D01*
X95013643Y-53551052D01*
X95013635Y-53551132D01*
X94953037Y-53746891D01*
X94855570Y-53927153D01*
X94724947Y-54085049D01*
X94566142Y-54214567D01*
X94385205Y-54310773D01*
X94189027Y-54370003D01*
X93985081Y-54390000D01*
X93974846Y-54390000D01*
X93964315Y-54389927D01*
X93964308Y-54389926D01*
X93960259Y-54389898D01*
X93756612Y-54367055D01*
X93561280Y-54305092D01*
X93381704Y-54206369D01*
X93224723Y-54074647D01*
X93096316Y-53914941D01*
X93001376Y-53733337D01*
X92943517Y-53536750D01*
X92943511Y-53536680D01*
X92943505Y-53536661D01*
X92924941Y-53332675D01*
X92946351Y-53128966D01*
X92946357Y-53128948D01*
X92946365Y-53128868D01*
X93006963Y-52933109D01*
X93104430Y-52752847D01*
X93235053Y-52594951D01*
X93393858Y-52465433D01*
X93574795Y-52369227D01*
X93770973Y-52309997D01*
X93974919Y-52290000D01*
X93985154Y-52290000D01*
X93995685Y-52290073D01*
X93995685Y-52290073D01*
G37*
G36*
X139280000Y-53100000D02*
X137580000Y-53100000D01*
X137580000Y-51200000D01*
X139280000Y-51200000D01*
X139280000Y-53100000D01*
X139280000Y-53100000D01*
G37*
G36*
X141820000Y-53100000D02*
X140120000Y-53100000D01*
X140120000Y-51200000D01*
X141820000Y-51200000D01*
X141820000Y-53100000D01*
X141820000Y-53100000D01*
G37*
G36*
X91455685Y-49750073D02*
X91455692Y-49750074D01*
X91459741Y-49750102D01*
X91663388Y-49772945D01*
X91858720Y-49834908D01*
X92038296Y-49933631D01*
X92195277Y-50065353D01*
X92323684Y-50225059D01*
X92418624Y-50406663D01*
X92476483Y-50603250D01*
X92476489Y-50603320D01*
X92476495Y-50603339D01*
X92495059Y-50807325D01*
X92473649Y-51011034D01*
X92473643Y-51011052D01*
X92473635Y-51011132D01*
X92413037Y-51206891D01*
X92315570Y-51387153D01*
X92184947Y-51545049D01*
X92026142Y-51674567D01*
X91845205Y-51770773D01*
X91649027Y-51830003D01*
X91445081Y-51850000D01*
X91434846Y-51850000D01*
X91424315Y-51849927D01*
X91424308Y-51849926D01*
X91420259Y-51849898D01*
X91216612Y-51827055D01*
X91021280Y-51765092D01*
X90841704Y-51666369D01*
X90684723Y-51534647D01*
X90556316Y-51374941D01*
X90461376Y-51193337D01*
X90403517Y-50996750D01*
X90403511Y-50996680D01*
X90403505Y-50996661D01*
X90384941Y-50792675D01*
X90406351Y-50588966D01*
X90406357Y-50588948D01*
X90406365Y-50588868D01*
X90466963Y-50393109D01*
X90564430Y-50212847D01*
X90695053Y-50054951D01*
X90853858Y-49925433D01*
X91034795Y-49829227D01*
X91230973Y-49769997D01*
X91434919Y-49750000D01*
X91445154Y-49750000D01*
X91455685Y-49750073D01*
X91455685Y-49750073D01*
G37*
G36*
X93995685Y-49750073D02*
X93995692Y-49750074D01*
X93999741Y-49750102D01*
X94203388Y-49772945D01*
X94398720Y-49834908D01*
X94578296Y-49933631D01*
X94735277Y-50065353D01*
X94863684Y-50225059D01*
X94958624Y-50406663D01*
X95016483Y-50603250D01*
X95016489Y-50603320D01*
X95016495Y-50603339D01*
X95035059Y-50807325D01*
X95013649Y-51011034D01*
X95013643Y-51011052D01*
X95013635Y-51011132D01*
X94953037Y-51206891D01*
X94855570Y-51387153D01*
X94724947Y-51545049D01*
X94566142Y-51674567D01*
X94385205Y-51770773D01*
X94189027Y-51830003D01*
X93985081Y-51850000D01*
X93974846Y-51850000D01*
X93964315Y-51849927D01*
X93964308Y-51849926D01*
X93960259Y-51849898D01*
X93756612Y-51827055D01*
X93561280Y-51765092D01*
X93381704Y-51666369D01*
X93224723Y-51534647D01*
X93096316Y-51374941D01*
X93001376Y-51193337D01*
X92943517Y-50996750D01*
X92943511Y-50996680D01*
X92943505Y-50996661D01*
X92924941Y-50792675D01*
X92946351Y-50588966D01*
X92946357Y-50588948D01*
X92946365Y-50588868D01*
X93006963Y-50393109D01*
X93104430Y-50212847D01*
X93235053Y-50054951D01*
X93393858Y-49925433D01*
X93574795Y-49829227D01*
X93770973Y-49769997D01*
X93974919Y-49750000D01*
X93985154Y-49750000D01*
X93995685Y-49750073D01*
X93995685Y-49750073D01*
G37*
G36*
X145014437Y-46029483D02*
X145443218Y-46117498D01*
X145846732Y-46287120D01*
X146209619Y-46531891D01*
X146518049Y-46842481D01*
X146760277Y-47207065D01*
X146927080Y-47611758D01*
X147011963Y-48040452D01*
X147011963Y-48040468D01*
X147012096Y-48041141D01*
X147005115Y-48541097D01*
X147004964Y-48541760D01*
X147004964Y-48541784D01*
X146908144Y-48967936D01*
X146730105Y-49367820D01*
X146477793Y-49725493D01*
X146160810Y-50027353D01*
X145791226Y-50261897D01*
X145383139Y-50420184D01*
X144952064Y-50496195D01*
X144514442Y-50487027D01*
X144086935Y-50393035D01*
X143685826Y-50217794D01*
X143326395Y-49967983D01*
X143022330Y-49653114D01*
X142785214Y-49285181D01*
X142624077Y-48878198D01*
X142545061Y-48447673D01*
X142551173Y-48010000D01*
X142642180Y-47581844D01*
X142814617Y-47179518D01*
X143061913Y-46818352D01*
X143374650Y-46512097D01*
X143740916Y-46272419D01*
X144146761Y-46108447D01*
X144576728Y-46026426D01*
X145014437Y-46029483D01*
X145014437Y-46029483D01*
G37*
G36*
X141820000Y-50400000D02*
X140120000Y-50400000D01*
X140120000Y-48500000D01*
X141820000Y-48500000D01*
X141820000Y-50400000D01*
X141820000Y-50400000D01*
G37*
G36*
X139280000Y-50400000D02*
X137580000Y-50400000D01*
X137580000Y-48500000D01*
X139280000Y-48500000D01*
X139280000Y-50400000D01*
X139280000Y-50400000D01*
G37*
G36*
X91455685Y-47210073D02*
X91455692Y-47210074D01*
X91459741Y-47210102D01*
X91663388Y-47232945D01*
X91858720Y-47294908D01*
X92038296Y-47393631D01*
X92195277Y-47525353D01*
X92323684Y-47685059D01*
X92418624Y-47866663D01*
X92476483Y-48063250D01*
X92476489Y-48063320D01*
X92476495Y-48063339D01*
X92495059Y-48267325D01*
X92473649Y-48471034D01*
X92473643Y-48471052D01*
X92473635Y-48471132D01*
X92413037Y-48666891D01*
X92315570Y-48847153D01*
X92184947Y-49005049D01*
X92026142Y-49134567D01*
X91845205Y-49230773D01*
X91649027Y-49290003D01*
X91445081Y-49310000D01*
X91434846Y-49310000D01*
X91424315Y-49309927D01*
X91424308Y-49309926D01*
X91420259Y-49309898D01*
X91216612Y-49287055D01*
X91021280Y-49225092D01*
X90841704Y-49126369D01*
X90684723Y-48994647D01*
X90556316Y-48834941D01*
X90461376Y-48653337D01*
X90403517Y-48456750D01*
X90403511Y-48456680D01*
X90403505Y-48456661D01*
X90384941Y-48252675D01*
X90406351Y-48048966D01*
X90406357Y-48048948D01*
X90406365Y-48048868D01*
X90466963Y-47853109D01*
X90564430Y-47672847D01*
X90695053Y-47514951D01*
X90853858Y-47385433D01*
X91034795Y-47289227D01*
X91230973Y-47229997D01*
X91434919Y-47210000D01*
X91445154Y-47210000D01*
X91455685Y-47210073D01*
X91455685Y-47210073D01*
G37*
G36*
X93995685Y-47210073D02*
X93995692Y-47210074D01*
X93999741Y-47210102D01*
X94203388Y-47232945D01*
X94398720Y-47294908D01*
X94578296Y-47393631D01*
X94735277Y-47525353D01*
X94863684Y-47685059D01*
X94958624Y-47866663D01*
X95016483Y-48063250D01*
X95016489Y-48063320D01*
X95016495Y-48063339D01*
X95035059Y-48267325D01*
X95013649Y-48471034D01*
X95013643Y-48471052D01*
X95013635Y-48471132D01*
X94953037Y-48666891D01*
X94855570Y-48847153D01*
X94724947Y-49005049D01*
X94566142Y-49134567D01*
X94385205Y-49230773D01*
X94189027Y-49290003D01*
X93985081Y-49310000D01*
X93974846Y-49310000D01*
X93964315Y-49309927D01*
X93964308Y-49309926D01*
X93960259Y-49309898D01*
X93756612Y-49287055D01*
X93561280Y-49225092D01*
X93381704Y-49126369D01*
X93224723Y-48994647D01*
X93096316Y-48834941D01*
X93001376Y-48653337D01*
X92943517Y-48456750D01*
X92943511Y-48456680D01*
X92943505Y-48456661D01*
X92924941Y-48252675D01*
X92946351Y-48048966D01*
X92946357Y-48048948D01*
X92946365Y-48048868D01*
X93006963Y-47853109D01*
X93104430Y-47672847D01*
X93235053Y-47514951D01*
X93393858Y-47385433D01*
X93574795Y-47289227D01*
X93770973Y-47229997D01*
X93974919Y-47210000D01*
X93985154Y-47210000D01*
X93995685Y-47210073D01*
X93995685Y-47210073D01*
G37*
G36*
X134200000Y-49290000D02*
X132500000Y-49290000D01*
X132500000Y-47390000D01*
X134200000Y-47390000D01*
X134200000Y-49290000D01*
X134200000Y-49290000D01*
G37*
G36*
X136740000Y-49290000D02*
X135040000Y-49290000D01*
X135040000Y-47390000D01*
X136740000Y-47390000D01*
X136740000Y-49290000D01*
X136740000Y-49290000D01*
G37*
G36*
X129600000Y-48328000D02*
X127250000Y-48328000D01*
X127250000Y-46428000D01*
X129600000Y-46428000D01*
X129600000Y-48328000D01*
X129600000Y-48328000D01*
G37*
G36*
X126750000Y-48328000D02*
X124400000Y-48328000D01*
X124400000Y-46428000D01*
X126750000Y-46428000D01*
X126750000Y-48328000D01*
X126750000Y-48328000D01*
G37*
G36*
X91455685Y-44670073D02*
X91455692Y-44670074D01*
X91459741Y-44670102D01*
X91663388Y-44692945D01*
X91858720Y-44754908D01*
X92038296Y-44853631D01*
X92195277Y-44985353D01*
X92323684Y-45145059D01*
X92418624Y-45326663D01*
X92476483Y-45523250D01*
X92476489Y-45523320D01*
X92476495Y-45523339D01*
X92495059Y-45727325D01*
X92473649Y-45931034D01*
X92473643Y-45931052D01*
X92473635Y-45931132D01*
X92413037Y-46126891D01*
X92315570Y-46307153D01*
X92184947Y-46465049D01*
X92026142Y-46594567D01*
X91845205Y-46690773D01*
X91649027Y-46750003D01*
X91445081Y-46770000D01*
X91434846Y-46770000D01*
X91424315Y-46769927D01*
X91424308Y-46769926D01*
X91420259Y-46769898D01*
X91216612Y-46747055D01*
X91021280Y-46685092D01*
X90841704Y-46586369D01*
X90684723Y-46454647D01*
X90556316Y-46294941D01*
X90461376Y-46113337D01*
X90403517Y-45916750D01*
X90403511Y-45916680D01*
X90403505Y-45916661D01*
X90384941Y-45712675D01*
X90406351Y-45508966D01*
X90406357Y-45508948D01*
X90406365Y-45508868D01*
X90466963Y-45313109D01*
X90564430Y-45132847D01*
X90695053Y-44974951D01*
X90853858Y-44845433D01*
X91034795Y-44749227D01*
X91230973Y-44689997D01*
X91434919Y-44670000D01*
X91445154Y-44670000D01*
X91455685Y-44670073D01*
X91455685Y-44670073D01*
G37*
G36*
X93995685Y-44670073D02*
X93995692Y-44670074D01*
X93999741Y-44670102D01*
X94203388Y-44692945D01*
X94398720Y-44754908D01*
X94578296Y-44853631D01*
X94735277Y-44985353D01*
X94863684Y-45145059D01*
X94958624Y-45326663D01*
X95016483Y-45523250D01*
X95016489Y-45523320D01*
X95016495Y-45523339D01*
X95035059Y-45727325D01*
X95013649Y-45931034D01*
X95013643Y-45931052D01*
X95013635Y-45931132D01*
X94953037Y-46126891D01*
X94855570Y-46307153D01*
X94724947Y-46465049D01*
X94566142Y-46594567D01*
X94385205Y-46690773D01*
X94189027Y-46750003D01*
X93985081Y-46770000D01*
X93974846Y-46770000D01*
X93964315Y-46769927D01*
X93964308Y-46769926D01*
X93960259Y-46769898D01*
X93756612Y-46747055D01*
X93561280Y-46685092D01*
X93381704Y-46586369D01*
X93224723Y-46454647D01*
X93096316Y-46294941D01*
X93001376Y-46113337D01*
X92943517Y-45916750D01*
X92943511Y-45916680D01*
X92943505Y-45916661D01*
X92924941Y-45712675D01*
X92946351Y-45508966D01*
X92946357Y-45508948D01*
X92946365Y-45508868D01*
X93006963Y-45313109D01*
X93104430Y-45132847D01*
X93235053Y-44974951D01*
X93393858Y-44845433D01*
X93574795Y-44749227D01*
X93770973Y-44689997D01*
X93974919Y-44670000D01*
X93985154Y-44670000D01*
X93995685Y-44670073D01*
X93995685Y-44670073D01*
G37*
G36*
X134200000Y-46590000D02*
X132500000Y-46590000D01*
X132500000Y-44690000D01*
X134200000Y-44690000D01*
X134200000Y-46590000D01*
X134200000Y-46590000D01*
G37*
G36*
X136740000Y-46590000D02*
X135040000Y-46590000D01*
X135040000Y-44690000D01*
X136740000Y-44690000D01*
X136740000Y-46590000D01*
X136740000Y-46590000D01*
G37*
G36*
X129600000Y-46028000D02*
X127250000Y-46028000D01*
X127250000Y-44128000D01*
X129600000Y-44128000D01*
X129600000Y-46028000D01*
X129600000Y-46028000D01*
G37*
G36*
X126750000Y-46028000D02*
X124400000Y-46028000D01*
X124400000Y-44128000D01*
X126750000Y-44128000D01*
X126750000Y-46028000D01*
X126750000Y-46028000D01*
G37*
G36*
X119305254Y-43982269D02*
X119305273Y-43982275D01*
X119305350Y-43982283D01*
X119365943Y-44001039D01*
X119421738Y-44031208D01*
X119470610Y-44071639D01*
X119510699Y-44120793D01*
X119540477Y-44176797D01*
X119558810Y-44237519D01*
X119565000Y-44300645D01*
X119565000Y-45459437D01*
X119564997Y-45459839D01*
X119564968Y-45463893D01*
X119557898Y-45526926D01*
X119538719Y-45587386D01*
X119508162Y-45642969D01*
X119467391Y-45691559D01*
X119417958Y-45731303D01*
X119361747Y-45760690D01*
X119300899Y-45778598D01*
X119300838Y-45778604D01*
X119300809Y-45778612D01*
X119237736Y-45784352D01*
X119174746Y-45777731D01*
X119174727Y-45777725D01*
X119174650Y-45777717D01*
X119114057Y-45758961D01*
X119058262Y-45728792D01*
X119052866Y-45724328D01*
X119029504Y-45710005D01*
X119002367Y-45702564D01*
X118974231Y-45702977D01*
X118947324Y-45711213D01*
X118927799Y-45723391D01*
X118917958Y-45731303D01*
X118861747Y-45760690D01*
X118800899Y-45778598D01*
X118800838Y-45778604D01*
X118800809Y-45778612D01*
X118737736Y-45784352D01*
X118674746Y-45777731D01*
X118674727Y-45777725D01*
X118674650Y-45777717D01*
X118614057Y-45758961D01*
X118558262Y-45728792D01*
X118552866Y-45724328D01*
X118529504Y-45710005D01*
X118502367Y-45702564D01*
X118474231Y-45702977D01*
X118447324Y-45711213D01*
X118427799Y-45723391D01*
X118417958Y-45731303D01*
X118361747Y-45760690D01*
X118300899Y-45778598D01*
X118300838Y-45778604D01*
X118300809Y-45778612D01*
X118237736Y-45784352D01*
X118174746Y-45777731D01*
X118174727Y-45777725D01*
X118174650Y-45777717D01*
X118114057Y-45758961D01*
X118058262Y-45728792D01*
X118052866Y-45724328D01*
X118029504Y-45710005D01*
X118002367Y-45702564D01*
X117974231Y-45702977D01*
X117947324Y-45711213D01*
X117927799Y-45723391D01*
X117917958Y-45731303D01*
X117861747Y-45760690D01*
X117800899Y-45778598D01*
X117800838Y-45778604D01*
X117800809Y-45778612D01*
X117737736Y-45784352D01*
X117674746Y-45777731D01*
X117674727Y-45777725D01*
X117674650Y-45777717D01*
X117614057Y-45758961D01*
X117558262Y-45728792D01*
X117552866Y-45724328D01*
X117529504Y-45710005D01*
X117502367Y-45702564D01*
X117474231Y-45702977D01*
X117447324Y-45711213D01*
X117427799Y-45723391D01*
X117417958Y-45731303D01*
X117361747Y-45760690D01*
X117300899Y-45778598D01*
X117300838Y-45778604D01*
X117300809Y-45778612D01*
X117237736Y-45784352D01*
X117174746Y-45777731D01*
X117174727Y-45777725D01*
X117174650Y-45777717D01*
X117114057Y-45758961D01*
X117058262Y-45728792D01*
X117052866Y-45724328D01*
X117029504Y-45710005D01*
X117002367Y-45702564D01*
X116974231Y-45702977D01*
X116947324Y-45711213D01*
X116927799Y-45723391D01*
X116917958Y-45731303D01*
X116861747Y-45760690D01*
X116800899Y-45778598D01*
X116800838Y-45778604D01*
X116800809Y-45778612D01*
X116737736Y-45784352D01*
X116674746Y-45777731D01*
X116674727Y-45777725D01*
X116674650Y-45777717D01*
X116614057Y-45758961D01*
X116558262Y-45728792D01*
X116552866Y-45724328D01*
X116529504Y-45710005D01*
X116502367Y-45702564D01*
X116474231Y-45702977D01*
X116447324Y-45711213D01*
X116427799Y-45723391D01*
X116417958Y-45731303D01*
X116361747Y-45760690D01*
X116300899Y-45778598D01*
X116300838Y-45778604D01*
X116300809Y-45778612D01*
X116237736Y-45784352D01*
X116174746Y-45777731D01*
X116174727Y-45777725D01*
X116174650Y-45777717D01*
X116114057Y-45758961D01*
X116058262Y-45728792D01*
X116052866Y-45724328D01*
X116029504Y-45710005D01*
X116002367Y-45702564D01*
X115974231Y-45702977D01*
X115947324Y-45711213D01*
X115927799Y-45723391D01*
X115917958Y-45731303D01*
X115861747Y-45760690D01*
X115800899Y-45778598D01*
X115800838Y-45778604D01*
X115800809Y-45778612D01*
X115737736Y-45784352D01*
X115674746Y-45777731D01*
X115674727Y-45777725D01*
X115674650Y-45777717D01*
X115614057Y-45758961D01*
X115558262Y-45728792D01*
X115552866Y-45724328D01*
X115529504Y-45710005D01*
X115502367Y-45702564D01*
X115474231Y-45702977D01*
X115447324Y-45711213D01*
X115427799Y-45723391D01*
X115417958Y-45731303D01*
X115361747Y-45760690D01*
X115300899Y-45778598D01*
X115300838Y-45778604D01*
X115300809Y-45778612D01*
X115237736Y-45784352D01*
X115174746Y-45777731D01*
X115174727Y-45777725D01*
X115174650Y-45777717D01*
X115114057Y-45758961D01*
X115058262Y-45728792D01*
X115052866Y-45724328D01*
X115029504Y-45710005D01*
X115002367Y-45702564D01*
X114974231Y-45702977D01*
X114947324Y-45711213D01*
X114927799Y-45723391D01*
X114917958Y-45731303D01*
X114861747Y-45760690D01*
X114800899Y-45778598D01*
X114800838Y-45778604D01*
X114800809Y-45778612D01*
X114737736Y-45784352D01*
X114674746Y-45777731D01*
X114674727Y-45777725D01*
X114674650Y-45777717D01*
X114614057Y-45758961D01*
X114558262Y-45728792D01*
X114552866Y-45724328D01*
X114529504Y-45710005D01*
X114502367Y-45702564D01*
X114474231Y-45702977D01*
X114447324Y-45711213D01*
X114427799Y-45723391D01*
X114417958Y-45731303D01*
X114361747Y-45760690D01*
X114300899Y-45778598D01*
X114300838Y-45778604D01*
X114300809Y-45778612D01*
X114237736Y-45784352D01*
X114174746Y-45777731D01*
X114174727Y-45777725D01*
X114174650Y-45777717D01*
X114114057Y-45758961D01*
X114058262Y-45728792D01*
X114052866Y-45724328D01*
X114029504Y-45710005D01*
X114002367Y-45702564D01*
X113974231Y-45702977D01*
X113947324Y-45711213D01*
X113927799Y-45723391D01*
X113917958Y-45731303D01*
X113861747Y-45760690D01*
X113800899Y-45778598D01*
X113800838Y-45778604D01*
X113800809Y-45778612D01*
X113737736Y-45784352D01*
X113674746Y-45777731D01*
X113674727Y-45777725D01*
X113674650Y-45777717D01*
X113614057Y-45758961D01*
X113558262Y-45728792D01*
X113552866Y-45724328D01*
X113529504Y-45710005D01*
X113502367Y-45702564D01*
X113474231Y-45702977D01*
X113447324Y-45711213D01*
X113427799Y-45723391D01*
X113417958Y-45731303D01*
X113361747Y-45760690D01*
X113300899Y-45778598D01*
X113300838Y-45778604D01*
X113300809Y-45778612D01*
X113237736Y-45784352D01*
X113174746Y-45777731D01*
X113174727Y-45777725D01*
X113174650Y-45777717D01*
X113114057Y-45758961D01*
X113058262Y-45728792D01*
X113052866Y-45724328D01*
X113029504Y-45710005D01*
X113002367Y-45702564D01*
X112974231Y-45702977D01*
X112947324Y-45711213D01*
X112927799Y-45723391D01*
X112917958Y-45731303D01*
X112861747Y-45760690D01*
X112800899Y-45778598D01*
X112800838Y-45778604D01*
X112800809Y-45778612D01*
X112737736Y-45784352D01*
X112674746Y-45777731D01*
X112674727Y-45777725D01*
X112674650Y-45777717D01*
X112614057Y-45758961D01*
X112558262Y-45728792D01*
X112552866Y-45724328D01*
X112529504Y-45710005D01*
X112502367Y-45702564D01*
X112474231Y-45702977D01*
X112447324Y-45711213D01*
X112427799Y-45723391D01*
X112417958Y-45731303D01*
X112361747Y-45760690D01*
X112300899Y-45778598D01*
X112300838Y-45778604D01*
X112300809Y-45778612D01*
X112237736Y-45784352D01*
X112174746Y-45777731D01*
X112174727Y-45777725D01*
X112174650Y-45777717D01*
X112114057Y-45758961D01*
X112058262Y-45728792D01*
X112052866Y-45724328D01*
X112029504Y-45710005D01*
X112002367Y-45702564D01*
X111974231Y-45702977D01*
X111947324Y-45711213D01*
X111927799Y-45723391D01*
X111917958Y-45731303D01*
X111861747Y-45760690D01*
X111800899Y-45778598D01*
X111800838Y-45778604D01*
X111800809Y-45778612D01*
X111737736Y-45784352D01*
X111674746Y-45777731D01*
X111674727Y-45777725D01*
X111674650Y-45777717D01*
X111614057Y-45758961D01*
X111558262Y-45728792D01*
X111552866Y-45724328D01*
X111529504Y-45710005D01*
X111502367Y-45702564D01*
X111474231Y-45702977D01*
X111447324Y-45711213D01*
X111427799Y-45723391D01*
X111417958Y-45731303D01*
X111361747Y-45760690D01*
X111300899Y-45778598D01*
X111300838Y-45778604D01*
X111300809Y-45778612D01*
X111237736Y-45784352D01*
X111174746Y-45777731D01*
X111174727Y-45777725D01*
X111174650Y-45777717D01*
X111114057Y-45758961D01*
X111058262Y-45728792D01*
X111052866Y-45724328D01*
X111029504Y-45710005D01*
X111002367Y-45702564D01*
X110974231Y-45702977D01*
X110947324Y-45711213D01*
X110927799Y-45723391D01*
X110917958Y-45731303D01*
X110861747Y-45760690D01*
X110800899Y-45778598D01*
X110800838Y-45778604D01*
X110800809Y-45778612D01*
X110737736Y-45784352D01*
X110674746Y-45777731D01*
X110674727Y-45777725D01*
X110674650Y-45777717D01*
X110614057Y-45758961D01*
X110558262Y-45728792D01*
X110552866Y-45724328D01*
X110529504Y-45710005D01*
X110502367Y-45702564D01*
X110474231Y-45702977D01*
X110447324Y-45711213D01*
X110427799Y-45723391D01*
X110417958Y-45731303D01*
X110361747Y-45760690D01*
X110300899Y-45778598D01*
X110300838Y-45778604D01*
X110300809Y-45778612D01*
X110237736Y-45784352D01*
X110174746Y-45777731D01*
X110174727Y-45777725D01*
X110174650Y-45777717D01*
X110114057Y-45758961D01*
X110058262Y-45728792D01*
X110052866Y-45724328D01*
X110029504Y-45710005D01*
X110002367Y-45702564D01*
X109974231Y-45702977D01*
X109947324Y-45711213D01*
X109927799Y-45723391D01*
X109917958Y-45731303D01*
X109861747Y-45760690D01*
X109800899Y-45778598D01*
X109800838Y-45778604D01*
X109800809Y-45778612D01*
X109737736Y-45784352D01*
X109674746Y-45777731D01*
X109674727Y-45777725D01*
X109674650Y-45777717D01*
X109614057Y-45758961D01*
X109558262Y-45728792D01*
X109552866Y-45724328D01*
X109529504Y-45710005D01*
X109502367Y-45702564D01*
X109474231Y-45702977D01*
X109447324Y-45711213D01*
X109427799Y-45723391D01*
X109417958Y-45731303D01*
X109361747Y-45760690D01*
X109300899Y-45778598D01*
X109300838Y-45778604D01*
X109300809Y-45778612D01*
X109237736Y-45784352D01*
X109174746Y-45777731D01*
X109174727Y-45777725D01*
X109174650Y-45777717D01*
X109114057Y-45758961D01*
X109058262Y-45728792D01*
X109052866Y-45724328D01*
X109029504Y-45710005D01*
X109002367Y-45702564D01*
X108974231Y-45702977D01*
X108947324Y-45711213D01*
X108927799Y-45723391D01*
X108917958Y-45731303D01*
X108861747Y-45760690D01*
X108800899Y-45778598D01*
X108800838Y-45778604D01*
X108800809Y-45778612D01*
X108737736Y-45784352D01*
X108674746Y-45777731D01*
X108674727Y-45777725D01*
X108674650Y-45777717D01*
X108614057Y-45758961D01*
X108558262Y-45728792D01*
X108552866Y-45724328D01*
X108529504Y-45710005D01*
X108502367Y-45702564D01*
X108474231Y-45702977D01*
X108447324Y-45711213D01*
X108427799Y-45723391D01*
X108417958Y-45731303D01*
X108361747Y-45760690D01*
X108300899Y-45778598D01*
X108300838Y-45778604D01*
X108300809Y-45778612D01*
X108237736Y-45784352D01*
X108174746Y-45777731D01*
X108174727Y-45777725D01*
X108174650Y-45777717D01*
X108114057Y-45758961D01*
X108058262Y-45728792D01*
X108052866Y-45724328D01*
X108029504Y-45710005D01*
X108002367Y-45702564D01*
X107974231Y-45702977D01*
X107947324Y-45711213D01*
X107927799Y-45723391D01*
X107917958Y-45731303D01*
X107861747Y-45760690D01*
X107800899Y-45778598D01*
X107800838Y-45778604D01*
X107800809Y-45778612D01*
X107737736Y-45784352D01*
X107674746Y-45777731D01*
X107674727Y-45777725D01*
X107674650Y-45777717D01*
X107614057Y-45758961D01*
X107558262Y-45728792D01*
X107552866Y-45724328D01*
X107529504Y-45710005D01*
X107502367Y-45702564D01*
X107474231Y-45702977D01*
X107447324Y-45711213D01*
X107427799Y-45723391D01*
X107417958Y-45731303D01*
X107361747Y-45760690D01*
X107300899Y-45778598D01*
X107300838Y-45778604D01*
X107300809Y-45778612D01*
X107237736Y-45784352D01*
X107174746Y-45777731D01*
X107174727Y-45777725D01*
X107174650Y-45777717D01*
X107114057Y-45758961D01*
X107058262Y-45728792D01*
X107052866Y-45724328D01*
X107029504Y-45710005D01*
X107002367Y-45702564D01*
X106974231Y-45702977D01*
X106947324Y-45711213D01*
X106927799Y-45723391D01*
X106917958Y-45731303D01*
X106861747Y-45760690D01*
X106800899Y-45778598D01*
X106800838Y-45778604D01*
X106800809Y-45778612D01*
X106737736Y-45784352D01*
X106674746Y-45777731D01*
X106674727Y-45777725D01*
X106674650Y-45777717D01*
X106614057Y-45758961D01*
X106558262Y-45728792D01*
X106552866Y-45724328D01*
X106529504Y-45710005D01*
X106502367Y-45702564D01*
X106474231Y-45702977D01*
X106447324Y-45711213D01*
X106427799Y-45723391D01*
X106417958Y-45731303D01*
X106361747Y-45760690D01*
X106300899Y-45778598D01*
X106300838Y-45778604D01*
X106300809Y-45778612D01*
X106237736Y-45784352D01*
X106174746Y-45777731D01*
X106174727Y-45777725D01*
X106174650Y-45777717D01*
X106114057Y-45758961D01*
X106058262Y-45728792D01*
X106052866Y-45724328D01*
X106029504Y-45710005D01*
X106002367Y-45702564D01*
X105974231Y-45702977D01*
X105947324Y-45711213D01*
X105927799Y-45723391D01*
X105917958Y-45731303D01*
X105861747Y-45760690D01*
X105800899Y-45778598D01*
X105800838Y-45778604D01*
X105800809Y-45778612D01*
X105737736Y-45784352D01*
X105674746Y-45777731D01*
X105674727Y-45777725D01*
X105674650Y-45777717D01*
X105614057Y-45758961D01*
X105558262Y-45728792D01*
X105552866Y-45724328D01*
X105529504Y-45710005D01*
X105502367Y-45702564D01*
X105474231Y-45702977D01*
X105447324Y-45711213D01*
X105427799Y-45723391D01*
X105417958Y-45731303D01*
X105361747Y-45760690D01*
X105300899Y-45778598D01*
X105300838Y-45778604D01*
X105300809Y-45778612D01*
X105237736Y-45784352D01*
X105174746Y-45777731D01*
X105174727Y-45777725D01*
X105174650Y-45777717D01*
X105114057Y-45758961D01*
X105058262Y-45728792D01*
X105052866Y-45724328D01*
X105029504Y-45710005D01*
X105002367Y-45702564D01*
X104974231Y-45702977D01*
X104947324Y-45711213D01*
X104927799Y-45723391D01*
X104917958Y-45731303D01*
X104861747Y-45760690D01*
X104800899Y-45778598D01*
X104800838Y-45778604D01*
X104800809Y-45778612D01*
X104737736Y-45784352D01*
X104674746Y-45777731D01*
X104674727Y-45777725D01*
X104674650Y-45777717D01*
X104614057Y-45758961D01*
X104558262Y-45728792D01*
X104552866Y-45724328D01*
X104529504Y-45710005D01*
X104502367Y-45702564D01*
X104474231Y-45702977D01*
X104447324Y-45711213D01*
X104427799Y-45723391D01*
X104417958Y-45731303D01*
X104361747Y-45760690D01*
X104300899Y-45778598D01*
X104300838Y-45778604D01*
X104300809Y-45778612D01*
X104237736Y-45784352D01*
X104174746Y-45777731D01*
X104174727Y-45777725D01*
X104174650Y-45777717D01*
X104114057Y-45758961D01*
X104058262Y-45728792D01*
X104052866Y-45724328D01*
X104029504Y-45710005D01*
X104002367Y-45702564D01*
X103974231Y-45702977D01*
X103947324Y-45711213D01*
X103927799Y-45723391D01*
X103917958Y-45731303D01*
X103861747Y-45760690D01*
X103800899Y-45778598D01*
X103800838Y-45778604D01*
X103800809Y-45778612D01*
X103737736Y-45784352D01*
X103674746Y-45777731D01*
X103674727Y-45777725D01*
X103674650Y-45777717D01*
X103614057Y-45758961D01*
X103558262Y-45728792D01*
X103552866Y-45724328D01*
X103529504Y-45710005D01*
X103502367Y-45702564D01*
X103474231Y-45702977D01*
X103447324Y-45711213D01*
X103427799Y-45723391D01*
X103417958Y-45731303D01*
X103361747Y-45760690D01*
X103300899Y-45778598D01*
X103300838Y-45778604D01*
X103300809Y-45778612D01*
X103237736Y-45784352D01*
X103174746Y-45777731D01*
X103174727Y-45777725D01*
X103174650Y-45777717D01*
X103114057Y-45758961D01*
X103058262Y-45728792D01*
X103052866Y-45724328D01*
X103029504Y-45710005D01*
X103002367Y-45702564D01*
X102974231Y-45702977D01*
X102947324Y-45711213D01*
X102927799Y-45723391D01*
X102917958Y-45731303D01*
X102861747Y-45760690D01*
X102800899Y-45778598D01*
X102800838Y-45778604D01*
X102800809Y-45778612D01*
X102737736Y-45784352D01*
X102674746Y-45777731D01*
X102674727Y-45777725D01*
X102674650Y-45777717D01*
X102614057Y-45758961D01*
X102558262Y-45728792D01*
X102552866Y-45724328D01*
X102529504Y-45710005D01*
X102502367Y-45702564D01*
X102474231Y-45702977D01*
X102447324Y-45711213D01*
X102427799Y-45723391D01*
X102417958Y-45731303D01*
X102361747Y-45760690D01*
X102300899Y-45778598D01*
X102300838Y-45778604D01*
X102300809Y-45778612D01*
X102237736Y-45784352D01*
X102174746Y-45777731D01*
X102174727Y-45777725D01*
X102174650Y-45777717D01*
X102114057Y-45758961D01*
X102058262Y-45728792D01*
X102052866Y-45724328D01*
X102029504Y-45710005D01*
X102002367Y-45702564D01*
X101974231Y-45702977D01*
X101947324Y-45711213D01*
X101927799Y-45723391D01*
X101917958Y-45731303D01*
X101861747Y-45760690D01*
X101800899Y-45778598D01*
X101800838Y-45778604D01*
X101800809Y-45778612D01*
X101737736Y-45784352D01*
X101674746Y-45777731D01*
X101674727Y-45777725D01*
X101674650Y-45777717D01*
X101614057Y-45758961D01*
X101558262Y-45728792D01*
X101509390Y-45688361D01*
X101469301Y-45639207D01*
X101439523Y-45583203D01*
X101421190Y-45522481D01*
X101415000Y-45459355D01*
X101415000Y-44300563D01*
X101415003Y-44300161D01*
X101415003Y-44300157D01*
X101415032Y-44296107D01*
X101422102Y-44233074D01*
X101441281Y-44172614D01*
X101471838Y-44117031D01*
X101512609Y-44068441D01*
X101562042Y-44028697D01*
X101618253Y-43999310D01*
X101679101Y-43981402D01*
X101679162Y-43981396D01*
X101679191Y-43981388D01*
X101742264Y-43975648D01*
X101805254Y-43982269D01*
X101805273Y-43982275D01*
X101805350Y-43982283D01*
X101865943Y-44001039D01*
X101921738Y-44031208D01*
X101927134Y-44035672D01*
X101950496Y-44049995D01*
X101977633Y-44057436D01*
X102005769Y-44057023D01*
X102032676Y-44048787D01*
X102052201Y-44036609D01*
X102062042Y-44028697D01*
X102118253Y-43999310D01*
X102179101Y-43981402D01*
X102179162Y-43981396D01*
X102179191Y-43981388D01*
X102242264Y-43975648D01*
X102305254Y-43982269D01*
X102305273Y-43982275D01*
X102305350Y-43982283D01*
X102365943Y-44001039D01*
X102421738Y-44031208D01*
X102427134Y-44035672D01*
X102450496Y-44049995D01*
X102477633Y-44057436D01*
X102505769Y-44057023D01*
X102532676Y-44048787D01*
X102552201Y-44036609D01*
X102562042Y-44028697D01*
X102618253Y-43999310D01*
X102679101Y-43981402D01*
X102679162Y-43981396D01*
X102679191Y-43981388D01*
X102742264Y-43975648D01*
X102805254Y-43982269D01*
X102805273Y-43982275D01*
X102805350Y-43982283D01*
X102865943Y-44001039D01*
X102921738Y-44031208D01*
X102927134Y-44035672D01*
X102950496Y-44049995D01*
X102977633Y-44057436D01*
X103005769Y-44057023D01*
X103032676Y-44048787D01*
X103052201Y-44036609D01*
X103062042Y-44028697D01*
X103118253Y-43999310D01*
X103179101Y-43981402D01*
X103179162Y-43981396D01*
X103179191Y-43981388D01*
X103242264Y-43975648D01*
X103305254Y-43982269D01*
X103305273Y-43982275D01*
X103305350Y-43982283D01*
X103365943Y-44001039D01*
X103421738Y-44031208D01*
X103427134Y-44035672D01*
X103450496Y-44049995D01*
X103477633Y-44057436D01*
X103505769Y-44057023D01*
X103532676Y-44048787D01*
X103552201Y-44036609D01*
X103562042Y-44028697D01*
X103618253Y-43999310D01*
X103679101Y-43981402D01*
X103679162Y-43981396D01*
X103679191Y-43981388D01*
X103742264Y-43975648D01*
X103805254Y-43982269D01*
X103805273Y-43982275D01*
X103805350Y-43982283D01*
X103865943Y-44001039D01*
X103921738Y-44031208D01*
X103927134Y-44035672D01*
X103950496Y-44049995D01*
X103977633Y-44057436D01*
X104005769Y-44057023D01*
X104032676Y-44048787D01*
X104052201Y-44036609D01*
X104062042Y-44028697D01*
X104118253Y-43999310D01*
X104179101Y-43981402D01*
X104179162Y-43981396D01*
X104179191Y-43981388D01*
X104242264Y-43975648D01*
X104305254Y-43982269D01*
X104305273Y-43982275D01*
X104305350Y-43982283D01*
X104365943Y-44001039D01*
X104421738Y-44031208D01*
X104427134Y-44035672D01*
X104450496Y-44049995D01*
X104477633Y-44057436D01*
X104505769Y-44057023D01*
X104532676Y-44048787D01*
X104552201Y-44036609D01*
X104562042Y-44028697D01*
X104618253Y-43999310D01*
X104679101Y-43981402D01*
X104679162Y-43981396D01*
X104679191Y-43981388D01*
X104742264Y-43975648D01*
X104805254Y-43982269D01*
X104805273Y-43982275D01*
X104805350Y-43982283D01*
X104865943Y-44001039D01*
X104921738Y-44031208D01*
X104927134Y-44035672D01*
X104950496Y-44049995D01*
X104977633Y-44057436D01*
X105005769Y-44057023D01*
X105032676Y-44048787D01*
X105052201Y-44036609D01*
X105062042Y-44028697D01*
X105118253Y-43999310D01*
X105179101Y-43981402D01*
X105179162Y-43981396D01*
X105179191Y-43981388D01*
X105242264Y-43975648D01*
X105305254Y-43982269D01*
X105305273Y-43982275D01*
X105305350Y-43982283D01*
X105365943Y-44001039D01*
X105421738Y-44031208D01*
X105427134Y-44035672D01*
X105450496Y-44049995D01*
X105477633Y-44057436D01*
X105505769Y-44057023D01*
X105532676Y-44048787D01*
X105552201Y-44036609D01*
X105562042Y-44028697D01*
X105618253Y-43999310D01*
X105679101Y-43981402D01*
X105679162Y-43981396D01*
X105679191Y-43981388D01*
X105742264Y-43975648D01*
X105805254Y-43982269D01*
X105805273Y-43982275D01*
X105805350Y-43982283D01*
X105865943Y-44001039D01*
X105921738Y-44031208D01*
X105927134Y-44035672D01*
X105950496Y-44049995D01*
X105977633Y-44057436D01*
X106005769Y-44057023D01*
X106032676Y-44048787D01*
X106052201Y-44036609D01*
X106062042Y-44028697D01*
X106118253Y-43999310D01*
X106179101Y-43981402D01*
X106179162Y-43981396D01*
X106179191Y-43981388D01*
X106242264Y-43975648D01*
X106305254Y-43982269D01*
X106305273Y-43982275D01*
X106305350Y-43982283D01*
X106365943Y-44001039D01*
X106421738Y-44031208D01*
X106427134Y-44035672D01*
X106450496Y-44049995D01*
X106477633Y-44057436D01*
X106505769Y-44057023D01*
X106532676Y-44048787D01*
X106552201Y-44036609D01*
X106562042Y-44028697D01*
X106618253Y-43999310D01*
X106679101Y-43981402D01*
X106679162Y-43981396D01*
X106679191Y-43981388D01*
X106742264Y-43975648D01*
X106805254Y-43982269D01*
X106805273Y-43982275D01*
X106805350Y-43982283D01*
X106865943Y-44001039D01*
X106921738Y-44031208D01*
X106927134Y-44035672D01*
X106950496Y-44049995D01*
X106977633Y-44057436D01*
X107005769Y-44057023D01*
X107032676Y-44048787D01*
X107052201Y-44036609D01*
X107062042Y-44028697D01*
X107118253Y-43999310D01*
X107179101Y-43981402D01*
X107179162Y-43981396D01*
X107179191Y-43981388D01*
X107242264Y-43975648D01*
X107305254Y-43982269D01*
X107305273Y-43982275D01*
X107305350Y-43982283D01*
X107365943Y-44001039D01*
X107421738Y-44031208D01*
X107427134Y-44035672D01*
X107450496Y-44049995D01*
X107477633Y-44057436D01*
X107505769Y-44057023D01*
X107532676Y-44048787D01*
X107552201Y-44036609D01*
X107562042Y-44028697D01*
X107618253Y-43999310D01*
X107679101Y-43981402D01*
X107679162Y-43981396D01*
X107679191Y-43981388D01*
X107742264Y-43975648D01*
X107805254Y-43982269D01*
X107805273Y-43982275D01*
X107805350Y-43982283D01*
X107865943Y-44001039D01*
X107921738Y-44031208D01*
X107927134Y-44035672D01*
X107950496Y-44049995D01*
X107977633Y-44057436D01*
X108005769Y-44057023D01*
X108032676Y-44048787D01*
X108052201Y-44036609D01*
X108062042Y-44028697D01*
X108118253Y-43999310D01*
X108179101Y-43981402D01*
X108179162Y-43981396D01*
X108179191Y-43981388D01*
X108242264Y-43975648D01*
X108305254Y-43982269D01*
X108305273Y-43982275D01*
X108305350Y-43982283D01*
X108365943Y-44001039D01*
X108421738Y-44031208D01*
X108427134Y-44035672D01*
X108450496Y-44049995D01*
X108477633Y-44057436D01*
X108505769Y-44057023D01*
X108532676Y-44048787D01*
X108552201Y-44036609D01*
X108562042Y-44028697D01*
X108618253Y-43999310D01*
X108679101Y-43981402D01*
X108679162Y-43981396D01*
X108679191Y-43981388D01*
X108742264Y-43975648D01*
X108805254Y-43982269D01*
X108805273Y-43982275D01*
X108805350Y-43982283D01*
X108865943Y-44001039D01*
X108921738Y-44031208D01*
X108927134Y-44035672D01*
X108950496Y-44049995D01*
X108977633Y-44057436D01*
X109005769Y-44057023D01*
X109032676Y-44048787D01*
X109052201Y-44036609D01*
X109062042Y-44028697D01*
X109118253Y-43999310D01*
X109179101Y-43981402D01*
X109179162Y-43981396D01*
X109179191Y-43981388D01*
X109242264Y-43975648D01*
X109305254Y-43982269D01*
X109305273Y-43982275D01*
X109305350Y-43982283D01*
X109365943Y-44001039D01*
X109421738Y-44031208D01*
X109427134Y-44035672D01*
X109450496Y-44049995D01*
X109477633Y-44057436D01*
X109505769Y-44057023D01*
X109532676Y-44048787D01*
X109552201Y-44036609D01*
X109562042Y-44028697D01*
X109618253Y-43999310D01*
X109679101Y-43981402D01*
X109679162Y-43981396D01*
X109679191Y-43981388D01*
X109742264Y-43975648D01*
X109805254Y-43982269D01*
X109805273Y-43982275D01*
X109805350Y-43982283D01*
X109865943Y-44001039D01*
X109921738Y-44031208D01*
X109927134Y-44035672D01*
X109950496Y-44049995D01*
X109977633Y-44057436D01*
X110005769Y-44057023D01*
X110032676Y-44048787D01*
X110052201Y-44036609D01*
X110062042Y-44028697D01*
X110118253Y-43999310D01*
X110179101Y-43981402D01*
X110179162Y-43981396D01*
X110179191Y-43981388D01*
X110242264Y-43975648D01*
X110305254Y-43982269D01*
X110305273Y-43982275D01*
X110305350Y-43982283D01*
X110365943Y-44001039D01*
X110421738Y-44031208D01*
X110427134Y-44035672D01*
X110450496Y-44049995D01*
X110477633Y-44057436D01*
X110505769Y-44057023D01*
X110532676Y-44048787D01*
X110552201Y-44036609D01*
X110562042Y-44028697D01*
X110618253Y-43999310D01*
X110679101Y-43981402D01*
X110679162Y-43981396D01*
X110679191Y-43981388D01*
X110742264Y-43975648D01*
X110805254Y-43982269D01*
X110805273Y-43982275D01*
X110805350Y-43982283D01*
X110865943Y-44001039D01*
X110921738Y-44031208D01*
X110927134Y-44035672D01*
X110950496Y-44049995D01*
X110977633Y-44057436D01*
X111005769Y-44057023D01*
X111032676Y-44048787D01*
X111052201Y-44036609D01*
X111062042Y-44028697D01*
X111118253Y-43999310D01*
X111179101Y-43981402D01*
X111179162Y-43981396D01*
X111179191Y-43981388D01*
X111242264Y-43975648D01*
X111305254Y-43982269D01*
X111305273Y-43982275D01*
X111305350Y-43982283D01*
X111365943Y-44001039D01*
X111421738Y-44031208D01*
X111427134Y-44035672D01*
X111450496Y-44049995D01*
X111477633Y-44057436D01*
X111505769Y-44057023D01*
X111532676Y-44048787D01*
X111552201Y-44036609D01*
X111562042Y-44028697D01*
X111618253Y-43999310D01*
X111679101Y-43981402D01*
X111679162Y-43981396D01*
X111679191Y-43981388D01*
X111742264Y-43975648D01*
X111805254Y-43982269D01*
X111805273Y-43982275D01*
X111805350Y-43982283D01*
X111865943Y-44001039D01*
X111921738Y-44031208D01*
X111927134Y-44035672D01*
X111950496Y-44049995D01*
X111977633Y-44057436D01*
X112005769Y-44057023D01*
X112032676Y-44048787D01*
X112052201Y-44036609D01*
X112062042Y-44028697D01*
X112118253Y-43999310D01*
X112179101Y-43981402D01*
X112179162Y-43981396D01*
X112179191Y-43981388D01*
X112242264Y-43975648D01*
X112305254Y-43982269D01*
X112305273Y-43982275D01*
X112305350Y-43982283D01*
X112365943Y-44001039D01*
X112421738Y-44031208D01*
X112427134Y-44035672D01*
X112450496Y-44049995D01*
X112477633Y-44057436D01*
X112505769Y-44057023D01*
X112532676Y-44048787D01*
X112552201Y-44036609D01*
X112562042Y-44028697D01*
X112618253Y-43999310D01*
X112679101Y-43981402D01*
X112679162Y-43981396D01*
X112679191Y-43981388D01*
X112742264Y-43975648D01*
X112805254Y-43982269D01*
X112805273Y-43982275D01*
X112805350Y-43982283D01*
X112865943Y-44001039D01*
X112921738Y-44031208D01*
X112927134Y-44035672D01*
X112950496Y-44049995D01*
X112977633Y-44057436D01*
X113005769Y-44057023D01*
X113032676Y-44048787D01*
X113052201Y-44036609D01*
X113062042Y-44028697D01*
X113118253Y-43999310D01*
X113179101Y-43981402D01*
X113179162Y-43981396D01*
X113179191Y-43981388D01*
X113242264Y-43975648D01*
X113305254Y-43982269D01*
X113305273Y-43982275D01*
X113305350Y-43982283D01*
X113365943Y-44001039D01*
X113421738Y-44031208D01*
X113427134Y-44035672D01*
X113450496Y-44049995D01*
X113477633Y-44057436D01*
X113505769Y-44057023D01*
X113532676Y-44048787D01*
X113552201Y-44036609D01*
X113562042Y-44028697D01*
X113618253Y-43999310D01*
X113679101Y-43981402D01*
X113679162Y-43981396D01*
X113679191Y-43981388D01*
X113742264Y-43975648D01*
X113805254Y-43982269D01*
X113805273Y-43982275D01*
X113805350Y-43982283D01*
X113865943Y-44001039D01*
X113921738Y-44031208D01*
X113927134Y-44035672D01*
X113950496Y-44049995D01*
X113977633Y-44057436D01*
X114005769Y-44057023D01*
X114032676Y-44048787D01*
X114052201Y-44036609D01*
X114062042Y-44028697D01*
X114118253Y-43999310D01*
X114179101Y-43981402D01*
X114179162Y-43981396D01*
X114179191Y-43981388D01*
X114242264Y-43975648D01*
X114305254Y-43982269D01*
X114305273Y-43982275D01*
X114305350Y-43982283D01*
X114365943Y-44001039D01*
X114421738Y-44031208D01*
X114427134Y-44035672D01*
X114450496Y-44049995D01*
X114477633Y-44057436D01*
X114505769Y-44057023D01*
X114532676Y-44048787D01*
X114552201Y-44036609D01*
X114562042Y-44028697D01*
X114618253Y-43999310D01*
X114679101Y-43981402D01*
X114679162Y-43981396D01*
X114679191Y-43981388D01*
X114742264Y-43975648D01*
X114805254Y-43982269D01*
X114805273Y-43982275D01*
X114805350Y-43982283D01*
X114865943Y-44001039D01*
X114921738Y-44031208D01*
X114927134Y-44035672D01*
X114950496Y-44049995D01*
X114977633Y-44057436D01*
X115005769Y-44057023D01*
X115032676Y-44048787D01*
X115052201Y-44036609D01*
X115062042Y-44028697D01*
X115118253Y-43999310D01*
X115179101Y-43981402D01*
X115179162Y-43981396D01*
X115179191Y-43981388D01*
X115242264Y-43975648D01*
X115305254Y-43982269D01*
X115305273Y-43982275D01*
X115305350Y-43982283D01*
X115365943Y-44001039D01*
X115421738Y-44031208D01*
X115427134Y-44035672D01*
X115450496Y-44049995D01*
X115477633Y-44057436D01*
X115505769Y-44057023D01*
X115532676Y-44048787D01*
X115552201Y-44036609D01*
X115562042Y-44028697D01*
X115618253Y-43999310D01*
X115679101Y-43981402D01*
X115679162Y-43981396D01*
X115679191Y-43981388D01*
X115742264Y-43975648D01*
X115805254Y-43982269D01*
X115805273Y-43982275D01*
X115805350Y-43982283D01*
X115865943Y-44001039D01*
X115921738Y-44031208D01*
X115927134Y-44035672D01*
X115950496Y-44049995D01*
X115977633Y-44057436D01*
X116005769Y-44057023D01*
X116032676Y-44048787D01*
X116052201Y-44036609D01*
X116062042Y-44028697D01*
X116118253Y-43999310D01*
X116179101Y-43981402D01*
X116179162Y-43981396D01*
X116179191Y-43981388D01*
X116242264Y-43975648D01*
X116305254Y-43982269D01*
X116305273Y-43982275D01*
X116305350Y-43982283D01*
X116365943Y-44001039D01*
X116421738Y-44031208D01*
X116427134Y-44035672D01*
X116450496Y-44049995D01*
X116477633Y-44057436D01*
X116505769Y-44057023D01*
X116532676Y-44048787D01*
X116552201Y-44036609D01*
X116562042Y-44028697D01*
X116618253Y-43999310D01*
X116679101Y-43981402D01*
X116679162Y-43981396D01*
X116679191Y-43981388D01*
X116742264Y-43975648D01*
X116805254Y-43982269D01*
X116805273Y-43982275D01*
X116805350Y-43982283D01*
X116865943Y-44001039D01*
X116921738Y-44031208D01*
X116927134Y-44035672D01*
X116950496Y-44049995D01*
X116977633Y-44057436D01*
X117005769Y-44057023D01*
X117032676Y-44048787D01*
X117052201Y-44036609D01*
X117062042Y-44028697D01*
X117118253Y-43999310D01*
X117179101Y-43981402D01*
X117179162Y-43981396D01*
X117179191Y-43981388D01*
X117242264Y-43975648D01*
X117305254Y-43982269D01*
X117305273Y-43982275D01*
X117305350Y-43982283D01*
X117365943Y-44001039D01*
X117421738Y-44031208D01*
X117427134Y-44035672D01*
X117450496Y-44049995D01*
X117477633Y-44057436D01*
X117505769Y-44057023D01*
X117532676Y-44048787D01*
X117552201Y-44036609D01*
X117562042Y-44028697D01*
X117618253Y-43999310D01*
X117679101Y-43981402D01*
X117679162Y-43981396D01*
X117679191Y-43981388D01*
X117742264Y-43975648D01*
X117805254Y-43982269D01*
X117805273Y-43982275D01*
X117805350Y-43982283D01*
X117865943Y-44001039D01*
X117921738Y-44031208D01*
X117927134Y-44035672D01*
X117950496Y-44049995D01*
X117977633Y-44057436D01*
X118005769Y-44057023D01*
X118032676Y-44048787D01*
X118052201Y-44036609D01*
X118062042Y-44028697D01*
X118118253Y-43999310D01*
X118179101Y-43981402D01*
X118179162Y-43981396D01*
X118179191Y-43981388D01*
X118242264Y-43975648D01*
X118305254Y-43982269D01*
X118305273Y-43982275D01*
X118305350Y-43982283D01*
X118365943Y-44001039D01*
X118421738Y-44031208D01*
X118427134Y-44035672D01*
X118450496Y-44049995D01*
X118477633Y-44057436D01*
X118505769Y-44057023D01*
X118532676Y-44048787D01*
X118552201Y-44036609D01*
X118562042Y-44028697D01*
X118618253Y-43999310D01*
X118679101Y-43981402D01*
X118679162Y-43981396D01*
X118679191Y-43981388D01*
X118742264Y-43975648D01*
X118805254Y-43982269D01*
X118805273Y-43982275D01*
X118805350Y-43982283D01*
X118865943Y-44001039D01*
X118921738Y-44031208D01*
X118927134Y-44035672D01*
X118950496Y-44049995D01*
X118977633Y-44057436D01*
X119005769Y-44057023D01*
X119032676Y-44048787D01*
X119052201Y-44036609D01*
X119062042Y-44028697D01*
X119118253Y-43999310D01*
X119179101Y-43981402D01*
X119179162Y-43981396D01*
X119179191Y-43981388D01*
X119242264Y-43975648D01*
X119305254Y-43982269D01*
X119305254Y-43982269D01*
G37*
M02*
