G04 #@! TF.FileFunction,Legend,Top*
%FSLAX46Y46*%
G04 Gerber Fmt 4.6, Leading zero omitted, Abs format (unit mm)*
G04 Created by KiCad (PCBNEW 4.0.4-stable) date 04/10/17 21:25:14*
%MOMM*%
%LPD*%
G01*
G04 APERTURE LIST*
%ADD10C,0.100000*%
%ADD11C,0.300000*%
%ADD12C,0.200000*%
%ADD13C,0.150000*%
%ADD14C,0.120000*%
%ADD15C,0.203200*%
%ADD16C,0.010000*%
G04 APERTURE END LIST*
D10*
D11*
X113605571Y-75791000D02*
X114677000Y-75791000D01*
X114891286Y-75862428D01*
X115034143Y-76005285D01*
X115105571Y-76219571D01*
X115105571Y-76362428D01*
X113605571Y-75291000D02*
X113605571Y-74433857D01*
X115105571Y-74862428D02*
X113605571Y-74862428D01*
X114677000Y-74005286D02*
X114677000Y-73291000D01*
X115105571Y-74148143D02*
X113605571Y-73648143D01*
X115105571Y-73148143D01*
X113677000Y-71862429D02*
X113605571Y-72005286D01*
X113605571Y-72219572D01*
X113677000Y-72433857D01*
X113819857Y-72576715D01*
X113962714Y-72648143D01*
X114248429Y-72719572D01*
X114462714Y-72719572D01*
X114748429Y-72648143D01*
X114891286Y-72576715D01*
X115034143Y-72433857D01*
X115105571Y-72219572D01*
X115105571Y-72076715D01*
X115034143Y-71862429D01*
X114962714Y-71791000D01*
X114462714Y-71791000D01*
X114462714Y-72076715D01*
X95770000Y-48236000D02*
X95698571Y-48378857D01*
X95698571Y-48593143D01*
X95770000Y-48807428D01*
X95912857Y-48950286D01*
X96055714Y-49021714D01*
X96341429Y-49093143D01*
X96555714Y-49093143D01*
X96841429Y-49021714D01*
X96984286Y-48950286D01*
X97127143Y-48807428D01*
X97198571Y-48593143D01*
X97198571Y-48450286D01*
X97127143Y-48236000D01*
X97055714Y-48164571D01*
X96555714Y-48164571D01*
X96555714Y-48450286D01*
X97198571Y-47521714D02*
X95698571Y-47521714D01*
X95698571Y-46950286D01*
X95770000Y-46807428D01*
X95841429Y-46736000D01*
X95984286Y-46664571D01*
X96198571Y-46664571D01*
X96341429Y-46736000D01*
X96412857Y-46807428D01*
X96484286Y-46950286D01*
X96484286Y-47521714D01*
X97198571Y-46021714D02*
X95698571Y-46021714D01*
X95698571Y-45021714D02*
X95698571Y-44736000D01*
X95770000Y-44593142D01*
X95912857Y-44450285D01*
X96198571Y-44378857D01*
X96698571Y-44378857D01*
X96984286Y-44450285D01*
X97127143Y-44593142D01*
X97198571Y-44736000D01*
X97198571Y-45021714D01*
X97127143Y-45164571D01*
X96984286Y-45307428D01*
X96698571Y-45378857D01*
X96198571Y-45378857D01*
X95912857Y-45307428D01*
X95770000Y-45164571D01*
X95698571Y-45021714D01*
X97089001Y-70274571D02*
X97089001Y-68774571D01*
X97446144Y-68774571D01*
X97660429Y-68846000D01*
X97803287Y-68988857D01*
X97874715Y-69131714D01*
X97946144Y-69417429D01*
X97946144Y-69631714D01*
X97874715Y-69917429D01*
X97803287Y-70060286D01*
X97660429Y-70203143D01*
X97446144Y-70274571D01*
X97089001Y-70274571D01*
X98589001Y-69703143D02*
X99731858Y-69703143D01*
X100231858Y-68774571D02*
X100731858Y-70274571D01*
X101231858Y-68774571D01*
X101731858Y-70274571D02*
X101731858Y-69274571D01*
X101731858Y-68774571D02*
X101660429Y-68846000D01*
X101731858Y-68917429D01*
X101803286Y-68846000D01*
X101731858Y-68774571D01*
X101731858Y-68917429D01*
X103089001Y-70274571D02*
X103089001Y-68774571D01*
X103089001Y-70203143D02*
X102946144Y-70274571D01*
X102660430Y-70274571D01*
X102517572Y-70203143D01*
X102446144Y-70131714D01*
X102374715Y-69988857D01*
X102374715Y-69560286D01*
X102446144Y-69417429D01*
X102517572Y-69346000D01*
X102660430Y-69274571D01*
X102946144Y-69274571D01*
X103089001Y-69346000D01*
X104374715Y-70203143D02*
X104231858Y-70274571D01*
X103946144Y-70274571D01*
X103803287Y-70203143D01*
X103731858Y-70060286D01*
X103731858Y-69488857D01*
X103803287Y-69346000D01*
X103946144Y-69274571D01*
X104231858Y-69274571D01*
X104374715Y-69346000D01*
X104446144Y-69488857D01*
X104446144Y-69631714D01*
X103731858Y-69774571D01*
X105303287Y-70274571D02*
X105160429Y-70203143D01*
X105089001Y-70131714D01*
X105017572Y-69988857D01*
X105017572Y-69560286D01*
X105089001Y-69417429D01*
X105160429Y-69346000D01*
X105303287Y-69274571D01*
X105517572Y-69274571D01*
X105660429Y-69346000D01*
X105731858Y-69417429D01*
X105803287Y-69560286D01*
X105803287Y-69988857D01*
X105731858Y-70131714D01*
X105660429Y-70203143D01*
X105517572Y-70274571D01*
X105303287Y-70274571D01*
X108089001Y-69488857D02*
X108303287Y-69560286D01*
X108374715Y-69631714D01*
X108446144Y-69774571D01*
X108446144Y-69988857D01*
X108374715Y-70131714D01*
X108303287Y-70203143D01*
X108160429Y-70274571D01*
X107589001Y-70274571D01*
X107589001Y-68774571D01*
X108089001Y-68774571D01*
X108231858Y-68846000D01*
X108303287Y-68917429D01*
X108374715Y-69060286D01*
X108374715Y-69203143D01*
X108303287Y-69346000D01*
X108231858Y-69417429D01*
X108089001Y-69488857D01*
X107589001Y-69488857D01*
X109303287Y-70274571D02*
X109160429Y-70203143D01*
X109089001Y-70131714D01*
X109017572Y-69988857D01*
X109017572Y-69560286D01*
X109089001Y-69417429D01*
X109160429Y-69346000D01*
X109303287Y-69274571D01*
X109517572Y-69274571D01*
X109660429Y-69346000D01*
X109731858Y-69417429D01*
X109803287Y-69560286D01*
X109803287Y-69988857D01*
X109731858Y-70131714D01*
X109660429Y-70203143D01*
X109517572Y-70274571D01*
X109303287Y-70274571D01*
X111089001Y-70274571D02*
X111089001Y-69488857D01*
X111017572Y-69346000D01*
X110874715Y-69274571D01*
X110589001Y-69274571D01*
X110446144Y-69346000D01*
X111089001Y-70203143D02*
X110946144Y-70274571D01*
X110589001Y-70274571D01*
X110446144Y-70203143D01*
X110374715Y-70060286D01*
X110374715Y-69917429D01*
X110446144Y-69774571D01*
X110589001Y-69703143D01*
X110946144Y-69703143D01*
X111089001Y-69631714D01*
X111803287Y-70274571D02*
X111803287Y-69274571D01*
X111803287Y-69560286D02*
X111874715Y-69417429D01*
X111946144Y-69346000D01*
X112089001Y-69274571D01*
X112231858Y-69274571D01*
X113374715Y-70274571D02*
X113374715Y-68774571D01*
X113374715Y-70203143D02*
X113231858Y-70274571D01*
X112946144Y-70274571D01*
X112803286Y-70203143D01*
X112731858Y-70131714D01*
X112660429Y-69988857D01*
X112660429Y-69560286D01*
X112731858Y-69417429D01*
X112803286Y-69346000D01*
X112946144Y-69274571D01*
X113231858Y-69274571D01*
X113374715Y-69346000D01*
X116089001Y-70274571D02*
X115589001Y-69560286D01*
X115231858Y-70274571D02*
X115231858Y-68774571D01*
X115803286Y-68774571D01*
X115946144Y-68846000D01*
X116017572Y-68917429D01*
X116089001Y-69060286D01*
X116089001Y-69274571D01*
X116017572Y-69417429D01*
X115946144Y-69488857D01*
X115803286Y-69560286D01*
X115231858Y-69560286D01*
X117303286Y-70203143D02*
X117160429Y-70274571D01*
X116874715Y-70274571D01*
X116731858Y-70203143D01*
X116660429Y-70060286D01*
X116660429Y-69488857D01*
X116731858Y-69346000D01*
X116874715Y-69274571D01*
X117160429Y-69274571D01*
X117303286Y-69346000D01*
X117374715Y-69488857D01*
X117374715Y-69631714D01*
X116660429Y-69774571D01*
X117874715Y-69274571D02*
X118231858Y-70274571D01*
X118589000Y-69274571D01*
X119160429Y-70131714D02*
X119231857Y-70203143D01*
X119160429Y-70274571D01*
X119089000Y-70203143D01*
X119160429Y-70131714D01*
X119160429Y-70274571D01*
X119803286Y-68917429D02*
X119874715Y-68846000D01*
X120017572Y-68774571D01*
X120374715Y-68774571D01*
X120517572Y-68846000D01*
X120589001Y-68917429D01*
X120660429Y-69060286D01*
X120660429Y-69203143D01*
X120589001Y-69417429D01*
X119731858Y-70274571D01*
X120660429Y-70274571D01*
X139954143Y-83451000D02*
X139811286Y-83379571D01*
X139597000Y-83379571D01*
X139382715Y-83451000D01*
X139239857Y-83593857D01*
X139168429Y-83736714D01*
X139097000Y-84022429D01*
X139097000Y-84236714D01*
X139168429Y-84522429D01*
X139239857Y-84665286D01*
X139382715Y-84808143D01*
X139597000Y-84879571D01*
X139739857Y-84879571D01*
X139954143Y-84808143D01*
X140025572Y-84736714D01*
X140025572Y-84236714D01*
X139739857Y-84236714D01*
X140668429Y-84879571D02*
X140668429Y-83379571D01*
X141525572Y-84879571D01*
X141525572Y-83379571D01*
X142239858Y-84879571D02*
X142239858Y-83379571D01*
X142597001Y-83379571D01*
X142811286Y-83451000D01*
X142954144Y-83593857D01*
X143025572Y-83736714D01*
X143097001Y-84022429D01*
X143097001Y-84236714D01*
X143025572Y-84522429D01*
X142954144Y-84665286D01*
X142811286Y-84808143D01*
X142597001Y-84879571D01*
X142239858Y-84879571D01*
X130905287Y-83506571D02*
X130191001Y-83506571D01*
X130119572Y-84220857D01*
X130191001Y-84149429D01*
X130333858Y-84078000D01*
X130691001Y-84078000D01*
X130833858Y-84149429D01*
X130905287Y-84220857D01*
X130976715Y-84363714D01*
X130976715Y-84720857D01*
X130905287Y-84863714D01*
X130833858Y-84935143D01*
X130691001Y-85006571D01*
X130333858Y-85006571D01*
X130191001Y-84935143D01*
X130119572Y-84863714D01*
X131405286Y-83506571D02*
X131905286Y-85006571D01*
X132405286Y-83506571D01*
D12*
X100330000Y-77470000D02*
X100330000Y-72390000D01*
X113030000Y-77470000D02*
X100330000Y-77470000D01*
X113030000Y-72390000D02*
X113030000Y-77470000D01*
X109220000Y-72390000D02*
X113030000Y-72390000D01*
X109220000Y-71755000D02*
X109220000Y-72390000D01*
X104140000Y-71755000D02*
X109220000Y-71755000D01*
X104140000Y-72390000D02*
X104140000Y-71755000D01*
X100330000Y-72390000D02*
X104140000Y-72390000D01*
X90170000Y-44450000D02*
X95250000Y-44450000D01*
X90170000Y-85090000D02*
X90170000Y-44450000D01*
X95250000Y-85090000D02*
X90170000Y-85090000D01*
X95250000Y-67310000D02*
X95250000Y-85090000D01*
X95885000Y-67310000D02*
X95250000Y-67310000D01*
X95885000Y-62230000D02*
X95885000Y-67310000D01*
X95250000Y-62230000D02*
X95885000Y-62230000D01*
X95250000Y-44450000D02*
X95250000Y-62230000D01*
D11*
X147363571Y-64622857D02*
X145863571Y-64622857D01*
X146577857Y-64622857D02*
X146577857Y-63765714D01*
X147363571Y-63765714D02*
X145863571Y-63765714D01*
X147363571Y-63051428D02*
X145863571Y-63051428D01*
X145863571Y-62694285D01*
X145935000Y-62480000D01*
X146077857Y-62337142D01*
X146220714Y-62265714D01*
X146506429Y-62194285D01*
X146720714Y-62194285D01*
X147006429Y-62265714D01*
X147149286Y-62337142D01*
X147292143Y-62480000D01*
X147363571Y-62694285D01*
X147363571Y-63051428D01*
X147363571Y-61551428D02*
X145863571Y-61551428D01*
X146935000Y-61051428D01*
X145863571Y-60551428D01*
X147363571Y-60551428D01*
X147363571Y-59837142D02*
X145863571Y-59837142D01*
D13*
X126270000Y-66770000D02*
X127345000Y-66770000D01*
X126270000Y-56420000D02*
X127345000Y-56420000D01*
X136620000Y-56420000D02*
X135545000Y-56420000D01*
X136620000Y-66770000D02*
X135545000Y-66770000D01*
X126270000Y-66770000D02*
X126270000Y-65695000D01*
X136620000Y-66770000D02*
X136620000Y-65695000D01*
X136620000Y-56420000D02*
X136620000Y-57495000D01*
X126270000Y-56420000D02*
X126270000Y-57495000D01*
X127345000Y-66770000D02*
X127345000Y-67795000D01*
D14*
X100076000Y-81280000D02*
G75*
G03X100076000Y-81280000I-2286000J0D01*
G01*
X118960000Y-79240000D02*
X118960000Y-78240000D01*
X117260000Y-78240000D02*
X117260000Y-79240000D01*
X126500000Y-74510000D02*
X127500000Y-74510000D01*
X127500000Y-72810000D02*
X126500000Y-72810000D01*
X131025000Y-73906000D02*
X131025000Y-72906000D01*
X129325000Y-72906000D02*
X129325000Y-73906000D01*
X119880000Y-81700000D02*
X118880000Y-81700000D01*
X118880000Y-83400000D02*
X119880000Y-83400000D01*
X143010000Y-77812000D02*
X144010000Y-77812000D01*
X144010000Y-76112000D02*
X143010000Y-76112000D01*
X137930000Y-74510000D02*
X138930000Y-74510000D01*
X138930000Y-72810000D02*
X137930000Y-72810000D01*
X127500000Y-81700000D02*
X126500000Y-81700000D01*
X126500000Y-83400000D02*
X127500000Y-83400000D01*
X120360000Y-77860000D02*
X120360000Y-79620000D01*
X123430000Y-79620000D02*
X123430000Y-77190000D01*
X131790000Y-77860000D02*
X131790000Y-79620000D01*
X134860000Y-79620000D02*
X134860000Y-77190000D01*
X117260000Y-73160000D02*
X117260000Y-74160000D01*
X118960000Y-74160000D02*
X118960000Y-73160000D01*
X126500000Y-71970000D02*
X127500000Y-71970000D01*
X127500000Y-70270000D02*
X126500000Y-70270000D01*
X122420000Y-72810000D02*
X121420000Y-72810000D01*
X121420000Y-74510000D02*
X122420000Y-74510000D01*
X143010000Y-75526000D02*
X144010000Y-75526000D01*
X144010000Y-73826000D02*
X143010000Y-73826000D01*
X133850000Y-72810000D02*
X132850000Y-72810000D01*
X132850000Y-74510000D02*
X133850000Y-74510000D01*
X95310000Y-82550000D02*
X95310000Y-44390000D01*
X95310000Y-44390000D02*
X90110000Y-44390000D01*
X90110000Y-44390000D02*
X90110000Y-85150000D01*
X90110000Y-85150000D02*
X92710000Y-85150000D01*
X92710000Y-85150000D02*
X92710000Y-82550000D01*
X92710000Y-82550000D02*
X95310000Y-82550000D01*
X95310000Y-83820000D02*
X95310000Y-85150000D01*
X95310000Y-85150000D02*
X93980000Y-85150000D01*
X135890000Y-82490000D02*
X133290000Y-82490000D01*
X133290000Y-82490000D02*
X133290000Y-85150000D01*
X133290000Y-85150000D02*
X135890000Y-85150000D01*
X135890000Y-85150000D02*
X135890000Y-82490000D01*
X137160000Y-82490000D02*
X138490000Y-82490000D01*
X138490000Y-82490000D02*
X138490000Y-83820000D01*
D15*
X151980000Y-72270000D02*
X149810000Y-72270000D01*
X151980000Y-57270000D02*
X149810000Y-57270000D01*
X151980000Y-57270000D02*
X151980000Y-72270000D01*
D14*
X124850000Y-79340000D02*
X124850000Y-78140000D01*
X126610000Y-78140000D02*
X126610000Y-79340000D01*
X127390000Y-79340000D02*
X127390000Y-78140000D01*
X129150000Y-78140000D02*
X129150000Y-79340000D01*
X132680000Y-70730000D02*
X131480000Y-70730000D01*
X131480000Y-68970000D02*
X132680000Y-68970000D01*
X134230000Y-46390000D02*
X134230000Y-47590000D01*
X132470000Y-47590000D02*
X132470000Y-46390000D01*
X136770000Y-46390000D02*
X136770000Y-47590000D01*
X135010000Y-47590000D02*
X135010000Y-46390000D01*
X136560000Y-68970000D02*
X137760000Y-68970000D01*
X137760000Y-70730000D02*
X136560000Y-70730000D01*
X139310000Y-50200000D02*
X139310000Y-51400000D01*
X137550000Y-51400000D02*
X137550000Y-50200000D01*
X141850000Y-50200000D02*
X141850000Y-51400000D01*
X140090000Y-51400000D02*
X140090000Y-50200000D01*
X136280000Y-79340000D02*
X136280000Y-78140000D01*
X138040000Y-78140000D02*
X138040000Y-79340000D01*
X138820000Y-79340000D02*
X138820000Y-78140000D01*
X140580000Y-78140000D02*
X140580000Y-79340000D01*
D13*
X101240000Y-65880000D02*
X100490000Y-65130000D01*
X100490000Y-46630000D02*
X100490000Y-45880000D01*
X100490000Y-45880000D02*
X101240000Y-45880000D01*
X120490000Y-65130000D02*
X120490000Y-65880000D01*
X120490000Y-65880000D02*
X119740000Y-65880000D01*
X120490000Y-46630000D02*
X120490000Y-45880000D01*
X120490000Y-45880000D02*
X119740000Y-45880000D01*
D14*
X129600000Y-48328000D02*
X129600000Y-44128000D01*
X129600000Y-44128000D02*
X124400000Y-44128000D01*
X113090000Y-77540000D02*
X110490000Y-77540000D01*
X110490000Y-77540000D02*
X110490000Y-80160000D01*
X110490000Y-80160000D02*
X113090000Y-80160000D01*
X113090000Y-80160000D02*
X113090000Y-77540000D01*
X112140000Y-80160000D02*
X111380000Y-80160000D01*
X111380000Y-80160000D02*
X111380000Y-86160000D01*
X111380000Y-86160000D02*
X112140000Y-86160000D01*
X112140000Y-86160000D02*
X112140000Y-80160000D01*
X112140000Y-77110000D02*
X112140000Y-77540000D01*
X111380000Y-77110000D02*
X111380000Y-77540000D01*
X112140000Y-74570000D02*
X112140000Y-75290000D01*
X111380000Y-74570000D02*
X111380000Y-75290000D01*
X112020000Y-80160000D02*
X112020000Y-86160000D01*
X111900000Y-80160000D02*
X111900000Y-86160000D01*
X111780000Y-80160000D02*
X111780000Y-86160000D01*
X111660000Y-80160000D02*
X111660000Y-86160000D01*
X111540000Y-80160000D02*
X111540000Y-86160000D01*
X111420000Y-80160000D02*
X111420000Y-86160000D01*
X110490000Y-77540000D02*
X107950000Y-77540000D01*
X107950000Y-77540000D02*
X107950000Y-80160000D01*
X107950000Y-80160000D02*
X110490000Y-80160000D01*
X110490000Y-80160000D02*
X110490000Y-77540000D01*
X109600000Y-80160000D02*
X108840000Y-80160000D01*
X108840000Y-80160000D02*
X108840000Y-86160000D01*
X108840000Y-86160000D02*
X109600000Y-86160000D01*
X109600000Y-86160000D02*
X109600000Y-80160000D01*
X109600000Y-77110000D02*
X109600000Y-77540000D01*
X108840000Y-77110000D02*
X108840000Y-77540000D01*
X109600000Y-74570000D02*
X109600000Y-75290000D01*
X108840000Y-74570000D02*
X108840000Y-75290000D01*
X107950000Y-77540000D02*
X105410000Y-77540000D01*
X105410000Y-77540000D02*
X105410000Y-80160000D01*
X105410000Y-80160000D02*
X107950000Y-80160000D01*
X107950000Y-80160000D02*
X107950000Y-77540000D01*
X107060000Y-80160000D02*
X106300000Y-80160000D01*
X106300000Y-80160000D02*
X106300000Y-86160000D01*
X106300000Y-86160000D02*
X107060000Y-86160000D01*
X107060000Y-86160000D02*
X107060000Y-80160000D01*
X107060000Y-77110000D02*
X107060000Y-77540000D01*
X106300000Y-77110000D02*
X106300000Y-77540000D01*
X107060000Y-74570000D02*
X107060000Y-75290000D01*
X106300000Y-74570000D02*
X106300000Y-75290000D01*
X105410000Y-77540000D02*
X102870000Y-77540000D01*
X102870000Y-77540000D02*
X102870000Y-80160000D01*
X102870000Y-80160000D02*
X105410000Y-80160000D01*
X105410000Y-80160000D02*
X105410000Y-77540000D01*
X104520000Y-80160000D02*
X103760000Y-80160000D01*
X103760000Y-80160000D02*
X103760000Y-86160000D01*
X103760000Y-86160000D02*
X104520000Y-86160000D01*
X104520000Y-86160000D02*
X104520000Y-80160000D01*
X104520000Y-77110000D02*
X104520000Y-77540000D01*
X103760000Y-77110000D02*
X103760000Y-77540000D01*
X104520000Y-74570000D02*
X104520000Y-75290000D01*
X103760000Y-74570000D02*
X103760000Y-75290000D01*
X102870000Y-77540000D02*
X100270000Y-77540000D01*
X100270000Y-77540000D02*
X100270000Y-80160000D01*
X100270000Y-80160000D02*
X102870000Y-80160000D01*
X102870000Y-80160000D02*
X102870000Y-77540000D01*
X101980000Y-80160000D02*
X101220000Y-80160000D01*
X101220000Y-80160000D02*
X101220000Y-86160000D01*
X101220000Y-86160000D02*
X101980000Y-86160000D01*
X101980000Y-86160000D02*
X101980000Y-80160000D01*
X101980000Y-77110000D02*
X101980000Y-77540000D01*
X101220000Y-77110000D02*
X101220000Y-77540000D01*
X101980000Y-74570000D02*
X101980000Y-75290000D01*
X101220000Y-74570000D02*
X101220000Y-75290000D01*
X111760000Y-72390000D02*
X113030000Y-72390000D01*
X113030000Y-72390000D02*
X113030000Y-73660000D01*
X147066000Y-48260000D02*
G75*
G03X147066000Y-48260000I-2286000J0D01*
G01*
X147066000Y-81280000D02*
G75*
G03X147066000Y-81280000I-2286000J0D01*
G01*
D16*
G36*
X127301814Y-49411931D02*
X127385635Y-49856555D01*
X127694920Y-49984053D01*
X128004206Y-50111551D01*
X128375246Y-49859246D01*
X128479157Y-49788996D01*
X128573087Y-49726272D01*
X128652652Y-49673938D01*
X128713470Y-49634857D01*
X128751157Y-49611893D01*
X128761421Y-49606942D01*
X128779910Y-49619676D01*
X128819420Y-49654882D01*
X128875522Y-49708062D01*
X128943787Y-49774718D01*
X129019786Y-49850354D01*
X129099092Y-49930472D01*
X129177275Y-50010574D01*
X129249907Y-50086164D01*
X129312559Y-50152745D01*
X129360803Y-50205818D01*
X129390210Y-50240887D01*
X129397241Y-50252623D01*
X129387123Y-50274260D01*
X129358759Y-50321662D01*
X129315129Y-50390193D01*
X129259218Y-50475215D01*
X129194006Y-50572093D01*
X129156219Y-50627350D01*
X129087343Y-50728248D01*
X129026140Y-50819299D01*
X128975578Y-50895970D01*
X128938628Y-50953728D01*
X128918258Y-50988043D01*
X128915197Y-50995254D01*
X128922136Y-51015748D01*
X128941051Y-51063513D01*
X128969087Y-51131832D01*
X129003391Y-51213989D01*
X129041109Y-51303270D01*
X129079387Y-51392958D01*
X129115370Y-51476338D01*
X129146206Y-51546694D01*
X129169039Y-51597310D01*
X129181017Y-51621471D01*
X129181724Y-51622422D01*
X129200531Y-51627036D01*
X129250618Y-51637328D01*
X129326793Y-51652287D01*
X129423865Y-51670901D01*
X129536643Y-51692159D01*
X129602442Y-51704418D01*
X129722950Y-51727362D01*
X129831797Y-51749195D01*
X129923476Y-51768722D01*
X129992481Y-51784748D01*
X130033304Y-51796079D01*
X130041511Y-51799674D01*
X130049548Y-51824006D01*
X130056033Y-51878959D01*
X130060970Y-51958108D01*
X130064364Y-52055026D01*
X130066218Y-52163287D01*
X130066538Y-52276465D01*
X130065327Y-52388135D01*
X130062590Y-52491868D01*
X130058331Y-52581241D01*
X130052555Y-52649826D01*
X130045267Y-52691197D01*
X130040895Y-52699810D01*
X130014764Y-52710133D01*
X129959393Y-52724892D01*
X129882107Y-52742352D01*
X129790230Y-52760780D01*
X129758158Y-52766741D01*
X129603524Y-52795066D01*
X129481375Y-52817876D01*
X129387673Y-52836080D01*
X129318384Y-52850583D01*
X129269471Y-52862292D01*
X129236897Y-52872115D01*
X129216628Y-52880956D01*
X129204626Y-52889724D01*
X129202947Y-52891457D01*
X129186184Y-52919371D01*
X129160614Y-52973695D01*
X129128788Y-53047777D01*
X129093260Y-53134965D01*
X129056583Y-53228608D01*
X129021311Y-53322052D01*
X128989996Y-53408647D01*
X128965193Y-53481740D01*
X128949454Y-53534678D01*
X128945332Y-53560811D01*
X128945676Y-53561726D01*
X128959641Y-53583086D01*
X128991322Y-53630084D01*
X129037391Y-53697827D01*
X129094518Y-53781423D01*
X129159373Y-53875982D01*
X129177843Y-53902854D01*
X129243699Y-54000275D01*
X129301650Y-54089163D01*
X129348538Y-54164412D01*
X129381207Y-54220920D01*
X129396500Y-54253581D01*
X129397241Y-54257593D01*
X129384392Y-54278684D01*
X129348888Y-54320464D01*
X129295293Y-54378445D01*
X129228171Y-54448135D01*
X129152087Y-54525045D01*
X129071604Y-54604683D01*
X128991287Y-54682561D01*
X128915699Y-54754186D01*
X128849405Y-54815070D01*
X128796969Y-54860721D01*
X128762955Y-54886650D01*
X128753545Y-54890883D01*
X128731643Y-54880912D01*
X128686800Y-54854020D01*
X128626321Y-54814736D01*
X128579789Y-54783117D01*
X128495475Y-54725098D01*
X128395626Y-54656784D01*
X128295473Y-54588579D01*
X128241627Y-54552075D01*
X128059371Y-54428800D01*
X127906381Y-54511520D01*
X127836682Y-54547759D01*
X127777414Y-54575926D01*
X127737311Y-54591991D01*
X127727103Y-54594226D01*
X127714829Y-54577722D01*
X127690613Y-54531082D01*
X127656263Y-54458609D01*
X127613588Y-54364606D01*
X127564394Y-54253374D01*
X127510490Y-54129215D01*
X127453684Y-53996432D01*
X127395782Y-53859327D01*
X127338593Y-53722202D01*
X127283924Y-53589358D01*
X127233584Y-53465098D01*
X127189380Y-53353725D01*
X127153119Y-53259539D01*
X127126609Y-53186844D01*
X127111658Y-53139941D01*
X127109254Y-53123833D01*
X127128311Y-53103286D01*
X127170036Y-53069933D01*
X127225706Y-53030702D01*
X127230378Y-53027599D01*
X127374264Y-52912423D01*
X127490283Y-52778053D01*
X127577430Y-52628784D01*
X127634699Y-52468913D01*
X127661086Y-52302737D01*
X127655585Y-52134552D01*
X127617190Y-51968655D01*
X127544895Y-51809342D01*
X127523626Y-51774487D01*
X127412996Y-51633737D01*
X127282302Y-51520714D01*
X127136064Y-51436003D01*
X126978808Y-51380194D01*
X126815057Y-51353874D01*
X126649333Y-51357630D01*
X126486162Y-51392050D01*
X126330065Y-51457723D01*
X126185567Y-51555235D01*
X126140869Y-51594813D01*
X126027112Y-51718703D01*
X125944218Y-51849124D01*
X125887356Y-51995315D01*
X125855687Y-52140088D01*
X125847869Y-52302860D01*
X125873938Y-52466440D01*
X125931245Y-52625298D01*
X126017144Y-52773906D01*
X126128986Y-52906735D01*
X126264123Y-53018256D01*
X126281883Y-53030011D01*
X126338150Y-53068508D01*
X126380923Y-53101863D01*
X126401372Y-53123160D01*
X126401669Y-53123833D01*
X126397279Y-53146871D01*
X126379876Y-53199157D01*
X126351268Y-53276390D01*
X126313265Y-53374268D01*
X126267674Y-53488491D01*
X126216303Y-53614758D01*
X126160962Y-53748767D01*
X126103458Y-53886218D01*
X126045601Y-54022808D01*
X125989198Y-54154237D01*
X125936058Y-54276205D01*
X125887990Y-54384409D01*
X125846801Y-54474549D01*
X125814301Y-54542323D01*
X125792297Y-54583430D01*
X125783436Y-54594226D01*
X125756360Y-54585819D01*
X125705697Y-54563272D01*
X125640183Y-54530613D01*
X125604159Y-54511520D01*
X125451168Y-54428800D01*
X125268912Y-54552075D01*
X125175875Y-54615228D01*
X125074015Y-54684727D01*
X124978562Y-54750165D01*
X124930750Y-54783117D01*
X124863505Y-54828273D01*
X124806564Y-54864057D01*
X124767354Y-54885938D01*
X124754619Y-54890563D01*
X124736083Y-54878085D01*
X124695059Y-54843252D01*
X124635525Y-54789678D01*
X124561458Y-54720983D01*
X124476835Y-54640781D01*
X124423315Y-54589286D01*
X124329681Y-54497286D01*
X124248759Y-54414999D01*
X124183823Y-54345945D01*
X124138142Y-54293644D01*
X124114989Y-54261616D01*
X124112768Y-54255116D01*
X124123076Y-54230394D01*
X124151561Y-54180405D01*
X124195063Y-54110212D01*
X124250423Y-54024875D01*
X124314480Y-53929456D01*
X124332697Y-53902854D01*
X124399073Y-53806167D01*
X124458622Y-53719117D01*
X124508016Y-53646595D01*
X124543925Y-53593493D01*
X124563019Y-53564703D01*
X124564864Y-53561726D01*
X124562105Y-53538782D01*
X124547462Y-53488336D01*
X124523487Y-53417041D01*
X124492734Y-53331547D01*
X124457756Y-53238507D01*
X124421107Y-53144574D01*
X124385339Y-53056399D01*
X124353006Y-52980634D01*
X124326662Y-52923931D01*
X124308858Y-52892943D01*
X124307593Y-52891457D01*
X124296706Y-52882601D01*
X124278318Y-52873843D01*
X124248394Y-52864277D01*
X124202897Y-52852996D01*
X124137791Y-52839093D01*
X124049039Y-52821663D01*
X123932607Y-52799798D01*
X123784458Y-52772591D01*
X123752382Y-52766741D01*
X123657314Y-52748374D01*
X123574435Y-52730405D01*
X123511070Y-52714569D01*
X123474542Y-52702600D01*
X123469644Y-52699810D01*
X123461573Y-52675072D01*
X123455013Y-52619790D01*
X123449967Y-52540389D01*
X123446441Y-52443296D01*
X123444439Y-52334938D01*
X123443964Y-52221740D01*
X123445023Y-52110128D01*
X123447618Y-52006529D01*
X123451754Y-51917368D01*
X123457437Y-51849072D01*
X123464669Y-51808066D01*
X123469029Y-51799674D01*
X123493302Y-51791208D01*
X123548574Y-51777435D01*
X123629338Y-51759550D01*
X123730088Y-51738748D01*
X123845317Y-51716223D01*
X123908098Y-51704418D01*
X124027213Y-51682151D01*
X124133435Y-51661979D01*
X124221573Y-51644915D01*
X124286434Y-51631969D01*
X124322826Y-51624155D01*
X124328816Y-51622422D01*
X124338939Y-51602890D01*
X124360338Y-51555843D01*
X124390161Y-51488003D01*
X124425555Y-51406091D01*
X124463668Y-51316828D01*
X124501647Y-51226935D01*
X124536640Y-51143135D01*
X124565794Y-51072147D01*
X124586257Y-51020694D01*
X124595177Y-50995497D01*
X124595343Y-50994396D01*
X124585231Y-50974519D01*
X124556883Y-50928777D01*
X124513277Y-50861717D01*
X124457394Y-50777884D01*
X124392213Y-50681826D01*
X124354321Y-50626650D01*
X124285275Y-50525481D01*
X124223950Y-50433630D01*
X124173337Y-50355744D01*
X124136429Y-50296469D01*
X124116218Y-50260451D01*
X124113299Y-50252377D01*
X124125847Y-50233584D01*
X124160537Y-50193457D01*
X124212937Y-50136493D01*
X124278616Y-50067185D01*
X124353144Y-49990031D01*
X124432087Y-49909525D01*
X124511017Y-49830163D01*
X124585500Y-49756440D01*
X124651106Y-49692852D01*
X124703404Y-49643894D01*
X124737961Y-49614061D01*
X124749522Y-49606942D01*
X124768346Y-49616953D01*
X124813369Y-49645078D01*
X124880213Y-49688454D01*
X124964501Y-49744218D01*
X125061856Y-49809506D01*
X125135293Y-49859246D01*
X125506333Y-50111551D01*
X126124905Y-49856555D01*
X126208725Y-49411931D01*
X126292546Y-48967307D01*
X127217994Y-48967307D01*
X127301814Y-49411931D01*
X127301814Y-49411931D01*
G37*
X127301814Y-49411931D02*
X127385635Y-49856555D01*
X127694920Y-49984053D01*
X128004206Y-50111551D01*
X128375246Y-49859246D01*
X128479157Y-49788996D01*
X128573087Y-49726272D01*
X128652652Y-49673938D01*
X128713470Y-49634857D01*
X128751157Y-49611893D01*
X128761421Y-49606942D01*
X128779910Y-49619676D01*
X128819420Y-49654882D01*
X128875522Y-49708062D01*
X128943787Y-49774718D01*
X129019786Y-49850354D01*
X129099092Y-49930472D01*
X129177275Y-50010574D01*
X129249907Y-50086164D01*
X129312559Y-50152745D01*
X129360803Y-50205818D01*
X129390210Y-50240887D01*
X129397241Y-50252623D01*
X129387123Y-50274260D01*
X129358759Y-50321662D01*
X129315129Y-50390193D01*
X129259218Y-50475215D01*
X129194006Y-50572093D01*
X129156219Y-50627350D01*
X129087343Y-50728248D01*
X129026140Y-50819299D01*
X128975578Y-50895970D01*
X128938628Y-50953728D01*
X128918258Y-50988043D01*
X128915197Y-50995254D01*
X128922136Y-51015748D01*
X128941051Y-51063513D01*
X128969087Y-51131832D01*
X129003391Y-51213989D01*
X129041109Y-51303270D01*
X129079387Y-51392958D01*
X129115370Y-51476338D01*
X129146206Y-51546694D01*
X129169039Y-51597310D01*
X129181017Y-51621471D01*
X129181724Y-51622422D01*
X129200531Y-51627036D01*
X129250618Y-51637328D01*
X129326793Y-51652287D01*
X129423865Y-51670901D01*
X129536643Y-51692159D01*
X129602442Y-51704418D01*
X129722950Y-51727362D01*
X129831797Y-51749195D01*
X129923476Y-51768722D01*
X129992481Y-51784748D01*
X130033304Y-51796079D01*
X130041511Y-51799674D01*
X130049548Y-51824006D01*
X130056033Y-51878959D01*
X130060970Y-51958108D01*
X130064364Y-52055026D01*
X130066218Y-52163287D01*
X130066538Y-52276465D01*
X130065327Y-52388135D01*
X130062590Y-52491868D01*
X130058331Y-52581241D01*
X130052555Y-52649826D01*
X130045267Y-52691197D01*
X130040895Y-52699810D01*
X130014764Y-52710133D01*
X129959393Y-52724892D01*
X129882107Y-52742352D01*
X129790230Y-52760780D01*
X129758158Y-52766741D01*
X129603524Y-52795066D01*
X129481375Y-52817876D01*
X129387673Y-52836080D01*
X129318384Y-52850583D01*
X129269471Y-52862292D01*
X129236897Y-52872115D01*
X129216628Y-52880956D01*
X129204626Y-52889724D01*
X129202947Y-52891457D01*
X129186184Y-52919371D01*
X129160614Y-52973695D01*
X129128788Y-53047777D01*
X129093260Y-53134965D01*
X129056583Y-53228608D01*
X129021311Y-53322052D01*
X128989996Y-53408647D01*
X128965193Y-53481740D01*
X128949454Y-53534678D01*
X128945332Y-53560811D01*
X128945676Y-53561726D01*
X128959641Y-53583086D01*
X128991322Y-53630084D01*
X129037391Y-53697827D01*
X129094518Y-53781423D01*
X129159373Y-53875982D01*
X129177843Y-53902854D01*
X129243699Y-54000275D01*
X129301650Y-54089163D01*
X129348538Y-54164412D01*
X129381207Y-54220920D01*
X129396500Y-54253581D01*
X129397241Y-54257593D01*
X129384392Y-54278684D01*
X129348888Y-54320464D01*
X129295293Y-54378445D01*
X129228171Y-54448135D01*
X129152087Y-54525045D01*
X129071604Y-54604683D01*
X128991287Y-54682561D01*
X128915699Y-54754186D01*
X128849405Y-54815070D01*
X128796969Y-54860721D01*
X128762955Y-54886650D01*
X128753545Y-54890883D01*
X128731643Y-54880912D01*
X128686800Y-54854020D01*
X128626321Y-54814736D01*
X128579789Y-54783117D01*
X128495475Y-54725098D01*
X128395626Y-54656784D01*
X128295473Y-54588579D01*
X128241627Y-54552075D01*
X128059371Y-54428800D01*
X127906381Y-54511520D01*
X127836682Y-54547759D01*
X127777414Y-54575926D01*
X127737311Y-54591991D01*
X127727103Y-54594226D01*
X127714829Y-54577722D01*
X127690613Y-54531082D01*
X127656263Y-54458609D01*
X127613588Y-54364606D01*
X127564394Y-54253374D01*
X127510490Y-54129215D01*
X127453684Y-53996432D01*
X127395782Y-53859327D01*
X127338593Y-53722202D01*
X127283924Y-53589358D01*
X127233584Y-53465098D01*
X127189380Y-53353725D01*
X127153119Y-53259539D01*
X127126609Y-53186844D01*
X127111658Y-53139941D01*
X127109254Y-53123833D01*
X127128311Y-53103286D01*
X127170036Y-53069933D01*
X127225706Y-53030702D01*
X127230378Y-53027599D01*
X127374264Y-52912423D01*
X127490283Y-52778053D01*
X127577430Y-52628784D01*
X127634699Y-52468913D01*
X127661086Y-52302737D01*
X127655585Y-52134552D01*
X127617190Y-51968655D01*
X127544895Y-51809342D01*
X127523626Y-51774487D01*
X127412996Y-51633737D01*
X127282302Y-51520714D01*
X127136064Y-51436003D01*
X126978808Y-51380194D01*
X126815057Y-51353874D01*
X126649333Y-51357630D01*
X126486162Y-51392050D01*
X126330065Y-51457723D01*
X126185567Y-51555235D01*
X126140869Y-51594813D01*
X126027112Y-51718703D01*
X125944218Y-51849124D01*
X125887356Y-51995315D01*
X125855687Y-52140088D01*
X125847869Y-52302860D01*
X125873938Y-52466440D01*
X125931245Y-52625298D01*
X126017144Y-52773906D01*
X126128986Y-52906735D01*
X126264123Y-53018256D01*
X126281883Y-53030011D01*
X126338150Y-53068508D01*
X126380923Y-53101863D01*
X126401372Y-53123160D01*
X126401669Y-53123833D01*
X126397279Y-53146871D01*
X126379876Y-53199157D01*
X126351268Y-53276390D01*
X126313265Y-53374268D01*
X126267674Y-53488491D01*
X126216303Y-53614758D01*
X126160962Y-53748767D01*
X126103458Y-53886218D01*
X126045601Y-54022808D01*
X125989198Y-54154237D01*
X125936058Y-54276205D01*
X125887990Y-54384409D01*
X125846801Y-54474549D01*
X125814301Y-54542323D01*
X125792297Y-54583430D01*
X125783436Y-54594226D01*
X125756360Y-54585819D01*
X125705697Y-54563272D01*
X125640183Y-54530613D01*
X125604159Y-54511520D01*
X125451168Y-54428800D01*
X125268912Y-54552075D01*
X125175875Y-54615228D01*
X125074015Y-54684727D01*
X124978562Y-54750165D01*
X124930750Y-54783117D01*
X124863505Y-54828273D01*
X124806564Y-54864057D01*
X124767354Y-54885938D01*
X124754619Y-54890563D01*
X124736083Y-54878085D01*
X124695059Y-54843252D01*
X124635525Y-54789678D01*
X124561458Y-54720983D01*
X124476835Y-54640781D01*
X124423315Y-54589286D01*
X124329681Y-54497286D01*
X124248759Y-54414999D01*
X124183823Y-54345945D01*
X124138142Y-54293644D01*
X124114989Y-54261616D01*
X124112768Y-54255116D01*
X124123076Y-54230394D01*
X124151561Y-54180405D01*
X124195063Y-54110212D01*
X124250423Y-54024875D01*
X124314480Y-53929456D01*
X124332697Y-53902854D01*
X124399073Y-53806167D01*
X124458622Y-53719117D01*
X124508016Y-53646595D01*
X124543925Y-53593493D01*
X124563019Y-53564703D01*
X124564864Y-53561726D01*
X124562105Y-53538782D01*
X124547462Y-53488336D01*
X124523487Y-53417041D01*
X124492734Y-53331547D01*
X124457756Y-53238507D01*
X124421107Y-53144574D01*
X124385339Y-53056399D01*
X124353006Y-52980634D01*
X124326662Y-52923931D01*
X124308858Y-52892943D01*
X124307593Y-52891457D01*
X124296706Y-52882601D01*
X124278318Y-52873843D01*
X124248394Y-52864277D01*
X124202897Y-52852996D01*
X124137791Y-52839093D01*
X124049039Y-52821663D01*
X123932607Y-52799798D01*
X123784458Y-52772591D01*
X123752382Y-52766741D01*
X123657314Y-52748374D01*
X123574435Y-52730405D01*
X123511070Y-52714569D01*
X123474542Y-52702600D01*
X123469644Y-52699810D01*
X123461573Y-52675072D01*
X123455013Y-52619790D01*
X123449967Y-52540389D01*
X123446441Y-52443296D01*
X123444439Y-52334938D01*
X123443964Y-52221740D01*
X123445023Y-52110128D01*
X123447618Y-52006529D01*
X123451754Y-51917368D01*
X123457437Y-51849072D01*
X123464669Y-51808066D01*
X123469029Y-51799674D01*
X123493302Y-51791208D01*
X123548574Y-51777435D01*
X123629338Y-51759550D01*
X123730088Y-51738748D01*
X123845317Y-51716223D01*
X123908098Y-51704418D01*
X124027213Y-51682151D01*
X124133435Y-51661979D01*
X124221573Y-51644915D01*
X124286434Y-51631969D01*
X124322826Y-51624155D01*
X124328816Y-51622422D01*
X124338939Y-51602890D01*
X124360338Y-51555843D01*
X124390161Y-51488003D01*
X124425555Y-51406091D01*
X124463668Y-51316828D01*
X124501647Y-51226935D01*
X124536640Y-51143135D01*
X124565794Y-51072147D01*
X124586257Y-51020694D01*
X124595177Y-50995497D01*
X124595343Y-50994396D01*
X124585231Y-50974519D01*
X124556883Y-50928777D01*
X124513277Y-50861717D01*
X124457394Y-50777884D01*
X124392213Y-50681826D01*
X124354321Y-50626650D01*
X124285275Y-50525481D01*
X124223950Y-50433630D01*
X124173337Y-50355744D01*
X124136429Y-50296469D01*
X124116218Y-50260451D01*
X124113299Y-50252377D01*
X124125847Y-50233584D01*
X124160537Y-50193457D01*
X124212937Y-50136493D01*
X124278616Y-50067185D01*
X124353144Y-49990031D01*
X124432087Y-49909525D01*
X124511017Y-49830163D01*
X124585500Y-49756440D01*
X124651106Y-49692852D01*
X124703404Y-49643894D01*
X124737961Y-49614061D01*
X124749522Y-49606942D01*
X124768346Y-49616953D01*
X124813369Y-49645078D01*
X124880213Y-49688454D01*
X124964501Y-49744218D01*
X125061856Y-49809506D01*
X125135293Y-49859246D01*
X125506333Y-50111551D01*
X126124905Y-49856555D01*
X126208725Y-49411931D01*
X126292546Y-48967307D01*
X127217994Y-48967307D01*
X127301814Y-49411931D01*
D13*
X123697381Y-62356905D02*
X124506905Y-62356905D01*
X124602143Y-62309286D01*
X124649762Y-62261667D01*
X124697381Y-62166429D01*
X124697381Y-61975952D01*
X124649762Y-61880714D01*
X124602143Y-61833095D01*
X124506905Y-61785476D01*
X123697381Y-61785476D01*
X123697381Y-61404524D02*
X123697381Y-60785476D01*
X124078333Y-61118810D01*
X124078333Y-60975952D01*
X124125952Y-60880714D01*
X124173571Y-60833095D01*
X124268810Y-60785476D01*
X124506905Y-60785476D01*
X124602143Y-60833095D01*
X124649762Y-60880714D01*
X124697381Y-60975952D01*
X124697381Y-61261667D01*
X124649762Y-61356905D01*
X124602143Y-61404524D01*
X116562143Y-79255857D02*
X116609762Y-79303476D01*
X116657381Y-79446333D01*
X116657381Y-79541571D01*
X116609762Y-79684429D01*
X116514524Y-79779667D01*
X116419286Y-79827286D01*
X116228810Y-79874905D01*
X116085952Y-79874905D01*
X115895476Y-79827286D01*
X115800238Y-79779667D01*
X115705000Y-79684429D01*
X115657381Y-79541571D01*
X115657381Y-79446333D01*
X115705000Y-79303476D01*
X115752619Y-79255857D01*
X115752619Y-78874905D02*
X115705000Y-78827286D01*
X115657381Y-78732048D01*
X115657381Y-78493952D01*
X115705000Y-78398714D01*
X115752619Y-78351095D01*
X115847857Y-78303476D01*
X115943095Y-78303476D01*
X116085952Y-78351095D01*
X116657381Y-78922524D01*
X116657381Y-78303476D01*
X116657381Y-77351095D02*
X116657381Y-77922524D01*
X116657381Y-77636810D02*
X115657381Y-77636810D01*
X115800238Y-77732048D01*
X115895476Y-77827286D01*
X115943095Y-77922524D01*
X126357143Y-75767143D02*
X126309524Y-75814762D01*
X126166667Y-75862381D01*
X126071429Y-75862381D01*
X125928571Y-75814762D01*
X125833333Y-75719524D01*
X125785714Y-75624286D01*
X125738095Y-75433810D01*
X125738095Y-75290952D01*
X125785714Y-75100476D01*
X125833333Y-75005238D01*
X125928571Y-74910000D01*
X126071429Y-74862381D01*
X126166667Y-74862381D01*
X126309524Y-74910000D01*
X126357143Y-74957619D01*
X126738095Y-74957619D02*
X126785714Y-74910000D01*
X126880952Y-74862381D01*
X127119048Y-74862381D01*
X127214286Y-74910000D01*
X127261905Y-74957619D01*
X127309524Y-75052857D01*
X127309524Y-75148095D01*
X127261905Y-75290952D01*
X126690476Y-75862381D01*
X127309524Y-75862381D01*
X128166667Y-75195714D02*
X128166667Y-75862381D01*
X127928571Y-74814762D02*
X127690476Y-75529048D01*
X128309524Y-75529048D01*
X130786143Y-77858857D02*
X130833762Y-77906476D01*
X130881381Y-78049333D01*
X130881381Y-78144571D01*
X130833762Y-78287429D01*
X130738524Y-78382667D01*
X130643286Y-78430286D01*
X130452810Y-78477905D01*
X130309952Y-78477905D01*
X130119476Y-78430286D01*
X130024238Y-78382667D01*
X129929000Y-78287429D01*
X129881381Y-78144571D01*
X129881381Y-78049333D01*
X129929000Y-77906476D01*
X129976619Y-77858857D01*
X129976619Y-77477905D02*
X129929000Y-77430286D01*
X129881381Y-77335048D01*
X129881381Y-77096952D01*
X129929000Y-77001714D01*
X129976619Y-76954095D01*
X130071857Y-76906476D01*
X130167095Y-76906476D01*
X130309952Y-76954095D01*
X130881381Y-77525524D01*
X130881381Y-76906476D01*
X129881381Y-76049333D02*
X129881381Y-76239810D01*
X129929000Y-76335048D01*
X129976619Y-76382667D01*
X130119476Y-76477905D01*
X130309952Y-76525524D01*
X130690905Y-76525524D01*
X130786143Y-76477905D01*
X130833762Y-76430286D01*
X130881381Y-76335048D01*
X130881381Y-76144571D01*
X130833762Y-76049333D01*
X130786143Y-76001714D01*
X130690905Y-75954095D01*
X130452810Y-75954095D01*
X130357571Y-76001714D01*
X130309952Y-76049333D01*
X130262333Y-76144571D01*
X130262333Y-76335048D01*
X130309952Y-76430286D01*
X130357571Y-76477905D01*
X130452810Y-76525524D01*
X118737143Y-84558143D02*
X118689524Y-84605762D01*
X118546667Y-84653381D01*
X118451429Y-84653381D01*
X118308571Y-84605762D01*
X118213333Y-84510524D01*
X118165714Y-84415286D01*
X118118095Y-84224810D01*
X118118095Y-84081952D01*
X118165714Y-83891476D01*
X118213333Y-83796238D01*
X118308571Y-83701000D01*
X118451429Y-83653381D01*
X118546667Y-83653381D01*
X118689524Y-83701000D01*
X118737143Y-83748619D01*
X119118095Y-83748619D02*
X119165714Y-83701000D01*
X119260952Y-83653381D01*
X119499048Y-83653381D01*
X119594286Y-83701000D01*
X119641905Y-83748619D01*
X119689524Y-83843857D01*
X119689524Y-83939095D01*
X119641905Y-84081952D01*
X119070476Y-84653381D01*
X119689524Y-84653381D01*
X120022857Y-83653381D02*
X120689524Y-83653381D01*
X120260952Y-84653381D01*
X146804143Y-77446143D02*
X146756524Y-77493762D01*
X146613667Y-77541381D01*
X146518429Y-77541381D01*
X146375571Y-77493762D01*
X146280333Y-77398524D01*
X146232714Y-77303286D01*
X146185095Y-77112810D01*
X146185095Y-76969952D01*
X146232714Y-76779476D01*
X146280333Y-76684238D01*
X146375571Y-76589000D01*
X146518429Y-76541381D01*
X146613667Y-76541381D01*
X146756524Y-76589000D01*
X146804143Y-76636619D01*
X147185095Y-76636619D02*
X147232714Y-76589000D01*
X147327952Y-76541381D01*
X147566048Y-76541381D01*
X147661286Y-76589000D01*
X147708905Y-76636619D01*
X147756524Y-76731857D01*
X147756524Y-76827095D01*
X147708905Y-76969952D01*
X147137476Y-77541381D01*
X147756524Y-77541381D01*
X148232714Y-77541381D02*
X148423190Y-77541381D01*
X148518429Y-77493762D01*
X148566048Y-77446143D01*
X148661286Y-77303286D01*
X148708905Y-77112810D01*
X148708905Y-76731857D01*
X148661286Y-76636619D01*
X148613667Y-76589000D01*
X148518429Y-76541381D01*
X148327952Y-76541381D01*
X148232714Y-76589000D01*
X148185095Y-76636619D01*
X148137476Y-76731857D01*
X148137476Y-76969952D01*
X148185095Y-77065190D01*
X148232714Y-77112810D01*
X148327952Y-77160429D01*
X148518429Y-77160429D01*
X148613667Y-77112810D01*
X148661286Y-77065190D01*
X148708905Y-76969952D01*
X137787143Y-75767143D02*
X137739524Y-75814762D01*
X137596667Y-75862381D01*
X137501429Y-75862381D01*
X137358571Y-75814762D01*
X137263333Y-75719524D01*
X137215714Y-75624286D01*
X137168095Y-75433810D01*
X137168095Y-75290952D01*
X137215714Y-75100476D01*
X137263333Y-75005238D01*
X137358571Y-74910000D01*
X137501429Y-74862381D01*
X137596667Y-74862381D01*
X137739524Y-74910000D01*
X137787143Y-74957619D01*
X138120476Y-74862381D02*
X138739524Y-74862381D01*
X138406190Y-75243333D01*
X138549048Y-75243333D01*
X138644286Y-75290952D01*
X138691905Y-75338571D01*
X138739524Y-75433810D01*
X138739524Y-75671905D01*
X138691905Y-75767143D01*
X138644286Y-75814762D01*
X138549048Y-75862381D01*
X138263333Y-75862381D01*
X138168095Y-75814762D01*
X138120476Y-75767143D01*
X139358571Y-74862381D02*
X139453810Y-74862381D01*
X139549048Y-74910000D01*
X139596667Y-74957619D01*
X139644286Y-75052857D01*
X139691905Y-75243333D01*
X139691905Y-75481429D01*
X139644286Y-75671905D01*
X139596667Y-75767143D01*
X139549048Y-75814762D01*
X139453810Y-75862381D01*
X139358571Y-75862381D01*
X139263333Y-75814762D01*
X139215714Y-75767143D01*
X139168095Y-75671905D01*
X139120476Y-75481429D01*
X139120476Y-75243333D01*
X139168095Y-75052857D01*
X139215714Y-74957619D01*
X139263333Y-74910000D01*
X139358571Y-74862381D01*
X126103143Y-84558143D02*
X126055524Y-84605762D01*
X125912667Y-84653381D01*
X125817429Y-84653381D01*
X125674571Y-84605762D01*
X125579333Y-84510524D01*
X125531714Y-84415286D01*
X125484095Y-84224810D01*
X125484095Y-84081952D01*
X125531714Y-83891476D01*
X125579333Y-83796238D01*
X125674571Y-83701000D01*
X125817429Y-83653381D01*
X125912667Y-83653381D01*
X126055524Y-83701000D01*
X126103143Y-83748619D01*
X126436476Y-83653381D02*
X127055524Y-83653381D01*
X126722190Y-84034333D01*
X126865048Y-84034333D01*
X126960286Y-84081952D01*
X127007905Y-84129571D01*
X127055524Y-84224810D01*
X127055524Y-84462905D01*
X127007905Y-84558143D01*
X126960286Y-84605762D01*
X126865048Y-84653381D01*
X126579333Y-84653381D01*
X126484095Y-84605762D01*
X126436476Y-84558143D01*
X127626952Y-84081952D02*
X127531714Y-84034333D01*
X127484095Y-83986714D01*
X127436476Y-83891476D01*
X127436476Y-83843857D01*
X127484095Y-83748619D01*
X127531714Y-83701000D01*
X127626952Y-83653381D01*
X127817429Y-83653381D01*
X127912667Y-83701000D01*
X127960286Y-83748619D01*
X128007905Y-83843857D01*
X128007905Y-83891476D01*
X127960286Y-83986714D01*
X127912667Y-84034333D01*
X127817429Y-84081952D01*
X127626952Y-84081952D01*
X127531714Y-84129571D01*
X127484095Y-84177190D01*
X127436476Y-84272429D01*
X127436476Y-84462905D01*
X127484095Y-84558143D01*
X127531714Y-84605762D01*
X127626952Y-84653381D01*
X127817429Y-84653381D01*
X127912667Y-84605762D01*
X127960286Y-84558143D01*
X128007905Y-84462905D01*
X128007905Y-84272429D01*
X127960286Y-84177190D01*
X127912667Y-84129571D01*
X127817429Y-84081952D01*
X120086381Y-79716190D02*
X119086381Y-79716190D01*
X119991143Y-78668571D02*
X120038762Y-78716190D01*
X120086381Y-78859047D01*
X120086381Y-78954285D01*
X120038762Y-79097143D01*
X119943524Y-79192381D01*
X119848286Y-79240000D01*
X119657810Y-79287619D01*
X119514952Y-79287619D01*
X119324476Y-79240000D01*
X119229238Y-79192381D01*
X119134000Y-79097143D01*
X119086381Y-78954285D01*
X119086381Y-78859047D01*
X119134000Y-78716190D01*
X119181619Y-78668571D01*
X120086381Y-77716190D02*
X120086381Y-78287619D01*
X120086381Y-78001905D02*
X119086381Y-78001905D01*
X119229238Y-78097143D01*
X119324476Y-78192381D01*
X119372095Y-78287619D01*
X131643381Y-80986190D02*
X130643381Y-80986190D01*
X131548143Y-79938571D02*
X131595762Y-79986190D01*
X131643381Y-80129047D01*
X131643381Y-80224285D01*
X131595762Y-80367143D01*
X131500524Y-80462381D01*
X131405286Y-80510000D01*
X131214810Y-80557619D01*
X131071952Y-80557619D01*
X130881476Y-80510000D01*
X130786238Y-80462381D01*
X130691000Y-80367143D01*
X130643381Y-80224285D01*
X130643381Y-80129047D01*
X130691000Y-79986190D01*
X130738619Y-79938571D01*
X130738619Y-79557619D02*
X130691000Y-79510000D01*
X130643381Y-79414762D01*
X130643381Y-79176666D01*
X130691000Y-79081428D01*
X130738619Y-79033809D01*
X130833857Y-78986190D01*
X130929095Y-78986190D01*
X131071952Y-79033809D01*
X131643381Y-79605238D01*
X131643381Y-78986190D01*
X116812381Y-73826666D02*
X116812381Y-74302857D01*
X115812381Y-74302857D01*
X116812381Y-72969523D02*
X116812381Y-73540952D01*
X116812381Y-73255238D02*
X115812381Y-73255238D01*
X115955238Y-73350476D01*
X116050476Y-73445714D01*
X116098095Y-73540952D01*
X123531334Y-71572381D02*
X123055143Y-71572381D01*
X123055143Y-70572381D01*
X124293239Y-70905714D02*
X124293239Y-71572381D01*
X124055143Y-70524762D02*
X123817048Y-71239048D01*
X124436096Y-71239048D01*
X121753334Y-75509381D02*
X121277143Y-75509381D01*
X121277143Y-74509381D01*
X122562858Y-74509381D02*
X122086667Y-74509381D01*
X122039048Y-74985571D01*
X122086667Y-74937952D01*
X122181905Y-74890333D01*
X122420001Y-74890333D01*
X122515239Y-74937952D01*
X122562858Y-74985571D01*
X122610477Y-75080810D01*
X122610477Y-75318905D01*
X122562858Y-75414143D01*
X122515239Y-75461762D01*
X122420001Y-75509381D01*
X122181905Y-75509381D01*
X122086667Y-75461762D01*
X122039048Y-75414143D01*
X146645334Y-75255381D02*
X146169143Y-75255381D01*
X146169143Y-74255381D01*
X146883429Y-74255381D02*
X147550096Y-74255381D01*
X147121524Y-75255381D01*
X133310334Y-75636381D02*
X132834143Y-75636381D01*
X132834143Y-74636381D01*
X133691286Y-75636381D02*
X133881762Y-75636381D01*
X133977001Y-75588762D01*
X134024620Y-75541143D01*
X134119858Y-75398286D01*
X134167477Y-75207810D01*
X134167477Y-74826857D01*
X134119858Y-74731619D01*
X134072239Y-74684000D01*
X133977001Y-74636381D01*
X133786524Y-74636381D01*
X133691286Y-74684000D01*
X133643667Y-74731619D01*
X133596048Y-74826857D01*
X133596048Y-75064952D01*
X133643667Y-75160190D01*
X133691286Y-75207810D01*
X133786524Y-75255429D01*
X133977001Y-75255429D01*
X134072239Y-75207810D01*
X134119858Y-75160190D01*
X134167477Y-75064952D01*
X97099381Y-51665095D02*
X96099381Y-51665095D01*
X96099381Y-51284142D01*
X96147000Y-51188904D01*
X96194619Y-51141285D01*
X96289857Y-51093666D01*
X96432714Y-51093666D01*
X96527952Y-51141285D01*
X96575571Y-51188904D01*
X96623190Y-51284142D01*
X96623190Y-51665095D01*
X97099381Y-50141285D02*
X97099381Y-50712714D01*
X97099381Y-50427000D02*
X96099381Y-50427000D01*
X96242238Y-50522238D01*
X96337476Y-50617476D01*
X96385095Y-50712714D01*
X139088905Y-82748381D02*
X139088905Y-81748381D01*
X139469858Y-81748381D01*
X139565096Y-81796000D01*
X139612715Y-81843619D01*
X139660334Y-81938857D01*
X139660334Y-82081714D01*
X139612715Y-82176952D01*
X139565096Y-82224571D01*
X139469858Y-82272190D01*
X139088905Y-82272190D01*
X139993667Y-81748381D02*
X140612715Y-81748381D01*
X140279381Y-82129333D01*
X140422239Y-82129333D01*
X140517477Y-82176952D01*
X140565096Y-82224571D01*
X140612715Y-82319810D01*
X140612715Y-82557905D01*
X140565096Y-82653143D01*
X140517477Y-82700762D01*
X140422239Y-82748381D01*
X140136524Y-82748381D01*
X140041286Y-82700762D01*
X139993667Y-82653143D01*
X147363571Y-69052142D02*
X145863571Y-69052142D01*
X145863571Y-68480714D01*
X145935000Y-68337856D01*
X146006429Y-68266428D01*
X146149286Y-68194999D01*
X146363571Y-68194999D01*
X146506429Y-68266428D01*
X146577857Y-68337856D01*
X146649286Y-68480714D01*
X146649286Y-69052142D01*
X146363571Y-66909285D02*
X147363571Y-66909285D01*
X145792143Y-67266428D02*
X146863571Y-67623571D01*
X146863571Y-66694999D01*
X144188571Y-68734286D02*
X142688571Y-68734286D01*
X143402857Y-68734286D02*
X143402857Y-67877143D01*
X144188571Y-67877143D02*
X142688571Y-67877143D01*
X144188571Y-67162857D02*
X142688571Y-67162857D01*
X142688571Y-66805714D01*
X142760000Y-66591429D01*
X142902857Y-66448571D01*
X143045714Y-66377143D01*
X143331429Y-66305714D01*
X143545714Y-66305714D01*
X143831429Y-66377143D01*
X143974286Y-66448571D01*
X144117143Y-66591429D01*
X144188571Y-66805714D01*
X144188571Y-67162857D01*
X144188571Y-65662857D02*
X142688571Y-65662857D01*
X143760000Y-65162857D01*
X142688571Y-64662857D01*
X144188571Y-64662857D01*
X144188571Y-63948571D02*
X142688571Y-63948571D01*
X143617143Y-63234285D02*
X143617143Y-62091428D01*
X143760000Y-61448571D02*
X143760000Y-60734285D01*
X144188571Y-61591428D02*
X142688571Y-61091428D01*
X144188571Y-60591428D01*
X124658381Y-78779666D02*
X124182190Y-79113000D01*
X124658381Y-79351095D02*
X123658381Y-79351095D01*
X123658381Y-78970142D01*
X123706000Y-78874904D01*
X123753619Y-78827285D01*
X123848857Y-78779666D01*
X123991714Y-78779666D01*
X124086952Y-78827285D01*
X124134571Y-78874904D01*
X124182190Y-78970142D01*
X124182190Y-79351095D01*
X124086952Y-78208238D02*
X124039333Y-78303476D01*
X123991714Y-78351095D01*
X123896476Y-78398714D01*
X123848857Y-78398714D01*
X123753619Y-78351095D01*
X123706000Y-78303476D01*
X123658381Y-78208238D01*
X123658381Y-78017761D01*
X123706000Y-77922523D01*
X123753619Y-77874904D01*
X123848857Y-77827285D01*
X123896476Y-77827285D01*
X123991714Y-77874904D01*
X124039333Y-77922523D01*
X124086952Y-78017761D01*
X124086952Y-78208238D01*
X124134571Y-78303476D01*
X124182190Y-78351095D01*
X124277429Y-78398714D01*
X124467905Y-78398714D01*
X124563143Y-78351095D01*
X124610762Y-78303476D01*
X124658381Y-78208238D01*
X124658381Y-78017761D01*
X124610762Y-77922523D01*
X124563143Y-77874904D01*
X124467905Y-77827285D01*
X124277429Y-77827285D01*
X124182190Y-77874904D01*
X124134571Y-77922523D01*
X124086952Y-78017761D01*
X130246381Y-80430666D02*
X129770190Y-80764000D01*
X130246381Y-81002095D02*
X129246381Y-81002095D01*
X129246381Y-80621142D01*
X129294000Y-80525904D01*
X129341619Y-80478285D01*
X129436857Y-80430666D01*
X129579714Y-80430666D01*
X129674952Y-80478285D01*
X129722571Y-80525904D01*
X129770190Y-80621142D01*
X129770190Y-81002095D01*
X130246381Y-79954476D02*
X130246381Y-79764000D01*
X130198762Y-79668761D01*
X130151143Y-79621142D01*
X130008286Y-79525904D01*
X129817810Y-79478285D01*
X129436857Y-79478285D01*
X129341619Y-79525904D01*
X129294000Y-79573523D01*
X129246381Y-79668761D01*
X129246381Y-79859238D01*
X129294000Y-79954476D01*
X129341619Y-80002095D01*
X129436857Y-80049714D01*
X129674952Y-80049714D01*
X129770190Y-80002095D01*
X129817810Y-79954476D01*
X129865429Y-79859238D01*
X129865429Y-79668761D01*
X129817810Y-79573523D01*
X129770190Y-79525904D01*
X129674952Y-79478285D01*
X132199143Y-71953381D02*
X131865809Y-71477190D01*
X131627714Y-71953381D02*
X131627714Y-70953381D01*
X132008667Y-70953381D01*
X132103905Y-71001000D01*
X132151524Y-71048619D01*
X132199143Y-71143857D01*
X132199143Y-71286714D01*
X132151524Y-71381952D01*
X132103905Y-71429571D01*
X132008667Y-71477190D01*
X131627714Y-71477190D01*
X133151524Y-71953381D02*
X132580095Y-71953381D01*
X132865809Y-71953381D02*
X132865809Y-70953381D01*
X132770571Y-71096238D01*
X132675333Y-71191476D01*
X132580095Y-71239095D01*
X133770571Y-70953381D02*
X133865810Y-70953381D01*
X133961048Y-71001000D01*
X134008667Y-71048619D01*
X134056286Y-71143857D01*
X134103905Y-71334333D01*
X134103905Y-71572429D01*
X134056286Y-71762905D01*
X134008667Y-71858143D01*
X133961048Y-71905762D01*
X133865810Y-71953381D01*
X133770571Y-71953381D01*
X133675333Y-71905762D01*
X133627714Y-71858143D01*
X133580095Y-71762905D01*
X133532476Y-71572429D01*
X133532476Y-71334333D01*
X133580095Y-71143857D01*
X133627714Y-71048619D01*
X133675333Y-71001000D01*
X133770571Y-70953381D01*
X132024381Y-46997857D02*
X131548190Y-47331191D01*
X132024381Y-47569286D02*
X131024381Y-47569286D01*
X131024381Y-47188333D01*
X131072000Y-47093095D01*
X131119619Y-47045476D01*
X131214857Y-46997857D01*
X131357714Y-46997857D01*
X131452952Y-47045476D01*
X131500571Y-47093095D01*
X131548190Y-47188333D01*
X131548190Y-47569286D01*
X132024381Y-46045476D02*
X132024381Y-46616905D01*
X132024381Y-46331191D02*
X131024381Y-46331191D01*
X131167238Y-46426429D01*
X131262476Y-46521667D01*
X131310095Y-46616905D01*
X132024381Y-45093095D02*
X132024381Y-45664524D01*
X132024381Y-45378810D02*
X131024381Y-45378810D01*
X131167238Y-45474048D01*
X131262476Y-45569286D01*
X131310095Y-45664524D01*
X138247381Y-47124857D02*
X137771190Y-47458191D01*
X138247381Y-47696286D02*
X137247381Y-47696286D01*
X137247381Y-47315333D01*
X137295000Y-47220095D01*
X137342619Y-47172476D01*
X137437857Y-47124857D01*
X137580714Y-47124857D01*
X137675952Y-47172476D01*
X137723571Y-47220095D01*
X137771190Y-47315333D01*
X137771190Y-47696286D01*
X138247381Y-46172476D02*
X138247381Y-46743905D01*
X138247381Y-46458191D02*
X137247381Y-46458191D01*
X137390238Y-46553429D01*
X137485476Y-46648667D01*
X137533095Y-46743905D01*
X137342619Y-45791524D02*
X137295000Y-45743905D01*
X137247381Y-45648667D01*
X137247381Y-45410571D01*
X137295000Y-45315333D01*
X137342619Y-45267714D01*
X137437857Y-45220095D01*
X137533095Y-45220095D01*
X137675952Y-45267714D01*
X138247381Y-45839143D01*
X138247381Y-45220095D01*
X136517143Y-72002381D02*
X136183809Y-71526190D01*
X135945714Y-72002381D02*
X135945714Y-71002381D01*
X136326667Y-71002381D01*
X136421905Y-71050000D01*
X136469524Y-71097619D01*
X136517143Y-71192857D01*
X136517143Y-71335714D01*
X136469524Y-71430952D01*
X136421905Y-71478571D01*
X136326667Y-71526190D01*
X135945714Y-71526190D01*
X137469524Y-72002381D02*
X136898095Y-72002381D01*
X137183809Y-72002381D02*
X137183809Y-71002381D01*
X137088571Y-71145238D01*
X136993333Y-71240476D01*
X136898095Y-71288095D01*
X137802857Y-71002381D02*
X138421905Y-71002381D01*
X138088571Y-71383333D01*
X138231429Y-71383333D01*
X138326667Y-71430952D01*
X138374286Y-71478571D01*
X138421905Y-71573810D01*
X138421905Y-71811905D01*
X138374286Y-71907143D01*
X138326667Y-71954762D01*
X138231429Y-72002381D01*
X137945714Y-72002381D01*
X137850476Y-71954762D01*
X137802857Y-71907143D01*
X137231381Y-52331857D02*
X136755190Y-52665191D01*
X137231381Y-52903286D02*
X136231381Y-52903286D01*
X136231381Y-52522333D01*
X136279000Y-52427095D01*
X136326619Y-52379476D01*
X136421857Y-52331857D01*
X136564714Y-52331857D01*
X136659952Y-52379476D01*
X136707571Y-52427095D01*
X136755190Y-52522333D01*
X136755190Y-52903286D01*
X137231381Y-51379476D02*
X137231381Y-51950905D01*
X137231381Y-51665191D02*
X136231381Y-51665191D01*
X136374238Y-51760429D01*
X136469476Y-51855667D01*
X136517095Y-51950905D01*
X136564714Y-50522333D02*
X137231381Y-50522333D01*
X136183762Y-50760429D02*
X136898048Y-50998524D01*
X136898048Y-50379476D01*
X143200381Y-52585857D02*
X142724190Y-52919191D01*
X143200381Y-53157286D02*
X142200381Y-53157286D01*
X142200381Y-52776333D01*
X142248000Y-52681095D01*
X142295619Y-52633476D01*
X142390857Y-52585857D01*
X142533714Y-52585857D01*
X142628952Y-52633476D01*
X142676571Y-52681095D01*
X142724190Y-52776333D01*
X142724190Y-53157286D01*
X143200381Y-51633476D02*
X143200381Y-52204905D01*
X143200381Y-51919191D02*
X142200381Y-51919191D01*
X142343238Y-52014429D01*
X142438476Y-52109667D01*
X142486095Y-52204905D01*
X142200381Y-50728714D02*
X142200381Y-51204905D01*
X142676571Y-51252524D01*
X142628952Y-51204905D01*
X142581333Y-51109667D01*
X142581333Y-50871571D01*
X142628952Y-50776333D01*
X142676571Y-50728714D01*
X142771810Y-50681095D01*
X143009905Y-50681095D01*
X143105143Y-50728714D01*
X143152762Y-50776333D01*
X143200381Y-50871571D01*
X143200381Y-51109667D01*
X143152762Y-51204905D01*
X143105143Y-51252524D01*
X136088381Y-79255857D02*
X135612190Y-79589191D01*
X136088381Y-79827286D02*
X135088381Y-79827286D01*
X135088381Y-79446333D01*
X135136000Y-79351095D01*
X135183619Y-79303476D01*
X135278857Y-79255857D01*
X135421714Y-79255857D01*
X135516952Y-79303476D01*
X135564571Y-79351095D01*
X135612190Y-79446333D01*
X135612190Y-79827286D01*
X136088381Y-78303476D02*
X136088381Y-78874905D01*
X136088381Y-78589191D02*
X135088381Y-78589191D01*
X135231238Y-78684429D01*
X135326476Y-78779667D01*
X135374095Y-78874905D01*
X135088381Y-77970143D02*
X135088381Y-77303476D01*
X136088381Y-77732048D01*
X141803381Y-80017857D02*
X141327190Y-80351191D01*
X141803381Y-80589286D02*
X140803381Y-80589286D01*
X140803381Y-80208333D01*
X140851000Y-80113095D01*
X140898619Y-80065476D01*
X140993857Y-80017857D01*
X141136714Y-80017857D01*
X141231952Y-80065476D01*
X141279571Y-80113095D01*
X141327190Y-80208333D01*
X141327190Y-80589286D01*
X141803381Y-79065476D02*
X141803381Y-79636905D01*
X141803381Y-79351191D02*
X140803381Y-79351191D01*
X140946238Y-79446429D01*
X141041476Y-79541667D01*
X141089095Y-79636905D01*
X141231952Y-78494048D02*
X141184333Y-78589286D01*
X141136714Y-78636905D01*
X141041476Y-78684524D01*
X140993857Y-78684524D01*
X140898619Y-78636905D01*
X140851000Y-78589286D01*
X140803381Y-78494048D01*
X140803381Y-78303571D01*
X140851000Y-78208333D01*
X140898619Y-78160714D01*
X140993857Y-78113095D01*
X141041476Y-78113095D01*
X141136714Y-78160714D01*
X141184333Y-78208333D01*
X141231952Y-78303571D01*
X141231952Y-78494048D01*
X141279571Y-78589286D01*
X141327190Y-78636905D01*
X141422429Y-78684524D01*
X141612905Y-78684524D01*
X141708143Y-78636905D01*
X141755762Y-78589286D01*
X141803381Y-78494048D01*
X141803381Y-78303571D01*
X141755762Y-78208333D01*
X141708143Y-78160714D01*
X141612905Y-78113095D01*
X141422429Y-78113095D01*
X141327190Y-78160714D01*
X141279571Y-78208333D01*
X141231952Y-78303571D01*
X96932857Y-56794286D02*
X97904286Y-56794286D01*
X98018571Y-56737143D01*
X98075714Y-56680000D01*
X98132857Y-56565714D01*
X98132857Y-56337143D01*
X98075714Y-56222857D01*
X98018571Y-56165714D01*
X97904286Y-56108571D01*
X96932857Y-56108571D01*
X98132857Y-54908571D02*
X98132857Y-55594286D01*
X98132857Y-55251428D02*
X96932857Y-55251428D01*
X97104286Y-55365714D01*
X97218571Y-55480000D01*
X97275714Y-55594286D01*
X122301095Y-44537381D02*
X122301095Y-45346905D01*
X122348714Y-45442143D01*
X122396333Y-45489762D01*
X122491571Y-45537381D01*
X122682048Y-45537381D01*
X122777286Y-45489762D01*
X122824905Y-45442143D01*
X122872524Y-45346905D01*
X122872524Y-44537381D01*
X123301095Y-44632619D02*
X123348714Y-44585000D01*
X123443952Y-44537381D01*
X123682048Y-44537381D01*
X123777286Y-44585000D01*
X123824905Y-44632619D01*
X123872524Y-44727857D01*
X123872524Y-44823095D01*
X123824905Y-44965952D01*
X123253476Y-45537381D01*
X123872524Y-45537381D01*
X114752381Y-79478095D02*
X113752381Y-79478095D01*
X113752381Y-79097142D01*
X113800000Y-79001904D01*
X113847619Y-78954285D01*
X113942857Y-78906666D01*
X114085714Y-78906666D01*
X114180952Y-78954285D01*
X114228571Y-79001904D01*
X114276190Y-79097142D01*
X114276190Y-79478095D01*
X113847619Y-78525714D02*
X113800000Y-78478095D01*
X113752381Y-78382857D01*
X113752381Y-78144761D01*
X113800000Y-78049523D01*
X113847619Y-78001904D01*
X113942857Y-77954285D01*
X114038095Y-77954285D01*
X114180952Y-78001904D01*
X114752381Y-78573333D01*
X114752381Y-77954285D01*
M02*
