G04 #@! TF.FileFunction,Copper,L2,Bot,Signal*
%FSLAX46Y46*%
G04 Gerber Fmt 4.6, Leading zero omitted, Abs format (unit mm)*
G04 Created by KiCad (PCBNEW 4.0.4-stable) date 04/10/17 21:25:13*
%MOMM*%
%LPD*%
G01*
G04 APERTURE LIST*
%ADD10C,0.100000*%
%ADD11C,4.064000*%
%ADD12R,0.750000X1.200000*%
%ADD13R,1.200000X0.750000*%
%ADD14R,1.250000X1.500000*%
%ADD15R,1.700000X1.700000*%
%ADD16O,1.700000X1.700000*%
%ADD17C,2.000000*%
%ADD18R,1.300000X1.500000*%
%ADD19C,0.600000*%
%ADD20C,4.000000*%
%ADD21C,0.250000*%
%ADD22C,1.000000*%
%ADD23C,0.500000*%
%ADD24C,0.750000*%
%ADD25C,0.300000*%
G04 APERTURE END LIST*
D10*
D11*
X97790000Y-81280000D03*
D12*
X100584000Y-46924000D03*
X100584000Y-45024000D03*
X102489000Y-47056000D03*
X102489000Y-48956000D03*
X113411000Y-67122000D03*
X113411000Y-69022000D03*
D13*
X120335000Y-48260000D03*
X122235000Y-48260000D03*
X120335000Y-50546000D03*
X122235000Y-50546000D03*
D12*
X118491000Y-67122000D03*
X118491000Y-69022000D03*
D13*
X121224000Y-58166000D03*
X123124000Y-58166000D03*
D12*
X104013000Y-66106000D03*
X104013000Y-68006000D03*
X105029000Y-46924000D03*
X105029000Y-45024000D03*
X116459000Y-67122000D03*
X116459000Y-69022000D03*
D13*
X102301000Y-61849000D03*
X104201000Y-61849000D03*
D12*
X106426000Y-67122000D03*
X106426000Y-69022000D03*
X100584000Y-66360000D03*
X100584000Y-68260000D03*
X109474000Y-46924000D03*
X109474000Y-45024000D03*
X115570000Y-46421000D03*
X115570000Y-48321000D03*
D13*
X102301000Y-53467000D03*
X104201000Y-53467000D03*
X120462000Y-46355000D03*
X122362000Y-46355000D03*
X102301000Y-56896000D03*
X104201000Y-56896000D03*
X102301000Y-50800000D03*
X104201000Y-50800000D03*
D12*
X130937000Y-45913000D03*
X130937000Y-47813000D03*
D14*
X118618000Y-57384000D03*
X118618000Y-54884000D03*
X116713000Y-55606000D03*
X116713000Y-53106000D03*
X129540000Y-69870000D03*
X129540000Y-72370000D03*
X137160000Y-69870000D03*
X137160000Y-72370000D03*
D12*
X127635000Y-58862000D03*
X127635000Y-56962000D03*
X126746000Y-66482000D03*
X126746000Y-64582000D03*
D13*
X136083000Y-66167000D03*
X137983000Y-66167000D03*
X139253000Y-59309000D03*
X137353000Y-59309000D03*
D12*
X134874000Y-58354000D03*
X134874000Y-56454000D03*
D13*
X137353000Y-64262000D03*
X139253000Y-64262000D03*
X131887000Y-66548000D03*
X129987000Y-66548000D03*
X137353000Y-61341000D03*
X139253000Y-61341000D03*
D12*
X133477000Y-65344000D03*
X133477000Y-67244000D03*
D14*
X118618000Y-61742000D03*
X118618000Y-64242000D03*
X116713000Y-59964000D03*
X116713000Y-62464000D03*
X132080000Y-69870000D03*
X132080000Y-72370000D03*
X134620000Y-69870000D03*
X134620000Y-72370000D03*
D15*
X93980000Y-83820000D03*
D16*
X91440000Y-83820000D03*
X93980000Y-81280000D03*
X91440000Y-81280000D03*
X93980000Y-78740000D03*
X91440000Y-78740000D03*
X93980000Y-76200000D03*
X91440000Y-76200000D03*
X93980000Y-73660000D03*
X91440000Y-73660000D03*
X93980000Y-71120000D03*
X91440000Y-71120000D03*
X93980000Y-68580000D03*
X91440000Y-68580000D03*
X93980000Y-66040000D03*
X91440000Y-66040000D03*
X93980000Y-63500000D03*
X91440000Y-63500000D03*
X93980000Y-60960000D03*
X91440000Y-60960000D03*
X93980000Y-58420000D03*
X91440000Y-58420000D03*
X93980000Y-55880000D03*
X91440000Y-55880000D03*
X93980000Y-53340000D03*
X91440000Y-53340000D03*
X93980000Y-50800000D03*
X91440000Y-50800000D03*
X93980000Y-48260000D03*
X91440000Y-48260000D03*
X93980000Y-45720000D03*
X91440000Y-45720000D03*
D15*
X137160000Y-83820000D03*
D16*
X134620000Y-83820000D03*
D17*
X148460000Y-72620000D03*
X148460000Y-56920000D03*
X143510000Y-72020000D03*
X143510000Y-57520000D03*
D18*
X97028000Y-59770000D03*
X97028000Y-57070000D03*
X97028000Y-62150000D03*
X97028000Y-64850000D03*
X97028000Y-54690000D03*
X97028000Y-51990000D03*
X105410000Y-78787000D03*
X105410000Y-81487000D03*
X108077000Y-78787000D03*
X108077000Y-81487000D03*
X102870000Y-78787000D03*
X102870000Y-81487000D03*
X115570000Y-76280000D03*
X115570000Y-73580000D03*
D15*
X111760000Y-73660000D03*
D16*
X111760000Y-76200000D03*
X109220000Y-73660000D03*
X109220000Y-76200000D03*
X106680000Y-73660000D03*
X106680000Y-76200000D03*
X104140000Y-73660000D03*
X104140000Y-76200000D03*
X101600000Y-73660000D03*
X101600000Y-76200000D03*
D11*
X144780000Y-48260000D03*
X144780000Y-81280000D03*
D14*
X130810000Y-83800000D03*
X130810000Y-81300000D03*
D13*
X121224000Y-63881000D03*
X123124000Y-63881000D03*
D19*
X122174000Y-44577000D03*
X111760000Y-46228000D03*
X138303000Y-58420000D03*
X136144000Y-57658000D03*
X136271000Y-62865000D03*
D20*
X131445000Y-61595000D03*
D19*
X129413000Y-68453000D03*
X100711000Y-63246000D03*
X100838000Y-60706000D03*
X100965000Y-59055000D03*
X100965000Y-55118000D03*
X98171000Y-50292000D03*
X102997000Y-67945000D03*
X120269000Y-62103000D03*
X120269000Y-56388000D03*
X120142000Y-51816000D03*
X122809000Y-49403000D03*
X113792000Y-46228000D03*
X107823000Y-46355000D03*
X103505000Y-46101000D03*
X144272000Y-68326000D03*
X144272000Y-65024000D03*
X144272000Y-63500000D03*
X144272000Y-61976000D03*
X144272000Y-60579000D03*
X142240000Y-78486000D03*
X130175000Y-75946000D03*
X128270000Y-75311000D03*
X124206000Y-82550000D03*
X116586000Y-82550000D03*
X116967000Y-80010000D03*
X121920000Y-75438000D03*
X129667000Y-77343000D03*
X133350000Y-75438000D03*
X140970000Y-78232000D03*
X141224000Y-73152000D03*
X123952000Y-44704000D03*
X139954000Y-69850000D03*
X128270000Y-69850000D03*
D20*
X110490000Y-55880000D03*
D19*
X104140000Y-81407000D03*
X106680000Y-81407000D03*
X109347000Y-81407000D03*
X110236000Y-81407000D03*
X120015000Y-63881000D03*
X100965000Y-50673000D03*
X100838000Y-53340000D03*
X100838000Y-56896000D03*
X100965000Y-61722000D03*
X100711000Y-65278000D03*
X106299000Y-65532000D03*
X113284000Y-65532000D03*
X116459000Y-65532000D03*
X120269000Y-58166000D03*
X119888000Y-49911000D03*
X119253000Y-46863000D03*
X114740000Y-46228000D03*
X108740000Y-46482000D03*
X104267000Y-46482000D03*
X101473000Y-46863000D03*
X98171000Y-56896000D03*
X99441000Y-65405000D03*
X118618000Y-60071000D03*
X118618000Y-59055000D03*
X101219000Y-63881000D03*
X103632000Y-48768000D03*
X105029000Y-63246000D03*
X102870000Y-65405000D03*
X118237000Y-65786000D03*
X115316000Y-63246000D03*
X117348000Y-48641000D03*
X119634000Y-47879000D03*
X102489000Y-46101000D03*
X116713000Y-58293000D03*
X116713000Y-57150000D03*
X130937000Y-44791000D03*
X136017000Y-59309000D03*
X144145000Y-59309000D03*
X146431000Y-59309000D03*
X127695000Y-66421000D03*
X135763000Y-58420000D03*
X126746000Y-58801000D03*
X132080000Y-65532000D03*
X131953000Y-84550000D03*
X147320000Y-58166000D03*
X145415000Y-53848000D03*
X145542000Y-71120000D03*
X140462000Y-67818000D03*
X136144000Y-61341000D03*
X136271000Y-64345000D03*
X134695000Y-66219000D03*
X133350000Y-68580000D03*
X140970000Y-53721000D03*
X140970000Y-55626000D03*
X109220000Y-71628000D03*
X100330000Y-72517000D03*
X110998000Y-70993000D03*
X98298000Y-60833000D03*
X98044000Y-61849000D03*
X98044000Y-55372000D03*
X105410000Y-76835000D03*
X134620000Y-50546000D03*
X133477000Y-51689000D03*
X124460000Y-71120000D03*
X124460000Y-69850000D03*
X135890000Y-73660000D03*
D21*
X122174000Y-44577000D02*
X112141000Y-44577000D01*
X112141000Y-44577000D02*
X111760000Y-45085000D01*
X111760000Y-45085000D02*
X111760000Y-46228000D01*
X104060000Y-81487000D02*
X102870000Y-81487000D01*
X104140000Y-81407000D02*
X104060000Y-81487000D01*
X105490000Y-81407000D02*
X106680000Y-81407000D01*
X105490000Y-81407000D02*
X105410000Y-81487000D01*
X109267000Y-81487000D02*
X108077000Y-81487000D01*
X109347000Y-81407000D02*
X109267000Y-81487000D01*
X109220000Y-76200000D02*
X110236000Y-77216000D01*
X110236000Y-77216000D02*
X110236000Y-81407000D01*
X110236000Y-81407000D02*
X110236000Y-81661000D01*
X120015000Y-63881000D02*
X121224000Y-63881000D01*
X101092000Y-50800000D02*
X102301000Y-50800000D01*
X100965000Y-50673000D02*
X101092000Y-50800000D01*
X100965000Y-53467000D02*
X102301000Y-53467000D01*
X100838000Y-53340000D02*
X100965000Y-53467000D01*
X100838000Y-56896000D02*
X102301000Y-56896000D01*
X101092000Y-61849000D02*
X102301000Y-61849000D01*
X100965000Y-61722000D02*
X101092000Y-61849000D01*
X100584000Y-65405000D02*
X100584000Y-66360000D01*
X100711000Y-65278000D02*
X100584000Y-65405000D01*
X106426000Y-65659000D02*
X106426000Y-67122000D01*
X106299000Y-65532000D02*
X106426000Y-65659000D01*
X113411000Y-65659000D02*
X113411000Y-67122000D01*
X113284000Y-65532000D02*
X113411000Y-65659000D01*
X116459000Y-65532000D02*
X116459000Y-67122000D01*
X120269000Y-58166000D02*
X121224000Y-58166000D01*
X119888000Y-49911000D02*
X120335000Y-50358000D01*
X120335000Y-50358000D02*
X120335000Y-50546000D01*
X119761000Y-46355000D02*
X120462000Y-46355000D01*
X119253000Y-46863000D02*
X119761000Y-46355000D01*
X115570000Y-46421000D02*
X114933000Y-46421000D01*
X114933000Y-46421000D02*
X114740000Y-46228000D01*
X108740000Y-46482000D02*
X109182000Y-46924000D01*
X109182000Y-46924000D02*
X109474000Y-46924000D01*
X104267000Y-46482000D02*
X104936000Y-46924000D01*
X104936000Y-46924000D02*
X105029000Y-46924000D01*
X101412000Y-46924000D02*
X100584000Y-46924000D01*
X101473000Y-46863000D02*
X101412000Y-46924000D01*
X97997000Y-57070000D02*
X97028000Y-57070000D01*
X98171000Y-56896000D02*
X97997000Y-57070000D01*
X99441000Y-65405000D02*
X98886000Y-64850000D01*
X98886000Y-64850000D02*
X97028000Y-64850000D01*
D22*
X118618000Y-60071000D02*
X118618000Y-59055000D01*
X118618000Y-59055000D02*
X118618000Y-57384000D01*
X118618000Y-61742000D02*
X118618000Y-60071000D01*
X118658000Y-61702000D02*
X118618000Y-61742000D01*
D21*
X118491000Y-67122000D02*
X118491000Y-66040000D01*
X118491000Y-66040000D02*
X118237000Y-65786000D01*
X102743000Y-65405000D02*
X102870000Y-65405000D01*
X101219000Y-63881000D02*
X102743000Y-65405000D01*
X103632000Y-48768000D02*
X103632000Y-48199000D01*
X103632000Y-48199000D02*
X102489000Y-47056000D01*
X104013000Y-66106000D02*
X104013000Y-65659000D01*
X104013000Y-65659000D02*
X103759000Y-65405000D01*
X103759000Y-65405000D02*
X102870000Y-65405000D01*
X102870000Y-65405000D02*
X105029000Y-63246000D01*
X118237000Y-65786000D02*
X118110000Y-65659000D01*
X118110000Y-65659000D02*
X117729000Y-65659000D01*
X117729000Y-65659000D02*
X115316000Y-63246000D01*
X119634000Y-47879000D02*
X118110000Y-47879000D01*
X118110000Y-47879000D02*
X117348000Y-48641000D01*
X119634000Y-47879000D02*
X120015000Y-48260000D01*
X120015000Y-48260000D02*
X120335000Y-48260000D01*
X102489000Y-46101000D02*
X102489000Y-47244000D01*
X102489000Y-47244000D02*
X102489000Y-47056000D01*
D22*
X116713000Y-57150000D02*
X116713000Y-58293000D01*
X116713000Y-59964000D02*
X116713000Y-58293000D01*
X116713000Y-57150000D02*
X116713000Y-55606000D01*
D21*
X130937000Y-44791000D02*
X130937000Y-45913000D01*
X136017000Y-59309000D02*
X137353000Y-59309000D01*
X144145000Y-59309000D02*
X146431000Y-59309000D01*
X126746000Y-66482000D02*
X127634000Y-66482000D01*
X127634000Y-66482000D02*
X127695000Y-66421000D01*
X135697000Y-58354000D02*
X134874000Y-58354000D01*
X135763000Y-58420000D02*
X135697000Y-58354000D01*
X126807000Y-58862000D02*
X127635000Y-58862000D01*
X126746000Y-58801000D02*
X126807000Y-58862000D01*
D23*
X132080000Y-65532000D02*
X132080000Y-66355000D01*
X132080000Y-66355000D02*
X131887000Y-66548000D01*
X132080000Y-69870000D02*
X129540000Y-69870000D01*
X132080000Y-69870000D02*
X132080000Y-65532000D01*
D22*
X131921000Y-84582000D02*
X131592000Y-84582000D01*
X131921000Y-84582000D02*
X131953000Y-84550000D01*
D23*
X146431000Y-57277000D02*
X146431000Y-54864000D01*
X147320000Y-58166000D02*
X146431000Y-57277000D01*
X146431000Y-54864000D02*
X145415000Y-53848000D01*
D22*
X130810000Y-83800000D02*
X131592000Y-84582000D01*
D24*
X145542000Y-71120000D02*
X142240000Y-67818000D01*
X142240000Y-67818000D02*
X140462000Y-67818000D01*
D21*
X136144000Y-61341000D02*
X137353000Y-61341000D01*
X137353000Y-64262000D02*
X136354000Y-64262000D01*
X136354000Y-64262000D02*
X136271000Y-64345000D01*
X134747000Y-66167000D02*
X136083000Y-66167000D01*
X134695000Y-66219000D02*
X134747000Y-66167000D01*
D23*
X133477000Y-67244000D02*
X133477000Y-68453000D01*
X133477000Y-68453000D02*
X133350000Y-68580000D01*
X134620000Y-69870000D02*
X137160000Y-69870000D01*
X134620000Y-69870000D02*
X134620000Y-69850000D01*
X134620000Y-69850000D02*
X133350000Y-68580000D01*
D21*
X140970000Y-53721000D02*
X140970000Y-55626000D01*
X108966000Y-71882000D02*
X109220000Y-71628000D01*
X100965000Y-71882000D02*
X108966000Y-71882000D01*
X100330000Y-72517000D02*
X100965000Y-71882000D01*
X111760000Y-73660000D02*
X115490000Y-73660000D01*
X115490000Y-73660000D02*
X115570000Y-73580000D01*
X106680000Y-73660000D02*
X107188000Y-73660000D01*
X107188000Y-73660000D02*
X107950000Y-74422000D01*
X107950000Y-74422000D02*
X108077000Y-78787000D01*
X102108000Y-72390000D02*
X109601000Y-72390000D01*
X102108000Y-72390000D02*
X101600000Y-72898000D01*
X109601000Y-72390000D02*
X110998000Y-70993000D01*
X101600000Y-73660000D02*
X101600000Y-73787000D01*
X101600000Y-73787000D02*
X102870000Y-75057000D01*
X102870000Y-75057000D02*
X102870000Y-78787000D01*
X101600000Y-73660000D02*
X101600000Y-72898000D01*
X98298000Y-60833000D02*
X97235000Y-59770000D01*
X97235000Y-59770000D02*
X97028000Y-59770000D01*
X97743000Y-62150000D02*
X97028000Y-62150000D01*
X98044000Y-61849000D02*
X97743000Y-62150000D01*
X98044000Y-55372000D02*
X97362000Y-54690000D01*
X97362000Y-54690000D02*
X97028000Y-54690000D01*
X105410000Y-78787000D02*
X105410000Y-76835000D01*
X133477000Y-51689000D02*
X134620000Y-50546000D01*
D22*
X124460000Y-71120000D02*
X124460000Y-69850000D01*
X118872000Y-64262000D02*
X116967000Y-62738000D01*
X118618000Y-64242000D02*
X118872000Y-64262000D01*
X118872000Y-64262000D02*
X124460000Y-69850000D01*
D23*
X132080000Y-72370000D02*
X134600000Y-72370000D01*
X134600000Y-72370000D02*
X135890000Y-73660000D01*
D25*
G36*
X149435000Y-85935000D02*
X89325000Y-85935000D01*
X89325000Y-83820000D01*
X90216491Y-83820000D01*
X90307836Y-84279220D01*
X90567963Y-84668528D01*
X90957271Y-84928655D01*
X91416491Y-85020000D01*
X91463509Y-85020000D01*
X91922729Y-84928655D01*
X92312037Y-84668528D01*
X92572164Y-84279220D01*
X92663509Y-83820000D01*
X92572164Y-83360780D01*
X92312037Y-82971472D01*
X91922729Y-82711345D01*
X91463509Y-82620000D01*
X91416491Y-82620000D01*
X90957271Y-82711345D01*
X90567963Y-82971472D01*
X90307836Y-83360780D01*
X90216491Y-83820000D01*
X89325000Y-83820000D01*
X89325000Y-81280000D01*
X90216491Y-81280000D01*
X90307836Y-81739220D01*
X90567963Y-82128528D01*
X90957271Y-82388655D01*
X91416491Y-82480000D01*
X91463509Y-82480000D01*
X91922729Y-82388655D01*
X92312037Y-82128528D01*
X92572164Y-81739220D01*
X92663509Y-81280000D01*
X92756491Y-81280000D01*
X92847836Y-81739220D01*
X93107963Y-82128528D01*
X93497271Y-82388655D01*
X93956491Y-82480000D01*
X94003509Y-82480000D01*
X94462729Y-82388655D01*
X94852037Y-82128528D01*
X95103805Y-81751730D01*
X95407588Y-81751730D01*
X95769461Y-82627532D01*
X96438944Y-83298184D01*
X97314112Y-83661585D01*
X98261730Y-83662412D01*
X99137532Y-83300539D01*
X99388508Y-83050000D01*
X129828144Y-83050000D01*
X129828144Y-84550000D01*
X129852549Y-84679702D01*
X129929203Y-84798825D01*
X130046163Y-84878741D01*
X130185000Y-84906856D01*
X130714774Y-84906856D01*
X130990959Y-85183041D01*
X131266719Y-85367298D01*
X131592000Y-85432000D01*
X131921000Y-85432000D01*
X132246281Y-85367298D01*
X132522041Y-85183041D01*
X132554041Y-85151041D01*
X132738298Y-84875281D01*
X132803000Y-84550000D01*
X132738298Y-84224719D01*
X132554041Y-83948959D01*
X132325857Y-83796491D01*
X133420000Y-83796491D01*
X133420000Y-83843509D01*
X133511345Y-84302729D01*
X133771472Y-84692037D01*
X134160780Y-84952164D01*
X134620000Y-85043509D01*
X135079220Y-84952164D01*
X135468528Y-84692037D01*
X135728655Y-84302729D01*
X135820000Y-83843509D01*
X135820000Y-83796491D01*
X135728655Y-83337271D01*
X135468528Y-82947963D01*
X135079220Y-82687836D01*
X134620000Y-82596491D01*
X134160780Y-82687836D01*
X133771472Y-82947963D01*
X133511345Y-83337271D01*
X133420000Y-83796491D01*
X132325857Y-83796491D01*
X132278281Y-83764702D01*
X131953000Y-83700000D01*
X131918871Y-83706789D01*
X131791856Y-83579774D01*
X131791856Y-83050000D01*
X131767451Y-82920298D01*
X131690797Y-82801175D01*
X131573837Y-82721259D01*
X131435000Y-82693144D01*
X130185000Y-82693144D01*
X130055298Y-82717549D01*
X129936175Y-82794203D01*
X129856259Y-82911163D01*
X129828144Y-83050000D01*
X99388508Y-83050000D01*
X99808184Y-82631056D01*
X100171585Y-81755888D01*
X100172412Y-80808270D01*
X99810539Y-79932468D01*
X99141056Y-79261816D01*
X98265888Y-78898415D01*
X97318270Y-78897588D01*
X96442468Y-79259461D01*
X95771816Y-79928944D01*
X95408415Y-80804112D01*
X95407588Y-81751730D01*
X95103805Y-81751730D01*
X95112164Y-81739220D01*
X95203509Y-81280000D01*
X95112164Y-80820780D01*
X94852037Y-80431472D01*
X94462729Y-80171345D01*
X94003509Y-80080000D01*
X93956491Y-80080000D01*
X93497271Y-80171345D01*
X93107963Y-80431472D01*
X92847836Y-80820780D01*
X92756491Y-81280000D01*
X92663509Y-81280000D01*
X92572164Y-80820780D01*
X92312037Y-80431472D01*
X91922729Y-80171345D01*
X91463509Y-80080000D01*
X91416491Y-80080000D01*
X90957271Y-80171345D01*
X90567963Y-80431472D01*
X90307836Y-80820780D01*
X90216491Y-81280000D01*
X89325000Y-81280000D01*
X89325000Y-78740000D01*
X90216491Y-78740000D01*
X90307836Y-79199220D01*
X90567963Y-79588528D01*
X90957271Y-79848655D01*
X91416491Y-79940000D01*
X91463509Y-79940000D01*
X91922729Y-79848655D01*
X92312037Y-79588528D01*
X92572164Y-79199220D01*
X92663509Y-78740000D01*
X92756491Y-78740000D01*
X92847836Y-79199220D01*
X93107963Y-79588528D01*
X93497271Y-79848655D01*
X93956491Y-79940000D01*
X94003509Y-79940000D01*
X94462729Y-79848655D01*
X94852037Y-79588528D01*
X95112164Y-79199220D01*
X95203509Y-78740000D01*
X95112164Y-78280780D01*
X94852037Y-77891472D01*
X94462729Y-77631345D01*
X94003509Y-77540000D01*
X93956491Y-77540000D01*
X93497271Y-77631345D01*
X93107963Y-77891472D01*
X92847836Y-78280780D01*
X92756491Y-78740000D01*
X92663509Y-78740000D01*
X92572164Y-78280780D01*
X92312037Y-77891472D01*
X91922729Y-77631345D01*
X91463509Y-77540000D01*
X91416491Y-77540000D01*
X90957271Y-77631345D01*
X90567963Y-77891472D01*
X90307836Y-78280780D01*
X90216491Y-78740000D01*
X89325000Y-78740000D01*
X89325000Y-76200000D01*
X90216491Y-76200000D01*
X90307836Y-76659220D01*
X90567963Y-77048528D01*
X90957271Y-77308655D01*
X91416491Y-77400000D01*
X91463509Y-77400000D01*
X91922729Y-77308655D01*
X92312037Y-77048528D01*
X92572164Y-76659220D01*
X92663509Y-76200000D01*
X92756491Y-76200000D01*
X92847836Y-76659220D01*
X93107963Y-77048528D01*
X93497271Y-77308655D01*
X93956491Y-77400000D01*
X94003509Y-77400000D01*
X94462729Y-77308655D01*
X94852037Y-77048528D01*
X95112164Y-76659220D01*
X95203509Y-76200000D01*
X95112164Y-75740780D01*
X94852037Y-75351472D01*
X94462729Y-75091345D01*
X94003509Y-75000000D01*
X93956491Y-75000000D01*
X93497271Y-75091345D01*
X93107963Y-75351472D01*
X92847836Y-75740780D01*
X92756491Y-76200000D01*
X92663509Y-76200000D01*
X92572164Y-75740780D01*
X92312037Y-75351472D01*
X91922729Y-75091345D01*
X91463509Y-75000000D01*
X91416491Y-75000000D01*
X90957271Y-75091345D01*
X90567963Y-75351472D01*
X90307836Y-75740780D01*
X90216491Y-76200000D01*
X89325000Y-76200000D01*
X89325000Y-73660000D01*
X90216491Y-73660000D01*
X90307836Y-74119220D01*
X90567963Y-74508528D01*
X90957271Y-74768655D01*
X91416491Y-74860000D01*
X91463509Y-74860000D01*
X91922729Y-74768655D01*
X92312037Y-74508528D01*
X92572164Y-74119220D01*
X92663509Y-73660000D01*
X92756491Y-73660000D01*
X92847836Y-74119220D01*
X93107963Y-74508528D01*
X93497271Y-74768655D01*
X93956491Y-74860000D01*
X94003509Y-74860000D01*
X94462729Y-74768655D01*
X94852037Y-74508528D01*
X95112164Y-74119220D01*
X95203509Y-73660000D01*
X95112164Y-73200780D01*
X94852037Y-72811472D01*
X94603981Y-72645726D01*
X99679888Y-72645726D01*
X99778636Y-72884714D01*
X99961324Y-73067722D01*
X100200140Y-73166887D01*
X100458726Y-73167112D01*
X100513162Y-73144619D01*
X100491345Y-73177271D01*
X100400000Y-73636491D01*
X100400000Y-73683509D01*
X100491345Y-74142729D01*
X100751472Y-74532037D01*
X101140780Y-74792164D01*
X101600000Y-74883509D01*
X101954285Y-74813037D01*
X102395000Y-75253752D01*
X102395000Y-77680144D01*
X102220000Y-77680144D01*
X102090298Y-77704549D01*
X101971175Y-77781203D01*
X101891259Y-77898163D01*
X101863144Y-78037000D01*
X101863144Y-79537000D01*
X101887549Y-79666702D01*
X101964203Y-79785825D01*
X102081163Y-79865741D01*
X102220000Y-79893856D01*
X103520000Y-79893856D01*
X103649702Y-79869451D01*
X103768825Y-79792797D01*
X103848741Y-79675837D01*
X103876856Y-79537000D01*
X103876856Y-78037000D01*
X103852451Y-77907298D01*
X103775797Y-77788175D01*
X103658837Y-77708259D01*
X103520000Y-77680144D01*
X103345000Y-77680144D01*
X103345000Y-77107803D01*
X103680780Y-77332164D01*
X104140000Y-77423509D01*
X104599220Y-77332164D01*
X104844426Y-77168323D01*
X104858636Y-77202714D01*
X104935000Y-77279212D01*
X104935000Y-77680144D01*
X104760000Y-77680144D01*
X104630298Y-77704549D01*
X104511175Y-77781203D01*
X104431259Y-77898163D01*
X104403144Y-78037000D01*
X104403144Y-79537000D01*
X104427549Y-79666702D01*
X104504203Y-79785825D01*
X104621163Y-79865741D01*
X104760000Y-79893856D01*
X106060000Y-79893856D01*
X106189702Y-79869451D01*
X106308825Y-79792797D01*
X106388741Y-79675837D01*
X106416856Y-79537000D01*
X106416856Y-78037000D01*
X106392451Y-77907298D01*
X106315797Y-77788175D01*
X106198837Y-77708259D01*
X106060000Y-77680144D01*
X105885000Y-77680144D01*
X105885000Y-77279266D01*
X105960722Y-77203676D01*
X105975439Y-77168233D01*
X106220780Y-77332164D01*
X106680000Y-77423509D01*
X107139220Y-77332164D01*
X107528528Y-77072037D01*
X107550927Y-77038515D01*
X107569595Y-77680144D01*
X107427000Y-77680144D01*
X107297298Y-77704549D01*
X107178175Y-77781203D01*
X107098259Y-77898163D01*
X107070144Y-78037000D01*
X107070144Y-79537000D01*
X107094549Y-79666702D01*
X107171203Y-79785825D01*
X107288163Y-79865741D01*
X107427000Y-79893856D01*
X108727000Y-79893856D01*
X108856702Y-79869451D01*
X108975825Y-79792797D01*
X109055741Y-79675837D01*
X109083856Y-79537000D01*
X109083856Y-78037000D01*
X109059451Y-77907298D01*
X108982797Y-77788175D01*
X108865837Y-77708259D01*
X108727000Y-77680144D01*
X108519997Y-77680144D01*
X108504898Y-77161189D01*
X108760780Y-77332164D01*
X109220000Y-77423509D01*
X109679220Y-77332164D01*
X109679935Y-77331687D01*
X109761000Y-77412752D01*
X109761000Y-80901681D01*
X109715676Y-80856278D01*
X109476860Y-80757113D01*
X109218274Y-80756888D01*
X109083856Y-80812428D01*
X109083856Y-80737000D01*
X109059451Y-80607298D01*
X108982797Y-80488175D01*
X108865837Y-80408259D01*
X108727000Y-80380144D01*
X107427000Y-80380144D01*
X107297298Y-80404549D01*
X107178175Y-80481203D01*
X107098259Y-80598163D01*
X107070144Y-80737000D01*
X107070144Y-80877784D01*
X107048676Y-80856278D01*
X106809860Y-80757113D01*
X106551274Y-80756888D01*
X106416856Y-80812428D01*
X106416856Y-80737000D01*
X106392451Y-80607298D01*
X106315797Y-80488175D01*
X106198837Y-80408259D01*
X106060000Y-80380144D01*
X104760000Y-80380144D01*
X104630298Y-80404549D01*
X104511175Y-80481203D01*
X104431259Y-80598163D01*
X104403144Y-80737000D01*
X104403144Y-80812457D01*
X104269860Y-80757113D01*
X104011274Y-80756888D01*
X103876856Y-80812428D01*
X103876856Y-80737000D01*
X103852451Y-80607298D01*
X103775797Y-80488175D01*
X103658837Y-80408259D01*
X103520000Y-80380144D01*
X102220000Y-80380144D01*
X102090298Y-80404549D01*
X101971175Y-80481203D01*
X101891259Y-80598163D01*
X101863144Y-80737000D01*
X101863144Y-82237000D01*
X101887549Y-82366702D01*
X101964203Y-82485825D01*
X102081163Y-82565741D01*
X102220000Y-82593856D01*
X103520000Y-82593856D01*
X103649702Y-82569451D01*
X103768825Y-82492797D01*
X103848741Y-82375837D01*
X103876856Y-82237000D01*
X103876856Y-82001543D01*
X104010140Y-82056887D01*
X104268726Y-82057112D01*
X104403144Y-82001572D01*
X104403144Y-82237000D01*
X104427549Y-82366702D01*
X104504203Y-82485825D01*
X104621163Y-82565741D01*
X104760000Y-82593856D01*
X106060000Y-82593856D01*
X106189702Y-82569451D01*
X106308825Y-82492797D01*
X106388741Y-82375837D01*
X106416856Y-82237000D01*
X106416856Y-82001543D01*
X106550140Y-82056887D01*
X106808726Y-82057112D01*
X107047714Y-81958364D01*
X107070144Y-81935973D01*
X107070144Y-82237000D01*
X107094549Y-82366702D01*
X107171203Y-82485825D01*
X107288163Y-82565741D01*
X107427000Y-82593856D01*
X108727000Y-82593856D01*
X108856702Y-82569451D01*
X108975825Y-82492797D01*
X109055741Y-82375837D01*
X109083856Y-82237000D01*
X109083856Y-82001543D01*
X109217140Y-82056887D01*
X109475726Y-82057112D01*
X109714714Y-81958364D01*
X109791474Y-81881739D01*
X109867324Y-81957722D01*
X109876511Y-81961537D01*
X109900124Y-81996876D01*
X110054225Y-82099843D01*
X110236000Y-82136000D01*
X110417775Y-82099843D01*
X110571876Y-81996876D01*
X110595281Y-81961849D01*
X110603714Y-81958364D01*
X110786722Y-81775676D01*
X110796665Y-81751730D01*
X142397588Y-81751730D01*
X142759461Y-82627532D01*
X143428944Y-83298184D01*
X144304112Y-83661585D01*
X145251730Y-83662412D01*
X146127532Y-83300539D01*
X146798184Y-82631056D01*
X147161585Y-81755888D01*
X147162412Y-80808270D01*
X146800539Y-79932468D01*
X146131056Y-79261816D01*
X145255888Y-78898415D01*
X144308270Y-78897588D01*
X143432468Y-79259461D01*
X142761816Y-79928944D01*
X142398415Y-80804112D01*
X142397588Y-81751730D01*
X110796665Y-81751730D01*
X110885887Y-81536860D01*
X110886112Y-81278274D01*
X110787364Y-81039286D01*
X110711000Y-80962788D01*
X110711000Y-77216000D01*
X110674843Y-77034225D01*
X110571876Y-76880124D01*
X110336258Y-76644506D01*
X110420000Y-76223509D01*
X110420000Y-76176491D01*
X110328655Y-75717271D01*
X110068528Y-75327963D01*
X109679220Y-75067836D01*
X109220000Y-74976491D01*
X108760780Y-75067836D01*
X108450033Y-75275470D01*
X108429531Y-74570831D01*
X108760780Y-74792164D01*
X109220000Y-74883509D01*
X109679220Y-74792164D01*
X110068528Y-74532037D01*
X110328655Y-74142729D01*
X110420000Y-73683509D01*
X110420000Y-73636491D01*
X110328655Y-73177271D01*
X110083253Y-72810000D01*
X110553144Y-72810000D01*
X110553144Y-74510000D01*
X110577549Y-74639702D01*
X110654203Y-74758825D01*
X110771163Y-74838741D01*
X110910000Y-74866856D01*
X112610000Y-74866856D01*
X112739702Y-74842451D01*
X112858825Y-74765797D01*
X112938741Y-74648837D01*
X112966856Y-74510000D01*
X112966856Y-74135000D01*
X114563144Y-74135000D01*
X114563144Y-74330000D01*
X114587549Y-74459702D01*
X114664203Y-74578825D01*
X114781163Y-74658741D01*
X114920000Y-74686856D01*
X116220000Y-74686856D01*
X116349702Y-74662451D01*
X116468825Y-74585797D01*
X116548741Y-74468837D01*
X116576856Y-74330000D01*
X116576856Y-72830000D01*
X116552451Y-72700298D01*
X116475797Y-72581175D01*
X116358837Y-72501259D01*
X116220000Y-72473144D01*
X114920000Y-72473144D01*
X114790298Y-72497549D01*
X114671175Y-72574203D01*
X114591259Y-72691163D01*
X114563144Y-72830000D01*
X114563144Y-73185000D01*
X112966856Y-73185000D01*
X112966856Y-72810000D01*
X112942451Y-72680298D01*
X112865797Y-72561175D01*
X112748837Y-72481259D01*
X112610000Y-72453144D01*
X110910000Y-72453144D01*
X110780298Y-72477549D01*
X110661175Y-72554203D01*
X110581259Y-72671163D01*
X110553144Y-72810000D01*
X110083253Y-72810000D01*
X110068528Y-72787963D01*
X109952390Y-72710362D01*
X111019732Y-71643019D01*
X111126726Y-71643112D01*
X111365714Y-71544364D01*
X111548722Y-71361676D01*
X111647887Y-71122860D01*
X111648112Y-70864274D01*
X111549364Y-70625286D01*
X111366676Y-70442278D01*
X111127860Y-70343113D01*
X110869274Y-70342888D01*
X110630286Y-70441636D01*
X110447278Y-70624324D01*
X110348113Y-70863140D01*
X110348019Y-70971230D01*
X109855453Y-71463796D01*
X109771364Y-71260286D01*
X109588676Y-71077278D01*
X109349860Y-70978113D01*
X109091274Y-70977888D01*
X108852286Y-71076636D01*
X108669278Y-71259324D01*
X108607958Y-71407000D01*
X100965005Y-71407000D01*
X100965000Y-71406999D01*
X100813384Y-71437158D01*
X100783225Y-71443157D01*
X100629124Y-71546124D01*
X100629122Y-71546127D01*
X100308267Y-71866981D01*
X100201274Y-71866888D01*
X99962286Y-71965636D01*
X99779278Y-72148324D01*
X99680113Y-72387140D01*
X99679888Y-72645726D01*
X94603981Y-72645726D01*
X94462729Y-72551345D01*
X94003509Y-72460000D01*
X93956491Y-72460000D01*
X93497271Y-72551345D01*
X93107963Y-72811472D01*
X92847836Y-73200780D01*
X92756491Y-73660000D01*
X92663509Y-73660000D01*
X92572164Y-73200780D01*
X92312037Y-72811472D01*
X91922729Y-72551345D01*
X91463509Y-72460000D01*
X91416491Y-72460000D01*
X90957271Y-72551345D01*
X90567963Y-72811472D01*
X90307836Y-73200780D01*
X90216491Y-73660000D01*
X89325000Y-73660000D01*
X89325000Y-71120000D01*
X90216491Y-71120000D01*
X90307836Y-71579220D01*
X90567963Y-71968528D01*
X90957271Y-72228655D01*
X91416491Y-72320000D01*
X91463509Y-72320000D01*
X91922729Y-72228655D01*
X92312037Y-71968528D01*
X92572164Y-71579220D01*
X92663509Y-71120000D01*
X92756491Y-71120000D01*
X92847836Y-71579220D01*
X93107963Y-71968528D01*
X93497271Y-72228655D01*
X93956491Y-72320000D01*
X94003509Y-72320000D01*
X94462729Y-72228655D01*
X94852037Y-71968528D01*
X95112164Y-71579220D01*
X95203509Y-71120000D01*
X95112164Y-70660780D01*
X94852037Y-70271472D01*
X94462729Y-70011345D01*
X94003509Y-69920000D01*
X93956491Y-69920000D01*
X93497271Y-70011345D01*
X93107963Y-70271472D01*
X92847836Y-70660780D01*
X92756491Y-71120000D01*
X92663509Y-71120000D01*
X92572164Y-70660780D01*
X92312037Y-70271472D01*
X91922729Y-70011345D01*
X91463509Y-69920000D01*
X91416491Y-69920000D01*
X90957271Y-70011345D01*
X90567963Y-70271472D01*
X90307836Y-70660780D01*
X90216491Y-71120000D01*
X89325000Y-71120000D01*
X89325000Y-68580000D01*
X90216491Y-68580000D01*
X90307836Y-69039220D01*
X90567963Y-69428528D01*
X90957271Y-69688655D01*
X91416491Y-69780000D01*
X91463509Y-69780000D01*
X91922729Y-69688655D01*
X92312037Y-69428528D01*
X92572164Y-69039220D01*
X92663509Y-68580000D01*
X92756491Y-68580000D01*
X92847836Y-69039220D01*
X93107963Y-69428528D01*
X93497271Y-69688655D01*
X93956491Y-69780000D01*
X94003509Y-69780000D01*
X94462729Y-69688655D01*
X94852037Y-69428528D01*
X95112164Y-69039220D01*
X95203509Y-68580000D01*
X95112164Y-68120780D01*
X94852037Y-67731472D01*
X94462729Y-67471345D01*
X94003509Y-67380000D01*
X93956491Y-67380000D01*
X93497271Y-67471345D01*
X93107963Y-67731472D01*
X92847836Y-68120780D01*
X92756491Y-68580000D01*
X92663509Y-68580000D01*
X92572164Y-68120780D01*
X92312037Y-67731472D01*
X91922729Y-67471345D01*
X91463509Y-67380000D01*
X91416491Y-67380000D01*
X90957271Y-67471345D01*
X90567963Y-67731472D01*
X90307836Y-68120780D01*
X90216491Y-68580000D01*
X89325000Y-68580000D01*
X89325000Y-66040000D01*
X90216491Y-66040000D01*
X90307836Y-66499220D01*
X90567963Y-66888528D01*
X90957271Y-67148655D01*
X91416491Y-67240000D01*
X91463509Y-67240000D01*
X91922729Y-67148655D01*
X92312037Y-66888528D01*
X92572164Y-66499220D01*
X92663509Y-66040000D01*
X92756491Y-66040000D01*
X92847836Y-66499220D01*
X93107963Y-66888528D01*
X93497271Y-67148655D01*
X93956491Y-67240000D01*
X94003509Y-67240000D01*
X94462729Y-67148655D01*
X94852037Y-66888528D01*
X95112164Y-66499220D01*
X95203509Y-66040000D01*
X95112164Y-65580780D01*
X94852037Y-65191472D01*
X94462729Y-64931345D01*
X94003509Y-64840000D01*
X93956491Y-64840000D01*
X93497271Y-64931345D01*
X93107963Y-65191472D01*
X92847836Y-65580780D01*
X92756491Y-66040000D01*
X92663509Y-66040000D01*
X92572164Y-65580780D01*
X92312037Y-65191472D01*
X91922729Y-64931345D01*
X91463509Y-64840000D01*
X91416491Y-64840000D01*
X90957271Y-64931345D01*
X90567963Y-65191472D01*
X90307836Y-65580780D01*
X90216491Y-66040000D01*
X89325000Y-66040000D01*
X89325000Y-63500000D01*
X90216491Y-63500000D01*
X90307836Y-63959220D01*
X90567963Y-64348528D01*
X90957271Y-64608655D01*
X91416491Y-64700000D01*
X91463509Y-64700000D01*
X91922729Y-64608655D01*
X92312037Y-64348528D01*
X92572164Y-63959220D01*
X92663509Y-63500000D01*
X92756491Y-63500000D01*
X92847836Y-63959220D01*
X93107963Y-64348528D01*
X93497271Y-64608655D01*
X93956491Y-64700000D01*
X94003509Y-64700000D01*
X94462729Y-64608655D01*
X94852037Y-64348528D01*
X95018097Y-64100000D01*
X96021144Y-64100000D01*
X96021144Y-65600000D01*
X96045549Y-65729702D01*
X96122203Y-65848825D01*
X96239163Y-65928741D01*
X96378000Y-65956856D01*
X97678000Y-65956856D01*
X97807702Y-65932451D01*
X97926825Y-65855797D01*
X98006741Y-65738837D01*
X98034856Y-65600000D01*
X98034856Y-65325000D01*
X98689248Y-65325000D01*
X98790981Y-65426733D01*
X98790888Y-65533726D01*
X98889636Y-65772714D01*
X99072324Y-65955722D01*
X99311140Y-66054887D01*
X99569726Y-66055112D01*
X99808714Y-65956364D01*
X99852144Y-65913010D01*
X99852144Y-66960000D01*
X99876549Y-67089702D01*
X99953203Y-67208825D01*
X100070163Y-67288741D01*
X100209000Y-67316856D01*
X100959000Y-67316856D01*
X101088702Y-67292451D01*
X101207825Y-67215797D01*
X101287741Y-67098837D01*
X101315856Y-66960000D01*
X101315856Y-65760000D01*
X101291451Y-65630298D01*
X101277515Y-65608641D01*
X101360887Y-65407860D01*
X101361112Y-65149274D01*
X101262364Y-64910286D01*
X101079676Y-64727278D01*
X100840860Y-64628113D01*
X100582274Y-64627888D01*
X100343286Y-64726636D01*
X100160278Y-64909324D01*
X100061113Y-65148140D01*
X100061065Y-65203554D01*
X99992364Y-65037286D01*
X99809676Y-64854278D01*
X99570860Y-64755113D01*
X99462771Y-64755019D01*
X99221876Y-64514124D01*
X99067775Y-64411157D01*
X98886000Y-64375000D01*
X98034856Y-64375000D01*
X98034856Y-64100000D01*
X98017870Y-64009726D01*
X100568888Y-64009726D01*
X100667636Y-64248714D01*
X100850324Y-64431722D01*
X101089140Y-64530887D01*
X101197229Y-64530981D01*
X102233910Y-65567661D01*
X102318636Y-65772714D01*
X102501324Y-65955722D01*
X102740140Y-66054887D01*
X102998726Y-66055112D01*
X103237714Y-65956364D01*
X103281144Y-65913010D01*
X103281144Y-66706000D01*
X103305549Y-66835702D01*
X103382203Y-66954825D01*
X103499163Y-67034741D01*
X103638000Y-67062856D01*
X104388000Y-67062856D01*
X104517702Y-67038451D01*
X104636825Y-66961797D01*
X104716741Y-66844837D01*
X104744856Y-66706000D01*
X104744856Y-65660726D01*
X105648888Y-65660726D01*
X105747636Y-65899714D01*
X105930324Y-66082722D01*
X105951000Y-66091307D01*
X105951000Y-66183960D01*
X105921298Y-66189549D01*
X105802175Y-66266203D01*
X105722259Y-66383163D01*
X105694144Y-66522000D01*
X105694144Y-67722000D01*
X105718549Y-67851702D01*
X105795203Y-67970825D01*
X105912163Y-68050741D01*
X106051000Y-68078856D01*
X106801000Y-68078856D01*
X106930702Y-68054451D01*
X107049825Y-67977797D01*
X107129741Y-67860837D01*
X107157856Y-67722000D01*
X107157856Y-66522000D01*
X107133451Y-66392298D01*
X107056797Y-66273175D01*
X106939837Y-66193259D01*
X106901000Y-66185394D01*
X106901000Y-65777185D01*
X106948887Y-65661860D01*
X106948887Y-65660726D01*
X112633888Y-65660726D01*
X112732636Y-65899714D01*
X112915324Y-66082722D01*
X112936000Y-66091307D01*
X112936000Y-66183960D01*
X112906298Y-66189549D01*
X112787175Y-66266203D01*
X112707259Y-66383163D01*
X112679144Y-66522000D01*
X112679144Y-67722000D01*
X112703549Y-67851702D01*
X112780203Y-67970825D01*
X112897163Y-68050741D01*
X113036000Y-68078856D01*
X113786000Y-68078856D01*
X113915702Y-68054451D01*
X114034825Y-67977797D01*
X114114741Y-67860837D01*
X114142856Y-67722000D01*
X114142856Y-66522000D01*
X114118451Y-66392298D01*
X114041797Y-66273175D01*
X113924837Y-66193259D01*
X113886000Y-66185394D01*
X113886000Y-65777185D01*
X113933887Y-65661860D01*
X113934112Y-65403274D01*
X113835364Y-65164286D01*
X113652676Y-64981278D01*
X113413860Y-64882113D01*
X113155274Y-64881888D01*
X112916286Y-64980636D01*
X112733278Y-65163324D01*
X112634113Y-65402140D01*
X112633888Y-65660726D01*
X106948887Y-65660726D01*
X106949112Y-65403274D01*
X106850364Y-65164286D01*
X106667676Y-64981278D01*
X106428860Y-64882113D01*
X106170274Y-64881888D01*
X105931286Y-64980636D01*
X105748278Y-65163324D01*
X105649113Y-65402140D01*
X105648888Y-65660726D01*
X104744856Y-65660726D01*
X104744856Y-65506000D01*
X104720451Y-65376298D01*
X104643797Y-65257175D01*
X104526837Y-65177259D01*
X104388000Y-65149144D01*
X104174896Y-65149144D01*
X104094876Y-65069124D01*
X103964645Y-64982107D01*
X105050733Y-63896019D01*
X105157726Y-63896112D01*
X105396714Y-63797364D01*
X105579722Y-63614676D01*
X105678887Y-63375860D01*
X105678887Y-63374726D01*
X114665888Y-63374726D01*
X114764636Y-63613714D01*
X114947324Y-63796722D01*
X115186140Y-63895887D01*
X115294229Y-63895981D01*
X116294796Y-64896547D01*
X116091286Y-64980636D01*
X115908278Y-65163324D01*
X115809113Y-65402140D01*
X115808888Y-65660726D01*
X115907636Y-65899714D01*
X115984000Y-65976212D01*
X115984000Y-66183960D01*
X115954298Y-66189549D01*
X115835175Y-66266203D01*
X115755259Y-66383163D01*
X115727144Y-66522000D01*
X115727144Y-67722000D01*
X115751549Y-67851702D01*
X115828203Y-67970825D01*
X115945163Y-68050741D01*
X116084000Y-68078856D01*
X116834000Y-68078856D01*
X116963702Y-68054451D01*
X117082825Y-67977797D01*
X117162741Y-67860837D01*
X117190856Y-67722000D01*
X117190856Y-66522000D01*
X117166451Y-66392298D01*
X117089797Y-66273175D01*
X116972837Y-66193259D01*
X116934000Y-66185394D01*
X116934000Y-65976266D01*
X117009722Y-65900676D01*
X117094575Y-65696326D01*
X117393122Y-65994873D01*
X117393124Y-65994876D01*
X117480541Y-66053286D01*
X117547225Y-66097843D01*
X117672878Y-66122837D01*
X117685636Y-66153714D01*
X117839037Y-66307384D01*
X117787259Y-66383163D01*
X117759144Y-66522000D01*
X117759144Y-67722000D01*
X117783549Y-67851702D01*
X117860203Y-67970825D01*
X117977163Y-68050741D01*
X118116000Y-68078856D01*
X118866000Y-68078856D01*
X118995702Y-68054451D01*
X119114825Y-67977797D01*
X119194741Y-67860837D01*
X119222856Y-67722000D01*
X119222856Y-66522000D01*
X119198451Y-66392298D01*
X119121797Y-66273175D01*
X119004837Y-66193259D01*
X118966000Y-66185394D01*
X118966000Y-66040000D01*
X118929843Y-65858225D01*
X118886993Y-65794095D01*
X118887112Y-65657274D01*
X118788364Y-65418286D01*
X118719055Y-65348856D01*
X118756774Y-65348856D01*
X123610000Y-70202081D01*
X123610000Y-71120000D01*
X123674702Y-71445281D01*
X123858959Y-71721041D01*
X124134719Y-71905298D01*
X124460000Y-71970000D01*
X124785281Y-71905298D01*
X125061041Y-71721041D01*
X125128554Y-71620000D01*
X131098144Y-71620000D01*
X131098144Y-73120000D01*
X131122549Y-73249702D01*
X131199203Y-73368825D01*
X131316163Y-73448741D01*
X131455000Y-73476856D01*
X132705000Y-73476856D01*
X132834702Y-73452451D01*
X132953825Y-73375797D01*
X133033741Y-73258837D01*
X133061856Y-73120000D01*
X133061856Y-72970000D01*
X133638144Y-72970000D01*
X133638144Y-73120000D01*
X133662549Y-73249702D01*
X133739203Y-73368825D01*
X133856163Y-73448741D01*
X133995000Y-73476856D01*
X134858328Y-73476856D01*
X135288959Y-73907487D01*
X135338636Y-74027714D01*
X135521324Y-74210722D01*
X135760140Y-74309887D01*
X136018726Y-74310112D01*
X136257714Y-74211364D01*
X136440722Y-74028676D01*
X136539887Y-73789860D01*
X136540112Y-73531274D01*
X136441364Y-73292286D01*
X136258676Y-73109278D01*
X136137482Y-73058954D01*
X135601856Y-72523328D01*
X135601856Y-71620000D01*
X135577451Y-71490298D01*
X135500797Y-71371175D01*
X135383837Y-71291259D01*
X135245000Y-71263144D01*
X133995000Y-71263144D01*
X133865298Y-71287549D01*
X133746175Y-71364203D01*
X133666259Y-71481163D01*
X133638144Y-71620000D01*
X133638144Y-71770000D01*
X133061856Y-71770000D01*
X133061856Y-71620000D01*
X133037451Y-71490298D01*
X132960797Y-71371175D01*
X132843837Y-71291259D01*
X132705000Y-71263144D01*
X131455000Y-71263144D01*
X131325298Y-71287549D01*
X131206175Y-71364203D01*
X131126259Y-71481163D01*
X131098144Y-71620000D01*
X125128554Y-71620000D01*
X125245298Y-71445281D01*
X125310000Y-71120000D01*
X125310000Y-69850000D01*
X125245298Y-69524719D01*
X125061041Y-69248959D01*
X125061038Y-69248957D01*
X124932082Y-69120000D01*
X128558144Y-69120000D01*
X128558144Y-70620000D01*
X128582549Y-70749702D01*
X128659203Y-70868825D01*
X128776163Y-70948741D01*
X128915000Y-70976856D01*
X130165000Y-70976856D01*
X130294702Y-70952451D01*
X130413825Y-70875797D01*
X130493741Y-70758837D01*
X130521856Y-70620000D01*
X130521856Y-70470000D01*
X131098144Y-70470000D01*
X131098144Y-70620000D01*
X131122549Y-70749702D01*
X131199203Y-70868825D01*
X131316163Y-70948741D01*
X131455000Y-70976856D01*
X132705000Y-70976856D01*
X132834702Y-70952451D01*
X132953825Y-70875797D01*
X133033741Y-70758837D01*
X133061856Y-70620000D01*
X133061856Y-69164162D01*
X133102518Y-69181046D01*
X133638144Y-69716672D01*
X133638144Y-70620000D01*
X133662549Y-70749702D01*
X133739203Y-70868825D01*
X133856163Y-70948741D01*
X133995000Y-70976856D01*
X135245000Y-70976856D01*
X135374702Y-70952451D01*
X135493825Y-70875797D01*
X135573741Y-70758837D01*
X135601856Y-70620000D01*
X135601856Y-70470000D01*
X136178144Y-70470000D01*
X136178144Y-70620000D01*
X136202549Y-70749702D01*
X136279203Y-70868825D01*
X136396163Y-70948741D01*
X136535000Y-70976856D01*
X137785000Y-70976856D01*
X137914702Y-70952451D01*
X138033825Y-70875797D01*
X138113741Y-70758837D01*
X138141856Y-70620000D01*
X138141856Y-69120000D01*
X138117451Y-68990298D01*
X138040797Y-68871175D01*
X137923837Y-68791259D01*
X137785000Y-68763144D01*
X136535000Y-68763144D01*
X136405298Y-68787549D01*
X136286175Y-68864203D01*
X136206259Y-68981163D01*
X136178144Y-69120000D01*
X136178144Y-69270000D01*
X135601856Y-69270000D01*
X135601856Y-69120000D01*
X135577451Y-68990298D01*
X135500797Y-68871175D01*
X135383837Y-68791259D01*
X135245000Y-68763144D01*
X134381672Y-68763144D01*
X134076092Y-68457564D01*
X134077000Y-68453000D01*
X134077000Y-68115128D01*
X134100825Y-68099797D01*
X134180741Y-67982837D01*
X134208856Y-67844000D01*
X134208856Y-67818000D01*
X139737000Y-67818000D01*
X139792187Y-68095445D01*
X139949348Y-68330652D01*
X140184555Y-68487813D01*
X140462000Y-68543000D01*
X141939696Y-68543000D01*
X145029347Y-71632652D01*
X145264554Y-71789812D01*
X145542000Y-71844999D01*
X145819446Y-71789812D01*
X146054652Y-71632652D01*
X146211812Y-71397446D01*
X146266999Y-71120000D01*
X146211812Y-70842554D01*
X146054652Y-70607347D01*
X142752652Y-67305348D01*
X142517446Y-67148187D01*
X142471415Y-67139031D01*
X142240000Y-67093000D01*
X140462000Y-67093000D01*
X140184555Y-67148187D01*
X139949348Y-67305348D01*
X139792187Y-67540555D01*
X139737000Y-67818000D01*
X134208856Y-67818000D01*
X134208856Y-66652048D01*
X134326324Y-66769722D01*
X134565140Y-66868887D01*
X134823726Y-66869112D01*
X135062714Y-66770364D01*
X135154851Y-66678388D01*
X135227203Y-66790825D01*
X135344163Y-66870741D01*
X135483000Y-66898856D01*
X136683000Y-66898856D01*
X136812702Y-66874451D01*
X136931825Y-66797797D01*
X137011741Y-66680837D01*
X137039856Y-66542000D01*
X137039856Y-65792000D01*
X137015451Y-65662298D01*
X136938797Y-65543175D01*
X136821837Y-65463259D01*
X136683000Y-65435144D01*
X135483000Y-65435144D01*
X135353298Y-65459549D01*
X135234175Y-65536203D01*
X135154259Y-65653163D01*
X135146394Y-65692000D01*
X135087357Y-65692000D01*
X135063676Y-65668278D01*
X134824860Y-65569113D01*
X134566274Y-65568888D01*
X134327286Y-65667636D01*
X134144278Y-65850324D01*
X134045113Y-66089140D01*
X134044888Y-66347726D01*
X134047459Y-66353947D01*
X133990837Y-66315259D01*
X133852000Y-66287144D01*
X133102000Y-66287144D01*
X132972298Y-66311549D01*
X132853175Y-66388203D01*
X132843856Y-66401842D01*
X132843856Y-66173000D01*
X132819451Y-66043298D01*
X132742797Y-65924175D01*
X132680000Y-65881267D01*
X132680000Y-65782001D01*
X132729887Y-65661860D01*
X132730112Y-65403274D01*
X132631364Y-65164286D01*
X132448676Y-64981278D01*
X132209860Y-64882113D01*
X131951274Y-64881888D01*
X131712286Y-64980636D01*
X131529278Y-65163324D01*
X131430113Y-65402140D01*
X131429888Y-65660726D01*
X131480000Y-65782006D01*
X131480000Y-65816144D01*
X131287000Y-65816144D01*
X131157298Y-65840549D01*
X131038175Y-65917203D01*
X130958259Y-66034163D01*
X130930144Y-66173000D01*
X130930144Y-66923000D01*
X130954549Y-67052702D01*
X131031203Y-67171825D01*
X131148163Y-67251741D01*
X131287000Y-67279856D01*
X131480000Y-67279856D01*
X131480000Y-68763144D01*
X131455000Y-68763144D01*
X131325298Y-68787549D01*
X131206175Y-68864203D01*
X131126259Y-68981163D01*
X131098144Y-69120000D01*
X131098144Y-69270000D01*
X130521856Y-69270000D01*
X130521856Y-69120000D01*
X130497451Y-68990298D01*
X130420797Y-68871175D01*
X130303837Y-68791259D01*
X130165000Y-68763144D01*
X128915000Y-68763144D01*
X128785298Y-68787549D01*
X128666175Y-68864203D01*
X128586259Y-68981163D01*
X128558144Y-69120000D01*
X124932082Y-69120000D01*
X121694082Y-65882000D01*
X126014144Y-65882000D01*
X126014144Y-67082000D01*
X126038549Y-67211702D01*
X126115203Y-67330825D01*
X126232163Y-67410741D01*
X126371000Y-67438856D01*
X127121000Y-67438856D01*
X127250702Y-67414451D01*
X127369825Y-67337797D01*
X127449741Y-67220837D01*
X127477856Y-67082000D01*
X127477856Y-67034644D01*
X127565140Y-67070887D01*
X127823726Y-67071112D01*
X128062714Y-66972364D01*
X128245722Y-66789676D01*
X128344887Y-66550860D01*
X128345112Y-66292274D01*
X128246364Y-66053286D01*
X128063676Y-65870278D01*
X127824860Y-65771113D01*
X127566274Y-65770888D01*
X127464835Y-65812802D01*
X127453451Y-65752298D01*
X127376797Y-65633175D01*
X127259837Y-65553259D01*
X127121000Y-65525144D01*
X126371000Y-65525144D01*
X126241298Y-65549549D01*
X126122175Y-65626203D01*
X126042259Y-65743163D01*
X126014144Y-65882000D01*
X121694082Y-65882000D01*
X120284873Y-64472791D01*
X120334417Y-64452320D01*
X120368203Y-64504825D01*
X120485163Y-64584741D01*
X120624000Y-64612856D01*
X121824000Y-64612856D01*
X121953702Y-64588451D01*
X122072825Y-64511797D01*
X122098838Y-64473726D01*
X135620888Y-64473726D01*
X135719636Y-64712714D01*
X135902324Y-64895722D01*
X136141140Y-64994887D01*
X136399726Y-64995112D01*
X136560142Y-64928829D01*
X136614163Y-64965741D01*
X136753000Y-64993856D01*
X137953000Y-64993856D01*
X138082702Y-64969451D01*
X138201825Y-64892797D01*
X138281741Y-64775837D01*
X138309856Y-64637000D01*
X138309856Y-63887000D01*
X138285451Y-63757298D01*
X138208797Y-63638175D01*
X138091837Y-63558259D01*
X137953000Y-63530144D01*
X136753000Y-63530144D01*
X136623298Y-63554549D01*
X136504175Y-63631203D01*
X136447324Y-63714407D01*
X136400860Y-63695113D01*
X136142274Y-63694888D01*
X135903286Y-63793636D01*
X135720278Y-63976324D01*
X135621113Y-64215140D01*
X135620888Y-64473726D01*
X122098838Y-64473726D01*
X122152741Y-64394837D01*
X122180856Y-64256000D01*
X122180856Y-63506000D01*
X122156451Y-63376298D01*
X122079797Y-63257175D01*
X121962837Y-63177259D01*
X121824000Y-63149144D01*
X120624000Y-63149144D01*
X120494298Y-63173549D01*
X120375175Y-63250203D01*
X120334433Y-63309831D01*
X120144860Y-63231113D01*
X119886274Y-63230888D01*
X119647286Y-63329636D01*
X119581636Y-63395171D01*
X119575451Y-63362298D01*
X119498797Y-63243175D01*
X119381837Y-63163259D01*
X119243000Y-63135144D01*
X118824094Y-63135144D01*
X118466234Y-62848856D01*
X119243000Y-62848856D01*
X119372702Y-62824451D01*
X119491825Y-62747797D01*
X119571741Y-62630837D01*
X119599856Y-62492000D01*
X119599856Y-61469726D01*
X135493888Y-61469726D01*
X135592636Y-61708714D01*
X135775324Y-61891722D01*
X136014140Y-61990887D01*
X136272726Y-61991112D01*
X136463417Y-61912320D01*
X136497203Y-61964825D01*
X136614163Y-62044741D01*
X136753000Y-62072856D01*
X137953000Y-62072856D01*
X138082702Y-62048451D01*
X138201825Y-61971797D01*
X138281741Y-61854837D01*
X138309856Y-61716000D01*
X138309856Y-60966000D01*
X138285451Y-60836298D01*
X138208797Y-60717175D01*
X138091837Y-60637259D01*
X137953000Y-60609144D01*
X136753000Y-60609144D01*
X136623298Y-60633549D01*
X136504175Y-60710203D01*
X136463433Y-60769831D01*
X136273860Y-60691113D01*
X136015274Y-60690888D01*
X135776286Y-60789636D01*
X135593278Y-60972324D01*
X135494113Y-61211140D01*
X135493888Y-61469726D01*
X119599856Y-61469726D01*
X119599856Y-60992000D01*
X119575451Y-60862298D01*
X119498797Y-60743175D01*
X119468000Y-60722132D01*
X119468000Y-58929726D01*
X126095888Y-58929726D01*
X126194636Y-59168714D01*
X126377324Y-59351722D01*
X126616140Y-59450887D01*
X126874726Y-59451112D01*
X126903144Y-59439370D01*
X126903144Y-59462000D01*
X126927549Y-59591702D01*
X127004203Y-59710825D01*
X127121163Y-59790741D01*
X127260000Y-59818856D01*
X128010000Y-59818856D01*
X128139702Y-59794451D01*
X128258825Y-59717797D01*
X128338741Y-59600837D01*
X128366856Y-59462000D01*
X128366856Y-58262000D01*
X128342451Y-58132298D01*
X128265797Y-58013175D01*
X128148837Y-57933259D01*
X128010000Y-57905144D01*
X127260000Y-57905144D01*
X127130298Y-57929549D01*
X127011175Y-58006203D01*
X126931259Y-58123163D01*
X126921741Y-58170164D01*
X126875860Y-58151113D01*
X126617274Y-58150888D01*
X126378286Y-58249636D01*
X126195278Y-58432324D01*
X126096113Y-58671140D01*
X126095888Y-58929726D01*
X119468000Y-58929726D01*
X119468000Y-58405128D01*
X119491825Y-58389797D01*
X119556784Y-58294726D01*
X119618888Y-58294726D01*
X119717636Y-58533714D01*
X119900324Y-58716722D01*
X120139140Y-58815887D01*
X120397726Y-58816112D01*
X120403303Y-58813808D01*
X120485163Y-58869741D01*
X120624000Y-58897856D01*
X121824000Y-58897856D01*
X121953702Y-58873451D01*
X122072825Y-58796797D01*
X122152741Y-58679837D01*
X122180856Y-58541000D01*
X122180856Y-57791000D01*
X122173895Y-57754000D01*
X134142144Y-57754000D01*
X134142144Y-58954000D01*
X134166549Y-59083702D01*
X134243203Y-59202825D01*
X134360163Y-59282741D01*
X134499000Y-59310856D01*
X135249000Y-59310856D01*
X135367018Y-59288650D01*
X135366888Y-59437726D01*
X135465636Y-59676714D01*
X135648324Y-59859722D01*
X135887140Y-59958887D01*
X136145726Y-59959112D01*
X136384714Y-59860364D01*
X136424816Y-59820332D01*
X136497203Y-59932825D01*
X136614163Y-60012741D01*
X136753000Y-60040856D01*
X137953000Y-60040856D01*
X138082702Y-60016451D01*
X138201825Y-59939797D01*
X138281741Y-59822837D01*
X138309856Y-59684000D01*
X138309856Y-59437726D01*
X143494888Y-59437726D01*
X143593636Y-59676714D01*
X143776324Y-59859722D01*
X144015140Y-59958887D01*
X144273726Y-59959112D01*
X144512714Y-59860364D01*
X144589212Y-59784000D01*
X145986734Y-59784000D01*
X146062324Y-59859722D01*
X146301140Y-59958887D01*
X146559726Y-59959112D01*
X146798714Y-59860364D01*
X146981722Y-59677676D01*
X147080887Y-59438860D01*
X147081112Y-59180274D01*
X146982364Y-58941286D01*
X146799676Y-58758278D01*
X146560860Y-58659113D01*
X146302274Y-58658888D01*
X146063286Y-58757636D01*
X145986788Y-58834000D01*
X144589266Y-58834000D01*
X144513676Y-58758278D01*
X144274860Y-58659113D01*
X144016274Y-58658888D01*
X143777286Y-58757636D01*
X143594278Y-58940324D01*
X143495113Y-59179140D01*
X143494888Y-59437726D01*
X138309856Y-59437726D01*
X138309856Y-58934000D01*
X138285451Y-58804298D01*
X138208797Y-58685175D01*
X138091837Y-58605259D01*
X137953000Y-58577144D01*
X136753000Y-58577144D01*
X136623298Y-58601549D01*
X136504175Y-58678203D01*
X136424259Y-58795163D01*
X136423962Y-58796631D01*
X136385676Y-58758278D01*
X136335070Y-58737265D01*
X136412887Y-58549860D01*
X136413112Y-58291274D01*
X136314364Y-58052286D01*
X136131676Y-57869278D01*
X135892860Y-57770113D01*
X135634274Y-57769888D01*
X135605856Y-57781630D01*
X135605856Y-57754000D01*
X135581451Y-57624298D01*
X135504797Y-57505175D01*
X135387837Y-57425259D01*
X135249000Y-57397144D01*
X134499000Y-57397144D01*
X134369298Y-57421549D01*
X134250175Y-57498203D01*
X134170259Y-57615163D01*
X134142144Y-57754000D01*
X122173895Y-57754000D01*
X122156451Y-57661298D01*
X122079797Y-57542175D01*
X121962837Y-57462259D01*
X121824000Y-57434144D01*
X120624000Y-57434144D01*
X120494298Y-57458549D01*
X120402496Y-57517623D01*
X120398860Y-57516113D01*
X120140274Y-57515888D01*
X119901286Y-57614636D01*
X119718278Y-57797324D01*
X119619113Y-58036140D01*
X119618888Y-58294726D01*
X119556784Y-58294726D01*
X119571741Y-58272837D01*
X119599856Y-58134000D01*
X119599856Y-56634000D01*
X119575451Y-56504298D01*
X119498797Y-56385175D01*
X119381837Y-56305259D01*
X119243000Y-56277144D01*
X117993000Y-56277144D01*
X117863298Y-56301549D01*
X117744175Y-56378203D01*
X117667693Y-56490138D01*
X117694856Y-56356000D01*
X117694856Y-54856000D01*
X117670451Y-54726298D01*
X117593797Y-54607175D01*
X117476837Y-54527259D01*
X117338000Y-54499144D01*
X116088000Y-54499144D01*
X115958298Y-54523549D01*
X115839175Y-54600203D01*
X115759259Y-54717163D01*
X115731144Y-54856000D01*
X115731144Y-56356000D01*
X115755549Y-56485702D01*
X115832203Y-56604825D01*
X115863000Y-56625868D01*
X115863000Y-58942872D01*
X115839175Y-58958203D01*
X115759259Y-59075163D01*
X115731144Y-59214000D01*
X115731144Y-60714000D01*
X115755549Y-60843702D01*
X115832203Y-60962825D01*
X115949163Y-61042741D01*
X116088000Y-61070856D01*
X117338000Y-61070856D01*
X117467702Y-61046451D01*
X117586825Y-60969797D01*
X117663307Y-60857862D01*
X117636144Y-60992000D01*
X117636144Y-61530984D01*
X117593797Y-61465175D01*
X117476837Y-61385259D01*
X117338000Y-61357144D01*
X116088000Y-61357144D01*
X115958298Y-61381549D01*
X115839175Y-61458203D01*
X115759259Y-61575163D01*
X115731144Y-61714000D01*
X115731144Y-62741827D01*
X115684676Y-62695278D01*
X115445860Y-62596113D01*
X115187274Y-62595888D01*
X114948286Y-62694636D01*
X114765278Y-62877324D01*
X114666113Y-63116140D01*
X114665888Y-63374726D01*
X105678887Y-63374726D01*
X105679112Y-63117274D01*
X105580364Y-62878286D01*
X105397676Y-62695278D01*
X105158860Y-62596113D01*
X104900274Y-62595888D01*
X104661286Y-62694636D01*
X104478278Y-62877324D01*
X104379113Y-63116140D01*
X104379019Y-63224229D01*
X102848267Y-64754981D01*
X102764660Y-64754908D01*
X101869019Y-63859267D01*
X101869112Y-63752274D01*
X101770364Y-63513286D01*
X101587676Y-63330278D01*
X101348860Y-63231113D01*
X101090274Y-63230888D01*
X100851286Y-63329636D01*
X100668278Y-63512324D01*
X100569113Y-63751140D01*
X100568888Y-64009726D01*
X98017870Y-64009726D01*
X98010451Y-63970298D01*
X97933797Y-63851175D01*
X97816837Y-63771259D01*
X97678000Y-63743144D01*
X96378000Y-63743144D01*
X96248298Y-63767549D01*
X96129175Y-63844203D01*
X96049259Y-63961163D01*
X96021144Y-64100000D01*
X95018097Y-64100000D01*
X95112164Y-63959220D01*
X95203509Y-63500000D01*
X95112164Y-63040780D01*
X94852037Y-62651472D01*
X94462729Y-62391345D01*
X94003509Y-62300000D01*
X93956491Y-62300000D01*
X93497271Y-62391345D01*
X93107963Y-62651472D01*
X92847836Y-63040780D01*
X92756491Y-63500000D01*
X92663509Y-63500000D01*
X92572164Y-63040780D01*
X92312037Y-62651472D01*
X91922729Y-62391345D01*
X91463509Y-62300000D01*
X91416491Y-62300000D01*
X90957271Y-62391345D01*
X90567963Y-62651472D01*
X90307836Y-63040780D01*
X90216491Y-63500000D01*
X89325000Y-63500000D01*
X89325000Y-60960000D01*
X90216491Y-60960000D01*
X90307836Y-61419220D01*
X90567963Y-61808528D01*
X90957271Y-62068655D01*
X91416491Y-62160000D01*
X91463509Y-62160000D01*
X91922729Y-62068655D01*
X92312037Y-61808528D01*
X92572164Y-61419220D01*
X92663509Y-60960000D01*
X92756491Y-60960000D01*
X92847836Y-61419220D01*
X93107963Y-61808528D01*
X93497271Y-62068655D01*
X93956491Y-62160000D01*
X94003509Y-62160000D01*
X94462729Y-62068655D01*
X94852037Y-61808528D01*
X95112164Y-61419220D01*
X95203509Y-60960000D01*
X95112164Y-60500780D01*
X94852037Y-60111472D01*
X94462729Y-59851345D01*
X94003509Y-59760000D01*
X93956491Y-59760000D01*
X93497271Y-59851345D01*
X93107963Y-60111472D01*
X92847836Y-60500780D01*
X92756491Y-60960000D01*
X92663509Y-60960000D01*
X92572164Y-60500780D01*
X92312037Y-60111472D01*
X91922729Y-59851345D01*
X91463509Y-59760000D01*
X91416491Y-59760000D01*
X90957271Y-59851345D01*
X90567963Y-60111472D01*
X90307836Y-60500780D01*
X90216491Y-60960000D01*
X89325000Y-60960000D01*
X89325000Y-58420000D01*
X90216491Y-58420000D01*
X90307836Y-58879220D01*
X90567963Y-59268528D01*
X90957271Y-59528655D01*
X91416491Y-59620000D01*
X91463509Y-59620000D01*
X91922729Y-59528655D01*
X92312037Y-59268528D01*
X92572164Y-58879220D01*
X92663509Y-58420000D01*
X92756491Y-58420000D01*
X92847836Y-58879220D01*
X93107963Y-59268528D01*
X93497271Y-59528655D01*
X93956491Y-59620000D01*
X94003509Y-59620000D01*
X94462729Y-59528655D01*
X94852037Y-59268528D01*
X95018097Y-59020000D01*
X96021144Y-59020000D01*
X96021144Y-60520000D01*
X96045549Y-60649702D01*
X96122203Y-60768825D01*
X96239163Y-60848741D01*
X96378000Y-60876856D01*
X97647962Y-60876856D01*
X97647888Y-60961726D01*
X97681852Y-61043924D01*
X97678000Y-61043144D01*
X96378000Y-61043144D01*
X96248298Y-61067549D01*
X96129175Y-61144203D01*
X96049259Y-61261163D01*
X96021144Y-61400000D01*
X96021144Y-62900000D01*
X96045549Y-63029702D01*
X96122203Y-63148825D01*
X96239163Y-63228741D01*
X96378000Y-63256856D01*
X97678000Y-63256856D01*
X97807702Y-63232451D01*
X97926825Y-63155797D01*
X98006741Y-63038837D01*
X98034856Y-62900000D01*
X98034856Y-62515289D01*
X98059215Y-62499013D01*
X98172726Y-62499112D01*
X98411714Y-62400364D01*
X98594722Y-62217676D01*
X98693887Y-61978860D01*
X98693998Y-61850726D01*
X100314888Y-61850726D01*
X100413636Y-62089714D01*
X100596324Y-62272722D01*
X100835140Y-62371887D01*
X101093726Y-62372112D01*
X101210166Y-62324000D01*
X101362960Y-62324000D01*
X101368549Y-62353702D01*
X101445203Y-62472825D01*
X101562163Y-62552741D01*
X101701000Y-62580856D01*
X102901000Y-62580856D01*
X103030702Y-62556451D01*
X103149825Y-62479797D01*
X103229741Y-62362837D01*
X103257856Y-62224000D01*
X103257856Y-61474000D01*
X103233451Y-61344298D01*
X103156797Y-61225175D01*
X103039837Y-61145259D01*
X102901000Y-61117144D01*
X101701000Y-61117144D01*
X101571298Y-61141549D01*
X101452175Y-61218203D01*
X101423058Y-61260817D01*
X101333676Y-61171278D01*
X101094860Y-61072113D01*
X100836274Y-61071888D01*
X100597286Y-61170636D01*
X100414278Y-61353324D01*
X100315113Y-61592140D01*
X100314888Y-61850726D01*
X98693998Y-61850726D01*
X98694112Y-61720274D01*
X98595364Y-61481286D01*
X98547409Y-61433247D01*
X98665714Y-61384364D01*
X98848722Y-61201676D01*
X98947887Y-60962860D01*
X98948112Y-60704274D01*
X98849364Y-60465286D01*
X98666676Y-60282278D01*
X98427860Y-60183113D01*
X98319771Y-60183019D01*
X98034856Y-59898104D01*
X98034856Y-59020000D01*
X98010451Y-58890298D01*
X97933797Y-58771175D01*
X97816837Y-58691259D01*
X97678000Y-58663144D01*
X96378000Y-58663144D01*
X96248298Y-58687549D01*
X96129175Y-58764203D01*
X96049259Y-58881163D01*
X96021144Y-59020000D01*
X95018097Y-59020000D01*
X95112164Y-58879220D01*
X95203509Y-58420000D01*
X95112164Y-57960780D01*
X94852037Y-57571472D01*
X94462729Y-57311345D01*
X94003509Y-57220000D01*
X93956491Y-57220000D01*
X93497271Y-57311345D01*
X93107963Y-57571472D01*
X92847836Y-57960780D01*
X92756491Y-58420000D01*
X92663509Y-58420000D01*
X92572164Y-57960780D01*
X92312037Y-57571472D01*
X91922729Y-57311345D01*
X91463509Y-57220000D01*
X91416491Y-57220000D01*
X90957271Y-57311345D01*
X90567963Y-57571472D01*
X90307836Y-57960780D01*
X90216491Y-58420000D01*
X89325000Y-58420000D01*
X89325000Y-55880000D01*
X90216491Y-55880000D01*
X90307836Y-56339220D01*
X90567963Y-56728528D01*
X90957271Y-56988655D01*
X91416491Y-57080000D01*
X91463509Y-57080000D01*
X91922729Y-56988655D01*
X92312037Y-56728528D01*
X92572164Y-56339220D01*
X92663509Y-55880000D01*
X92756491Y-55880000D01*
X92847836Y-56339220D01*
X93107963Y-56728528D01*
X93497271Y-56988655D01*
X93956491Y-57080000D01*
X94003509Y-57080000D01*
X94462729Y-56988655D01*
X94852037Y-56728528D01*
X95112164Y-56339220D01*
X95115987Y-56320000D01*
X96021144Y-56320000D01*
X96021144Y-57820000D01*
X96045549Y-57949702D01*
X96122203Y-58068825D01*
X96239163Y-58148741D01*
X96378000Y-58176856D01*
X97678000Y-58176856D01*
X97807702Y-58152451D01*
X97926825Y-58075797D01*
X98006741Y-57958837D01*
X98034856Y-57820000D01*
X98034856Y-57543278D01*
X98041140Y-57545887D01*
X98299726Y-57546112D01*
X98538714Y-57447364D01*
X98721722Y-57264676D01*
X98820887Y-57025860D01*
X98820887Y-57024726D01*
X100187888Y-57024726D01*
X100286636Y-57263714D01*
X100469324Y-57446722D01*
X100708140Y-57545887D01*
X100966726Y-57546112D01*
X101205714Y-57447364D01*
X101282212Y-57371000D01*
X101362960Y-57371000D01*
X101368549Y-57400702D01*
X101445203Y-57519825D01*
X101562163Y-57599741D01*
X101701000Y-57627856D01*
X102901000Y-57627856D01*
X103030702Y-57603451D01*
X103149825Y-57526797D01*
X103229741Y-57409837D01*
X103257856Y-57271000D01*
X103257856Y-56521000D01*
X103233451Y-56391298D01*
X103156797Y-56272175D01*
X103039837Y-56192259D01*
X102901000Y-56164144D01*
X101701000Y-56164144D01*
X101571298Y-56188549D01*
X101452175Y-56265203D01*
X101372259Y-56382163D01*
X101364394Y-56421000D01*
X101282266Y-56421000D01*
X101206676Y-56345278D01*
X100967860Y-56246113D01*
X100709274Y-56245888D01*
X100470286Y-56344636D01*
X100287278Y-56527324D01*
X100188113Y-56766140D01*
X100187888Y-57024726D01*
X98820887Y-57024726D01*
X98821112Y-56767274D01*
X98722364Y-56528286D01*
X98539676Y-56345278D01*
X98300860Y-56246113D01*
X98042274Y-56245888D01*
X98022452Y-56254078D01*
X98010451Y-56190298D01*
X97933797Y-56071175D01*
X97816837Y-55991259D01*
X97678000Y-55963144D01*
X96378000Y-55963144D01*
X96248298Y-55987549D01*
X96129175Y-56064203D01*
X96049259Y-56181163D01*
X96021144Y-56320000D01*
X95115987Y-56320000D01*
X95203509Y-55880000D01*
X95112164Y-55420780D01*
X94852037Y-55031472D01*
X94462729Y-54771345D01*
X94003509Y-54680000D01*
X93956491Y-54680000D01*
X93497271Y-54771345D01*
X93107963Y-55031472D01*
X92847836Y-55420780D01*
X92756491Y-55880000D01*
X92663509Y-55880000D01*
X92572164Y-55420780D01*
X92312037Y-55031472D01*
X91922729Y-54771345D01*
X91463509Y-54680000D01*
X91416491Y-54680000D01*
X90957271Y-54771345D01*
X90567963Y-55031472D01*
X90307836Y-55420780D01*
X90216491Y-55880000D01*
X89325000Y-55880000D01*
X89325000Y-53340000D01*
X90216491Y-53340000D01*
X90307836Y-53799220D01*
X90567963Y-54188528D01*
X90957271Y-54448655D01*
X91416491Y-54540000D01*
X91463509Y-54540000D01*
X91922729Y-54448655D01*
X92312037Y-54188528D01*
X92572164Y-53799220D01*
X92663509Y-53340000D01*
X92756491Y-53340000D01*
X92847836Y-53799220D01*
X93107963Y-54188528D01*
X93497271Y-54448655D01*
X93956491Y-54540000D01*
X94003509Y-54540000D01*
X94462729Y-54448655D01*
X94852037Y-54188528D01*
X95018097Y-53940000D01*
X96021144Y-53940000D01*
X96021144Y-55440000D01*
X96045549Y-55569702D01*
X96122203Y-55688825D01*
X96239163Y-55768741D01*
X96378000Y-55796856D01*
X97549678Y-55796856D01*
X97675324Y-55922722D01*
X97914140Y-56021887D01*
X98172726Y-56022112D01*
X98411714Y-55923364D01*
X98594722Y-55740676D01*
X98693887Y-55501860D01*
X98694112Y-55243274D01*
X98595364Y-55004286D01*
X98412676Y-54821278D01*
X98173860Y-54722113D01*
X98065770Y-54722019D01*
X98034856Y-54691104D01*
X98034856Y-53940000D01*
X98010451Y-53810298D01*
X97933797Y-53691175D01*
X97816837Y-53611259D01*
X97678000Y-53583144D01*
X96378000Y-53583144D01*
X96248298Y-53607549D01*
X96129175Y-53684203D01*
X96049259Y-53801163D01*
X96021144Y-53940000D01*
X95018097Y-53940000D01*
X95112164Y-53799220D01*
X95177903Y-53468726D01*
X100187888Y-53468726D01*
X100286636Y-53707714D01*
X100469324Y-53890722D01*
X100708140Y-53989887D01*
X100966726Y-53990112D01*
X101083166Y-53942000D01*
X101362960Y-53942000D01*
X101368549Y-53971702D01*
X101445203Y-54090825D01*
X101562163Y-54170741D01*
X101701000Y-54198856D01*
X102901000Y-54198856D01*
X103030702Y-54174451D01*
X103149825Y-54097797D01*
X103229741Y-53980837D01*
X103256291Y-53849726D01*
X140319888Y-53849726D01*
X140418636Y-54088714D01*
X140495000Y-54165212D01*
X140495000Y-55181734D01*
X140419278Y-55257324D01*
X140320113Y-55496140D01*
X140319888Y-55754726D01*
X140418636Y-55993714D01*
X140601324Y-56176722D01*
X140840140Y-56275887D01*
X141098726Y-56276112D01*
X141337714Y-56177364D01*
X141520722Y-55994676D01*
X141619887Y-55755860D01*
X141620112Y-55497274D01*
X141521364Y-55258286D01*
X141445000Y-55181788D01*
X141445000Y-54165266D01*
X141520722Y-54089676D01*
X141567622Y-53976726D01*
X144764888Y-53976726D01*
X144863636Y-54215714D01*
X145046324Y-54398722D01*
X145167518Y-54449046D01*
X145831000Y-55112528D01*
X145831000Y-57277000D01*
X145876672Y-57506610D01*
X146006736Y-57701264D01*
X146718959Y-58413487D01*
X146768636Y-58533714D01*
X146951324Y-58716722D01*
X147190140Y-58815887D01*
X147448726Y-58816112D01*
X147687714Y-58717364D01*
X147870722Y-58534676D01*
X147969887Y-58295860D01*
X147970112Y-58037274D01*
X147871364Y-57798286D01*
X147688676Y-57615278D01*
X147567482Y-57564954D01*
X147031000Y-57028472D01*
X147031000Y-54864000D01*
X146985328Y-54634390D01*
X146855264Y-54439736D01*
X146016041Y-53600513D01*
X145966364Y-53480286D01*
X145783676Y-53297278D01*
X145544860Y-53198113D01*
X145286274Y-53197888D01*
X145047286Y-53296636D01*
X144864278Y-53479324D01*
X144765113Y-53718140D01*
X144764888Y-53976726D01*
X141567622Y-53976726D01*
X141619887Y-53850860D01*
X141620112Y-53592274D01*
X141521364Y-53353286D01*
X141338676Y-53170278D01*
X141099860Y-53071113D01*
X140841274Y-53070888D01*
X140602286Y-53169636D01*
X140419278Y-53352324D01*
X140320113Y-53591140D01*
X140319888Y-53849726D01*
X103256291Y-53849726D01*
X103257856Y-53842000D01*
X103257856Y-53092000D01*
X103233451Y-52962298D01*
X103156797Y-52843175D01*
X103039837Y-52763259D01*
X102901000Y-52735144D01*
X101701000Y-52735144D01*
X101571298Y-52759549D01*
X101452175Y-52836203D01*
X101372259Y-52953163D01*
X101371924Y-52954816D01*
X101206676Y-52789278D01*
X100967860Y-52690113D01*
X100709274Y-52689888D01*
X100470286Y-52788636D01*
X100287278Y-52971324D01*
X100188113Y-53210140D01*
X100187888Y-53468726D01*
X95177903Y-53468726D01*
X95203509Y-53340000D01*
X95112164Y-52880780D01*
X94852037Y-52491472D01*
X94462729Y-52231345D01*
X94003509Y-52140000D01*
X93956491Y-52140000D01*
X93497271Y-52231345D01*
X93107963Y-52491472D01*
X92847836Y-52880780D01*
X92756491Y-53340000D01*
X92663509Y-53340000D01*
X92572164Y-52880780D01*
X92312037Y-52491472D01*
X91922729Y-52231345D01*
X91463509Y-52140000D01*
X91416491Y-52140000D01*
X90957271Y-52231345D01*
X90567963Y-52491472D01*
X90307836Y-52880780D01*
X90216491Y-53340000D01*
X89325000Y-53340000D01*
X89325000Y-50800000D01*
X90216491Y-50800000D01*
X90307836Y-51259220D01*
X90567963Y-51648528D01*
X90957271Y-51908655D01*
X91416491Y-52000000D01*
X91463509Y-52000000D01*
X91922729Y-51908655D01*
X92312037Y-51648528D01*
X92572164Y-51259220D01*
X92663509Y-50800000D01*
X92756491Y-50800000D01*
X92847836Y-51259220D01*
X93107963Y-51648528D01*
X93497271Y-51908655D01*
X93956491Y-52000000D01*
X94003509Y-52000000D01*
X94462729Y-51908655D01*
X94598814Y-51817726D01*
X132826888Y-51817726D01*
X132925636Y-52056714D01*
X133108324Y-52239722D01*
X133347140Y-52338887D01*
X133605726Y-52339112D01*
X133844714Y-52240364D01*
X134027722Y-52057676D01*
X134126887Y-51818860D01*
X134126981Y-51710771D01*
X134641733Y-51196019D01*
X134748726Y-51196112D01*
X134987714Y-51097364D01*
X135170722Y-50914676D01*
X135269887Y-50675860D01*
X135270112Y-50417274D01*
X135171364Y-50178286D01*
X134988676Y-49995278D01*
X134749860Y-49896113D01*
X134491274Y-49895888D01*
X134252286Y-49994636D01*
X134069278Y-50177324D01*
X133970113Y-50416140D01*
X133970019Y-50524229D01*
X133455267Y-51038981D01*
X133348274Y-51038888D01*
X133109286Y-51137636D01*
X132926278Y-51320324D01*
X132827113Y-51559140D01*
X132826888Y-51817726D01*
X94598814Y-51817726D01*
X94852037Y-51648528D01*
X95112164Y-51259220D01*
X95203165Y-50801726D01*
X100314888Y-50801726D01*
X100413636Y-51040714D01*
X100596324Y-51223722D01*
X100835140Y-51322887D01*
X101093726Y-51323112D01*
X101210166Y-51275000D01*
X101362960Y-51275000D01*
X101368549Y-51304702D01*
X101445203Y-51423825D01*
X101562163Y-51503741D01*
X101701000Y-51531856D01*
X102901000Y-51531856D01*
X103030702Y-51507451D01*
X103149825Y-51430797D01*
X103229741Y-51313837D01*
X103257856Y-51175000D01*
X103257856Y-50425000D01*
X103233451Y-50295298D01*
X103156797Y-50176175D01*
X103039837Y-50096259D01*
X102901000Y-50068144D01*
X101701000Y-50068144D01*
X101571298Y-50092549D01*
X101452175Y-50169203D01*
X101423058Y-50211817D01*
X101333676Y-50122278D01*
X101134869Y-50039726D01*
X119237888Y-50039726D01*
X119336636Y-50278714D01*
X119378144Y-50320295D01*
X119378144Y-50921000D01*
X119402549Y-51050702D01*
X119479203Y-51169825D01*
X119596163Y-51249741D01*
X119735000Y-51277856D01*
X120935000Y-51277856D01*
X121064702Y-51253451D01*
X121183825Y-51176797D01*
X121263741Y-51059837D01*
X121291856Y-50921000D01*
X121291856Y-50171000D01*
X121267451Y-50041298D01*
X121190797Y-49922175D01*
X121073837Y-49842259D01*
X120935000Y-49814144D01*
X120538084Y-49814144D01*
X120538112Y-49782274D01*
X120439364Y-49543286D01*
X120256676Y-49360278D01*
X120017860Y-49261113D01*
X119759274Y-49260888D01*
X119520286Y-49359636D01*
X119337278Y-49542324D01*
X119238113Y-49781140D01*
X119237888Y-50039726D01*
X101134869Y-50039726D01*
X101094860Y-50023113D01*
X100836274Y-50022888D01*
X100597286Y-50121636D01*
X100414278Y-50304324D01*
X100315113Y-50543140D01*
X100314888Y-50801726D01*
X95203165Y-50801726D01*
X95203509Y-50800000D01*
X95112164Y-50340780D01*
X94852037Y-49951472D01*
X94462729Y-49691345D01*
X94003509Y-49600000D01*
X93956491Y-49600000D01*
X93497271Y-49691345D01*
X93107963Y-49951472D01*
X92847836Y-50340780D01*
X92756491Y-50800000D01*
X92663509Y-50800000D01*
X92572164Y-50340780D01*
X92312037Y-49951472D01*
X91922729Y-49691345D01*
X91463509Y-49600000D01*
X91416491Y-49600000D01*
X90957271Y-49691345D01*
X90567963Y-49951472D01*
X90307836Y-50340780D01*
X90216491Y-50800000D01*
X89325000Y-50800000D01*
X89325000Y-48260000D01*
X90216491Y-48260000D01*
X90307836Y-48719220D01*
X90567963Y-49108528D01*
X90957271Y-49368655D01*
X91416491Y-49460000D01*
X91463509Y-49460000D01*
X91922729Y-49368655D01*
X92312037Y-49108528D01*
X92572164Y-48719220D01*
X92663509Y-48260000D01*
X92756491Y-48260000D01*
X92847836Y-48719220D01*
X93107963Y-49108528D01*
X93497271Y-49368655D01*
X93956491Y-49460000D01*
X94003509Y-49460000D01*
X94462729Y-49368655D01*
X94852037Y-49108528D01*
X95112164Y-48719220D01*
X95203509Y-48260000D01*
X95112164Y-47800780D01*
X94852037Y-47411472D01*
X94462729Y-47151345D01*
X94003509Y-47060000D01*
X93956491Y-47060000D01*
X93497271Y-47151345D01*
X93107963Y-47411472D01*
X92847836Y-47800780D01*
X92756491Y-48260000D01*
X92663509Y-48260000D01*
X92572164Y-47800780D01*
X92312037Y-47411472D01*
X91922729Y-47151345D01*
X91463509Y-47060000D01*
X91416491Y-47060000D01*
X90957271Y-47151345D01*
X90567963Y-47411472D01*
X90307836Y-47800780D01*
X90216491Y-48260000D01*
X89325000Y-48260000D01*
X89325000Y-45720000D01*
X90216491Y-45720000D01*
X90307836Y-46179220D01*
X90567963Y-46568528D01*
X90957271Y-46828655D01*
X91416491Y-46920000D01*
X91463509Y-46920000D01*
X91922729Y-46828655D01*
X92312037Y-46568528D01*
X92572164Y-46179220D01*
X92663509Y-45720000D01*
X92756491Y-45720000D01*
X92847836Y-46179220D01*
X93107963Y-46568528D01*
X93497271Y-46828655D01*
X93956491Y-46920000D01*
X94003509Y-46920000D01*
X94462729Y-46828655D01*
X94852037Y-46568528D01*
X95015425Y-46324000D01*
X99852144Y-46324000D01*
X99852144Y-47524000D01*
X99876549Y-47653702D01*
X99953203Y-47772825D01*
X100070163Y-47852741D01*
X100209000Y-47880856D01*
X100959000Y-47880856D01*
X101088702Y-47856451D01*
X101207825Y-47779797D01*
X101287741Y-47662837D01*
X101315856Y-47524000D01*
X101315856Y-47501558D01*
X101343140Y-47512887D01*
X101601726Y-47513112D01*
X101757144Y-47448894D01*
X101757144Y-47656000D01*
X101781549Y-47785702D01*
X101858203Y-47904825D01*
X101975163Y-47984741D01*
X102114000Y-48012856D01*
X102774104Y-48012856D01*
X103120960Y-48359712D01*
X103081278Y-48399324D01*
X102982113Y-48638140D01*
X102981888Y-48896726D01*
X103080636Y-49135714D01*
X103263324Y-49318722D01*
X103502140Y-49417887D01*
X103760726Y-49418112D01*
X103999714Y-49319364D01*
X104182722Y-49136676D01*
X104281887Y-48897860D01*
X104281998Y-48769726D01*
X116697888Y-48769726D01*
X116796636Y-49008714D01*
X116979324Y-49191722D01*
X117218140Y-49290887D01*
X117476726Y-49291112D01*
X117715714Y-49192364D01*
X117898722Y-49009676D01*
X117997887Y-48770860D01*
X117997981Y-48662771D01*
X118306752Y-48354000D01*
X119189734Y-48354000D01*
X119265324Y-48429722D01*
X119378144Y-48476569D01*
X119378144Y-48635000D01*
X119402549Y-48764702D01*
X119479203Y-48883825D01*
X119596163Y-48963741D01*
X119735000Y-48991856D01*
X120935000Y-48991856D01*
X121064702Y-48967451D01*
X121183825Y-48890797D01*
X121263741Y-48773837D01*
X121272267Y-48731730D01*
X142397588Y-48731730D01*
X142759461Y-49607532D01*
X143428944Y-50278184D01*
X144304112Y-50641585D01*
X145251730Y-50642412D01*
X146127532Y-50280539D01*
X146798184Y-49611056D01*
X147161585Y-48735888D01*
X147162412Y-47788270D01*
X146800539Y-46912468D01*
X146131056Y-46241816D01*
X145255888Y-45878415D01*
X144308270Y-45877588D01*
X143432468Y-46239461D01*
X142761816Y-46908944D01*
X142398415Y-47784112D01*
X142397588Y-48731730D01*
X121272267Y-48731730D01*
X121291856Y-48635000D01*
X121291856Y-47885000D01*
X121267451Y-47755298D01*
X121190797Y-47636175D01*
X121073837Y-47556259D01*
X120935000Y-47528144D01*
X120192330Y-47528144D01*
X120185364Y-47511286D01*
X120002676Y-47328278D01*
X119793825Y-47241556D01*
X119803722Y-47231676D01*
X119863856Y-47086856D01*
X121062000Y-47086856D01*
X121191702Y-47062451D01*
X121310825Y-46985797D01*
X121390741Y-46868837D01*
X121418856Y-46730000D01*
X121418856Y-45980000D01*
X121394451Y-45850298D01*
X121317797Y-45731175D01*
X121200837Y-45651259D01*
X121062000Y-45623144D01*
X119862000Y-45623144D01*
X119732298Y-45647549D01*
X119613175Y-45724203D01*
X119533259Y-45841163D01*
X119508503Y-45963412D01*
X119425124Y-46019124D01*
X119425122Y-46019127D01*
X119231268Y-46212981D01*
X119124274Y-46212888D01*
X118885286Y-46311636D01*
X118702278Y-46494324D01*
X118603113Y-46733140D01*
X118602888Y-46991726D01*
X118701636Y-47230714D01*
X118874619Y-47404000D01*
X118110005Y-47404000D01*
X118110000Y-47403999D01*
X117958384Y-47434158D01*
X117928225Y-47440157D01*
X117823213Y-47510324D01*
X117774124Y-47543124D01*
X117326267Y-47990981D01*
X117219274Y-47990888D01*
X116980286Y-48089636D01*
X116797278Y-48272324D01*
X116698113Y-48511140D01*
X116697888Y-48769726D01*
X104281998Y-48769726D01*
X104282112Y-48639274D01*
X104183364Y-48400286D01*
X104107000Y-48323788D01*
X104107000Y-48199000D01*
X104070843Y-48017225D01*
X103967876Y-47863124D01*
X103220856Y-47116104D01*
X103220856Y-46610726D01*
X103616888Y-46610726D01*
X103715636Y-46849714D01*
X103898324Y-47032722D01*
X104137140Y-47131887D01*
X104297144Y-47132026D01*
X104297144Y-47524000D01*
X104321549Y-47653702D01*
X104398203Y-47772825D01*
X104515163Y-47852741D01*
X104654000Y-47880856D01*
X105404000Y-47880856D01*
X105533702Y-47856451D01*
X105652825Y-47779797D01*
X105732741Y-47662837D01*
X105760856Y-47524000D01*
X105760856Y-46610726D01*
X108089888Y-46610726D01*
X108188636Y-46849714D01*
X108371324Y-47032722D01*
X108610140Y-47131887D01*
X108718230Y-47131981D01*
X108742144Y-47155895D01*
X108742144Y-47524000D01*
X108766549Y-47653702D01*
X108843203Y-47772825D01*
X108960163Y-47852741D01*
X109099000Y-47880856D01*
X109849000Y-47880856D01*
X109978702Y-47856451D01*
X110097825Y-47779797D01*
X110177741Y-47662837D01*
X110205856Y-47524000D01*
X110205856Y-46356726D01*
X111109888Y-46356726D01*
X111208636Y-46595714D01*
X111391324Y-46778722D01*
X111630140Y-46877887D01*
X111888726Y-46878112D01*
X112127714Y-46779364D01*
X112310722Y-46596676D01*
X112409887Y-46357860D01*
X112409887Y-46356726D01*
X114089888Y-46356726D01*
X114188636Y-46595714D01*
X114371324Y-46778722D01*
X114610140Y-46877887D01*
X114838144Y-46878085D01*
X114838144Y-47021000D01*
X114862549Y-47150702D01*
X114939203Y-47269825D01*
X115056163Y-47349741D01*
X115195000Y-47377856D01*
X115945000Y-47377856D01*
X116074702Y-47353451D01*
X116193825Y-47276797D01*
X116273741Y-47159837D01*
X116301856Y-47021000D01*
X116301856Y-45821000D01*
X116277451Y-45691298D01*
X116200797Y-45572175D01*
X116083837Y-45492259D01*
X115945000Y-45464144D01*
X115195000Y-45464144D01*
X115065298Y-45488549D01*
X114946175Y-45565203D01*
X114922437Y-45599945D01*
X114869860Y-45578113D01*
X114611274Y-45577888D01*
X114372286Y-45676636D01*
X114189278Y-45859324D01*
X114090113Y-46098140D01*
X114089888Y-46356726D01*
X112409887Y-46356726D01*
X112410112Y-46099274D01*
X112311364Y-45860286D01*
X112235000Y-45783788D01*
X112235000Y-45313000D01*
X130205144Y-45313000D01*
X130205144Y-46513000D01*
X130229549Y-46642702D01*
X130306203Y-46761825D01*
X130423163Y-46841741D01*
X130562000Y-46869856D01*
X131312000Y-46869856D01*
X131441702Y-46845451D01*
X131560825Y-46768797D01*
X131640741Y-46651837D01*
X131668856Y-46513000D01*
X131668856Y-45313000D01*
X131644451Y-45183298D01*
X131567797Y-45064175D01*
X131536311Y-45042661D01*
X131586887Y-44920860D01*
X131587112Y-44662274D01*
X131488364Y-44423286D01*
X131305676Y-44240278D01*
X131066860Y-44141113D01*
X130808274Y-44140888D01*
X130569286Y-44239636D01*
X130386278Y-44422324D01*
X130287113Y-44661140D01*
X130286888Y-44919726D01*
X130337283Y-45041690D01*
X130313175Y-45057203D01*
X130233259Y-45174163D01*
X130205144Y-45313000D01*
X112235000Y-45313000D01*
X112235000Y-45243333D01*
X112378500Y-45052000D01*
X121729734Y-45052000D01*
X121805324Y-45127722D01*
X122044140Y-45226887D01*
X122302726Y-45227112D01*
X122541714Y-45128364D01*
X122724722Y-44945676D01*
X122823887Y-44706860D01*
X122824112Y-44448274D01*
X122725364Y-44209286D01*
X122542676Y-44026278D01*
X122303860Y-43927113D01*
X122045274Y-43926888D01*
X121806286Y-44025636D01*
X121729788Y-44102000D01*
X112141000Y-44102000D01*
X112107713Y-44108621D01*
X112073825Y-44106774D01*
X112017641Y-44126537D01*
X111959225Y-44138157D01*
X111931006Y-44157012D01*
X111898991Y-44168274D01*
X111854647Y-44208034D01*
X111805124Y-44241124D01*
X111786268Y-44269344D01*
X111761000Y-44292000D01*
X111380000Y-44800000D01*
X111354248Y-44853701D01*
X111321157Y-44903225D01*
X111314536Y-44936513D01*
X111299861Y-44967114D01*
X111296619Y-45026584D01*
X111285000Y-45085000D01*
X111285000Y-45783734D01*
X111209278Y-45859324D01*
X111110113Y-46098140D01*
X111109888Y-46356726D01*
X110205856Y-46356726D01*
X110205856Y-46324000D01*
X110181451Y-46194298D01*
X110104797Y-46075175D01*
X109987837Y-45995259D01*
X109849000Y-45967144D01*
X109144479Y-45967144D01*
X109108676Y-45931278D01*
X108869860Y-45832113D01*
X108611274Y-45831888D01*
X108372286Y-45930636D01*
X108189278Y-46113324D01*
X108090113Y-46352140D01*
X108089888Y-46610726D01*
X105760856Y-46610726D01*
X105760856Y-46324000D01*
X105736451Y-46194298D01*
X105659797Y-46075175D01*
X105542837Y-45995259D01*
X105404000Y-45967144D01*
X104671479Y-45967144D01*
X104635676Y-45931278D01*
X104396860Y-45832113D01*
X104138274Y-45831888D01*
X103899286Y-45930636D01*
X103716278Y-46113324D01*
X103617113Y-46352140D01*
X103616888Y-46610726D01*
X103220856Y-46610726D01*
X103220856Y-46456000D01*
X103196451Y-46326298D01*
X103137377Y-46234496D01*
X103138887Y-46230860D01*
X103139112Y-45972274D01*
X103040364Y-45733286D01*
X102857676Y-45550278D01*
X102618860Y-45451113D01*
X102360274Y-45450888D01*
X102121286Y-45549636D01*
X101938278Y-45732324D01*
X101839113Y-45971140D01*
X101838888Y-46229726D01*
X101841192Y-46235303D01*
X101800328Y-46295109D01*
X101602860Y-46213113D01*
X101344274Y-46212888D01*
X101298507Y-46231799D01*
X101291451Y-46194298D01*
X101214797Y-46075175D01*
X101097837Y-45995259D01*
X100959000Y-45967144D01*
X100209000Y-45967144D01*
X100079298Y-45991549D01*
X99960175Y-46068203D01*
X99880259Y-46185163D01*
X99852144Y-46324000D01*
X95015425Y-46324000D01*
X95112164Y-46179220D01*
X95203509Y-45720000D01*
X95112164Y-45260780D01*
X94852037Y-44871472D01*
X94462729Y-44611345D01*
X94003509Y-44520000D01*
X93956491Y-44520000D01*
X93497271Y-44611345D01*
X93107963Y-44871472D01*
X92847836Y-45260780D01*
X92756491Y-45720000D01*
X92663509Y-45720000D01*
X92572164Y-45260780D01*
X92312037Y-44871472D01*
X91922729Y-44611345D01*
X91463509Y-44520000D01*
X91416491Y-44520000D01*
X90957271Y-44611345D01*
X90567963Y-44871472D01*
X90307836Y-45260780D01*
X90216491Y-45720000D01*
X89325000Y-45720000D01*
X89325000Y-43605000D01*
X149435000Y-43605000D01*
X149435000Y-85935000D01*
X149435000Y-85935000D01*
G37*
X149435000Y-85935000D02*
X89325000Y-85935000D01*
X89325000Y-83820000D01*
X90216491Y-83820000D01*
X90307836Y-84279220D01*
X90567963Y-84668528D01*
X90957271Y-84928655D01*
X91416491Y-85020000D01*
X91463509Y-85020000D01*
X91922729Y-84928655D01*
X92312037Y-84668528D01*
X92572164Y-84279220D01*
X92663509Y-83820000D01*
X92572164Y-83360780D01*
X92312037Y-82971472D01*
X91922729Y-82711345D01*
X91463509Y-82620000D01*
X91416491Y-82620000D01*
X90957271Y-82711345D01*
X90567963Y-82971472D01*
X90307836Y-83360780D01*
X90216491Y-83820000D01*
X89325000Y-83820000D01*
X89325000Y-81280000D01*
X90216491Y-81280000D01*
X90307836Y-81739220D01*
X90567963Y-82128528D01*
X90957271Y-82388655D01*
X91416491Y-82480000D01*
X91463509Y-82480000D01*
X91922729Y-82388655D01*
X92312037Y-82128528D01*
X92572164Y-81739220D01*
X92663509Y-81280000D01*
X92756491Y-81280000D01*
X92847836Y-81739220D01*
X93107963Y-82128528D01*
X93497271Y-82388655D01*
X93956491Y-82480000D01*
X94003509Y-82480000D01*
X94462729Y-82388655D01*
X94852037Y-82128528D01*
X95103805Y-81751730D01*
X95407588Y-81751730D01*
X95769461Y-82627532D01*
X96438944Y-83298184D01*
X97314112Y-83661585D01*
X98261730Y-83662412D01*
X99137532Y-83300539D01*
X99388508Y-83050000D01*
X129828144Y-83050000D01*
X129828144Y-84550000D01*
X129852549Y-84679702D01*
X129929203Y-84798825D01*
X130046163Y-84878741D01*
X130185000Y-84906856D01*
X130714774Y-84906856D01*
X130990959Y-85183041D01*
X131266719Y-85367298D01*
X131592000Y-85432000D01*
X131921000Y-85432000D01*
X132246281Y-85367298D01*
X132522041Y-85183041D01*
X132554041Y-85151041D01*
X132738298Y-84875281D01*
X132803000Y-84550000D01*
X132738298Y-84224719D01*
X132554041Y-83948959D01*
X132325857Y-83796491D01*
X133420000Y-83796491D01*
X133420000Y-83843509D01*
X133511345Y-84302729D01*
X133771472Y-84692037D01*
X134160780Y-84952164D01*
X134620000Y-85043509D01*
X135079220Y-84952164D01*
X135468528Y-84692037D01*
X135728655Y-84302729D01*
X135820000Y-83843509D01*
X135820000Y-83796491D01*
X135728655Y-83337271D01*
X135468528Y-82947963D01*
X135079220Y-82687836D01*
X134620000Y-82596491D01*
X134160780Y-82687836D01*
X133771472Y-82947963D01*
X133511345Y-83337271D01*
X133420000Y-83796491D01*
X132325857Y-83796491D01*
X132278281Y-83764702D01*
X131953000Y-83700000D01*
X131918871Y-83706789D01*
X131791856Y-83579774D01*
X131791856Y-83050000D01*
X131767451Y-82920298D01*
X131690797Y-82801175D01*
X131573837Y-82721259D01*
X131435000Y-82693144D01*
X130185000Y-82693144D01*
X130055298Y-82717549D01*
X129936175Y-82794203D01*
X129856259Y-82911163D01*
X129828144Y-83050000D01*
X99388508Y-83050000D01*
X99808184Y-82631056D01*
X100171585Y-81755888D01*
X100172412Y-80808270D01*
X99810539Y-79932468D01*
X99141056Y-79261816D01*
X98265888Y-78898415D01*
X97318270Y-78897588D01*
X96442468Y-79259461D01*
X95771816Y-79928944D01*
X95408415Y-80804112D01*
X95407588Y-81751730D01*
X95103805Y-81751730D01*
X95112164Y-81739220D01*
X95203509Y-81280000D01*
X95112164Y-80820780D01*
X94852037Y-80431472D01*
X94462729Y-80171345D01*
X94003509Y-80080000D01*
X93956491Y-80080000D01*
X93497271Y-80171345D01*
X93107963Y-80431472D01*
X92847836Y-80820780D01*
X92756491Y-81280000D01*
X92663509Y-81280000D01*
X92572164Y-80820780D01*
X92312037Y-80431472D01*
X91922729Y-80171345D01*
X91463509Y-80080000D01*
X91416491Y-80080000D01*
X90957271Y-80171345D01*
X90567963Y-80431472D01*
X90307836Y-80820780D01*
X90216491Y-81280000D01*
X89325000Y-81280000D01*
X89325000Y-78740000D01*
X90216491Y-78740000D01*
X90307836Y-79199220D01*
X90567963Y-79588528D01*
X90957271Y-79848655D01*
X91416491Y-79940000D01*
X91463509Y-79940000D01*
X91922729Y-79848655D01*
X92312037Y-79588528D01*
X92572164Y-79199220D01*
X92663509Y-78740000D01*
X92756491Y-78740000D01*
X92847836Y-79199220D01*
X93107963Y-79588528D01*
X93497271Y-79848655D01*
X93956491Y-79940000D01*
X94003509Y-79940000D01*
X94462729Y-79848655D01*
X94852037Y-79588528D01*
X95112164Y-79199220D01*
X95203509Y-78740000D01*
X95112164Y-78280780D01*
X94852037Y-77891472D01*
X94462729Y-77631345D01*
X94003509Y-77540000D01*
X93956491Y-77540000D01*
X93497271Y-77631345D01*
X93107963Y-77891472D01*
X92847836Y-78280780D01*
X92756491Y-78740000D01*
X92663509Y-78740000D01*
X92572164Y-78280780D01*
X92312037Y-77891472D01*
X91922729Y-77631345D01*
X91463509Y-77540000D01*
X91416491Y-77540000D01*
X90957271Y-77631345D01*
X90567963Y-77891472D01*
X90307836Y-78280780D01*
X90216491Y-78740000D01*
X89325000Y-78740000D01*
X89325000Y-76200000D01*
X90216491Y-76200000D01*
X90307836Y-76659220D01*
X90567963Y-77048528D01*
X90957271Y-77308655D01*
X91416491Y-77400000D01*
X91463509Y-77400000D01*
X91922729Y-77308655D01*
X92312037Y-77048528D01*
X92572164Y-76659220D01*
X92663509Y-76200000D01*
X92756491Y-76200000D01*
X92847836Y-76659220D01*
X93107963Y-77048528D01*
X93497271Y-77308655D01*
X93956491Y-77400000D01*
X94003509Y-77400000D01*
X94462729Y-77308655D01*
X94852037Y-77048528D01*
X95112164Y-76659220D01*
X95203509Y-76200000D01*
X95112164Y-75740780D01*
X94852037Y-75351472D01*
X94462729Y-75091345D01*
X94003509Y-75000000D01*
X93956491Y-75000000D01*
X93497271Y-75091345D01*
X93107963Y-75351472D01*
X92847836Y-75740780D01*
X92756491Y-76200000D01*
X92663509Y-76200000D01*
X92572164Y-75740780D01*
X92312037Y-75351472D01*
X91922729Y-75091345D01*
X91463509Y-75000000D01*
X91416491Y-75000000D01*
X90957271Y-75091345D01*
X90567963Y-75351472D01*
X90307836Y-75740780D01*
X90216491Y-76200000D01*
X89325000Y-76200000D01*
X89325000Y-73660000D01*
X90216491Y-73660000D01*
X90307836Y-74119220D01*
X90567963Y-74508528D01*
X90957271Y-74768655D01*
X91416491Y-74860000D01*
X91463509Y-74860000D01*
X91922729Y-74768655D01*
X92312037Y-74508528D01*
X92572164Y-74119220D01*
X92663509Y-73660000D01*
X92756491Y-73660000D01*
X92847836Y-74119220D01*
X93107963Y-74508528D01*
X93497271Y-74768655D01*
X93956491Y-74860000D01*
X94003509Y-74860000D01*
X94462729Y-74768655D01*
X94852037Y-74508528D01*
X95112164Y-74119220D01*
X95203509Y-73660000D01*
X95112164Y-73200780D01*
X94852037Y-72811472D01*
X94603981Y-72645726D01*
X99679888Y-72645726D01*
X99778636Y-72884714D01*
X99961324Y-73067722D01*
X100200140Y-73166887D01*
X100458726Y-73167112D01*
X100513162Y-73144619D01*
X100491345Y-73177271D01*
X100400000Y-73636491D01*
X100400000Y-73683509D01*
X100491345Y-74142729D01*
X100751472Y-74532037D01*
X101140780Y-74792164D01*
X101600000Y-74883509D01*
X101954285Y-74813037D01*
X102395000Y-75253752D01*
X102395000Y-77680144D01*
X102220000Y-77680144D01*
X102090298Y-77704549D01*
X101971175Y-77781203D01*
X101891259Y-77898163D01*
X101863144Y-78037000D01*
X101863144Y-79537000D01*
X101887549Y-79666702D01*
X101964203Y-79785825D01*
X102081163Y-79865741D01*
X102220000Y-79893856D01*
X103520000Y-79893856D01*
X103649702Y-79869451D01*
X103768825Y-79792797D01*
X103848741Y-79675837D01*
X103876856Y-79537000D01*
X103876856Y-78037000D01*
X103852451Y-77907298D01*
X103775797Y-77788175D01*
X103658837Y-77708259D01*
X103520000Y-77680144D01*
X103345000Y-77680144D01*
X103345000Y-77107803D01*
X103680780Y-77332164D01*
X104140000Y-77423509D01*
X104599220Y-77332164D01*
X104844426Y-77168323D01*
X104858636Y-77202714D01*
X104935000Y-77279212D01*
X104935000Y-77680144D01*
X104760000Y-77680144D01*
X104630298Y-77704549D01*
X104511175Y-77781203D01*
X104431259Y-77898163D01*
X104403144Y-78037000D01*
X104403144Y-79537000D01*
X104427549Y-79666702D01*
X104504203Y-79785825D01*
X104621163Y-79865741D01*
X104760000Y-79893856D01*
X106060000Y-79893856D01*
X106189702Y-79869451D01*
X106308825Y-79792797D01*
X106388741Y-79675837D01*
X106416856Y-79537000D01*
X106416856Y-78037000D01*
X106392451Y-77907298D01*
X106315797Y-77788175D01*
X106198837Y-77708259D01*
X106060000Y-77680144D01*
X105885000Y-77680144D01*
X105885000Y-77279266D01*
X105960722Y-77203676D01*
X105975439Y-77168233D01*
X106220780Y-77332164D01*
X106680000Y-77423509D01*
X107139220Y-77332164D01*
X107528528Y-77072037D01*
X107550927Y-77038515D01*
X107569595Y-77680144D01*
X107427000Y-77680144D01*
X107297298Y-77704549D01*
X107178175Y-77781203D01*
X107098259Y-77898163D01*
X107070144Y-78037000D01*
X107070144Y-79537000D01*
X107094549Y-79666702D01*
X107171203Y-79785825D01*
X107288163Y-79865741D01*
X107427000Y-79893856D01*
X108727000Y-79893856D01*
X108856702Y-79869451D01*
X108975825Y-79792797D01*
X109055741Y-79675837D01*
X109083856Y-79537000D01*
X109083856Y-78037000D01*
X109059451Y-77907298D01*
X108982797Y-77788175D01*
X108865837Y-77708259D01*
X108727000Y-77680144D01*
X108519997Y-77680144D01*
X108504898Y-77161189D01*
X108760780Y-77332164D01*
X109220000Y-77423509D01*
X109679220Y-77332164D01*
X109679935Y-77331687D01*
X109761000Y-77412752D01*
X109761000Y-80901681D01*
X109715676Y-80856278D01*
X109476860Y-80757113D01*
X109218274Y-80756888D01*
X109083856Y-80812428D01*
X109083856Y-80737000D01*
X109059451Y-80607298D01*
X108982797Y-80488175D01*
X108865837Y-80408259D01*
X108727000Y-80380144D01*
X107427000Y-80380144D01*
X107297298Y-80404549D01*
X107178175Y-80481203D01*
X107098259Y-80598163D01*
X107070144Y-80737000D01*
X107070144Y-80877784D01*
X107048676Y-80856278D01*
X106809860Y-80757113D01*
X106551274Y-80756888D01*
X106416856Y-80812428D01*
X106416856Y-80737000D01*
X106392451Y-80607298D01*
X106315797Y-80488175D01*
X106198837Y-80408259D01*
X106060000Y-80380144D01*
X104760000Y-80380144D01*
X104630298Y-80404549D01*
X104511175Y-80481203D01*
X104431259Y-80598163D01*
X104403144Y-80737000D01*
X104403144Y-80812457D01*
X104269860Y-80757113D01*
X104011274Y-80756888D01*
X103876856Y-80812428D01*
X103876856Y-80737000D01*
X103852451Y-80607298D01*
X103775797Y-80488175D01*
X103658837Y-80408259D01*
X103520000Y-80380144D01*
X102220000Y-80380144D01*
X102090298Y-80404549D01*
X101971175Y-80481203D01*
X101891259Y-80598163D01*
X101863144Y-80737000D01*
X101863144Y-82237000D01*
X101887549Y-82366702D01*
X101964203Y-82485825D01*
X102081163Y-82565741D01*
X102220000Y-82593856D01*
X103520000Y-82593856D01*
X103649702Y-82569451D01*
X103768825Y-82492797D01*
X103848741Y-82375837D01*
X103876856Y-82237000D01*
X103876856Y-82001543D01*
X104010140Y-82056887D01*
X104268726Y-82057112D01*
X104403144Y-82001572D01*
X104403144Y-82237000D01*
X104427549Y-82366702D01*
X104504203Y-82485825D01*
X104621163Y-82565741D01*
X104760000Y-82593856D01*
X106060000Y-82593856D01*
X106189702Y-82569451D01*
X106308825Y-82492797D01*
X106388741Y-82375837D01*
X106416856Y-82237000D01*
X106416856Y-82001543D01*
X106550140Y-82056887D01*
X106808726Y-82057112D01*
X107047714Y-81958364D01*
X107070144Y-81935973D01*
X107070144Y-82237000D01*
X107094549Y-82366702D01*
X107171203Y-82485825D01*
X107288163Y-82565741D01*
X107427000Y-82593856D01*
X108727000Y-82593856D01*
X108856702Y-82569451D01*
X108975825Y-82492797D01*
X109055741Y-82375837D01*
X109083856Y-82237000D01*
X109083856Y-82001543D01*
X109217140Y-82056887D01*
X109475726Y-82057112D01*
X109714714Y-81958364D01*
X109791474Y-81881739D01*
X109867324Y-81957722D01*
X109876511Y-81961537D01*
X109900124Y-81996876D01*
X110054225Y-82099843D01*
X110236000Y-82136000D01*
X110417775Y-82099843D01*
X110571876Y-81996876D01*
X110595281Y-81961849D01*
X110603714Y-81958364D01*
X110786722Y-81775676D01*
X110796665Y-81751730D01*
X142397588Y-81751730D01*
X142759461Y-82627532D01*
X143428944Y-83298184D01*
X144304112Y-83661585D01*
X145251730Y-83662412D01*
X146127532Y-83300539D01*
X146798184Y-82631056D01*
X147161585Y-81755888D01*
X147162412Y-80808270D01*
X146800539Y-79932468D01*
X146131056Y-79261816D01*
X145255888Y-78898415D01*
X144308270Y-78897588D01*
X143432468Y-79259461D01*
X142761816Y-79928944D01*
X142398415Y-80804112D01*
X142397588Y-81751730D01*
X110796665Y-81751730D01*
X110885887Y-81536860D01*
X110886112Y-81278274D01*
X110787364Y-81039286D01*
X110711000Y-80962788D01*
X110711000Y-77216000D01*
X110674843Y-77034225D01*
X110571876Y-76880124D01*
X110336258Y-76644506D01*
X110420000Y-76223509D01*
X110420000Y-76176491D01*
X110328655Y-75717271D01*
X110068528Y-75327963D01*
X109679220Y-75067836D01*
X109220000Y-74976491D01*
X108760780Y-75067836D01*
X108450033Y-75275470D01*
X108429531Y-74570831D01*
X108760780Y-74792164D01*
X109220000Y-74883509D01*
X109679220Y-74792164D01*
X110068528Y-74532037D01*
X110328655Y-74142729D01*
X110420000Y-73683509D01*
X110420000Y-73636491D01*
X110328655Y-73177271D01*
X110083253Y-72810000D01*
X110553144Y-72810000D01*
X110553144Y-74510000D01*
X110577549Y-74639702D01*
X110654203Y-74758825D01*
X110771163Y-74838741D01*
X110910000Y-74866856D01*
X112610000Y-74866856D01*
X112739702Y-74842451D01*
X112858825Y-74765797D01*
X112938741Y-74648837D01*
X112966856Y-74510000D01*
X112966856Y-74135000D01*
X114563144Y-74135000D01*
X114563144Y-74330000D01*
X114587549Y-74459702D01*
X114664203Y-74578825D01*
X114781163Y-74658741D01*
X114920000Y-74686856D01*
X116220000Y-74686856D01*
X116349702Y-74662451D01*
X116468825Y-74585797D01*
X116548741Y-74468837D01*
X116576856Y-74330000D01*
X116576856Y-72830000D01*
X116552451Y-72700298D01*
X116475797Y-72581175D01*
X116358837Y-72501259D01*
X116220000Y-72473144D01*
X114920000Y-72473144D01*
X114790298Y-72497549D01*
X114671175Y-72574203D01*
X114591259Y-72691163D01*
X114563144Y-72830000D01*
X114563144Y-73185000D01*
X112966856Y-73185000D01*
X112966856Y-72810000D01*
X112942451Y-72680298D01*
X112865797Y-72561175D01*
X112748837Y-72481259D01*
X112610000Y-72453144D01*
X110910000Y-72453144D01*
X110780298Y-72477549D01*
X110661175Y-72554203D01*
X110581259Y-72671163D01*
X110553144Y-72810000D01*
X110083253Y-72810000D01*
X110068528Y-72787963D01*
X109952390Y-72710362D01*
X111019732Y-71643019D01*
X111126726Y-71643112D01*
X111365714Y-71544364D01*
X111548722Y-71361676D01*
X111647887Y-71122860D01*
X111648112Y-70864274D01*
X111549364Y-70625286D01*
X111366676Y-70442278D01*
X111127860Y-70343113D01*
X110869274Y-70342888D01*
X110630286Y-70441636D01*
X110447278Y-70624324D01*
X110348113Y-70863140D01*
X110348019Y-70971230D01*
X109855453Y-71463796D01*
X109771364Y-71260286D01*
X109588676Y-71077278D01*
X109349860Y-70978113D01*
X109091274Y-70977888D01*
X108852286Y-71076636D01*
X108669278Y-71259324D01*
X108607958Y-71407000D01*
X100965005Y-71407000D01*
X100965000Y-71406999D01*
X100813384Y-71437158D01*
X100783225Y-71443157D01*
X100629124Y-71546124D01*
X100629122Y-71546127D01*
X100308267Y-71866981D01*
X100201274Y-71866888D01*
X99962286Y-71965636D01*
X99779278Y-72148324D01*
X99680113Y-72387140D01*
X99679888Y-72645726D01*
X94603981Y-72645726D01*
X94462729Y-72551345D01*
X94003509Y-72460000D01*
X93956491Y-72460000D01*
X93497271Y-72551345D01*
X93107963Y-72811472D01*
X92847836Y-73200780D01*
X92756491Y-73660000D01*
X92663509Y-73660000D01*
X92572164Y-73200780D01*
X92312037Y-72811472D01*
X91922729Y-72551345D01*
X91463509Y-72460000D01*
X91416491Y-72460000D01*
X90957271Y-72551345D01*
X90567963Y-72811472D01*
X90307836Y-73200780D01*
X90216491Y-73660000D01*
X89325000Y-73660000D01*
X89325000Y-71120000D01*
X90216491Y-71120000D01*
X90307836Y-71579220D01*
X90567963Y-71968528D01*
X90957271Y-72228655D01*
X91416491Y-72320000D01*
X91463509Y-72320000D01*
X91922729Y-72228655D01*
X92312037Y-71968528D01*
X92572164Y-71579220D01*
X92663509Y-71120000D01*
X92756491Y-71120000D01*
X92847836Y-71579220D01*
X93107963Y-71968528D01*
X93497271Y-72228655D01*
X93956491Y-72320000D01*
X94003509Y-72320000D01*
X94462729Y-72228655D01*
X94852037Y-71968528D01*
X95112164Y-71579220D01*
X95203509Y-71120000D01*
X95112164Y-70660780D01*
X94852037Y-70271472D01*
X94462729Y-70011345D01*
X94003509Y-69920000D01*
X93956491Y-69920000D01*
X93497271Y-70011345D01*
X93107963Y-70271472D01*
X92847836Y-70660780D01*
X92756491Y-71120000D01*
X92663509Y-71120000D01*
X92572164Y-70660780D01*
X92312037Y-70271472D01*
X91922729Y-70011345D01*
X91463509Y-69920000D01*
X91416491Y-69920000D01*
X90957271Y-70011345D01*
X90567963Y-70271472D01*
X90307836Y-70660780D01*
X90216491Y-71120000D01*
X89325000Y-71120000D01*
X89325000Y-68580000D01*
X90216491Y-68580000D01*
X90307836Y-69039220D01*
X90567963Y-69428528D01*
X90957271Y-69688655D01*
X91416491Y-69780000D01*
X91463509Y-69780000D01*
X91922729Y-69688655D01*
X92312037Y-69428528D01*
X92572164Y-69039220D01*
X92663509Y-68580000D01*
X92756491Y-68580000D01*
X92847836Y-69039220D01*
X93107963Y-69428528D01*
X93497271Y-69688655D01*
X93956491Y-69780000D01*
X94003509Y-69780000D01*
X94462729Y-69688655D01*
X94852037Y-69428528D01*
X95112164Y-69039220D01*
X95203509Y-68580000D01*
X95112164Y-68120780D01*
X94852037Y-67731472D01*
X94462729Y-67471345D01*
X94003509Y-67380000D01*
X93956491Y-67380000D01*
X93497271Y-67471345D01*
X93107963Y-67731472D01*
X92847836Y-68120780D01*
X92756491Y-68580000D01*
X92663509Y-68580000D01*
X92572164Y-68120780D01*
X92312037Y-67731472D01*
X91922729Y-67471345D01*
X91463509Y-67380000D01*
X91416491Y-67380000D01*
X90957271Y-67471345D01*
X90567963Y-67731472D01*
X90307836Y-68120780D01*
X90216491Y-68580000D01*
X89325000Y-68580000D01*
X89325000Y-66040000D01*
X90216491Y-66040000D01*
X90307836Y-66499220D01*
X90567963Y-66888528D01*
X90957271Y-67148655D01*
X91416491Y-67240000D01*
X91463509Y-67240000D01*
X91922729Y-67148655D01*
X92312037Y-66888528D01*
X92572164Y-66499220D01*
X92663509Y-66040000D01*
X92756491Y-66040000D01*
X92847836Y-66499220D01*
X93107963Y-66888528D01*
X93497271Y-67148655D01*
X93956491Y-67240000D01*
X94003509Y-67240000D01*
X94462729Y-67148655D01*
X94852037Y-66888528D01*
X95112164Y-66499220D01*
X95203509Y-66040000D01*
X95112164Y-65580780D01*
X94852037Y-65191472D01*
X94462729Y-64931345D01*
X94003509Y-64840000D01*
X93956491Y-64840000D01*
X93497271Y-64931345D01*
X93107963Y-65191472D01*
X92847836Y-65580780D01*
X92756491Y-66040000D01*
X92663509Y-66040000D01*
X92572164Y-65580780D01*
X92312037Y-65191472D01*
X91922729Y-64931345D01*
X91463509Y-64840000D01*
X91416491Y-64840000D01*
X90957271Y-64931345D01*
X90567963Y-65191472D01*
X90307836Y-65580780D01*
X90216491Y-66040000D01*
X89325000Y-66040000D01*
X89325000Y-63500000D01*
X90216491Y-63500000D01*
X90307836Y-63959220D01*
X90567963Y-64348528D01*
X90957271Y-64608655D01*
X91416491Y-64700000D01*
X91463509Y-64700000D01*
X91922729Y-64608655D01*
X92312037Y-64348528D01*
X92572164Y-63959220D01*
X92663509Y-63500000D01*
X92756491Y-63500000D01*
X92847836Y-63959220D01*
X93107963Y-64348528D01*
X93497271Y-64608655D01*
X93956491Y-64700000D01*
X94003509Y-64700000D01*
X94462729Y-64608655D01*
X94852037Y-64348528D01*
X95018097Y-64100000D01*
X96021144Y-64100000D01*
X96021144Y-65600000D01*
X96045549Y-65729702D01*
X96122203Y-65848825D01*
X96239163Y-65928741D01*
X96378000Y-65956856D01*
X97678000Y-65956856D01*
X97807702Y-65932451D01*
X97926825Y-65855797D01*
X98006741Y-65738837D01*
X98034856Y-65600000D01*
X98034856Y-65325000D01*
X98689248Y-65325000D01*
X98790981Y-65426733D01*
X98790888Y-65533726D01*
X98889636Y-65772714D01*
X99072324Y-65955722D01*
X99311140Y-66054887D01*
X99569726Y-66055112D01*
X99808714Y-65956364D01*
X99852144Y-65913010D01*
X99852144Y-66960000D01*
X99876549Y-67089702D01*
X99953203Y-67208825D01*
X100070163Y-67288741D01*
X100209000Y-67316856D01*
X100959000Y-67316856D01*
X101088702Y-67292451D01*
X101207825Y-67215797D01*
X101287741Y-67098837D01*
X101315856Y-66960000D01*
X101315856Y-65760000D01*
X101291451Y-65630298D01*
X101277515Y-65608641D01*
X101360887Y-65407860D01*
X101361112Y-65149274D01*
X101262364Y-64910286D01*
X101079676Y-64727278D01*
X100840860Y-64628113D01*
X100582274Y-64627888D01*
X100343286Y-64726636D01*
X100160278Y-64909324D01*
X100061113Y-65148140D01*
X100061065Y-65203554D01*
X99992364Y-65037286D01*
X99809676Y-64854278D01*
X99570860Y-64755113D01*
X99462771Y-64755019D01*
X99221876Y-64514124D01*
X99067775Y-64411157D01*
X98886000Y-64375000D01*
X98034856Y-64375000D01*
X98034856Y-64100000D01*
X98017870Y-64009726D01*
X100568888Y-64009726D01*
X100667636Y-64248714D01*
X100850324Y-64431722D01*
X101089140Y-64530887D01*
X101197229Y-64530981D01*
X102233910Y-65567661D01*
X102318636Y-65772714D01*
X102501324Y-65955722D01*
X102740140Y-66054887D01*
X102998726Y-66055112D01*
X103237714Y-65956364D01*
X103281144Y-65913010D01*
X103281144Y-66706000D01*
X103305549Y-66835702D01*
X103382203Y-66954825D01*
X103499163Y-67034741D01*
X103638000Y-67062856D01*
X104388000Y-67062856D01*
X104517702Y-67038451D01*
X104636825Y-66961797D01*
X104716741Y-66844837D01*
X104744856Y-66706000D01*
X104744856Y-65660726D01*
X105648888Y-65660726D01*
X105747636Y-65899714D01*
X105930324Y-66082722D01*
X105951000Y-66091307D01*
X105951000Y-66183960D01*
X105921298Y-66189549D01*
X105802175Y-66266203D01*
X105722259Y-66383163D01*
X105694144Y-66522000D01*
X105694144Y-67722000D01*
X105718549Y-67851702D01*
X105795203Y-67970825D01*
X105912163Y-68050741D01*
X106051000Y-68078856D01*
X106801000Y-68078856D01*
X106930702Y-68054451D01*
X107049825Y-67977797D01*
X107129741Y-67860837D01*
X107157856Y-67722000D01*
X107157856Y-66522000D01*
X107133451Y-66392298D01*
X107056797Y-66273175D01*
X106939837Y-66193259D01*
X106901000Y-66185394D01*
X106901000Y-65777185D01*
X106948887Y-65661860D01*
X106948887Y-65660726D01*
X112633888Y-65660726D01*
X112732636Y-65899714D01*
X112915324Y-66082722D01*
X112936000Y-66091307D01*
X112936000Y-66183960D01*
X112906298Y-66189549D01*
X112787175Y-66266203D01*
X112707259Y-66383163D01*
X112679144Y-66522000D01*
X112679144Y-67722000D01*
X112703549Y-67851702D01*
X112780203Y-67970825D01*
X112897163Y-68050741D01*
X113036000Y-68078856D01*
X113786000Y-68078856D01*
X113915702Y-68054451D01*
X114034825Y-67977797D01*
X114114741Y-67860837D01*
X114142856Y-67722000D01*
X114142856Y-66522000D01*
X114118451Y-66392298D01*
X114041797Y-66273175D01*
X113924837Y-66193259D01*
X113886000Y-66185394D01*
X113886000Y-65777185D01*
X113933887Y-65661860D01*
X113934112Y-65403274D01*
X113835364Y-65164286D01*
X113652676Y-64981278D01*
X113413860Y-64882113D01*
X113155274Y-64881888D01*
X112916286Y-64980636D01*
X112733278Y-65163324D01*
X112634113Y-65402140D01*
X112633888Y-65660726D01*
X106948887Y-65660726D01*
X106949112Y-65403274D01*
X106850364Y-65164286D01*
X106667676Y-64981278D01*
X106428860Y-64882113D01*
X106170274Y-64881888D01*
X105931286Y-64980636D01*
X105748278Y-65163324D01*
X105649113Y-65402140D01*
X105648888Y-65660726D01*
X104744856Y-65660726D01*
X104744856Y-65506000D01*
X104720451Y-65376298D01*
X104643797Y-65257175D01*
X104526837Y-65177259D01*
X104388000Y-65149144D01*
X104174896Y-65149144D01*
X104094876Y-65069124D01*
X103964645Y-64982107D01*
X105050733Y-63896019D01*
X105157726Y-63896112D01*
X105396714Y-63797364D01*
X105579722Y-63614676D01*
X105678887Y-63375860D01*
X105678887Y-63374726D01*
X114665888Y-63374726D01*
X114764636Y-63613714D01*
X114947324Y-63796722D01*
X115186140Y-63895887D01*
X115294229Y-63895981D01*
X116294796Y-64896547D01*
X116091286Y-64980636D01*
X115908278Y-65163324D01*
X115809113Y-65402140D01*
X115808888Y-65660726D01*
X115907636Y-65899714D01*
X115984000Y-65976212D01*
X115984000Y-66183960D01*
X115954298Y-66189549D01*
X115835175Y-66266203D01*
X115755259Y-66383163D01*
X115727144Y-66522000D01*
X115727144Y-67722000D01*
X115751549Y-67851702D01*
X115828203Y-67970825D01*
X115945163Y-68050741D01*
X116084000Y-68078856D01*
X116834000Y-68078856D01*
X116963702Y-68054451D01*
X117082825Y-67977797D01*
X117162741Y-67860837D01*
X117190856Y-67722000D01*
X117190856Y-66522000D01*
X117166451Y-66392298D01*
X117089797Y-66273175D01*
X116972837Y-66193259D01*
X116934000Y-66185394D01*
X116934000Y-65976266D01*
X117009722Y-65900676D01*
X117094575Y-65696326D01*
X117393122Y-65994873D01*
X117393124Y-65994876D01*
X117480541Y-66053286D01*
X117547225Y-66097843D01*
X117672878Y-66122837D01*
X117685636Y-66153714D01*
X117839037Y-66307384D01*
X117787259Y-66383163D01*
X117759144Y-66522000D01*
X117759144Y-67722000D01*
X117783549Y-67851702D01*
X117860203Y-67970825D01*
X117977163Y-68050741D01*
X118116000Y-68078856D01*
X118866000Y-68078856D01*
X118995702Y-68054451D01*
X119114825Y-67977797D01*
X119194741Y-67860837D01*
X119222856Y-67722000D01*
X119222856Y-66522000D01*
X119198451Y-66392298D01*
X119121797Y-66273175D01*
X119004837Y-66193259D01*
X118966000Y-66185394D01*
X118966000Y-66040000D01*
X118929843Y-65858225D01*
X118886993Y-65794095D01*
X118887112Y-65657274D01*
X118788364Y-65418286D01*
X118719055Y-65348856D01*
X118756774Y-65348856D01*
X123610000Y-70202081D01*
X123610000Y-71120000D01*
X123674702Y-71445281D01*
X123858959Y-71721041D01*
X124134719Y-71905298D01*
X124460000Y-71970000D01*
X124785281Y-71905298D01*
X125061041Y-71721041D01*
X125128554Y-71620000D01*
X131098144Y-71620000D01*
X131098144Y-73120000D01*
X131122549Y-73249702D01*
X131199203Y-73368825D01*
X131316163Y-73448741D01*
X131455000Y-73476856D01*
X132705000Y-73476856D01*
X132834702Y-73452451D01*
X132953825Y-73375797D01*
X133033741Y-73258837D01*
X133061856Y-73120000D01*
X133061856Y-72970000D01*
X133638144Y-72970000D01*
X133638144Y-73120000D01*
X133662549Y-73249702D01*
X133739203Y-73368825D01*
X133856163Y-73448741D01*
X133995000Y-73476856D01*
X134858328Y-73476856D01*
X135288959Y-73907487D01*
X135338636Y-74027714D01*
X135521324Y-74210722D01*
X135760140Y-74309887D01*
X136018726Y-74310112D01*
X136257714Y-74211364D01*
X136440722Y-74028676D01*
X136539887Y-73789860D01*
X136540112Y-73531274D01*
X136441364Y-73292286D01*
X136258676Y-73109278D01*
X136137482Y-73058954D01*
X135601856Y-72523328D01*
X135601856Y-71620000D01*
X135577451Y-71490298D01*
X135500797Y-71371175D01*
X135383837Y-71291259D01*
X135245000Y-71263144D01*
X133995000Y-71263144D01*
X133865298Y-71287549D01*
X133746175Y-71364203D01*
X133666259Y-71481163D01*
X133638144Y-71620000D01*
X133638144Y-71770000D01*
X133061856Y-71770000D01*
X133061856Y-71620000D01*
X133037451Y-71490298D01*
X132960797Y-71371175D01*
X132843837Y-71291259D01*
X132705000Y-71263144D01*
X131455000Y-71263144D01*
X131325298Y-71287549D01*
X131206175Y-71364203D01*
X131126259Y-71481163D01*
X131098144Y-71620000D01*
X125128554Y-71620000D01*
X125245298Y-71445281D01*
X125310000Y-71120000D01*
X125310000Y-69850000D01*
X125245298Y-69524719D01*
X125061041Y-69248959D01*
X125061038Y-69248957D01*
X124932082Y-69120000D01*
X128558144Y-69120000D01*
X128558144Y-70620000D01*
X128582549Y-70749702D01*
X128659203Y-70868825D01*
X128776163Y-70948741D01*
X128915000Y-70976856D01*
X130165000Y-70976856D01*
X130294702Y-70952451D01*
X130413825Y-70875797D01*
X130493741Y-70758837D01*
X130521856Y-70620000D01*
X130521856Y-70470000D01*
X131098144Y-70470000D01*
X131098144Y-70620000D01*
X131122549Y-70749702D01*
X131199203Y-70868825D01*
X131316163Y-70948741D01*
X131455000Y-70976856D01*
X132705000Y-70976856D01*
X132834702Y-70952451D01*
X132953825Y-70875797D01*
X133033741Y-70758837D01*
X133061856Y-70620000D01*
X133061856Y-69164162D01*
X133102518Y-69181046D01*
X133638144Y-69716672D01*
X133638144Y-70620000D01*
X133662549Y-70749702D01*
X133739203Y-70868825D01*
X133856163Y-70948741D01*
X133995000Y-70976856D01*
X135245000Y-70976856D01*
X135374702Y-70952451D01*
X135493825Y-70875797D01*
X135573741Y-70758837D01*
X135601856Y-70620000D01*
X135601856Y-70470000D01*
X136178144Y-70470000D01*
X136178144Y-70620000D01*
X136202549Y-70749702D01*
X136279203Y-70868825D01*
X136396163Y-70948741D01*
X136535000Y-70976856D01*
X137785000Y-70976856D01*
X137914702Y-70952451D01*
X138033825Y-70875797D01*
X138113741Y-70758837D01*
X138141856Y-70620000D01*
X138141856Y-69120000D01*
X138117451Y-68990298D01*
X138040797Y-68871175D01*
X137923837Y-68791259D01*
X137785000Y-68763144D01*
X136535000Y-68763144D01*
X136405298Y-68787549D01*
X136286175Y-68864203D01*
X136206259Y-68981163D01*
X136178144Y-69120000D01*
X136178144Y-69270000D01*
X135601856Y-69270000D01*
X135601856Y-69120000D01*
X135577451Y-68990298D01*
X135500797Y-68871175D01*
X135383837Y-68791259D01*
X135245000Y-68763144D01*
X134381672Y-68763144D01*
X134076092Y-68457564D01*
X134077000Y-68453000D01*
X134077000Y-68115128D01*
X134100825Y-68099797D01*
X134180741Y-67982837D01*
X134208856Y-67844000D01*
X134208856Y-67818000D01*
X139737000Y-67818000D01*
X139792187Y-68095445D01*
X139949348Y-68330652D01*
X140184555Y-68487813D01*
X140462000Y-68543000D01*
X141939696Y-68543000D01*
X145029347Y-71632652D01*
X145264554Y-71789812D01*
X145542000Y-71844999D01*
X145819446Y-71789812D01*
X146054652Y-71632652D01*
X146211812Y-71397446D01*
X146266999Y-71120000D01*
X146211812Y-70842554D01*
X146054652Y-70607347D01*
X142752652Y-67305348D01*
X142517446Y-67148187D01*
X142471415Y-67139031D01*
X142240000Y-67093000D01*
X140462000Y-67093000D01*
X140184555Y-67148187D01*
X139949348Y-67305348D01*
X139792187Y-67540555D01*
X139737000Y-67818000D01*
X134208856Y-67818000D01*
X134208856Y-66652048D01*
X134326324Y-66769722D01*
X134565140Y-66868887D01*
X134823726Y-66869112D01*
X135062714Y-66770364D01*
X135154851Y-66678388D01*
X135227203Y-66790825D01*
X135344163Y-66870741D01*
X135483000Y-66898856D01*
X136683000Y-66898856D01*
X136812702Y-66874451D01*
X136931825Y-66797797D01*
X137011741Y-66680837D01*
X137039856Y-66542000D01*
X137039856Y-65792000D01*
X137015451Y-65662298D01*
X136938797Y-65543175D01*
X136821837Y-65463259D01*
X136683000Y-65435144D01*
X135483000Y-65435144D01*
X135353298Y-65459549D01*
X135234175Y-65536203D01*
X135154259Y-65653163D01*
X135146394Y-65692000D01*
X135087357Y-65692000D01*
X135063676Y-65668278D01*
X134824860Y-65569113D01*
X134566274Y-65568888D01*
X134327286Y-65667636D01*
X134144278Y-65850324D01*
X134045113Y-66089140D01*
X134044888Y-66347726D01*
X134047459Y-66353947D01*
X133990837Y-66315259D01*
X133852000Y-66287144D01*
X133102000Y-66287144D01*
X132972298Y-66311549D01*
X132853175Y-66388203D01*
X132843856Y-66401842D01*
X132843856Y-66173000D01*
X132819451Y-66043298D01*
X132742797Y-65924175D01*
X132680000Y-65881267D01*
X132680000Y-65782001D01*
X132729887Y-65661860D01*
X132730112Y-65403274D01*
X132631364Y-65164286D01*
X132448676Y-64981278D01*
X132209860Y-64882113D01*
X131951274Y-64881888D01*
X131712286Y-64980636D01*
X131529278Y-65163324D01*
X131430113Y-65402140D01*
X131429888Y-65660726D01*
X131480000Y-65782006D01*
X131480000Y-65816144D01*
X131287000Y-65816144D01*
X131157298Y-65840549D01*
X131038175Y-65917203D01*
X130958259Y-66034163D01*
X130930144Y-66173000D01*
X130930144Y-66923000D01*
X130954549Y-67052702D01*
X131031203Y-67171825D01*
X131148163Y-67251741D01*
X131287000Y-67279856D01*
X131480000Y-67279856D01*
X131480000Y-68763144D01*
X131455000Y-68763144D01*
X131325298Y-68787549D01*
X131206175Y-68864203D01*
X131126259Y-68981163D01*
X131098144Y-69120000D01*
X131098144Y-69270000D01*
X130521856Y-69270000D01*
X130521856Y-69120000D01*
X130497451Y-68990298D01*
X130420797Y-68871175D01*
X130303837Y-68791259D01*
X130165000Y-68763144D01*
X128915000Y-68763144D01*
X128785298Y-68787549D01*
X128666175Y-68864203D01*
X128586259Y-68981163D01*
X128558144Y-69120000D01*
X124932082Y-69120000D01*
X121694082Y-65882000D01*
X126014144Y-65882000D01*
X126014144Y-67082000D01*
X126038549Y-67211702D01*
X126115203Y-67330825D01*
X126232163Y-67410741D01*
X126371000Y-67438856D01*
X127121000Y-67438856D01*
X127250702Y-67414451D01*
X127369825Y-67337797D01*
X127449741Y-67220837D01*
X127477856Y-67082000D01*
X127477856Y-67034644D01*
X127565140Y-67070887D01*
X127823726Y-67071112D01*
X128062714Y-66972364D01*
X128245722Y-66789676D01*
X128344887Y-66550860D01*
X128345112Y-66292274D01*
X128246364Y-66053286D01*
X128063676Y-65870278D01*
X127824860Y-65771113D01*
X127566274Y-65770888D01*
X127464835Y-65812802D01*
X127453451Y-65752298D01*
X127376797Y-65633175D01*
X127259837Y-65553259D01*
X127121000Y-65525144D01*
X126371000Y-65525144D01*
X126241298Y-65549549D01*
X126122175Y-65626203D01*
X126042259Y-65743163D01*
X126014144Y-65882000D01*
X121694082Y-65882000D01*
X120284873Y-64472791D01*
X120334417Y-64452320D01*
X120368203Y-64504825D01*
X120485163Y-64584741D01*
X120624000Y-64612856D01*
X121824000Y-64612856D01*
X121953702Y-64588451D01*
X122072825Y-64511797D01*
X122098838Y-64473726D01*
X135620888Y-64473726D01*
X135719636Y-64712714D01*
X135902324Y-64895722D01*
X136141140Y-64994887D01*
X136399726Y-64995112D01*
X136560142Y-64928829D01*
X136614163Y-64965741D01*
X136753000Y-64993856D01*
X137953000Y-64993856D01*
X138082702Y-64969451D01*
X138201825Y-64892797D01*
X138281741Y-64775837D01*
X138309856Y-64637000D01*
X138309856Y-63887000D01*
X138285451Y-63757298D01*
X138208797Y-63638175D01*
X138091837Y-63558259D01*
X137953000Y-63530144D01*
X136753000Y-63530144D01*
X136623298Y-63554549D01*
X136504175Y-63631203D01*
X136447324Y-63714407D01*
X136400860Y-63695113D01*
X136142274Y-63694888D01*
X135903286Y-63793636D01*
X135720278Y-63976324D01*
X135621113Y-64215140D01*
X135620888Y-64473726D01*
X122098838Y-64473726D01*
X122152741Y-64394837D01*
X122180856Y-64256000D01*
X122180856Y-63506000D01*
X122156451Y-63376298D01*
X122079797Y-63257175D01*
X121962837Y-63177259D01*
X121824000Y-63149144D01*
X120624000Y-63149144D01*
X120494298Y-63173549D01*
X120375175Y-63250203D01*
X120334433Y-63309831D01*
X120144860Y-63231113D01*
X119886274Y-63230888D01*
X119647286Y-63329636D01*
X119581636Y-63395171D01*
X119575451Y-63362298D01*
X119498797Y-63243175D01*
X119381837Y-63163259D01*
X119243000Y-63135144D01*
X118824094Y-63135144D01*
X118466234Y-62848856D01*
X119243000Y-62848856D01*
X119372702Y-62824451D01*
X119491825Y-62747797D01*
X119571741Y-62630837D01*
X119599856Y-62492000D01*
X119599856Y-61469726D01*
X135493888Y-61469726D01*
X135592636Y-61708714D01*
X135775324Y-61891722D01*
X136014140Y-61990887D01*
X136272726Y-61991112D01*
X136463417Y-61912320D01*
X136497203Y-61964825D01*
X136614163Y-62044741D01*
X136753000Y-62072856D01*
X137953000Y-62072856D01*
X138082702Y-62048451D01*
X138201825Y-61971797D01*
X138281741Y-61854837D01*
X138309856Y-61716000D01*
X138309856Y-60966000D01*
X138285451Y-60836298D01*
X138208797Y-60717175D01*
X138091837Y-60637259D01*
X137953000Y-60609144D01*
X136753000Y-60609144D01*
X136623298Y-60633549D01*
X136504175Y-60710203D01*
X136463433Y-60769831D01*
X136273860Y-60691113D01*
X136015274Y-60690888D01*
X135776286Y-60789636D01*
X135593278Y-60972324D01*
X135494113Y-61211140D01*
X135493888Y-61469726D01*
X119599856Y-61469726D01*
X119599856Y-60992000D01*
X119575451Y-60862298D01*
X119498797Y-60743175D01*
X119468000Y-60722132D01*
X119468000Y-58929726D01*
X126095888Y-58929726D01*
X126194636Y-59168714D01*
X126377324Y-59351722D01*
X126616140Y-59450887D01*
X126874726Y-59451112D01*
X126903144Y-59439370D01*
X126903144Y-59462000D01*
X126927549Y-59591702D01*
X127004203Y-59710825D01*
X127121163Y-59790741D01*
X127260000Y-59818856D01*
X128010000Y-59818856D01*
X128139702Y-59794451D01*
X128258825Y-59717797D01*
X128338741Y-59600837D01*
X128366856Y-59462000D01*
X128366856Y-58262000D01*
X128342451Y-58132298D01*
X128265797Y-58013175D01*
X128148837Y-57933259D01*
X128010000Y-57905144D01*
X127260000Y-57905144D01*
X127130298Y-57929549D01*
X127011175Y-58006203D01*
X126931259Y-58123163D01*
X126921741Y-58170164D01*
X126875860Y-58151113D01*
X126617274Y-58150888D01*
X126378286Y-58249636D01*
X126195278Y-58432324D01*
X126096113Y-58671140D01*
X126095888Y-58929726D01*
X119468000Y-58929726D01*
X119468000Y-58405128D01*
X119491825Y-58389797D01*
X119556784Y-58294726D01*
X119618888Y-58294726D01*
X119717636Y-58533714D01*
X119900324Y-58716722D01*
X120139140Y-58815887D01*
X120397726Y-58816112D01*
X120403303Y-58813808D01*
X120485163Y-58869741D01*
X120624000Y-58897856D01*
X121824000Y-58897856D01*
X121953702Y-58873451D01*
X122072825Y-58796797D01*
X122152741Y-58679837D01*
X122180856Y-58541000D01*
X122180856Y-57791000D01*
X122173895Y-57754000D01*
X134142144Y-57754000D01*
X134142144Y-58954000D01*
X134166549Y-59083702D01*
X134243203Y-59202825D01*
X134360163Y-59282741D01*
X134499000Y-59310856D01*
X135249000Y-59310856D01*
X135367018Y-59288650D01*
X135366888Y-59437726D01*
X135465636Y-59676714D01*
X135648324Y-59859722D01*
X135887140Y-59958887D01*
X136145726Y-59959112D01*
X136384714Y-59860364D01*
X136424816Y-59820332D01*
X136497203Y-59932825D01*
X136614163Y-60012741D01*
X136753000Y-60040856D01*
X137953000Y-60040856D01*
X138082702Y-60016451D01*
X138201825Y-59939797D01*
X138281741Y-59822837D01*
X138309856Y-59684000D01*
X138309856Y-59437726D01*
X143494888Y-59437726D01*
X143593636Y-59676714D01*
X143776324Y-59859722D01*
X144015140Y-59958887D01*
X144273726Y-59959112D01*
X144512714Y-59860364D01*
X144589212Y-59784000D01*
X145986734Y-59784000D01*
X146062324Y-59859722D01*
X146301140Y-59958887D01*
X146559726Y-59959112D01*
X146798714Y-59860364D01*
X146981722Y-59677676D01*
X147080887Y-59438860D01*
X147081112Y-59180274D01*
X146982364Y-58941286D01*
X146799676Y-58758278D01*
X146560860Y-58659113D01*
X146302274Y-58658888D01*
X146063286Y-58757636D01*
X145986788Y-58834000D01*
X144589266Y-58834000D01*
X144513676Y-58758278D01*
X144274860Y-58659113D01*
X144016274Y-58658888D01*
X143777286Y-58757636D01*
X143594278Y-58940324D01*
X143495113Y-59179140D01*
X143494888Y-59437726D01*
X138309856Y-59437726D01*
X138309856Y-58934000D01*
X138285451Y-58804298D01*
X138208797Y-58685175D01*
X138091837Y-58605259D01*
X137953000Y-58577144D01*
X136753000Y-58577144D01*
X136623298Y-58601549D01*
X136504175Y-58678203D01*
X136424259Y-58795163D01*
X136423962Y-58796631D01*
X136385676Y-58758278D01*
X136335070Y-58737265D01*
X136412887Y-58549860D01*
X136413112Y-58291274D01*
X136314364Y-58052286D01*
X136131676Y-57869278D01*
X135892860Y-57770113D01*
X135634274Y-57769888D01*
X135605856Y-57781630D01*
X135605856Y-57754000D01*
X135581451Y-57624298D01*
X135504797Y-57505175D01*
X135387837Y-57425259D01*
X135249000Y-57397144D01*
X134499000Y-57397144D01*
X134369298Y-57421549D01*
X134250175Y-57498203D01*
X134170259Y-57615163D01*
X134142144Y-57754000D01*
X122173895Y-57754000D01*
X122156451Y-57661298D01*
X122079797Y-57542175D01*
X121962837Y-57462259D01*
X121824000Y-57434144D01*
X120624000Y-57434144D01*
X120494298Y-57458549D01*
X120402496Y-57517623D01*
X120398860Y-57516113D01*
X120140274Y-57515888D01*
X119901286Y-57614636D01*
X119718278Y-57797324D01*
X119619113Y-58036140D01*
X119618888Y-58294726D01*
X119556784Y-58294726D01*
X119571741Y-58272837D01*
X119599856Y-58134000D01*
X119599856Y-56634000D01*
X119575451Y-56504298D01*
X119498797Y-56385175D01*
X119381837Y-56305259D01*
X119243000Y-56277144D01*
X117993000Y-56277144D01*
X117863298Y-56301549D01*
X117744175Y-56378203D01*
X117667693Y-56490138D01*
X117694856Y-56356000D01*
X117694856Y-54856000D01*
X117670451Y-54726298D01*
X117593797Y-54607175D01*
X117476837Y-54527259D01*
X117338000Y-54499144D01*
X116088000Y-54499144D01*
X115958298Y-54523549D01*
X115839175Y-54600203D01*
X115759259Y-54717163D01*
X115731144Y-54856000D01*
X115731144Y-56356000D01*
X115755549Y-56485702D01*
X115832203Y-56604825D01*
X115863000Y-56625868D01*
X115863000Y-58942872D01*
X115839175Y-58958203D01*
X115759259Y-59075163D01*
X115731144Y-59214000D01*
X115731144Y-60714000D01*
X115755549Y-60843702D01*
X115832203Y-60962825D01*
X115949163Y-61042741D01*
X116088000Y-61070856D01*
X117338000Y-61070856D01*
X117467702Y-61046451D01*
X117586825Y-60969797D01*
X117663307Y-60857862D01*
X117636144Y-60992000D01*
X117636144Y-61530984D01*
X117593797Y-61465175D01*
X117476837Y-61385259D01*
X117338000Y-61357144D01*
X116088000Y-61357144D01*
X115958298Y-61381549D01*
X115839175Y-61458203D01*
X115759259Y-61575163D01*
X115731144Y-61714000D01*
X115731144Y-62741827D01*
X115684676Y-62695278D01*
X115445860Y-62596113D01*
X115187274Y-62595888D01*
X114948286Y-62694636D01*
X114765278Y-62877324D01*
X114666113Y-63116140D01*
X114665888Y-63374726D01*
X105678887Y-63374726D01*
X105679112Y-63117274D01*
X105580364Y-62878286D01*
X105397676Y-62695278D01*
X105158860Y-62596113D01*
X104900274Y-62595888D01*
X104661286Y-62694636D01*
X104478278Y-62877324D01*
X104379113Y-63116140D01*
X104379019Y-63224229D01*
X102848267Y-64754981D01*
X102764660Y-64754908D01*
X101869019Y-63859267D01*
X101869112Y-63752274D01*
X101770364Y-63513286D01*
X101587676Y-63330278D01*
X101348860Y-63231113D01*
X101090274Y-63230888D01*
X100851286Y-63329636D01*
X100668278Y-63512324D01*
X100569113Y-63751140D01*
X100568888Y-64009726D01*
X98017870Y-64009726D01*
X98010451Y-63970298D01*
X97933797Y-63851175D01*
X97816837Y-63771259D01*
X97678000Y-63743144D01*
X96378000Y-63743144D01*
X96248298Y-63767549D01*
X96129175Y-63844203D01*
X96049259Y-63961163D01*
X96021144Y-64100000D01*
X95018097Y-64100000D01*
X95112164Y-63959220D01*
X95203509Y-63500000D01*
X95112164Y-63040780D01*
X94852037Y-62651472D01*
X94462729Y-62391345D01*
X94003509Y-62300000D01*
X93956491Y-62300000D01*
X93497271Y-62391345D01*
X93107963Y-62651472D01*
X92847836Y-63040780D01*
X92756491Y-63500000D01*
X92663509Y-63500000D01*
X92572164Y-63040780D01*
X92312037Y-62651472D01*
X91922729Y-62391345D01*
X91463509Y-62300000D01*
X91416491Y-62300000D01*
X90957271Y-62391345D01*
X90567963Y-62651472D01*
X90307836Y-63040780D01*
X90216491Y-63500000D01*
X89325000Y-63500000D01*
X89325000Y-60960000D01*
X90216491Y-60960000D01*
X90307836Y-61419220D01*
X90567963Y-61808528D01*
X90957271Y-62068655D01*
X91416491Y-62160000D01*
X91463509Y-62160000D01*
X91922729Y-62068655D01*
X92312037Y-61808528D01*
X92572164Y-61419220D01*
X92663509Y-60960000D01*
X92756491Y-60960000D01*
X92847836Y-61419220D01*
X93107963Y-61808528D01*
X93497271Y-62068655D01*
X93956491Y-62160000D01*
X94003509Y-62160000D01*
X94462729Y-62068655D01*
X94852037Y-61808528D01*
X95112164Y-61419220D01*
X95203509Y-60960000D01*
X95112164Y-60500780D01*
X94852037Y-60111472D01*
X94462729Y-59851345D01*
X94003509Y-59760000D01*
X93956491Y-59760000D01*
X93497271Y-59851345D01*
X93107963Y-60111472D01*
X92847836Y-60500780D01*
X92756491Y-60960000D01*
X92663509Y-60960000D01*
X92572164Y-60500780D01*
X92312037Y-60111472D01*
X91922729Y-59851345D01*
X91463509Y-59760000D01*
X91416491Y-59760000D01*
X90957271Y-59851345D01*
X90567963Y-60111472D01*
X90307836Y-60500780D01*
X90216491Y-60960000D01*
X89325000Y-60960000D01*
X89325000Y-58420000D01*
X90216491Y-58420000D01*
X90307836Y-58879220D01*
X90567963Y-59268528D01*
X90957271Y-59528655D01*
X91416491Y-59620000D01*
X91463509Y-59620000D01*
X91922729Y-59528655D01*
X92312037Y-59268528D01*
X92572164Y-58879220D01*
X92663509Y-58420000D01*
X92756491Y-58420000D01*
X92847836Y-58879220D01*
X93107963Y-59268528D01*
X93497271Y-59528655D01*
X93956491Y-59620000D01*
X94003509Y-59620000D01*
X94462729Y-59528655D01*
X94852037Y-59268528D01*
X95018097Y-59020000D01*
X96021144Y-59020000D01*
X96021144Y-60520000D01*
X96045549Y-60649702D01*
X96122203Y-60768825D01*
X96239163Y-60848741D01*
X96378000Y-60876856D01*
X97647962Y-60876856D01*
X97647888Y-60961726D01*
X97681852Y-61043924D01*
X97678000Y-61043144D01*
X96378000Y-61043144D01*
X96248298Y-61067549D01*
X96129175Y-61144203D01*
X96049259Y-61261163D01*
X96021144Y-61400000D01*
X96021144Y-62900000D01*
X96045549Y-63029702D01*
X96122203Y-63148825D01*
X96239163Y-63228741D01*
X96378000Y-63256856D01*
X97678000Y-63256856D01*
X97807702Y-63232451D01*
X97926825Y-63155797D01*
X98006741Y-63038837D01*
X98034856Y-62900000D01*
X98034856Y-62515289D01*
X98059215Y-62499013D01*
X98172726Y-62499112D01*
X98411714Y-62400364D01*
X98594722Y-62217676D01*
X98693887Y-61978860D01*
X98693998Y-61850726D01*
X100314888Y-61850726D01*
X100413636Y-62089714D01*
X100596324Y-62272722D01*
X100835140Y-62371887D01*
X101093726Y-62372112D01*
X101210166Y-62324000D01*
X101362960Y-62324000D01*
X101368549Y-62353702D01*
X101445203Y-62472825D01*
X101562163Y-62552741D01*
X101701000Y-62580856D01*
X102901000Y-62580856D01*
X103030702Y-62556451D01*
X103149825Y-62479797D01*
X103229741Y-62362837D01*
X103257856Y-62224000D01*
X103257856Y-61474000D01*
X103233451Y-61344298D01*
X103156797Y-61225175D01*
X103039837Y-61145259D01*
X102901000Y-61117144D01*
X101701000Y-61117144D01*
X101571298Y-61141549D01*
X101452175Y-61218203D01*
X101423058Y-61260817D01*
X101333676Y-61171278D01*
X101094860Y-61072113D01*
X100836274Y-61071888D01*
X100597286Y-61170636D01*
X100414278Y-61353324D01*
X100315113Y-61592140D01*
X100314888Y-61850726D01*
X98693998Y-61850726D01*
X98694112Y-61720274D01*
X98595364Y-61481286D01*
X98547409Y-61433247D01*
X98665714Y-61384364D01*
X98848722Y-61201676D01*
X98947887Y-60962860D01*
X98948112Y-60704274D01*
X98849364Y-60465286D01*
X98666676Y-60282278D01*
X98427860Y-60183113D01*
X98319771Y-60183019D01*
X98034856Y-59898104D01*
X98034856Y-59020000D01*
X98010451Y-58890298D01*
X97933797Y-58771175D01*
X97816837Y-58691259D01*
X97678000Y-58663144D01*
X96378000Y-58663144D01*
X96248298Y-58687549D01*
X96129175Y-58764203D01*
X96049259Y-58881163D01*
X96021144Y-59020000D01*
X95018097Y-59020000D01*
X95112164Y-58879220D01*
X95203509Y-58420000D01*
X95112164Y-57960780D01*
X94852037Y-57571472D01*
X94462729Y-57311345D01*
X94003509Y-57220000D01*
X93956491Y-57220000D01*
X93497271Y-57311345D01*
X93107963Y-57571472D01*
X92847836Y-57960780D01*
X92756491Y-58420000D01*
X92663509Y-58420000D01*
X92572164Y-57960780D01*
X92312037Y-57571472D01*
X91922729Y-57311345D01*
X91463509Y-57220000D01*
X91416491Y-57220000D01*
X90957271Y-57311345D01*
X90567963Y-57571472D01*
X90307836Y-57960780D01*
X90216491Y-58420000D01*
X89325000Y-58420000D01*
X89325000Y-55880000D01*
X90216491Y-55880000D01*
X90307836Y-56339220D01*
X90567963Y-56728528D01*
X90957271Y-56988655D01*
X91416491Y-57080000D01*
X91463509Y-57080000D01*
X91922729Y-56988655D01*
X92312037Y-56728528D01*
X92572164Y-56339220D01*
X92663509Y-55880000D01*
X92756491Y-55880000D01*
X92847836Y-56339220D01*
X93107963Y-56728528D01*
X93497271Y-56988655D01*
X93956491Y-57080000D01*
X94003509Y-57080000D01*
X94462729Y-56988655D01*
X94852037Y-56728528D01*
X95112164Y-56339220D01*
X95115987Y-56320000D01*
X96021144Y-56320000D01*
X96021144Y-57820000D01*
X96045549Y-57949702D01*
X96122203Y-58068825D01*
X96239163Y-58148741D01*
X96378000Y-58176856D01*
X97678000Y-58176856D01*
X97807702Y-58152451D01*
X97926825Y-58075797D01*
X98006741Y-57958837D01*
X98034856Y-57820000D01*
X98034856Y-57543278D01*
X98041140Y-57545887D01*
X98299726Y-57546112D01*
X98538714Y-57447364D01*
X98721722Y-57264676D01*
X98820887Y-57025860D01*
X98820887Y-57024726D01*
X100187888Y-57024726D01*
X100286636Y-57263714D01*
X100469324Y-57446722D01*
X100708140Y-57545887D01*
X100966726Y-57546112D01*
X101205714Y-57447364D01*
X101282212Y-57371000D01*
X101362960Y-57371000D01*
X101368549Y-57400702D01*
X101445203Y-57519825D01*
X101562163Y-57599741D01*
X101701000Y-57627856D01*
X102901000Y-57627856D01*
X103030702Y-57603451D01*
X103149825Y-57526797D01*
X103229741Y-57409837D01*
X103257856Y-57271000D01*
X103257856Y-56521000D01*
X103233451Y-56391298D01*
X103156797Y-56272175D01*
X103039837Y-56192259D01*
X102901000Y-56164144D01*
X101701000Y-56164144D01*
X101571298Y-56188549D01*
X101452175Y-56265203D01*
X101372259Y-56382163D01*
X101364394Y-56421000D01*
X101282266Y-56421000D01*
X101206676Y-56345278D01*
X100967860Y-56246113D01*
X100709274Y-56245888D01*
X100470286Y-56344636D01*
X100287278Y-56527324D01*
X100188113Y-56766140D01*
X100187888Y-57024726D01*
X98820887Y-57024726D01*
X98821112Y-56767274D01*
X98722364Y-56528286D01*
X98539676Y-56345278D01*
X98300860Y-56246113D01*
X98042274Y-56245888D01*
X98022452Y-56254078D01*
X98010451Y-56190298D01*
X97933797Y-56071175D01*
X97816837Y-55991259D01*
X97678000Y-55963144D01*
X96378000Y-55963144D01*
X96248298Y-55987549D01*
X96129175Y-56064203D01*
X96049259Y-56181163D01*
X96021144Y-56320000D01*
X95115987Y-56320000D01*
X95203509Y-55880000D01*
X95112164Y-55420780D01*
X94852037Y-55031472D01*
X94462729Y-54771345D01*
X94003509Y-54680000D01*
X93956491Y-54680000D01*
X93497271Y-54771345D01*
X93107963Y-55031472D01*
X92847836Y-55420780D01*
X92756491Y-55880000D01*
X92663509Y-55880000D01*
X92572164Y-55420780D01*
X92312037Y-55031472D01*
X91922729Y-54771345D01*
X91463509Y-54680000D01*
X91416491Y-54680000D01*
X90957271Y-54771345D01*
X90567963Y-55031472D01*
X90307836Y-55420780D01*
X90216491Y-55880000D01*
X89325000Y-55880000D01*
X89325000Y-53340000D01*
X90216491Y-53340000D01*
X90307836Y-53799220D01*
X90567963Y-54188528D01*
X90957271Y-54448655D01*
X91416491Y-54540000D01*
X91463509Y-54540000D01*
X91922729Y-54448655D01*
X92312037Y-54188528D01*
X92572164Y-53799220D01*
X92663509Y-53340000D01*
X92756491Y-53340000D01*
X92847836Y-53799220D01*
X93107963Y-54188528D01*
X93497271Y-54448655D01*
X93956491Y-54540000D01*
X94003509Y-54540000D01*
X94462729Y-54448655D01*
X94852037Y-54188528D01*
X95018097Y-53940000D01*
X96021144Y-53940000D01*
X96021144Y-55440000D01*
X96045549Y-55569702D01*
X96122203Y-55688825D01*
X96239163Y-55768741D01*
X96378000Y-55796856D01*
X97549678Y-55796856D01*
X97675324Y-55922722D01*
X97914140Y-56021887D01*
X98172726Y-56022112D01*
X98411714Y-55923364D01*
X98594722Y-55740676D01*
X98693887Y-55501860D01*
X98694112Y-55243274D01*
X98595364Y-55004286D01*
X98412676Y-54821278D01*
X98173860Y-54722113D01*
X98065770Y-54722019D01*
X98034856Y-54691104D01*
X98034856Y-53940000D01*
X98010451Y-53810298D01*
X97933797Y-53691175D01*
X97816837Y-53611259D01*
X97678000Y-53583144D01*
X96378000Y-53583144D01*
X96248298Y-53607549D01*
X96129175Y-53684203D01*
X96049259Y-53801163D01*
X96021144Y-53940000D01*
X95018097Y-53940000D01*
X95112164Y-53799220D01*
X95177903Y-53468726D01*
X100187888Y-53468726D01*
X100286636Y-53707714D01*
X100469324Y-53890722D01*
X100708140Y-53989887D01*
X100966726Y-53990112D01*
X101083166Y-53942000D01*
X101362960Y-53942000D01*
X101368549Y-53971702D01*
X101445203Y-54090825D01*
X101562163Y-54170741D01*
X101701000Y-54198856D01*
X102901000Y-54198856D01*
X103030702Y-54174451D01*
X103149825Y-54097797D01*
X103229741Y-53980837D01*
X103256291Y-53849726D01*
X140319888Y-53849726D01*
X140418636Y-54088714D01*
X140495000Y-54165212D01*
X140495000Y-55181734D01*
X140419278Y-55257324D01*
X140320113Y-55496140D01*
X140319888Y-55754726D01*
X140418636Y-55993714D01*
X140601324Y-56176722D01*
X140840140Y-56275887D01*
X141098726Y-56276112D01*
X141337714Y-56177364D01*
X141520722Y-55994676D01*
X141619887Y-55755860D01*
X141620112Y-55497274D01*
X141521364Y-55258286D01*
X141445000Y-55181788D01*
X141445000Y-54165266D01*
X141520722Y-54089676D01*
X141567622Y-53976726D01*
X144764888Y-53976726D01*
X144863636Y-54215714D01*
X145046324Y-54398722D01*
X145167518Y-54449046D01*
X145831000Y-55112528D01*
X145831000Y-57277000D01*
X145876672Y-57506610D01*
X146006736Y-57701264D01*
X146718959Y-58413487D01*
X146768636Y-58533714D01*
X146951324Y-58716722D01*
X147190140Y-58815887D01*
X147448726Y-58816112D01*
X147687714Y-58717364D01*
X147870722Y-58534676D01*
X147969887Y-58295860D01*
X147970112Y-58037274D01*
X147871364Y-57798286D01*
X147688676Y-57615278D01*
X147567482Y-57564954D01*
X147031000Y-57028472D01*
X147031000Y-54864000D01*
X146985328Y-54634390D01*
X146855264Y-54439736D01*
X146016041Y-53600513D01*
X145966364Y-53480286D01*
X145783676Y-53297278D01*
X145544860Y-53198113D01*
X145286274Y-53197888D01*
X145047286Y-53296636D01*
X144864278Y-53479324D01*
X144765113Y-53718140D01*
X144764888Y-53976726D01*
X141567622Y-53976726D01*
X141619887Y-53850860D01*
X141620112Y-53592274D01*
X141521364Y-53353286D01*
X141338676Y-53170278D01*
X141099860Y-53071113D01*
X140841274Y-53070888D01*
X140602286Y-53169636D01*
X140419278Y-53352324D01*
X140320113Y-53591140D01*
X140319888Y-53849726D01*
X103256291Y-53849726D01*
X103257856Y-53842000D01*
X103257856Y-53092000D01*
X103233451Y-52962298D01*
X103156797Y-52843175D01*
X103039837Y-52763259D01*
X102901000Y-52735144D01*
X101701000Y-52735144D01*
X101571298Y-52759549D01*
X101452175Y-52836203D01*
X101372259Y-52953163D01*
X101371924Y-52954816D01*
X101206676Y-52789278D01*
X100967860Y-52690113D01*
X100709274Y-52689888D01*
X100470286Y-52788636D01*
X100287278Y-52971324D01*
X100188113Y-53210140D01*
X100187888Y-53468726D01*
X95177903Y-53468726D01*
X95203509Y-53340000D01*
X95112164Y-52880780D01*
X94852037Y-52491472D01*
X94462729Y-52231345D01*
X94003509Y-52140000D01*
X93956491Y-52140000D01*
X93497271Y-52231345D01*
X93107963Y-52491472D01*
X92847836Y-52880780D01*
X92756491Y-53340000D01*
X92663509Y-53340000D01*
X92572164Y-52880780D01*
X92312037Y-52491472D01*
X91922729Y-52231345D01*
X91463509Y-52140000D01*
X91416491Y-52140000D01*
X90957271Y-52231345D01*
X90567963Y-52491472D01*
X90307836Y-52880780D01*
X90216491Y-53340000D01*
X89325000Y-53340000D01*
X89325000Y-50800000D01*
X90216491Y-50800000D01*
X90307836Y-51259220D01*
X90567963Y-51648528D01*
X90957271Y-51908655D01*
X91416491Y-52000000D01*
X91463509Y-52000000D01*
X91922729Y-51908655D01*
X92312037Y-51648528D01*
X92572164Y-51259220D01*
X92663509Y-50800000D01*
X92756491Y-50800000D01*
X92847836Y-51259220D01*
X93107963Y-51648528D01*
X93497271Y-51908655D01*
X93956491Y-52000000D01*
X94003509Y-52000000D01*
X94462729Y-51908655D01*
X94598814Y-51817726D01*
X132826888Y-51817726D01*
X132925636Y-52056714D01*
X133108324Y-52239722D01*
X133347140Y-52338887D01*
X133605726Y-52339112D01*
X133844714Y-52240364D01*
X134027722Y-52057676D01*
X134126887Y-51818860D01*
X134126981Y-51710771D01*
X134641733Y-51196019D01*
X134748726Y-51196112D01*
X134987714Y-51097364D01*
X135170722Y-50914676D01*
X135269887Y-50675860D01*
X135270112Y-50417274D01*
X135171364Y-50178286D01*
X134988676Y-49995278D01*
X134749860Y-49896113D01*
X134491274Y-49895888D01*
X134252286Y-49994636D01*
X134069278Y-50177324D01*
X133970113Y-50416140D01*
X133970019Y-50524229D01*
X133455267Y-51038981D01*
X133348274Y-51038888D01*
X133109286Y-51137636D01*
X132926278Y-51320324D01*
X132827113Y-51559140D01*
X132826888Y-51817726D01*
X94598814Y-51817726D01*
X94852037Y-51648528D01*
X95112164Y-51259220D01*
X95203165Y-50801726D01*
X100314888Y-50801726D01*
X100413636Y-51040714D01*
X100596324Y-51223722D01*
X100835140Y-51322887D01*
X101093726Y-51323112D01*
X101210166Y-51275000D01*
X101362960Y-51275000D01*
X101368549Y-51304702D01*
X101445203Y-51423825D01*
X101562163Y-51503741D01*
X101701000Y-51531856D01*
X102901000Y-51531856D01*
X103030702Y-51507451D01*
X103149825Y-51430797D01*
X103229741Y-51313837D01*
X103257856Y-51175000D01*
X103257856Y-50425000D01*
X103233451Y-50295298D01*
X103156797Y-50176175D01*
X103039837Y-50096259D01*
X102901000Y-50068144D01*
X101701000Y-50068144D01*
X101571298Y-50092549D01*
X101452175Y-50169203D01*
X101423058Y-50211817D01*
X101333676Y-50122278D01*
X101134869Y-50039726D01*
X119237888Y-50039726D01*
X119336636Y-50278714D01*
X119378144Y-50320295D01*
X119378144Y-50921000D01*
X119402549Y-51050702D01*
X119479203Y-51169825D01*
X119596163Y-51249741D01*
X119735000Y-51277856D01*
X120935000Y-51277856D01*
X121064702Y-51253451D01*
X121183825Y-51176797D01*
X121263741Y-51059837D01*
X121291856Y-50921000D01*
X121291856Y-50171000D01*
X121267451Y-50041298D01*
X121190797Y-49922175D01*
X121073837Y-49842259D01*
X120935000Y-49814144D01*
X120538084Y-49814144D01*
X120538112Y-49782274D01*
X120439364Y-49543286D01*
X120256676Y-49360278D01*
X120017860Y-49261113D01*
X119759274Y-49260888D01*
X119520286Y-49359636D01*
X119337278Y-49542324D01*
X119238113Y-49781140D01*
X119237888Y-50039726D01*
X101134869Y-50039726D01*
X101094860Y-50023113D01*
X100836274Y-50022888D01*
X100597286Y-50121636D01*
X100414278Y-50304324D01*
X100315113Y-50543140D01*
X100314888Y-50801726D01*
X95203165Y-50801726D01*
X95203509Y-50800000D01*
X95112164Y-50340780D01*
X94852037Y-49951472D01*
X94462729Y-49691345D01*
X94003509Y-49600000D01*
X93956491Y-49600000D01*
X93497271Y-49691345D01*
X93107963Y-49951472D01*
X92847836Y-50340780D01*
X92756491Y-50800000D01*
X92663509Y-50800000D01*
X92572164Y-50340780D01*
X92312037Y-49951472D01*
X91922729Y-49691345D01*
X91463509Y-49600000D01*
X91416491Y-49600000D01*
X90957271Y-49691345D01*
X90567963Y-49951472D01*
X90307836Y-50340780D01*
X90216491Y-50800000D01*
X89325000Y-50800000D01*
X89325000Y-48260000D01*
X90216491Y-48260000D01*
X90307836Y-48719220D01*
X90567963Y-49108528D01*
X90957271Y-49368655D01*
X91416491Y-49460000D01*
X91463509Y-49460000D01*
X91922729Y-49368655D01*
X92312037Y-49108528D01*
X92572164Y-48719220D01*
X92663509Y-48260000D01*
X92756491Y-48260000D01*
X92847836Y-48719220D01*
X93107963Y-49108528D01*
X93497271Y-49368655D01*
X93956491Y-49460000D01*
X94003509Y-49460000D01*
X94462729Y-49368655D01*
X94852037Y-49108528D01*
X95112164Y-48719220D01*
X95203509Y-48260000D01*
X95112164Y-47800780D01*
X94852037Y-47411472D01*
X94462729Y-47151345D01*
X94003509Y-47060000D01*
X93956491Y-47060000D01*
X93497271Y-47151345D01*
X93107963Y-47411472D01*
X92847836Y-47800780D01*
X92756491Y-48260000D01*
X92663509Y-48260000D01*
X92572164Y-47800780D01*
X92312037Y-47411472D01*
X91922729Y-47151345D01*
X91463509Y-47060000D01*
X91416491Y-47060000D01*
X90957271Y-47151345D01*
X90567963Y-47411472D01*
X90307836Y-47800780D01*
X90216491Y-48260000D01*
X89325000Y-48260000D01*
X89325000Y-45720000D01*
X90216491Y-45720000D01*
X90307836Y-46179220D01*
X90567963Y-46568528D01*
X90957271Y-46828655D01*
X91416491Y-46920000D01*
X91463509Y-46920000D01*
X91922729Y-46828655D01*
X92312037Y-46568528D01*
X92572164Y-46179220D01*
X92663509Y-45720000D01*
X92756491Y-45720000D01*
X92847836Y-46179220D01*
X93107963Y-46568528D01*
X93497271Y-46828655D01*
X93956491Y-46920000D01*
X94003509Y-46920000D01*
X94462729Y-46828655D01*
X94852037Y-46568528D01*
X95015425Y-46324000D01*
X99852144Y-46324000D01*
X99852144Y-47524000D01*
X99876549Y-47653702D01*
X99953203Y-47772825D01*
X100070163Y-47852741D01*
X100209000Y-47880856D01*
X100959000Y-47880856D01*
X101088702Y-47856451D01*
X101207825Y-47779797D01*
X101287741Y-47662837D01*
X101315856Y-47524000D01*
X101315856Y-47501558D01*
X101343140Y-47512887D01*
X101601726Y-47513112D01*
X101757144Y-47448894D01*
X101757144Y-47656000D01*
X101781549Y-47785702D01*
X101858203Y-47904825D01*
X101975163Y-47984741D01*
X102114000Y-48012856D01*
X102774104Y-48012856D01*
X103120960Y-48359712D01*
X103081278Y-48399324D01*
X102982113Y-48638140D01*
X102981888Y-48896726D01*
X103080636Y-49135714D01*
X103263324Y-49318722D01*
X103502140Y-49417887D01*
X103760726Y-49418112D01*
X103999714Y-49319364D01*
X104182722Y-49136676D01*
X104281887Y-48897860D01*
X104281998Y-48769726D01*
X116697888Y-48769726D01*
X116796636Y-49008714D01*
X116979324Y-49191722D01*
X117218140Y-49290887D01*
X117476726Y-49291112D01*
X117715714Y-49192364D01*
X117898722Y-49009676D01*
X117997887Y-48770860D01*
X117997981Y-48662771D01*
X118306752Y-48354000D01*
X119189734Y-48354000D01*
X119265324Y-48429722D01*
X119378144Y-48476569D01*
X119378144Y-48635000D01*
X119402549Y-48764702D01*
X119479203Y-48883825D01*
X119596163Y-48963741D01*
X119735000Y-48991856D01*
X120935000Y-48991856D01*
X121064702Y-48967451D01*
X121183825Y-48890797D01*
X121263741Y-48773837D01*
X121272267Y-48731730D01*
X142397588Y-48731730D01*
X142759461Y-49607532D01*
X143428944Y-50278184D01*
X144304112Y-50641585D01*
X145251730Y-50642412D01*
X146127532Y-50280539D01*
X146798184Y-49611056D01*
X147161585Y-48735888D01*
X147162412Y-47788270D01*
X146800539Y-46912468D01*
X146131056Y-46241816D01*
X145255888Y-45878415D01*
X144308270Y-45877588D01*
X143432468Y-46239461D01*
X142761816Y-46908944D01*
X142398415Y-47784112D01*
X142397588Y-48731730D01*
X121272267Y-48731730D01*
X121291856Y-48635000D01*
X121291856Y-47885000D01*
X121267451Y-47755298D01*
X121190797Y-47636175D01*
X121073837Y-47556259D01*
X120935000Y-47528144D01*
X120192330Y-47528144D01*
X120185364Y-47511286D01*
X120002676Y-47328278D01*
X119793825Y-47241556D01*
X119803722Y-47231676D01*
X119863856Y-47086856D01*
X121062000Y-47086856D01*
X121191702Y-47062451D01*
X121310825Y-46985797D01*
X121390741Y-46868837D01*
X121418856Y-46730000D01*
X121418856Y-45980000D01*
X121394451Y-45850298D01*
X121317797Y-45731175D01*
X121200837Y-45651259D01*
X121062000Y-45623144D01*
X119862000Y-45623144D01*
X119732298Y-45647549D01*
X119613175Y-45724203D01*
X119533259Y-45841163D01*
X119508503Y-45963412D01*
X119425124Y-46019124D01*
X119425122Y-46019127D01*
X119231268Y-46212981D01*
X119124274Y-46212888D01*
X118885286Y-46311636D01*
X118702278Y-46494324D01*
X118603113Y-46733140D01*
X118602888Y-46991726D01*
X118701636Y-47230714D01*
X118874619Y-47404000D01*
X118110005Y-47404000D01*
X118110000Y-47403999D01*
X117958384Y-47434158D01*
X117928225Y-47440157D01*
X117823213Y-47510324D01*
X117774124Y-47543124D01*
X117326267Y-47990981D01*
X117219274Y-47990888D01*
X116980286Y-48089636D01*
X116797278Y-48272324D01*
X116698113Y-48511140D01*
X116697888Y-48769726D01*
X104281998Y-48769726D01*
X104282112Y-48639274D01*
X104183364Y-48400286D01*
X104107000Y-48323788D01*
X104107000Y-48199000D01*
X104070843Y-48017225D01*
X103967876Y-47863124D01*
X103220856Y-47116104D01*
X103220856Y-46610726D01*
X103616888Y-46610726D01*
X103715636Y-46849714D01*
X103898324Y-47032722D01*
X104137140Y-47131887D01*
X104297144Y-47132026D01*
X104297144Y-47524000D01*
X104321549Y-47653702D01*
X104398203Y-47772825D01*
X104515163Y-47852741D01*
X104654000Y-47880856D01*
X105404000Y-47880856D01*
X105533702Y-47856451D01*
X105652825Y-47779797D01*
X105732741Y-47662837D01*
X105760856Y-47524000D01*
X105760856Y-46610726D01*
X108089888Y-46610726D01*
X108188636Y-46849714D01*
X108371324Y-47032722D01*
X108610140Y-47131887D01*
X108718230Y-47131981D01*
X108742144Y-47155895D01*
X108742144Y-47524000D01*
X108766549Y-47653702D01*
X108843203Y-47772825D01*
X108960163Y-47852741D01*
X109099000Y-47880856D01*
X109849000Y-47880856D01*
X109978702Y-47856451D01*
X110097825Y-47779797D01*
X110177741Y-47662837D01*
X110205856Y-47524000D01*
X110205856Y-46356726D01*
X111109888Y-46356726D01*
X111208636Y-46595714D01*
X111391324Y-46778722D01*
X111630140Y-46877887D01*
X111888726Y-46878112D01*
X112127714Y-46779364D01*
X112310722Y-46596676D01*
X112409887Y-46357860D01*
X112409887Y-46356726D01*
X114089888Y-46356726D01*
X114188636Y-46595714D01*
X114371324Y-46778722D01*
X114610140Y-46877887D01*
X114838144Y-46878085D01*
X114838144Y-47021000D01*
X114862549Y-47150702D01*
X114939203Y-47269825D01*
X115056163Y-47349741D01*
X115195000Y-47377856D01*
X115945000Y-47377856D01*
X116074702Y-47353451D01*
X116193825Y-47276797D01*
X116273741Y-47159837D01*
X116301856Y-47021000D01*
X116301856Y-45821000D01*
X116277451Y-45691298D01*
X116200797Y-45572175D01*
X116083837Y-45492259D01*
X115945000Y-45464144D01*
X115195000Y-45464144D01*
X115065298Y-45488549D01*
X114946175Y-45565203D01*
X114922437Y-45599945D01*
X114869860Y-45578113D01*
X114611274Y-45577888D01*
X114372286Y-45676636D01*
X114189278Y-45859324D01*
X114090113Y-46098140D01*
X114089888Y-46356726D01*
X112409887Y-46356726D01*
X112410112Y-46099274D01*
X112311364Y-45860286D01*
X112235000Y-45783788D01*
X112235000Y-45313000D01*
X130205144Y-45313000D01*
X130205144Y-46513000D01*
X130229549Y-46642702D01*
X130306203Y-46761825D01*
X130423163Y-46841741D01*
X130562000Y-46869856D01*
X131312000Y-46869856D01*
X131441702Y-46845451D01*
X131560825Y-46768797D01*
X131640741Y-46651837D01*
X131668856Y-46513000D01*
X131668856Y-45313000D01*
X131644451Y-45183298D01*
X131567797Y-45064175D01*
X131536311Y-45042661D01*
X131586887Y-44920860D01*
X131587112Y-44662274D01*
X131488364Y-44423286D01*
X131305676Y-44240278D01*
X131066860Y-44141113D01*
X130808274Y-44140888D01*
X130569286Y-44239636D01*
X130386278Y-44422324D01*
X130287113Y-44661140D01*
X130286888Y-44919726D01*
X130337283Y-45041690D01*
X130313175Y-45057203D01*
X130233259Y-45174163D01*
X130205144Y-45313000D01*
X112235000Y-45313000D01*
X112235000Y-45243333D01*
X112378500Y-45052000D01*
X121729734Y-45052000D01*
X121805324Y-45127722D01*
X122044140Y-45226887D01*
X122302726Y-45227112D01*
X122541714Y-45128364D01*
X122724722Y-44945676D01*
X122823887Y-44706860D01*
X122824112Y-44448274D01*
X122725364Y-44209286D01*
X122542676Y-44026278D01*
X122303860Y-43927113D01*
X122045274Y-43926888D01*
X121806286Y-44025636D01*
X121729788Y-44102000D01*
X112141000Y-44102000D01*
X112107713Y-44108621D01*
X112073825Y-44106774D01*
X112017641Y-44126537D01*
X111959225Y-44138157D01*
X111931006Y-44157012D01*
X111898991Y-44168274D01*
X111854647Y-44208034D01*
X111805124Y-44241124D01*
X111786268Y-44269344D01*
X111761000Y-44292000D01*
X111380000Y-44800000D01*
X111354248Y-44853701D01*
X111321157Y-44903225D01*
X111314536Y-44936513D01*
X111299861Y-44967114D01*
X111296619Y-45026584D01*
X111285000Y-45085000D01*
X111285000Y-45783734D01*
X111209278Y-45859324D01*
X111110113Y-46098140D01*
X111109888Y-46356726D01*
X110205856Y-46356726D01*
X110205856Y-46324000D01*
X110181451Y-46194298D01*
X110104797Y-46075175D01*
X109987837Y-45995259D01*
X109849000Y-45967144D01*
X109144479Y-45967144D01*
X109108676Y-45931278D01*
X108869860Y-45832113D01*
X108611274Y-45831888D01*
X108372286Y-45930636D01*
X108189278Y-46113324D01*
X108090113Y-46352140D01*
X108089888Y-46610726D01*
X105760856Y-46610726D01*
X105760856Y-46324000D01*
X105736451Y-46194298D01*
X105659797Y-46075175D01*
X105542837Y-45995259D01*
X105404000Y-45967144D01*
X104671479Y-45967144D01*
X104635676Y-45931278D01*
X104396860Y-45832113D01*
X104138274Y-45831888D01*
X103899286Y-45930636D01*
X103716278Y-46113324D01*
X103617113Y-46352140D01*
X103616888Y-46610726D01*
X103220856Y-46610726D01*
X103220856Y-46456000D01*
X103196451Y-46326298D01*
X103137377Y-46234496D01*
X103138887Y-46230860D01*
X103139112Y-45972274D01*
X103040364Y-45733286D01*
X102857676Y-45550278D01*
X102618860Y-45451113D01*
X102360274Y-45450888D01*
X102121286Y-45549636D01*
X101938278Y-45732324D01*
X101839113Y-45971140D01*
X101838888Y-46229726D01*
X101841192Y-46235303D01*
X101800328Y-46295109D01*
X101602860Y-46213113D01*
X101344274Y-46212888D01*
X101298507Y-46231799D01*
X101291451Y-46194298D01*
X101214797Y-46075175D01*
X101097837Y-45995259D01*
X100959000Y-45967144D01*
X100209000Y-45967144D01*
X100079298Y-45991549D01*
X99960175Y-46068203D01*
X99880259Y-46185163D01*
X99852144Y-46324000D01*
X95015425Y-46324000D01*
X95112164Y-46179220D01*
X95203509Y-45720000D01*
X95112164Y-45260780D01*
X94852037Y-44871472D01*
X94462729Y-44611345D01*
X94003509Y-44520000D01*
X93956491Y-44520000D01*
X93497271Y-44611345D01*
X93107963Y-44871472D01*
X92847836Y-45260780D01*
X92756491Y-45720000D01*
X92663509Y-45720000D01*
X92572164Y-45260780D01*
X92312037Y-44871472D01*
X91922729Y-44611345D01*
X91463509Y-44520000D01*
X91416491Y-44520000D01*
X90957271Y-44611345D01*
X90567963Y-44871472D01*
X90307836Y-45260780D01*
X90216491Y-45720000D01*
X89325000Y-45720000D01*
X89325000Y-43605000D01*
X149435000Y-43605000D01*
X149435000Y-85935000D01*
M02*
