G04 #@! TF.FileFunction,Soldermask,Bot*
%FSLAX46Y46*%
G04 Gerber Fmt 4.6, Leading zero omitted, Abs format (unit mm)*
G04 Created by KiCad (PCBNEW 4.0.4-stable) date 04/10/17 21:25:14*
%MOMM*%
%LPD*%
G01*
G04 APERTURE LIST*
%ADD10C,0.100000*%
G04 APERTURE END LIST*
D10*
G36*
X134831034Y-82786351D02*
X134831052Y-82786357D01*
X134831132Y-82786365D01*
X135026891Y-82846963D01*
X135207153Y-82944430D01*
X135365049Y-83075053D01*
X135494567Y-83233858D01*
X135590773Y-83414795D01*
X135650003Y-83610973D01*
X135670000Y-83814919D01*
X135670000Y-83825154D01*
X135669927Y-83835685D01*
X135669926Y-83835692D01*
X135669898Y-83839741D01*
X135647055Y-84043388D01*
X135585092Y-84238720D01*
X135486369Y-84418296D01*
X135354647Y-84575277D01*
X135194941Y-84703684D01*
X135013337Y-84798624D01*
X134816750Y-84856483D01*
X134816680Y-84856489D01*
X134816661Y-84856495D01*
X134612675Y-84875059D01*
X134408966Y-84853649D01*
X134408948Y-84853643D01*
X134408868Y-84853635D01*
X134213109Y-84793037D01*
X134032847Y-84695570D01*
X133874951Y-84564947D01*
X133745433Y-84406142D01*
X133649227Y-84225205D01*
X133589997Y-84029027D01*
X133570000Y-83825081D01*
X133570000Y-83814846D01*
X133570073Y-83804315D01*
X133570074Y-83804308D01*
X133570102Y-83800259D01*
X133592945Y-83596612D01*
X133654908Y-83401280D01*
X133753631Y-83221704D01*
X133885353Y-83064723D01*
X134045059Y-82936316D01*
X134226663Y-82841376D01*
X134423250Y-82783517D01*
X134423320Y-82783511D01*
X134423339Y-82783505D01*
X134627325Y-82764941D01*
X134831034Y-82786351D01*
X134831034Y-82786351D01*
G37*
G36*
X138210000Y-84870000D02*
X136110000Y-84870000D01*
X136110000Y-82770000D01*
X138210000Y-82770000D01*
X138210000Y-84870000D01*
X138210000Y-84870000D01*
G37*
G36*
X91455685Y-82770073D02*
X91455692Y-82770074D01*
X91459741Y-82770102D01*
X91663388Y-82792945D01*
X91858720Y-82854908D01*
X92038296Y-82953631D01*
X92195277Y-83085353D01*
X92323684Y-83245059D01*
X92418624Y-83426663D01*
X92476483Y-83623250D01*
X92476489Y-83623320D01*
X92476495Y-83623339D01*
X92495059Y-83827325D01*
X92473649Y-84031034D01*
X92473643Y-84031052D01*
X92473635Y-84031132D01*
X92413037Y-84226891D01*
X92315570Y-84407153D01*
X92184947Y-84565049D01*
X92026142Y-84694567D01*
X91845205Y-84790773D01*
X91649027Y-84850003D01*
X91445081Y-84870000D01*
X91434846Y-84870000D01*
X91424315Y-84869927D01*
X91424308Y-84869926D01*
X91420259Y-84869898D01*
X91216612Y-84847055D01*
X91021280Y-84785092D01*
X90841704Y-84686369D01*
X90684723Y-84554647D01*
X90556316Y-84394941D01*
X90461376Y-84213337D01*
X90403517Y-84016750D01*
X90403511Y-84016680D01*
X90403505Y-84016661D01*
X90384941Y-83812675D01*
X90406351Y-83608966D01*
X90406357Y-83608948D01*
X90406365Y-83608868D01*
X90466963Y-83413109D01*
X90564430Y-83232847D01*
X90695053Y-83074951D01*
X90853858Y-82945433D01*
X91034795Y-82849227D01*
X91230973Y-82789997D01*
X91434919Y-82770000D01*
X91445154Y-82770000D01*
X91455685Y-82770073D01*
X91455685Y-82770073D01*
G37*
G36*
X95030000Y-84870000D02*
X92930000Y-84870000D01*
X92930000Y-82770000D01*
X95030000Y-82770000D01*
X95030000Y-84870000D01*
X95030000Y-84870000D01*
G37*
G36*
X131635000Y-84750000D02*
X129985000Y-84750000D01*
X129985000Y-82850000D01*
X131635000Y-82850000D01*
X131635000Y-84750000D01*
X131635000Y-84750000D01*
G37*
G36*
X145014437Y-79049483D02*
X145443218Y-79137498D01*
X145846732Y-79307120D01*
X146209619Y-79551891D01*
X146518049Y-79862481D01*
X146760277Y-80227065D01*
X146927080Y-80631758D01*
X147011963Y-81060452D01*
X147011963Y-81060468D01*
X147012096Y-81061141D01*
X147005115Y-81561097D01*
X147004964Y-81561760D01*
X147004964Y-81561784D01*
X146908144Y-81987936D01*
X146730105Y-82387820D01*
X146477793Y-82745493D01*
X146160810Y-83047353D01*
X145791226Y-83281897D01*
X145383139Y-83440184D01*
X144952064Y-83516195D01*
X144514442Y-83507027D01*
X144086935Y-83413035D01*
X143685826Y-83237794D01*
X143326395Y-82987983D01*
X143022330Y-82673114D01*
X142785214Y-82305181D01*
X142624077Y-81898198D01*
X142545061Y-81467673D01*
X142551173Y-81030000D01*
X142642180Y-80601844D01*
X142814617Y-80199518D01*
X143061913Y-79838352D01*
X143374650Y-79532097D01*
X143740916Y-79292419D01*
X144146761Y-79128447D01*
X144576728Y-79046426D01*
X145014437Y-79049483D01*
X145014437Y-79049483D01*
G37*
G36*
X98024437Y-79049483D02*
X98453218Y-79137498D01*
X98856732Y-79307120D01*
X99219619Y-79551891D01*
X99528049Y-79862481D01*
X99770277Y-80227065D01*
X99937080Y-80631758D01*
X100021963Y-81060452D01*
X100021963Y-81060468D01*
X100022096Y-81061141D01*
X100015115Y-81561097D01*
X100014964Y-81561760D01*
X100014964Y-81561784D01*
X99918144Y-81987936D01*
X99740105Y-82387820D01*
X99487793Y-82745493D01*
X99170810Y-83047353D01*
X98801226Y-83281897D01*
X98393139Y-83440184D01*
X97962064Y-83516195D01*
X97524442Y-83507027D01*
X97096935Y-83413035D01*
X96695826Y-83237794D01*
X96336395Y-82987983D01*
X96032330Y-82673114D01*
X95795214Y-82305181D01*
X95634077Y-81898198D01*
X95555061Y-81467673D01*
X95561173Y-81030000D01*
X95652180Y-80601844D01*
X95824617Y-80199518D01*
X96071913Y-79838352D01*
X96384650Y-79532097D01*
X96750916Y-79292419D01*
X97156761Y-79128447D01*
X97586728Y-79046426D01*
X98024437Y-79049483D01*
X98024437Y-79049483D01*
G37*
G36*
X108927000Y-82437000D02*
X107227000Y-82437000D01*
X107227000Y-80537000D01*
X108927000Y-80537000D01*
X108927000Y-82437000D01*
X108927000Y-82437000D01*
G37*
G36*
X106260000Y-82437000D02*
X104560000Y-82437000D01*
X104560000Y-80537000D01*
X106260000Y-80537000D01*
X106260000Y-82437000D01*
X106260000Y-82437000D01*
G37*
G36*
X103720000Y-82437000D02*
X102020000Y-82437000D01*
X102020000Y-80537000D01*
X103720000Y-80537000D01*
X103720000Y-82437000D01*
X103720000Y-82437000D01*
G37*
G36*
X93995685Y-80230073D02*
X93995692Y-80230074D01*
X93999741Y-80230102D01*
X94203388Y-80252945D01*
X94398720Y-80314908D01*
X94578296Y-80413631D01*
X94735277Y-80545353D01*
X94863684Y-80705059D01*
X94958624Y-80886663D01*
X95016483Y-81083250D01*
X95016489Y-81083320D01*
X95016495Y-81083339D01*
X95035059Y-81287325D01*
X95013649Y-81491034D01*
X95013643Y-81491052D01*
X95013635Y-81491132D01*
X94953037Y-81686891D01*
X94855570Y-81867153D01*
X94724947Y-82025049D01*
X94566142Y-82154567D01*
X94385205Y-82250773D01*
X94189027Y-82310003D01*
X93985081Y-82330000D01*
X93974846Y-82330000D01*
X93964315Y-82329927D01*
X93964308Y-82329926D01*
X93960259Y-82329898D01*
X93756612Y-82307055D01*
X93561280Y-82245092D01*
X93381704Y-82146369D01*
X93224723Y-82014647D01*
X93096316Y-81854941D01*
X93001376Y-81673337D01*
X92943517Y-81476750D01*
X92943511Y-81476680D01*
X92943505Y-81476661D01*
X92924941Y-81272675D01*
X92946351Y-81068966D01*
X92946357Y-81068948D01*
X92946365Y-81068868D01*
X93006963Y-80873109D01*
X93104430Y-80692847D01*
X93235053Y-80534951D01*
X93393858Y-80405433D01*
X93574795Y-80309227D01*
X93770973Y-80249997D01*
X93974919Y-80230000D01*
X93985154Y-80230000D01*
X93995685Y-80230073D01*
X93995685Y-80230073D01*
G37*
G36*
X91455685Y-80230073D02*
X91455692Y-80230074D01*
X91459741Y-80230102D01*
X91663388Y-80252945D01*
X91858720Y-80314908D01*
X92038296Y-80413631D01*
X92195277Y-80545353D01*
X92323684Y-80705059D01*
X92418624Y-80886663D01*
X92476483Y-81083250D01*
X92476489Y-81083320D01*
X92476495Y-81083339D01*
X92495059Y-81287325D01*
X92473649Y-81491034D01*
X92473643Y-81491052D01*
X92473635Y-81491132D01*
X92413037Y-81686891D01*
X92315570Y-81867153D01*
X92184947Y-82025049D01*
X92026142Y-82154567D01*
X91845205Y-82250773D01*
X91649027Y-82310003D01*
X91445081Y-82330000D01*
X91434846Y-82330000D01*
X91424315Y-82329927D01*
X91424308Y-82329926D01*
X91420259Y-82329898D01*
X91216612Y-82307055D01*
X91021280Y-82245092D01*
X90841704Y-82146369D01*
X90684723Y-82014647D01*
X90556316Y-81854941D01*
X90461376Y-81673337D01*
X90403517Y-81476750D01*
X90403511Y-81476680D01*
X90403505Y-81476661D01*
X90384941Y-81272675D01*
X90406351Y-81068966D01*
X90406357Y-81068948D01*
X90406365Y-81068868D01*
X90466963Y-80873109D01*
X90564430Y-80692847D01*
X90695053Y-80534951D01*
X90853858Y-80405433D01*
X91034795Y-80309227D01*
X91230973Y-80249997D01*
X91434919Y-80230000D01*
X91445154Y-80230000D01*
X91455685Y-80230073D01*
X91455685Y-80230073D01*
G37*
G36*
X131635000Y-82250000D02*
X129985000Y-82250000D01*
X129985000Y-80350000D01*
X131635000Y-80350000D01*
X131635000Y-82250000D01*
X131635000Y-82250000D01*
G37*
G36*
X91455685Y-77690073D02*
X91455692Y-77690074D01*
X91459741Y-77690102D01*
X91663388Y-77712945D01*
X91858720Y-77774908D01*
X92038296Y-77873631D01*
X92195277Y-78005353D01*
X92323684Y-78165059D01*
X92418624Y-78346663D01*
X92476483Y-78543250D01*
X92476489Y-78543320D01*
X92476495Y-78543339D01*
X92495059Y-78747325D01*
X92473649Y-78951034D01*
X92473643Y-78951052D01*
X92473635Y-78951132D01*
X92413037Y-79146891D01*
X92315570Y-79327153D01*
X92184947Y-79485049D01*
X92026142Y-79614567D01*
X91845205Y-79710773D01*
X91649027Y-79770003D01*
X91445081Y-79790000D01*
X91434846Y-79790000D01*
X91424315Y-79789927D01*
X91424308Y-79789926D01*
X91420259Y-79789898D01*
X91216612Y-79767055D01*
X91021280Y-79705092D01*
X90841704Y-79606369D01*
X90684723Y-79474647D01*
X90556316Y-79314941D01*
X90461376Y-79133337D01*
X90403517Y-78936750D01*
X90403511Y-78936680D01*
X90403505Y-78936661D01*
X90384941Y-78732675D01*
X90406351Y-78528966D01*
X90406357Y-78528948D01*
X90406365Y-78528868D01*
X90466963Y-78333109D01*
X90564430Y-78152847D01*
X90695053Y-77994951D01*
X90853858Y-77865433D01*
X91034795Y-77769227D01*
X91230973Y-77709997D01*
X91434919Y-77690000D01*
X91445154Y-77690000D01*
X91455685Y-77690073D01*
X91455685Y-77690073D01*
G37*
G36*
X93995685Y-77690073D02*
X93995692Y-77690074D01*
X93999741Y-77690102D01*
X94203388Y-77712945D01*
X94398720Y-77774908D01*
X94578296Y-77873631D01*
X94735277Y-78005353D01*
X94863684Y-78165059D01*
X94958624Y-78346663D01*
X95016483Y-78543250D01*
X95016489Y-78543320D01*
X95016495Y-78543339D01*
X95035059Y-78747325D01*
X95013649Y-78951034D01*
X95013643Y-78951052D01*
X95013635Y-78951132D01*
X94953037Y-79146891D01*
X94855570Y-79327153D01*
X94724947Y-79485049D01*
X94566142Y-79614567D01*
X94385205Y-79710773D01*
X94189027Y-79770003D01*
X93985081Y-79790000D01*
X93974846Y-79790000D01*
X93964315Y-79789927D01*
X93964308Y-79789926D01*
X93960259Y-79789898D01*
X93756612Y-79767055D01*
X93561280Y-79705092D01*
X93381704Y-79606369D01*
X93224723Y-79474647D01*
X93096316Y-79314941D01*
X93001376Y-79133337D01*
X92943517Y-78936750D01*
X92943511Y-78936680D01*
X92943505Y-78936661D01*
X92924941Y-78732675D01*
X92946351Y-78528966D01*
X92946357Y-78528948D01*
X92946365Y-78528868D01*
X93006963Y-78333109D01*
X93104430Y-78152847D01*
X93235053Y-77994951D01*
X93393858Y-77865433D01*
X93574795Y-77769227D01*
X93770973Y-77709997D01*
X93974919Y-77690000D01*
X93985154Y-77690000D01*
X93995685Y-77690073D01*
X93995685Y-77690073D01*
G37*
G36*
X106260000Y-79737000D02*
X104560000Y-79737000D01*
X104560000Y-77837000D01*
X106260000Y-77837000D01*
X106260000Y-79737000D01*
X106260000Y-79737000D01*
G37*
G36*
X108927000Y-79737000D02*
X107227000Y-79737000D01*
X107227000Y-77837000D01*
X108927000Y-77837000D01*
X108927000Y-79737000D01*
X108927000Y-79737000D01*
G37*
G36*
X103720000Y-79737000D02*
X102020000Y-79737000D01*
X102020000Y-77837000D01*
X103720000Y-77837000D01*
X103720000Y-79737000D01*
X103720000Y-79737000D01*
G37*
G36*
X109431034Y-75166351D02*
X109431052Y-75166357D01*
X109431132Y-75166365D01*
X109626891Y-75226963D01*
X109807153Y-75324430D01*
X109965049Y-75455053D01*
X110094567Y-75613858D01*
X110190773Y-75794795D01*
X110250003Y-75990973D01*
X110270000Y-76194919D01*
X110270000Y-76205154D01*
X110269927Y-76215685D01*
X110269926Y-76215692D01*
X110269898Y-76219741D01*
X110247055Y-76423388D01*
X110185092Y-76618720D01*
X110086369Y-76798296D01*
X109954647Y-76955277D01*
X109794941Y-77083684D01*
X109613337Y-77178624D01*
X109416750Y-77236483D01*
X109416680Y-77236489D01*
X109416661Y-77236495D01*
X109212675Y-77255059D01*
X109008966Y-77233649D01*
X109008948Y-77233643D01*
X109008868Y-77233635D01*
X108813109Y-77173037D01*
X108632847Y-77075570D01*
X108474951Y-76944947D01*
X108345433Y-76786142D01*
X108249227Y-76605205D01*
X108189997Y-76409027D01*
X108170000Y-76205081D01*
X108170000Y-76194846D01*
X108170073Y-76184315D01*
X108170074Y-76184308D01*
X108170102Y-76180259D01*
X108192945Y-75976612D01*
X108254908Y-75781280D01*
X108353631Y-75601704D01*
X108485353Y-75444723D01*
X108645059Y-75316316D01*
X108826663Y-75221376D01*
X109023250Y-75163517D01*
X109023320Y-75163511D01*
X109023339Y-75163505D01*
X109227325Y-75144941D01*
X109431034Y-75166351D01*
X109431034Y-75166351D01*
G37*
G36*
X101811034Y-75166351D02*
X101811052Y-75166357D01*
X101811132Y-75166365D01*
X102006891Y-75226963D01*
X102187153Y-75324430D01*
X102345049Y-75455053D01*
X102474567Y-75613858D01*
X102570773Y-75794795D01*
X102630003Y-75990973D01*
X102650000Y-76194919D01*
X102650000Y-76205154D01*
X102649927Y-76215685D01*
X102649926Y-76215692D01*
X102649898Y-76219741D01*
X102627055Y-76423388D01*
X102565092Y-76618720D01*
X102466369Y-76798296D01*
X102334647Y-76955277D01*
X102174941Y-77083684D01*
X101993337Y-77178624D01*
X101796750Y-77236483D01*
X101796680Y-77236489D01*
X101796661Y-77236495D01*
X101592675Y-77255059D01*
X101388966Y-77233649D01*
X101388948Y-77233643D01*
X101388868Y-77233635D01*
X101193109Y-77173037D01*
X101012847Y-77075570D01*
X100854951Y-76944947D01*
X100725433Y-76786142D01*
X100629227Y-76605205D01*
X100569997Y-76409027D01*
X100550000Y-76205081D01*
X100550000Y-76194846D01*
X100550073Y-76184315D01*
X100550074Y-76184308D01*
X100550102Y-76180259D01*
X100572945Y-75976612D01*
X100634908Y-75781280D01*
X100733631Y-75601704D01*
X100865353Y-75444723D01*
X101025059Y-75316316D01*
X101206663Y-75221376D01*
X101403250Y-75163517D01*
X101403320Y-75163511D01*
X101403339Y-75163505D01*
X101607325Y-75144941D01*
X101811034Y-75166351D01*
X101811034Y-75166351D01*
G37*
G36*
X104351034Y-75166351D02*
X104351052Y-75166357D01*
X104351132Y-75166365D01*
X104546891Y-75226963D01*
X104727153Y-75324430D01*
X104885049Y-75455053D01*
X105014567Y-75613858D01*
X105110773Y-75794795D01*
X105170003Y-75990973D01*
X105190000Y-76194919D01*
X105190000Y-76205154D01*
X105189927Y-76215685D01*
X105189926Y-76215692D01*
X105189898Y-76219741D01*
X105167055Y-76423388D01*
X105105092Y-76618720D01*
X105006369Y-76798296D01*
X104874647Y-76955277D01*
X104714941Y-77083684D01*
X104533337Y-77178624D01*
X104336750Y-77236483D01*
X104336680Y-77236489D01*
X104336661Y-77236495D01*
X104132675Y-77255059D01*
X103928966Y-77233649D01*
X103928948Y-77233643D01*
X103928868Y-77233635D01*
X103733109Y-77173037D01*
X103552847Y-77075570D01*
X103394951Y-76944947D01*
X103265433Y-76786142D01*
X103169227Y-76605205D01*
X103109997Y-76409027D01*
X103090000Y-76205081D01*
X103090000Y-76194846D01*
X103090073Y-76184315D01*
X103090074Y-76184308D01*
X103090102Y-76180259D01*
X103112945Y-75976612D01*
X103174908Y-75781280D01*
X103273631Y-75601704D01*
X103405353Y-75444723D01*
X103565059Y-75316316D01*
X103746663Y-75221376D01*
X103943250Y-75163517D01*
X103943320Y-75163511D01*
X103943339Y-75163505D01*
X104147325Y-75144941D01*
X104351034Y-75166351D01*
X104351034Y-75166351D01*
G37*
G36*
X111971034Y-75166351D02*
X111971052Y-75166357D01*
X111971132Y-75166365D01*
X112166891Y-75226963D01*
X112347153Y-75324430D01*
X112505049Y-75455053D01*
X112634567Y-75613858D01*
X112730773Y-75794795D01*
X112790003Y-75990973D01*
X112810000Y-76194919D01*
X112810000Y-76205154D01*
X112809927Y-76215685D01*
X112809926Y-76215692D01*
X112809898Y-76219741D01*
X112787055Y-76423388D01*
X112725092Y-76618720D01*
X112626369Y-76798296D01*
X112494647Y-76955277D01*
X112334941Y-77083684D01*
X112153337Y-77178624D01*
X111956750Y-77236483D01*
X111956680Y-77236489D01*
X111956661Y-77236495D01*
X111752675Y-77255059D01*
X111548966Y-77233649D01*
X111548948Y-77233643D01*
X111548868Y-77233635D01*
X111353109Y-77173037D01*
X111172847Y-77075570D01*
X111014951Y-76944947D01*
X110885433Y-76786142D01*
X110789227Y-76605205D01*
X110729997Y-76409027D01*
X110710000Y-76205081D01*
X110710000Y-76194846D01*
X110710073Y-76184315D01*
X110710074Y-76184308D01*
X110710102Y-76180259D01*
X110732945Y-75976612D01*
X110794908Y-75781280D01*
X110893631Y-75601704D01*
X111025353Y-75444723D01*
X111185059Y-75316316D01*
X111366663Y-75221376D01*
X111563250Y-75163517D01*
X111563320Y-75163511D01*
X111563339Y-75163505D01*
X111767325Y-75144941D01*
X111971034Y-75166351D01*
X111971034Y-75166351D01*
G37*
G36*
X106891034Y-75166351D02*
X106891052Y-75166357D01*
X106891132Y-75166365D01*
X107086891Y-75226963D01*
X107267153Y-75324430D01*
X107425049Y-75455053D01*
X107554567Y-75613858D01*
X107650773Y-75794795D01*
X107710003Y-75990973D01*
X107730000Y-76194919D01*
X107730000Y-76205154D01*
X107729927Y-76215685D01*
X107729926Y-76215692D01*
X107729898Y-76219741D01*
X107707055Y-76423388D01*
X107645092Y-76618720D01*
X107546369Y-76798296D01*
X107414647Y-76955277D01*
X107254941Y-77083684D01*
X107073337Y-77178624D01*
X106876750Y-77236483D01*
X106876680Y-77236489D01*
X106876661Y-77236495D01*
X106672675Y-77255059D01*
X106468966Y-77233649D01*
X106468948Y-77233643D01*
X106468868Y-77233635D01*
X106273109Y-77173037D01*
X106092847Y-77075570D01*
X105934951Y-76944947D01*
X105805433Y-76786142D01*
X105709227Y-76605205D01*
X105649997Y-76409027D01*
X105630000Y-76205081D01*
X105630000Y-76194846D01*
X105630073Y-76184315D01*
X105630074Y-76184308D01*
X105630102Y-76180259D01*
X105652945Y-75976612D01*
X105714908Y-75781280D01*
X105813631Y-75601704D01*
X105945353Y-75444723D01*
X106105059Y-75316316D01*
X106286663Y-75221376D01*
X106483250Y-75163517D01*
X106483320Y-75163511D01*
X106483339Y-75163505D01*
X106687325Y-75144941D01*
X106891034Y-75166351D01*
X106891034Y-75166351D01*
G37*
G36*
X91455685Y-75150073D02*
X91455692Y-75150074D01*
X91459741Y-75150102D01*
X91663388Y-75172945D01*
X91858720Y-75234908D01*
X92038296Y-75333631D01*
X92195277Y-75465353D01*
X92323684Y-75625059D01*
X92418624Y-75806663D01*
X92476483Y-76003250D01*
X92476489Y-76003320D01*
X92476495Y-76003339D01*
X92495059Y-76207325D01*
X92473649Y-76411034D01*
X92473643Y-76411052D01*
X92473635Y-76411132D01*
X92413037Y-76606891D01*
X92315570Y-76787153D01*
X92184947Y-76945049D01*
X92026142Y-77074567D01*
X91845205Y-77170773D01*
X91649027Y-77230003D01*
X91445081Y-77250000D01*
X91434846Y-77250000D01*
X91424315Y-77249927D01*
X91424308Y-77249926D01*
X91420259Y-77249898D01*
X91216612Y-77227055D01*
X91021280Y-77165092D01*
X90841704Y-77066369D01*
X90684723Y-76934647D01*
X90556316Y-76774941D01*
X90461376Y-76593337D01*
X90403517Y-76396750D01*
X90403511Y-76396680D01*
X90403505Y-76396661D01*
X90384941Y-76192675D01*
X90406351Y-75988966D01*
X90406357Y-75988948D01*
X90406365Y-75988868D01*
X90466963Y-75793109D01*
X90564430Y-75612847D01*
X90695053Y-75454951D01*
X90853858Y-75325433D01*
X91034795Y-75229227D01*
X91230973Y-75169997D01*
X91434919Y-75150000D01*
X91445154Y-75150000D01*
X91455685Y-75150073D01*
X91455685Y-75150073D01*
G37*
G36*
X93995685Y-75150073D02*
X93995692Y-75150074D01*
X93999741Y-75150102D01*
X94203388Y-75172945D01*
X94398720Y-75234908D01*
X94578296Y-75333631D01*
X94735277Y-75465353D01*
X94863684Y-75625059D01*
X94958624Y-75806663D01*
X95016483Y-76003250D01*
X95016489Y-76003320D01*
X95016495Y-76003339D01*
X95035059Y-76207325D01*
X95013649Y-76411034D01*
X95013643Y-76411052D01*
X95013635Y-76411132D01*
X94953037Y-76606891D01*
X94855570Y-76787153D01*
X94724947Y-76945049D01*
X94566142Y-77074567D01*
X94385205Y-77170773D01*
X94189027Y-77230003D01*
X93985081Y-77250000D01*
X93974846Y-77250000D01*
X93964315Y-77249927D01*
X93964308Y-77249926D01*
X93960259Y-77249898D01*
X93756612Y-77227055D01*
X93561280Y-77165092D01*
X93381704Y-77066369D01*
X93224723Y-76934647D01*
X93096316Y-76774941D01*
X93001376Y-76593337D01*
X92943517Y-76396750D01*
X92943511Y-76396680D01*
X92943505Y-76396661D01*
X92924941Y-76192675D01*
X92946351Y-75988966D01*
X92946357Y-75988948D01*
X92946365Y-75988868D01*
X93006963Y-75793109D01*
X93104430Y-75612847D01*
X93235053Y-75454951D01*
X93393858Y-75325433D01*
X93574795Y-75229227D01*
X93770973Y-75169997D01*
X93974919Y-75150000D01*
X93985154Y-75150000D01*
X93995685Y-75150073D01*
X93995685Y-75150073D01*
G37*
G36*
X116420000Y-77230000D02*
X114720000Y-77230000D01*
X114720000Y-75330000D01*
X116420000Y-75330000D01*
X116420000Y-77230000D01*
X116420000Y-77230000D01*
G37*
G36*
X104351034Y-72626351D02*
X104351052Y-72626357D01*
X104351132Y-72626365D01*
X104546891Y-72686963D01*
X104727153Y-72784430D01*
X104885049Y-72915053D01*
X105014567Y-73073858D01*
X105110773Y-73254795D01*
X105170003Y-73450973D01*
X105190000Y-73654919D01*
X105190000Y-73665154D01*
X105189927Y-73675685D01*
X105189926Y-73675692D01*
X105189898Y-73679741D01*
X105167055Y-73883388D01*
X105105092Y-74078720D01*
X105006369Y-74258296D01*
X104874647Y-74415277D01*
X104714941Y-74543684D01*
X104533337Y-74638624D01*
X104336750Y-74696483D01*
X104336680Y-74696489D01*
X104336661Y-74696495D01*
X104132675Y-74715059D01*
X103928966Y-74693649D01*
X103928948Y-74693643D01*
X103928868Y-74693635D01*
X103733109Y-74633037D01*
X103552847Y-74535570D01*
X103394951Y-74404947D01*
X103265433Y-74246142D01*
X103169227Y-74065205D01*
X103109997Y-73869027D01*
X103090000Y-73665081D01*
X103090000Y-73654846D01*
X103090073Y-73644315D01*
X103090074Y-73644308D01*
X103090102Y-73640259D01*
X103112945Y-73436612D01*
X103174908Y-73241280D01*
X103273631Y-73061704D01*
X103405353Y-72904723D01*
X103565059Y-72776316D01*
X103746663Y-72681376D01*
X103943250Y-72623517D01*
X103943320Y-72623511D01*
X103943339Y-72623505D01*
X104147325Y-72604941D01*
X104351034Y-72626351D01*
X104351034Y-72626351D01*
G37*
G36*
X109431034Y-72626351D02*
X109431052Y-72626357D01*
X109431132Y-72626365D01*
X109626891Y-72686963D01*
X109807153Y-72784430D01*
X109965049Y-72915053D01*
X110094567Y-73073858D01*
X110190773Y-73254795D01*
X110250003Y-73450973D01*
X110270000Y-73654919D01*
X110270000Y-73665154D01*
X110269927Y-73675685D01*
X110269926Y-73675692D01*
X110269898Y-73679741D01*
X110247055Y-73883388D01*
X110185092Y-74078720D01*
X110086369Y-74258296D01*
X109954647Y-74415277D01*
X109794941Y-74543684D01*
X109613337Y-74638624D01*
X109416750Y-74696483D01*
X109416680Y-74696489D01*
X109416661Y-74696495D01*
X109212675Y-74715059D01*
X109008966Y-74693649D01*
X109008948Y-74693643D01*
X109008868Y-74693635D01*
X108813109Y-74633037D01*
X108632847Y-74535570D01*
X108474951Y-74404947D01*
X108345433Y-74246142D01*
X108249227Y-74065205D01*
X108189997Y-73869027D01*
X108170000Y-73665081D01*
X108170000Y-73654846D01*
X108170073Y-73644315D01*
X108170074Y-73644308D01*
X108170102Y-73640259D01*
X108192945Y-73436612D01*
X108254908Y-73241280D01*
X108353631Y-73061704D01*
X108485353Y-72904723D01*
X108645059Y-72776316D01*
X108826663Y-72681376D01*
X109023250Y-72623517D01*
X109023320Y-72623511D01*
X109023339Y-72623505D01*
X109227325Y-72604941D01*
X109431034Y-72626351D01*
X109431034Y-72626351D01*
G37*
G36*
X101811034Y-72626351D02*
X101811052Y-72626357D01*
X101811132Y-72626365D01*
X102006891Y-72686963D01*
X102187153Y-72784430D01*
X102345049Y-72915053D01*
X102474567Y-73073858D01*
X102570773Y-73254795D01*
X102630003Y-73450973D01*
X102650000Y-73654919D01*
X102650000Y-73665154D01*
X102649927Y-73675685D01*
X102649926Y-73675692D01*
X102649898Y-73679741D01*
X102627055Y-73883388D01*
X102565092Y-74078720D01*
X102466369Y-74258296D01*
X102334647Y-74415277D01*
X102174941Y-74543684D01*
X101993337Y-74638624D01*
X101796750Y-74696483D01*
X101796680Y-74696489D01*
X101796661Y-74696495D01*
X101592675Y-74715059D01*
X101388966Y-74693649D01*
X101388948Y-74693643D01*
X101388868Y-74693635D01*
X101193109Y-74633037D01*
X101012847Y-74535570D01*
X100854951Y-74404947D01*
X100725433Y-74246142D01*
X100629227Y-74065205D01*
X100569997Y-73869027D01*
X100550000Y-73665081D01*
X100550000Y-73654846D01*
X100550073Y-73644315D01*
X100550074Y-73644308D01*
X100550102Y-73640259D01*
X100572945Y-73436612D01*
X100634908Y-73241280D01*
X100733631Y-73061704D01*
X100865353Y-72904723D01*
X101025059Y-72776316D01*
X101206663Y-72681376D01*
X101403250Y-72623517D01*
X101403320Y-72623511D01*
X101403339Y-72623505D01*
X101607325Y-72604941D01*
X101811034Y-72626351D01*
X101811034Y-72626351D01*
G37*
G36*
X106891034Y-72626351D02*
X106891052Y-72626357D01*
X106891132Y-72626365D01*
X107086891Y-72686963D01*
X107267153Y-72784430D01*
X107425049Y-72915053D01*
X107554567Y-73073858D01*
X107650773Y-73254795D01*
X107710003Y-73450973D01*
X107730000Y-73654919D01*
X107730000Y-73665154D01*
X107729927Y-73675685D01*
X107729926Y-73675692D01*
X107729898Y-73679741D01*
X107707055Y-73883388D01*
X107645092Y-74078720D01*
X107546369Y-74258296D01*
X107414647Y-74415277D01*
X107254941Y-74543684D01*
X107073337Y-74638624D01*
X106876750Y-74696483D01*
X106876680Y-74696489D01*
X106876661Y-74696495D01*
X106672675Y-74715059D01*
X106468966Y-74693649D01*
X106468948Y-74693643D01*
X106468868Y-74693635D01*
X106273109Y-74633037D01*
X106092847Y-74535570D01*
X105934951Y-74404947D01*
X105805433Y-74246142D01*
X105709227Y-74065205D01*
X105649997Y-73869027D01*
X105630000Y-73665081D01*
X105630000Y-73654846D01*
X105630073Y-73644315D01*
X105630074Y-73644308D01*
X105630102Y-73640259D01*
X105652945Y-73436612D01*
X105714908Y-73241280D01*
X105813631Y-73061704D01*
X105945353Y-72904723D01*
X106105059Y-72776316D01*
X106286663Y-72681376D01*
X106483250Y-72623517D01*
X106483320Y-72623511D01*
X106483339Y-72623505D01*
X106687325Y-72604941D01*
X106891034Y-72626351D01*
X106891034Y-72626351D01*
G37*
G36*
X112810000Y-74710000D02*
X110710000Y-74710000D01*
X110710000Y-72610000D01*
X112810000Y-72610000D01*
X112810000Y-74710000D01*
X112810000Y-74710000D01*
G37*
G36*
X93995685Y-72610073D02*
X93995692Y-72610074D01*
X93999741Y-72610102D01*
X94203388Y-72632945D01*
X94398720Y-72694908D01*
X94578296Y-72793631D01*
X94735277Y-72925353D01*
X94863684Y-73085059D01*
X94958624Y-73266663D01*
X95016483Y-73463250D01*
X95016489Y-73463320D01*
X95016495Y-73463339D01*
X95035059Y-73667325D01*
X95013649Y-73871034D01*
X95013643Y-73871052D01*
X95013635Y-73871132D01*
X94953037Y-74066891D01*
X94855570Y-74247153D01*
X94724947Y-74405049D01*
X94566142Y-74534567D01*
X94385205Y-74630773D01*
X94189027Y-74690003D01*
X93985081Y-74710000D01*
X93974846Y-74710000D01*
X93964315Y-74709927D01*
X93964308Y-74709926D01*
X93960259Y-74709898D01*
X93756612Y-74687055D01*
X93561280Y-74625092D01*
X93381704Y-74526369D01*
X93224723Y-74394647D01*
X93096316Y-74234941D01*
X93001376Y-74053337D01*
X92943517Y-73856750D01*
X92943511Y-73856680D01*
X92943505Y-73856661D01*
X92924941Y-73652675D01*
X92946351Y-73448966D01*
X92946357Y-73448948D01*
X92946365Y-73448868D01*
X93006963Y-73253109D01*
X93104430Y-73072847D01*
X93235053Y-72914951D01*
X93393858Y-72785433D01*
X93574795Y-72689227D01*
X93770973Y-72629997D01*
X93974919Y-72610000D01*
X93985154Y-72610000D01*
X93995685Y-72610073D01*
X93995685Y-72610073D01*
G37*
G36*
X91455685Y-72610073D02*
X91455692Y-72610074D01*
X91459741Y-72610102D01*
X91663388Y-72632945D01*
X91858720Y-72694908D01*
X92038296Y-72793631D01*
X92195277Y-72925353D01*
X92323684Y-73085059D01*
X92418624Y-73266663D01*
X92476483Y-73463250D01*
X92476489Y-73463320D01*
X92476495Y-73463339D01*
X92495059Y-73667325D01*
X92473649Y-73871034D01*
X92473643Y-73871052D01*
X92473635Y-73871132D01*
X92413037Y-74066891D01*
X92315570Y-74247153D01*
X92184947Y-74405049D01*
X92026142Y-74534567D01*
X91845205Y-74630773D01*
X91649027Y-74690003D01*
X91445081Y-74710000D01*
X91434846Y-74710000D01*
X91424315Y-74709927D01*
X91424308Y-74709926D01*
X91420259Y-74709898D01*
X91216612Y-74687055D01*
X91021280Y-74625092D01*
X90841704Y-74526369D01*
X90684723Y-74394647D01*
X90556316Y-74234941D01*
X90461376Y-74053337D01*
X90403517Y-73856750D01*
X90403511Y-73856680D01*
X90403505Y-73856661D01*
X90384941Y-73652675D01*
X90406351Y-73448966D01*
X90406357Y-73448948D01*
X90406365Y-73448868D01*
X90466963Y-73253109D01*
X90564430Y-73072847D01*
X90695053Y-72914951D01*
X90853858Y-72785433D01*
X91034795Y-72689227D01*
X91230973Y-72629997D01*
X91434919Y-72610000D01*
X91445154Y-72610000D01*
X91455685Y-72610073D01*
X91455685Y-72610073D01*
G37*
G36*
X116420000Y-74530000D02*
X114720000Y-74530000D01*
X114720000Y-72630000D01*
X116420000Y-72630000D01*
X116420000Y-74530000D01*
X116420000Y-74530000D01*
G37*
G36*
X148586041Y-71420796D02*
X148816570Y-71468116D01*
X149033512Y-71559310D01*
X149228615Y-71690908D01*
X149394436Y-71857891D01*
X149524666Y-72053904D01*
X149614347Y-72271486D01*
X149659919Y-72501641D01*
X149659919Y-72501666D01*
X149660051Y-72502334D01*
X149656298Y-72771128D01*
X149656147Y-72771791D01*
X149656147Y-72771815D01*
X149604164Y-73000612D01*
X149508445Y-73215603D01*
X149372794Y-73407900D01*
X149202372Y-73570191D01*
X149003669Y-73696291D01*
X148784270Y-73781391D01*
X148552507Y-73822257D01*
X148317226Y-73817328D01*
X148087385Y-73766795D01*
X147871734Y-73672579D01*
X147678491Y-73538272D01*
X147515015Y-73368987D01*
X147387533Y-73171173D01*
X147300899Y-72952363D01*
X147258418Y-72720900D01*
X147261704Y-72485592D01*
X147310633Y-72255400D01*
X147403341Y-72039094D01*
X147536296Y-71844919D01*
X147704433Y-71680268D01*
X147901354Y-71551406D01*
X148119547Y-71463250D01*
X148350714Y-71419152D01*
X148586041Y-71420796D01*
X148586041Y-71420796D01*
G37*
G36*
X135445000Y-73320000D02*
X133795000Y-73320000D01*
X133795000Y-71420000D01*
X135445000Y-71420000D01*
X135445000Y-73320000D01*
X135445000Y-73320000D01*
G37*
G36*
X130365000Y-73320000D02*
X128715000Y-73320000D01*
X128715000Y-71420000D01*
X130365000Y-71420000D01*
X130365000Y-73320000D01*
X130365000Y-73320000D01*
G37*
G36*
X132905000Y-73320000D02*
X131255000Y-73320000D01*
X131255000Y-71420000D01*
X132905000Y-71420000D01*
X132905000Y-73320000D01*
X132905000Y-73320000D01*
G37*
G36*
X137985000Y-73320000D02*
X136335000Y-73320000D01*
X136335000Y-71420000D01*
X137985000Y-71420000D01*
X137985000Y-73320000D01*
X137985000Y-73320000D01*
G37*
G36*
X143636041Y-70820796D02*
X143866570Y-70868116D01*
X144083512Y-70959310D01*
X144278615Y-71090908D01*
X144444436Y-71257891D01*
X144574666Y-71453904D01*
X144664347Y-71671486D01*
X144709919Y-71901641D01*
X144709919Y-71901666D01*
X144710051Y-71902334D01*
X144706298Y-72171128D01*
X144706147Y-72171791D01*
X144706147Y-72171815D01*
X144654164Y-72400612D01*
X144558445Y-72615603D01*
X144422794Y-72807900D01*
X144252372Y-72970191D01*
X144053669Y-73096291D01*
X143834270Y-73181391D01*
X143602507Y-73222257D01*
X143367226Y-73217328D01*
X143137385Y-73166795D01*
X142921734Y-73072579D01*
X142728491Y-72938272D01*
X142565015Y-72768987D01*
X142437533Y-72571173D01*
X142350899Y-72352363D01*
X142308418Y-72120900D01*
X142311704Y-71885592D01*
X142360633Y-71655400D01*
X142453341Y-71439094D01*
X142586296Y-71244919D01*
X142754433Y-71080268D01*
X142951354Y-70951406D01*
X143169547Y-70863250D01*
X143400714Y-70819152D01*
X143636041Y-70820796D01*
X143636041Y-70820796D01*
G37*
G36*
X93995685Y-70070073D02*
X93995692Y-70070074D01*
X93999741Y-70070102D01*
X94203388Y-70092945D01*
X94398720Y-70154908D01*
X94578296Y-70253631D01*
X94735277Y-70385353D01*
X94863684Y-70545059D01*
X94958624Y-70726663D01*
X95016483Y-70923250D01*
X95016489Y-70923320D01*
X95016495Y-70923339D01*
X95035059Y-71127325D01*
X95013649Y-71331034D01*
X95013643Y-71331052D01*
X95013635Y-71331132D01*
X94953037Y-71526891D01*
X94855570Y-71707153D01*
X94724947Y-71865049D01*
X94566142Y-71994567D01*
X94385205Y-72090773D01*
X94189027Y-72150003D01*
X93985081Y-72170000D01*
X93974846Y-72170000D01*
X93964315Y-72169927D01*
X93964308Y-72169926D01*
X93960259Y-72169898D01*
X93756612Y-72147055D01*
X93561280Y-72085092D01*
X93381704Y-71986369D01*
X93224723Y-71854647D01*
X93096316Y-71694941D01*
X93001376Y-71513337D01*
X92943517Y-71316750D01*
X92943511Y-71316680D01*
X92943505Y-71316661D01*
X92924941Y-71112675D01*
X92946351Y-70908966D01*
X92946357Y-70908948D01*
X92946365Y-70908868D01*
X93006963Y-70713109D01*
X93104430Y-70532847D01*
X93235053Y-70374951D01*
X93393858Y-70245433D01*
X93574795Y-70149227D01*
X93770973Y-70089997D01*
X93974919Y-70070000D01*
X93985154Y-70070000D01*
X93995685Y-70070073D01*
X93995685Y-70070073D01*
G37*
G36*
X91455685Y-70070073D02*
X91455692Y-70070074D01*
X91459741Y-70070102D01*
X91663388Y-70092945D01*
X91858720Y-70154908D01*
X92038296Y-70253631D01*
X92195277Y-70385353D01*
X92323684Y-70545059D01*
X92418624Y-70726663D01*
X92476483Y-70923250D01*
X92476489Y-70923320D01*
X92476495Y-70923339D01*
X92495059Y-71127325D01*
X92473649Y-71331034D01*
X92473643Y-71331052D01*
X92473635Y-71331132D01*
X92413037Y-71526891D01*
X92315570Y-71707153D01*
X92184947Y-71865049D01*
X92026142Y-71994567D01*
X91845205Y-72090773D01*
X91649027Y-72150003D01*
X91445081Y-72170000D01*
X91434846Y-72170000D01*
X91424315Y-72169927D01*
X91424308Y-72169926D01*
X91420259Y-72169898D01*
X91216612Y-72147055D01*
X91021280Y-72085092D01*
X90841704Y-71986369D01*
X90684723Y-71854647D01*
X90556316Y-71694941D01*
X90461376Y-71513337D01*
X90403517Y-71316750D01*
X90403511Y-71316680D01*
X90403505Y-71316661D01*
X90384941Y-71112675D01*
X90406351Y-70908966D01*
X90406357Y-70908948D01*
X90406365Y-70908868D01*
X90466963Y-70713109D01*
X90564430Y-70532847D01*
X90695053Y-70374951D01*
X90853858Y-70245433D01*
X91034795Y-70149227D01*
X91230973Y-70089997D01*
X91434919Y-70070000D01*
X91445154Y-70070000D01*
X91455685Y-70070073D01*
X91455685Y-70070073D01*
G37*
G36*
X130365000Y-70820000D02*
X128715000Y-70820000D01*
X128715000Y-68920000D01*
X130365000Y-68920000D01*
X130365000Y-70820000D01*
X130365000Y-70820000D01*
G37*
G36*
X135445000Y-70820000D02*
X133795000Y-70820000D01*
X133795000Y-68920000D01*
X135445000Y-68920000D01*
X135445000Y-70820000D01*
X135445000Y-70820000D01*
G37*
G36*
X132905000Y-70820000D02*
X131255000Y-70820000D01*
X131255000Y-68920000D01*
X132905000Y-68920000D01*
X132905000Y-70820000D01*
X132905000Y-70820000D01*
G37*
G36*
X137985000Y-70820000D02*
X136335000Y-70820000D01*
X136335000Y-68920000D01*
X137985000Y-68920000D01*
X137985000Y-70820000D01*
X137985000Y-70820000D01*
G37*
G36*
X117034000Y-69822000D02*
X115884000Y-69822000D01*
X115884000Y-68222000D01*
X117034000Y-68222000D01*
X117034000Y-69822000D01*
X117034000Y-69822000D01*
G37*
G36*
X119066000Y-69822000D02*
X117916000Y-69822000D01*
X117916000Y-68222000D01*
X119066000Y-68222000D01*
X119066000Y-69822000D01*
X119066000Y-69822000D01*
G37*
G36*
X113986000Y-69822000D02*
X112836000Y-69822000D01*
X112836000Y-68222000D01*
X113986000Y-68222000D01*
X113986000Y-69822000D01*
X113986000Y-69822000D01*
G37*
G36*
X107001000Y-69822000D02*
X105851000Y-69822000D01*
X105851000Y-68222000D01*
X107001000Y-68222000D01*
X107001000Y-69822000D01*
X107001000Y-69822000D01*
G37*
G36*
X91455685Y-67530073D02*
X91455692Y-67530074D01*
X91459741Y-67530102D01*
X91663388Y-67552945D01*
X91858720Y-67614908D01*
X92038296Y-67713631D01*
X92195277Y-67845353D01*
X92323684Y-68005059D01*
X92418624Y-68186663D01*
X92476483Y-68383250D01*
X92476489Y-68383320D01*
X92476495Y-68383339D01*
X92495059Y-68587325D01*
X92473649Y-68791034D01*
X92473643Y-68791052D01*
X92473635Y-68791132D01*
X92413037Y-68986891D01*
X92315570Y-69167153D01*
X92184947Y-69325049D01*
X92026142Y-69454567D01*
X91845205Y-69550773D01*
X91649027Y-69610003D01*
X91445081Y-69630000D01*
X91434846Y-69630000D01*
X91424315Y-69629927D01*
X91424308Y-69629926D01*
X91420259Y-69629898D01*
X91216612Y-69607055D01*
X91021280Y-69545092D01*
X90841704Y-69446369D01*
X90684723Y-69314647D01*
X90556316Y-69154941D01*
X90461376Y-68973337D01*
X90403517Y-68776750D01*
X90403511Y-68776680D01*
X90403505Y-68776661D01*
X90384941Y-68572675D01*
X90406351Y-68368966D01*
X90406357Y-68368948D01*
X90406365Y-68368868D01*
X90466963Y-68173109D01*
X90564430Y-67992847D01*
X90695053Y-67834951D01*
X90853858Y-67705433D01*
X91034795Y-67609227D01*
X91230973Y-67549997D01*
X91434919Y-67530000D01*
X91445154Y-67530000D01*
X91455685Y-67530073D01*
X91455685Y-67530073D01*
G37*
G36*
X93995685Y-67530073D02*
X93995692Y-67530074D01*
X93999741Y-67530102D01*
X94203388Y-67552945D01*
X94398720Y-67614908D01*
X94578296Y-67713631D01*
X94735277Y-67845353D01*
X94863684Y-68005059D01*
X94958624Y-68186663D01*
X95016483Y-68383250D01*
X95016489Y-68383320D01*
X95016495Y-68383339D01*
X95035059Y-68587325D01*
X95013649Y-68791034D01*
X95013643Y-68791052D01*
X95013635Y-68791132D01*
X94953037Y-68986891D01*
X94855570Y-69167153D01*
X94724947Y-69325049D01*
X94566142Y-69454567D01*
X94385205Y-69550773D01*
X94189027Y-69610003D01*
X93985081Y-69630000D01*
X93974846Y-69630000D01*
X93964315Y-69629927D01*
X93964308Y-69629926D01*
X93960259Y-69629898D01*
X93756612Y-69607055D01*
X93561280Y-69545092D01*
X93381704Y-69446369D01*
X93224723Y-69314647D01*
X93096316Y-69154941D01*
X93001376Y-68973337D01*
X92943517Y-68776750D01*
X92943511Y-68776680D01*
X92943505Y-68776661D01*
X92924941Y-68572675D01*
X92946351Y-68368966D01*
X92946357Y-68368948D01*
X92946365Y-68368868D01*
X93006963Y-68173109D01*
X93104430Y-67992847D01*
X93235053Y-67834951D01*
X93393858Y-67705433D01*
X93574795Y-67609227D01*
X93770973Y-67549997D01*
X93974919Y-67530000D01*
X93985154Y-67530000D01*
X93995685Y-67530073D01*
X93995685Y-67530073D01*
G37*
G36*
X101159000Y-69060000D02*
X100009000Y-69060000D01*
X100009000Y-67460000D01*
X101159000Y-67460000D01*
X101159000Y-69060000D01*
X101159000Y-69060000D01*
G37*
G36*
X104588000Y-68806000D02*
X103438000Y-68806000D01*
X103438000Y-67206000D01*
X104588000Y-67206000D01*
X104588000Y-68806000D01*
X104588000Y-68806000D01*
G37*
G36*
X134052000Y-68044000D02*
X132902000Y-68044000D01*
X132902000Y-66444000D01*
X134052000Y-66444000D01*
X134052000Y-68044000D01*
X134052000Y-68044000D01*
G37*
G36*
X117034000Y-67922000D02*
X115884000Y-67922000D01*
X115884000Y-66322000D01*
X117034000Y-66322000D01*
X117034000Y-67922000D01*
X117034000Y-67922000D01*
G37*
G36*
X113986000Y-67922000D02*
X112836000Y-67922000D01*
X112836000Y-66322000D01*
X113986000Y-66322000D01*
X113986000Y-67922000D01*
X113986000Y-67922000D01*
G37*
G36*
X107001000Y-67922000D02*
X105851000Y-67922000D01*
X105851000Y-66322000D01*
X107001000Y-66322000D01*
X107001000Y-67922000D01*
X107001000Y-67922000D01*
G37*
G36*
X119066000Y-67922000D02*
X117916000Y-67922000D01*
X117916000Y-66322000D01*
X119066000Y-66322000D01*
X119066000Y-67922000D01*
X119066000Y-67922000D01*
G37*
G36*
X127321000Y-67282000D02*
X126171000Y-67282000D01*
X126171000Y-65682000D01*
X127321000Y-65682000D01*
X127321000Y-67282000D01*
X127321000Y-67282000D01*
G37*
G36*
X101159000Y-67160000D02*
X100009000Y-67160000D01*
X100009000Y-65560000D01*
X101159000Y-65560000D01*
X101159000Y-67160000D01*
X101159000Y-67160000D01*
G37*
G36*
X130787000Y-67123000D02*
X129187000Y-67123000D01*
X129187000Y-65973000D01*
X130787000Y-65973000D01*
X130787000Y-67123000D01*
X130787000Y-67123000D01*
G37*
G36*
X132687000Y-67123000D02*
X131087000Y-67123000D01*
X131087000Y-65973000D01*
X132687000Y-65973000D01*
X132687000Y-67123000D01*
X132687000Y-67123000D01*
G37*
G36*
X93995685Y-64990073D02*
X93995692Y-64990074D01*
X93999741Y-64990102D01*
X94203388Y-65012945D01*
X94398720Y-65074908D01*
X94578296Y-65173631D01*
X94735277Y-65305353D01*
X94863684Y-65465059D01*
X94958624Y-65646663D01*
X95016483Y-65843250D01*
X95016489Y-65843320D01*
X95016495Y-65843339D01*
X95035059Y-66047325D01*
X95013649Y-66251034D01*
X95013643Y-66251052D01*
X95013635Y-66251132D01*
X94953037Y-66446891D01*
X94855570Y-66627153D01*
X94724947Y-66785049D01*
X94566142Y-66914567D01*
X94385205Y-67010773D01*
X94189027Y-67070003D01*
X93985081Y-67090000D01*
X93974846Y-67090000D01*
X93964315Y-67089927D01*
X93964308Y-67089926D01*
X93960259Y-67089898D01*
X93756612Y-67067055D01*
X93561280Y-67005092D01*
X93381704Y-66906369D01*
X93224723Y-66774647D01*
X93096316Y-66614941D01*
X93001376Y-66433337D01*
X92943517Y-66236750D01*
X92943511Y-66236680D01*
X92943505Y-66236661D01*
X92924941Y-66032675D01*
X92946351Y-65828966D01*
X92946357Y-65828948D01*
X92946365Y-65828868D01*
X93006963Y-65633109D01*
X93104430Y-65452847D01*
X93235053Y-65294951D01*
X93393858Y-65165433D01*
X93574795Y-65069227D01*
X93770973Y-65009997D01*
X93974919Y-64990000D01*
X93985154Y-64990000D01*
X93995685Y-64990073D01*
X93995685Y-64990073D01*
G37*
G36*
X91455685Y-64990073D02*
X91455692Y-64990074D01*
X91459741Y-64990102D01*
X91663388Y-65012945D01*
X91858720Y-65074908D01*
X92038296Y-65173631D01*
X92195277Y-65305353D01*
X92323684Y-65465059D01*
X92418624Y-65646663D01*
X92476483Y-65843250D01*
X92476489Y-65843320D01*
X92476495Y-65843339D01*
X92495059Y-66047325D01*
X92473649Y-66251034D01*
X92473643Y-66251052D01*
X92473635Y-66251132D01*
X92413037Y-66446891D01*
X92315570Y-66627153D01*
X92184947Y-66785049D01*
X92026142Y-66914567D01*
X91845205Y-67010773D01*
X91649027Y-67070003D01*
X91445081Y-67090000D01*
X91434846Y-67090000D01*
X91424315Y-67089927D01*
X91424308Y-67089926D01*
X91420259Y-67089898D01*
X91216612Y-67067055D01*
X91021280Y-67005092D01*
X90841704Y-66906369D01*
X90684723Y-66774647D01*
X90556316Y-66614941D01*
X90461376Y-66433337D01*
X90403517Y-66236750D01*
X90403511Y-66236680D01*
X90403505Y-66236661D01*
X90384941Y-66032675D01*
X90406351Y-65828966D01*
X90406357Y-65828948D01*
X90406365Y-65828868D01*
X90466963Y-65633109D01*
X90564430Y-65452847D01*
X90695053Y-65294951D01*
X90853858Y-65165433D01*
X91034795Y-65069227D01*
X91230973Y-65009997D01*
X91434919Y-64990000D01*
X91445154Y-64990000D01*
X91455685Y-64990073D01*
X91455685Y-64990073D01*
G37*
G36*
X104588000Y-66906000D02*
X103438000Y-66906000D01*
X103438000Y-65306000D01*
X104588000Y-65306000D01*
X104588000Y-66906000D01*
X104588000Y-66906000D01*
G37*
G36*
X136883000Y-66742000D02*
X135283000Y-66742000D01*
X135283000Y-65592000D01*
X136883000Y-65592000D01*
X136883000Y-66742000D01*
X136883000Y-66742000D01*
G37*
G36*
X138783000Y-66742000D02*
X137183000Y-66742000D01*
X137183000Y-65592000D01*
X138783000Y-65592000D01*
X138783000Y-66742000D01*
X138783000Y-66742000D01*
G37*
G36*
X134052000Y-66144000D02*
X132902000Y-66144000D01*
X132902000Y-64544000D01*
X134052000Y-64544000D01*
X134052000Y-66144000D01*
X134052000Y-66144000D01*
G37*
G36*
X97878000Y-65800000D02*
X96178000Y-65800000D01*
X96178000Y-63900000D01*
X97878000Y-63900000D01*
X97878000Y-65800000D01*
X97878000Y-65800000D01*
G37*
G36*
X127321000Y-65382000D02*
X126171000Y-65382000D01*
X126171000Y-63782000D01*
X127321000Y-63782000D01*
X127321000Y-65382000D01*
X127321000Y-65382000D01*
G37*
G36*
X119443000Y-65192000D02*
X117793000Y-65192000D01*
X117793000Y-63292000D01*
X119443000Y-63292000D01*
X119443000Y-65192000D01*
X119443000Y-65192000D01*
G37*
G36*
X138153000Y-64837000D02*
X136553000Y-64837000D01*
X136553000Y-63687000D01*
X138153000Y-63687000D01*
X138153000Y-64837000D01*
X138153000Y-64837000D01*
G37*
G36*
X140053000Y-64837000D02*
X138453000Y-64837000D01*
X138453000Y-63687000D01*
X140053000Y-63687000D01*
X140053000Y-64837000D01*
X140053000Y-64837000D01*
G37*
G36*
X91455685Y-62450073D02*
X91455692Y-62450074D01*
X91459741Y-62450102D01*
X91663388Y-62472945D01*
X91858720Y-62534908D01*
X92038296Y-62633631D01*
X92195277Y-62765353D01*
X92323684Y-62925059D01*
X92418624Y-63106663D01*
X92476483Y-63303250D01*
X92476489Y-63303320D01*
X92476495Y-63303339D01*
X92495059Y-63507325D01*
X92473649Y-63711034D01*
X92473643Y-63711052D01*
X92473635Y-63711132D01*
X92413037Y-63906891D01*
X92315570Y-64087153D01*
X92184947Y-64245049D01*
X92026142Y-64374567D01*
X91845205Y-64470773D01*
X91649027Y-64530003D01*
X91445081Y-64550000D01*
X91434846Y-64550000D01*
X91424315Y-64549927D01*
X91424308Y-64549926D01*
X91420259Y-64549898D01*
X91216612Y-64527055D01*
X91021280Y-64465092D01*
X90841704Y-64366369D01*
X90684723Y-64234647D01*
X90556316Y-64074941D01*
X90461376Y-63893337D01*
X90403517Y-63696750D01*
X90403511Y-63696680D01*
X90403505Y-63696661D01*
X90384941Y-63492675D01*
X90406351Y-63288966D01*
X90406357Y-63288948D01*
X90406365Y-63288868D01*
X90466963Y-63093109D01*
X90564430Y-62912847D01*
X90695053Y-62754951D01*
X90853858Y-62625433D01*
X91034795Y-62529227D01*
X91230973Y-62469997D01*
X91434919Y-62450000D01*
X91445154Y-62450000D01*
X91455685Y-62450073D01*
X91455685Y-62450073D01*
G37*
G36*
X93995685Y-62450073D02*
X93995692Y-62450074D01*
X93999741Y-62450102D01*
X94203388Y-62472945D01*
X94398720Y-62534908D01*
X94578296Y-62633631D01*
X94735277Y-62765353D01*
X94863684Y-62925059D01*
X94958624Y-63106663D01*
X95016483Y-63303250D01*
X95016489Y-63303320D01*
X95016495Y-63303339D01*
X95035059Y-63507325D01*
X95013649Y-63711034D01*
X95013643Y-63711052D01*
X95013635Y-63711132D01*
X94953037Y-63906891D01*
X94855570Y-64087153D01*
X94724947Y-64245049D01*
X94566142Y-64374567D01*
X94385205Y-64470773D01*
X94189027Y-64530003D01*
X93985081Y-64550000D01*
X93974846Y-64550000D01*
X93964315Y-64549927D01*
X93964308Y-64549926D01*
X93960259Y-64549898D01*
X93756612Y-64527055D01*
X93561280Y-64465092D01*
X93381704Y-64366369D01*
X93224723Y-64234647D01*
X93096316Y-64074941D01*
X93001376Y-63893337D01*
X92943517Y-63696750D01*
X92943511Y-63696680D01*
X92943505Y-63696661D01*
X92924941Y-63492675D01*
X92946351Y-63288966D01*
X92946357Y-63288948D01*
X92946365Y-63288868D01*
X93006963Y-63093109D01*
X93104430Y-62912847D01*
X93235053Y-62754951D01*
X93393858Y-62625433D01*
X93574795Y-62529227D01*
X93770973Y-62469997D01*
X93974919Y-62450000D01*
X93985154Y-62450000D01*
X93995685Y-62450073D01*
X93995685Y-62450073D01*
G37*
G36*
X122024000Y-64456000D02*
X120424000Y-64456000D01*
X120424000Y-63306000D01*
X122024000Y-63306000D01*
X122024000Y-64456000D01*
X122024000Y-64456000D01*
G37*
G36*
X123924000Y-64456000D02*
X122324000Y-64456000D01*
X122324000Y-63306000D01*
X123924000Y-63306000D01*
X123924000Y-64456000D01*
X123924000Y-64456000D01*
G37*
G36*
X117538000Y-63414000D02*
X115888000Y-63414000D01*
X115888000Y-61514000D01*
X117538000Y-61514000D01*
X117538000Y-63414000D01*
X117538000Y-63414000D01*
G37*
G36*
X97878000Y-63100000D02*
X96178000Y-63100000D01*
X96178000Y-61200000D01*
X97878000Y-61200000D01*
X97878000Y-63100000D01*
X97878000Y-63100000D01*
G37*
G36*
X119443000Y-62692000D02*
X117793000Y-62692000D01*
X117793000Y-60792000D01*
X119443000Y-60792000D01*
X119443000Y-62692000D01*
X119443000Y-62692000D01*
G37*
G36*
X105001000Y-62424000D02*
X103401000Y-62424000D01*
X103401000Y-61274000D01*
X105001000Y-61274000D01*
X105001000Y-62424000D01*
X105001000Y-62424000D01*
G37*
G36*
X103101000Y-62424000D02*
X101501000Y-62424000D01*
X101501000Y-61274000D01*
X103101000Y-61274000D01*
X103101000Y-62424000D01*
X103101000Y-62424000D01*
G37*
G36*
X93995685Y-59910073D02*
X93995692Y-59910074D01*
X93999741Y-59910102D01*
X94203388Y-59932945D01*
X94398720Y-59994908D01*
X94578296Y-60093631D01*
X94735277Y-60225353D01*
X94863684Y-60385059D01*
X94958624Y-60566663D01*
X95016483Y-60763250D01*
X95016489Y-60763320D01*
X95016495Y-60763339D01*
X95035059Y-60967325D01*
X95013649Y-61171034D01*
X95013643Y-61171052D01*
X95013635Y-61171132D01*
X94953037Y-61366891D01*
X94855570Y-61547153D01*
X94724947Y-61705049D01*
X94566142Y-61834567D01*
X94385205Y-61930773D01*
X94189027Y-61990003D01*
X93985081Y-62010000D01*
X93974846Y-62010000D01*
X93964315Y-62009927D01*
X93964308Y-62009926D01*
X93960259Y-62009898D01*
X93756612Y-61987055D01*
X93561280Y-61925092D01*
X93381704Y-61826369D01*
X93224723Y-61694647D01*
X93096316Y-61534941D01*
X93001376Y-61353337D01*
X92943517Y-61156750D01*
X92943511Y-61156680D01*
X92943505Y-61156661D01*
X92924941Y-60952675D01*
X92946351Y-60748966D01*
X92946357Y-60748948D01*
X92946365Y-60748868D01*
X93006963Y-60553109D01*
X93104430Y-60372847D01*
X93235053Y-60214951D01*
X93393858Y-60085433D01*
X93574795Y-59989227D01*
X93770973Y-59929997D01*
X93974919Y-59910000D01*
X93985154Y-59910000D01*
X93995685Y-59910073D01*
X93995685Y-59910073D01*
G37*
G36*
X91455685Y-59910073D02*
X91455692Y-59910074D01*
X91459741Y-59910102D01*
X91663388Y-59932945D01*
X91858720Y-59994908D01*
X92038296Y-60093631D01*
X92195277Y-60225353D01*
X92323684Y-60385059D01*
X92418624Y-60566663D01*
X92476483Y-60763250D01*
X92476489Y-60763320D01*
X92476495Y-60763339D01*
X92495059Y-60967325D01*
X92473649Y-61171034D01*
X92473643Y-61171052D01*
X92473635Y-61171132D01*
X92413037Y-61366891D01*
X92315570Y-61547153D01*
X92184947Y-61705049D01*
X92026142Y-61834567D01*
X91845205Y-61930773D01*
X91649027Y-61990003D01*
X91445081Y-62010000D01*
X91434846Y-62010000D01*
X91424315Y-62009927D01*
X91424308Y-62009926D01*
X91420259Y-62009898D01*
X91216612Y-61987055D01*
X91021280Y-61925092D01*
X90841704Y-61826369D01*
X90684723Y-61694647D01*
X90556316Y-61534941D01*
X90461376Y-61353337D01*
X90403517Y-61156750D01*
X90403511Y-61156680D01*
X90403505Y-61156661D01*
X90384941Y-60952675D01*
X90406351Y-60748966D01*
X90406357Y-60748948D01*
X90406365Y-60748868D01*
X90466963Y-60553109D01*
X90564430Y-60372847D01*
X90695053Y-60214951D01*
X90853858Y-60085433D01*
X91034795Y-59989227D01*
X91230973Y-59929997D01*
X91434919Y-59910000D01*
X91445154Y-59910000D01*
X91455685Y-59910073D01*
X91455685Y-59910073D01*
G37*
G36*
X138153000Y-61916000D02*
X136553000Y-61916000D01*
X136553000Y-60766000D01*
X138153000Y-60766000D01*
X138153000Y-61916000D01*
X138153000Y-61916000D01*
G37*
G36*
X140053000Y-61916000D02*
X138453000Y-61916000D01*
X138453000Y-60766000D01*
X140053000Y-60766000D01*
X140053000Y-61916000D01*
X140053000Y-61916000D01*
G37*
G36*
X117538000Y-60914000D02*
X115888000Y-60914000D01*
X115888000Y-59014000D01*
X117538000Y-59014000D01*
X117538000Y-60914000D01*
X117538000Y-60914000D01*
G37*
G36*
X97878000Y-60720000D02*
X96178000Y-60720000D01*
X96178000Y-58820000D01*
X97878000Y-58820000D01*
X97878000Y-60720000D01*
X97878000Y-60720000D01*
G37*
G36*
X140053000Y-59884000D02*
X138453000Y-59884000D01*
X138453000Y-58734000D01*
X140053000Y-58734000D01*
X140053000Y-59884000D01*
X140053000Y-59884000D01*
G37*
G36*
X138153000Y-59884000D02*
X136553000Y-59884000D01*
X136553000Y-58734000D01*
X138153000Y-58734000D01*
X138153000Y-59884000D01*
X138153000Y-59884000D01*
G37*
G36*
X128210000Y-59662000D02*
X127060000Y-59662000D01*
X127060000Y-58062000D01*
X128210000Y-58062000D01*
X128210000Y-59662000D01*
X128210000Y-59662000D01*
G37*
G36*
X91455685Y-57370073D02*
X91455692Y-57370074D01*
X91459741Y-57370102D01*
X91663388Y-57392945D01*
X91858720Y-57454908D01*
X92038296Y-57553631D01*
X92195277Y-57685353D01*
X92323684Y-57845059D01*
X92418624Y-58026663D01*
X92476483Y-58223250D01*
X92476489Y-58223320D01*
X92476495Y-58223339D01*
X92495059Y-58427325D01*
X92473649Y-58631034D01*
X92473643Y-58631052D01*
X92473635Y-58631132D01*
X92413037Y-58826891D01*
X92315570Y-59007153D01*
X92184947Y-59165049D01*
X92026142Y-59294567D01*
X91845205Y-59390773D01*
X91649027Y-59450003D01*
X91445081Y-59470000D01*
X91434846Y-59470000D01*
X91424315Y-59469927D01*
X91424308Y-59469926D01*
X91420259Y-59469898D01*
X91216612Y-59447055D01*
X91021280Y-59385092D01*
X90841704Y-59286369D01*
X90684723Y-59154647D01*
X90556316Y-58994941D01*
X90461376Y-58813337D01*
X90403517Y-58616750D01*
X90403511Y-58616680D01*
X90403505Y-58616661D01*
X90384941Y-58412675D01*
X90406351Y-58208966D01*
X90406357Y-58208948D01*
X90406365Y-58208868D01*
X90466963Y-58013109D01*
X90564430Y-57832847D01*
X90695053Y-57674951D01*
X90853858Y-57545433D01*
X91034795Y-57449227D01*
X91230973Y-57389997D01*
X91434919Y-57370000D01*
X91445154Y-57370000D01*
X91455685Y-57370073D01*
X91455685Y-57370073D01*
G37*
G36*
X93995685Y-57370073D02*
X93995692Y-57370074D01*
X93999741Y-57370102D01*
X94203388Y-57392945D01*
X94398720Y-57454908D01*
X94578296Y-57553631D01*
X94735277Y-57685353D01*
X94863684Y-57845059D01*
X94958624Y-58026663D01*
X95016483Y-58223250D01*
X95016489Y-58223320D01*
X95016495Y-58223339D01*
X95035059Y-58427325D01*
X95013649Y-58631034D01*
X95013643Y-58631052D01*
X95013635Y-58631132D01*
X94953037Y-58826891D01*
X94855570Y-59007153D01*
X94724947Y-59165049D01*
X94566142Y-59294567D01*
X94385205Y-59390773D01*
X94189027Y-59450003D01*
X93985081Y-59470000D01*
X93974846Y-59470000D01*
X93964315Y-59469927D01*
X93964308Y-59469926D01*
X93960259Y-59469898D01*
X93756612Y-59447055D01*
X93561280Y-59385092D01*
X93381704Y-59286369D01*
X93224723Y-59154647D01*
X93096316Y-58994941D01*
X93001376Y-58813337D01*
X92943517Y-58616750D01*
X92943511Y-58616680D01*
X92943505Y-58616661D01*
X92924941Y-58412675D01*
X92946351Y-58208966D01*
X92946357Y-58208948D01*
X92946365Y-58208868D01*
X93006963Y-58013109D01*
X93104430Y-57832847D01*
X93235053Y-57674951D01*
X93393858Y-57545433D01*
X93574795Y-57449227D01*
X93770973Y-57389997D01*
X93974919Y-57370000D01*
X93985154Y-57370000D01*
X93995685Y-57370073D01*
X93995685Y-57370073D01*
G37*
G36*
X135449000Y-59154000D02*
X134299000Y-59154000D01*
X134299000Y-57554000D01*
X135449000Y-57554000D01*
X135449000Y-59154000D01*
X135449000Y-59154000D01*
G37*
G36*
X122024000Y-58741000D02*
X120424000Y-58741000D01*
X120424000Y-57591000D01*
X122024000Y-57591000D01*
X122024000Y-58741000D01*
X122024000Y-58741000D01*
G37*
G36*
X123924000Y-58741000D02*
X122324000Y-58741000D01*
X122324000Y-57591000D01*
X123924000Y-57591000D01*
X123924000Y-58741000D01*
X123924000Y-58741000D01*
G37*
G36*
X143636041Y-56320796D02*
X143866570Y-56368116D01*
X144083512Y-56459310D01*
X144278615Y-56590908D01*
X144444436Y-56757891D01*
X144574666Y-56953904D01*
X144664347Y-57171486D01*
X144709919Y-57401641D01*
X144709919Y-57401666D01*
X144710051Y-57402334D01*
X144706298Y-57671128D01*
X144706147Y-57671791D01*
X144706147Y-57671815D01*
X144654164Y-57900612D01*
X144558445Y-58115603D01*
X144422794Y-58307900D01*
X144252372Y-58470191D01*
X144053669Y-58596291D01*
X143834270Y-58681391D01*
X143602507Y-58722257D01*
X143367226Y-58717328D01*
X143137385Y-58666795D01*
X142921734Y-58572579D01*
X142728491Y-58438272D01*
X142565015Y-58268987D01*
X142437533Y-58071173D01*
X142350899Y-57852363D01*
X142308418Y-57620900D01*
X142311704Y-57385592D01*
X142360633Y-57155400D01*
X142453341Y-56939094D01*
X142586296Y-56744919D01*
X142754433Y-56580268D01*
X142951354Y-56451406D01*
X143169547Y-56363250D01*
X143400714Y-56319152D01*
X143636041Y-56320796D01*
X143636041Y-56320796D01*
G37*
G36*
X119443000Y-58334000D02*
X117793000Y-58334000D01*
X117793000Y-56434000D01*
X119443000Y-56434000D01*
X119443000Y-58334000D01*
X119443000Y-58334000D01*
G37*
G36*
X148586041Y-55720796D02*
X148816570Y-55768116D01*
X149033512Y-55859310D01*
X149228615Y-55990908D01*
X149394436Y-56157891D01*
X149524666Y-56353904D01*
X149614347Y-56571486D01*
X149659919Y-56801641D01*
X149659919Y-56801666D01*
X149660051Y-56802334D01*
X149656298Y-57071128D01*
X149656147Y-57071791D01*
X149656147Y-57071815D01*
X149604164Y-57300612D01*
X149508445Y-57515603D01*
X149372794Y-57707900D01*
X149202372Y-57870191D01*
X149003669Y-57996291D01*
X148784270Y-58081391D01*
X148552507Y-58122257D01*
X148317226Y-58117328D01*
X148087385Y-58066795D01*
X147871734Y-57972579D01*
X147678491Y-57838272D01*
X147515015Y-57668987D01*
X147387533Y-57471173D01*
X147300899Y-57252363D01*
X147258418Y-57020900D01*
X147261704Y-56785592D01*
X147310633Y-56555400D01*
X147403341Y-56339094D01*
X147536296Y-56144919D01*
X147704433Y-55980268D01*
X147901354Y-55851406D01*
X148119547Y-55763250D01*
X148350714Y-55719152D01*
X148586041Y-55720796D01*
X148586041Y-55720796D01*
G37*
G36*
X97878000Y-58020000D02*
X96178000Y-58020000D01*
X96178000Y-56120000D01*
X97878000Y-56120000D01*
X97878000Y-58020000D01*
X97878000Y-58020000D01*
G37*
G36*
X128210000Y-57762000D02*
X127060000Y-57762000D01*
X127060000Y-56162000D01*
X128210000Y-56162000D01*
X128210000Y-57762000D01*
X128210000Y-57762000D01*
G37*
G36*
X103101000Y-57471000D02*
X101501000Y-57471000D01*
X101501000Y-56321000D01*
X103101000Y-56321000D01*
X103101000Y-57471000D01*
X103101000Y-57471000D01*
G37*
G36*
X105001000Y-57471000D02*
X103401000Y-57471000D01*
X103401000Y-56321000D01*
X105001000Y-56321000D01*
X105001000Y-57471000D01*
X105001000Y-57471000D01*
G37*
G36*
X135449000Y-57254000D02*
X134299000Y-57254000D01*
X134299000Y-55654000D01*
X135449000Y-55654000D01*
X135449000Y-57254000D01*
X135449000Y-57254000D01*
G37*
G36*
X93995685Y-54830073D02*
X93995692Y-54830074D01*
X93999741Y-54830102D01*
X94203388Y-54852945D01*
X94398720Y-54914908D01*
X94578296Y-55013631D01*
X94735277Y-55145353D01*
X94863684Y-55305059D01*
X94958624Y-55486663D01*
X95016483Y-55683250D01*
X95016489Y-55683320D01*
X95016495Y-55683339D01*
X95035059Y-55887325D01*
X95013649Y-56091034D01*
X95013643Y-56091052D01*
X95013635Y-56091132D01*
X94953037Y-56286891D01*
X94855570Y-56467153D01*
X94724947Y-56625049D01*
X94566142Y-56754567D01*
X94385205Y-56850773D01*
X94189027Y-56910003D01*
X93985081Y-56930000D01*
X93974846Y-56930000D01*
X93964315Y-56929927D01*
X93964308Y-56929926D01*
X93960259Y-56929898D01*
X93756612Y-56907055D01*
X93561280Y-56845092D01*
X93381704Y-56746369D01*
X93224723Y-56614647D01*
X93096316Y-56454941D01*
X93001376Y-56273337D01*
X92943517Y-56076750D01*
X92943511Y-56076680D01*
X92943505Y-56076661D01*
X92924941Y-55872675D01*
X92946351Y-55668966D01*
X92946357Y-55668948D01*
X92946365Y-55668868D01*
X93006963Y-55473109D01*
X93104430Y-55292847D01*
X93235053Y-55134951D01*
X93393858Y-55005433D01*
X93574795Y-54909227D01*
X93770973Y-54849997D01*
X93974919Y-54830000D01*
X93985154Y-54830000D01*
X93995685Y-54830073D01*
X93995685Y-54830073D01*
G37*
G36*
X91455685Y-54830073D02*
X91455692Y-54830074D01*
X91459741Y-54830102D01*
X91663388Y-54852945D01*
X91858720Y-54914908D01*
X92038296Y-55013631D01*
X92195277Y-55145353D01*
X92323684Y-55305059D01*
X92418624Y-55486663D01*
X92476483Y-55683250D01*
X92476489Y-55683320D01*
X92476495Y-55683339D01*
X92495059Y-55887325D01*
X92473649Y-56091034D01*
X92473643Y-56091052D01*
X92473635Y-56091132D01*
X92413037Y-56286891D01*
X92315570Y-56467153D01*
X92184947Y-56625049D01*
X92026142Y-56754567D01*
X91845205Y-56850773D01*
X91649027Y-56910003D01*
X91445081Y-56930000D01*
X91434846Y-56930000D01*
X91424315Y-56929927D01*
X91424308Y-56929926D01*
X91420259Y-56929898D01*
X91216612Y-56907055D01*
X91021280Y-56845092D01*
X90841704Y-56746369D01*
X90684723Y-56614647D01*
X90556316Y-56454941D01*
X90461376Y-56273337D01*
X90403517Y-56076750D01*
X90403511Y-56076680D01*
X90403505Y-56076661D01*
X90384941Y-55872675D01*
X90406351Y-55668966D01*
X90406357Y-55668948D01*
X90406365Y-55668868D01*
X90466963Y-55473109D01*
X90564430Y-55292847D01*
X90695053Y-55134951D01*
X90853858Y-55005433D01*
X91034795Y-54909227D01*
X91230973Y-54849997D01*
X91434919Y-54830000D01*
X91445154Y-54830000D01*
X91455685Y-54830073D01*
X91455685Y-54830073D01*
G37*
G36*
X117538000Y-56556000D02*
X115888000Y-56556000D01*
X115888000Y-54656000D01*
X117538000Y-54656000D01*
X117538000Y-56556000D01*
X117538000Y-56556000D01*
G37*
G36*
X119443000Y-55834000D02*
X117793000Y-55834000D01*
X117793000Y-53934000D01*
X119443000Y-53934000D01*
X119443000Y-55834000D01*
X119443000Y-55834000D01*
G37*
G36*
X97878000Y-55640000D02*
X96178000Y-55640000D01*
X96178000Y-53740000D01*
X97878000Y-53740000D01*
X97878000Y-55640000D01*
X97878000Y-55640000D01*
G37*
G36*
X93995685Y-52290073D02*
X93995692Y-52290074D01*
X93999741Y-52290102D01*
X94203388Y-52312945D01*
X94398720Y-52374908D01*
X94578296Y-52473631D01*
X94735277Y-52605353D01*
X94863684Y-52765059D01*
X94958624Y-52946663D01*
X95016483Y-53143250D01*
X95016489Y-53143320D01*
X95016495Y-53143339D01*
X95035059Y-53347325D01*
X95013649Y-53551034D01*
X95013643Y-53551052D01*
X95013635Y-53551132D01*
X94953037Y-53746891D01*
X94855570Y-53927153D01*
X94724947Y-54085049D01*
X94566142Y-54214567D01*
X94385205Y-54310773D01*
X94189027Y-54370003D01*
X93985081Y-54390000D01*
X93974846Y-54390000D01*
X93964315Y-54389927D01*
X93964308Y-54389926D01*
X93960259Y-54389898D01*
X93756612Y-54367055D01*
X93561280Y-54305092D01*
X93381704Y-54206369D01*
X93224723Y-54074647D01*
X93096316Y-53914941D01*
X93001376Y-53733337D01*
X92943517Y-53536750D01*
X92943511Y-53536680D01*
X92943505Y-53536661D01*
X92924941Y-53332675D01*
X92946351Y-53128966D01*
X92946357Y-53128948D01*
X92946365Y-53128868D01*
X93006963Y-52933109D01*
X93104430Y-52752847D01*
X93235053Y-52594951D01*
X93393858Y-52465433D01*
X93574795Y-52369227D01*
X93770973Y-52309997D01*
X93974919Y-52290000D01*
X93985154Y-52290000D01*
X93995685Y-52290073D01*
X93995685Y-52290073D01*
G37*
G36*
X91455685Y-52290073D02*
X91455692Y-52290074D01*
X91459741Y-52290102D01*
X91663388Y-52312945D01*
X91858720Y-52374908D01*
X92038296Y-52473631D01*
X92195277Y-52605353D01*
X92323684Y-52765059D01*
X92418624Y-52946663D01*
X92476483Y-53143250D01*
X92476489Y-53143320D01*
X92476495Y-53143339D01*
X92495059Y-53347325D01*
X92473649Y-53551034D01*
X92473643Y-53551052D01*
X92473635Y-53551132D01*
X92413037Y-53746891D01*
X92315570Y-53927153D01*
X92184947Y-54085049D01*
X92026142Y-54214567D01*
X91845205Y-54310773D01*
X91649027Y-54370003D01*
X91445081Y-54390000D01*
X91434846Y-54390000D01*
X91424315Y-54389927D01*
X91424308Y-54389926D01*
X91420259Y-54389898D01*
X91216612Y-54367055D01*
X91021280Y-54305092D01*
X90841704Y-54206369D01*
X90684723Y-54074647D01*
X90556316Y-53914941D01*
X90461376Y-53733337D01*
X90403517Y-53536750D01*
X90403511Y-53536680D01*
X90403505Y-53536661D01*
X90384941Y-53332675D01*
X90406351Y-53128966D01*
X90406357Y-53128948D01*
X90406365Y-53128868D01*
X90466963Y-52933109D01*
X90564430Y-52752847D01*
X90695053Y-52594951D01*
X90853858Y-52465433D01*
X91034795Y-52369227D01*
X91230973Y-52309997D01*
X91434919Y-52290000D01*
X91445154Y-52290000D01*
X91455685Y-52290073D01*
X91455685Y-52290073D01*
G37*
G36*
X117538000Y-54056000D02*
X115888000Y-54056000D01*
X115888000Y-52156000D01*
X117538000Y-52156000D01*
X117538000Y-54056000D01*
X117538000Y-54056000D01*
G37*
G36*
X103101000Y-54042000D02*
X101501000Y-54042000D01*
X101501000Y-52892000D01*
X103101000Y-52892000D01*
X103101000Y-54042000D01*
X103101000Y-54042000D01*
G37*
G36*
X105001000Y-54042000D02*
X103401000Y-54042000D01*
X103401000Y-52892000D01*
X105001000Y-52892000D01*
X105001000Y-54042000D01*
X105001000Y-54042000D01*
G37*
G36*
X97878000Y-52940000D02*
X96178000Y-52940000D01*
X96178000Y-51040000D01*
X97878000Y-51040000D01*
X97878000Y-52940000D01*
X97878000Y-52940000D01*
G37*
G36*
X93995685Y-49750073D02*
X93995692Y-49750074D01*
X93999741Y-49750102D01*
X94203388Y-49772945D01*
X94398720Y-49834908D01*
X94578296Y-49933631D01*
X94735277Y-50065353D01*
X94863684Y-50225059D01*
X94958624Y-50406663D01*
X95016483Y-50603250D01*
X95016489Y-50603320D01*
X95016495Y-50603339D01*
X95035059Y-50807325D01*
X95013649Y-51011034D01*
X95013643Y-51011052D01*
X95013635Y-51011132D01*
X94953037Y-51206891D01*
X94855570Y-51387153D01*
X94724947Y-51545049D01*
X94566142Y-51674567D01*
X94385205Y-51770773D01*
X94189027Y-51830003D01*
X93985081Y-51850000D01*
X93974846Y-51850000D01*
X93964315Y-51849927D01*
X93964308Y-51849926D01*
X93960259Y-51849898D01*
X93756612Y-51827055D01*
X93561280Y-51765092D01*
X93381704Y-51666369D01*
X93224723Y-51534647D01*
X93096316Y-51374941D01*
X93001376Y-51193337D01*
X92943517Y-50996750D01*
X92943511Y-50996680D01*
X92943505Y-50996661D01*
X92924941Y-50792675D01*
X92946351Y-50588966D01*
X92946357Y-50588948D01*
X92946365Y-50588868D01*
X93006963Y-50393109D01*
X93104430Y-50212847D01*
X93235053Y-50054951D01*
X93393858Y-49925433D01*
X93574795Y-49829227D01*
X93770973Y-49769997D01*
X93974919Y-49750000D01*
X93985154Y-49750000D01*
X93995685Y-49750073D01*
X93995685Y-49750073D01*
G37*
G36*
X91455685Y-49750073D02*
X91455692Y-49750074D01*
X91459741Y-49750102D01*
X91663388Y-49772945D01*
X91858720Y-49834908D01*
X92038296Y-49933631D01*
X92195277Y-50065353D01*
X92323684Y-50225059D01*
X92418624Y-50406663D01*
X92476483Y-50603250D01*
X92476489Y-50603320D01*
X92476495Y-50603339D01*
X92495059Y-50807325D01*
X92473649Y-51011034D01*
X92473643Y-51011052D01*
X92473635Y-51011132D01*
X92413037Y-51206891D01*
X92315570Y-51387153D01*
X92184947Y-51545049D01*
X92026142Y-51674567D01*
X91845205Y-51770773D01*
X91649027Y-51830003D01*
X91445081Y-51850000D01*
X91434846Y-51850000D01*
X91424315Y-51849927D01*
X91424308Y-51849926D01*
X91420259Y-51849898D01*
X91216612Y-51827055D01*
X91021280Y-51765092D01*
X90841704Y-51666369D01*
X90684723Y-51534647D01*
X90556316Y-51374941D01*
X90461376Y-51193337D01*
X90403517Y-50996750D01*
X90403511Y-50996680D01*
X90403505Y-50996661D01*
X90384941Y-50792675D01*
X90406351Y-50588966D01*
X90406357Y-50588948D01*
X90406365Y-50588868D01*
X90466963Y-50393109D01*
X90564430Y-50212847D01*
X90695053Y-50054951D01*
X90853858Y-49925433D01*
X91034795Y-49829227D01*
X91230973Y-49769997D01*
X91434919Y-49750000D01*
X91445154Y-49750000D01*
X91455685Y-49750073D01*
X91455685Y-49750073D01*
G37*
G36*
X103101000Y-51375000D02*
X101501000Y-51375000D01*
X101501000Y-50225000D01*
X103101000Y-50225000D01*
X103101000Y-51375000D01*
X103101000Y-51375000D01*
G37*
G36*
X105001000Y-51375000D02*
X103401000Y-51375000D01*
X103401000Y-50225000D01*
X105001000Y-50225000D01*
X105001000Y-51375000D01*
X105001000Y-51375000D01*
G37*
G36*
X123035000Y-51121000D02*
X121435000Y-51121000D01*
X121435000Y-49971000D01*
X123035000Y-49971000D01*
X123035000Y-51121000D01*
X123035000Y-51121000D01*
G37*
G36*
X121135000Y-51121000D02*
X119535000Y-51121000D01*
X119535000Y-49971000D01*
X121135000Y-49971000D01*
X121135000Y-51121000D01*
X121135000Y-51121000D01*
G37*
G36*
X145014437Y-46029483D02*
X145443218Y-46117498D01*
X145846732Y-46287120D01*
X146209619Y-46531891D01*
X146518049Y-46842481D01*
X146760277Y-47207065D01*
X146927080Y-47611758D01*
X147011963Y-48040452D01*
X147011963Y-48040468D01*
X147012096Y-48041141D01*
X147005115Y-48541097D01*
X147004964Y-48541760D01*
X147004964Y-48541784D01*
X146908144Y-48967936D01*
X146730105Y-49367820D01*
X146477793Y-49725493D01*
X146160810Y-50027353D01*
X145791226Y-50261897D01*
X145383139Y-50420184D01*
X144952064Y-50496195D01*
X144514442Y-50487027D01*
X144086935Y-50393035D01*
X143685826Y-50217794D01*
X143326395Y-49967983D01*
X143022330Y-49653114D01*
X142785214Y-49285181D01*
X142624077Y-48878198D01*
X142545061Y-48447673D01*
X142551173Y-48010000D01*
X142642180Y-47581844D01*
X142814617Y-47179518D01*
X143061913Y-46818352D01*
X143374650Y-46512097D01*
X143740916Y-46272419D01*
X144146761Y-46108447D01*
X144576728Y-46026426D01*
X145014437Y-46029483D01*
X145014437Y-46029483D01*
G37*
G36*
X103064000Y-49756000D02*
X101914000Y-49756000D01*
X101914000Y-48156000D01*
X103064000Y-48156000D01*
X103064000Y-49756000D01*
X103064000Y-49756000D01*
G37*
G36*
X91455685Y-47210073D02*
X91455692Y-47210074D01*
X91459741Y-47210102D01*
X91663388Y-47232945D01*
X91858720Y-47294908D01*
X92038296Y-47393631D01*
X92195277Y-47525353D01*
X92323684Y-47685059D01*
X92418624Y-47866663D01*
X92476483Y-48063250D01*
X92476489Y-48063320D01*
X92476495Y-48063339D01*
X92495059Y-48267325D01*
X92473649Y-48471034D01*
X92473643Y-48471052D01*
X92473635Y-48471132D01*
X92413037Y-48666891D01*
X92315570Y-48847153D01*
X92184947Y-49005049D01*
X92026142Y-49134567D01*
X91845205Y-49230773D01*
X91649027Y-49290003D01*
X91445081Y-49310000D01*
X91434846Y-49310000D01*
X91424315Y-49309927D01*
X91424308Y-49309926D01*
X91420259Y-49309898D01*
X91216612Y-49287055D01*
X91021280Y-49225092D01*
X90841704Y-49126369D01*
X90684723Y-48994647D01*
X90556316Y-48834941D01*
X90461376Y-48653337D01*
X90403517Y-48456750D01*
X90403511Y-48456680D01*
X90403505Y-48456661D01*
X90384941Y-48252675D01*
X90406351Y-48048966D01*
X90406357Y-48048948D01*
X90406365Y-48048868D01*
X90466963Y-47853109D01*
X90564430Y-47672847D01*
X90695053Y-47514951D01*
X90853858Y-47385433D01*
X91034795Y-47289227D01*
X91230973Y-47229997D01*
X91434919Y-47210000D01*
X91445154Y-47210000D01*
X91455685Y-47210073D01*
X91455685Y-47210073D01*
G37*
G36*
X93995685Y-47210073D02*
X93995692Y-47210074D01*
X93999741Y-47210102D01*
X94203388Y-47232945D01*
X94398720Y-47294908D01*
X94578296Y-47393631D01*
X94735277Y-47525353D01*
X94863684Y-47685059D01*
X94958624Y-47866663D01*
X95016483Y-48063250D01*
X95016489Y-48063320D01*
X95016495Y-48063339D01*
X95035059Y-48267325D01*
X95013649Y-48471034D01*
X95013643Y-48471052D01*
X95013635Y-48471132D01*
X94953037Y-48666891D01*
X94855570Y-48847153D01*
X94724947Y-49005049D01*
X94566142Y-49134567D01*
X94385205Y-49230773D01*
X94189027Y-49290003D01*
X93985081Y-49310000D01*
X93974846Y-49310000D01*
X93964315Y-49309927D01*
X93964308Y-49309926D01*
X93960259Y-49309898D01*
X93756612Y-49287055D01*
X93561280Y-49225092D01*
X93381704Y-49126369D01*
X93224723Y-48994647D01*
X93096316Y-48834941D01*
X93001376Y-48653337D01*
X92943517Y-48456750D01*
X92943511Y-48456680D01*
X92943505Y-48456661D01*
X92924941Y-48252675D01*
X92946351Y-48048966D01*
X92946357Y-48048948D01*
X92946365Y-48048868D01*
X93006963Y-47853109D01*
X93104430Y-47672847D01*
X93235053Y-47514951D01*
X93393858Y-47385433D01*
X93574795Y-47289227D01*
X93770973Y-47229997D01*
X93974919Y-47210000D01*
X93985154Y-47210000D01*
X93995685Y-47210073D01*
X93995685Y-47210073D01*
G37*
G36*
X116145000Y-49121000D02*
X114995000Y-49121000D01*
X114995000Y-47521000D01*
X116145000Y-47521000D01*
X116145000Y-49121000D01*
X116145000Y-49121000D01*
G37*
G36*
X123035000Y-48835000D02*
X121435000Y-48835000D01*
X121435000Y-47685000D01*
X123035000Y-47685000D01*
X123035000Y-48835000D01*
X123035000Y-48835000D01*
G37*
G36*
X121135000Y-48835000D02*
X119535000Y-48835000D01*
X119535000Y-47685000D01*
X121135000Y-47685000D01*
X121135000Y-48835000D01*
X121135000Y-48835000D01*
G37*
G36*
X131512000Y-48613000D02*
X130362000Y-48613000D01*
X130362000Y-47013000D01*
X131512000Y-47013000D01*
X131512000Y-48613000D01*
X131512000Y-48613000D01*
G37*
G36*
X103064000Y-47856000D02*
X101914000Y-47856000D01*
X101914000Y-46256000D01*
X103064000Y-46256000D01*
X103064000Y-47856000D01*
X103064000Y-47856000D01*
G37*
G36*
X110049000Y-47724000D02*
X108899000Y-47724000D01*
X108899000Y-46124000D01*
X110049000Y-46124000D01*
X110049000Y-47724000D01*
X110049000Y-47724000D01*
G37*
G36*
X105604000Y-47724000D02*
X104454000Y-47724000D01*
X104454000Y-46124000D01*
X105604000Y-46124000D01*
X105604000Y-47724000D01*
X105604000Y-47724000D01*
G37*
G36*
X101159000Y-47724000D02*
X100009000Y-47724000D01*
X100009000Y-46124000D01*
X101159000Y-46124000D01*
X101159000Y-47724000D01*
X101159000Y-47724000D01*
G37*
G36*
X116145000Y-47221000D02*
X114995000Y-47221000D01*
X114995000Y-45621000D01*
X116145000Y-45621000D01*
X116145000Y-47221000D01*
X116145000Y-47221000D01*
G37*
G36*
X121262000Y-46930000D02*
X119662000Y-46930000D01*
X119662000Y-45780000D01*
X121262000Y-45780000D01*
X121262000Y-46930000D01*
X121262000Y-46930000D01*
G37*
G36*
X123162000Y-46930000D02*
X121562000Y-46930000D01*
X121562000Y-45780000D01*
X123162000Y-45780000D01*
X123162000Y-46930000D01*
X123162000Y-46930000D01*
G37*
G36*
X93995685Y-44670073D02*
X93995692Y-44670074D01*
X93999741Y-44670102D01*
X94203388Y-44692945D01*
X94398720Y-44754908D01*
X94578296Y-44853631D01*
X94735277Y-44985353D01*
X94863684Y-45145059D01*
X94958624Y-45326663D01*
X95016483Y-45523250D01*
X95016489Y-45523320D01*
X95016495Y-45523339D01*
X95035059Y-45727325D01*
X95013649Y-45931034D01*
X95013643Y-45931052D01*
X95013635Y-45931132D01*
X94953037Y-46126891D01*
X94855570Y-46307153D01*
X94724947Y-46465049D01*
X94566142Y-46594567D01*
X94385205Y-46690773D01*
X94189027Y-46750003D01*
X93985081Y-46770000D01*
X93974846Y-46770000D01*
X93964315Y-46769927D01*
X93964308Y-46769926D01*
X93960259Y-46769898D01*
X93756612Y-46747055D01*
X93561280Y-46685092D01*
X93381704Y-46586369D01*
X93224723Y-46454647D01*
X93096316Y-46294941D01*
X93001376Y-46113337D01*
X92943517Y-45916750D01*
X92943511Y-45916680D01*
X92943505Y-45916661D01*
X92924941Y-45712675D01*
X92946351Y-45508966D01*
X92946357Y-45508948D01*
X92946365Y-45508868D01*
X93006963Y-45313109D01*
X93104430Y-45132847D01*
X93235053Y-44974951D01*
X93393858Y-44845433D01*
X93574795Y-44749227D01*
X93770973Y-44689997D01*
X93974919Y-44670000D01*
X93985154Y-44670000D01*
X93995685Y-44670073D01*
X93995685Y-44670073D01*
G37*
G36*
X91455685Y-44670073D02*
X91455692Y-44670074D01*
X91459741Y-44670102D01*
X91663388Y-44692945D01*
X91858720Y-44754908D01*
X92038296Y-44853631D01*
X92195277Y-44985353D01*
X92323684Y-45145059D01*
X92418624Y-45326663D01*
X92476483Y-45523250D01*
X92476489Y-45523320D01*
X92476495Y-45523339D01*
X92495059Y-45727325D01*
X92473649Y-45931034D01*
X92473643Y-45931052D01*
X92473635Y-45931132D01*
X92413037Y-46126891D01*
X92315570Y-46307153D01*
X92184947Y-46465049D01*
X92026142Y-46594567D01*
X91845205Y-46690773D01*
X91649027Y-46750003D01*
X91445081Y-46770000D01*
X91434846Y-46770000D01*
X91424315Y-46769927D01*
X91424308Y-46769926D01*
X91420259Y-46769898D01*
X91216612Y-46747055D01*
X91021280Y-46685092D01*
X90841704Y-46586369D01*
X90684723Y-46454647D01*
X90556316Y-46294941D01*
X90461376Y-46113337D01*
X90403517Y-45916750D01*
X90403511Y-45916680D01*
X90403505Y-45916661D01*
X90384941Y-45712675D01*
X90406351Y-45508966D01*
X90406357Y-45508948D01*
X90406365Y-45508868D01*
X90466963Y-45313109D01*
X90564430Y-45132847D01*
X90695053Y-44974951D01*
X90853858Y-44845433D01*
X91034795Y-44749227D01*
X91230973Y-44689997D01*
X91434919Y-44670000D01*
X91445154Y-44670000D01*
X91455685Y-44670073D01*
X91455685Y-44670073D01*
G37*
G36*
X131512000Y-46713000D02*
X130362000Y-46713000D01*
X130362000Y-45113000D01*
X131512000Y-45113000D01*
X131512000Y-46713000D01*
X131512000Y-46713000D01*
G37*
G36*
X105604000Y-45824000D02*
X104454000Y-45824000D01*
X104454000Y-44224000D01*
X105604000Y-44224000D01*
X105604000Y-45824000D01*
X105604000Y-45824000D01*
G37*
G36*
X101159000Y-45824000D02*
X100009000Y-45824000D01*
X100009000Y-44224000D01*
X101159000Y-44224000D01*
X101159000Y-45824000D01*
X101159000Y-45824000D01*
G37*
G36*
X110049000Y-45824000D02*
X108899000Y-45824000D01*
X108899000Y-44224000D01*
X110049000Y-44224000D01*
X110049000Y-45824000D01*
X110049000Y-45824000D01*
G37*
M02*
