G04 #@! TF.FileFunction,Legend,Bot*
%FSLAX46Y46*%
G04 Gerber Fmt 4.6, Leading zero omitted, Abs format (unit mm)*
G04 Created by KiCad (PCBNEW 4.0.4-stable) date 04/10/17 21:25:13*
%MOMM*%
%LPD*%
G01*
G04 APERTURE LIST*
%ADD10C,0.100000*%
%ADD11C,0.300000*%
%ADD12C,0.120000*%
%ADD13C,0.150000*%
G04 APERTURE END LIST*
D10*
D11*
X125268713Y-78305429D02*
X125197284Y-78234000D01*
X125054427Y-78162571D01*
X124697284Y-78162571D01*
X124554427Y-78234000D01*
X124482998Y-78305429D01*
X124411570Y-78448286D01*
X124411570Y-78591143D01*
X124482998Y-78805429D01*
X125340141Y-79662571D01*
X124411570Y-79662571D01*
X123482999Y-78162571D02*
X123340142Y-78162571D01*
X123197285Y-78234000D01*
X123125856Y-78305429D01*
X123054427Y-78448286D01*
X122982999Y-78734000D01*
X122982999Y-79091143D01*
X123054427Y-79376857D01*
X123125856Y-79519714D01*
X123197285Y-79591143D01*
X123340142Y-79662571D01*
X123482999Y-79662571D01*
X123625856Y-79591143D01*
X123697285Y-79519714D01*
X123768713Y-79376857D01*
X123840142Y-79091143D01*
X123840142Y-78734000D01*
X123768713Y-78448286D01*
X123697285Y-78305429D01*
X123625856Y-78234000D01*
X123482999Y-78162571D01*
X121554428Y-79662571D02*
X122411571Y-79662571D01*
X121982999Y-79662571D02*
X121982999Y-78162571D01*
X122125856Y-78376857D01*
X122268714Y-78519714D01*
X122411571Y-78591143D01*
X121054428Y-78162571D02*
X120054428Y-78162571D01*
X120697285Y-79662571D01*
X119483000Y-79091143D02*
X118340143Y-79091143D01*
X117340143Y-78162571D02*
X117197286Y-78162571D01*
X117054429Y-78234000D01*
X116983000Y-78305429D01*
X116911571Y-78448286D01*
X116840143Y-78734000D01*
X116840143Y-79091143D01*
X116911571Y-79376857D01*
X116983000Y-79519714D01*
X117054429Y-79591143D01*
X117197286Y-79662571D01*
X117340143Y-79662571D01*
X117483000Y-79591143D01*
X117554429Y-79519714D01*
X117625857Y-79376857D01*
X117697286Y-79091143D01*
X117697286Y-78734000D01*
X117625857Y-78448286D01*
X117554429Y-78305429D01*
X117483000Y-78234000D01*
X117340143Y-78162571D01*
X115554429Y-78662571D02*
X115554429Y-79662571D01*
X115911572Y-78091143D02*
X116268715Y-79162571D01*
X115340143Y-79162571D01*
X114768715Y-79091143D02*
X113625858Y-79091143D01*
X112125858Y-79662571D02*
X112983001Y-79662571D01*
X112554429Y-79662571D02*
X112554429Y-78162571D01*
X112697286Y-78376857D01*
X112840144Y-78519714D01*
X112983001Y-78591143D01*
X111197287Y-78162571D02*
X111054430Y-78162571D01*
X110911573Y-78234000D01*
X110840144Y-78305429D01*
X110768715Y-78448286D01*
X110697287Y-78734000D01*
X110697287Y-79091143D01*
X110768715Y-79376857D01*
X110840144Y-79519714D01*
X110911573Y-79591143D01*
X111054430Y-79662571D01*
X111197287Y-79662571D01*
X111340144Y-79591143D01*
X111411573Y-79519714D01*
X111483001Y-79376857D01*
X111554430Y-79091143D01*
X111554430Y-78734000D01*
X111483001Y-78448286D01*
X111411573Y-78305429D01*
X111340144Y-78234000D01*
X111197287Y-78162571D01*
X123947286Y-81212571D02*
X123947286Y-82426857D01*
X124018715Y-82569714D01*
X124090143Y-82641143D01*
X124233000Y-82712571D01*
X124447286Y-82712571D01*
X124590143Y-82641143D01*
X123947286Y-82141143D02*
X124090143Y-82212571D01*
X124375857Y-82212571D01*
X124518715Y-82141143D01*
X124590143Y-82069714D01*
X124661572Y-81926857D01*
X124661572Y-81498286D01*
X124590143Y-81355429D01*
X124518715Y-81284000D01*
X124375857Y-81212571D01*
X124090143Y-81212571D01*
X123947286Y-81284000D01*
X123233000Y-82212571D02*
X123233000Y-81212571D01*
X123233000Y-80712571D02*
X123304429Y-80784000D01*
X123233000Y-80855429D01*
X123161572Y-80784000D01*
X123233000Y-80712571D01*
X123233000Y-80855429D01*
X122733000Y-81212571D02*
X122161571Y-81212571D01*
X122518714Y-80712571D02*
X122518714Y-81998286D01*
X122447286Y-82141143D01*
X122304428Y-82212571D01*
X122161571Y-82212571D01*
X121661571Y-82212571D02*
X121661571Y-80712571D01*
X121018714Y-82212571D02*
X121018714Y-81426857D01*
X121090143Y-81284000D01*
X121233000Y-81212571D01*
X121447285Y-81212571D01*
X121590143Y-81284000D01*
X121661571Y-81355429D01*
X119661571Y-81212571D02*
X119661571Y-82212571D01*
X120304428Y-81212571D02*
X120304428Y-81998286D01*
X120233000Y-82141143D01*
X120090142Y-82212571D01*
X119875857Y-82212571D01*
X119733000Y-82141143D01*
X119661571Y-82069714D01*
X118947285Y-82212571D02*
X118947285Y-80712571D01*
X118947285Y-81284000D02*
X118804428Y-81212571D01*
X118518714Y-81212571D01*
X118375857Y-81284000D01*
X118304428Y-81355429D01*
X118232999Y-81498286D01*
X118232999Y-81926857D01*
X118304428Y-82069714D01*
X118375857Y-82141143D01*
X118518714Y-82212571D01*
X118804428Y-82212571D01*
X118947285Y-82141143D01*
X117590142Y-82069714D02*
X117518714Y-82141143D01*
X117590142Y-82212571D01*
X117661571Y-82141143D01*
X117590142Y-82069714D01*
X117590142Y-82212571D01*
X116232999Y-82141143D02*
X116375856Y-82212571D01*
X116661570Y-82212571D01*
X116804428Y-82141143D01*
X116875856Y-82069714D01*
X116947285Y-81926857D01*
X116947285Y-81498286D01*
X116875856Y-81355429D01*
X116804428Y-81284000D01*
X116661570Y-81212571D01*
X116375856Y-81212571D01*
X116232999Y-81284000D01*
X115375856Y-82212571D02*
X115518714Y-82141143D01*
X115590142Y-82069714D01*
X115661571Y-81926857D01*
X115661571Y-81498286D01*
X115590142Y-81355429D01*
X115518714Y-81284000D01*
X115375856Y-81212571D01*
X115161571Y-81212571D01*
X115018714Y-81284000D01*
X114947285Y-81355429D01*
X114875856Y-81498286D01*
X114875856Y-81926857D01*
X114947285Y-82069714D01*
X115018714Y-82141143D01*
X115161571Y-82212571D01*
X115375856Y-82212571D01*
X114232999Y-82212571D02*
X114232999Y-81212571D01*
X114232999Y-81355429D02*
X114161571Y-81284000D01*
X114018713Y-81212571D01*
X113804428Y-81212571D01*
X113661571Y-81284000D01*
X113590142Y-81426857D01*
X113590142Y-82212571D01*
X113590142Y-81426857D02*
X113518713Y-81284000D01*
X113375856Y-81212571D01*
X113161571Y-81212571D01*
X113018713Y-81284000D01*
X112947285Y-81426857D01*
X112947285Y-82212571D01*
X111161571Y-80641143D02*
X112447285Y-82569714D01*
X124661571Y-84691143D02*
X124804428Y-84762571D01*
X125090142Y-84762571D01*
X125233000Y-84691143D01*
X125304428Y-84619714D01*
X125375857Y-84476857D01*
X125375857Y-84048286D01*
X125304428Y-83905429D01*
X125233000Y-83834000D01*
X125090142Y-83762571D01*
X124804428Y-83762571D01*
X124661571Y-83834000D01*
X123733000Y-83262571D02*
X123590143Y-83262571D01*
X123447286Y-83334000D01*
X123375857Y-83405429D01*
X123304428Y-83548286D01*
X123233000Y-83834000D01*
X123233000Y-84191143D01*
X123304428Y-84476857D01*
X123375857Y-84619714D01*
X123447286Y-84691143D01*
X123590143Y-84762571D01*
X123733000Y-84762571D01*
X123875857Y-84691143D01*
X123947286Y-84619714D01*
X124018714Y-84476857D01*
X124090143Y-84191143D01*
X124090143Y-83834000D01*
X124018714Y-83548286D01*
X123947286Y-83405429D01*
X123875857Y-83334000D01*
X123733000Y-83262571D01*
X122590143Y-83762571D02*
X122590143Y-85262571D01*
X122590143Y-83834000D02*
X122447286Y-83762571D01*
X122161572Y-83762571D01*
X122018715Y-83834000D01*
X121947286Y-83905429D01*
X121875857Y-84048286D01*
X121875857Y-84476857D01*
X121947286Y-84619714D01*
X122018715Y-84691143D01*
X122161572Y-84762571D01*
X122447286Y-84762571D01*
X122590143Y-84691143D01*
X121233000Y-83762571D02*
X121233000Y-85262571D01*
X121233000Y-83834000D02*
X121090143Y-83762571D01*
X120804429Y-83762571D01*
X120661572Y-83834000D01*
X120590143Y-83905429D01*
X120518714Y-84048286D01*
X120518714Y-84476857D01*
X120590143Y-84619714D01*
X120661572Y-84691143D01*
X120804429Y-84762571D01*
X121090143Y-84762571D01*
X121233000Y-84691143D01*
X119304429Y-84691143D02*
X119447286Y-84762571D01*
X119733000Y-84762571D01*
X119875857Y-84691143D01*
X119947286Y-84548286D01*
X119947286Y-83976857D01*
X119875857Y-83834000D01*
X119733000Y-83762571D01*
X119447286Y-83762571D01*
X119304429Y-83834000D01*
X119233000Y-83976857D01*
X119233000Y-84119714D01*
X119947286Y-84262571D01*
X118590143Y-84762571D02*
X118590143Y-83762571D01*
X118590143Y-84048286D02*
X118518715Y-83905429D01*
X118447286Y-83834000D01*
X118304429Y-83762571D01*
X118161572Y-83762571D01*
X117018715Y-84762571D02*
X117018715Y-83262571D01*
X117018715Y-84691143D02*
X117161572Y-84762571D01*
X117447286Y-84762571D01*
X117590144Y-84691143D01*
X117661572Y-84619714D01*
X117733001Y-84476857D01*
X117733001Y-84048286D01*
X117661572Y-83905429D01*
X117590144Y-83834000D01*
X117447286Y-83762571D01*
X117161572Y-83762571D01*
X117018715Y-83834000D01*
X116304429Y-84762571D02*
X116304429Y-83762571D01*
X116304429Y-84048286D02*
X116233001Y-83905429D01*
X116161572Y-83834000D01*
X116018715Y-83762571D01*
X115875858Y-83762571D01*
X114733001Y-84762571D02*
X114733001Y-83976857D01*
X114804430Y-83834000D01*
X114947287Y-83762571D01*
X115233001Y-83762571D01*
X115375858Y-83834000D01*
X114733001Y-84691143D02*
X114875858Y-84762571D01*
X115233001Y-84762571D01*
X115375858Y-84691143D01*
X115447287Y-84548286D01*
X115447287Y-84405429D01*
X115375858Y-84262571D01*
X115233001Y-84191143D01*
X114875858Y-84191143D01*
X114733001Y-84119714D01*
X113375858Y-83762571D02*
X113375858Y-84976857D01*
X113447287Y-85119714D01*
X113518715Y-85191143D01*
X113661572Y-85262571D01*
X113875858Y-85262571D01*
X114018715Y-85191143D01*
X113375858Y-84691143D02*
X113518715Y-84762571D01*
X113804429Y-84762571D01*
X113947287Y-84691143D01*
X114018715Y-84619714D01*
X114090144Y-84476857D01*
X114090144Y-84048286D01*
X114018715Y-83905429D01*
X113947287Y-83834000D01*
X113804429Y-83762571D01*
X113518715Y-83762571D01*
X113375858Y-83834000D01*
X112447286Y-84762571D02*
X112590144Y-84691143D01*
X112661572Y-84619714D01*
X112733001Y-84476857D01*
X112733001Y-84048286D01*
X112661572Y-83905429D01*
X112590144Y-83834000D01*
X112447286Y-83762571D01*
X112233001Y-83762571D01*
X112090144Y-83834000D01*
X112018715Y-83905429D01*
X111947286Y-84048286D01*
X111947286Y-84476857D01*
X112018715Y-84619714D01*
X112090144Y-84691143D01*
X112233001Y-84762571D01*
X112447286Y-84762571D01*
X111304429Y-83762571D02*
X111304429Y-84762571D01*
X111304429Y-83905429D02*
X111233001Y-83834000D01*
X111090143Y-83762571D01*
X110875858Y-83762571D01*
X110733001Y-83834000D01*
X110661572Y-83976857D01*
X110661572Y-84762571D01*
D12*
X101184000Y-46324000D02*
X101184000Y-45624000D01*
X99984000Y-45624000D02*
X99984000Y-46324000D01*
X101889000Y-47656000D02*
X101889000Y-48356000D01*
X103089000Y-48356000D02*
X103089000Y-47656000D01*
X112811000Y-67722000D02*
X112811000Y-68422000D01*
X114011000Y-68422000D02*
X114011000Y-67722000D01*
X120935000Y-48860000D02*
X121635000Y-48860000D01*
X121635000Y-47660000D02*
X120935000Y-47660000D01*
X120935000Y-51146000D02*
X121635000Y-51146000D01*
X121635000Y-49946000D02*
X120935000Y-49946000D01*
X117891000Y-67722000D02*
X117891000Y-68422000D01*
X119091000Y-68422000D02*
X119091000Y-67722000D01*
X121824000Y-58766000D02*
X122524000Y-58766000D01*
X122524000Y-57566000D02*
X121824000Y-57566000D01*
X103413000Y-66706000D02*
X103413000Y-67406000D01*
X104613000Y-67406000D02*
X104613000Y-66706000D01*
X105629000Y-46324000D02*
X105629000Y-45624000D01*
X104429000Y-45624000D02*
X104429000Y-46324000D01*
X115859000Y-67722000D02*
X115859000Y-68422000D01*
X117059000Y-68422000D02*
X117059000Y-67722000D01*
X102901000Y-62449000D02*
X103601000Y-62449000D01*
X103601000Y-61249000D02*
X102901000Y-61249000D01*
X105826000Y-67722000D02*
X105826000Y-68422000D01*
X107026000Y-68422000D02*
X107026000Y-67722000D01*
X99984000Y-66960000D02*
X99984000Y-67660000D01*
X101184000Y-67660000D02*
X101184000Y-66960000D01*
X110074000Y-46324000D02*
X110074000Y-45624000D01*
X108874000Y-45624000D02*
X108874000Y-46324000D01*
X114970000Y-47021000D02*
X114970000Y-47721000D01*
X116170000Y-47721000D02*
X116170000Y-47021000D01*
X102901000Y-54067000D02*
X103601000Y-54067000D01*
X103601000Y-52867000D02*
X102901000Y-52867000D01*
X121062000Y-46955000D02*
X121762000Y-46955000D01*
X121762000Y-45755000D02*
X121062000Y-45755000D01*
X102901000Y-57496000D02*
X103601000Y-57496000D01*
X103601000Y-56296000D02*
X102901000Y-56296000D01*
X102901000Y-51400000D02*
X103601000Y-51400000D01*
X103601000Y-50200000D02*
X102901000Y-50200000D01*
X130337000Y-46513000D02*
X130337000Y-47213000D01*
X131537000Y-47213000D02*
X131537000Y-46513000D01*
X119468000Y-55634000D02*
X119468000Y-56634000D01*
X117768000Y-56634000D02*
X117768000Y-55634000D01*
X117563000Y-53856000D02*
X117563000Y-54856000D01*
X115863000Y-54856000D02*
X115863000Y-53856000D01*
X128690000Y-71620000D02*
X128690000Y-70620000D01*
X130390000Y-70620000D02*
X130390000Y-71620000D01*
X136310000Y-71620000D02*
X136310000Y-70620000D01*
X138010000Y-70620000D02*
X138010000Y-71620000D01*
X128235000Y-58262000D02*
X128235000Y-57562000D01*
X127035000Y-57562000D02*
X127035000Y-58262000D01*
X127346000Y-65882000D02*
X127346000Y-65182000D01*
X126146000Y-65182000D02*
X126146000Y-65882000D01*
X136683000Y-66767000D02*
X137383000Y-66767000D01*
X137383000Y-65567000D02*
X136683000Y-65567000D01*
X138653000Y-58709000D02*
X137953000Y-58709000D01*
X137953000Y-59909000D02*
X138653000Y-59909000D01*
X135474000Y-57754000D02*
X135474000Y-57054000D01*
X134274000Y-57054000D02*
X134274000Y-57754000D01*
X137953000Y-64862000D02*
X138653000Y-64862000D01*
X138653000Y-63662000D02*
X137953000Y-63662000D01*
X131287000Y-65948000D02*
X130587000Y-65948000D01*
X130587000Y-67148000D02*
X131287000Y-67148000D01*
X137953000Y-61941000D02*
X138653000Y-61941000D01*
X138653000Y-60741000D02*
X137953000Y-60741000D01*
X132877000Y-65944000D02*
X132877000Y-66644000D01*
X134077000Y-66644000D02*
X134077000Y-65944000D01*
X117768000Y-63492000D02*
X117768000Y-62492000D01*
X119468000Y-62492000D02*
X119468000Y-63492000D01*
X115863000Y-61714000D02*
X115863000Y-60714000D01*
X117563000Y-60714000D02*
X117563000Y-61714000D01*
X131230000Y-71620000D02*
X131230000Y-70620000D01*
X132930000Y-70620000D02*
X132930000Y-71620000D01*
X133770000Y-71620000D02*
X133770000Y-70620000D01*
X135470000Y-70620000D02*
X135470000Y-71620000D01*
X96148000Y-57820000D02*
X96148000Y-59020000D01*
X97908000Y-59020000D02*
X97908000Y-57820000D01*
X97908000Y-64100000D02*
X97908000Y-62900000D01*
X96148000Y-62900000D02*
X96148000Y-64100000D01*
X96148000Y-52740000D02*
X96148000Y-53940000D01*
X97908000Y-53940000D02*
X97908000Y-52740000D01*
X106290000Y-80737000D02*
X106290000Y-79537000D01*
X104530000Y-79537000D02*
X104530000Y-80737000D01*
X108957000Y-80737000D02*
X108957000Y-79537000D01*
X107197000Y-79537000D02*
X107197000Y-80737000D01*
X103750000Y-80737000D02*
X103750000Y-79537000D01*
X101990000Y-79537000D02*
X101990000Y-80737000D01*
X114690000Y-74330000D02*
X114690000Y-75530000D01*
X116450000Y-75530000D02*
X116450000Y-74330000D01*
X131660000Y-82050000D02*
X131660000Y-83050000D01*
X129960000Y-83050000D02*
X129960000Y-82050000D01*
X121824000Y-64481000D02*
X122524000Y-64481000D01*
X122524000Y-63281000D02*
X121824000Y-63281000D01*
D13*
X99417143Y-45553334D02*
X99464762Y-45505715D01*
X99512381Y-45362858D01*
X99512381Y-45267620D01*
X99464762Y-45124762D01*
X99369524Y-45029524D01*
X99274286Y-44981905D01*
X99083810Y-44934286D01*
X98940952Y-44934286D01*
X98750476Y-44981905D01*
X98655238Y-45029524D01*
X98560000Y-45124762D01*
X98512381Y-45267620D01*
X98512381Y-45362858D01*
X98560000Y-45505715D01*
X98607619Y-45553334D01*
X99512381Y-46505715D02*
X99512381Y-45934286D01*
X99512381Y-46220000D02*
X98512381Y-46220000D01*
X98655238Y-46124762D01*
X98750476Y-46029524D01*
X98798095Y-45934286D01*
X102973143Y-44664334D02*
X103020762Y-44616715D01*
X103068381Y-44473858D01*
X103068381Y-44378620D01*
X103020762Y-44235762D01*
X102925524Y-44140524D01*
X102830286Y-44092905D01*
X102639810Y-44045286D01*
X102496952Y-44045286D01*
X102306476Y-44092905D01*
X102211238Y-44140524D01*
X102116000Y-44235762D01*
X102068381Y-44378620D01*
X102068381Y-44473858D01*
X102116000Y-44616715D01*
X102163619Y-44664334D01*
X102163619Y-45045286D02*
X102116000Y-45092905D01*
X102068381Y-45188143D01*
X102068381Y-45426239D01*
X102116000Y-45521477D01*
X102163619Y-45569096D01*
X102258857Y-45616715D01*
X102354095Y-45616715D01*
X102496952Y-45569096D01*
X103068381Y-44997667D01*
X103068381Y-45616715D01*
X112371143Y-67905334D02*
X112418762Y-67857715D01*
X112466381Y-67714858D01*
X112466381Y-67619620D01*
X112418762Y-67476762D01*
X112323524Y-67381524D01*
X112228286Y-67333905D01*
X112037810Y-67286286D01*
X111894952Y-67286286D01*
X111704476Y-67333905D01*
X111609238Y-67381524D01*
X111514000Y-67476762D01*
X111466381Y-67619620D01*
X111466381Y-67714858D01*
X111514000Y-67857715D01*
X111561619Y-67905334D01*
X111466381Y-68238667D02*
X111466381Y-68857715D01*
X111847333Y-68524381D01*
X111847333Y-68667239D01*
X111894952Y-68762477D01*
X111942571Y-68810096D01*
X112037810Y-68857715D01*
X112275905Y-68857715D01*
X112371143Y-68810096D01*
X112418762Y-68762477D01*
X112466381Y-68667239D01*
X112466381Y-68381524D01*
X112418762Y-68286286D01*
X112371143Y-68238667D01*
X124626666Y-48617143D02*
X124674285Y-48664762D01*
X124817142Y-48712381D01*
X124912380Y-48712381D01*
X125055238Y-48664762D01*
X125150476Y-48569524D01*
X125198095Y-48474286D01*
X125245714Y-48283810D01*
X125245714Y-48140952D01*
X125198095Y-47950476D01*
X125150476Y-47855238D01*
X125055238Y-47760000D01*
X124912380Y-47712381D01*
X124817142Y-47712381D01*
X124674285Y-47760000D01*
X124626666Y-47807619D01*
X123769523Y-48045714D02*
X123769523Y-48712381D01*
X124007619Y-47664762D02*
X124245714Y-48379048D01*
X123626666Y-48379048D01*
X124499666Y-50903143D02*
X124547285Y-50950762D01*
X124690142Y-50998381D01*
X124785380Y-50998381D01*
X124928238Y-50950762D01*
X125023476Y-50855524D01*
X125071095Y-50760286D01*
X125118714Y-50569810D01*
X125118714Y-50426952D01*
X125071095Y-50236476D01*
X125023476Y-50141238D01*
X124928238Y-50046000D01*
X124785380Y-49998381D01*
X124690142Y-49998381D01*
X124547285Y-50046000D01*
X124499666Y-50093619D01*
X123594904Y-49998381D02*
X124071095Y-49998381D01*
X124118714Y-50474571D01*
X124071095Y-50426952D01*
X123975857Y-50379333D01*
X123737761Y-50379333D01*
X123642523Y-50426952D01*
X123594904Y-50474571D01*
X123547285Y-50569810D01*
X123547285Y-50807905D01*
X123594904Y-50903143D01*
X123642523Y-50950762D01*
X123737761Y-50998381D01*
X123975857Y-50998381D01*
X124071095Y-50950762D01*
X124118714Y-50903143D01*
X120372143Y-67905334D02*
X120419762Y-67857715D01*
X120467381Y-67714858D01*
X120467381Y-67619620D01*
X120419762Y-67476762D01*
X120324524Y-67381524D01*
X120229286Y-67333905D01*
X120038810Y-67286286D01*
X119895952Y-67286286D01*
X119705476Y-67333905D01*
X119610238Y-67381524D01*
X119515000Y-67476762D01*
X119467381Y-67619620D01*
X119467381Y-67714858D01*
X119515000Y-67857715D01*
X119562619Y-67905334D01*
X119467381Y-68762477D02*
X119467381Y-68572000D01*
X119515000Y-68476762D01*
X119562619Y-68429143D01*
X119705476Y-68333905D01*
X119895952Y-68286286D01*
X120276905Y-68286286D01*
X120372143Y-68333905D01*
X120419762Y-68381524D01*
X120467381Y-68476762D01*
X120467381Y-68667239D01*
X120419762Y-68762477D01*
X120372143Y-68810096D01*
X120276905Y-68857715D01*
X120038810Y-68857715D01*
X119943571Y-68810096D01*
X119895952Y-68762477D01*
X119848333Y-68667239D01*
X119848333Y-68476762D01*
X119895952Y-68381524D01*
X119943571Y-68333905D01*
X120038810Y-68286286D01*
X122340666Y-59920143D02*
X122388285Y-59967762D01*
X122531142Y-60015381D01*
X122626380Y-60015381D01*
X122769238Y-59967762D01*
X122864476Y-59872524D01*
X122912095Y-59777286D01*
X122959714Y-59586810D01*
X122959714Y-59443952D01*
X122912095Y-59253476D01*
X122864476Y-59158238D01*
X122769238Y-59063000D01*
X122626380Y-59015381D01*
X122531142Y-59015381D01*
X122388285Y-59063000D01*
X122340666Y-59110619D01*
X122007333Y-59015381D02*
X121340666Y-59015381D01*
X121769238Y-60015381D01*
X102719143Y-66889334D02*
X102766762Y-66841715D01*
X102814381Y-66698858D01*
X102814381Y-66603620D01*
X102766762Y-66460762D01*
X102671524Y-66365524D01*
X102576286Y-66317905D01*
X102385810Y-66270286D01*
X102242952Y-66270286D01*
X102052476Y-66317905D01*
X101957238Y-66365524D01*
X101862000Y-66460762D01*
X101814381Y-66603620D01*
X101814381Y-66698858D01*
X101862000Y-66841715D01*
X101909619Y-66889334D01*
X102242952Y-67460762D02*
X102195333Y-67365524D01*
X102147714Y-67317905D01*
X102052476Y-67270286D01*
X102004857Y-67270286D01*
X101909619Y-67317905D01*
X101862000Y-67365524D01*
X101814381Y-67460762D01*
X101814381Y-67651239D01*
X101862000Y-67746477D01*
X101909619Y-67794096D01*
X102004857Y-67841715D01*
X102052476Y-67841715D01*
X102147714Y-67794096D01*
X102195333Y-67746477D01*
X102242952Y-67651239D01*
X102242952Y-67460762D01*
X102290571Y-67365524D01*
X102338190Y-67317905D01*
X102433429Y-67270286D01*
X102623905Y-67270286D01*
X102719143Y-67317905D01*
X102766762Y-67365524D01*
X102814381Y-67460762D01*
X102814381Y-67651239D01*
X102766762Y-67746477D01*
X102719143Y-67794096D01*
X102623905Y-67841715D01*
X102433429Y-67841715D01*
X102338190Y-67794096D01*
X102290571Y-67746477D01*
X102242952Y-67651239D01*
X106783143Y-45807334D02*
X106830762Y-45759715D01*
X106878381Y-45616858D01*
X106878381Y-45521620D01*
X106830762Y-45378762D01*
X106735524Y-45283524D01*
X106640286Y-45235905D01*
X106449810Y-45188286D01*
X106306952Y-45188286D01*
X106116476Y-45235905D01*
X106021238Y-45283524D01*
X105926000Y-45378762D01*
X105878381Y-45521620D01*
X105878381Y-45616858D01*
X105926000Y-45759715D01*
X105973619Y-45807334D01*
X106878381Y-46283524D02*
X106878381Y-46474000D01*
X106830762Y-46569239D01*
X106783143Y-46616858D01*
X106640286Y-46712096D01*
X106449810Y-46759715D01*
X106068857Y-46759715D01*
X105973619Y-46712096D01*
X105926000Y-46664477D01*
X105878381Y-46569239D01*
X105878381Y-46378762D01*
X105926000Y-46283524D01*
X105973619Y-46235905D01*
X106068857Y-46188286D01*
X106306952Y-46188286D01*
X106402190Y-46235905D01*
X106449810Y-46283524D01*
X106497429Y-46378762D01*
X106497429Y-46569239D01*
X106449810Y-46664477D01*
X106402190Y-46712096D01*
X106306952Y-46759715D01*
X115419143Y-67429143D02*
X115466762Y-67381524D01*
X115514381Y-67238667D01*
X115514381Y-67143429D01*
X115466762Y-67000571D01*
X115371524Y-66905333D01*
X115276286Y-66857714D01*
X115085810Y-66810095D01*
X114942952Y-66810095D01*
X114752476Y-66857714D01*
X114657238Y-66905333D01*
X114562000Y-67000571D01*
X114514381Y-67143429D01*
X114514381Y-67238667D01*
X114562000Y-67381524D01*
X114609619Y-67429143D01*
X115514381Y-68381524D02*
X115514381Y-67810095D01*
X115514381Y-68095809D02*
X114514381Y-68095809D01*
X114657238Y-68000571D01*
X114752476Y-67905333D01*
X114800095Y-67810095D01*
X114514381Y-69000571D02*
X114514381Y-69095810D01*
X114562000Y-69191048D01*
X114609619Y-69238667D01*
X114704857Y-69286286D01*
X114895333Y-69333905D01*
X115133429Y-69333905D01*
X115323905Y-69286286D01*
X115419143Y-69238667D01*
X115466762Y-69191048D01*
X115514381Y-69095810D01*
X115514381Y-69000571D01*
X115466762Y-68905333D01*
X115419143Y-68857714D01*
X115323905Y-68810095D01*
X115133429Y-68762476D01*
X114895333Y-68762476D01*
X114704857Y-68810095D01*
X114609619Y-68857714D01*
X114562000Y-68905333D01*
X114514381Y-69000571D01*
X103893857Y-63603143D02*
X103941476Y-63650762D01*
X104084333Y-63698381D01*
X104179571Y-63698381D01*
X104322429Y-63650762D01*
X104417667Y-63555524D01*
X104465286Y-63460286D01*
X104512905Y-63269810D01*
X104512905Y-63126952D01*
X104465286Y-62936476D01*
X104417667Y-62841238D01*
X104322429Y-62746000D01*
X104179571Y-62698381D01*
X104084333Y-62698381D01*
X103941476Y-62746000D01*
X103893857Y-62793619D01*
X102941476Y-63698381D02*
X103512905Y-63698381D01*
X103227191Y-63698381D02*
X103227191Y-62698381D01*
X103322429Y-62841238D01*
X103417667Y-62936476D01*
X103512905Y-62984095D01*
X101989095Y-63698381D02*
X102560524Y-63698381D01*
X102274810Y-63698381D02*
X102274810Y-62698381D01*
X102370048Y-62841238D01*
X102465286Y-62936476D01*
X102560524Y-62984095D01*
X108307143Y-67429143D02*
X108354762Y-67381524D01*
X108402381Y-67238667D01*
X108402381Y-67143429D01*
X108354762Y-67000571D01*
X108259524Y-66905333D01*
X108164286Y-66857714D01*
X107973810Y-66810095D01*
X107830952Y-66810095D01*
X107640476Y-66857714D01*
X107545238Y-66905333D01*
X107450000Y-67000571D01*
X107402381Y-67143429D01*
X107402381Y-67238667D01*
X107450000Y-67381524D01*
X107497619Y-67429143D01*
X108402381Y-68381524D02*
X108402381Y-67810095D01*
X108402381Y-68095809D02*
X107402381Y-68095809D01*
X107545238Y-68000571D01*
X107640476Y-67905333D01*
X107688095Y-67810095D01*
X107497619Y-68762476D02*
X107450000Y-68810095D01*
X107402381Y-68905333D01*
X107402381Y-69143429D01*
X107450000Y-69238667D01*
X107497619Y-69286286D01*
X107592857Y-69333905D01*
X107688095Y-69333905D01*
X107830952Y-69286286D01*
X108402381Y-68714857D01*
X108402381Y-69333905D01*
X99417143Y-66667143D02*
X99464762Y-66619524D01*
X99512381Y-66476667D01*
X99512381Y-66381429D01*
X99464762Y-66238571D01*
X99369524Y-66143333D01*
X99274286Y-66095714D01*
X99083810Y-66048095D01*
X98940952Y-66048095D01*
X98750476Y-66095714D01*
X98655238Y-66143333D01*
X98560000Y-66238571D01*
X98512381Y-66381429D01*
X98512381Y-66476667D01*
X98560000Y-66619524D01*
X98607619Y-66667143D01*
X99512381Y-67619524D02*
X99512381Y-67048095D01*
X99512381Y-67333809D02*
X98512381Y-67333809D01*
X98655238Y-67238571D01*
X98750476Y-67143333D01*
X98798095Y-67048095D01*
X98512381Y-67952857D02*
X98512381Y-68571905D01*
X98893333Y-68238571D01*
X98893333Y-68381429D01*
X98940952Y-68476667D01*
X98988571Y-68524286D01*
X99083810Y-68571905D01*
X99321905Y-68571905D01*
X99417143Y-68524286D01*
X99464762Y-68476667D01*
X99512381Y-68381429D01*
X99512381Y-68095714D01*
X99464762Y-68000476D01*
X99417143Y-67952857D01*
X111355143Y-45331143D02*
X111402762Y-45283524D01*
X111450381Y-45140667D01*
X111450381Y-45045429D01*
X111402762Y-44902571D01*
X111307524Y-44807333D01*
X111212286Y-44759714D01*
X111021810Y-44712095D01*
X110878952Y-44712095D01*
X110688476Y-44759714D01*
X110593238Y-44807333D01*
X110498000Y-44902571D01*
X110450381Y-45045429D01*
X110450381Y-45140667D01*
X110498000Y-45283524D01*
X110545619Y-45331143D01*
X111450381Y-46283524D02*
X111450381Y-45712095D01*
X111450381Y-45997809D02*
X110450381Y-45997809D01*
X110593238Y-45902571D01*
X110688476Y-45807333D01*
X110736095Y-45712095D01*
X110783714Y-47140667D02*
X111450381Y-47140667D01*
X110402762Y-46902571D02*
X111117048Y-46664476D01*
X111117048Y-47283524D01*
X114403143Y-46601143D02*
X114450762Y-46553524D01*
X114498381Y-46410667D01*
X114498381Y-46315429D01*
X114450762Y-46172571D01*
X114355524Y-46077333D01*
X114260286Y-46029714D01*
X114069810Y-45982095D01*
X113926952Y-45982095D01*
X113736476Y-46029714D01*
X113641238Y-46077333D01*
X113546000Y-46172571D01*
X113498381Y-46315429D01*
X113498381Y-46410667D01*
X113546000Y-46553524D01*
X113593619Y-46601143D01*
X114498381Y-47553524D02*
X114498381Y-46982095D01*
X114498381Y-47267809D02*
X113498381Y-47267809D01*
X113641238Y-47172571D01*
X113736476Y-47077333D01*
X113784095Y-46982095D01*
X113498381Y-48458286D02*
X113498381Y-47982095D01*
X113974571Y-47934476D01*
X113926952Y-47982095D01*
X113879333Y-48077333D01*
X113879333Y-48315429D01*
X113926952Y-48410667D01*
X113974571Y-48458286D01*
X114069810Y-48505905D01*
X114307905Y-48505905D01*
X114403143Y-48458286D01*
X114450762Y-48410667D01*
X114498381Y-48315429D01*
X114498381Y-48077333D01*
X114450762Y-47982095D01*
X114403143Y-47934476D01*
X107195857Y-53951143D02*
X107243476Y-53998762D01*
X107386333Y-54046381D01*
X107481571Y-54046381D01*
X107624429Y-53998762D01*
X107719667Y-53903524D01*
X107767286Y-53808286D01*
X107814905Y-53617810D01*
X107814905Y-53474952D01*
X107767286Y-53284476D01*
X107719667Y-53189238D01*
X107624429Y-53094000D01*
X107481571Y-53046381D01*
X107386333Y-53046381D01*
X107243476Y-53094000D01*
X107195857Y-53141619D01*
X106243476Y-54046381D02*
X106814905Y-54046381D01*
X106529191Y-54046381D02*
X106529191Y-53046381D01*
X106624429Y-53189238D01*
X106719667Y-53284476D01*
X106814905Y-53332095D01*
X105386333Y-53046381D02*
X105576810Y-53046381D01*
X105672048Y-53094000D01*
X105719667Y-53141619D01*
X105814905Y-53284476D01*
X105862524Y-53474952D01*
X105862524Y-53855905D01*
X105814905Y-53951143D01*
X105767286Y-53998762D01*
X105672048Y-54046381D01*
X105481571Y-54046381D01*
X105386333Y-53998762D01*
X105338714Y-53951143D01*
X105291095Y-53855905D01*
X105291095Y-53617810D01*
X105338714Y-53522571D01*
X105386333Y-53474952D01*
X105481571Y-53427333D01*
X105672048Y-53427333D01*
X105767286Y-53474952D01*
X105814905Y-53522571D01*
X105862524Y-53617810D01*
X125610857Y-46839143D02*
X125658476Y-46886762D01*
X125801333Y-46934381D01*
X125896571Y-46934381D01*
X126039429Y-46886762D01*
X126134667Y-46791524D01*
X126182286Y-46696286D01*
X126229905Y-46505810D01*
X126229905Y-46362952D01*
X126182286Y-46172476D01*
X126134667Y-46077238D01*
X126039429Y-45982000D01*
X125896571Y-45934381D01*
X125801333Y-45934381D01*
X125658476Y-45982000D01*
X125610857Y-46029619D01*
X124658476Y-46934381D02*
X125229905Y-46934381D01*
X124944191Y-46934381D02*
X124944191Y-45934381D01*
X125039429Y-46077238D01*
X125134667Y-46172476D01*
X125229905Y-46220095D01*
X124325143Y-45934381D02*
X123658476Y-45934381D01*
X124087048Y-46934381D01*
X107195857Y-57380143D02*
X107243476Y-57427762D01*
X107386333Y-57475381D01*
X107481571Y-57475381D01*
X107624429Y-57427762D01*
X107719667Y-57332524D01*
X107767286Y-57237286D01*
X107814905Y-57046810D01*
X107814905Y-56903952D01*
X107767286Y-56713476D01*
X107719667Y-56618238D01*
X107624429Y-56523000D01*
X107481571Y-56475381D01*
X107386333Y-56475381D01*
X107243476Y-56523000D01*
X107195857Y-56570619D01*
X106243476Y-57475381D02*
X106814905Y-57475381D01*
X106529191Y-57475381D02*
X106529191Y-56475381D01*
X106624429Y-56618238D01*
X106719667Y-56713476D01*
X106814905Y-56761095D01*
X105672048Y-56903952D02*
X105767286Y-56856333D01*
X105814905Y-56808714D01*
X105862524Y-56713476D01*
X105862524Y-56665857D01*
X105814905Y-56570619D01*
X105767286Y-56523000D01*
X105672048Y-56475381D01*
X105481571Y-56475381D01*
X105386333Y-56523000D01*
X105338714Y-56570619D01*
X105291095Y-56665857D01*
X105291095Y-56713476D01*
X105338714Y-56808714D01*
X105386333Y-56856333D01*
X105481571Y-56903952D01*
X105672048Y-56903952D01*
X105767286Y-56951571D01*
X105814905Y-56999190D01*
X105862524Y-57094429D01*
X105862524Y-57284905D01*
X105814905Y-57380143D01*
X105767286Y-57427762D01*
X105672048Y-57475381D01*
X105481571Y-57475381D01*
X105386333Y-57427762D01*
X105338714Y-57380143D01*
X105291095Y-57284905D01*
X105291095Y-57094429D01*
X105338714Y-56999190D01*
X105386333Y-56951571D01*
X105481571Y-56903952D01*
X107195857Y-51157143D02*
X107243476Y-51204762D01*
X107386333Y-51252381D01*
X107481571Y-51252381D01*
X107624429Y-51204762D01*
X107719667Y-51109524D01*
X107767286Y-51014286D01*
X107814905Y-50823810D01*
X107814905Y-50680952D01*
X107767286Y-50490476D01*
X107719667Y-50395238D01*
X107624429Y-50300000D01*
X107481571Y-50252381D01*
X107386333Y-50252381D01*
X107243476Y-50300000D01*
X107195857Y-50347619D01*
X106243476Y-51252381D02*
X106814905Y-51252381D01*
X106529191Y-51252381D02*
X106529191Y-50252381D01*
X106624429Y-50395238D01*
X106719667Y-50490476D01*
X106814905Y-50538095D01*
X105767286Y-51252381D02*
X105576810Y-51252381D01*
X105481571Y-51204762D01*
X105433952Y-51157143D01*
X105338714Y-51014286D01*
X105291095Y-50823810D01*
X105291095Y-50442857D01*
X105338714Y-50347619D01*
X105386333Y-50300000D01*
X105481571Y-50252381D01*
X105672048Y-50252381D01*
X105767286Y-50300000D01*
X105814905Y-50347619D01*
X105862524Y-50442857D01*
X105862524Y-50680952D01*
X105814905Y-50776190D01*
X105767286Y-50823810D01*
X105672048Y-50871429D01*
X105481571Y-50871429D01*
X105386333Y-50823810D01*
X105338714Y-50776190D01*
X105291095Y-50680952D01*
X129897143Y-46220143D02*
X129944762Y-46172524D01*
X129992381Y-46029667D01*
X129992381Y-45934429D01*
X129944762Y-45791571D01*
X129849524Y-45696333D01*
X129754286Y-45648714D01*
X129563810Y-45601095D01*
X129420952Y-45601095D01*
X129230476Y-45648714D01*
X129135238Y-45696333D01*
X129040000Y-45791571D01*
X128992381Y-45934429D01*
X128992381Y-46029667D01*
X129040000Y-46172524D01*
X129087619Y-46220143D01*
X129087619Y-46601095D02*
X129040000Y-46648714D01*
X128992381Y-46743952D01*
X128992381Y-46982048D01*
X129040000Y-47077286D01*
X129087619Y-47124905D01*
X129182857Y-47172524D01*
X129278095Y-47172524D01*
X129420952Y-47124905D01*
X129992381Y-46553476D01*
X129992381Y-47172524D01*
X128992381Y-47791571D02*
X128992381Y-47886810D01*
X129040000Y-47982048D01*
X129087619Y-48029667D01*
X129182857Y-48077286D01*
X129373333Y-48124905D01*
X129611429Y-48124905D01*
X129801905Y-48077286D01*
X129897143Y-48029667D01*
X129944762Y-47982048D01*
X129992381Y-47886810D01*
X129992381Y-47791571D01*
X129944762Y-47696333D01*
X129897143Y-47648714D01*
X129801905Y-47601095D01*
X129611429Y-47553476D01*
X129373333Y-47553476D01*
X129182857Y-47601095D01*
X129087619Y-47648714D01*
X129040000Y-47696333D01*
X128992381Y-47791571D01*
X120753143Y-54983143D02*
X120800762Y-54935524D01*
X120848381Y-54792667D01*
X120848381Y-54697429D01*
X120800762Y-54554571D01*
X120705524Y-54459333D01*
X120610286Y-54411714D01*
X120419810Y-54364095D01*
X120276952Y-54364095D01*
X120086476Y-54411714D01*
X119991238Y-54459333D01*
X119896000Y-54554571D01*
X119848381Y-54697429D01*
X119848381Y-54792667D01*
X119896000Y-54935524D01*
X119943619Y-54983143D01*
X119943619Y-55364095D02*
X119896000Y-55411714D01*
X119848381Y-55506952D01*
X119848381Y-55745048D01*
X119896000Y-55840286D01*
X119943619Y-55887905D01*
X120038857Y-55935524D01*
X120134095Y-55935524D01*
X120276952Y-55887905D01*
X120848381Y-55316476D01*
X120848381Y-55935524D01*
X119943619Y-56316476D02*
X119896000Y-56364095D01*
X119848381Y-56459333D01*
X119848381Y-56697429D01*
X119896000Y-56792667D01*
X119943619Y-56840286D01*
X120038857Y-56887905D01*
X120134095Y-56887905D01*
X120276952Y-56840286D01*
X120848381Y-56268857D01*
X120848381Y-56887905D01*
X115419143Y-53205143D02*
X115466762Y-53157524D01*
X115514381Y-53014667D01*
X115514381Y-52919429D01*
X115466762Y-52776571D01*
X115371524Y-52681333D01*
X115276286Y-52633714D01*
X115085810Y-52586095D01*
X114942952Y-52586095D01*
X114752476Y-52633714D01*
X114657238Y-52681333D01*
X114562000Y-52776571D01*
X114514381Y-52919429D01*
X114514381Y-53014667D01*
X114562000Y-53157524D01*
X114609619Y-53205143D01*
X114609619Y-53586095D02*
X114562000Y-53633714D01*
X114514381Y-53728952D01*
X114514381Y-53967048D01*
X114562000Y-54062286D01*
X114609619Y-54109905D01*
X114704857Y-54157524D01*
X114800095Y-54157524D01*
X114942952Y-54109905D01*
X115514381Y-53538476D01*
X115514381Y-54157524D01*
X114514381Y-54490857D02*
X114514381Y-55109905D01*
X114895333Y-54776571D01*
X114895333Y-54919429D01*
X114942952Y-55014667D01*
X114990571Y-55062286D01*
X115085810Y-55109905D01*
X115323905Y-55109905D01*
X115419143Y-55062286D01*
X115466762Y-55014667D01*
X115514381Y-54919429D01*
X115514381Y-54633714D01*
X115466762Y-54538476D01*
X115419143Y-54490857D01*
X129770143Y-74414143D02*
X129817762Y-74366524D01*
X129865381Y-74223667D01*
X129865381Y-74128429D01*
X129817762Y-73985571D01*
X129722524Y-73890333D01*
X129627286Y-73842714D01*
X129436810Y-73795095D01*
X129293952Y-73795095D01*
X129103476Y-73842714D01*
X129008238Y-73890333D01*
X128913000Y-73985571D01*
X128865381Y-74128429D01*
X128865381Y-74223667D01*
X128913000Y-74366524D01*
X128960619Y-74414143D01*
X128960619Y-74795095D02*
X128913000Y-74842714D01*
X128865381Y-74937952D01*
X128865381Y-75176048D01*
X128913000Y-75271286D01*
X128960619Y-75318905D01*
X129055857Y-75366524D01*
X129151095Y-75366524D01*
X129293952Y-75318905D01*
X129865381Y-74747476D01*
X129865381Y-75366524D01*
X129293952Y-75937952D02*
X129246333Y-75842714D01*
X129198714Y-75795095D01*
X129103476Y-75747476D01*
X129055857Y-75747476D01*
X128960619Y-75795095D01*
X128913000Y-75842714D01*
X128865381Y-75937952D01*
X128865381Y-76128429D01*
X128913000Y-76223667D01*
X128960619Y-76271286D01*
X129055857Y-76318905D01*
X129103476Y-76318905D01*
X129198714Y-76271286D01*
X129246333Y-76223667D01*
X129293952Y-76128429D01*
X129293952Y-75937952D01*
X129341571Y-75842714D01*
X129389190Y-75795095D01*
X129484429Y-75747476D01*
X129674905Y-75747476D01*
X129770143Y-75795095D01*
X129817762Y-75842714D01*
X129865381Y-75937952D01*
X129865381Y-76128429D01*
X129817762Y-76223667D01*
X129770143Y-76271286D01*
X129674905Y-76318905D01*
X129484429Y-76318905D01*
X129389190Y-76271286D01*
X129341571Y-76223667D01*
X129293952Y-76128429D01*
X137517143Y-74414143D02*
X137564762Y-74366524D01*
X137612381Y-74223667D01*
X137612381Y-74128429D01*
X137564762Y-73985571D01*
X137469524Y-73890333D01*
X137374286Y-73842714D01*
X137183810Y-73795095D01*
X137040952Y-73795095D01*
X136850476Y-73842714D01*
X136755238Y-73890333D01*
X136660000Y-73985571D01*
X136612381Y-74128429D01*
X136612381Y-74223667D01*
X136660000Y-74366524D01*
X136707619Y-74414143D01*
X136612381Y-74747476D02*
X136612381Y-75366524D01*
X136993333Y-75033190D01*
X136993333Y-75176048D01*
X137040952Y-75271286D01*
X137088571Y-75318905D01*
X137183810Y-75366524D01*
X137421905Y-75366524D01*
X137517143Y-75318905D01*
X137564762Y-75271286D01*
X137612381Y-75176048D01*
X137612381Y-74890333D01*
X137564762Y-74795095D01*
X137517143Y-74747476D01*
X137612381Y-76318905D02*
X137612381Y-75747476D01*
X137612381Y-76033190D02*
X136612381Y-76033190D01*
X136755238Y-75937952D01*
X136850476Y-75842714D01*
X136898095Y-75747476D01*
X129516143Y-57269143D02*
X129563762Y-57221524D01*
X129611381Y-57078667D01*
X129611381Y-56983429D01*
X129563762Y-56840571D01*
X129468524Y-56745333D01*
X129373286Y-56697714D01*
X129182810Y-56650095D01*
X129039952Y-56650095D01*
X128849476Y-56697714D01*
X128754238Y-56745333D01*
X128659000Y-56840571D01*
X128611381Y-56983429D01*
X128611381Y-57078667D01*
X128659000Y-57221524D01*
X128706619Y-57269143D01*
X128611381Y-57602476D02*
X128611381Y-58221524D01*
X128992333Y-57888190D01*
X128992333Y-58031048D01*
X129039952Y-58126286D01*
X129087571Y-58173905D01*
X129182810Y-58221524D01*
X129420905Y-58221524D01*
X129516143Y-58173905D01*
X129563762Y-58126286D01*
X129611381Y-58031048D01*
X129611381Y-57745333D01*
X129563762Y-57650095D01*
X129516143Y-57602476D01*
X128706619Y-58602476D02*
X128659000Y-58650095D01*
X128611381Y-58745333D01*
X128611381Y-58983429D01*
X128659000Y-59078667D01*
X128706619Y-59126286D01*
X128801857Y-59173905D01*
X128897095Y-59173905D01*
X129039952Y-59126286D01*
X129611381Y-58554857D01*
X129611381Y-59173905D01*
X128627143Y-64635143D02*
X128674762Y-64587524D01*
X128722381Y-64444667D01*
X128722381Y-64349429D01*
X128674762Y-64206571D01*
X128579524Y-64111333D01*
X128484286Y-64063714D01*
X128293810Y-64016095D01*
X128150952Y-64016095D01*
X127960476Y-64063714D01*
X127865238Y-64111333D01*
X127770000Y-64206571D01*
X127722381Y-64349429D01*
X127722381Y-64444667D01*
X127770000Y-64587524D01*
X127817619Y-64635143D01*
X127722381Y-64968476D02*
X127722381Y-65587524D01*
X128103333Y-65254190D01*
X128103333Y-65397048D01*
X128150952Y-65492286D01*
X128198571Y-65539905D01*
X128293810Y-65587524D01*
X128531905Y-65587524D01*
X128627143Y-65539905D01*
X128674762Y-65492286D01*
X128722381Y-65397048D01*
X128722381Y-65111333D01*
X128674762Y-65016095D01*
X128627143Y-64968476D01*
X127722381Y-65920857D02*
X127722381Y-66539905D01*
X128103333Y-66206571D01*
X128103333Y-66349429D01*
X128150952Y-66444667D01*
X128198571Y-66492286D01*
X128293810Y-66539905D01*
X128531905Y-66539905D01*
X128627143Y-66492286D01*
X128674762Y-66444667D01*
X128722381Y-66349429D01*
X128722381Y-66063714D01*
X128674762Y-65968476D01*
X128627143Y-65920857D01*
X141358857Y-66651143D02*
X141406476Y-66698762D01*
X141549333Y-66746381D01*
X141644571Y-66746381D01*
X141787429Y-66698762D01*
X141882667Y-66603524D01*
X141930286Y-66508286D01*
X141977905Y-66317810D01*
X141977905Y-66174952D01*
X141930286Y-65984476D01*
X141882667Y-65889238D01*
X141787429Y-65794000D01*
X141644571Y-65746381D01*
X141549333Y-65746381D01*
X141406476Y-65794000D01*
X141358857Y-65841619D01*
X141025524Y-65746381D02*
X140406476Y-65746381D01*
X140739810Y-66127333D01*
X140596952Y-66127333D01*
X140501714Y-66174952D01*
X140454095Y-66222571D01*
X140406476Y-66317810D01*
X140406476Y-66555905D01*
X140454095Y-66651143D01*
X140501714Y-66698762D01*
X140596952Y-66746381D01*
X140882667Y-66746381D01*
X140977905Y-66698762D01*
X141025524Y-66651143D01*
X139549333Y-66079714D02*
X139549333Y-66746381D01*
X139787429Y-65698762D02*
X140025524Y-66413048D01*
X139406476Y-66413048D01*
X142374857Y-59793143D02*
X142422476Y-59840762D01*
X142565333Y-59888381D01*
X142660571Y-59888381D01*
X142803429Y-59840762D01*
X142898667Y-59745524D01*
X142946286Y-59650286D01*
X142993905Y-59459810D01*
X142993905Y-59316952D01*
X142946286Y-59126476D01*
X142898667Y-59031238D01*
X142803429Y-58936000D01*
X142660571Y-58888381D01*
X142565333Y-58888381D01*
X142422476Y-58936000D01*
X142374857Y-58983619D01*
X142041524Y-58888381D02*
X141422476Y-58888381D01*
X141755810Y-59269333D01*
X141612952Y-59269333D01*
X141517714Y-59316952D01*
X141470095Y-59364571D01*
X141422476Y-59459810D01*
X141422476Y-59697905D01*
X141470095Y-59793143D01*
X141517714Y-59840762D01*
X141612952Y-59888381D01*
X141898667Y-59888381D01*
X141993905Y-59840762D01*
X142041524Y-59793143D01*
X140517714Y-58888381D02*
X140993905Y-58888381D01*
X141041524Y-59364571D01*
X140993905Y-59316952D01*
X140898667Y-59269333D01*
X140660571Y-59269333D01*
X140565333Y-59316952D01*
X140517714Y-59364571D01*
X140470095Y-59459810D01*
X140470095Y-59697905D01*
X140517714Y-59793143D01*
X140565333Y-59840762D01*
X140660571Y-59888381D01*
X140898667Y-59888381D01*
X140993905Y-59840762D01*
X141041524Y-59793143D01*
X136882143Y-55491143D02*
X136929762Y-55443524D01*
X136977381Y-55300667D01*
X136977381Y-55205429D01*
X136929762Y-55062571D01*
X136834524Y-54967333D01*
X136739286Y-54919714D01*
X136548810Y-54872095D01*
X136405952Y-54872095D01*
X136215476Y-54919714D01*
X136120238Y-54967333D01*
X136025000Y-55062571D01*
X135977381Y-55205429D01*
X135977381Y-55300667D01*
X136025000Y-55443524D01*
X136072619Y-55491143D01*
X135977381Y-55824476D02*
X135977381Y-56443524D01*
X136358333Y-56110190D01*
X136358333Y-56253048D01*
X136405952Y-56348286D01*
X136453571Y-56395905D01*
X136548810Y-56443524D01*
X136786905Y-56443524D01*
X136882143Y-56395905D01*
X136929762Y-56348286D01*
X136977381Y-56253048D01*
X136977381Y-55967333D01*
X136929762Y-55872095D01*
X136882143Y-55824476D01*
X135977381Y-57300667D02*
X135977381Y-57110190D01*
X136025000Y-57014952D01*
X136072619Y-56967333D01*
X136215476Y-56872095D01*
X136405952Y-56824476D01*
X136786905Y-56824476D01*
X136882143Y-56872095D01*
X136929762Y-56919714D01*
X136977381Y-57014952D01*
X136977381Y-57205429D01*
X136929762Y-57300667D01*
X136882143Y-57348286D01*
X136786905Y-57395905D01*
X136548810Y-57395905D01*
X136453571Y-57348286D01*
X136405952Y-57300667D01*
X136358333Y-57205429D01*
X136358333Y-57014952D01*
X136405952Y-56919714D01*
X136453571Y-56872095D01*
X136548810Y-56824476D01*
X142501857Y-64619143D02*
X142549476Y-64666762D01*
X142692333Y-64714381D01*
X142787571Y-64714381D01*
X142930429Y-64666762D01*
X143025667Y-64571524D01*
X143073286Y-64476286D01*
X143120905Y-64285810D01*
X143120905Y-64142952D01*
X143073286Y-63952476D01*
X143025667Y-63857238D01*
X142930429Y-63762000D01*
X142787571Y-63714381D01*
X142692333Y-63714381D01*
X142549476Y-63762000D01*
X142501857Y-63809619D01*
X142168524Y-63714381D02*
X141549476Y-63714381D01*
X141882810Y-64095333D01*
X141739952Y-64095333D01*
X141644714Y-64142952D01*
X141597095Y-64190571D01*
X141549476Y-64285810D01*
X141549476Y-64523905D01*
X141597095Y-64619143D01*
X141644714Y-64666762D01*
X141739952Y-64714381D01*
X142025667Y-64714381D01*
X142120905Y-64666762D01*
X142168524Y-64619143D01*
X141216143Y-63714381D02*
X140549476Y-63714381D01*
X140978048Y-64714381D01*
X131579857Y-65381143D02*
X131627476Y-65428762D01*
X131770333Y-65476381D01*
X131865571Y-65476381D01*
X132008429Y-65428762D01*
X132103667Y-65333524D01*
X132151286Y-65238286D01*
X132198905Y-65047810D01*
X132198905Y-64904952D01*
X132151286Y-64714476D01*
X132103667Y-64619238D01*
X132008429Y-64524000D01*
X131865571Y-64476381D01*
X131770333Y-64476381D01*
X131627476Y-64524000D01*
X131579857Y-64571619D01*
X131246524Y-64476381D02*
X130627476Y-64476381D01*
X130960810Y-64857333D01*
X130817952Y-64857333D01*
X130722714Y-64904952D01*
X130675095Y-64952571D01*
X130627476Y-65047810D01*
X130627476Y-65285905D01*
X130675095Y-65381143D01*
X130722714Y-65428762D01*
X130817952Y-65476381D01*
X131103667Y-65476381D01*
X131198905Y-65428762D01*
X131246524Y-65381143D01*
X130151286Y-65476381D02*
X129960810Y-65476381D01*
X129865571Y-65428762D01*
X129817952Y-65381143D01*
X129722714Y-65238286D01*
X129675095Y-65047810D01*
X129675095Y-64666857D01*
X129722714Y-64571619D01*
X129770333Y-64524000D01*
X129865571Y-64476381D01*
X130056048Y-64476381D01*
X130151286Y-64524000D01*
X130198905Y-64571619D01*
X130246524Y-64666857D01*
X130246524Y-64904952D01*
X130198905Y-65000190D01*
X130151286Y-65047810D01*
X130056048Y-65095429D01*
X129865571Y-65095429D01*
X129770333Y-65047810D01*
X129722714Y-65000190D01*
X129675095Y-64904952D01*
X142374857Y-61825143D02*
X142422476Y-61872762D01*
X142565333Y-61920381D01*
X142660571Y-61920381D01*
X142803429Y-61872762D01*
X142898667Y-61777524D01*
X142946286Y-61682286D01*
X142993905Y-61491810D01*
X142993905Y-61348952D01*
X142946286Y-61158476D01*
X142898667Y-61063238D01*
X142803429Y-60968000D01*
X142660571Y-60920381D01*
X142565333Y-60920381D01*
X142422476Y-60968000D01*
X142374857Y-61015619D01*
X141517714Y-61253714D02*
X141517714Y-61920381D01*
X141755810Y-60872762D02*
X141993905Y-61587048D01*
X141374857Y-61587048D01*
X140803429Y-60920381D02*
X140708190Y-60920381D01*
X140612952Y-60968000D01*
X140565333Y-61015619D01*
X140517714Y-61110857D01*
X140470095Y-61301333D01*
X140470095Y-61539429D01*
X140517714Y-61729905D01*
X140565333Y-61825143D01*
X140612952Y-61872762D01*
X140708190Y-61920381D01*
X140803429Y-61920381D01*
X140898667Y-61872762D01*
X140946286Y-61825143D01*
X140993905Y-61729905D01*
X141041524Y-61539429D01*
X141041524Y-61301333D01*
X140993905Y-61110857D01*
X140946286Y-61015619D01*
X140898667Y-60968000D01*
X140803429Y-60920381D01*
X134850143Y-62476143D02*
X134897762Y-62428524D01*
X134945381Y-62285667D01*
X134945381Y-62190429D01*
X134897762Y-62047571D01*
X134802524Y-61952333D01*
X134707286Y-61904714D01*
X134516810Y-61857095D01*
X134373952Y-61857095D01*
X134183476Y-61904714D01*
X134088238Y-61952333D01*
X133993000Y-62047571D01*
X133945381Y-62190429D01*
X133945381Y-62285667D01*
X133993000Y-62428524D01*
X134040619Y-62476143D01*
X134278714Y-63333286D02*
X134945381Y-63333286D01*
X133897762Y-63095190D02*
X134612048Y-62857095D01*
X134612048Y-63476143D01*
X134945381Y-64380905D02*
X134945381Y-63809476D01*
X134945381Y-64095190D02*
X133945381Y-64095190D01*
X134088238Y-63999952D01*
X134183476Y-63904714D01*
X134231095Y-63809476D01*
X120848381Y-61428334D02*
X120848381Y-60952143D01*
X119848381Y-60952143D01*
X119943619Y-61714048D02*
X119896000Y-61761667D01*
X119848381Y-61856905D01*
X119848381Y-62095001D01*
X119896000Y-62190239D01*
X119943619Y-62237858D01*
X120038857Y-62285477D01*
X120134095Y-62285477D01*
X120276952Y-62237858D01*
X120848381Y-61666429D01*
X120848381Y-62285477D01*
X115415381Y-61047334D02*
X115415381Y-60571143D01*
X114415381Y-60571143D01*
X114415381Y-61285429D02*
X114415381Y-61904477D01*
X114796333Y-61571143D01*
X114796333Y-61714001D01*
X114843952Y-61809239D01*
X114891571Y-61856858D01*
X114986810Y-61904477D01*
X115224905Y-61904477D01*
X115320143Y-61856858D01*
X115367762Y-61809239D01*
X115415381Y-61714001D01*
X115415381Y-61428286D01*
X115367762Y-61333048D01*
X115320143Y-61285429D01*
X132532381Y-74255334D02*
X132532381Y-73779143D01*
X131532381Y-73779143D01*
X131532381Y-75017239D02*
X131532381Y-74826762D01*
X131580000Y-74731524D01*
X131627619Y-74683905D01*
X131770476Y-74588667D01*
X131960952Y-74541048D01*
X132341905Y-74541048D01*
X132437143Y-74588667D01*
X132484762Y-74636286D01*
X132532381Y-74731524D01*
X132532381Y-74922001D01*
X132484762Y-75017239D01*
X132437143Y-75064858D01*
X132341905Y-75112477D01*
X132103810Y-75112477D01*
X132008571Y-75064858D01*
X131960952Y-75017239D01*
X131913333Y-74922001D01*
X131913333Y-74731524D01*
X131960952Y-74636286D01*
X132008571Y-74588667D01*
X132103810Y-74541048D01*
X135072381Y-74255334D02*
X135072381Y-73779143D01*
X134072381Y-73779143D01*
X134500952Y-74731524D02*
X134453333Y-74636286D01*
X134405714Y-74588667D01*
X134310476Y-74541048D01*
X134262857Y-74541048D01*
X134167619Y-74588667D01*
X134120000Y-74636286D01*
X134072381Y-74731524D01*
X134072381Y-74922001D01*
X134120000Y-75017239D01*
X134167619Y-75064858D01*
X134262857Y-75112477D01*
X134310476Y-75112477D01*
X134405714Y-75064858D01*
X134453333Y-75017239D01*
X134500952Y-74922001D01*
X134500952Y-74731524D01*
X134548571Y-74636286D01*
X134596190Y-74588667D01*
X134691429Y-74541048D01*
X134881905Y-74541048D01*
X134977143Y-74588667D01*
X135024762Y-74636286D01*
X135072381Y-74731524D01*
X135072381Y-74922001D01*
X135024762Y-75017239D01*
X134977143Y-75064858D01*
X134881905Y-75112477D01*
X134691429Y-75112477D01*
X134596190Y-75064858D01*
X134548571Y-75017239D01*
X134500952Y-74922001D01*
X99180381Y-58253334D02*
X98704190Y-57920000D01*
X99180381Y-57681905D02*
X98180381Y-57681905D01*
X98180381Y-58062858D01*
X98228000Y-58158096D01*
X98275619Y-58205715D01*
X98370857Y-58253334D01*
X98513714Y-58253334D01*
X98608952Y-58205715D01*
X98656571Y-58158096D01*
X98704190Y-58062858D01*
X98704190Y-57681905D01*
X99180381Y-59205715D02*
X99180381Y-58634286D01*
X99180381Y-58920000D02*
X98180381Y-58920000D01*
X98323238Y-58824762D01*
X98418476Y-58729524D01*
X98466095Y-58634286D01*
X99258381Y-63079334D02*
X98782190Y-62746000D01*
X99258381Y-62507905D02*
X98258381Y-62507905D01*
X98258381Y-62888858D01*
X98306000Y-62984096D01*
X98353619Y-63031715D01*
X98448857Y-63079334D01*
X98591714Y-63079334D01*
X98686952Y-63031715D01*
X98734571Y-62984096D01*
X98782190Y-62888858D01*
X98782190Y-62507905D01*
X98353619Y-63460286D02*
X98306000Y-63507905D01*
X98258381Y-63603143D01*
X98258381Y-63841239D01*
X98306000Y-63936477D01*
X98353619Y-63984096D01*
X98448857Y-64031715D01*
X98544095Y-64031715D01*
X98686952Y-63984096D01*
X99258381Y-63412667D01*
X99258381Y-64031715D01*
X99180381Y-53173334D02*
X98704190Y-52840000D01*
X99180381Y-52601905D02*
X98180381Y-52601905D01*
X98180381Y-52982858D01*
X98228000Y-53078096D01*
X98275619Y-53125715D01*
X98370857Y-53173334D01*
X98513714Y-53173334D01*
X98608952Y-53125715D01*
X98656571Y-53078096D01*
X98704190Y-52982858D01*
X98704190Y-52601905D01*
X98180381Y-53506667D02*
X98180381Y-54125715D01*
X98561333Y-53792381D01*
X98561333Y-53935239D01*
X98608952Y-54030477D01*
X98656571Y-54078096D01*
X98751810Y-54125715D01*
X98989905Y-54125715D01*
X99085143Y-54078096D01*
X99132762Y-54030477D01*
X99180381Y-53935239D01*
X99180381Y-53649524D01*
X99132762Y-53554286D01*
X99085143Y-53506667D01*
X105862381Y-83526334D02*
X105386190Y-83193000D01*
X105862381Y-82954905D02*
X104862381Y-82954905D01*
X104862381Y-83335858D01*
X104910000Y-83431096D01*
X104957619Y-83478715D01*
X105052857Y-83526334D01*
X105195714Y-83526334D01*
X105290952Y-83478715D01*
X105338571Y-83431096D01*
X105386190Y-83335858D01*
X105386190Y-82954905D01*
X105195714Y-84383477D02*
X105862381Y-84383477D01*
X104814762Y-84145381D02*
X105529048Y-83907286D01*
X105529048Y-84526334D01*
X108529381Y-83526334D02*
X108053190Y-83193000D01*
X108529381Y-82954905D02*
X107529381Y-82954905D01*
X107529381Y-83335858D01*
X107577000Y-83431096D01*
X107624619Y-83478715D01*
X107719857Y-83526334D01*
X107862714Y-83526334D01*
X107957952Y-83478715D01*
X108005571Y-83431096D01*
X108053190Y-83335858D01*
X108053190Y-82954905D01*
X107529381Y-84431096D02*
X107529381Y-83954905D01*
X108005571Y-83907286D01*
X107957952Y-83954905D01*
X107910333Y-84050143D01*
X107910333Y-84288239D01*
X107957952Y-84383477D01*
X108005571Y-84431096D01*
X108100810Y-84478715D01*
X108338905Y-84478715D01*
X108434143Y-84431096D01*
X108481762Y-84383477D01*
X108529381Y-84288239D01*
X108529381Y-84050143D01*
X108481762Y-83954905D01*
X108434143Y-83907286D01*
X103449381Y-83526334D02*
X102973190Y-83193000D01*
X103449381Y-82954905D02*
X102449381Y-82954905D01*
X102449381Y-83335858D01*
X102497000Y-83431096D01*
X102544619Y-83478715D01*
X102639857Y-83526334D01*
X102782714Y-83526334D01*
X102877952Y-83478715D01*
X102925571Y-83431096D01*
X102973190Y-83335858D01*
X102973190Y-82954905D01*
X102449381Y-84383477D02*
X102449381Y-84193000D01*
X102497000Y-84097762D01*
X102544619Y-84050143D01*
X102687476Y-83954905D01*
X102877952Y-83907286D01*
X103258905Y-83907286D01*
X103354143Y-83954905D01*
X103401762Y-84002524D01*
X103449381Y-84097762D01*
X103449381Y-84288239D01*
X103401762Y-84383477D01*
X103354143Y-84431096D01*
X103258905Y-84478715D01*
X103020810Y-84478715D01*
X102925571Y-84431096D01*
X102877952Y-84383477D01*
X102830333Y-84288239D01*
X102830333Y-84097762D01*
X102877952Y-84002524D01*
X102925571Y-83954905D01*
X103020810Y-83907286D01*
X117722381Y-74763334D02*
X117246190Y-74430000D01*
X117722381Y-74191905D02*
X116722381Y-74191905D01*
X116722381Y-74572858D01*
X116770000Y-74668096D01*
X116817619Y-74715715D01*
X116912857Y-74763334D01*
X117055714Y-74763334D01*
X117150952Y-74715715D01*
X117198571Y-74668096D01*
X117246190Y-74572858D01*
X117246190Y-74191905D01*
X116722381Y-75096667D02*
X116722381Y-75763334D01*
X117722381Y-75334762D01*
X132917143Y-81907143D02*
X132964762Y-81859524D01*
X133012381Y-81716667D01*
X133012381Y-81621429D01*
X132964762Y-81478571D01*
X132869524Y-81383333D01*
X132774286Y-81335714D01*
X132583810Y-81288095D01*
X132440952Y-81288095D01*
X132250476Y-81335714D01*
X132155238Y-81383333D01*
X132060000Y-81478571D01*
X132012381Y-81621429D01*
X132012381Y-81716667D01*
X132060000Y-81859524D01*
X132107619Y-81907143D01*
X132107619Y-82288095D02*
X132060000Y-82335714D01*
X132012381Y-82430952D01*
X132012381Y-82669048D01*
X132060000Y-82764286D01*
X132107619Y-82811905D01*
X132202857Y-82859524D01*
X132298095Y-82859524D01*
X132440952Y-82811905D01*
X133012381Y-82240476D01*
X133012381Y-82859524D01*
X132012381Y-83764286D02*
X132012381Y-83288095D01*
X132488571Y-83240476D01*
X132440952Y-83288095D01*
X132393333Y-83383333D01*
X132393333Y-83621429D01*
X132440952Y-83716667D01*
X132488571Y-83764286D01*
X132583810Y-83811905D01*
X132821905Y-83811905D01*
X132917143Y-83764286D01*
X132964762Y-83716667D01*
X133012381Y-83621429D01*
X133012381Y-83383333D01*
X132964762Y-83288095D01*
X132917143Y-83240476D01*
X122816857Y-65635143D02*
X122864476Y-65682762D01*
X123007333Y-65730381D01*
X123102571Y-65730381D01*
X123245429Y-65682762D01*
X123340667Y-65587524D01*
X123388286Y-65492286D01*
X123435905Y-65301810D01*
X123435905Y-65158952D01*
X123388286Y-64968476D01*
X123340667Y-64873238D01*
X123245429Y-64778000D01*
X123102571Y-64730381D01*
X123007333Y-64730381D01*
X122864476Y-64778000D01*
X122816857Y-64825619D01*
X121959714Y-65063714D02*
X121959714Y-65730381D01*
X122197810Y-64682762D02*
X122435905Y-65397048D01*
X121816857Y-65397048D01*
X121531143Y-64730381D02*
X120912095Y-64730381D01*
X121245429Y-65111333D01*
X121102571Y-65111333D01*
X121007333Y-65158952D01*
X120959714Y-65206571D01*
X120912095Y-65301810D01*
X120912095Y-65539905D01*
X120959714Y-65635143D01*
X121007333Y-65682762D01*
X121102571Y-65730381D01*
X121388286Y-65730381D01*
X121483524Y-65682762D01*
X121531143Y-65635143D01*
M02*
