M48
METRIC,TZ
T1C0.400
T2C1.000
T3C1.300
T4C3.000
T5C3.048
%
G90
G05
T1
X98044Y-55372
X98044Y-61849
X98171Y-50292
X98171Y-56896
X98298Y-60833
X99441Y-65405
X100330Y-72517
X100711Y-63246
X100711Y-65278
X100838Y-53340
X100838Y-56896
X100838Y-60706
X100965Y-50673
X100965Y-55118
X100965Y-59055
X100965Y-61722
X101219Y-63881
X101473Y-46863
X102489Y-46101
X102870Y-65405
X102997Y-67945
X103505Y-46101
X103632Y-48768
X104140Y-81407
X104267Y-46482
X105029Y-63246
X105410Y-76835
X106299Y-65532
X106680Y-81407
X107823Y-46355
X108740Y-46482
X109220Y-71628
X109347Y-81407
X110236Y-81407
X110998Y-70993
X111760Y-46228
X113284Y-65532
X113792Y-46228
X114740Y-46228
X115316Y-63246
X116459Y-65532
X116586Y-82550
X116713Y-57150
X116713Y-58293
X116967Y-80010
X117348Y-48641
X118237Y-65786
X118618Y-59055
X118618Y-60071
X119253Y-46863
X119634Y-47879
X119888Y-49911
X120015Y-63881
X120142Y-51816
X120269Y-56388
X120269Y-58166
X120269Y-62103
X121920Y-75438
X122174Y-44577
X122809Y-49403
X123952Y-44704
X124206Y-82550
X124460Y-69850
X124460Y-71120
X126746Y-58801
X127695Y-66421
X128270Y-69850
X128270Y-75311
X129413Y-68453
X129667Y-77343
X130175Y-75946
X130937Y-44791
X131953Y-84550
X132080Y-65532
X133350Y-68580
X133350Y-75438
X133477Y-51689
X134620Y-50546
X134695Y-66219
X135763Y-58420
X135890Y-73660
X136017Y-59309
X136144Y-57658
X136144Y-61341
X136271Y-62865
X136271Y-64345
X138303Y-58420
X139954Y-69850
X140462Y-67818
X140970Y-53721
X140970Y-55626
X140970Y-78232
X141224Y-73152
X142240Y-78486
X144145Y-59309
X144272Y-60579
X144272Y-61976
X144272Y-63500
X144272Y-65024
X144272Y-68326
X145415Y-53848
X145542Y-71120
X146431Y-59309
X147320Y-58166
T2
X91440Y-45720
X91440Y-48260
X91440Y-50800
X91440Y-53340
X91440Y-55880
X91440Y-58420
X91440Y-60960
X91440Y-63500
X91440Y-66040
X91440Y-68580
X91440Y-71120
X91440Y-73660
X91440Y-76200
X91440Y-78740
X91440Y-81280
X91440Y-83820
X93980Y-45720
X93980Y-48260
X93980Y-50800
X93980Y-53340
X93980Y-55880
X93980Y-58420
X93980Y-60960
X93980Y-63500
X93980Y-66040
X93980Y-68580
X93980Y-71120
X93980Y-73660
X93980Y-76200
X93980Y-78740
X93980Y-81280
X93980Y-83820
X101600Y-73660
X101600Y-76200
X104140Y-73660
X104140Y-76200
X106680Y-73660
X106680Y-76200
X109220Y-73660
X109220Y-76200
X111760Y-73660
X111760Y-76200
X134620Y-83820
X137160Y-83820
T3
X143510Y-57520
X143510Y-72020
X148460Y-56920
X148460Y-72620
T4
X110490Y-55880
X131445Y-61595
T5
X97790Y-81280
X144780Y-48260
X144780Y-81280
T0
M30
