G04 #@! TF.FileFunction,Legend,Bot*
%FSLAX46Y46*%
G04 Gerber Fmt 4.6, Leading zero omitted, Abs format (unit mm)*
G04 Created by KiCad (PCBNEW 4.0.4-stable) date 03/04/17 15:12:17*
%MOMM*%
%LPD*%
G01*
G04 APERTURE LIST*
%ADD10C,0.100000*%
%ADD11C,0.120000*%
%ADD12C,0.150000*%
G04 APERTURE END LIST*
D10*
D11*
X169760000Y-136660000D02*
X169760000Y-137660000D01*
X168060000Y-137660000D02*
X168060000Y-136660000D01*
X166155000Y-142740000D02*
X166155000Y-141740000D01*
X167855000Y-141740000D02*
X167855000Y-142740000D01*
X179285000Y-136660000D02*
X179285000Y-137660000D01*
X177585000Y-137660000D02*
X177585000Y-136660000D01*
X175680000Y-142740000D02*
X175680000Y-141740000D01*
X177380000Y-141740000D02*
X177380000Y-142740000D01*
X164680000Y-129040000D02*
X164680000Y-130040000D01*
X162980000Y-130040000D02*
X162980000Y-129040000D01*
X167220000Y-129040000D02*
X167220000Y-130040000D01*
X165520000Y-130040000D02*
X165520000Y-129040000D01*
X169760000Y-129040000D02*
X169760000Y-130040000D01*
X168060000Y-130040000D02*
X168060000Y-129040000D01*
X172300000Y-129040000D02*
X172300000Y-130040000D01*
X170600000Y-130040000D02*
X170600000Y-129040000D01*
X175475000Y-129040000D02*
X175475000Y-130040000D01*
X173775000Y-130040000D02*
X173775000Y-129040000D01*
X178015000Y-129040000D02*
X178015000Y-130040000D01*
X176315000Y-130040000D02*
X176315000Y-129040000D01*
X182460000Y-129040000D02*
X182460000Y-130040000D01*
X180760000Y-130040000D02*
X180760000Y-129040000D01*
X157345000Y-136105000D02*
X156345000Y-136105000D01*
X156345000Y-134405000D02*
X157345000Y-134405000D01*
X137025000Y-136105000D02*
X136025000Y-136105000D01*
X136025000Y-134405000D02*
X137025000Y-134405000D01*
X126865000Y-136105000D02*
X125865000Y-136105000D01*
X125865000Y-134405000D02*
X126865000Y-134405000D01*
X122975000Y-123055000D02*
X122975000Y-122055000D01*
X124675000Y-122055000D02*
X124675000Y-123055000D01*
X152185000Y-125595000D02*
X152185000Y-124595000D01*
X153885000Y-124595000D02*
X153885000Y-125595000D01*
X143930000Y-124960000D02*
X143930000Y-123960000D01*
X145630000Y-123960000D02*
X145630000Y-124960000D01*
X138215000Y-124960000D02*
X138215000Y-123960000D01*
X139915000Y-123960000D02*
X139915000Y-124960000D01*
X137295000Y-116625000D02*
X138295000Y-116625000D01*
X138295000Y-118325000D02*
X137295000Y-118325000D01*
X137295000Y-107735000D02*
X138295000Y-107735000D01*
X138295000Y-109435000D02*
X137295000Y-109435000D01*
X136025000Y-102655000D02*
X137025000Y-102655000D01*
X137025000Y-104355000D02*
X136025000Y-104355000D01*
X142455000Y-100465000D02*
X142455000Y-101465000D01*
X140755000Y-101465000D02*
X140755000Y-100465000D01*
X146900000Y-100465000D02*
X146900000Y-101465000D01*
X145200000Y-101465000D02*
X145200000Y-100465000D01*
X150710000Y-100465000D02*
X150710000Y-101465000D01*
X149010000Y-101465000D02*
X149010000Y-100465000D01*
X153250000Y-100465000D02*
X153250000Y-101465000D01*
X151550000Y-101465000D02*
X151550000Y-100465000D01*
X159250000Y-103720000D02*
X158250000Y-103720000D01*
X158250000Y-102020000D02*
X159250000Y-102020000D01*
X159250000Y-108800000D02*
X158250000Y-108800000D01*
X158250000Y-107100000D02*
X159250000Y-107100000D01*
X159250000Y-112991000D02*
X158250000Y-112991000D01*
X158250000Y-111291000D02*
X159250000Y-111291000D01*
X159250000Y-118960000D02*
X158250000Y-118960000D01*
X158250000Y-117260000D02*
X159250000Y-117260000D01*
X154725000Y-125595000D02*
X154725000Y-124595000D01*
X156425000Y-124595000D02*
X156425000Y-125595000D01*
X136025000Y-119800000D02*
X137025000Y-119800000D01*
X137025000Y-121500000D02*
X136025000Y-121500000D01*
X140835000Y-106260000D02*
X139835000Y-106260000D01*
X139835000Y-104560000D02*
X140835000Y-104560000D01*
X159250000Y-106260000D02*
X158250000Y-106260000D01*
X158250000Y-104560000D02*
X159250000Y-104560000D01*
X157265000Y-125595000D02*
X157265000Y-124595000D01*
X158965000Y-124595000D02*
X158965000Y-125595000D01*
X162980000Y-123690000D02*
X162980000Y-122690000D01*
X164680000Y-122690000D02*
X164680000Y-123690000D01*
X160790000Y-113450000D02*
X161790000Y-113450000D01*
X161790000Y-115150000D02*
X160790000Y-115150000D01*
X172935000Y-110625000D02*
X172935000Y-111625000D01*
X171235000Y-111625000D02*
X171235000Y-110625000D01*
X167425000Y-123690000D02*
X167425000Y-122690000D01*
X169125000Y-122690000D02*
X169125000Y-123690000D01*
X170473000Y-120515000D02*
X170473000Y-119515000D01*
X172173000Y-119515000D02*
X172173000Y-120515000D01*
X174205000Y-120150000D02*
X174205000Y-121150000D01*
X172505000Y-121150000D02*
X172505000Y-120150000D01*
X173490000Y-114720000D02*
X174490000Y-114720000D01*
X174490000Y-116420000D02*
X173490000Y-116420000D01*
X178300000Y-120230000D02*
X177300000Y-120230000D01*
X177300000Y-118530000D02*
X178300000Y-118530000D01*
X147185000Y-136105000D02*
X146185000Y-136105000D01*
X146185000Y-134405000D02*
X147185000Y-134405000D01*
X175426000Y-112514000D02*
X175426000Y-111514000D01*
X177126000Y-111514000D02*
X177126000Y-112514000D01*
D12*
X171017143Y-136993334D02*
X171064762Y-136945715D01*
X171112381Y-136802858D01*
X171112381Y-136707620D01*
X171064762Y-136564762D01*
X170969524Y-136469524D01*
X170874286Y-136421905D01*
X170683810Y-136374286D01*
X170540952Y-136374286D01*
X170350476Y-136421905D01*
X170255238Y-136469524D01*
X170160000Y-136564762D01*
X170112381Y-136707620D01*
X170112381Y-136802858D01*
X170160000Y-136945715D01*
X170207619Y-136993334D01*
X170112381Y-137850477D02*
X170112381Y-137660000D01*
X170160000Y-137564762D01*
X170207619Y-137517143D01*
X170350476Y-137421905D01*
X170540952Y-137374286D01*
X170921905Y-137374286D01*
X171017143Y-137421905D01*
X171064762Y-137469524D01*
X171112381Y-137564762D01*
X171112381Y-137755239D01*
X171064762Y-137850477D01*
X171017143Y-137898096D01*
X170921905Y-137945715D01*
X170683810Y-137945715D01*
X170588571Y-137898096D01*
X170540952Y-137850477D01*
X170493333Y-137755239D01*
X170493333Y-137564762D01*
X170540952Y-137469524D01*
X170588571Y-137421905D01*
X170683810Y-137374286D01*
X165612143Y-142073334D02*
X165659762Y-142025715D01*
X165707381Y-141882858D01*
X165707381Y-141787620D01*
X165659762Y-141644762D01*
X165564524Y-141549524D01*
X165469286Y-141501905D01*
X165278810Y-141454286D01*
X165135952Y-141454286D01*
X164945476Y-141501905D01*
X164850238Y-141549524D01*
X164755000Y-141644762D01*
X164707381Y-141787620D01*
X164707381Y-141882858D01*
X164755000Y-142025715D01*
X164802619Y-142073334D01*
X165135952Y-142644762D02*
X165088333Y-142549524D01*
X165040714Y-142501905D01*
X164945476Y-142454286D01*
X164897857Y-142454286D01*
X164802619Y-142501905D01*
X164755000Y-142549524D01*
X164707381Y-142644762D01*
X164707381Y-142835239D01*
X164755000Y-142930477D01*
X164802619Y-142978096D01*
X164897857Y-143025715D01*
X164945476Y-143025715D01*
X165040714Y-142978096D01*
X165088333Y-142930477D01*
X165135952Y-142835239D01*
X165135952Y-142644762D01*
X165183571Y-142549524D01*
X165231190Y-142501905D01*
X165326429Y-142454286D01*
X165516905Y-142454286D01*
X165612143Y-142501905D01*
X165659762Y-142549524D01*
X165707381Y-142644762D01*
X165707381Y-142835239D01*
X165659762Y-142930477D01*
X165612143Y-142978096D01*
X165516905Y-143025715D01*
X165326429Y-143025715D01*
X165231190Y-142978096D01*
X165183571Y-142930477D01*
X165135952Y-142835239D01*
X180542143Y-136993334D02*
X180589762Y-136945715D01*
X180637381Y-136802858D01*
X180637381Y-136707620D01*
X180589762Y-136564762D01*
X180494524Y-136469524D01*
X180399286Y-136421905D01*
X180208810Y-136374286D01*
X180065952Y-136374286D01*
X179875476Y-136421905D01*
X179780238Y-136469524D01*
X179685000Y-136564762D01*
X179637381Y-136707620D01*
X179637381Y-136802858D01*
X179685000Y-136945715D01*
X179732619Y-136993334D01*
X180637381Y-137469524D02*
X180637381Y-137660000D01*
X180589762Y-137755239D01*
X180542143Y-137802858D01*
X180399286Y-137898096D01*
X180208810Y-137945715D01*
X179827857Y-137945715D01*
X179732619Y-137898096D01*
X179685000Y-137850477D01*
X179637381Y-137755239D01*
X179637381Y-137564762D01*
X179685000Y-137469524D01*
X179732619Y-137421905D01*
X179827857Y-137374286D01*
X180065952Y-137374286D01*
X180161190Y-137421905D01*
X180208810Y-137469524D01*
X180256429Y-137564762D01*
X180256429Y-137755239D01*
X180208810Y-137850477D01*
X180161190Y-137898096D01*
X180065952Y-137945715D01*
X175137143Y-141597143D02*
X175184762Y-141549524D01*
X175232381Y-141406667D01*
X175232381Y-141311429D01*
X175184762Y-141168571D01*
X175089524Y-141073333D01*
X174994286Y-141025714D01*
X174803810Y-140978095D01*
X174660952Y-140978095D01*
X174470476Y-141025714D01*
X174375238Y-141073333D01*
X174280000Y-141168571D01*
X174232381Y-141311429D01*
X174232381Y-141406667D01*
X174280000Y-141549524D01*
X174327619Y-141597143D01*
X175232381Y-142549524D02*
X175232381Y-141978095D01*
X175232381Y-142263809D02*
X174232381Y-142263809D01*
X174375238Y-142168571D01*
X174470476Y-142073333D01*
X174518095Y-141978095D01*
X174232381Y-143168571D02*
X174232381Y-143263810D01*
X174280000Y-143359048D01*
X174327619Y-143406667D01*
X174422857Y-143454286D01*
X174613333Y-143501905D01*
X174851429Y-143501905D01*
X175041905Y-143454286D01*
X175137143Y-143406667D01*
X175184762Y-143359048D01*
X175232381Y-143263810D01*
X175232381Y-143168571D01*
X175184762Y-143073333D01*
X175137143Y-143025714D01*
X175041905Y-142978095D01*
X174851429Y-142930476D01*
X174613333Y-142930476D01*
X174422857Y-142978095D01*
X174327619Y-143025714D01*
X174280000Y-143073333D01*
X174232381Y-143168571D01*
X164187143Y-132929334D02*
X164234762Y-132881715D01*
X164282381Y-132738858D01*
X164282381Y-132643620D01*
X164234762Y-132500762D01*
X164139524Y-132405524D01*
X164044286Y-132357905D01*
X163853810Y-132310286D01*
X163710952Y-132310286D01*
X163520476Y-132357905D01*
X163425238Y-132405524D01*
X163330000Y-132500762D01*
X163282381Y-132643620D01*
X163282381Y-132738858D01*
X163330000Y-132881715D01*
X163377619Y-132929334D01*
X164282381Y-133881715D02*
X164282381Y-133310286D01*
X164282381Y-133596000D02*
X163282381Y-133596000D01*
X163425238Y-133500762D01*
X163520476Y-133405524D01*
X163568095Y-133310286D01*
X166727143Y-132929334D02*
X166774762Y-132881715D01*
X166822381Y-132738858D01*
X166822381Y-132643620D01*
X166774762Y-132500762D01*
X166679524Y-132405524D01*
X166584286Y-132357905D01*
X166393810Y-132310286D01*
X166250952Y-132310286D01*
X166060476Y-132357905D01*
X165965238Y-132405524D01*
X165870000Y-132500762D01*
X165822381Y-132643620D01*
X165822381Y-132738858D01*
X165870000Y-132881715D01*
X165917619Y-132929334D01*
X165917619Y-133310286D02*
X165870000Y-133357905D01*
X165822381Y-133453143D01*
X165822381Y-133691239D01*
X165870000Y-133786477D01*
X165917619Y-133834096D01*
X166012857Y-133881715D01*
X166108095Y-133881715D01*
X166250952Y-133834096D01*
X166822381Y-133262667D01*
X166822381Y-133881715D01*
X169394143Y-132929334D02*
X169441762Y-132881715D01*
X169489381Y-132738858D01*
X169489381Y-132643620D01*
X169441762Y-132500762D01*
X169346524Y-132405524D01*
X169251286Y-132357905D01*
X169060810Y-132310286D01*
X168917952Y-132310286D01*
X168727476Y-132357905D01*
X168632238Y-132405524D01*
X168537000Y-132500762D01*
X168489381Y-132643620D01*
X168489381Y-132738858D01*
X168537000Y-132881715D01*
X168584619Y-132929334D01*
X168489381Y-133262667D02*
X168489381Y-133881715D01*
X168870333Y-133548381D01*
X168870333Y-133691239D01*
X168917952Y-133786477D01*
X168965571Y-133834096D01*
X169060810Y-133881715D01*
X169298905Y-133881715D01*
X169394143Y-133834096D01*
X169441762Y-133786477D01*
X169489381Y-133691239D01*
X169489381Y-133405524D01*
X169441762Y-133310286D01*
X169394143Y-133262667D01*
X171807143Y-132802334D02*
X171854762Y-132754715D01*
X171902381Y-132611858D01*
X171902381Y-132516620D01*
X171854762Y-132373762D01*
X171759524Y-132278524D01*
X171664286Y-132230905D01*
X171473810Y-132183286D01*
X171330952Y-132183286D01*
X171140476Y-132230905D01*
X171045238Y-132278524D01*
X170950000Y-132373762D01*
X170902381Y-132516620D01*
X170902381Y-132611858D01*
X170950000Y-132754715D01*
X170997619Y-132802334D01*
X171235714Y-133659477D02*
X171902381Y-133659477D01*
X170854762Y-133421381D02*
X171569048Y-133183286D01*
X171569048Y-133802334D01*
X174982143Y-132929334D02*
X175029762Y-132881715D01*
X175077381Y-132738858D01*
X175077381Y-132643620D01*
X175029762Y-132500762D01*
X174934524Y-132405524D01*
X174839286Y-132357905D01*
X174648810Y-132310286D01*
X174505952Y-132310286D01*
X174315476Y-132357905D01*
X174220238Y-132405524D01*
X174125000Y-132500762D01*
X174077381Y-132643620D01*
X174077381Y-132738858D01*
X174125000Y-132881715D01*
X174172619Y-132929334D01*
X174077381Y-133834096D02*
X174077381Y-133357905D01*
X174553571Y-133310286D01*
X174505952Y-133357905D01*
X174458333Y-133453143D01*
X174458333Y-133691239D01*
X174505952Y-133786477D01*
X174553571Y-133834096D01*
X174648810Y-133881715D01*
X174886905Y-133881715D01*
X174982143Y-133834096D01*
X175029762Y-133786477D01*
X175077381Y-133691239D01*
X175077381Y-133453143D01*
X175029762Y-133357905D01*
X174982143Y-133310286D01*
X177395143Y-132834143D02*
X177442762Y-132786524D01*
X177490381Y-132643667D01*
X177490381Y-132548429D01*
X177442762Y-132405571D01*
X177347524Y-132310333D01*
X177252286Y-132262714D01*
X177061810Y-132215095D01*
X176918952Y-132215095D01*
X176728476Y-132262714D01*
X176633238Y-132310333D01*
X176538000Y-132405571D01*
X176490381Y-132548429D01*
X176490381Y-132643667D01*
X176538000Y-132786524D01*
X176585619Y-132834143D01*
X177490381Y-133786524D02*
X177490381Y-133215095D01*
X177490381Y-133500809D02*
X176490381Y-133500809D01*
X176633238Y-133405571D01*
X176728476Y-133310333D01*
X176776095Y-133215095D01*
X177490381Y-134738905D02*
X177490381Y-134167476D01*
X177490381Y-134453190D02*
X176490381Y-134453190D01*
X176633238Y-134357952D01*
X176728476Y-134262714D01*
X176776095Y-134167476D01*
X183618143Y-129532143D02*
X183665762Y-129484524D01*
X183713381Y-129341667D01*
X183713381Y-129246429D01*
X183665762Y-129103571D01*
X183570524Y-129008333D01*
X183475286Y-128960714D01*
X183284810Y-128913095D01*
X183141952Y-128913095D01*
X182951476Y-128960714D01*
X182856238Y-129008333D01*
X182761000Y-129103571D01*
X182713381Y-129246429D01*
X182713381Y-129341667D01*
X182761000Y-129484524D01*
X182808619Y-129532143D01*
X183713381Y-130484524D02*
X183713381Y-129913095D01*
X183713381Y-130198809D02*
X182713381Y-130198809D01*
X182856238Y-130103571D01*
X182951476Y-130008333D01*
X182999095Y-129913095D01*
X182808619Y-130865476D02*
X182761000Y-130913095D01*
X182713381Y-131008333D01*
X182713381Y-131246429D01*
X182761000Y-131341667D01*
X182808619Y-131389286D01*
X182903857Y-131436905D01*
X182999095Y-131436905D01*
X183141952Y-131389286D01*
X183713381Y-130817857D01*
X183713381Y-131436905D01*
X157487857Y-137362143D02*
X157535476Y-137409762D01*
X157678333Y-137457381D01*
X157773571Y-137457381D01*
X157916429Y-137409762D01*
X158011667Y-137314524D01*
X158059286Y-137219286D01*
X158106905Y-137028810D01*
X158106905Y-136885952D01*
X158059286Y-136695476D01*
X158011667Y-136600238D01*
X157916429Y-136505000D01*
X157773571Y-136457381D01*
X157678333Y-136457381D01*
X157535476Y-136505000D01*
X157487857Y-136552619D01*
X156535476Y-137457381D02*
X157106905Y-137457381D01*
X156821191Y-137457381D02*
X156821191Y-136457381D01*
X156916429Y-136600238D01*
X157011667Y-136695476D01*
X157106905Y-136743095D01*
X156202143Y-136457381D02*
X155583095Y-136457381D01*
X155916429Y-136838333D01*
X155773571Y-136838333D01*
X155678333Y-136885952D01*
X155630714Y-136933571D01*
X155583095Y-137028810D01*
X155583095Y-137266905D01*
X155630714Y-137362143D01*
X155678333Y-137409762D01*
X155773571Y-137457381D01*
X156059286Y-137457381D01*
X156154524Y-137409762D01*
X156202143Y-137362143D01*
X137167857Y-137362143D02*
X137215476Y-137409762D01*
X137358333Y-137457381D01*
X137453571Y-137457381D01*
X137596429Y-137409762D01*
X137691667Y-137314524D01*
X137739286Y-137219286D01*
X137786905Y-137028810D01*
X137786905Y-136885952D01*
X137739286Y-136695476D01*
X137691667Y-136600238D01*
X137596429Y-136505000D01*
X137453571Y-136457381D01*
X137358333Y-136457381D01*
X137215476Y-136505000D01*
X137167857Y-136552619D01*
X136215476Y-137457381D02*
X136786905Y-137457381D01*
X136501191Y-137457381D02*
X136501191Y-136457381D01*
X136596429Y-136600238D01*
X136691667Y-136695476D01*
X136786905Y-136743095D01*
X135358333Y-136790714D02*
X135358333Y-137457381D01*
X135596429Y-136409762D02*
X135834524Y-137124048D01*
X135215476Y-137124048D01*
X127007857Y-137362143D02*
X127055476Y-137409762D01*
X127198333Y-137457381D01*
X127293571Y-137457381D01*
X127436429Y-137409762D01*
X127531667Y-137314524D01*
X127579286Y-137219286D01*
X127626905Y-137028810D01*
X127626905Y-136885952D01*
X127579286Y-136695476D01*
X127531667Y-136600238D01*
X127436429Y-136505000D01*
X127293571Y-136457381D01*
X127198333Y-136457381D01*
X127055476Y-136505000D01*
X127007857Y-136552619D01*
X126055476Y-137457381D02*
X126626905Y-137457381D01*
X126341191Y-137457381D02*
X126341191Y-136457381D01*
X126436429Y-136600238D01*
X126531667Y-136695476D01*
X126626905Y-136743095D01*
X125150714Y-136457381D02*
X125626905Y-136457381D01*
X125674524Y-136933571D01*
X125626905Y-136885952D01*
X125531667Y-136838333D01*
X125293571Y-136838333D01*
X125198333Y-136885952D01*
X125150714Y-136933571D01*
X125103095Y-137028810D01*
X125103095Y-137266905D01*
X125150714Y-137362143D01*
X125198333Y-137409762D01*
X125293571Y-137457381D01*
X125531667Y-137457381D01*
X125626905Y-137409762D01*
X125674524Y-137362143D01*
X122432143Y-121912143D02*
X122479762Y-121864524D01*
X122527381Y-121721667D01*
X122527381Y-121626429D01*
X122479762Y-121483571D01*
X122384524Y-121388333D01*
X122289286Y-121340714D01*
X122098810Y-121293095D01*
X121955952Y-121293095D01*
X121765476Y-121340714D01*
X121670238Y-121388333D01*
X121575000Y-121483571D01*
X121527381Y-121626429D01*
X121527381Y-121721667D01*
X121575000Y-121864524D01*
X121622619Y-121912143D01*
X122527381Y-122864524D02*
X122527381Y-122293095D01*
X122527381Y-122578809D02*
X121527381Y-122578809D01*
X121670238Y-122483571D01*
X121765476Y-122388333D01*
X121813095Y-122293095D01*
X121527381Y-123721667D02*
X121527381Y-123531190D01*
X121575000Y-123435952D01*
X121622619Y-123388333D01*
X121765476Y-123293095D01*
X121955952Y-123245476D01*
X122336905Y-123245476D01*
X122432143Y-123293095D01*
X122479762Y-123340714D01*
X122527381Y-123435952D01*
X122527381Y-123626429D01*
X122479762Y-123721667D01*
X122432143Y-123769286D01*
X122336905Y-123816905D01*
X122098810Y-123816905D01*
X122003571Y-123769286D01*
X121955952Y-123721667D01*
X121908333Y-123626429D01*
X121908333Y-123435952D01*
X121955952Y-123340714D01*
X122003571Y-123293095D01*
X122098810Y-123245476D01*
X153519143Y-128389143D02*
X153566762Y-128341524D01*
X153614381Y-128198667D01*
X153614381Y-128103429D01*
X153566762Y-127960571D01*
X153471524Y-127865333D01*
X153376286Y-127817714D01*
X153185810Y-127770095D01*
X153042952Y-127770095D01*
X152852476Y-127817714D01*
X152757238Y-127865333D01*
X152662000Y-127960571D01*
X152614381Y-128103429D01*
X152614381Y-128198667D01*
X152662000Y-128341524D01*
X152709619Y-128389143D01*
X153614381Y-129341524D02*
X153614381Y-128770095D01*
X153614381Y-129055809D02*
X152614381Y-129055809D01*
X152757238Y-128960571D01*
X152852476Y-128865333D01*
X152900095Y-128770095D01*
X152614381Y-129674857D02*
X152614381Y-130341524D01*
X153614381Y-129912952D01*
X143387143Y-123817143D02*
X143434762Y-123769524D01*
X143482381Y-123626667D01*
X143482381Y-123531429D01*
X143434762Y-123388571D01*
X143339524Y-123293333D01*
X143244286Y-123245714D01*
X143053810Y-123198095D01*
X142910952Y-123198095D01*
X142720476Y-123245714D01*
X142625238Y-123293333D01*
X142530000Y-123388571D01*
X142482381Y-123531429D01*
X142482381Y-123626667D01*
X142530000Y-123769524D01*
X142577619Y-123817143D01*
X143482381Y-124769524D02*
X143482381Y-124198095D01*
X143482381Y-124483809D02*
X142482381Y-124483809D01*
X142625238Y-124388571D01*
X142720476Y-124293333D01*
X142768095Y-124198095D01*
X142910952Y-125340952D02*
X142863333Y-125245714D01*
X142815714Y-125198095D01*
X142720476Y-125150476D01*
X142672857Y-125150476D01*
X142577619Y-125198095D01*
X142530000Y-125245714D01*
X142482381Y-125340952D01*
X142482381Y-125531429D01*
X142530000Y-125626667D01*
X142577619Y-125674286D01*
X142672857Y-125721905D01*
X142720476Y-125721905D01*
X142815714Y-125674286D01*
X142863333Y-125626667D01*
X142910952Y-125531429D01*
X142910952Y-125340952D01*
X142958571Y-125245714D01*
X143006190Y-125198095D01*
X143101429Y-125150476D01*
X143291905Y-125150476D01*
X143387143Y-125198095D01*
X143434762Y-125245714D01*
X143482381Y-125340952D01*
X143482381Y-125531429D01*
X143434762Y-125626667D01*
X143387143Y-125674286D01*
X143291905Y-125721905D01*
X143101429Y-125721905D01*
X143006190Y-125674286D01*
X142958571Y-125626667D01*
X142910952Y-125531429D01*
X137672143Y-123817143D02*
X137719762Y-123769524D01*
X137767381Y-123626667D01*
X137767381Y-123531429D01*
X137719762Y-123388571D01*
X137624524Y-123293333D01*
X137529286Y-123245714D01*
X137338810Y-123198095D01*
X137195952Y-123198095D01*
X137005476Y-123245714D01*
X136910238Y-123293333D01*
X136815000Y-123388571D01*
X136767381Y-123531429D01*
X136767381Y-123626667D01*
X136815000Y-123769524D01*
X136862619Y-123817143D01*
X137767381Y-124769524D02*
X137767381Y-124198095D01*
X137767381Y-124483809D02*
X136767381Y-124483809D01*
X136910238Y-124388571D01*
X137005476Y-124293333D01*
X137053095Y-124198095D01*
X137767381Y-125245714D02*
X137767381Y-125436190D01*
X137719762Y-125531429D01*
X137672143Y-125579048D01*
X137529286Y-125674286D01*
X137338810Y-125721905D01*
X136957857Y-125721905D01*
X136862619Y-125674286D01*
X136815000Y-125626667D01*
X136767381Y-125531429D01*
X136767381Y-125340952D01*
X136815000Y-125245714D01*
X136862619Y-125198095D01*
X136957857Y-125150476D01*
X137195952Y-125150476D01*
X137291190Y-125198095D01*
X137338810Y-125245714D01*
X137386429Y-125340952D01*
X137386429Y-125531429D01*
X137338810Y-125626667D01*
X137291190Y-125674286D01*
X137195952Y-125721905D01*
X138437857Y-116082143D02*
X138485476Y-116129762D01*
X138628333Y-116177381D01*
X138723571Y-116177381D01*
X138866429Y-116129762D01*
X138961667Y-116034524D01*
X139009286Y-115939286D01*
X139056905Y-115748810D01*
X139056905Y-115605952D01*
X139009286Y-115415476D01*
X138961667Y-115320238D01*
X138866429Y-115225000D01*
X138723571Y-115177381D01*
X138628333Y-115177381D01*
X138485476Y-115225000D01*
X138437857Y-115272619D01*
X138056905Y-115272619D02*
X138009286Y-115225000D01*
X137914048Y-115177381D01*
X137675952Y-115177381D01*
X137580714Y-115225000D01*
X137533095Y-115272619D01*
X137485476Y-115367857D01*
X137485476Y-115463095D01*
X137533095Y-115605952D01*
X138104524Y-116177381D01*
X137485476Y-116177381D01*
X136866429Y-115177381D02*
X136771190Y-115177381D01*
X136675952Y-115225000D01*
X136628333Y-115272619D01*
X136580714Y-115367857D01*
X136533095Y-115558333D01*
X136533095Y-115796429D01*
X136580714Y-115986905D01*
X136628333Y-116082143D01*
X136675952Y-116129762D01*
X136771190Y-116177381D01*
X136866429Y-116177381D01*
X136961667Y-116129762D01*
X137009286Y-116082143D01*
X137056905Y-115986905D01*
X137104524Y-115796429D01*
X137104524Y-115558333D01*
X137056905Y-115367857D01*
X137009286Y-115272619D01*
X136961667Y-115225000D01*
X136866429Y-115177381D01*
X138310857Y-110593143D02*
X138358476Y-110640762D01*
X138501333Y-110688381D01*
X138596571Y-110688381D01*
X138739429Y-110640762D01*
X138834667Y-110545524D01*
X138882286Y-110450286D01*
X138929905Y-110259810D01*
X138929905Y-110116952D01*
X138882286Y-109926476D01*
X138834667Y-109831238D01*
X138739429Y-109736000D01*
X138596571Y-109688381D01*
X138501333Y-109688381D01*
X138358476Y-109736000D01*
X138310857Y-109783619D01*
X137929905Y-109783619D02*
X137882286Y-109736000D01*
X137787048Y-109688381D01*
X137548952Y-109688381D01*
X137453714Y-109736000D01*
X137406095Y-109783619D01*
X137358476Y-109878857D01*
X137358476Y-109974095D01*
X137406095Y-110116952D01*
X137977524Y-110688381D01*
X137358476Y-110688381D01*
X136406095Y-110688381D02*
X136977524Y-110688381D01*
X136691810Y-110688381D02*
X136691810Y-109688381D01*
X136787048Y-109831238D01*
X136882286Y-109926476D01*
X136977524Y-109974095D01*
X137167857Y-102338143D02*
X137215476Y-102385762D01*
X137358333Y-102433381D01*
X137453571Y-102433381D01*
X137596429Y-102385762D01*
X137691667Y-102290524D01*
X137739286Y-102195286D01*
X137786905Y-102004810D01*
X137786905Y-101861952D01*
X137739286Y-101671476D01*
X137691667Y-101576238D01*
X137596429Y-101481000D01*
X137453571Y-101433381D01*
X137358333Y-101433381D01*
X137215476Y-101481000D01*
X137167857Y-101528619D01*
X136786905Y-101528619D02*
X136739286Y-101481000D01*
X136644048Y-101433381D01*
X136405952Y-101433381D01*
X136310714Y-101481000D01*
X136263095Y-101528619D01*
X136215476Y-101623857D01*
X136215476Y-101719095D01*
X136263095Y-101861952D01*
X136834524Y-102433381D01*
X136215476Y-102433381D01*
X135834524Y-101528619D02*
X135786905Y-101481000D01*
X135691667Y-101433381D01*
X135453571Y-101433381D01*
X135358333Y-101481000D01*
X135310714Y-101528619D01*
X135263095Y-101623857D01*
X135263095Y-101719095D01*
X135310714Y-101861952D01*
X135882143Y-102433381D01*
X135263095Y-102433381D01*
X143712143Y-100322143D02*
X143759762Y-100274524D01*
X143807381Y-100131667D01*
X143807381Y-100036429D01*
X143759762Y-99893571D01*
X143664524Y-99798333D01*
X143569286Y-99750714D01*
X143378810Y-99703095D01*
X143235952Y-99703095D01*
X143045476Y-99750714D01*
X142950238Y-99798333D01*
X142855000Y-99893571D01*
X142807381Y-100036429D01*
X142807381Y-100131667D01*
X142855000Y-100274524D01*
X142902619Y-100322143D01*
X142902619Y-100703095D02*
X142855000Y-100750714D01*
X142807381Y-100845952D01*
X142807381Y-101084048D01*
X142855000Y-101179286D01*
X142902619Y-101226905D01*
X142997857Y-101274524D01*
X143093095Y-101274524D01*
X143235952Y-101226905D01*
X143807381Y-100655476D01*
X143807381Y-101274524D01*
X142807381Y-101607857D02*
X142807381Y-102226905D01*
X143188333Y-101893571D01*
X143188333Y-102036429D01*
X143235952Y-102131667D01*
X143283571Y-102179286D01*
X143378810Y-102226905D01*
X143616905Y-102226905D01*
X143712143Y-102179286D01*
X143759762Y-102131667D01*
X143807381Y-102036429D01*
X143807381Y-101750714D01*
X143759762Y-101655476D01*
X143712143Y-101607857D01*
X148157143Y-100322143D02*
X148204762Y-100274524D01*
X148252381Y-100131667D01*
X148252381Y-100036429D01*
X148204762Y-99893571D01*
X148109524Y-99798333D01*
X148014286Y-99750714D01*
X147823810Y-99703095D01*
X147680952Y-99703095D01*
X147490476Y-99750714D01*
X147395238Y-99798333D01*
X147300000Y-99893571D01*
X147252381Y-100036429D01*
X147252381Y-100131667D01*
X147300000Y-100274524D01*
X147347619Y-100322143D01*
X147347619Y-100703095D02*
X147300000Y-100750714D01*
X147252381Y-100845952D01*
X147252381Y-101084048D01*
X147300000Y-101179286D01*
X147347619Y-101226905D01*
X147442857Y-101274524D01*
X147538095Y-101274524D01*
X147680952Y-101226905D01*
X148252381Y-100655476D01*
X148252381Y-101274524D01*
X147585714Y-102131667D02*
X148252381Y-102131667D01*
X147204762Y-101893571D02*
X147919048Y-101655476D01*
X147919048Y-102274524D01*
X151487143Y-100322143D02*
X151534762Y-100274524D01*
X151582381Y-100131667D01*
X151582381Y-100036429D01*
X151534762Y-99893571D01*
X151439524Y-99798333D01*
X151344286Y-99750714D01*
X151153810Y-99703095D01*
X151010952Y-99703095D01*
X150820476Y-99750714D01*
X150725238Y-99798333D01*
X150630000Y-99893571D01*
X150582381Y-100036429D01*
X150582381Y-100131667D01*
X150630000Y-100274524D01*
X150677619Y-100322143D01*
X150677619Y-100703095D02*
X150630000Y-100750714D01*
X150582381Y-100845952D01*
X150582381Y-101084048D01*
X150630000Y-101179286D01*
X150677619Y-101226905D01*
X150772857Y-101274524D01*
X150868095Y-101274524D01*
X151010952Y-101226905D01*
X151582381Y-100655476D01*
X151582381Y-101274524D01*
X150582381Y-102179286D02*
X150582381Y-101703095D01*
X151058571Y-101655476D01*
X151010952Y-101703095D01*
X150963333Y-101798333D01*
X150963333Y-102036429D01*
X151010952Y-102131667D01*
X151058571Y-102179286D01*
X151153810Y-102226905D01*
X151391905Y-102226905D01*
X151487143Y-102179286D01*
X151534762Y-102131667D01*
X151582381Y-102036429D01*
X151582381Y-101798333D01*
X151534762Y-101703095D01*
X151487143Y-101655476D01*
X154507143Y-100322143D02*
X154554762Y-100274524D01*
X154602381Y-100131667D01*
X154602381Y-100036429D01*
X154554762Y-99893571D01*
X154459524Y-99798333D01*
X154364286Y-99750714D01*
X154173810Y-99703095D01*
X154030952Y-99703095D01*
X153840476Y-99750714D01*
X153745238Y-99798333D01*
X153650000Y-99893571D01*
X153602381Y-100036429D01*
X153602381Y-100131667D01*
X153650000Y-100274524D01*
X153697619Y-100322143D01*
X153697619Y-100703095D02*
X153650000Y-100750714D01*
X153602381Y-100845952D01*
X153602381Y-101084048D01*
X153650000Y-101179286D01*
X153697619Y-101226905D01*
X153792857Y-101274524D01*
X153888095Y-101274524D01*
X154030952Y-101226905D01*
X154602381Y-100655476D01*
X154602381Y-101274524D01*
X153602381Y-102131667D02*
X153602381Y-101941190D01*
X153650000Y-101845952D01*
X153697619Y-101798333D01*
X153840476Y-101703095D01*
X154030952Y-101655476D01*
X154411905Y-101655476D01*
X154507143Y-101703095D01*
X154554762Y-101750714D01*
X154602381Y-101845952D01*
X154602381Y-102036429D01*
X154554762Y-102131667D01*
X154507143Y-102179286D01*
X154411905Y-102226905D01*
X154173810Y-102226905D01*
X154078571Y-102179286D01*
X154030952Y-102131667D01*
X153983333Y-102036429D01*
X153983333Y-101845952D01*
X154030952Y-101750714D01*
X154078571Y-101703095D01*
X154173810Y-101655476D01*
X163202857Y-103227143D02*
X163250476Y-103274762D01*
X163393333Y-103322381D01*
X163488571Y-103322381D01*
X163631429Y-103274762D01*
X163726667Y-103179524D01*
X163774286Y-103084286D01*
X163821905Y-102893810D01*
X163821905Y-102750952D01*
X163774286Y-102560476D01*
X163726667Y-102465238D01*
X163631429Y-102370000D01*
X163488571Y-102322381D01*
X163393333Y-102322381D01*
X163250476Y-102370000D01*
X163202857Y-102417619D01*
X162821905Y-102417619D02*
X162774286Y-102370000D01*
X162679048Y-102322381D01*
X162440952Y-102322381D01*
X162345714Y-102370000D01*
X162298095Y-102417619D01*
X162250476Y-102512857D01*
X162250476Y-102608095D01*
X162298095Y-102750952D01*
X162869524Y-103322381D01*
X162250476Y-103322381D01*
X161917143Y-102322381D02*
X161250476Y-102322381D01*
X161679048Y-103322381D01*
X163075857Y-108307143D02*
X163123476Y-108354762D01*
X163266333Y-108402381D01*
X163361571Y-108402381D01*
X163504429Y-108354762D01*
X163599667Y-108259524D01*
X163647286Y-108164286D01*
X163694905Y-107973810D01*
X163694905Y-107830952D01*
X163647286Y-107640476D01*
X163599667Y-107545238D01*
X163504429Y-107450000D01*
X163361571Y-107402381D01*
X163266333Y-107402381D01*
X163123476Y-107450000D01*
X163075857Y-107497619D01*
X162694905Y-107497619D02*
X162647286Y-107450000D01*
X162552048Y-107402381D01*
X162313952Y-107402381D01*
X162218714Y-107450000D01*
X162171095Y-107497619D01*
X162123476Y-107592857D01*
X162123476Y-107688095D01*
X162171095Y-107830952D01*
X162742524Y-108402381D01*
X162123476Y-108402381D01*
X161552048Y-107830952D02*
X161647286Y-107783333D01*
X161694905Y-107735714D01*
X161742524Y-107640476D01*
X161742524Y-107592857D01*
X161694905Y-107497619D01*
X161647286Y-107450000D01*
X161552048Y-107402381D01*
X161361571Y-107402381D01*
X161266333Y-107450000D01*
X161218714Y-107497619D01*
X161171095Y-107592857D01*
X161171095Y-107640476D01*
X161218714Y-107735714D01*
X161266333Y-107783333D01*
X161361571Y-107830952D01*
X161552048Y-107830952D01*
X161647286Y-107878571D01*
X161694905Y-107926190D01*
X161742524Y-108021429D01*
X161742524Y-108211905D01*
X161694905Y-108307143D01*
X161647286Y-108354762D01*
X161552048Y-108402381D01*
X161361571Y-108402381D01*
X161266333Y-108354762D01*
X161218714Y-108307143D01*
X161171095Y-108211905D01*
X161171095Y-108021429D01*
X161218714Y-107926190D01*
X161266333Y-107878571D01*
X161361571Y-107830952D01*
X163075857Y-112498143D02*
X163123476Y-112545762D01*
X163266333Y-112593381D01*
X163361571Y-112593381D01*
X163504429Y-112545762D01*
X163599667Y-112450524D01*
X163647286Y-112355286D01*
X163694905Y-112164810D01*
X163694905Y-112021952D01*
X163647286Y-111831476D01*
X163599667Y-111736238D01*
X163504429Y-111641000D01*
X163361571Y-111593381D01*
X163266333Y-111593381D01*
X163123476Y-111641000D01*
X163075857Y-111688619D01*
X162694905Y-111688619D02*
X162647286Y-111641000D01*
X162552048Y-111593381D01*
X162313952Y-111593381D01*
X162218714Y-111641000D01*
X162171095Y-111688619D01*
X162123476Y-111783857D01*
X162123476Y-111879095D01*
X162171095Y-112021952D01*
X162742524Y-112593381D01*
X162123476Y-112593381D01*
X161647286Y-112593381D02*
X161456810Y-112593381D01*
X161361571Y-112545762D01*
X161313952Y-112498143D01*
X161218714Y-112355286D01*
X161171095Y-112164810D01*
X161171095Y-111783857D01*
X161218714Y-111688619D01*
X161266333Y-111641000D01*
X161361571Y-111593381D01*
X161552048Y-111593381D01*
X161647286Y-111641000D01*
X161694905Y-111688619D01*
X161742524Y-111783857D01*
X161742524Y-112021952D01*
X161694905Y-112117190D01*
X161647286Y-112164810D01*
X161552048Y-112212429D01*
X161361571Y-112212429D01*
X161266333Y-112164810D01*
X161218714Y-112117190D01*
X161171095Y-112021952D01*
X159392857Y-120217143D02*
X159440476Y-120264762D01*
X159583333Y-120312381D01*
X159678571Y-120312381D01*
X159821429Y-120264762D01*
X159916667Y-120169524D01*
X159964286Y-120074286D01*
X160011905Y-119883810D01*
X160011905Y-119740952D01*
X159964286Y-119550476D01*
X159916667Y-119455238D01*
X159821429Y-119360000D01*
X159678571Y-119312381D01*
X159583333Y-119312381D01*
X159440476Y-119360000D01*
X159392857Y-119407619D01*
X159059524Y-119312381D02*
X158440476Y-119312381D01*
X158773810Y-119693333D01*
X158630952Y-119693333D01*
X158535714Y-119740952D01*
X158488095Y-119788571D01*
X158440476Y-119883810D01*
X158440476Y-120121905D01*
X158488095Y-120217143D01*
X158535714Y-120264762D01*
X158630952Y-120312381D01*
X158916667Y-120312381D01*
X159011905Y-120264762D01*
X159059524Y-120217143D01*
X157821429Y-119312381D02*
X157726190Y-119312381D01*
X157630952Y-119360000D01*
X157583333Y-119407619D01*
X157535714Y-119502857D01*
X157488095Y-119693333D01*
X157488095Y-119931429D01*
X157535714Y-120121905D01*
X157583333Y-120217143D01*
X157630952Y-120264762D01*
X157726190Y-120312381D01*
X157821429Y-120312381D01*
X157916667Y-120264762D01*
X157964286Y-120217143D01*
X158011905Y-120121905D01*
X158059524Y-119931429D01*
X158059524Y-119693333D01*
X158011905Y-119502857D01*
X157964286Y-119407619D01*
X157916667Y-119360000D01*
X157821429Y-119312381D01*
X155932143Y-128262143D02*
X155979762Y-128214524D01*
X156027381Y-128071667D01*
X156027381Y-127976429D01*
X155979762Y-127833571D01*
X155884524Y-127738333D01*
X155789286Y-127690714D01*
X155598810Y-127643095D01*
X155455952Y-127643095D01*
X155265476Y-127690714D01*
X155170238Y-127738333D01*
X155075000Y-127833571D01*
X155027381Y-127976429D01*
X155027381Y-128071667D01*
X155075000Y-128214524D01*
X155122619Y-128262143D01*
X155027381Y-128595476D02*
X155027381Y-129214524D01*
X155408333Y-128881190D01*
X155408333Y-129024048D01*
X155455952Y-129119286D01*
X155503571Y-129166905D01*
X155598810Y-129214524D01*
X155836905Y-129214524D01*
X155932143Y-129166905D01*
X155979762Y-129119286D01*
X156027381Y-129024048D01*
X156027381Y-128738333D01*
X155979762Y-128643095D01*
X155932143Y-128595476D01*
X156027381Y-130166905D02*
X156027381Y-129595476D01*
X156027381Y-129881190D02*
X155027381Y-129881190D01*
X155170238Y-129785952D01*
X155265476Y-129690714D01*
X155313095Y-129595476D01*
X136913857Y-119483143D02*
X136961476Y-119530762D01*
X137104333Y-119578381D01*
X137199571Y-119578381D01*
X137342429Y-119530762D01*
X137437667Y-119435524D01*
X137485286Y-119340286D01*
X137532905Y-119149810D01*
X137532905Y-119006952D01*
X137485286Y-118816476D01*
X137437667Y-118721238D01*
X137342429Y-118626000D01*
X137199571Y-118578381D01*
X137104333Y-118578381D01*
X136961476Y-118626000D01*
X136913857Y-118673619D01*
X136580524Y-118578381D02*
X135961476Y-118578381D01*
X136294810Y-118959333D01*
X136151952Y-118959333D01*
X136056714Y-119006952D01*
X136009095Y-119054571D01*
X135961476Y-119149810D01*
X135961476Y-119387905D01*
X136009095Y-119483143D01*
X136056714Y-119530762D01*
X136151952Y-119578381D01*
X136437667Y-119578381D01*
X136532905Y-119530762D01*
X136580524Y-119483143D01*
X135580524Y-118673619D02*
X135532905Y-118626000D01*
X135437667Y-118578381D01*
X135199571Y-118578381D01*
X135104333Y-118626000D01*
X135056714Y-118673619D01*
X135009095Y-118768857D01*
X135009095Y-118864095D01*
X135056714Y-119006952D01*
X135628143Y-119578381D01*
X135009095Y-119578381D01*
X141866857Y-107418143D02*
X141914476Y-107465762D01*
X142057333Y-107513381D01*
X142152571Y-107513381D01*
X142295429Y-107465762D01*
X142390667Y-107370524D01*
X142438286Y-107275286D01*
X142485905Y-107084810D01*
X142485905Y-106941952D01*
X142438286Y-106751476D01*
X142390667Y-106656238D01*
X142295429Y-106561000D01*
X142152571Y-106513381D01*
X142057333Y-106513381D01*
X141914476Y-106561000D01*
X141866857Y-106608619D01*
X141533524Y-106513381D02*
X140914476Y-106513381D01*
X141247810Y-106894333D01*
X141104952Y-106894333D01*
X141009714Y-106941952D01*
X140962095Y-106989571D01*
X140914476Y-107084810D01*
X140914476Y-107322905D01*
X140962095Y-107418143D01*
X141009714Y-107465762D01*
X141104952Y-107513381D01*
X141390667Y-107513381D01*
X141485905Y-107465762D01*
X141533524Y-107418143D01*
X140581143Y-106513381D02*
X139962095Y-106513381D01*
X140295429Y-106894333D01*
X140152571Y-106894333D01*
X140057333Y-106941952D01*
X140009714Y-106989571D01*
X139962095Y-107084810D01*
X139962095Y-107322905D01*
X140009714Y-107418143D01*
X140057333Y-107465762D01*
X140152571Y-107513381D01*
X140438286Y-107513381D01*
X140533524Y-107465762D01*
X140581143Y-107418143D01*
X163075857Y-105767143D02*
X163123476Y-105814762D01*
X163266333Y-105862381D01*
X163361571Y-105862381D01*
X163504429Y-105814762D01*
X163599667Y-105719524D01*
X163647286Y-105624286D01*
X163694905Y-105433810D01*
X163694905Y-105290952D01*
X163647286Y-105100476D01*
X163599667Y-105005238D01*
X163504429Y-104910000D01*
X163361571Y-104862381D01*
X163266333Y-104862381D01*
X163123476Y-104910000D01*
X163075857Y-104957619D01*
X162742524Y-104862381D02*
X162123476Y-104862381D01*
X162456810Y-105243333D01*
X162313952Y-105243333D01*
X162218714Y-105290952D01*
X162171095Y-105338571D01*
X162123476Y-105433810D01*
X162123476Y-105671905D01*
X162171095Y-105767143D01*
X162218714Y-105814762D01*
X162313952Y-105862381D01*
X162599667Y-105862381D01*
X162694905Y-105814762D01*
X162742524Y-105767143D01*
X161266333Y-105195714D02*
X161266333Y-105862381D01*
X161504429Y-104814762D02*
X161742524Y-105529048D01*
X161123476Y-105529048D01*
X158472143Y-128262143D02*
X158519762Y-128214524D01*
X158567381Y-128071667D01*
X158567381Y-127976429D01*
X158519762Y-127833571D01*
X158424524Y-127738333D01*
X158329286Y-127690714D01*
X158138810Y-127643095D01*
X157995952Y-127643095D01*
X157805476Y-127690714D01*
X157710238Y-127738333D01*
X157615000Y-127833571D01*
X157567381Y-127976429D01*
X157567381Y-128071667D01*
X157615000Y-128214524D01*
X157662619Y-128262143D01*
X157567381Y-128595476D02*
X157567381Y-129214524D01*
X157948333Y-128881190D01*
X157948333Y-129024048D01*
X157995952Y-129119286D01*
X158043571Y-129166905D01*
X158138810Y-129214524D01*
X158376905Y-129214524D01*
X158472143Y-129166905D01*
X158519762Y-129119286D01*
X158567381Y-129024048D01*
X158567381Y-128738333D01*
X158519762Y-128643095D01*
X158472143Y-128595476D01*
X157567381Y-130119286D02*
X157567381Y-129643095D01*
X158043571Y-129595476D01*
X157995952Y-129643095D01*
X157948333Y-129738333D01*
X157948333Y-129976429D01*
X157995952Y-130071667D01*
X158043571Y-130119286D01*
X158138810Y-130166905D01*
X158376905Y-130166905D01*
X158472143Y-130119286D01*
X158519762Y-130071667D01*
X158567381Y-129976429D01*
X158567381Y-129738333D01*
X158519762Y-129643095D01*
X158472143Y-129595476D01*
X162437143Y-122547143D02*
X162484762Y-122499524D01*
X162532381Y-122356667D01*
X162532381Y-122261429D01*
X162484762Y-122118571D01*
X162389524Y-122023333D01*
X162294286Y-121975714D01*
X162103810Y-121928095D01*
X161960952Y-121928095D01*
X161770476Y-121975714D01*
X161675238Y-122023333D01*
X161580000Y-122118571D01*
X161532381Y-122261429D01*
X161532381Y-122356667D01*
X161580000Y-122499524D01*
X161627619Y-122547143D01*
X161532381Y-122880476D02*
X161532381Y-123499524D01*
X161913333Y-123166190D01*
X161913333Y-123309048D01*
X161960952Y-123404286D01*
X162008571Y-123451905D01*
X162103810Y-123499524D01*
X162341905Y-123499524D01*
X162437143Y-123451905D01*
X162484762Y-123404286D01*
X162532381Y-123309048D01*
X162532381Y-123023333D01*
X162484762Y-122928095D01*
X162437143Y-122880476D01*
X161532381Y-124356667D02*
X161532381Y-124166190D01*
X161580000Y-124070952D01*
X161627619Y-124023333D01*
X161770476Y-123928095D01*
X161960952Y-123880476D01*
X162341905Y-123880476D01*
X162437143Y-123928095D01*
X162484762Y-123975714D01*
X162532381Y-124070952D01*
X162532381Y-124261429D01*
X162484762Y-124356667D01*
X162437143Y-124404286D01*
X162341905Y-124451905D01*
X162103810Y-124451905D01*
X162008571Y-124404286D01*
X161960952Y-124356667D01*
X161913333Y-124261429D01*
X161913333Y-124070952D01*
X161960952Y-123975714D01*
X162008571Y-123928095D01*
X162103810Y-123880476D01*
X158249857Y-114657143D02*
X158297476Y-114704762D01*
X158440333Y-114752381D01*
X158535571Y-114752381D01*
X158678429Y-114704762D01*
X158773667Y-114609524D01*
X158821286Y-114514286D01*
X158868905Y-114323810D01*
X158868905Y-114180952D01*
X158821286Y-113990476D01*
X158773667Y-113895238D01*
X158678429Y-113800000D01*
X158535571Y-113752381D01*
X158440333Y-113752381D01*
X158297476Y-113800000D01*
X158249857Y-113847619D01*
X157916524Y-113752381D02*
X157297476Y-113752381D01*
X157630810Y-114133333D01*
X157487952Y-114133333D01*
X157392714Y-114180952D01*
X157345095Y-114228571D01*
X157297476Y-114323810D01*
X157297476Y-114561905D01*
X157345095Y-114657143D01*
X157392714Y-114704762D01*
X157487952Y-114752381D01*
X157773667Y-114752381D01*
X157868905Y-114704762D01*
X157916524Y-114657143D01*
X156964143Y-113752381D02*
X156297476Y-113752381D01*
X156726048Y-114752381D01*
X170791143Y-110228143D02*
X170838762Y-110180524D01*
X170886381Y-110037667D01*
X170886381Y-109942429D01*
X170838762Y-109799571D01*
X170743524Y-109704333D01*
X170648286Y-109656714D01*
X170457810Y-109609095D01*
X170314952Y-109609095D01*
X170124476Y-109656714D01*
X170029238Y-109704333D01*
X169934000Y-109799571D01*
X169886381Y-109942429D01*
X169886381Y-110037667D01*
X169934000Y-110180524D01*
X169981619Y-110228143D01*
X169886381Y-110561476D02*
X169886381Y-111180524D01*
X170267333Y-110847190D01*
X170267333Y-110990048D01*
X170314952Y-111085286D01*
X170362571Y-111132905D01*
X170457810Y-111180524D01*
X170695905Y-111180524D01*
X170791143Y-111132905D01*
X170838762Y-111085286D01*
X170886381Y-110990048D01*
X170886381Y-110704333D01*
X170838762Y-110609095D01*
X170791143Y-110561476D01*
X170314952Y-111751952D02*
X170267333Y-111656714D01*
X170219714Y-111609095D01*
X170124476Y-111561476D01*
X170076857Y-111561476D01*
X169981619Y-111609095D01*
X169934000Y-111656714D01*
X169886381Y-111751952D01*
X169886381Y-111942429D01*
X169934000Y-112037667D01*
X169981619Y-112085286D01*
X170076857Y-112132905D01*
X170124476Y-112132905D01*
X170219714Y-112085286D01*
X170267333Y-112037667D01*
X170314952Y-111942429D01*
X170314952Y-111751952D01*
X170362571Y-111656714D01*
X170410190Y-111609095D01*
X170505429Y-111561476D01*
X170695905Y-111561476D01*
X170791143Y-111609095D01*
X170838762Y-111656714D01*
X170886381Y-111751952D01*
X170886381Y-111942429D01*
X170838762Y-112037667D01*
X170791143Y-112085286D01*
X170695905Y-112132905D01*
X170505429Y-112132905D01*
X170410190Y-112085286D01*
X170362571Y-112037667D01*
X170314952Y-111942429D01*
X166882143Y-122547143D02*
X166929762Y-122499524D01*
X166977381Y-122356667D01*
X166977381Y-122261429D01*
X166929762Y-122118571D01*
X166834524Y-122023333D01*
X166739286Y-121975714D01*
X166548810Y-121928095D01*
X166405952Y-121928095D01*
X166215476Y-121975714D01*
X166120238Y-122023333D01*
X166025000Y-122118571D01*
X165977381Y-122261429D01*
X165977381Y-122356667D01*
X166025000Y-122499524D01*
X166072619Y-122547143D01*
X165977381Y-122880476D02*
X165977381Y-123499524D01*
X166358333Y-123166190D01*
X166358333Y-123309048D01*
X166405952Y-123404286D01*
X166453571Y-123451905D01*
X166548810Y-123499524D01*
X166786905Y-123499524D01*
X166882143Y-123451905D01*
X166929762Y-123404286D01*
X166977381Y-123309048D01*
X166977381Y-123023333D01*
X166929762Y-122928095D01*
X166882143Y-122880476D01*
X166977381Y-123975714D02*
X166977381Y-124166190D01*
X166929762Y-124261429D01*
X166882143Y-124309048D01*
X166739286Y-124404286D01*
X166548810Y-124451905D01*
X166167857Y-124451905D01*
X166072619Y-124404286D01*
X166025000Y-124356667D01*
X165977381Y-124261429D01*
X165977381Y-124070952D01*
X166025000Y-123975714D01*
X166072619Y-123928095D01*
X166167857Y-123880476D01*
X166405952Y-123880476D01*
X166501190Y-123928095D01*
X166548810Y-123975714D01*
X166596429Y-124070952D01*
X166596429Y-124261429D01*
X166548810Y-124356667D01*
X166501190Y-124404286D01*
X166405952Y-124451905D01*
X169930143Y-119372143D02*
X169977762Y-119324524D01*
X170025381Y-119181667D01*
X170025381Y-119086429D01*
X169977762Y-118943571D01*
X169882524Y-118848333D01*
X169787286Y-118800714D01*
X169596810Y-118753095D01*
X169453952Y-118753095D01*
X169263476Y-118800714D01*
X169168238Y-118848333D01*
X169073000Y-118943571D01*
X169025381Y-119086429D01*
X169025381Y-119181667D01*
X169073000Y-119324524D01*
X169120619Y-119372143D01*
X169358714Y-120229286D02*
X170025381Y-120229286D01*
X168977762Y-119991190D02*
X169692048Y-119753095D01*
X169692048Y-120372143D01*
X169025381Y-120943571D02*
X169025381Y-121038810D01*
X169073000Y-121134048D01*
X169120619Y-121181667D01*
X169215857Y-121229286D01*
X169406333Y-121276905D01*
X169644429Y-121276905D01*
X169834905Y-121229286D01*
X169930143Y-121181667D01*
X169977762Y-121134048D01*
X170025381Y-121038810D01*
X170025381Y-120943571D01*
X169977762Y-120848333D01*
X169930143Y-120800714D01*
X169834905Y-120753095D01*
X169644429Y-120705476D01*
X169406333Y-120705476D01*
X169215857Y-120753095D01*
X169120619Y-120800714D01*
X169073000Y-120848333D01*
X169025381Y-120943571D01*
X175109143Y-120261143D02*
X175156762Y-120213524D01*
X175204381Y-120070667D01*
X175204381Y-119975429D01*
X175156762Y-119832571D01*
X175061524Y-119737333D01*
X174966286Y-119689714D01*
X174775810Y-119642095D01*
X174632952Y-119642095D01*
X174442476Y-119689714D01*
X174347238Y-119737333D01*
X174252000Y-119832571D01*
X174204381Y-119975429D01*
X174204381Y-120070667D01*
X174252000Y-120213524D01*
X174299619Y-120261143D01*
X174537714Y-121118286D02*
X175204381Y-121118286D01*
X174156762Y-120880190D02*
X174871048Y-120642095D01*
X174871048Y-121261143D01*
X175204381Y-122165905D02*
X175204381Y-121594476D01*
X175204381Y-121880190D02*
X174204381Y-121880190D01*
X174347238Y-121784952D01*
X174442476Y-121689714D01*
X174490095Y-121594476D01*
X174632857Y-114403143D02*
X174680476Y-114450762D01*
X174823333Y-114498381D01*
X174918571Y-114498381D01*
X175061429Y-114450762D01*
X175156667Y-114355524D01*
X175204286Y-114260286D01*
X175251905Y-114069810D01*
X175251905Y-113926952D01*
X175204286Y-113736476D01*
X175156667Y-113641238D01*
X175061429Y-113546000D01*
X174918571Y-113498381D01*
X174823333Y-113498381D01*
X174680476Y-113546000D01*
X174632857Y-113593619D01*
X173775714Y-113831714D02*
X173775714Y-114498381D01*
X174013810Y-113450762D02*
X174251905Y-114165048D01*
X173632857Y-114165048D01*
X173299524Y-113593619D02*
X173251905Y-113546000D01*
X173156667Y-113498381D01*
X172918571Y-113498381D01*
X172823333Y-113546000D01*
X172775714Y-113593619D01*
X172728095Y-113688857D01*
X172728095Y-113784095D01*
X172775714Y-113926952D01*
X173347143Y-114498381D01*
X172728095Y-114498381D01*
X178442857Y-121487143D02*
X178490476Y-121534762D01*
X178633333Y-121582381D01*
X178728571Y-121582381D01*
X178871429Y-121534762D01*
X178966667Y-121439524D01*
X179014286Y-121344286D01*
X179061905Y-121153810D01*
X179061905Y-121010952D01*
X179014286Y-120820476D01*
X178966667Y-120725238D01*
X178871429Y-120630000D01*
X178728571Y-120582381D01*
X178633333Y-120582381D01*
X178490476Y-120630000D01*
X178442857Y-120677619D01*
X177585714Y-120915714D02*
X177585714Y-121582381D01*
X177823810Y-120534762D02*
X178061905Y-121249048D01*
X177442857Y-121249048D01*
X177157143Y-120582381D02*
X176538095Y-120582381D01*
X176871429Y-120963333D01*
X176728571Y-120963333D01*
X176633333Y-121010952D01*
X176585714Y-121058571D01*
X176538095Y-121153810D01*
X176538095Y-121391905D01*
X176585714Y-121487143D01*
X176633333Y-121534762D01*
X176728571Y-121582381D01*
X177014286Y-121582381D01*
X177109524Y-121534762D01*
X177157143Y-121487143D01*
X147327857Y-137362143D02*
X147375476Y-137409762D01*
X147518333Y-137457381D01*
X147613571Y-137457381D01*
X147756429Y-137409762D01*
X147851667Y-137314524D01*
X147899286Y-137219286D01*
X147946905Y-137028810D01*
X147946905Y-136885952D01*
X147899286Y-136695476D01*
X147851667Y-136600238D01*
X147756429Y-136505000D01*
X147613571Y-136457381D01*
X147518333Y-136457381D01*
X147375476Y-136505000D01*
X147327857Y-136552619D01*
X146470714Y-136790714D02*
X146470714Y-137457381D01*
X146708810Y-136409762D02*
X146946905Y-137124048D01*
X146327857Y-137124048D01*
X145518333Y-136790714D02*
X145518333Y-137457381D01*
X145756429Y-136409762D02*
X145994524Y-137124048D01*
X145375476Y-137124048D01*
X175109143Y-110863143D02*
X175156762Y-110815524D01*
X175204381Y-110672667D01*
X175204381Y-110577429D01*
X175156762Y-110434571D01*
X175061524Y-110339333D01*
X174966286Y-110291714D01*
X174775810Y-110244095D01*
X174632952Y-110244095D01*
X174442476Y-110291714D01*
X174347238Y-110339333D01*
X174252000Y-110434571D01*
X174204381Y-110577429D01*
X174204381Y-110672667D01*
X174252000Y-110815524D01*
X174299619Y-110863143D01*
X174537714Y-111720286D02*
X175204381Y-111720286D01*
X174156762Y-111482190D02*
X174871048Y-111244095D01*
X174871048Y-111863143D01*
X174204381Y-112720286D02*
X174204381Y-112244095D01*
X174680571Y-112196476D01*
X174632952Y-112244095D01*
X174585333Y-112339333D01*
X174585333Y-112577429D01*
X174632952Y-112672667D01*
X174680571Y-112720286D01*
X174775810Y-112767905D01*
X175013905Y-112767905D01*
X175109143Y-112720286D01*
X175156762Y-112672667D01*
X175204381Y-112577429D01*
X175204381Y-112339333D01*
X175156762Y-112244095D01*
X175109143Y-112196476D01*
M02*
