M48
METRIC,TZ
T1C0.400
T2C1.000
T3C1.300
T4C3.000
%
G90
G05
T1
X122555Y-121285
X123571Y-135255
X124206Y-133350
X125095Y-124460
X126111Y-117983
X127889Y-113538
X129159Y-110744
X129921Y-137668
X132080Y-107061
X132080Y-109601
X132334Y-112141
X132334Y-113919
X133096Y-117602
X133985Y-135255
X134493Y-133223
X134747Y-107188
X134747Y-110871
X134747Y-114554
X134747Y-115951
X135255Y-102489
X137795Y-103505
X137795Y-104902
X137795Y-106299
X137922Y-120777
X139192Y-108585
X139319Y-103759
X139319Y-122682
X139700Y-117475
X140208Y-137668
X140335Y-103378
X140589Y-119761
X141097Y-122555
X141224Y-103378
X141478Y-107315
X142113Y-103759
X144145Y-103759
X144145Y-135255
X144780Y-133350
X145034Y-122682
X146177Y-103632
X146558Y-122555
X148082Y-103759
X149860Y-103632
X150368Y-137668
X151511Y-122555
X151765Y-103378
X152527Y-103759
X152908Y-122682
X153416Y-103505
X153446Y-118902
X153543Y-99060
X153670Y-106807
X154051Y-122428
X154305Y-135255
X154813Y-133350
X155194Y-122682
X156083Y-103505
X156718Y-105156
X156718Y-106807
X156718Y-110617
X156718Y-111760
X156718Y-116586
X156845Y-103759
X156845Y-122555
X157099Y-117983
X159639Y-106553
X159893Y-122809
X160528Y-137668
X163830Y-113411
X163830Y-131826
X164338Y-120904
X165608Y-142240
X166370Y-123317
X166370Y-131826
X166370Y-138811
X166370Y-143510
X167620Y-135890
X168910Y-131826
X169418Y-124587
X169545Y-120650
X170180Y-128397
X170307Y-103378
X170307Y-106172
X170307Y-121158
X170942Y-123063
X171323Y-104140
X171323Y-106172
X171450Y-131699
X172720Y-123063
X172847Y-112903
X173101Y-123825
X173101Y-143510
X173736Y-124714
X173736Y-125603
X174498Y-107823
X174498Y-109855
X174625Y-131826
X175031Y-112573
X175260Y-142240
X175387Y-119253
X175641Y-123063
X175768Y-143510
X175895Y-117475
X176149Y-115697
X176276Y-100711
X176276Y-113264
X176657Y-120777
X176657Y-123825
X177165Y-131826
X177165Y-136144
X177546Y-112268
X177546Y-113792
X177546Y-124714
X177546Y-125603
X177673Y-107696
X178435Y-143637
X178689Y-110363
X178816Y-106553
X180086Y-115062
X180086Y-116586
X180086Y-118110
X180086Y-119634
X180086Y-122809
X180213Y-113792
X180594Y-108458
X180848Y-104267
X180975Y-130810
X181229Y-144526
X182118Y-113792
X184150Y-128905
T2
X123190Y-100330
X123190Y-102870
X123190Y-105410
X123190Y-107950
X123190Y-110490
X123190Y-140970
X123190Y-143510
X125730Y-100330
X125730Y-102870
X125730Y-105410
X125730Y-107950
X125730Y-110490
X125730Y-140970
X125730Y-143510
X128270Y-140970
X128270Y-143510
X130810Y-100330
X130810Y-140970
X130810Y-143510
X133350Y-100330
X133350Y-140970
X133350Y-143510
X135890Y-100330
X135890Y-140970
X135890Y-143510
X138430Y-140970
X138430Y-143510
X140970Y-140970
X140970Y-143510
X143510Y-140970
X143510Y-143510
X146050Y-140970
X146050Y-143510
X148590Y-140970
X148590Y-143510
X151130Y-140970
X151130Y-143510
X153670Y-140970
X153670Y-143510
X156210Y-140970
X156210Y-143510
X158750Y-140970
X158750Y-143510
X161290Y-140970
X161290Y-143510
X184150Y-140970
X184150Y-143510
T3
X179324Y-112130
X179324Y-126630
X184274Y-111530
X184274Y-127230
T4
X147320Y-113030
X168275Y-116205
T0
M30
