G04 #@! TF.FileFunction,Copper,L1,Top,Signal*
%FSLAX46Y46*%
G04 Gerber Fmt 4.6, Leading zero omitted, Abs format (unit mm)*
G04 Created by KiCad (PCBNEW 4.0.4-stable) date 03/04/17 15:12:17*
%MOMM*%
%LPD*%
G01*
G04 APERTURE LIST*
%ADD10C,0.100000*%
%ADD11R,0.450000X1.450000*%
%ADD12R,1.700000X1.700000*%
%ADD13O,1.700000X1.700000*%
%ADD14R,1.200000X1.200000*%
%ADD15R,0.250000X1.000000*%
%ADD16R,1.000000X0.250000*%
%ADD17R,1.300000X1.300000*%
%ADD18R,0.650000X2.000000*%
%ADD19R,1.500000X1.250000*%
%ADD20R,1.300000X1.500000*%
%ADD21R,1.600000X2.000000*%
%ADD22R,1.250000X1.500000*%
%ADD23R,1.500000X1.300000*%
%ADD24O,1.400000X0.250000*%
%ADD25O,0.250000X1.400000*%
%ADD26R,6.000000X6.000000*%
%ADD27R,2.750000X1.000000*%
%ADD28R,1.950000X1.500000*%
%ADD29C,2.000000*%
%ADD30R,1.900000X0.300000*%
%ADD31C,0.600000*%
%ADD32C,4.000000*%
%ADD33C,0.250000*%
%ADD34C,0.500000*%
%ADD35C,1.500000*%
G04 APERTURE END LIST*
D10*
D11*
X123440000Y-137570000D03*
X124090000Y-137570000D03*
X124740000Y-137570000D03*
X125390000Y-137570000D03*
X126040000Y-137570000D03*
X126690000Y-137570000D03*
X127340000Y-137570000D03*
X127990000Y-137570000D03*
X128640000Y-137570000D03*
X129290000Y-137570000D03*
X129290000Y-131670000D03*
X128640000Y-131670000D03*
X127990000Y-131670000D03*
X127340000Y-131670000D03*
X126690000Y-131670000D03*
X126040000Y-131670000D03*
X125390000Y-131670000D03*
X124740000Y-131670000D03*
X124090000Y-131670000D03*
X123440000Y-131670000D03*
X133600000Y-137570000D03*
X134250000Y-137570000D03*
X134900000Y-137570000D03*
X135550000Y-137570000D03*
X136200000Y-137570000D03*
X136850000Y-137570000D03*
X137500000Y-137570000D03*
X138150000Y-137570000D03*
X138800000Y-137570000D03*
X139450000Y-137570000D03*
X139450000Y-131670000D03*
X138800000Y-131670000D03*
X138150000Y-131670000D03*
X137500000Y-131670000D03*
X136850000Y-131670000D03*
X136200000Y-131670000D03*
X135550000Y-131670000D03*
X134900000Y-131670000D03*
X134250000Y-131670000D03*
X133600000Y-131670000D03*
X143760000Y-137570000D03*
X144410000Y-137570000D03*
X145060000Y-137570000D03*
X145710000Y-137570000D03*
X146360000Y-137570000D03*
X147010000Y-137570000D03*
X147660000Y-137570000D03*
X148310000Y-137570000D03*
X148960000Y-137570000D03*
X149610000Y-137570000D03*
X149610000Y-131670000D03*
X148960000Y-131670000D03*
X148310000Y-131670000D03*
X147660000Y-131670000D03*
X147010000Y-131670000D03*
X146360000Y-131670000D03*
X145710000Y-131670000D03*
X145060000Y-131670000D03*
X144410000Y-131670000D03*
X143760000Y-131670000D03*
X153920000Y-137570000D03*
X154570000Y-137570000D03*
X155220000Y-137570000D03*
X155870000Y-137570000D03*
X156520000Y-137570000D03*
X157170000Y-137570000D03*
X157820000Y-137570000D03*
X158470000Y-137570000D03*
X159120000Y-137570000D03*
X159770000Y-137570000D03*
X159770000Y-131670000D03*
X159120000Y-131670000D03*
X158470000Y-131670000D03*
X157820000Y-131670000D03*
X157170000Y-131670000D03*
X156520000Y-131670000D03*
X155870000Y-131670000D03*
X155220000Y-131670000D03*
X154570000Y-131670000D03*
X153920000Y-131670000D03*
D12*
X161290000Y-140970000D03*
D13*
X161290000Y-143510000D03*
X158750000Y-140970000D03*
X158750000Y-143510000D03*
X156210000Y-140970000D03*
X156210000Y-143510000D03*
X153670000Y-140970000D03*
X153670000Y-143510000D03*
X151130000Y-140970000D03*
X151130000Y-143510000D03*
X148590000Y-140970000D03*
X148590000Y-143510000D03*
X146050000Y-140970000D03*
X146050000Y-143510000D03*
X143510000Y-140970000D03*
X143510000Y-143510000D03*
X140970000Y-140970000D03*
X140970000Y-143510000D03*
X138430000Y-140970000D03*
X138430000Y-143510000D03*
X135890000Y-140970000D03*
X135890000Y-143510000D03*
X133350000Y-140970000D03*
X133350000Y-143510000D03*
X130810000Y-140970000D03*
X130810000Y-143510000D03*
X128270000Y-140970000D03*
X128270000Y-143510000D03*
X125730000Y-140970000D03*
X125730000Y-143510000D03*
X123190000Y-140970000D03*
X123190000Y-143510000D03*
D12*
X125730000Y-110490000D03*
D13*
X123190000Y-110490000D03*
X125730000Y-107950000D03*
X123190000Y-107950000D03*
X125730000Y-105410000D03*
X123190000Y-105410000D03*
X125730000Y-102870000D03*
X123190000Y-102870000D03*
X125730000Y-100330000D03*
X123190000Y-100330000D03*
D14*
X133350000Y-103040000D03*
X133350000Y-105240000D03*
D15*
X164525000Y-121905000D03*
X165025000Y-121905000D03*
X165525000Y-121905000D03*
X166025000Y-121905000D03*
X166525000Y-121905000D03*
X167025000Y-121905000D03*
X167525000Y-121905000D03*
X168025000Y-121905000D03*
X168525000Y-121905000D03*
X169025000Y-121905000D03*
X169525000Y-121905000D03*
X170025000Y-121905000D03*
X170525000Y-121905000D03*
X171025000Y-121905000D03*
X171525000Y-121905000D03*
X172025000Y-121905000D03*
D16*
X173975000Y-119955000D03*
X173975000Y-119455000D03*
X173975000Y-118955000D03*
X173975000Y-118455000D03*
X173975000Y-117955000D03*
X173975000Y-117455000D03*
X173975000Y-116955000D03*
X173975000Y-116455000D03*
X173975000Y-115955000D03*
X173975000Y-115455000D03*
X173975000Y-114955000D03*
X173975000Y-114455000D03*
X173975000Y-113955000D03*
X173975000Y-113455000D03*
X173975000Y-112955000D03*
X173975000Y-112455000D03*
D15*
X172025000Y-110505000D03*
X171525000Y-110505000D03*
X171025000Y-110505000D03*
X170525000Y-110505000D03*
X170025000Y-110505000D03*
X169525000Y-110505000D03*
X169025000Y-110505000D03*
X168525000Y-110505000D03*
X168025000Y-110505000D03*
X167525000Y-110505000D03*
X167025000Y-110505000D03*
X166525000Y-110505000D03*
X166025000Y-110505000D03*
X165525000Y-110505000D03*
X165025000Y-110505000D03*
X164525000Y-110505000D03*
D16*
X162575000Y-112455000D03*
X162575000Y-112955000D03*
X162575000Y-113455000D03*
X162575000Y-113955000D03*
X162575000Y-114455000D03*
X162575000Y-114955000D03*
X162575000Y-115455000D03*
X162575000Y-115955000D03*
X162575000Y-116455000D03*
X162575000Y-116955000D03*
X162575000Y-117455000D03*
X162575000Y-117955000D03*
X162575000Y-118455000D03*
X162575000Y-118955000D03*
X162575000Y-119455000D03*
X162575000Y-119955000D03*
D17*
X165675000Y-118805000D03*
X165675000Y-117505000D03*
X165675000Y-116205000D03*
X165675000Y-114905000D03*
X165675000Y-113605000D03*
X166975000Y-118805000D03*
X166975000Y-117505000D03*
X166975000Y-116205000D03*
X166975000Y-114905000D03*
X166975000Y-113605000D03*
X168275000Y-118805000D03*
X168275000Y-117505000D03*
X168275000Y-116205000D03*
X168275000Y-114905000D03*
X168275000Y-113605000D03*
X169575000Y-118805000D03*
X169575000Y-117505000D03*
X169575000Y-116205000D03*
X169575000Y-114905000D03*
X169575000Y-113605000D03*
X170875000Y-118805000D03*
X170875000Y-117505000D03*
X170875000Y-116205000D03*
X170875000Y-114905000D03*
X170875000Y-113605000D03*
D12*
X184150000Y-140970000D03*
D13*
X184150000Y-143510000D03*
D14*
X130810000Y-103040000D03*
X130810000Y-105240000D03*
D12*
X130810000Y-100330000D03*
D13*
X133350000Y-100330000D03*
X135890000Y-100330000D03*
D18*
X167320000Y-140530000D03*
X166370000Y-140530000D03*
X165420000Y-140530000D03*
X165420000Y-143950000D03*
X167320000Y-143950000D03*
X176718000Y-140530000D03*
X175768000Y-140530000D03*
X174818000Y-140530000D03*
X174818000Y-143950000D03*
X176718000Y-143950000D03*
D19*
X165120000Y-137795000D03*
X167620000Y-137795000D03*
X174645000Y-137795000D03*
X177145000Y-137795000D03*
D20*
X171450000Y-137715000D03*
X171450000Y-140415000D03*
X171450000Y-144225000D03*
X171450000Y-141525000D03*
X179705000Y-137715000D03*
X179705000Y-140415000D03*
X179705000Y-144225000D03*
X179705000Y-141525000D03*
D21*
X184150000Y-134715000D03*
X184150000Y-130715000D03*
D19*
X182265000Y-137795000D03*
X184765000Y-137795000D03*
D22*
X163830000Y-132735000D03*
X163830000Y-135235000D03*
X166370000Y-132735000D03*
X166370000Y-135235000D03*
X168910000Y-132735000D03*
X168910000Y-135235000D03*
X171450000Y-132735000D03*
X171450000Y-135235000D03*
X174625000Y-132735000D03*
X174625000Y-135235000D03*
X177165000Y-132735000D03*
X177165000Y-135235000D03*
X179705000Y-132735000D03*
X179705000Y-135235000D03*
D20*
X133350000Y-107235000D03*
X133350000Y-109935000D03*
X125095000Y-117555000D03*
X125095000Y-114855000D03*
X127635000Y-114855000D03*
X127635000Y-117555000D03*
X122555000Y-114855000D03*
X122555000Y-117555000D03*
X130175000Y-114855000D03*
X130175000Y-117555000D03*
D23*
X141304000Y-99695000D03*
X138604000Y-99695000D03*
X143430000Y-99695000D03*
X146130000Y-99695000D03*
X148510000Y-99695000D03*
X151210000Y-99695000D03*
D20*
X168910000Y-128350000D03*
X168910000Y-125650000D03*
X172720000Y-104220000D03*
X172720000Y-101520000D03*
X170180000Y-102315000D03*
X170180000Y-99615000D03*
X171450000Y-128350000D03*
X171450000Y-125650000D03*
D23*
X182165000Y-106045000D03*
X184865000Y-106045000D03*
X182165000Y-108585000D03*
X184865000Y-108585000D03*
D20*
X175260000Y-106760000D03*
X175260000Y-104060000D03*
X130810000Y-107235000D03*
X130810000Y-109935000D03*
D24*
X136320000Y-104280000D03*
X136320000Y-104780000D03*
X136320000Y-105280000D03*
X136320000Y-105780000D03*
X136320000Y-106280000D03*
X136320000Y-106780000D03*
X136320000Y-107280000D03*
X136320000Y-107780000D03*
X136320000Y-108280000D03*
X136320000Y-108780000D03*
X136320000Y-109280000D03*
X136320000Y-109780000D03*
X136320000Y-110280000D03*
X136320000Y-110780000D03*
X136320000Y-111280000D03*
X136320000Y-111780000D03*
X136320000Y-112280000D03*
X136320000Y-112780000D03*
X136320000Y-113280000D03*
X136320000Y-113780000D03*
X136320000Y-114280000D03*
X136320000Y-114780000D03*
X136320000Y-115280000D03*
X136320000Y-115780000D03*
X136320000Y-116280000D03*
X136320000Y-116780000D03*
X136320000Y-117280000D03*
X136320000Y-117780000D03*
X136320000Y-118280000D03*
X136320000Y-118780000D03*
X136320000Y-119280000D03*
X136320000Y-119780000D03*
X136320000Y-120280000D03*
X136320000Y-120780000D03*
X136320000Y-121280000D03*
X136320000Y-121780000D03*
D25*
X138570000Y-124030000D03*
X139070000Y-124030000D03*
X139570000Y-124030000D03*
X140070000Y-124030000D03*
X140570000Y-124030000D03*
X141070000Y-124030000D03*
X141570000Y-124030000D03*
X142070000Y-124030000D03*
X142570000Y-124030000D03*
X143070000Y-124030000D03*
X143570000Y-124030000D03*
X144070000Y-124030000D03*
X144570000Y-124030000D03*
X145070000Y-124030000D03*
X145570000Y-124030000D03*
X146070000Y-124030000D03*
X146570000Y-124030000D03*
X147070000Y-124030000D03*
X147570000Y-124030000D03*
X148070000Y-124030000D03*
X148570000Y-124030000D03*
X149070000Y-124030000D03*
X149570000Y-124030000D03*
X150070000Y-124030000D03*
X150570000Y-124030000D03*
X151070000Y-124030000D03*
X151570000Y-124030000D03*
X152070000Y-124030000D03*
X152570000Y-124030000D03*
X153070000Y-124030000D03*
X153570000Y-124030000D03*
X154070000Y-124030000D03*
X154570000Y-124030000D03*
X155070000Y-124030000D03*
X155570000Y-124030000D03*
X156070000Y-124030000D03*
D24*
X158320000Y-121780000D03*
X158320000Y-121280000D03*
X158320000Y-120780000D03*
X158320000Y-120280000D03*
X158320000Y-119780000D03*
X158320000Y-119280000D03*
X158320000Y-118780000D03*
X158320000Y-118280000D03*
X158320000Y-117780000D03*
X158320000Y-117280000D03*
X158320000Y-116780000D03*
X158320000Y-116280000D03*
X158320000Y-115780000D03*
X158320000Y-115280000D03*
X158320000Y-114780000D03*
X158320000Y-114280000D03*
X158320000Y-113780000D03*
X158320000Y-113280000D03*
X158320000Y-112780000D03*
X158320000Y-112280000D03*
X158320000Y-111780000D03*
X158320000Y-111280000D03*
X158320000Y-110780000D03*
X158320000Y-110280000D03*
X158320000Y-109780000D03*
X158320000Y-109280000D03*
X158320000Y-108780000D03*
X158320000Y-108280000D03*
X158320000Y-107780000D03*
X158320000Y-107280000D03*
X158320000Y-106780000D03*
X158320000Y-106280000D03*
X158320000Y-105780000D03*
X158320000Y-105280000D03*
X158320000Y-104780000D03*
X158320000Y-104280000D03*
D25*
X156070000Y-102030000D03*
X155570000Y-102030000D03*
X155070000Y-102030000D03*
X154570000Y-102030000D03*
X154070000Y-102030000D03*
X153570000Y-102030000D03*
X153070000Y-102030000D03*
X152570000Y-102030000D03*
X152070000Y-102030000D03*
X151570000Y-102030000D03*
X151070000Y-102030000D03*
X150570000Y-102030000D03*
X150070000Y-102030000D03*
X149570000Y-102030000D03*
X149070000Y-102030000D03*
X148570000Y-102030000D03*
X148070000Y-102030000D03*
X147570000Y-102030000D03*
X147070000Y-102030000D03*
X146570000Y-102030000D03*
X146070000Y-102030000D03*
X145570000Y-102030000D03*
X145070000Y-102030000D03*
X144570000Y-102030000D03*
X144070000Y-102030000D03*
X143570000Y-102030000D03*
X143070000Y-102030000D03*
X142570000Y-102030000D03*
X142070000Y-102030000D03*
X141570000Y-102030000D03*
X141070000Y-102030000D03*
X140570000Y-102030000D03*
X140070000Y-102030000D03*
X139570000Y-102030000D03*
X139070000Y-102030000D03*
X138570000Y-102030000D03*
D26*
X147320000Y-113030000D03*
D27*
X183855000Y-99600000D03*
X178095000Y-99600000D03*
X178095000Y-103600000D03*
X183855000Y-103600000D03*
D23*
X172640000Y-99695000D03*
X175340000Y-99695000D03*
D28*
X123035000Y-123070000D03*
X125885000Y-123070000D03*
X125885000Y-120770000D03*
X123035000Y-120770000D03*
D29*
X184274000Y-127230000D03*
X184274000Y-111530000D03*
X179324000Y-126630000D03*
X179324000Y-112130000D03*
D30*
X178424000Y-114630000D03*
X178424000Y-115130000D03*
X178424000Y-115630000D03*
X178424000Y-116130000D03*
X178424000Y-116630000D03*
X178424000Y-117130000D03*
X178424000Y-117630000D03*
X178424000Y-118130000D03*
X178424000Y-118630000D03*
X178424000Y-119130000D03*
X178424000Y-119630000D03*
X178424000Y-120130000D03*
X178424000Y-120630000D03*
X178424000Y-121130000D03*
X178424000Y-121630000D03*
X178424000Y-122130000D03*
X178424000Y-122630000D03*
X178424000Y-123130000D03*
X178424000Y-123630000D03*
D31*
X133096000Y-117602000D03*
X134747000Y-115951000D03*
X180086000Y-122809000D03*
X180086000Y-119634000D03*
X180086000Y-118110000D03*
X180086000Y-116586000D03*
X180086000Y-115062000D03*
X178435000Y-143637000D03*
X173101000Y-143510000D03*
X126111000Y-117983000D03*
X180848000Y-104267000D03*
X129921000Y-137668000D03*
X125095000Y-124460000D03*
X135255000Y-102489000D03*
D32*
X168275000Y-116205000D03*
X147320000Y-113030000D03*
D31*
X150368000Y-137668000D03*
X140208000Y-137668000D03*
X184150000Y-128905000D03*
X151511000Y-122555000D03*
X159639000Y-106553000D03*
X154813000Y-133350000D03*
X144780000Y-133350000D03*
X134493000Y-133223000D03*
X124206000Y-133350000D03*
X175031400Y-112572800D03*
X175895000Y-117475000D03*
X166370000Y-123317000D03*
X156718000Y-116586000D03*
X140335000Y-103378000D03*
X144145000Y-103759000D03*
X148082000Y-103759000D03*
X152527000Y-103759000D03*
X156718000Y-110617000D03*
X154051000Y-122428000D03*
X146558000Y-122555000D03*
X141097000Y-122555000D03*
X160528000Y-137668000D03*
X142113000Y-103759000D03*
X132080000Y-109601000D03*
X165608000Y-142240000D03*
X175260000Y-142240000D03*
X166370000Y-138811000D03*
X170180000Y-128397000D03*
X132334000Y-112141000D03*
X132334000Y-113919000D03*
X129159000Y-110744000D03*
X127889000Y-113538000D03*
X123571000Y-135255000D03*
X133985000Y-135255000D03*
X144145000Y-135255000D03*
X154305000Y-135255000D03*
X122555000Y-121285000D03*
X163830000Y-131826000D03*
X166370000Y-131826000D03*
X156845000Y-122555000D03*
X152908000Y-122682000D03*
X156083000Y-103505000D03*
X153416000Y-103505000D03*
X149860000Y-103632000D03*
X151765000Y-103378000D03*
X156718000Y-111760000D03*
X156845000Y-103759000D03*
X146177000Y-103632000D03*
X141224000Y-103378000D03*
X157099000Y-117983000D03*
X156718000Y-106807000D03*
X137795000Y-103505000D03*
X139192000Y-108585000D03*
X139700000Y-117475000D03*
X139319000Y-122682000D03*
X145034000Y-122682000D03*
X168910000Y-131826000D03*
X159893000Y-122809000D03*
X153445612Y-118901612D03*
X139319000Y-103759000D03*
X155194000Y-122682000D03*
X137795000Y-106299000D03*
X141478000Y-107315000D03*
X137795000Y-104902000D03*
X153670000Y-106807000D03*
X156718000Y-105156000D03*
X140589000Y-119761000D03*
X137922000Y-120777000D03*
X182118000Y-113792000D03*
X180213000Y-113792000D03*
X176276000Y-113264000D03*
X171450000Y-131699000D03*
X173736000Y-125603000D03*
X177546000Y-125603000D03*
X174625000Y-131826000D03*
X169545000Y-120650000D03*
X172847000Y-112903000D03*
X163830000Y-113411000D03*
X164338000Y-120904000D03*
X181229000Y-144526000D03*
X175768000Y-143510000D03*
X166370000Y-143510000D03*
X176657000Y-120777000D03*
X177165000Y-131826000D03*
X175641000Y-123063000D03*
X172720000Y-123063000D03*
X176149000Y-115697000D03*
X175387000Y-119253000D03*
X170307000Y-121158000D03*
X180975000Y-130810000D03*
X173101000Y-123825000D03*
X176657000Y-123825000D03*
X180594000Y-108458000D03*
X178689000Y-110363000D03*
X177673000Y-107696000D03*
X178816000Y-106553000D03*
X173736000Y-124714000D03*
X177546000Y-124714000D03*
X134747000Y-114554000D03*
X134747000Y-110871000D03*
X134747000Y-107188000D03*
X132080000Y-107061000D03*
X167620000Y-135890000D03*
X177165000Y-136144000D03*
X169418000Y-124587000D03*
X170942000Y-123063000D03*
X171323000Y-104140000D03*
X171323000Y-106172000D03*
X170307000Y-103378000D03*
X170307000Y-106172000D03*
X174498000Y-109855000D03*
X174498000Y-107823000D03*
X177546000Y-112268000D03*
X177546000Y-113792000D03*
X153543000Y-99060000D03*
X176276000Y-100711000D03*
D33*
X124090000Y-137570000D02*
X124090000Y-138800000D01*
X121920000Y-142240000D02*
X123190000Y-143510000D01*
X121920000Y-140335000D02*
X121920000Y-142240000D01*
X123063000Y-139192000D02*
X121920000Y-140335000D01*
X123698000Y-139192000D02*
X123063000Y-139192000D01*
X124090000Y-138800000D02*
X123698000Y-139192000D01*
X124740000Y-137570000D02*
X124740000Y-139420000D01*
X124740000Y-139420000D02*
X123190000Y-140970000D01*
X125390000Y-137570000D02*
X125390000Y-139532000D01*
X124460000Y-142240000D02*
X125730000Y-143510000D01*
X124460000Y-140462000D02*
X124460000Y-142240000D01*
X125390000Y-139532000D02*
X124460000Y-140462000D01*
X126040000Y-137570000D02*
X126040000Y-140660000D01*
X126040000Y-140660000D02*
X125730000Y-140970000D01*
X126690000Y-137570000D02*
X126690000Y-139136000D01*
X127000000Y-142240000D02*
X128270000Y-143510000D01*
X127000000Y-139446000D02*
X127000000Y-142240000D01*
X126690000Y-139136000D02*
X127000000Y-139446000D01*
X127340000Y-137570000D02*
X127340000Y-138770000D01*
X128270000Y-139827000D02*
X128270000Y-140970000D01*
X128143000Y-139700000D02*
X128270000Y-139827000D01*
X128143000Y-139573000D02*
X128143000Y-139700000D01*
X127340000Y-138770000D02*
X128143000Y-139573000D01*
X127990000Y-137570000D02*
X127990000Y-138658000D01*
X129540000Y-142240000D02*
X130810000Y-143510000D01*
X129540000Y-140208000D02*
X129540000Y-142240000D01*
X127990000Y-138658000D02*
X129540000Y-140208000D01*
X128640000Y-137570000D02*
X128640000Y-138419000D01*
X128640000Y-138419000D02*
X130810000Y-140589000D01*
X130810000Y-140589000D02*
X130810000Y-140970000D01*
X139070000Y-123580000D02*
X139070000Y-125217000D01*
X138176000Y-126111000D02*
X137160000Y-126111000D01*
X139070000Y-125217000D02*
X138176000Y-126111000D01*
X129290000Y-131670000D02*
X129290000Y-129917000D01*
X133096000Y-126111000D02*
X137160000Y-126111000D01*
X129290000Y-129917000D02*
X133096000Y-126111000D01*
X128640000Y-131670000D02*
X128640000Y-128916000D01*
X135244000Y-120280000D02*
X136770000Y-120280000D01*
X135244000Y-120280000D02*
X133223000Y-122301000D01*
X132461000Y-123063000D02*
X133223000Y-122301000D01*
X132461000Y-125095000D02*
X132461000Y-123063000D01*
X128640000Y-128916000D02*
X132461000Y-125095000D01*
X127990000Y-131670000D02*
X127990000Y-128550000D01*
X134982000Y-119780000D02*
X136770000Y-119780000D01*
X134982000Y-119780000D02*
X132969000Y-121793000D01*
X131699000Y-123063000D02*
X132969000Y-121793000D01*
X131699000Y-124841000D02*
X131699000Y-123063000D01*
X127990000Y-128550000D02*
X131699000Y-124841000D01*
X127340000Y-131670000D02*
X127340000Y-128311000D01*
X135220000Y-118780000D02*
X136770000Y-118780000D01*
X135220000Y-118780000D02*
X132588000Y-121412000D01*
X130937000Y-123063000D02*
X132588000Y-121412000D01*
X130937000Y-124714000D02*
X130937000Y-123063000D01*
X127340000Y-128311000D02*
X130937000Y-124714000D01*
X126690000Y-131670000D02*
X126690000Y-128072000D01*
X134958000Y-118280000D02*
X136770000Y-118280000D01*
X134958000Y-118280000D02*
X132715000Y-120523000D01*
X130302000Y-122936000D02*
X132715000Y-120523000D01*
X130302000Y-124460000D02*
X130302000Y-122936000D01*
X126690000Y-128072000D02*
X130302000Y-124460000D01*
X126746000Y-131614000D02*
X126690000Y-131670000D01*
X126040000Y-131670000D02*
X126040000Y-127833000D01*
X134696000Y-117780000D02*
X136770000Y-117780000D01*
X134696000Y-117780000D02*
X133223000Y-119253000D01*
X129667000Y-122809000D02*
X133223000Y-119253000D01*
X129667000Y-124206000D02*
X129667000Y-122809000D01*
X126040000Y-127833000D02*
X129667000Y-124206000D01*
X125390000Y-131670000D02*
X125390000Y-127467000D01*
X134434000Y-117280000D02*
X136770000Y-117280000D01*
X134434000Y-117280000D02*
X132651500Y-119062500D01*
X128905000Y-122809000D02*
X132651500Y-119062500D01*
X128905000Y-123952000D02*
X128905000Y-122809000D01*
X125390000Y-127467000D02*
X128905000Y-123952000D01*
X124740000Y-131670000D02*
X124740000Y-127355000D01*
X133032500Y-117665500D02*
X133096000Y-117602000D01*
X134747000Y-115951000D02*
X134918000Y-115780000D01*
X134918000Y-115780000D02*
X136320000Y-115780000D01*
X133032500Y-117919500D02*
X131953000Y-118999000D01*
X133032500Y-117919500D02*
X133032500Y-117665500D01*
X128270000Y-122682000D02*
X131953000Y-118999000D01*
X128270000Y-123825000D02*
X128270000Y-122682000D01*
X124740000Y-127355000D02*
X128270000Y-123825000D01*
X134250000Y-137570000D02*
X134250000Y-138800000D01*
X132080000Y-142240000D02*
X133350000Y-143510000D01*
X132080000Y-140335000D02*
X132080000Y-142240000D01*
X133223000Y-139192000D02*
X132080000Y-140335000D01*
X133858000Y-139192000D02*
X133223000Y-139192000D01*
X134250000Y-138800000D02*
X133858000Y-139192000D01*
X134900000Y-137570000D02*
X134900000Y-139420000D01*
X134900000Y-139420000D02*
X133350000Y-140970000D01*
X135550000Y-137570000D02*
X135550000Y-139532000D01*
X134620000Y-142240000D02*
X135890000Y-143510000D01*
X134620000Y-140462000D02*
X134620000Y-142240000D01*
X135550000Y-139532000D02*
X134620000Y-140462000D01*
X136200000Y-137570000D02*
X136200000Y-140660000D01*
X136200000Y-140660000D02*
X135890000Y-140970000D01*
X136850000Y-137570000D02*
X136850000Y-138882000D01*
X137160000Y-142240000D02*
X138430000Y-143510000D01*
X137160000Y-139192000D02*
X137160000Y-142240000D01*
X136850000Y-138882000D02*
X137160000Y-139192000D01*
X137500000Y-137570000D02*
X137500000Y-138643000D01*
X138430000Y-139573000D02*
X138430000Y-140970000D01*
X137500000Y-138643000D02*
X138430000Y-139573000D01*
X138150000Y-137570000D02*
X138150000Y-138531000D01*
X139700000Y-142240000D02*
X140970000Y-143510000D01*
X139700000Y-140081000D02*
X139700000Y-142240000D01*
X138150000Y-138531000D02*
X139700000Y-140081000D01*
X138800000Y-137570000D02*
X138800000Y-138419000D01*
X138800000Y-138419000D02*
X140970000Y-140589000D01*
X140970000Y-140589000D02*
X140970000Y-140970000D01*
X144070000Y-123580000D02*
X144070000Y-126313000D01*
X139450000Y-130933000D02*
X139450000Y-131670000D01*
X144070000Y-126313000D02*
X139450000Y-130933000D01*
X143570000Y-123580000D02*
X143570000Y-126051000D01*
X138800000Y-130821000D02*
X141160500Y-128460500D01*
X138800000Y-130821000D02*
X138800000Y-131670000D01*
X143570000Y-126051000D02*
X141160500Y-128460500D01*
X143070000Y-123580000D02*
X143070000Y-125789000D01*
X138150000Y-130709000D02*
X140398500Y-128460500D01*
X138150000Y-130709000D02*
X138150000Y-131670000D01*
X143070000Y-125789000D02*
X140398500Y-128460500D01*
X142570000Y-123580000D02*
X142570000Y-125527000D01*
X137500000Y-130597000D02*
X139065000Y-129032000D01*
X137500000Y-130597000D02*
X137500000Y-131670000D01*
X142570000Y-125527000D02*
X139065000Y-129032000D01*
X142070000Y-123580000D02*
X142070000Y-125265000D01*
X136850000Y-130485000D02*
X138366500Y-128968500D01*
X136850000Y-130485000D02*
X136850000Y-131670000D01*
X142070000Y-125265000D02*
X138366500Y-128968500D01*
X141570000Y-123580000D02*
X141570000Y-125003000D01*
X136200000Y-130373000D02*
X138620500Y-127952500D01*
X136200000Y-130373000D02*
X136200000Y-131670000D01*
X141570000Y-125003000D02*
X138620500Y-127952500D01*
X140570000Y-123580000D02*
X140570000Y-125241000D01*
X135550000Y-130261000D02*
X136779000Y-129032000D01*
X135550000Y-130261000D02*
X135550000Y-131670000D01*
X140570000Y-125241000D02*
X136779000Y-129032000D01*
X134900000Y-130149000D02*
X136398000Y-128651000D01*
X134900000Y-130149000D02*
X134900000Y-131670000D01*
X139570000Y-125479000D02*
X136398000Y-128651000D01*
X139570000Y-123580000D02*
X139570000Y-125479000D01*
X144410000Y-137570000D02*
X144410000Y-138673000D01*
X142240000Y-142240000D02*
X143510000Y-143510000D01*
X142240000Y-140081000D02*
X142240000Y-142240000D01*
X143129000Y-139192000D02*
X142240000Y-140081000D01*
X143891000Y-139192000D02*
X143129000Y-139192000D01*
X144410000Y-138673000D02*
X143891000Y-139192000D01*
X145060000Y-137570000D02*
X145060000Y-139420000D01*
X145060000Y-139420000D02*
X143510000Y-140970000D01*
X145710000Y-137570000D02*
X145710000Y-139532000D01*
X144780000Y-142240000D02*
X146050000Y-143510000D01*
X144780000Y-140462000D02*
X144780000Y-142240000D01*
X145710000Y-139532000D02*
X144780000Y-140462000D01*
X146360000Y-137570000D02*
X146360000Y-140660000D01*
X146360000Y-140660000D02*
X146050000Y-140970000D01*
X147010000Y-137570000D02*
X147010000Y-138882000D01*
X147320000Y-142240000D02*
X148590000Y-143510000D01*
X147320000Y-139192000D02*
X147320000Y-142240000D01*
X147010000Y-138882000D02*
X147320000Y-139192000D01*
X147660000Y-137570000D02*
X147660000Y-138770000D01*
X148590000Y-139700000D02*
X148590000Y-140970000D01*
X147660000Y-138770000D02*
X148590000Y-139700000D01*
X148310000Y-137570000D02*
X148310000Y-138658000D01*
X149860000Y-142240000D02*
X151130000Y-143510000D01*
X149860000Y-140208000D02*
X149860000Y-142240000D01*
X148310000Y-138658000D02*
X149860000Y-140208000D01*
X148960000Y-137570000D02*
X148960000Y-138546000D01*
X148960000Y-138546000D02*
X151130000Y-140716000D01*
X151130000Y-140716000D02*
X151130000Y-140970000D01*
X149570000Y-124030000D02*
X149570000Y-129758000D01*
X149610000Y-129798000D02*
X149610000Y-131670000D01*
X149570000Y-129758000D02*
X149610000Y-129798000D01*
X149070000Y-123580000D02*
X149070000Y-128425000D01*
X148960000Y-128535000D02*
X148960000Y-131670000D01*
X149070000Y-128425000D02*
X148960000Y-128535000D01*
X148570000Y-123580000D02*
X148570000Y-128290000D01*
X148310000Y-128550000D02*
X148310000Y-131670000D01*
X148570000Y-128290000D02*
X148310000Y-128550000D01*
X148070000Y-123580000D02*
X148070000Y-128028000D01*
X147660000Y-128438000D02*
X147660000Y-131670000D01*
X148070000Y-128028000D02*
X147660000Y-128438000D01*
X147570000Y-123580000D02*
X147570000Y-127639000D01*
X147010000Y-128199000D02*
X147010000Y-131670000D01*
X147570000Y-127639000D02*
X147010000Y-128199000D01*
X147070000Y-123580000D02*
X147070000Y-127123000D01*
X146360000Y-127833000D02*
X146360000Y-131670000D01*
X147070000Y-127123000D02*
X146360000Y-127833000D01*
X146070000Y-123580000D02*
X146070000Y-127107000D01*
X145710000Y-127467000D02*
X145710000Y-131670000D01*
X146070000Y-127107000D02*
X145710000Y-127467000D01*
X145070000Y-131660000D02*
X145060000Y-131670000D01*
X145070000Y-123580000D02*
X145070000Y-131660000D01*
X154570000Y-137570000D02*
X154570000Y-138673000D01*
X152400000Y-142240000D02*
X153670000Y-143510000D01*
X152400000Y-140335000D02*
X152400000Y-142240000D01*
X153543000Y-139192000D02*
X152400000Y-140335000D01*
X154051000Y-139192000D02*
X153543000Y-139192000D01*
X154570000Y-138673000D02*
X154051000Y-139192000D01*
X155220000Y-137570000D02*
X155220000Y-139166000D01*
X155220000Y-139166000D02*
X153670000Y-140716000D01*
X153670000Y-140716000D02*
X153670000Y-140970000D01*
X153670000Y-140970000D02*
X153670000Y-140335000D01*
X155870000Y-137570000D02*
X155870000Y-139405000D01*
X154940000Y-142240000D02*
X156210000Y-143510000D01*
X154940000Y-140335000D02*
X154940000Y-142240000D01*
X155870000Y-139405000D02*
X154940000Y-140335000D01*
X156520000Y-137570000D02*
X156520000Y-140660000D01*
X156520000Y-140660000D02*
X156210000Y-140970000D01*
X155885000Y-140645000D02*
X156210000Y-140970000D01*
X156520000Y-140660000D02*
X156210000Y-140970000D01*
X156210000Y-140335000D02*
X156210000Y-140970000D01*
X157170000Y-137570000D02*
X157170000Y-139009000D01*
X157480000Y-142240000D02*
X158750000Y-143510000D01*
X157480000Y-139319000D02*
X157480000Y-142240000D01*
X157170000Y-139009000D02*
X157480000Y-139319000D01*
X157820000Y-137570000D02*
X157820000Y-138897000D01*
X158750000Y-139827000D02*
X158750000Y-140970000D01*
X157820000Y-138897000D02*
X158750000Y-139827000D01*
X158750000Y-140970000D02*
X158750000Y-140335000D01*
X158470000Y-137570000D02*
X158470000Y-138785000D01*
X160020000Y-140335000D02*
X160020000Y-142240000D01*
X160020000Y-142240000D02*
X161290000Y-143510000D01*
X158470000Y-138785000D02*
X160020000Y-140335000D01*
X159120000Y-137570000D02*
X159120000Y-138673000D01*
X159120000Y-138673000D02*
X161290000Y-140843000D01*
X161290000Y-140843000D02*
X161290000Y-140970000D01*
X155070000Y-124030000D02*
X155070000Y-125225000D01*
X159770000Y-129925000D02*
X158877000Y-129032000D01*
X159770000Y-129925000D02*
X159770000Y-131670000D01*
X155070000Y-125225000D02*
X158877000Y-129032000D01*
X154570000Y-124030000D02*
X154570000Y-125487000D01*
X159120000Y-130037000D02*
X157988000Y-128905000D01*
X159120000Y-130037000D02*
X159120000Y-131670000D01*
X154570000Y-125487000D02*
X157988000Y-128905000D01*
X158470000Y-130149000D02*
X157353000Y-129032000D01*
X158470000Y-130149000D02*
X158470000Y-131670000D01*
X153070000Y-124030000D02*
X153070000Y-124749000D01*
X153070000Y-124749000D02*
X157353000Y-129032000D01*
X153070000Y-123580000D02*
X153070000Y-124622000D01*
X152570000Y-124030000D02*
X152570000Y-125011000D01*
X157820000Y-130261000D02*
X156718000Y-129159000D01*
X157820000Y-130261000D02*
X157820000Y-131670000D01*
X152570000Y-125011000D02*
X156718000Y-129159000D01*
X152070000Y-124030000D02*
X152070000Y-125273000D01*
X157170000Y-130373000D02*
X156083000Y-129286000D01*
X157170000Y-130373000D02*
X157170000Y-131670000D01*
X152070000Y-125273000D02*
X156083000Y-129286000D01*
X151070000Y-124030000D02*
X151070000Y-125035000D01*
X156520000Y-130485000D02*
X155067000Y-129032000D01*
X156520000Y-130485000D02*
X156520000Y-131670000D01*
X151070000Y-125035000D02*
X155067000Y-129032000D01*
X150570000Y-124030000D02*
X150570000Y-125297000D01*
X155870000Y-130597000D02*
X154305000Y-129032000D01*
X155870000Y-130597000D02*
X155870000Y-131670000D01*
X150570000Y-125297000D02*
X154305000Y-129032000D01*
X150070000Y-124030000D02*
X150070000Y-125559000D01*
X155220000Y-130709000D02*
X153543000Y-129032000D01*
X155220000Y-130709000D02*
X155220000Y-131670000D01*
X150070000Y-125559000D02*
X153543000Y-129032000D01*
X158320000Y-121280000D02*
X160650000Y-121280000D01*
X165525000Y-123273000D02*
X165525000Y-121905000D01*
X164846000Y-123952000D02*
X165525000Y-123273000D01*
X163322000Y-123952000D02*
X164846000Y-123952000D01*
X160650000Y-121280000D02*
X163322000Y-123952000D01*
X158320000Y-120780000D02*
X160912000Y-120780000D01*
X165025000Y-123011000D02*
X165025000Y-121905000D01*
X164719000Y-123317000D02*
X165025000Y-123011000D01*
X163449000Y-123317000D02*
X164719000Y-123317000D01*
X160912000Y-120780000D02*
X163449000Y-123317000D01*
X158320000Y-120280000D02*
X161660000Y-120280000D01*
X161985000Y-119955000D02*
X162575000Y-119955000D01*
X161660000Y-120280000D02*
X161985000Y-119955000D01*
X158320000Y-119780000D02*
X161523602Y-119780000D01*
X161848602Y-119455000D02*
X162575000Y-119455000D01*
X161523602Y-119780000D02*
X161848602Y-119455000D01*
X158320000Y-119280000D02*
X161263000Y-119280000D01*
X161588000Y-118955000D02*
X162575000Y-118955000D01*
X161263000Y-119280000D02*
X161588000Y-118955000D01*
X158320000Y-118780000D02*
X161001000Y-118780000D01*
X161276002Y-118504998D02*
X162575000Y-118504998D01*
X161001000Y-118780000D02*
X161276002Y-118504998D01*
X162575000Y-118504998D02*
X162575000Y-118455000D01*
X158320000Y-118280000D02*
X160739000Y-118280000D01*
X161064000Y-117955000D02*
X162575000Y-117955000D01*
X160739000Y-118280000D02*
X161064000Y-117955000D01*
X158320000Y-117780000D02*
X160477000Y-117780000D01*
X160802000Y-117455000D02*
X162575000Y-117455000D01*
X160477000Y-117780000D02*
X160802000Y-117455000D01*
X158320000Y-116280000D02*
X159079000Y-116280000D01*
X159754000Y-116955000D02*
X162575000Y-116955000D01*
X159079000Y-116280000D02*
X159754000Y-116955000D01*
X162575000Y-117004998D02*
X162575000Y-116955000D01*
X162587000Y-116967000D02*
X162575000Y-116955000D01*
X158320000Y-115780000D02*
X159341000Y-115780000D01*
X160016000Y-116455000D02*
X162575000Y-116455000D01*
X159341000Y-115780000D02*
X160016000Y-116455000D01*
X158320000Y-115280000D02*
X159477398Y-115280000D01*
X160152398Y-115955000D02*
X162575000Y-115955000D01*
X159477398Y-115280000D02*
X160152398Y-115955000D01*
X162579000Y-115951000D02*
X162575000Y-115955000D01*
X158320000Y-114780000D02*
X159738000Y-114780000D01*
X160413000Y-115455000D02*
X162575000Y-115455000D01*
X159738000Y-114780000D02*
X160413000Y-115455000D01*
X159365000Y-114280000D02*
X160000000Y-114280000D01*
X162575000Y-114955000D02*
X160675000Y-114955000D01*
X159365000Y-114280000D02*
X158320000Y-114280000D01*
X160000000Y-114280000D02*
X160675000Y-114955000D01*
X159627000Y-113780000D02*
X160516000Y-113780000D01*
X158320000Y-113780000D02*
X159627000Y-113780000D01*
X161191000Y-114455000D02*
X162575000Y-114455000D01*
X160516000Y-113780000D02*
X161191000Y-114455000D01*
X160524000Y-113280000D02*
X160778000Y-113280000D01*
X158320000Y-113280000D02*
X160524000Y-113280000D01*
X161453000Y-113955000D02*
X162575000Y-113955000D01*
X160778000Y-113280000D02*
X161453000Y-113955000D01*
X158320000Y-112780000D02*
X161040000Y-112780000D01*
X161215000Y-112955000D02*
X162575000Y-112955000D01*
X161040000Y-112780000D02*
X161215000Y-112955000D01*
X158320000Y-112280000D02*
X161429000Y-112280000D01*
X161604000Y-112455000D02*
X162575000Y-112455000D01*
X161429000Y-112280000D02*
X161604000Y-112455000D01*
X162493000Y-112455000D02*
X162575000Y-112455000D01*
X158320000Y-111780000D02*
X161143000Y-111780000D01*
X162418000Y-110505000D02*
X164525000Y-110505000D01*
X161143000Y-111780000D02*
X162418000Y-110505000D01*
X158325000Y-111775000D02*
X158320000Y-111780000D01*
X165025000Y-110505000D02*
X165025000Y-109780000D01*
X165025000Y-109780000D02*
X164719000Y-109474000D01*
X161881000Y-110280000D02*
X158320000Y-110280000D01*
X162687000Y-109474000D02*
X161881000Y-110280000D01*
X164719000Y-109474000D02*
X162687000Y-109474000D01*
X165525000Y-110505000D02*
X165525000Y-109518000D01*
X165525000Y-109518000D02*
X165030998Y-109023998D01*
X165525000Y-110661000D02*
X165525000Y-110505000D01*
X161619000Y-109780000D02*
X158320000Y-109780000D01*
X162375002Y-109023998D02*
X161619000Y-109780000D01*
X165030998Y-109023998D02*
X162375002Y-109023998D01*
X166025000Y-110505000D02*
X166025000Y-109256000D01*
X166025000Y-109256000D02*
X165227000Y-108458000D01*
X166025000Y-110505000D02*
X166025000Y-110399000D01*
X161230000Y-109280000D02*
X158320000Y-109280000D01*
X162052000Y-108458000D02*
X161230000Y-109280000D01*
X165227000Y-108458000D02*
X162052000Y-108458000D01*
X166525000Y-110505000D02*
X166525000Y-108867000D01*
X160968000Y-108780000D02*
X158320000Y-108780000D01*
X161798000Y-107950000D02*
X160968000Y-108780000D01*
X165608000Y-107950000D02*
X161798000Y-107950000D01*
X166525000Y-108867000D02*
X165608000Y-107950000D01*
X166525000Y-110505000D02*
X166525000Y-110137000D01*
X167025000Y-110505000D02*
X167025000Y-108478000D01*
X160706000Y-108280000D02*
X158320000Y-108280000D01*
X161544000Y-107442000D02*
X160706000Y-108280000D01*
X165989000Y-107442000D02*
X161544000Y-107442000D01*
X167025000Y-108478000D02*
X165989000Y-107442000D01*
X167525000Y-110505000D02*
X167525000Y-108216000D01*
X167525000Y-108216000D02*
X166243000Y-106934000D01*
X160317000Y-107780000D02*
X158320000Y-107780000D01*
X161163000Y-106934000D02*
X160317000Y-107780000D01*
X166243000Y-106934000D02*
X161163000Y-106934000D01*
X158320000Y-107280000D02*
X159928000Y-107280000D01*
X159928000Y-107280000D02*
X160020000Y-107188000D01*
X168025000Y-110505000D02*
X168025000Y-107954000D01*
X168025000Y-107954000D02*
X166370000Y-106299000D01*
X160909000Y-106299000D02*
X160020000Y-107188000D01*
X166370000Y-106299000D02*
X160909000Y-106299000D01*
X168525000Y-110505000D02*
X168525000Y-107692000D01*
X166624000Y-105791000D02*
X158331000Y-105791000D01*
X168525000Y-107692000D02*
X166624000Y-105791000D01*
X158331000Y-105791000D02*
X158320000Y-105780000D01*
X169025000Y-110505000D02*
X169025000Y-107430000D01*
X166875000Y-105280000D02*
X158320000Y-105280000D01*
X169025000Y-107430000D02*
X166875000Y-105280000D01*
X163195000Y-100838000D02*
X169525000Y-107168000D01*
X163195000Y-100838000D02*
X157226000Y-100838000D01*
X155570000Y-102030000D02*
X155570000Y-101224000D01*
X155956000Y-100838000D02*
X157226000Y-100838000D01*
X155570000Y-101224000D02*
X155956000Y-100838000D01*
X169525000Y-107168000D02*
X169525000Y-110505000D01*
X170025000Y-106906000D02*
X163506998Y-100387998D01*
X155070000Y-100962000D02*
X155644002Y-100387998D01*
X155644002Y-100387998D02*
X163506998Y-100387998D01*
X170025000Y-110505000D02*
X170025000Y-106906000D01*
X155070000Y-100962000D02*
X155070000Y-102030000D01*
X136320000Y-112780000D02*
X125988000Y-112780000D01*
X125988000Y-112780000D02*
X125730000Y-112522000D01*
X125095000Y-114855000D02*
X125095000Y-113792000D01*
X125730000Y-112522000D02*
X125730000Y-110490000D01*
X125095000Y-113792000D02*
X125730000Y-112522000D01*
X125980000Y-110240000D02*
X125730000Y-110490000D01*
X125095000Y-115255000D02*
X125095000Y-114300000D01*
X178678000Y-122630000D02*
X179907000Y-122630000D01*
X179907000Y-122630000D02*
X180086000Y-122809000D01*
X178678000Y-119630000D02*
X180082000Y-119630000D01*
X180082000Y-119630000D02*
X180086000Y-119634000D01*
X178678000Y-118130000D02*
X180066000Y-118130000D01*
X180066000Y-118130000D02*
X180086000Y-118110000D01*
X178678000Y-116630000D02*
X180042000Y-116630000D01*
X180042000Y-116630000D02*
X180086000Y-116586000D01*
X178678000Y-115130000D02*
X180018000Y-115130000D01*
X180018000Y-115130000D02*
X180086000Y-115062000D01*
D34*
X179705000Y-144225000D02*
X178896000Y-144225000D01*
X178896000Y-144225000D02*
X178435000Y-143637000D01*
X171450000Y-144225000D02*
X172513000Y-144225000D01*
X172513000Y-144225000D02*
X173101000Y-143510000D01*
D33*
X125095000Y-117555000D02*
X125302000Y-117555000D01*
X125302000Y-117555000D02*
X126111000Y-117983000D01*
X124921000Y-117729000D02*
X125095000Y-117555000D01*
X124921000Y-117729000D02*
X125095000Y-117555000D01*
X166975000Y-118805000D02*
X166975000Y-117505000D01*
X166975000Y-117505000D02*
X166975000Y-116205000D01*
X166975000Y-116205000D02*
X166975000Y-114905000D01*
X166975000Y-114905000D02*
X168275000Y-114905000D01*
X168275000Y-114905000D02*
X169575000Y-114905000D01*
X169575000Y-114905000D02*
X169575000Y-116205000D01*
X169575000Y-116205000D02*
X169575000Y-117505000D01*
X169575000Y-117505000D02*
X168275000Y-117505000D01*
X168275000Y-117505000D02*
X166975000Y-117505000D01*
X166975000Y-117505000D02*
X168275000Y-116205000D01*
X165675000Y-113605000D02*
X166975000Y-113605000D01*
X166975000Y-113605000D02*
X168275000Y-113605000D01*
X168275000Y-113605000D02*
X169575000Y-113605000D01*
X169575000Y-113605000D02*
X170875000Y-113605000D01*
X170875000Y-113605000D02*
X170875000Y-114905000D01*
X170875000Y-114905000D02*
X170875000Y-116205000D01*
X170875000Y-116205000D02*
X170875000Y-117505000D01*
X170875000Y-117505000D02*
X170875000Y-118805000D01*
X170875000Y-118805000D02*
X169575000Y-118805000D01*
X169575000Y-118805000D02*
X168275000Y-118805000D01*
X168275000Y-118805000D02*
X166975000Y-118805000D01*
X166975000Y-118805000D02*
X165675000Y-118805000D01*
X165675000Y-118805000D02*
X165675000Y-117505000D01*
X165675000Y-117505000D02*
X165675000Y-116205000D01*
X165675000Y-116205000D02*
X165675000Y-114905000D01*
X165675000Y-114905000D02*
X165675000Y-113605000D01*
X180848000Y-103600000D02*
X180848000Y-104267000D01*
X178095000Y-103600000D02*
X180848000Y-103600000D01*
X180848000Y-103600000D02*
X183855000Y-103600000D01*
X148070000Y-102030000D02*
X148070000Y-101104000D01*
X151210000Y-100504000D02*
X151210000Y-99695000D01*
X150876000Y-100838000D02*
X151210000Y-100504000D01*
X148336000Y-100838000D02*
X150876000Y-100838000D01*
X148070000Y-101104000D02*
X148336000Y-100838000D01*
X129290000Y-137570000D02*
X129823000Y-137570000D01*
X129823000Y-137570000D02*
X129921000Y-137668000D01*
D34*
X125560000Y-122770000D02*
X125560000Y-123995000D01*
X125560000Y-123995000D02*
X125095000Y-124460000D01*
D33*
X179705000Y-144225000D02*
X180293000Y-144225000D01*
X171450000Y-144225000D02*
X171657000Y-144225000D01*
X171657000Y-144225000D02*
X172085000Y-144653000D01*
X135277000Y-102892000D02*
X135277000Y-102511000D01*
X135277000Y-105432000D02*
X135277000Y-102892000D01*
X135277000Y-102511000D02*
X135255000Y-102489000D01*
X170875000Y-116205000D02*
X170875000Y-117505000D01*
X170875000Y-116205000D02*
X169575000Y-114905000D01*
X150270000Y-137570000D02*
X150368000Y-137668000D01*
X149610000Y-137570000D02*
X150270000Y-137570000D01*
X140110000Y-137570000D02*
X140208000Y-137668000D01*
X139450000Y-137570000D02*
X140110000Y-137570000D01*
D34*
X184150000Y-130715000D02*
X184150000Y-128905000D01*
D33*
X151570000Y-124030000D02*
X151570000Y-122614000D01*
X151570000Y-122614000D02*
X151511000Y-122555000D01*
X158320000Y-106280000D02*
X159366000Y-106280000D01*
X159366000Y-106280000D02*
X159639000Y-106553000D01*
D34*
X166370000Y-140530000D02*
X166370000Y-141732000D01*
X166370000Y-141732000D02*
X165862000Y-142240000D01*
X175768000Y-140530000D02*
X175768000Y-141859000D01*
X175768000Y-141859000D02*
X175387000Y-142240000D01*
D33*
X136320000Y-105780000D02*
X135393000Y-105780000D01*
X135429000Y-105280000D02*
X136320000Y-105280000D01*
X135277000Y-105432000D02*
X135429000Y-105280000D01*
X135277000Y-105664000D02*
X135277000Y-105432000D01*
X135393000Y-105780000D02*
X135277000Y-105664000D01*
X154570000Y-131670000D02*
X154570000Y-133107000D01*
X154570000Y-133107000D02*
X154813000Y-133350000D01*
X144410000Y-131670000D02*
X144410000Y-132980000D01*
X144410000Y-132980000D02*
X144780000Y-133350000D01*
X134250000Y-131670000D02*
X134250000Y-132980000D01*
X134250000Y-132980000D02*
X134493000Y-133223000D01*
X124090000Y-131670000D02*
X124090000Y-133234000D01*
X124090000Y-133234000D02*
X124206000Y-133350000D01*
X173975000Y-112455000D02*
X174913600Y-112455000D01*
X174479400Y-113455000D02*
X174530300Y-113404100D01*
X174530300Y-113404100D02*
X174860500Y-113404100D01*
X174860500Y-113404100D02*
X175031400Y-113233200D01*
X175031400Y-113233200D02*
X175031400Y-112572800D01*
X174479400Y-113455000D02*
X173975000Y-113455000D01*
X174913600Y-112455000D02*
X175031400Y-112572800D01*
X173975000Y-117455000D02*
X175875000Y-117455000D01*
X175875000Y-117455000D02*
X175895000Y-117475000D01*
X167025000Y-121905000D02*
X167025000Y-123317000D01*
X167025000Y-123317000D02*
X167005000Y-123317000D01*
X167525000Y-121905000D02*
X167525000Y-123317000D01*
X167525000Y-123317000D02*
X167513000Y-123317000D01*
X168025000Y-121905000D02*
X168025000Y-123317000D01*
X168025000Y-123317000D02*
X168021000Y-123317000D01*
X168525000Y-121905000D02*
X168525000Y-123317000D01*
X168525000Y-123317000D02*
X168402000Y-123317000D01*
X166525000Y-121905000D02*
X166525000Y-123162000D01*
X166525000Y-123162000D02*
X166370000Y-123317000D01*
X166370000Y-123317000D02*
X167005000Y-123317000D01*
X167005000Y-123317000D02*
X167513000Y-123317000D01*
X167513000Y-123317000D02*
X168021000Y-123317000D01*
X168021000Y-123317000D02*
X168402000Y-123317000D01*
X168402000Y-123317000D02*
X168656000Y-123317000D01*
X168656000Y-123317000D02*
X169025000Y-122948000D01*
X169025000Y-122948000D02*
X169025000Y-121905000D01*
X166025000Y-121905000D02*
X166025000Y-122972000D01*
X166025000Y-122972000D02*
X166370000Y-123317000D01*
X158320000Y-116780000D02*
X156912000Y-116780000D01*
X156912000Y-116780000D02*
X156718000Y-116586000D01*
X139570000Y-102030000D02*
X139570000Y-102994000D01*
X139570000Y-102994000D02*
X140335000Y-103378000D01*
X144070000Y-102030000D02*
X144070000Y-103684000D01*
X144070000Y-103684000D02*
X144145000Y-103759000D01*
X148070000Y-102030000D02*
X148070000Y-103747000D01*
X148070000Y-103747000D02*
X148082000Y-103759000D01*
X152570000Y-102030000D02*
X152570000Y-103716000D01*
X152570000Y-103716000D02*
X152527000Y-103759000D01*
X158320000Y-110780000D02*
X156881000Y-110780000D01*
X156881000Y-110780000D02*
X156718000Y-110617000D01*
X154070000Y-124030000D02*
X154070000Y-122790000D01*
X154070000Y-122790000D02*
X154051000Y-122428000D01*
X146570000Y-124030000D02*
X146570000Y-122567000D01*
X146570000Y-122567000D02*
X146558000Y-122555000D01*
X141070000Y-124030000D02*
X141070000Y-122582000D01*
X141070000Y-122582000D02*
X141097000Y-122555000D01*
X159770000Y-137570000D02*
X160430000Y-137570000D01*
X160430000Y-137570000D02*
X160528000Y-137668000D01*
D34*
X175387000Y-142240000D02*
X175260000Y-142240000D01*
D33*
X142070000Y-102030000D02*
X142070000Y-103716000D01*
X142070000Y-103716000D02*
X142113000Y-103759000D01*
X133350000Y-109535000D02*
X132146000Y-109535000D01*
X132014000Y-109535000D02*
X132080000Y-109601000D01*
X132146000Y-109535000D02*
X132080000Y-109601000D01*
X133350000Y-109855000D02*
X133350000Y-109535000D01*
X132014000Y-109535000D02*
X130810000Y-109535000D01*
X151300000Y-100185000D02*
X150810000Y-99695000D01*
X150810000Y-100015000D02*
X150810000Y-99695000D01*
X150622000Y-100203000D02*
X150810000Y-100015000D01*
D34*
X165862000Y-142240000D02*
X165608000Y-142240000D01*
X166370000Y-140530000D02*
X166370000Y-138811000D01*
D33*
X170133000Y-128350000D02*
X168910000Y-128350000D01*
X171403000Y-128397000D02*
X170180000Y-128397000D01*
X170133000Y-128350000D02*
X170180000Y-128397000D01*
X171403000Y-128397000D02*
X171450000Y-128350000D01*
X136320000Y-113780000D02*
X132473000Y-113780000D01*
X127889000Y-110109000D02*
X125730000Y-107950000D01*
X127889000Y-111379000D02*
X127889000Y-110109000D01*
X128651000Y-112141000D02*
X127889000Y-111379000D01*
X128905000Y-112141000D02*
X128651000Y-112141000D01*
X132334000Y-112141000D02*
X128905000Y-112141000D01*
X132473000Y-113780000D02*
X132334000Y-113919000D01*
X122555000Y-114855000D02*
X122555000Y-114046000D01*
X121920000Y-106934000D02*
X122174000Y-106680000D01*
X122174000Y-106680000D02*
X124460000Y-106680000D01*
X124460000Y-106680000D02*
X125730000Y-105410000D01*
X121920000Y-113411000D02*
X121920000Y-106934000D01*
X122555000Y-114046000D02*
X121920000Y-113411000D01*
X128905000Y-111506000D02*
X129413000Y-111506000D01*
X133076000Y-111780000D02*
X132802000Y-111506000D01*
X132802000Y-111506000D02*
X129413000Y-111506000D01*
X136320000Y-111780000D02*
X133076000Y-111780000D01*
X128397000Y-108077000D02*
X125730000Y-105410000D01*
X128397000Y-110998000D02*
X128397000Y-108077000D01*
X128905000Y-111506000D02*
X128397000Y-110998000D01*
X128147000Y-113280000D02*
X127889000Y-113538000D01*
X125730000Y-100330000D02*
X127889000Y-102489000D01*
X129159000Y-110744000D02*
X129159000Y-107442000D01*
X129159000Y-107442000D02*
X127889000Y-106172000D01*
X127889000Y-106172000D02*
X127889000Y-102489000D01*
X127635000Y-114855000D02*
X127635000Y-113792000D01*
X128147000Y-113280000D02*
X136320000Y-113280000D01*
X127635000Y-113792000D02*
X128147000Y-113280000D01*
X136316000Y-113284000D02*
X136320000Y-113280000D01*
X127635000Y-115189000D02*
X127635000Y-115255000D01*
X133350000Y-103040000D02*
X133350000Y-100330000D01*
X134747000Y-104013000D02*
X134747000Y-103378000D01*
X135355000Y-106780000D02*
X134747000Y-106172000D01*
X134747000Y-106172000D02*
X134747000Y-104013000D01*
X136320000Y-106780000D02*
X135355000Y-106780000D01*
X134409000Y-103040000D02*
X133350000Y-103040000D01*
X134747000Y-103378000D02*
X134409000Y-103040000D01*
X126043500Y-120586500D02*
X129603500Y-120586500D01*
X132207000Y-117221000D02*
X132648000Y-116780000D01*
X132648000Y-116780000D02*
X136320000Y-116780000D01*
X132207000Y-117983000D02*
X132207000Y-117221000D01*
X129603500Y-120586500D02*
X132207000Y-117983000D01*
X126043500Y-120586500D02*
X125560000Y-121070000D01*
X123360000Y-119380000D02*
X126873000Y-119380000D01*
X127635000Y-118618000D02*
X126873000Y-119380000D01*
X127635000Y-118618000D02*
X127635000Y-117555000D01*
X123360000Y-119380000D02*
X123444000Y-119380000D01*
X123444000Y-119380000D02*
X123360000Y-119380000D01*
D34*
X123360000Y-121070000D02*
X123360000Y-119380000D01*
X123360000Y-119380000D02*
X123360000Y-118360000D01*
X123360000Y-118360000D02*
X122555000Y-117555000D01*
X123360000Y-122770000D02*
X123360000Y-121070000D01*
X122682000Y-130048000D02*
X122809000Y-130048000D01*
X122682000Y-133858000D02*
X122682000Y-130048000D01*
X123444000Y-134620000D02*
X122682000Y-133858000D01*
X123360000Y-129497000D02*
X123360000Y-122770000D01*
X122809000Y-130048000D02*
X123360000Y-129497000D01*
D33*
X124460000Y-111887000D02*
X124460000Y-112141000D01*
X122729000Y-117555000D02*
X123825000Y-116586000D01*
X123825000Y-116586000D02*
X123825000Y-112776000D01*
X122555000Y-117555000D02*
X122729000Y-117555000D01*
X124460000Y-109220000D02*
X124460000Y-111887000D01*
X124460000Y-109220000D02*
X123190000Y-107950000D01*
X124460000Y-112141000D02*
X123825000Y-112776000D01*
D34*
X123190000Y-123440000D02*
X123610000Y-123020000D01*
X123444000Y-132715000D02*
X123440000Y-132715000D01*
X123444000Y-135128000D02*
X123444000Y-132715000D01*
X123571000Y-135255000D02*
X123444000Y-135128000D01*
X133604000Y-132715000D02*
X133600000Y-132715000D01*
X133604000Y-134874000D02*
X133604000Y-132715000D01*
X133985000Y-135255000D02*
X133604000Y-134874000D01*
X143764000Y-132715000D02*
X143760000Y-132715000D01*
X143764000Y-134874000D02*
X143764000Y-132715000D01*
X144145000Y-135255000D02*
X143764000Y-134874000D01*
X153920000Y-134239000D02*
X153920000Y-132719000D01*
X153920000Y-134870000D02*
X153920000Y-134239000D01*
X153920000Y-134239000D02*
X153920000Y-134235000D01*
X154305000Y-135255000D02*
X153920000Y-134870000D01*
X122555000Y-121285000D02*
X122555000Y-121070000D01*
X122555000Y-121070000D02*
X122555000Y-121285000D01*
X122555000Y-121285000D02*
X123360000Y-121070000D01*
X163830000Y-131826000D02*
X162306000Y-131826000D01*
X162306000Y-131826000D02*
X159512000Y-134620000D01*
X159512000Y-134620000D02*
X153924000Y-134620000D01*
X153924000Y-134620000D02*
X152400000Y-134620000D01*
X153924000Y-134620000D02*
X153920000Y-134620000D01*
D33*
X153920000Y-133985000D02*
X153920000Y-134620000D01*
X153920000Y-132719000D02*
X153920000Y-133985000D01*
D34*
X152400000Y-134620000D02*
X143760000Y-134620000D01*
X143764000Y-134620000D02*
X142240000Y-134620000D01*
X143760000Y-134620000D02*
X143764000Y-134620000D01*
X143764000Y-134620000D02*
X143760000Y-134620000D01*
D33*
X143760000Y-133965000D02*
X143760000Y-134620000D01*
D34*
X142240000Y-134620000D02*
X133600000Y-134620000D01*
X133604000Y-134620000D02*
X132715000Y-134620000D01*
X133600000Y-134620000D02*
X133604000Y-134620000D01*
X133604000Y-134620000D02*
X133600000Y-134620000D01*
D33*
X133600000Y-133965000D02*
X133600000Y-134620000D01*
D34*
X132695000Y-134640000D02*
X132715000Y-134620000D01*
X132715000Y-134620000D02*
X123444000Y-134620000D01*
X123444000Y-134620000D02*
X123440000Y-134620000D01*
X123444000Y-134747000D02*
X123440000Y-134747000D01*
X123444000Y-134624000D02*
X123444000Y-134747000D01*
X123440000Y-134620000D02*
X123444000Y-134624000D01*
D33*
X123440000Y-133965000D02*
X123440000Y-134747000D01*
D34*
X151765000Y-134640000D02*
X152380000Y-134640000D01*
X152380000Y-134640000D02*
X152400000Y-134620000D01*
X141605000Y-134640000D02*
X142220000Y-134640000D01*
X142220000Y-134640000D02*
X142240000Y-134620000D01*
X131445000Y-134640000D02*
X132695000Y-134640000D01*
X130175000Y-117155000D02*
X127635000Y-117155000D01*
X122428000Y-118110000D02*
X122428000Y-117282000D01*
X122428000Y-117282000D02*
X122555000Y-117155000D01*
X163830000Y-132985000D02*
X163830000Y-131826000D01*
D33*
X123440000Y-131670000D02*
X123440000Y-131187000D01*
X153920000Y-131670000D02*
X153920000Y-132719000D01*
X153920000Y-134620000D02*
X153920000Y-137570000D01*
X143760000Y-131670000D02*
X143760000Y-132715000D01*
X143760000Y-132715000D02*
X143760000Y-133965000D01*
X143760000Y-134620000D02*
X143760000Y-137570000D01*
X133600000Y-131670000D02*
X133600000Y-132715000D01*
X133600000Y-132715000D02*
X133600000Y-133965000D01*
X133600000Y-134620000D02*
X133600000Y-137570000D01*
X123440000Y-131670000D02*
X123440000Y-132715000D01*
X123440000Y-132715000D02*
X123440000Y-133965000D01*
X123440000Y-134747000D02*
X123440000Y-137570000D01*
X158320000Y-104280000D02*
X156451000Y-104280000D01*
X156451000Y-104280000D02*
X155448000Y-105283000D01*
X155448000Y-105283000D02*
X155448000Y-106426000D01*
X155448000Y-106426000D02*
X155802000Y-106780000D01*
X155802000Y-106780000D02*
X158320000Y-106780000D01*
X158320000Y-106780000D02*
X156745000Y-106780000D01*
X156745000Y-106780000D02*
X156718000Y-106807000D01*
X156464000Y-104280000D02*
X156451000Y-104280000D01*
X156451000Y-104280000D02*
X155448000Y-105283000D01*
X158320000Y-106780000D02*
X155448000Y-106780000D01*
X155448000Y-106780000D02*
X155475000Y-106807000D01*
X166370000Y-131826000D02*
X166370000Y-132735000D01*
X146070000Y-102030000D02*
X146070000Y-99755000D01*
X146070000Y-99755000D02*
X146130000Y-99695000D01*
D35*
X166243000Y-131826000D02*
X166370000Y-131826000D01*
X165354000Y-130937000D02*
X166243000Y-131826000D01*
X165227000Y-130937000D02*
X165354000Y-130937000D01*
X163957000Y-129667000D02*
X165227000Y-130937000D01*
X162941000Y-128651000D02*
X163703000Y-129413000D01*
X163703000Y-129413000D02*
X163957000Y-129667000D01*
X162941000Y-128651000D02*
X156908500Y-122618500D01*
D33*
X156845000Y-122555000D02*
X156908500Y-122618500D01*
X156070000Y-121780000D02*
X156083000Y-121793000D01*
D35*
X156908500Y-122618500D02*
X156083000Y-121793000D01*
X156083000Y-121793000D02*
X155575000Y-121158000D01*
D33*
X153416000Y-121285000D02*
X153543000Y-121158000D01*
X153416000Y-122809000D02*
X153416000Y-121285000D01*
D35*
X155448000Y-117348000D02*
X155448000Y-121031000D01*
X155575000Y-121158000D02*
X153543000Y-121158000D01*
X153543000Y-121158000D02*
X145542000Y-121158000D01*
D33*
X153416000Y-122809000D02*
X153035000Y-122809000D01*
X153035000Y-122809000D02*
X152908000Y-122682000D01*
X153570000Y-122963000D02*
X153416000Y-122809000D01*
X155829000Y-117348000D02*
X155448000Y-117348000D01*
X155516000Y-117348000D02*
X155829000Y-117348000D01*
X155448000Y-117280000D02*
X155516000Y-117348000D01*
X145570000Y-122682000D02*
X145570000Y-121158000D01*
X145570000Y-121158000D02*
X145542000Y-121158000D01*
D35*
X155448000Y-111252000D02*
X155448000Y-117348000D01*
X145542000Y-121158000D02*
X144526000Y-121158000D01*
D33*
X155448000Y-108585000D02*
X156210000Y-108585000D01*
X155448000Y-108585000D02*
X155575000Y-108585000D01*
X155575000Y-108585000D02*
X155448000Y-108585000D01*
X145034000Y-122682000D02*
X145570000Y-122682000D01*
X145570000Y-122682000D02*
X145542000Y-122682000D01*
X145542000Y-122682000D02*
X145570000Y-122682000D01*
X144570000Y-122682000D02*
X145034000Y-122682000D01*
X144570000Y-122682000D02*
X144526000Y-122682000D01*
X144526000Y-122682000D02*
X144570000Y-122682000D01*
D35*
X155448000Y-111252000D02*
X155448000Y-108585000D01*
X155448000Y-108585000D02*
X155448000Y-105283000D01*
X155448000Y-105283000D02*
X155321000Y-105156000D01*
D33*
X156070000Y-104534000D02*
X155829000Y-104648000D01*
X155829000Y-104648000D02*
X155321000Y-105156000D01*
D35*
X153162000Y-105156000D02*
X155321000Y-105156000D01*
X155321000Y-105156000D02*
X155448000Y-105156000D01*
D33*
X156718000Y-111280000D02*
X155448000Y-111280000D01*
X155575000Y-111252000D02*
X155448000Y-111252000D01*
X155476000Y-111252000D02*
X155575000Y-111252000D01*
X155448000Y-111280000D02*
X155476000Y-111252000D01*
X144570000Y-122682000D02*
X144570000Y-122555000D01*
X144570000Y-122555000D02*
X144570000Y-121158000D01*
X144570000Y-121158000D02*
X144526000Y-121158000D01*
D35*
X144526000Y-121158000D02*
X139954000Y-121158000D01*
D33*
X156210000Y-104267000D02*
X156223000Y-104280000D01*
X156223000Y-104280000D02*
X156324000Y-104280000D01*
X151765000Y-104648000D02*
X152527000Y-105156000D01*
X153416000Y-104902000D02*
X153162000Y-105156000D01*
X153416000Y-103505000D02*
X153416000Y-104902000D01*
X153197000Y-105156000D02*
X153162000Y-105156000D01*
X156070000Y-103505000D02*
X156070000Y-104534000D01*
X156324000Y-104280000D02*
X155829000Y-104648000D01*
D35*
X150241000Y-105156000D02*
X152527000Y-105156000D01*
X152527000Y-105156000D02*
X153162000Y-105156000D01*
D33*
X140070000Y-122682000D02*
X140070000Y-121158000D01*
X139954000Y-121285000D02*
X139954000Y-121158000D01*
X139954000Y-121274000D02*
X139954000Y-121285000D01*
X140070000Y-121158000D02*
X139954000Y-121274000D01*
D35*
X139954000Y-121158000D02*
X139192000Y-121158000D01*
D33*
X150070000Y-104819000D02*
X149733000Y-105156000D01*
X149570000Y-103632000D02*
X149570000Y-104993000D01*
X149570000Y-104993000D02*
X149733000Y-105156000D01*
X156083000Y-103505000D02*
X156070000Y-103505000D01*
X156070000Y-103505000D02*
X156083000Y-103505000D01*
X156083000Y-103505000D02*
X156070000Y-103505000D01*
X140070000Y-122682000D02*
X139319000Y-122682000D01*
X149733000Y-104775000D02*
X149733000Y-105156000D01*
X149733000Y-105120000D02*
X149733000Y-104775000D01*
X149697000Y-105156000D02*
X149733000Y-105120000D01*
X150197000Y-105156000D02*
X150241000Y-105112000D01*
X150241000Y-105112000D02*
X150241000Y-104648000D01*
X150241000Y-104648000D02*
X150241000Y-105156000D01*
X151765000Y-103378000D02*
X151765000Y-104648000D01*
X153070000Y-103159000D02*
X153416000Y-103505000D01*
X157099000Y-104280000D02*
X156464000Y-104280000D01*
X156464000Y-104280000D02*
X156324000Y-104280000D01*
D35*
X146685000Y-105156000D02*
X149733000Y-105156000D01*
X149733000Y-105156000D02*
X150241000Y-105156000D01*
D33*
X138570000Y-121780000D02*
X139192000Y-121158000D01*
X138570000Y-121780000D02*
X139192000Y-121158000D01*
D35*
X139192000Y-121158000D02*
X139192000Y-119253000D01*
D33*
X149570000Y-103632000D02*
X149860000Y-103632000D01*
X139065000Y-117348000D02*
X139192000Y-117348000D01*
X139192000Y-117348000D02*
X139065000Y-117348000D01*
X139065000Y-117348000D02*
X139192000Y-117348000D01*
X146070000Y-105156000D02*
X146050000Y-105156000D01*
X146570000Y-103632000D02*
X146570000Y-105156000D01*
X146685000Y-104902000D02*
X146685000Y-105156000D01*
X146685000Y-105041000D02*
X146685000Y-104902000D01*
X146570000Y-105156000D02*
X146685000Y-105041000D01*
X152070000Y-103073000D02*
X151765000Y-103378000D01*
D35*
X141097000Y-105156000D02*
X146050000Y-105156000D01*
X146050000Y-105156000D02*
X146685000Y-105156000D01*
D33*
X139065000Y-119253000D02*
X139192000Y-119253000D01*
X139165000Y-119253000D02*
X139065000Y-119253000D01*
X139192000Y-119280000D02*
X139165000Y-119253000D01*
D35*
X139192000Y-119253000D02*
X139192000Y-117475000D01*
D33*
X156718000Y-111280000D02*
X156718000Y-111760000D01*
X156718000Y-111280000D02*
X156718000Y-111379000D01*
X156718000Y-111379000D02*
X156718000Y-111280000D01*
X157099000Y-104280000D02*
X157099000Y-104013000D01*
X157099000Y-104013000D02*
X156845000Y-103759000D01*
X139319000Y-122682000D02*
X138570000Y-122682000D01*
X138570000Y-122682000D02*
X138684000Y-122682000D01*
X138684000Y-122682000D02*
X138570000Y-122682000D01*
X138570000Y-122682000D02*
X138570000Y-121780000D01*
X141070000Y-103251000D02*
X141070000Y-105156000D01*
X141097000Y-105029000D02*
X141097000Y-105156000D01*
X141097000Y-105129000D02*
X141097000Y-105029000D01*
X141070000Y-105156000D02*
X141097000Y-105129000D01*
D35*
X139192000Y-105156000D02*
X141097000Y-105156000D01*
X141097000Y-105156000D02*
X141097000Y-105156000D01*
D33*
X138557000Y-104648000D02*
X139192000Y-105156000D01*
D35*
X139192000Y-117475000D02*
X139192000Y-115316000D01*
X139192000Y-108204000D02*
X139192000Y-105156000D01*
D33*
X146177000Y-103632000D02*
X146570000Y-103632000D01*
X146570000Y-103632000D02*
X146558000Y-103632000D01*
X146558000Y-103632000D02*
X146570000Y-103632000D01*
X141097000Y-103251000D02*
X141070000Y-103251000D01*
X141224000Y-103378000D02*
X141097000Y-103251000D01*
X138570000Y-104140000D02*
X138430000Y-104140000D01*
X138887000Y-108280000D02*
X139192000Y-108585000D01*
X139192000Y-115280000D02*
X139192000Y-115316000D01*
X139065000Y-108204000D02*
X139192000Y-108204000D01*
X139141000Y-108204000D02*
X139065000Y-108204000D01*
X139192000Y-108153000D02*
X139141000Y-108204000D01*
X138570000Y-104140000D02*
X138570000Y-104661000D01*
X138570000Y-104661000D02*
X138557000Y-104648000D01*
X138583000Y-104267000D02*
X138557000Y-104648000D01*
D35*
X139192000Y-115316000D02*
X139192000Y-108585000D01*
X139192000Y-108585000D02*
X139192000Y-108204000D01*
D33*
X138430000Y-104140000D02*
X137795000Y-103505000D01*
X138570000Y-102870000D02*
X138570000Y-104140000D01*
X137795000Y-103505000D02*
X138430000Y-103505000D01*
X138570000Y-103365000D02*
X138570000Y-102870000D01*
X138430000Y-103505000D02*
X138570000Y-103365000D01*
X150070000Y-102030000D02*
X150070000Y-104819000D01*
X149570000Y-102030000D02*
X149570000Y-103632000D01*
X157099000Y-117983000D02*
X157099000Y-117602000D01*
X157421000Y-117280000D02*
X158320000Y-117280000D01*
X157099000Y-117602000D02*
X157421000Y-117280000D01*
X157167000Y-117280000D02*
X158320000Y-117280000D01*
X156718000Y-106807000D02*
X156718000Y-106780000D01*
X156718000Y-106780000D02*
X156718000Y-106807000D01*
X156718000Y-106807000D02*
X156718000Y-106780000D01*
X158320000Y-106780000D02*
X156718000Y-106780000D01*
X156718000Y-106780000D02*
X155448000Y-106780000D01*
X155829000Y-106807000D02*
X155448000Y-106807000D01*
X155475000Y-106807000D02*
X155829000Y-106807000D01*
X155448000Y-106780000D02*
X155475000Y-106807000D01*
X138570000Y-102030000D02*
X138570000Y-102730000D01*
X136320000Y-108280000D02*
X138887000Y-108280000D01*
X141070000Y-102030000D02*
X141070000Y-103251000D01*
X153570000Y-124030000D02*
X153570000Y-122963000D01*
X138570000Y-102030000D02*
X138570000Y-99729000D01*
X146070000Y-102030000D02*
X146070000Y-105156000D01*
X146570000Y-102030000D02*
X146570000Y-103632000D01*
X152070000Y-102030000D02*
X152070000Y-103073000D01*
X153070000Y-102030000D02*
X153070000Y-103159000D01*
X156070000Y-102030000D02*
X156070000Y-103505000D01*
X158320000Y-104280000D02*
X157099000Y-104280000D01*
X158320000Y-111280000D02*
X156718000Y-111280000D01*
X158320000Y-117280000D02*
X155448000Y-117280000D01*
X158320000Y-121780000D02*
X157747000Y-121780000D01*
X157747000Y-121780000D02*
X156908500Y-122618500D01*
X156070000Y-124030000D02*
X156070000Y-123457000D01*
X156070000Y-123457000D02*
X156908500Y-122618500D01*
X145570000Y-124030000D02*
X145570000Y-122682000D01*
X144570000Y-124030000D02*
X144570000Y-122682000D01*
X140070000Y-124030000D02*
X140070000Y-122682000D01*
X138570000Y-124030000D02*
X138570000Y-122682000D01*
X136320000Y-121780000D02*
X138570000Y-121780000D01*
X136320000Y-119280000D02*
X139192000Y-119280000D01*
X136320000Y-115280000D02*
X139192000Y-115280000D01*
X138570000Y-102030000D02*
X138570000Y-102870000D01*
X136714000Y-104267000D02*
X138583000Y-104267000D01*
X138570000Y-99729000D02*
X138604000Y-99695000D01*
X145935000Y-99900000D02*
X145730000Y-99695000D01*
D35*
X168910000Y-131826000D02*
X160401000Y-123317000D01*
X159893000Y-122809000D02*
X160401000Y-123317000D01*
X153445612Y-118901612D02*
X141351000Y-118872000D01*
D33*
X139070000Y-102030000D02*
X139070000Y-103510000D01*
X139070000Y-103510000D02*
X139319000Y-103759000D01*
X136320000Y-121280000D02*
X137419000Y-121280000D01*
X136320000Y-120780000D02*
X137919000Y-120780000D01*
X155570000Y-123058000D02*
X155194000Y-122682000D01*
X155570000Y-124030000D02*
X155570000Y-123058000D01*
X136320000Y-106280000D02*
X137776000Y-106280000D01*
X137776000Y-106280000D02*
X137795000Y-106299000D01*
D34*
X141541500Y-107251500D02*
X141605000Y-107315000D01*
X141478000Y-107315000D02*
X141541500Y-107251500D01*
D33*
X136320000Y-104780000D02*
X137673000Y-104780000D01*
X137673000Y-104780000D02*
X137795000Y-104902000D01*
X140843000Y-106680000D02*
X140970000Y-106680000D01*
X140843000Y-106680000D02*
X141351000Y-107188000D01*
X141351000Y-107188000D02*
X141351000Y-107315000D01*
X140970000Y-106680000D02*
X141605000Y-107315000D01*
X153670000Y-106807000D02*
X153699612Y-106836612D01*
X157094000Y-104780000D02*
X156718000Y-105156000D01*
X158320000Y-104780000D02*
X157094000Y-104780000D01*
X153699612Y-106836612D02*
X153191612Y-107344612D01*
X137419000Y-121280000D02*
X137922000Y-120777000D01*
X141351000Y-118999000D02*
X141351000Y-118872000D01*
X140589000Y-119761000D02*
X141351000Y-118999000D01*
X137919000Y-120780000D02*
X137922000Y-120777000D01*
D35*
X153191612Y-107344612D02*
X153191612Y-118774612D01*
X141351000Y-107315000D02*
X141605000Y-107315000D01*
X141605000Y-107315000D02*
X153191612Y-107344612D01*
X141351000Y-118872000D02*
X141351000Y-107315000D01*
X168910000Y-132985000D02*
X168910000Y-131826000D01*
D33*
X182118000Y-113792000D02*
X182118000Y-110998000D01*
D34*
X182118000Y-113792000D02*
X182118000Y-123063000D01*
D33*
X178689000Y-113792000D02*
X180213000Y-113792000D01*
X177927000Y-113030000D02*
X178689000Y-113792000D01*
X176530000Y-113030000D02*
X177927000Y-113030000D01*
X172640000Y-99695000D02*
X172640000Y-101440000D01*
X172640000Y-101440000D02*
X172720000Y-101520000D01*
X182118000Y-110998000D02*
X175260000Y-104140000D01*
X175260000Y-104140000D02*
X175260000Y-104060000D01*
X170180000Y-99615000D02*
X172560000Y-99615000D01*
X172560000Y-99615000D02*
X172640000Y-99695000D01*
X176276000Y-113264000D02*
X176276000Y-113284000D01*
D34*
X172085000Y-131699000D02*
X173101000Y-130683000D01*
X172085000Y-131699000D02*
X171450000Y-131699000D01*
X171450000Y-131699000D02*
X171450000Y-130937000D01*
X173101000Y-130683000D02*
X173101000Y-128016000D01*
D33*
X175260000Y-104060000D02*
X175260000Y-103505000D01*
X175561000Y-103759000D02*
X175260000Y-104060000D01*
D34*
X175260000Y-104460000D02*
X175260000Y-104267000D01*
D33*
X173975000Y-113955000D02*
X174589000Y-113955000D01*
D34*
X171450000Y-131699000D02*
X171450000Y-132985000D01*
D33*
X171370000Y-99615000D02*
X170180000Y-99615000D01*
X172720000Y-101520000D02*
X172720000Y-100965000D01*
X172720000Y-100965000D02*
X171370000Y-99615000D01*
X173910000Y-101520000D02*
X172720000Y-101520000D01*
D34*
X172720000Y-101920000D02*
X172720000Y-101346000D01*
D33*
X175260000Y-103505000D02*
X173910000Y-101520000D01*
D34*
X173101000Y-128016000D02*
X173101000Y-126492000D01*
X173101000Y-126492000D02*
X173736000Y-125603000D01*
X177546000Y-125603000D02*
X179324000Y-124587000D01*
X179324000Y-124587000D02*
X180975000Y-124587000D01*
X180975000Y-124587000D02*
X182118000Y-123063000D01*
D33*
X175971200Y-113588800D02*
X176276000Y-113284000D01*
X176276000Y-113284000D02*
X176530000Y-113030000D01*
X175717200Y-113588800D02*
X175971200Y-113588800D01*
X175333404Y-113588800D02*
X175717200Y-113588800D01*
X175068102Y-113854102D02*
X175333404Y-113588800D01*
X174689898Y-113854102D02*
X175068102Y-113854102D01*
X174589000Y-113955000D02*
X174689898Y-113854102D01*
D34*
X174625000Y-131826000D02*
X174625000Y-122555000D01*
X174625000Y-122555000D02*
X172466000Y-120396000D01*
X169418000Y-120396000D02*
X172466000Y-120396000D01*
X172466000Y-120396000D02*
X172466000Y-112903000D01*
D33*
X173228000Y-112955000D02*
X172466000Y-112955000D01*
X172466000Y-112955000D02*
X172466000Y-112903000D01*
X169525000Y-120650000D02*
X169525000Y-120396000D01*
X169525000Y-120396000D02*
X169418000Y-120396000D01*
D34*
X164592000Y-120396000D02*
X169418000Y-120396000D01*
X172466000Y-112903000D02*
X172466000Y-112014000D01*
X172466000Y-112014000D02*
X164084000Y-112014000D01*
D33*
X169545000Y-120650000D02*
X169525000Y-120650000D01*
X169525000Y-120650000D02*
X169545000Y-120650000D01*
X169545000Y-120650000D02*
X169525000Y-120650000D01*
X164525000Y-120904000D02*
X164525000Y-120396000D01*
X164592000Y-120523000D02*
X164592000Y-120396000D01*
X164592000Y-120463000D02*
X164592000Y-120523000D01*
X164525000Y-120396000D02*
X164592000Y-120463000D01*
D34*
X164084000Y-120396000D02*
X164592000Y-120396000D01*
X164084000Y-113538000D02*
X164084000Y-112014000D01*
D33*
X173228000Y-112955000D02*
X172899000Y-112955000D01*
X172899000Y-112955000D02*
X172847000Y-112903000D01*
X164338000Y-120904000D02*
X164525000Y-120904000D01*
X164525000Y-120904000D02*
X164465000Y-120904000D01*
X164465000Y-120904000D02*
X164525000Y-120904000D01*
X163830000Y-113455000D02*
X164084000Y-113455000D01*
X164084000Y-113455000D02*
X164084000Y-113538000D01*
D34*
X164084000Y-120396000D02*
X164084000Y-113538000D01*
D33*
X163830000Y-113411000D02*
X163830000Y-113455000D01*
X163830000Y-113455000D02*
X163830000Y-113411000D01*
X163830000Y-113411000D02*
X163830000Y-113455000D01*
X173975000Y-112955000D02*
X173228000Y-112955000D01*
X162575000Y-113455000D02*
X163830000Y-113455000D01*
X169525000Y-121905000D02*
X169525000Y-120650000D01*
X164525000Y-121905000D02*
X164525000Y-120904000D01*
D34*
X174625000Y-132985000D02*
X174625000Y-131826000D01*
D33*
X181991000Y-126365000D02*
X181991000Y-124460000D01*
D34*
X182265000Y-129306000D02*
X181991000Y-129032000D01*
X181991000Y-126365000D02*
X181991000Y-129032000D01*
X182265000Y-136600000D02*
X182265000Y-129306000D01*
D33*
X181991000Y-124460000D02*
X182753000Y-123698000D01*
D34*
X181229000Y-144526000D02*
X181864000Y-143891000D01*
X181864000Y-143891000D02*
X181864000Y-138196000D01*
X181864000Y-138196000D02*
X182265000Y-137795000D01*
X182265000Y-137902000D02*
X182265000Y-137795000D01*
D33*
X182753000Y-110697000D02*
X184865000Y-108585000D01*
X182753000Y-123698000D02*
X182753000Y-110697000D01*
X184865000Y-108585000D02*
X184865000Y-106045000D01*
X175768000Y-143510000D02*
X175768000Y-142875000D01*
X175768000Y-142875000D02*
X176718000Y-141925000D01*
D34*
X175768000Y-143510000D02*
X175328000Y-143950000D01*
D33*
X166370000Y-143510000D02*
X166370000Y-142748000D01*
X166370000Y-142748000D02*
X167320000Y-141798000D01*
D34*
X166370000Y-143510000D02*
X165930000Y-143950000D01*
D33*
X167320000Y-141798000D02*
X167320000Y-140530000D01*
X176718000Y-141925000D02*
X176718000Y-140530000D01*
D34*
X165930000Y-143950000D02*
X165420000Y-143950000D01*
X175328000Y-143950000D02*
X174818000Y-143950000D01*
X182265000Y-137795000D02*
X182265000Y-136600000D01*
X182265000Y-136600000D02*
X184150000Y-134715000D01*
X175641000Y-123063000D02*
X175641000Y-121793000D01*
X175641000Y-123063000D02*
X175641000Y-131318000D01*
X176149000Y-131826000D02*
X177165000Y-131826000D01*
X175641000Y-131318000D02*
X176149000Y-131826000D01*
X175641000Y-121793000D02*
X176657000Y-120777000D01*
D33*
X172720000Y-123063000D02*
X172720000Y-122936000D01*
X172668000Y-123011000D02*
X172720000Y-123063000D01*
X172720000Y-123063000D02*
X171831000Y-123063000D01*
X171831000Y-123063000D02*
X171525000Y-122757000D01*
X171525000Y-122757000D02*
X171525000Y-121905000D01*
X173975000Y-115955000D02*
X175129000Y-115955000D01*
X176022000Y-115824000D02*
X176149000Y-115697000D01*
X175260000Y-115824000D02*
X176022000Y-115824000D01*
X175129000Y-115955000D02*
X175260000Y-115824000D01*
X173975000Y-118955000D02*
X175089000Y-118955000D01*
X175089000Y-118955000D02*
X175387000Y-119253000D01*
D34*
X177165000Y-131826000D02*
X177165000Y-132985000D01*
D33*
X170525000Y-121376000D02*
X170307000Y-121158000D01*
D34*
X179705000Y-132735000D02*
X179705000Y-132080000D01*
X179705000Y-132080000D02*
X180975000Y-130810000D01*
D33*
X170525000Y-121905000D02*
X170525000Y-121376000D01*
X170307000Y-121158000D02*
X170025000Y-121440000D01*
X170025000Y-121440000D02*
X170025000Y-121905000D01*
X170180000Y-123063000D02*
X170180000Y-122809000D01*
X170525000Y-122464000D02*
X170525000Y-121905000D01*
X170180000Y-122809000D02*
X170525000Y-122464000D01*
X170025000Y-121905000D02*
X170025000Y-122781000D01*
D34*
X170434000Y-123825000D02*
X170180000Y-123571000D01*
X170180000Y-123571000D02*
X170180000Y-123063000D01*
X170180000Y-123063000D02*
X170180000Y-122936000D01*
X171450000Y-123825000D02*
X170942000Y-123825000D01*
X173101000Y-123825000D02*
X171450000Y-123825000D01*
X176657000Y-128778000D02*
X179705000Y-131826000D01*
X176657000Y-128778000D02*
X176657000Y-123825000D01*
X170942000Y-123825000D02*
X170434000Y-123825000D01*
D33*
X170025000Y-122781000D02*
X170180000Y-122936000D01*
D34*
X179705000Y-132985000D02*
X179705000Y-131826000D01*
X184765000Y-137795000D02*
X184765000Y-140355000D01*
X184765000Y-140355000D02*
X184150000Y-140970000D01*
D33*
X173975000Y-114955000D02*
X174859000Y-114955000D01*
X176733000Y-114630000D02*
X178678000Y-114630000D01*
X176657000Y-114554000D02*
X176733000Y-114630000D01*
X175641000Y-114554000D02*
X176657000Y-114554000D01*
X175329002Y-114865998D02*
X175641000Y-114554000D01*
X174948002Y-114865998D02*
X175329002Y-114865998D01*
X174859000Y-114955000D02*
X174948002Y-114865998D01*
X173975000Y-115455000D02*
X174994000Y-115455000D01*
X176971000Y-115630000D02*
X178678000Y-115630000D01*
X176403000Y-115062000D02*
X176971000Y-115630000D01*
X175895000Y-115062000D02*
X176403000Y-115062000D01*
X175641000Y-115316000D02*
X175895000Y-115062000D01*
X175133000Y-115316000D02*
X175641000Y-115316000D01*
X174994000Y-115455000D02*
X175133000Y-115316000D01*
X173975000Y-116455000D02*
X175264000Y-116455000D01*
X177113000Y-116130000D02*
X178678000Y-116130000D01*
X176853002Y-116389998D02*
X177113000Y-116130000D01*
X175329002Y-116389998D02*
X176853002Y-116389998D01*
X175264000Y-116455000D02*
X175329002Y-116389998D01*
X173975000Y-116955000D02*
X175502000Y-116955000D01*
X176693000Y-117130000D02*
X178678000Y-117130000D01*
X176403000Y-116840000D02*
X176693000Y-117130000D01*
X175617000Y-116840000D02*
X176403000Y-116840000D01*
X175502000Y-116955000D02*
X175617000Y-116840000D01*
X173975000Y-117955000D02*
X175486000Y-117955000D01*
X176756000Y-117630000D02*
X178678000Y-117630000D01*
X176276000Y-118110000D02*
X176756000Y-117630000D01*
X175641000Y-118110000D02*
X176276000Y-118110000D01*
X175486000Y-117955000D02*
X175641000Y-118110000D01*
X173975000Y-118455000D02*
X175351000Y-118455000D01*
X175526000Y-118630000D02*
X178678000Y-118630000D01*
X175351000Y-118455000D02*
X175526000Y-118630000D01*
X178666000Y-118618000D02*
X178678000Y-118630000D01*
X173975000Y-119455000D02*
X174700000Y-119455000D01*
X176526000Y-119130000D02*
X178678000Y-119130000D01*
X175768000Y-119888000D02*
X176526000Y-119130000D01*
X175133000Y-119888000D02*
X175768000Y-119888000D01*
X174700000Y-119455000D02*
X175133000Y-119888000D01*
X173975000Y-119955000D02*
X174438000Y-119955000D01*
X174438000Y-119955000D02*
X174879000Y-120396000D01*
X174879000Y-120396000D02*
X176022000Y-120396000D01*
X176022000Y-120396000D02*
X176288000Y-120130000D01*
X176288000Y-120130000D02*
X178678000Y-120130000D01*
X179133500Y-109791500D02*
X179133500Y-109918500D01*
X180721000Y-108585000D02*
X182165000Y-108585000D01*
X180594000Y-108458000D02*
X180721000Y-108585000D01*
X179133500Y-109918500D02*
X178689000Y-110363000D01*
X172212000Y-109093000D02*
X178435000Y-109093000D01*
X178678000Y-121630000D02*
X180757000Y-121630000D01*
X172025000Y-109280000D02*
X172025000Y-110505000D01*
X180975000Y-121412000D02*
X180757000Y-121630000D01*
X180975000Y-111633000D02*
X180975000Y-121412000D01*
X172025000Y-109280000D02*
X172212000Y-109093000D01*
X178435000Y-109093000D02*
X179133500Y-109791500D01*
X179133500Y-109791500D02*
X180975000Y-111633000D01*
X182165000Y-106045000D02*
X179324000Y-106045000D01*
X177673000Y-107696000D02*
X177673000Y-108585000D01*
X179324000Y-106045000D02*
X178816000Y-106553000D01*
X175895000Y-108585000D02*
X177673000Y-108585000D01*
X177673000Y-108585000D02*
X177927000Y-108585000D01*
X177927000Y-108585000D02*
X178689000Y-108585000D01*
X178689000Y-108585000D02*
X181483000Y-111379000D01*
X171958000Y-108585000D02*
X175895000Y-108585000D01*
X181483000Y-111379000D02*
X181483000Y-121666000D01*
X171525000Y-109018000D02*
X171958000Y-108585000D01*
X181483000Y-121666000D02*
X181019000Y-122130000D01*
X171525000Y-110505000D02*
X171525000Y-109018000D01*
X181019000Y-122130000D02*
X178678000Y-122130000D01*
X171450000Y-126050000D02*
X171450000Y-125984000D01*
X173736000Y-124714000D02*
X172386000Y-124714000D01*
X172386000Y-124714000D02*
X171450000Y-125650000D01*
X173736000Y-124714000D02*
X173736000Y-123063000D01*
X173736000Y-123063000D02*
X172578000Y-121905000D01*
X172578000Y-121905000D02*
X172025000Y-121905000D01*
X177546000Y-124714000D02*
X178503000Y-123630000D01*
X178503000Y-123630000D02*
X178678000Y-123630000D01*
X136320000Y-111280000D02*
X135156000Y-111280000D01*
X130683000Y-114554000D02*
X130382000Y-114855000D01*
X131826000Y-114554000D02*
X130683000Y-114554000D01*
X134747000Y-114554000D02*
X131826000Y-114554000D01*
X135156000Y-111280000D02*
X134747000Y-110871000D01*
X130382000Y-114855000D02*
X130175000Y-114855000D01*
X133500000Y-107485000D02*
X133350000Y-107635000D01*
X133350000Y-105240000D02*
X133350000Y-107635000D01*
X133600000Y-105490000D02*
X133350000Y-105240000D01*
X133180000Y-105410000D02*
X133350000Y-105240000D01*
X133600000Y-105490000D02*
X133350000Y-105240000D01*
X134839000Y-107280000D02*
X134747000Y-107188000D01*
X136320000Y-107280000D02*
X134839000Y-107280000D01*
X131488000Y-103040000D02*
X130810000Y-103040000D01*
X132080000Y-103632000D02*
X131488000Y-103040000D01*
X132080000Y-107061000D02*
X132080000Y-103632000D01*
X131361000Y-103040000D02*
X130810000Y-103040000D01*
X130810000Y-100330000D02*
X130810000Y-103040000D01*
X130810000Y-105240000D02*
X130810000Y-107635000D01*
D34*
X165420000Y-140530000D02*
X165420000Y-139258000D01*
X165420000Y-139258000D02*
X165120000Y-138958000D01*
X165120000Y-138958000D02*
X165120000Y-137795000D01*
D33*
X167320000Y-143950000D02*
X167835000Y-143950000D01*
X170260000Y-141525000D02*
X171450000Y-141525000D01*
X167835000Y-143950000D02*
X170260000Y-141525000D01*
X171450000Y-140415000D02*
X171450000Y-141525000D01*
D34*
X174818000Y-140530000D02*
X174818000Y-139385000D01*
X174818000Y-139385000D02*
X174645000Y-139212000D01*
X174645000Y-139212000D02*
X174645000Y-137795000D01*
D33*
X177233000Y-143950000D02*
X179658000Y-141525000D01*
X179658000Y-141525000D02*
X179705000Y-141525000D01*
X176718000Y-143950000D02*
X177233000Y-143950000D01*
X179705000Y-140415000D02*
X179705000Y-141525000D01*
D34*
X167620000Y-135890000D02*
X167620000Y-135235000D01*
X167640000Y-135255000D02*
X167640000Y-135235000D01*
X167620000Y-135235000D02*
X167640000Y-135255000D01*
X167620000Y-137795000D02*
X167620000Y-135890000D01*
D33*
X167620000Y-137795000D02*
X171370000Y-137795000D01*
X171370000Y-137795000D02*
X171450000Y-137715000D01*
D34*
X168910000Y-135235000D02*
X171450000Y-135235000D01*
X163830000Y-135235000D02*
X166370000Y-135235000D01*
X166370000Y-135235000D02*
X167640000Y-135235000D01*
X167640000Y-135235000D02*
X168910000Y-135235000D01*
X163846000Y-135001000D02*
X163862000Y-134985000D01*
X177165000Y-136144000D02*
X177145000Y-136144000D01*
X177145000Y-136144000D02*
X177165000Y-136144000D01*
X177165000Y-136144000D02*
X177145000Y-136144000D01*
D33*
X179625000Y-137795000D02*
X179705000Y-137715000D01*
D34*
X177145000Y-137795000D02*
X177145000Y-136144000D01*
D33*
X177145000Y-137795000D02*
X179625000Y-137795000D01*
D34*
X174625000Y-135235000D02*
X177165000Y-135235000D01*
X177165000Y-135235000D02*
X179705000Y-135235000D01*
X177165000Y-136144000D02*
X177165000Y-135235000D01*
X177145000Y-136144000D02*
X177145000Y-135255000D01*
X177145000Y-135255000D02*
X177165000Y-135235000D01*
X174514000Y-135096000D02*
X174625000Y-134985000D01*
D33*
X141570000Y-102030000D02*
X141570000Y-99961000D01*
X141570000Y-99961000D02*
X141304000Y-99695000D01*
X141570000Y-99980000D02*
X141285000Y-99695000D01*
X143129000Y-99695000D02*
X143830000Y-99695000D01*
X143830000Y-100264000D02*
X143830000Y-99695000D01*
X142570000Y-100254000D02*
X143129000Y-99695000D01*
X142570000Y-102030000D02*
X142570000Y-100254000D01*
X147570000Y-100969000D02*
X147570000Y-100326000D01*
X147570000Y-102030000D02*
X147570000Y-100969000D01*
X147570000Y-100326000D02*
X148201000Y-99695000D01*
X148201000Y-99695000D02*
X148510000Y-99695000D01*
X148844000Y-99695000D02*
X148510000Y-99695000D01*
X169418000Y-124587000D02*
X168910000Y-125095000D01*
X168910000Y-125095000D02*
X168910000Y-125650000D01*
X168910000Y-125650000D02*
X169498000Y-125650000D01*
X171025000Y-122980000D02*
X170942000Y-123063000D01*
X171025000Y-121905000D02*
X171025000Y-122980000D01*
X170942000Y-106172000D02*
X171323000Y-106172000D01*
X171643000Y-103820000D02*
X172720000Y-103820000D01*
X171323000Y-104140000D02*
X171643000Y-103820000D01*
X170942000Y-106299000D02*
X170942000Y-106172000D01*
X170942000Y-106172000D02*
X170942000Y-105664000D01*
X164084000Y-99441000D02*
X169882000Y-105239000D01*
X154070000Y-100438000D02*
X155067000Y-99441000D01*
X155067000Y-99441000D02*
X163068000Y-99441000D01*
X154070000Y-100438000D02*
X154070000Y-102030000D01*
X163068000Y-99441000D02*
X164084000Y-99441000D01*
X169926000Y-105283000D02*
X169882000Y-105239000D01*
X170561000Y-105283000D02*
X169926000Y-105283000D01*
X170942000Y-105664000D02*
X170561000Y-105283000D01*
X170942000Y-106299000D02*
X171025000Y-106299000D01*
X170986000Y-106255000D02*
X170942000Y-106299000D01*
X171025000Y-110505000D02*
X171025000Y-106299000D01*
X170243500Y-106362500D02*
X170243500Y-106235500D01*
X170180000Y-103251000D02*
X170180000Y-101915000D01*
X170307000Y-103378000D02*
X170180000Y-103251000D01*
X170243500Y-106235500D02*
X170307000Y-106172000D01*
X170525000Y-106644000D02*
X170243500Y-106362500D01*
X170243500Y-106362500D02*
X163818996Y-99937996D01*
X155332004Y-99937996D02*
X163818996Y-99937996D01*
X154570000Y-100700000D02*
X155332004Y-99937996D01*
X170525000Y-110505000D02*
X170525000Y-106644000D01*
X154570000Y-100700000D02*
X154570000Y-102030000D01*
X175260000Y-106360000D02*
X175260000Y-107061000D01*
X175260000Y-107061000D02*
X174498000Y-107823000D01*
X173736000Y-107823000D02*
X173736000Y-107696000D01*
X173736000Y-107696000D02*
X170434000Y-104394000D01*
X177546000Y-111125000D02*
X176276000Y-109855000D01*
X176276000Y-109855000D02*
X174498000Y-109855000D01*
X174498000Y-107823000D02*
X173736000Y-107823000D01*
X173736000Y-107823000D02*
X174625000Y-107823000D01*
X170434000Y-104394000D02*
X169926000Y-104394000D01*
X177546000Y-112268000D02*
X177546000Y-111125000D01*
X169926000Y-104394000D02*
X164465000Y-98933000D01*
X164465000Y-98933000D02*
X154686000Y-98933000D01*
X154686000Y-98933000D02*
X153570000Y-100049000D01*
X153570000Y-100049000D02*
X153570000Y-102030000D01*
X176530000Y-114046000D02*
X177546000Y-113792000D01*
X174724000Y-114455000D02*
X174853600Y-114325400D01*
X174853600Y-114325400D02*
X175233202Y-114325400D01*
X175233202Y-114325400D02*
X175512602Y-114046000D01*
X175512602Y-114046000D02*
X176530000Y-114046000D01*
X173975000Y-114455000D02*
X174724000Y-114455000D01*
X178095000Y-99600000D02*
X175435000Y-99600000D01*
X175435000Y-99600000D02*
X175340000Y-99695000D01*
X153035000Y-100330000D02*
X153035000Y-99568000D01*
X153289000Y-99314000D02*
X153543000Y-99060000D01*
X175340000Y-99775000D02*
X176276000Y-100711000D01*
X152019000Y-100711000D02*
X152654000Y-100711000D01*
X151570000Y-101160000D02*
X152019000Y-100711000D01*
X151570000Y-101160000D02*
X151570000Y-102030000D01*
X152654000Y-100711000D02*
X153035000Y-100330000D01*
X153035000Y-99568000D02*
X153289000Y-99314000D01*
X175340000Y-99695000D02*
X175340000Y-99775000D01*
X178095000Y-99600000D02*
X183855000Y-99600000D01*
X175880000Y-100235000D02*
X175340000Y-99695000D01*
M02*
